<svg width="160" height="51" viewBox="0 0 160 51" fill="none" xmlns="http://www.w3.org/2000/svg">
<path fill-rule="evenodd" clip-rule="evenodd" d="M40.253 20.0545C40.0549 20.0496 39.8664 19.9683 39.7266 19.8277C39.656 19.7587 39.5999 19.677 39.5609 19.5864C39.5218 19.4959 39.5012 19.3983 39.4999 19.2999V6.1641H34.7153C34.6171 6.16344 34.5198 6.14301 34.429 6.10402C34.3387 6.06508 34.2572 6.00835 34.1888 5.93719C34.1174 5.8689 34.0604 5.78711 34.0205 5.69653C33.9806 5.60595 33.9591 5.50838 33.9574 5.40945V0.775791C33.9617 0.576086 34.045 0.386314 34.1888 0.248049C34.2554 0.173072 34.3361 0.112378 34.4268 0.069747C34.5171 0.0271163 34.6153 0.00338409 34.7153 0H51.4911C51.5893 0.00127453 51.6866 0.0219291 51.7769 0.0608681C51.8672 0.0998072 51.9488 0.156241 52.0176 0.226955C52.0882 0.295648 52.1443 0.377656 52.1833 0.468191C52.2219 0.558771 52.2425 0.656119 52.2438 0.754697V5.37249C52.2425 5.57733 52.1605 5.7733 52.0154 5.91763C51.8703 6.06201 51.6744 6.14301 51.4701 6.14301H46.7328V19.2999C46.7315 19.3983 46.7109 19.4959 46.6719 19.5864C46.6333 19.677 46.5767 19.7587 46.5062 19.8277C46.3668 19.9688 46.1783 20.0501 45.9797 20.0545H40.253ZM56.2127 20.0545C56.0084 20.0518 55.8133 19.9692 55.6687 19.8242C55.524 19.6792 55.4416 19.4836 55.439 19.2788V0.775791C55.4434 0.576086 55.5266 0.386314 55.6709 0.248049C55.7388 0.176896 55.8203 0.120157 55.9111 0.0811743C56.0014 0.0421913 56.0987 0.0217973 56.1969 0.0210941H70.8726C70.9712 0.0217973 71.0685 0.0421913 71.1588 0.0811743C71.2491 0.120157 71.3307 0.176896 71.3991 0.248049C71.5428 0.386314 71.6261 0.576086 71.6305 0.775791V4.81833C71.6266 5.02283 71.5437 5.21783 71.3995 5.36242C71.2553 5.50706 71.0606 5.59008 70.8568 5.59412H62.2769V7.38831H70.2251C70.4246 7.39314 70.6135 7.47664 70.7516 7.6208C70.8231 7.68848 70.88 7.77067 70.9191 7.8612C70.9576 7.95218 70.9778 8.04974 70.9778 8.14863V11.8742C70.9774 11.9731 70.9567 12.0707 70.9182 12.1612C70.8792 12.2517 70.8226 12.3339 70.7516 12.402C70.6135 12.5462 70.4246 12.6297 70.2251 12.6345H62.2769V14.4391H71.083C71.2825 14.4439 71.4718 14.5274 71.6095 14.6716C71.6805 14.7397 71.737 14.8219 71.776 14.9124C71.815 15.003 71.8352 15.1005 71.8361 15.199V19.2419C71.8348 19.3403 71.8142 19.4379 71.7752 19.5284C71.7361 19.6189 71.68 19.7007 71.6095 19.7697C71.4696 19.9103 71.2811 19.9916 71.083 19.9965L56.2127 20.0545ZM76.4103 20.0545C76.2056 20.0518 76.0106 19.9692 75.8659 19.8242C75.7217 19.6792 75.6393 19.4836 75.6366 19.2788V0.775791C75.641 0.576086 75.7243 0.386314 75.8681 0.248049C75.936 0.176412 76.0176 0.119366 76.1079 0.0803393C76.1986 0.0413124 76.2959 0.021182 76.3945 0.0210941H84.8588C87.6064 0.0210941 89.7521 0.638583 91.2964 1.87351C92.0587 2.48243 92.6659 3.26394 93.0687 4.15382C93.4711 5.04366 93.6574 6.01656 93.6123 6.99268C93.6364 8.1416 93.351 9.27549 92.786 10.2753C92.2284 11.2242 91.4521 12.0258 90.5228 12.613L94.0441 19.1522C94.0967 19.2476 94.1256 19.3544 94.1282 19.4634C94.1282 19.6312 94.0616 19.7925 93.9432 19.9112C93.8249 20.0299 93.664 20.0967 93.4966 20.0967H87.6485C87.3583 20.1134 87.0716 20.0277 86.8379 19.8541C86.6565 19.7165 86.5131 19.535 86.4219 19.3262L83.9584 13.848H82.7902V19.2999C82.7818 19.5012 82.6972 19.6915 82.553 19.8317C82.4092 19.9723 82.2172 20.0518 82.016 20.0545H76.4103ZM84.8745 8.35431C85.0578 8.3653 85.2414 8.33322 85.4102 8.26114C85.5794 8.18862 85.7293 8.07787 85.8481 7.93723C86.0857 7.63838 86.2071 7.26349 86.1905 6.88184C86.1979 6.48757 86.084 6.10051 85.8639 5.77357C85.7521 5.61773 85.6026 5.49291 85.4295 5.41077C85.2568 5.32863 85.0657 5.29184 84.8745 5.30388H82.7691V8.34376L84.8745 8.35431ZM97.692 14.2598C97.5934 14.2593 97.4961 14.2387 97.4058 14.1996C97.3155 14.1609 97.2335 14.1042 97.1656 14.033C97.0941 13.9644 97.0367 13.8827 96.9973 13.7922C96.9574 13.7016 96.9359 13.604 96.9341 13.5052V9.43634C96.9381 9.23154 97.0209 9.03685 97.1651 8.89225C97.3094 8.74766 97.5036 8.66459 97.7078 8.6602H106.988C107.192 8.66459 107.386 8.74766 107.531 8.89225C107.675 9.03685 107.758 9.23154 107.762 9.43634V13.5104C107.76 13.6093 107.738 13.7069 107.698 13.7974C107.659 13.888 107.602 13.9697 107.53 14.0383C107.462 14.1095 107.38 14.1662 107.29 14.2048C107.2 14.244 107.102 14.2646 107.004 14.265L97.692 14.2598ZM70.1461 49.4803C70.2904 49.624 70.485 49.7062 70.6884 49.7089H76.4313C76.6347 49.7075 76.8293 49.6258 76.9731 49.4816C77.1169 49.3375 77.1984 49.1424 77.1997 48.9384V35.7708H81.9375C82.1365 35.7664 82.3259 35.6829 82.4635 35.5387C82.5345 35.4702 82.5911 35.3884 82.6301 35.2979C82.6691 35.2069 82.6892 35.1094 82.6901 35.0109V30.3932C82.6892 30.2943 82.6691 30.1967 82.6301 30.1062C82.5911 30.0156 82.5345 29.9339 82.4635 29.8653C82.3259 29.7212 82.1365 29.6377 81.9375 29.6333H65.1774C64.9731 29.6372 64.7789 29.7203 64.6347 29.8649C64.4905 30.0095 64.4076 30.2046 64.4033 30.409V35.0267C64.4076 35.2311 64.4905 35.4262 64.6347 35.5708C64.7789 35.7154 64.9731 35.7985 65.1774 35.8024H69.9147V48.9384C69.9186 49.1424 70.0019 49.3366 70.1461 49.4803ZM86.1067 49.4816C86.2505 49.6258 86.4451 49.7075 86.6485 49.7089H92.4861C92.6895 49.7062 92.8841 49.624 93.0283 49.4803C93.173 49.3366 93.2558 49.1424 93.2598 48.9384V30.409C93.2558 30.2046 93.173 30.0095 93.0287 29.8649C92.8845 29.7203 92.6899 29.6372 92.4861 29.6333H86.6485C86.4451 29.6372 86.2509 29.7203 86.1076 29.8653C85.9642 30.0099 85.8827 30.2051 85.88 30.409V48.9384C85.8814 49.1424 85.9629 49.3375 86.1067 49.4816ZM99.7185 48.0199C101.417 49.3392 103.698 49.9989 106.562 49.9989C109.414 49.9989 111.69 49.3392 113.389 48.0199C115.087 46.7005 115.995 44.7777 116.11 42.2515C116.163 41.2227 116.163 40.3938 116.163 39.7605C116.163 39.1272 116.147 38.2618 116.11 37.2062C116.09 35.7022 115.636 34.2365 114.805 32.9844C113.976 31.7828 112.819 30.8463 111.473 30.2877C108.307 29.065 104.801 29.065 101.635 30.2877C100.288 30.8463 99.1315 31.7828 98.3026 32.9844C97.4706 34.2356 97.0186 35.7027 97.0024 37.2062C96.9709 37.7444 96.9709 38.6152 96.9709 39.7597V39.7605C96.9709 40.4425 96.9821 41.0084 96.9911 41.4661V41.4663V41.4665V41.4669V41.4673C96.9973 41.7777 97.0024 42.0383 97.0024 42.2515C97.1146 44.7777 98.0203 46.7005 99.7185 48.0199ZM107.385 44.2789C107.123 44.3778 106.842 44.4209 106.562 44.4051C106.28 44.4213 105.999 44.3787 105.735 44.2794C105.471 44.1805 105.231 44.0271 105.03 43.8298C104.619 43.3437 104.408 42.7192 104.44 42.0828C104.414 41.5286 104.414 40.716 104.414 39.6445C104.414 39.0156 104.423 38.4866 104.431 38.0502V38.05L104.431 38.0493L104.431 38.0481C104.436 37.7421 104.44 37.4816 104.44 37.2642C104.408 36.6239 104.625 35.9958 105.046 35.5124C105.466 35.145 106.004 34.9424 106.562 34.9424C107.119 34.9424 107.658 35.145 108.077 35.5124C108.494 35.9976 108.709 36.6247 108.678 37.2642C108.735 38.2988 108.735 39.1272 108.735 39.6445C108.735 40.1618 108.714 40.9744 108.678 42.0828C108.71 42.7192 108.499 43.3437 108.088 43.8298C107.888 44.0267 107.648 44.18 107.385 44.2789ZM120.09 49.4553C120.234 49.5994 120.429 49.6812 120.632 49.6825L125.791 49.7089C125.994 49.7062 126.189 49.624 126.333 49.4803C126.477 49.3366 126.56 49.1424 126.564 48.9384V41.7237L131.396 49.0334C131.513 49.2096 131.659 49.3647 131.828 49.4922C132.045 49.6421 132.307 49.7128 132.57 49.693H137.087C137.185 49.6917 137.282 49.6711 137.372 49.6319C137.463 49.5933 137.545 49.5366 137.613 49.4658C137.684 49.3977 137.741 49.3155 137.78 49.225C137.818 49.1344 137.839 49.0369 137.839 48.9384V30.3932C137.839 30.2943 137.818 30.1967 137.78 30.1062C137.741 30.0156 137.684 29.9339 137.613 29.8653C137.475 29.7212 137.286 29.6377 137.087 29.6333H131.912C131.708 29.6372 131.514 29.7203 131.37 29.8649C131.225 30.0095 131.142 30.2046 131.138 30.409V38.2407L126.306 30.293C126.195 30.086 126.027 29.9146 125.824 29.7981C125.62 29.6816 125.388 29.6245 125.154 29.6333H120.632C120.429 29.6372 120.234 29.7203 120.091 29.8653C119.948 30.0099 119.866 30.2051 119.864 30.409V48.9116C119.865 49.1155 119.946 49.3111 120.09 49.4553ZM145.361 49.1388C147.007 49.7348 148.749 50.0174 150.499 49.9726L150.52 49.9989C152.172 50.0367 153.817 49.7704 155.373 49.2127C156.695 48.745 157.866 47.928 158.763 46.8482C159.579 45.8391 160.015 44.5743 159.995 43.2756C160.041 42.1663 159.769 41.0676 159.211 40.109C158.597 39.1843 157.712 38.4728 156.679 38.072C155.206 37.4918 153.662 37.1156 152.089 36.953C151.237 36.877 150.398 36.6999 149.588 36.4252C149.141 36.2353 148.915 35.9927 148.915 35.7075C148.915 35.1691 149.372 34.9054 150.288 34.9054C150.842 34.8861 151.382 35.0742 151.804 35.4333C151.959 35.5787 152.137 35.6983 152.331 35.7866C152.53 35.8648 152.743 35.9009 152.957 35.8921H158.7C158.779 35.8908 158.856 35.8732 158.928 35.8407C158.999 35.8077 159.063 35.7607 159.116 35.7022C159.175 35.6447 159.222 35.5761 159.254 35.4996C159.285 35.4236 159.301 35.3414 159.3 35.2588C159.213 34.2572 158.813 33.3083 158.158 32.5462C157.319 31.5358 156.247 30.7443 155.036 30.2402C153.541 29.5977 151.925 29.2843 150.299 29.3217C148.742 29.2927 147.196 29.5762 145.751 30.1558C144.53 30.6345 143.466 31.4436 142.677 32.4935C141.944 33.4828 141.556 34.6861 141.571 35.9185C141.571 39.4933 144.028 41.6042 148.941 42.2515C149.935 42.3469 150.919 42.5249 151.883 42.7847C152.394 42.9692 152.652 43.2334 152.652 43.5762C152.652 43.8227 152.457 44.0179 152.068 44.162C151.558 44.3246 151.023 44.398 150.488 44.3783C149.732 44.4064 148.989 44.1735 148.383 43.7186C148.206 43.5617 148.008 43.432 147.793 43.3336C147.588 43.2584 147.369 43.2241 147.151 43.2334H141.713C141.631 43.2321 141.549 43.2479 141.473 43.2795C141.397 43.3112 141.329 43.3582 141.272 43.418C141.213 43.476 141.167 43.545 141.135 43.621C141.103 43.697 141.087 43.7788 141.087 43.8614C141.126 44.9729 141.517 46.043 142.203 46.9168C143.032 47.9342 144.125 48.7029 145.361 49.1388ZM5.81133 49.4235C6.05045 49.6252 6.35747 49.7272 6.66914 49.7087H13.1914C13.5027 49.725 13.8091 49.6235 14.0493 49.4235C14.2501 49.2481 14.3978 49.0196 14.4758 48.7638L19.8816 30.4932V30.2928C19.8803 30.1263 19.8141 29.9667 19.6971 29.8481C19.58 29.7298 19.4213 29.6622 19.2552 29.6595H13.9336C13.621 29.6433 13.3142 29.7474 13.0753 29.9496C12.8749 30.1263 12.7255 30.3544 12.6439 30.6093L9.92788 41.2753L7.21139 30.6093C7.13424 30.3451 6.98476 30.1074 6.78005 29.9232C6.54114 29.7202 6.23429 29.6164 5.92188 29.6331H0.631716C0.548122 29.6323 0.465317 29.649 0.388342 29.6815C0.311367 29.714 0.241931 29.7624 0.184287 29.823C0.125109 29.8806 0.0782487 29.9496 0.0465556 30.0256C0.0149063 30.1017 -0.000963017 30.1838 4.52003e-05 30.2665V30.4669L5.37968 48.7638C5.46152 49.0187 5.61069 49.2468 5.81133 49.4235ZM23.4858 49.6481C23.5761 49.6872 23.6734 49.7079 23.7716 49.7087L38.663 49.6929C38.8664 49.6916 39.061 49.6098 39.2048 49.4657C39.3485 49.3215 39.4301 49.1264 39.4314 48.9225V44.8743C39.4305 44.7759 39.4099 44.6783 39.3713 44.5878C39.3323 44.4972 39.2758 44.415 39.2052 44.3469C39.1368 44.2757 39.0553 44.219 38.965 44.1799C38.8747 44.1408 38.7774 44.1206 38.6787 44.1197H29.8669V42.2883H37.8051C38.0085 42.287 38.2031 42.2053 38.3469 42.0611C38.4907 41.917 38.5722 41.7218 38.5735 41.5179V37.7866C38.5727 37.6882 38.5525 37.5906 38.5135 37.5001C38.4749 37.4091 38.4179 37.3273 38.3473 37.2592C38.279 37.1876 38.1974 37.13 38.1071 37.09C38.0168 37.0505 37.9195 37.0289 37.8209 37.0267H29.8669V35.2217H38.4631C38.5613 35.2213 38.6586 35.2006 38.7489 35.162C38.8396 35.1229 38.9212 35.0662 38.9895 34.995C39.1333 34.8565 39.2166 34.6671 39.221 34.4671V30.4247C39.217 30.2203 39.1342 30.0252 38.99 29.8806C38.8457 29.736 38.6511 29.6529 38.4473 29.649H23.7716C23.673 29.6507 23.5756 29.6723 23.4853 29.7123C23.395 29.7523 23.3135 29.8094 23.2451 29.881C23.1741 29.9496 23.1176 30.0313 23.079 30.1219C23.04 30.2128 23.0194 30.31 23.0189 30.4089V48.9541C23.0194 49.0526 23.04 49.1501 23.079 49.2407C23.1176 49.3316 23.1741 49.4134 23.2451 49.4815C23.3135 49.5527 23.3955 49.6094 23.4858 49.6481ZM43.4266 49.4802C43.5712 49.6239 43.7654 49.7061 43.9688 49.7087H49.1484C49.3518 49.7074 49.5464 49.6257 49.6907 49.4815C49.8344 49.3374 49.9155 49.1422 49.9173 48.9383V41.7394L54.7545 49.0332C54.8711 49.2081 55.0149 49.3633 55.1811 49.4921C55.4007 49.641 55.6637 49.7118 55.9285 49.6929H60.4238C60.5224 49.6929 60.6197 49.6727 60.71 49.6336C60.8008 49.5945 60.8823 49.5373 60.9503 49.4657C61.0217 49.3976 61.0791 49.3158 61.119 49.2253C61.1589 49.1348 61.18 49.0372 61.1817 48.9383V30.4089C61.18 30.31 61.1589 30.212 61.119 30.1214C61.0791 30.0309 61.0217 29.9491 60.9503 29.881C60.8828 29.809 60.8012 29.7509 60.7105 29.7109C60.6202 29.6709 60.5224 29.6499 60.4238 29.649H55.2494C55.05 29.6534 54.8611 29.7369 54.723 29.881C54.652 29.9496 54.5954 30.0313 54.5564 30.1219C54.5178 30.2128 54.4972 30.31 54.4968 30.4089V38.2406L49.6644 30.2928C49.5508 30.0832 49.3803 29.91 49.1725 29.7931C48.9647 29.6762 48.7285 29.6208 48.4904 29.6331H43.9688C43.765 29.6371 43.5703 29.7202 43.4261 29.8648C43.2819 30.0094 43.1991 30.2045 43.1951 30.4089V48.9383C43.1991 49.1422 43.2823 49.3365 43.4266 49.4802ZM1.34574 19.8237C1.49027 19.9687 1.68551 20.0514 1.88987 20.054H7.72741C7.92598 20.0505 8.11491 19.9687 8.25387 19.8272C8.32445 19.7587 8.38056 19.6765 8.41957 19.5859C8.45815 19.4954 8.47875 19.3978 8.48007 19.2994V0.775384C8.47875 0.676806 8.45815 0.579461 8.41957 0.488882C8.38056 0.398346 8.32445 0.316335 8.25387 0.247642C8.18549 0.176488 8.10395 0.11975 8.01365 0.0807669C7.92335 0.0417839 7.82604 0.0213493 7.72741 0.02069H1.87409C1.77568 0.0213493 1.67841 0.0417839 1.58797 0.0807669C1.49758 0.11975 1.41588 0.176488 1.34771 0.247642C1.20384 0.385863 1.12056 0.575679 1.11608 0.775384V19.2783C1.1188 19.4831 1.20121 19.6791 1.34574 19.8237ZM12.9894 19.8237C13.1341 19.9687 13.3292 20.0514 13.5334 20.054H18.7288C18.927 20.05 19.1159 19.9683 19.2553 19.8272C19.3259 19.7587 19.382 19.6765 19.421 19.5859C19.4596 19.4954 19.4806 19.3978 19.4815 19.2994V12.1009L24.3192 19.3943C24.434 19.5706 24.5782 19.7261 24.7457 19.8536C24.9644 19.9995 25.2252 20.0698 25.4878 20.054H30.0095C30.2045 20.0439 30.3891 19.9604 30.5263 19.8211C30.6635 19.6813 30.7441 19.4954 30.7516 19.2994V0.775384C30.7472 0.575679 30.6639 0.385863 30.5201 0.247642C30.4518 0.176488 30.3702 0.11975 30.2795 0.0807669C30.1892 0.0417839 30.0919 0.0213493 29.9937 0.02069H24.8141C24.7154 0.0216569 24.6186 0.0422235 24.5278 0.0811625C24.4375 0.120146 24.356 0.176708 24.2876 0.247642C24.217 0.316335 24.1609 0.398346 24.1219 0.488882C24.0829 0.579461 24.0623 0.676806 24.0614 0.775384V8.60213L19.2079 0.680368C19.0962 0.470291 18.9265 0.296604 18.7196 0.179743C18.5127 0.0628375 18.2764 0.00768106 18.0393 0.02069H13.5176C13.4195 0.0213493 13.3221 0.0417839 13.2314 0.0807669C13.1411 0.11975 13.0596 0.176488 12.9912 0.247642C12.8474 0.385863 12.7641 0.575679 12.7597 0.775384V19.2783C12.7624 19.4831 12.8448 19.6791 12.9894 19.8237Z" fill="white"/>
</svg>
