<svg fill="none" height="51" viewBox="0 0 160 51" width="160" xmlns="http://www.w3.org/2000/svg"><path clip-rule="evenodd" d="m40.253 20.0545c-.1981-.0049-.3866-.0862-.5264-.2268-.0706-.069-.1267-.1507-.1657-.2413-.0391-.0905-.0597-.1881-.061-.2865v-13.1358h-4.7846c-.0982-.00066-.1955-.02109-.2863-.06008-.0903-.03894-.1718-.09567-.2402-.16683-.0714-.06829-.1284-.15008-.1683-.24066s-.0614-.18815-.0631-.28708v-4.633659c.0043-.199705.0876-.389477.2314-.527742.0666-.074977.1473-.135671.238-.178302.0903-.0426307.1885-.06636291.2885-.069747h16.7758c.0982.00127453.1955.0219291.2858.0608681.0903.0389391.1719.0953729.2407.1660869.0706.068693.1267.150701.1657.241236.0386.09058.0592.187928.0605.286506v4.617793c-.0013.20484-.0833.40081-.2284.54514-.1451.14438-.341.22538-.5453.22538h-4.7373v13.15689c-.0013.0984-.0219.196-.0609.2865-.0386.0906-.0952.1723-.1657.2413-.1394.1411-.3279.2224-.5265.2268zm15.9597 0c-.2043-.0027-.3994-.0853-.544-.2303-.1447-.145-.2271-.3406-.2297-.5454v-18.503009c.0044-.199705.0876-.389477.2319-.527742.0679-.071153.1494-.127892.2402-.1668747.0903-.038983.1876-.059377.2858-.0600802h14.6757c.0986.0007032.1959.0210972.2862.0600802.0903.0389827.1719.0957217.2403.1668747.1437.138265.227.328037.2314.527742v4.042539c-.0039.2045-.0868.3995-.231.54409-.1442.14464-.3389.22766-.5427.2317h-8.5799v1.79419h7.9482c.1995.00483.3884.08833.5265.23249.0715.06768.1284.14987.1675.2404.0385.09098.0587.18854.0587.28743v3.72557c-.0004.0989-.0211.1965-.0596.287-.039.0905-.0956.1727-.1666.2408-.1381.1442-.327.2277-.5265.2325h-7.9482v1.8046h8.8061c.1995.0048.3888.0883.5265.2325.071.0681.1275.1503.1665.2408.039.0906.0592.1881.0601.2866v4.0429c-.0013.0984-.0219.196-.0609.2865-.0391.0905-.0952.1723-.1657.2413-.1399.1406-.3284.2219-.5265.2268zm20.1976 0c-.2047-.0027-.3997-.0853-.5444-.2303-.1442-.145-.2266-.3406-.2293-.5454v-18.503009c.0044-.199705.0877-.389477.2315-.527742.0679-.071637.1495-.128683.2398-.1677097.0907-.0390269.188-.0591573.2866-.0592452h8.4643c2.7476 0 4.8933.6174889 6.4376 1.8524159.7623.60892 1.3695 1.39043 1.7723 2.28031.4024.88984.5887 1.86274.5436 2.83886.0241 1.14892-.2613 2.28281-.8263 3.28262-.5576.9489-1.3339 1.7505-2.2632 2.3377l3.5213 6.5392c.0526.0954.0815.2022.0841.3112 0 .1678-.0666.3291-.185.4478-.1183.1187-.2792.1855-.4466.1855h-5.8481c-.2902.0167-.5769-.069-.8106-.2426-.1814-.1376-.3248-.3191-.416-.5279l-2.4635-5.4782h-1.1682v5.4519c-.0084.2013-.093.3916-.2372.5318-.1438.1406-.3358.2201-.537.2228zm8.4642-11.70019c.1833.01099.3669-.02109.5357-.09317.1692-.07252.3191-.18327.4379-.32391.2376-.29885.359-.67374.3424-1.05539.0074-.39427-.1065-.78133-.3266-1.10827-.1118-.15584-.2613-.28066-.4344-.3628-.1727-.08214-.3638-.11893-.555-.10689h-2.1054v3.03988zm12.8175 5.90549c-.0986-.0005-.1959-.0211-.2862-.0602-.0903-.0387-.1723-.0954-.2402-.1666-.0715-.0686-.1289-.1503-.1683-.2408-.0399-.0906-.0614-.1882-.0632-.287v-4.06886c.004-.2048.0868-.39949.231-.54409.1443-.14459.3385-.22766.5427-.23205h9.2802c.204.00439.398.08746.543.23205.144.1446.227.33929.231.54409v4.07406c-.002.0989-.024.1965-.064.287-.039.0906-.096.1723-.168.2409-.068.0712-.15.1279-.24.1665-.09.0392-.188.0598-.286.0602zm-27.5459 35.2205c.1443.1437.3389.2259.5423.2286h5.7429c.2034-.0014.398-.0831.5418-.2273.1438-.1441.2253-.3392.2266-.5432v-13.1676h4.7378c.199-.0044.3884-.0879.526-.2321.071-.0685.1276-.1503.1666-.2408.039-.091.0591-.1885.06-.287v-4.6177c-.0009-.0989-.021-.1965-.06-.287-.039-.0906-.0956-.1723-.1666-.2409-.1376-.1441-.327-.2276-.526-.232h-16.7601c-.2043.0039-.3985.087-.5427.2316s-.2271.3397-.2314.5441v4.6177c.0043.2044.0872.3995.2314.5441s.3384.2277.5427.2316h4.7373v13.136c.0039.204.0872.3982.2314.5419zm15.9606.0013c.1438.1442.3384.2259.5418.2273h5.8376c.2034-.0027.398-.0849.5422-.2286.1447-.1437.2275-.3379.2315-.5419v-18.5294c-.004-.2044-.0868-.3995-.2311-.5441-.1442-.1446-.3388-.2277-.5426-.2316h-5.8376c-.2034.0039-.3976.087-.5409.232-.1434.1446-.2249.3398-.2276.5437v18.5294c.0014.204.0829.3991.2267.5432zm13.6118-1.4617c1.6985 1.3193 3.9795 1.979 6.8435 1.979 2.852 0 5.128-.6597 6.827-1.979 1.698-1.3194 2.606-3.2422 2.721-5.7684.053-1.0288.053-1.8577.053-2.491s-.016-1.4987-.053-2.5543c-.02-1.504-.474-2.9697-1.305-4.2218-.829-1.2016-1.986-2.1381-3.332-2.6967-3.166-1.2227-6.672-1.2227-9.838 0-1.347.5586-2.5035 1.4951-3.3324 2.6967-.832 1.2512-1.284 2.7183-1.3002 4.2218-.0315.5382-.0315 1.409-.0315 2.5535v.0008c0 .682.0112 1.2479.0202 1.7056v.0002.0002.0004.0004c.0062.3104.0113.571.0113.7842.1122 2.5262 1.0179 4.449 2.7161 5.7684zm7.6665-3.741c-.262.0989-.543.142-.823.1262-.282.0162-.563-.0264-.827-.1257-.264-.0989-.504-.2523-.705-.4496-.411-.4861-.622-1.1106-.59-1.747-.026-.5542-.026-1.3668-.026-2.4383 0-.6289.009-1.1579.017-1.5943v-.0002-.0007-.0012c.005-.306.009-.5665.009-.7839-.032-.6403.185-1.2684.606-1.7518.42-.3674.958-.57 1.516-.57.557 0 1.096.2026 1.515.57.417.4852.632 1.1123.601 1.7518.057 1.0346.057 1.863.057 2.3803s-.021 1.3299-.057 2.4383c.032.6364-.179 1.2609-.59 1.747-.2.1969-.44.3502-.703.4491zm12.705 5.1764c.144.1441.339.2259.542.2272l5.159.0264c.203-.0027.398-.0849.542-.2286s.227-.3379.231-.5419v-7.2147l4.832 7.3097c.117.1762.263.3313.432.4588.217.1499.479.2206.742.2008h4.517c.098-.0013.195-.0219.285-.0611.091-.0386.173-.0953.241-.1661.071-.0681.128-.1503.167-.2408.038-.0906.059-.1881.059-.2866v-18.5452c0-.0989-.021-.1965-.059-.287-.039-.0906-.096-.1723-.167-.2409-.138-.1441-.327-.2276-.526-.232h-5.175c-.204.0039-.398.087-.542.2316-.145.1446-.228.3397-.232.5441v7.8317l-4.832-7.9477c-.111-.207-.279-.3784-.482-.4949-.204-.1165-.436-.1736-.67-.1648h-4.522c-.203.0039-.398.087-.541.232-.143.1446-.225.3398-.227.5437v18.5026c.001.2039.082.3995.226.5437zm25.271-.3165c1.646.596 3.388.8786 5.138.8338l.021.0263c1.652.0378 3.297-.2285 4.853-.7862 1.322-.4677 2.493-1.2847 3.39-2.3645.816-1.0091 1.252-2.2739 1.232-3.5726.046-1.1093-.226-2.208-.784-3.1666-.614-.9247-1.499-1.6362-2.532-2.037-1.473-.5802-3.017-.9564-4.59-1.119-.852-.076-1.691-.2531-2.501-.5278-.447-.1899-.673-.4325-.673-.7177 0-.5384.457-.8021 1.373-.8021.554-.0193 1.094.1688 1.516.5279.155.1454.333.265.527.3533.199.0782.412.1143.626.1055h5.743c.079-.0013.156-.0189.228-.0514.071-.033.135-.08.188-.1385.059-.0575.106-.1261.138-.2026.031-.076.047-.1582.046-.2408-.087-1.0016-.487-1.9505-1.142-2.7126-.839-1.0104-1.911-1.8019-3.122-2.306-1.495-.6425-3.111-.9559-4.737-.9185-1.557-.029-3.103.2545-4.548.8341-1.221.4787-2.285 1.2878-3.074 2.3377-.733.9893-1.121 2.1926-1.106 3.425 0 3.5748 2.457 5.6857 7.37 6.333.994.0954 1.978.2734 2.942.5332.511.1845.769.4487.769.7915 0 .2465-.195.4417-.584.5858-.51.1626-1.045.236-1.58.2163-.756.0281-1.499-.2048-2.105-.6597-.177-.1569-.375-.2866-.59-.385-.205-.0752-.424-.1095-.642-.1002h-5.438c-.082-.0013-.164.0145-.24.0461-.076.0317-.144.0787-.201.1385-.059.058-.105.127-.137.203s-.048.1578-.048.2404c.039 1.1115.43 2.1816 1.116 3.0554.829 1.0174 1.922 1.7861 3.158 2.222zm-139.54967.2847c.23912.2017.54614.3037.85781.2852h6.52226c.3113.0163.6177-.0852.8579-.2852.2008-.1754.3485-.4039.4265-.6597l5.4058-18.2706v-.2004c-.0013-.1665-.0675-.3261-.1845-.4447-.1171-.1183-.2758-.1859-.4419-.1886h-5.3216c-.3126-.0162-.6194.0879-.8583.2901-.2004.1767-.3498.4048-.4314.6597l-2.71602 10.666-2.71649-10.666c-.07715-.2642-.22663-.5019-.43134-.6861-.23891-.203-.54576-.3068-.85817-.2901h-5.290164c-.083594-.0008-.166399.0159-.243374.0484s-.146411.0809-.204055.1415c-.059178.0576-.1060383.1266-.1377314.2026-.0316493.0761-.04751862.1582-.0465104.2409v.2004l5.3796348 18.2969c.08184.2549.23101.483.43165.6597zm17.67447.2246c.0903.0391.1876.0598.2858.0606l14.8914-.0158c.2034-.0013.398-.0831.5418-.2272.1437-.1442.2253-.3393.2266-.5432v-4.0482c-.0009-.0984-.0215-.196-.0601-.2865-.039-.0906-.0955-.1728-.1661-.2409-.0684-.0712-.1499-.1279-.2402-.167s-.1876-.0593-.2863-.0602h-8.8118v-1.8314h7.9382c.2034-.0013.398-.083.5418-.2272.1438-.1441.2253-.3393.2266-.5432v-3.7313c-.0008-.0984-.021-.196-.06-.2865-.0386-.091-.0956-.1728-.1662-.2409-.0683-.0716-.1499-.1292-.2402-.1692-.0903-.0395-.1876-.0611-.2862-.0633h-7.954v-1.805h8.5962c.0982-.0004.1955-.0211.2858-.0597.0907-.0391.1723-.0958.2406-.167.1438-.1385.2271-.3279.2315-.5279v-4.0424c-.004-.2044-.0868-.3995-.231-.5441-.1443-.1446-.3389-.2277-.5427-.2316h-14.6757c-.0986.0017-.196.0233-.2863.0633s-.1718.0971-.2402.1687c-.071.0686-.1275.1503-.1661.2409-.039.0909-.0596.1881-.0601.287v18.5452c.0005.0985.0211.196.0601.2866.0386.0909.0951.1727.1661.2408.0684.0712.1504.1279.2407.1666zm19.9408-.1679c.1446.1437.3388.2259.5422.2285h5.1796c.2034-.0013.398-.083.5423-.2272.1437-.1441.2248-.3393.2266-.5432v-7.1989l4.8372 7.2938c.1166.1749.2604.3301.4266.4589.2196.1489.4826.2197.7474.2008h4.4953c.0986 0 .1959-.0202.2862-.0593.0908-.0391.1723-.0963.2403-.1679.0714-.0681.1288-.1499.1687-.2404s.061-.1881.0627-.287v-18.5294c-.0017-.0989-.0228-.1969-.0627-.2875-.0399-.0905-.0973-.1723-.1687-.2404-.0675-.072-.1491-.1301-.2398-.1701-.0903-.04-.1881-.061-.2867-.0619h-5.1744c-.1994.0044-.3883.0879-.5264.232-.071.0686-.1276.1503-.1666.2409-.0386.0909-.0592.1881-.0596.287v7.8317l-4.8324-7.9478c-.1136-.2096-.2841-.3828-.4919-.4997s-.444-.1723-.6821-.16h-4.5216c-.2038.004-.3985.0871-.5427.2317s-.227.3397-.231.5441v18.5294c.004.2039.0872.3982.2315.5419zm-42.08086-29.6565c.14453.145.33977.2277.54413.2303h5.83754c.19857-.0035.3875-.0853.52646-.2268.07058-.0685.12669-.1507.1657-.2413.03858-.0905.05918-.1881.0605-.2865v-18.524016c-.00132-.098578-.02192-.195923-.0605-.286502-.03901-.090536-.09512-.172547-.1657-.24124-.06838-.071154-.14992-.127892-.24022-.1668751-.0903-.038983-.18761-.0594176-.28624-.0600769h-5.85332c-.09841.0006593-.19568.0210939-.28612.0600769-.09039.0389831-.17209.0957211-.24026.1668751-.14387.138221-.22715.328037-.23163.527742v18.502916c.00272.2048.08513.4008.22966.5454zm11.64366 0c.1447.145.3398.2277.544.2303h5.1954c.1982-.004.3871-.0857.5265-.2268.0706-.0685.1267-.1507.1657-.2413.0386-.0905.0596-.1881.0605-.2865v-7.1985l4.8377 7.2934c.1148.1763.259.3318.4265.4593.2187.1459.4795.2162.7421.2004h4.5217c.195-.0101.3796-.0936.5168-.2329.1372-.1398.2178-.3257.2253-.5217v-18.524016c-.0044-.199705-.0877-.389521-.2315-.527742-.0683-.071154-.1499-.127892-.2406-.1668751-.0903-.038983-.1876-.0594176-.2858-.0600769h-5.1796c-.0987.0009669-.1955.0215335-.2863.0604725-.0903.0389835-.1718.0955455-.2402.1664795-.0706.068693-.1267.150704-.1657.24124-.039.090579-.0596.187924-.0605.286502v7.826746l-4.8535-7.921762c-.1117-.210077-.2814-.383764-.4883-.500625-.2069-.1169055-.4432-.17206194-.6803-.159053h-4.5217c-.0981.0006593-.1955.0210939-.2862.0600769-.0903.0389831-.1718.0957211-.2402.1668751-.1438.138221-.2271.328037-.2315.527742v18.502916c.0027.2048.0851.4008.2297.5454z" fill="#fff" fill-rule="evenodd"/></svg>