<svg fill="none" height="51" viewBox="0 0 160 51" width="160" xmlns="http://www.w3.org/2000/svg"><g clip-rule="evenodd" fill="#282726" fill-rule="evenodd"><path d="m40.2531 20.0545c-.198-.0049-.387-.0862-.526-.2268-.071-.069-.127-.1507-.166-.2413-.039-.0905-.06-.1881-.061-.2865v-13.1358h-4.7847c-.0982-.0007-.1955-.0211-.2863-.0601-.0903-.0389-.1718-.0957-.2402-.1668-.0714-.0683-.1284-.1501-.1683-.2407s-.0614-.1881-.0631-.287v-4.6337c.0043-.1997.0876-.3895.2314-.5278.0666-.0749.1473-.1356.238-.1783.0903-.0426.1885-.0663.2885-.0697h16.7757c.098.0013.196.0219.286.0609.09.0389.172.0953.241.1661.07.0686.126.1507.165.2412.039.0906.059.1879.061.2865v4.6178c-.002.2048-.083.4008-.229.5451-.145.1444-.341.2254-.545.2254h-4.737v13.1569c-.002.0984-.022.196-.061.2865-.039.0906-.095.1723-.166.2413-.139.1411-.328.2224-.526.2268zm15.96 0c-.205-.0027-.4-.0853-.544-.2303-.145-.145-.227-.3406-.23-.5454v-18.503c.004-.1997.088-.3895.232-.5278.068-.0711.149-.1278.24-.1668.09-.039.188-.0594.286-.0601h14.676c.098.0007.196.0211.286.0601s.172.0957.24.1668c.144.1383.227.3281.232.5278v4.0425c-.004.2045-.087.3995-.232.5441-.144.1447-.338.2277-.542.2317h-8.58v1.7942h7.948c.2.0048.389.0883.527.2325.071.0677.128.1499.167.2404.039.091.059.1885.059.2874v3.7256c-.001.0989-.021.1965-.06.287s-.095.1727-.166.2408c-.138.1442-.327.2277-.527.2325h-7.948v1.8046h8.806c.199.0048.389.0883.526.2325.071.0681.128.1503.167.2408.039.0906.059.1881.06.2866v4.0429c-.001.0984-.022.196-.061.2865s-.095.1723-.166.2413c-.139.1406-.328.2219-.526.2268zm20.197 0c-.204-.0027-.399-.0853-.544-.2303-.144-.145-.227-.3406-.229-.5454v-18.503c.004-.1997.087-.3895.231-.5278.068-.0716.15-.1286.24-.1677.091-.039.188-.0591.287-.0592h8.464c2.747 0 4.893.6175 6.437 1.8524.763.6089 1.37 1.3904 1.773 2.2803.402.8899.588 1.8628.543 2.8389.024 1.1489-.261 2.2828-.826 3.2826-.558.9489-1.334 1.7505-2.263 2.3377l3.521 6.5392c.053.0954.082.2022.084.3112 0 .1678-.066.3291-.185.4478-.118.1187-.279.1855-.446.1855h-5.849c-.29.0167-.576-.069-.81-.2426-.182-.1376-.325-.3191-.416-.5279l-2.464-5.4782h-1.168v5.4519c-.008.2013-.093.3916-.237.5318-.144.1406-.336.2201-.537.2228zm8.465-11.7002c.183.011.366-.0211.535-.0932.169-.0725.319-.1832.438-.3239.238-.2988.359-.6737.342-1.0554.008-.3942-.106-.7813-.326-1.1082-.112-.1559-.261-.2807-.435-.3628-.172-.0822-.363-.119-.554-.1069h-2.106v3.0399zm12.817 5.9055c-.099-.0005-.196-.0211-.286-.0602-.09-.0387-.172-.0954-.24-.1666-.072-.0686-.129-.1503-.169-.2408-.04-.0906-.061-.1882-.063-.287v-4.0689c.004-.2048.087-.3995.231-.544.144-.1446.339-.2277.543-.2321h9.2799c.204.0044.398.0875.543.2321.144.1445.227.3392.231.544v4.0741c-.002.0989-.024.1965-.064.287-.039.0906-.096.1723-.168.2409-.068.0712-.15.1279-.24.1665-.09.0392-.188.0598-.286.0602z"/><path d="m70.1458 49.4803c-.144-.1437-.227-.3379-.231-.5419v-13.136h-4.738c-.204-.0039-.398-.087-.542-.2316-.145-.1446-.227-.3397-.232-.5441v-4.6177c.005-.2044.087-.3995.232-.5441.144-.1446.338-.2277.542-.2316h16.76c.199.0044.389.0879.526.232.072.0686.128.1503.167.2409.039.0905.059.1881.06.287v4.6177c-.001.0985-.021.196-.06.287-.039.0905-.095.1723-.167.2408-.137.1442-.327.2277-.526.2321h-4.737v13.1676c-.002.204-.083.3991-.227.5432-.144.1442-.338.2259-.542.2273h-5.743c-.203-.0027-.398-.0849-.542-.2286zm15.961.0013c-.144-.1441-.226-.3392-.227-.5432v-18.5294c.003-.2039.084-.3991.228-.5437.143-.145.337-.2281.54-.232h5.838c.204.0039.399.087.543.2316s.227.3397.231.5441v18.5294c-.004.204-.087.3982-.232.5419-.144.1437-.339.2259-.542.2286h-5.838c-.203-.0014-.398-.0831-.541-.2273zm13.611-1.4617c-1.698-1.3194-2.603-3.2422-2.716-5.7684 0-.2132-.005-.4738-.011-.7842v-.0004-.0004-.0002-.0002c-.009-.4577-.02-1.0236-.02-1.7056v-.0008c0-1.1445 0-2.0153.031-2.5535.017-1.5035.469-2.9706 1.301-4.2218.829-1.2016 1.9852-2.1381 3.3322-2.6967 3.166-1.2227 6.672-1.2227 9.838 0 1.346.5586 2.503 1.4951 3.332 2.6967.831 1.2521 1.285 2.7178 1.305 4.2218.037 1.0556.053 1.921.053 2.5543s0 1.4622-.053 2.491c-.115 2.5262-1.023 4.449-2.721 5.7684-1.699 1.3193-3.975 1.979-6.827 1.979-2.864 0-5.145-.6597-6.8442-1.979zm7.6672-3.741c.263-.0989.503-.2522.703-.4491.411-.4861.622-1.1106.59-1.747.036-1.1084.057-1.921.057-2.4383s0-1.3457-.057-2.3803c.031-.6395-.184-1.2666-.601-1.7518-.419-.3674-.958-.57-1.515-.57-.558 0-1.096.2026-1.516.57-.421.4834-.638 1.1115-.606 1.7518 0 .2174-.004.4779-.009.7839v.0012.0007.0002c-.008.4364-.017.9654-.017 1.5943 0 1.0715 0 1.8841.026 2.4383-.032.6364.179 1.2609.59 1.747.201.1973.441.3507.705.4496.264.0993.545.1419.827.1257.28.0158.561-.0273.823-.1262zm12.705 5.1764c-.144-.1442-.225-.3398-.226-.5437v-18.5026c.002-.2039.084-.3991.227-.5437.143-.145.338-.2281.541-.232h4.522c.234-.0088.466.0483.67.1648.203.1165.371.2879.482.4949l4.832 7.9477v-7.8317c.004-.2044.087-.3995.232-.5441.144-.1446.338-.2277.542-.2316h5.175c.199.0044.388.0879.526.232.071.0686.128.1503.167.2409.038.0905.059.1881.059.287v18.5452c0 .0985-.021.196-.059.2866-.039.0905-.096.1727-.167.2408-.068.0708-.15.1275-.241.1661-.09.0392-.187.0598-.285.0611h-4.517c-.263.0198-.525-.0509-.742-.2008-.169-.1275-.315-.2826-.432-.4588l-4.832-7.3097v7.2147c-.004.204-.087.3982-.231.5419s-.339.2259-.542.2286l-5.159-.0264c-.203-.0013-.398-.0831-.542-.2272zm25.271-.3165c-1.236-.4359-2.329-1.2046-3.158-2.222-.686-.8738-1.077-1.9439-1.116-3.0554 0-.0826.016-.1644.048-.2404s.078-.145.137-.203c.057-.0598.125-.1068.201-.1385.076-.0316.158-.0474.24-.0461h5.438c.218-.0093.437.025.642.1002.215.0984.413.2281.59.385.606.4549 1.349.6878 2.105.6597.535.0197 1.07-.0537 1.58-.2163.389-.1441.584-.3393.584-.5858 0-.3428-.258-.607-.769-.7915-.964-.2598-1.948-.4378-2.942-.5332-4.913-.6473-7.37-2.7582-7.37-6.333-.015-1.2324.373-2.4357 1.106-3.425.789-1.0499 1.853-1.859 3.074-2.3377 1.445-.5796 2.991-.8631 4.548-.8341 1.626-.0374 3.242.276 4.737.9185 1.211.5041 2.283 1.2956 3.122 2.306.655.7621 1.055 1.711 1.142 2.7126.001.0826-.015.1648-.046.2408-.032.0765-.079.1451-.138.2026-.053.0585-.117.1055-.188.1385-.072.0325-.149.0501-.228.0514h-5.743c-.214.0088-.427-.0273-.626-.1055-.194-.0883-.372-.2079-.527-.3533-.422-.3591-.962-.5472-1.516-.5279-.916 0-1.373.2637-1.373.8021 0 .2852.226.5278.673.7177.81.2747 1.649.4518 2.501.5278 1.573.1626 3.117.5388 4.59 1.119 1.033.4008 1.918 1.1123 2.532 2.037.558.9586.83 2.0573.784 3.1666.02 1.2987-.416 2.5635-1.232 3.5726-.897 1.0798-2.068 1.8968-3.39 2.3645-1.556.5577-3.201.8243-4.853.7862l-.021-.0263c-1.75.0444-3.492-.2378-5.138-.8338z"/><path d="m5.81134 49.4235c-.2006-.1767-.3498-.4048-.4316-.6597l-5.37969559-18.2969v-.2004c-.001-.0827.01489999-.1648.04659999-.2409.0316-.076.0784996-.145.1376996-.2026.0576-.0606.1271-.109.204-.1415.077-.0325.1598-.0492.2434-.0484h5.290196c.3124-.0167.6192.0871.8581.2901.2048.1842.3542.4219.4314.6861l2.7165 10.666 2.71596-10.666c.0816-.2549.231-.483.4314-.6597.2389-.2022.5457-.3063.8583-.2901h5.3216c.1661.0027.3248.0703.4419.1886.117.1186.1832.2782.1845.4447v.2004l-5.4058 18.2706c-.078.2558-.2257.4843-.4265.6597-.2402.2-.5466.3015-.8579.2852h-6.52226c-.3116.0185-.6187-.0835-.8578-.2852zm17.67446.2246c-.0903-.0387-.1723-.0954-.2407-.1666-.071-.0681-.1275-.1499-.1661-.2408-.039-.0906-.0596-.1881-.0601-.2866v-18.5452c.0005-.0989.0211-.1961.0601-.287.0386-.0906.0951-.1723.1661-.2409.0684-.0716.1499-.1287.2402-.1687s.1877-.0616.2863-.0633h14.6754c.204.0039.399.087.543.2316s.227.3397.231.5441v4.0424c-.004.2-.088.3894-.231.5279-.069.0712-.15.1279-.241.167-.09.0386-.188.0593-.286.0597h-8.5961v1.805h7.954c.0986.0022.1961.0238.2861.0633.09.04.172.0976.24.1692.071.0681.128.1499.166.2409.039.0905.06.1881.061.2865v3.7313c-.002.2039-.083.3991-.227.5432-.144.1442-.339.2259-.5419.2272h-7.9382v1.8314h8.8121c.098.0009.196.0211.286.0602s.172.0958.24.167c.071.0681.127.1503.166.2409.039.0905.06.1881.06.2865v4.0482c-.001.2039-.082.399-.226.5432-.144.1441-.339.2259-.542.2272l-14.8914.0158c-.0982-.0008-.1955-.0215-.2858-.0606zm19.9412-.1679c-.145-.1437-.228-.338-.232-.5419v-18.5294c.004-.2044.087-.3995.231-.5441s.339-.2277.543-.2317h4.521c.238-.0123.475.0431.683.16.207.1169.378.2901.491.4997l4.833 7.9478v-7.8317c0-.0989.021-.1961.059-.287.039-.0906.096-.1723.167-.2409.138-.1441.327-.2276.526-.232h5.175c.098.0009.196.0219.286.0619.091.04.173.0981.24.1701.072.0681.129.1499.169.2404.04.0906.061.1886.063.2875v18.5294c-.002.0989-.023.1965-.063.287s-.097.1723-.169.2404c-.068.0716-.149.1288-.24.1679-.09.0391-.188.0593-.286.0593h-4.496c-.264.0189-.527-.0519-.747-.2008-.166-.1288-.31-.284-.426-.4589l-4.838-7.2938v7.1989c-.001.2039-.083.3991-.226.5432-.145.1442-.339.2259-.543.2272h-5.179c-.204-.0026-.398-.0848-.542-.2285z"/><path d="m1.34581 19.8237c-.1445-.1446-.2269-.3406-.2296-.5454v-18.502934c.0045-.1997.0877-.3895.2316-.5278.0682-.0711.1499-.1279.2403-.1668004.0904-.039.1877-.0595.2861-.0601h5.8533c.0986.0006.196.0211.2863.0601.0903.0389004.1718.0957004.2402.1668004.0705.0687.1267.1507.1657.2413.0385.0906.0592.1879.0605.2865v18.524034c-.0013.0984-.022.196-.0605.2865-.039.0906-.0952.1728-.1657.2413-.139.1415-.3279.2233-.5265.2268h-5.8375c-.2044-.0026-.3996-.0853-.5442-.2303zm11.64369 0c-.1446-.1446-.227-.3406-.2297-.5454v-18.502934c.0044-.1997.0877-.3895.2315-.5278.0684-.0711.1499-.1279.2402-.1668004.0907-.039.1881-.0595.2862-.0601h4.5217c.2371-.01300002.4734.0421.6803.1590004.2069.1169.3766.2906.4883.5007l4.8535 7.921704v-7.826704c.0009-.0986.0215-.1959.0605-.2865s.0951-.1726.1657-.2413c.0684-.0709.1499-.1275.2402-.1664004.0908-.039.1876-.0595.2863-.0605h5.1796c.0982.0006.1955.0211.2858.0601.0907.0389004.1723.0957004.2406.1668004.1438.1383.2271.3281.2315.5278v18.524034c-.0075.196-.0881.3819-.2253.5217-.1372.1393-.3218.2228-.5168.2329h-4.5217c-.2626.0158-.5234-.0545-.7421-.2004-.1675-.1275-.3117-.283-.4265-.4593l-4.8377-7.2934v7.1985c-.0009.0984-.0219.196-.0605.2865-.039.0906-.0951.1728-.1657.2413-.1394.1411-.3283.2228-.5265.2268h-5.1954c-.2042-.0026-.3993-.0853-.544-.2303z"/></g></svg>