<svg fill="none" height="31" viewBox="0 0 31 31" width="31" xmlns="http://www.w3.org/2000/svg"><path clip-rule="evenodd" d="m6.66667 13.3333c-3.6819 0-6.66667-2.9847-6.66667-6.66663 0-3.6819 2.98477-6.66667 6.66667-6.66667 3.68193 0 6.66663 2.98477 6.66663 6.66667 0 3.68193-2.9847 6.66663-6.66663 6.66663zm0 17.6667c-3.6819 0-6.66667-2.9848-6.66667-6.6667s2.98477-6.6666 6.66667-6.6666c3.68193 0 6.66663 2.9847 6.66663 6.6666s-2.9847 6.6667-6.66663 6.6667zm17.66663-17.6667c-3.6819 0-6.6666-2.9847-6.6666-6.66663 0-3.6819 2.9847-6.66667 6.6666-6.66667s6.6667 2.98477 6.6667 6.66667c0 3.68193-2.9848 6.66663-6.6667 6.66663zm0 17.6667c-3.6819 0-6.6666-2.9848-6.6666-6.6667s2.9847-6.6666 6.6666-6.6666 6.6667 2.9847 6.6667 6.6666-2.9848 6.6667-6.6667 6.6667z" fill="#2e2d2c" fill-rule="evenodd"/></svg>