<?xml version="1.0" encoding="UTF-8"?>
<svg width="160px" height="50px" viewBox="0 0 160 50" version="1.1" xmlns="http://www.w3.org/2000/svg" xmlns:xlink="http://www.w3.org/1999/xlink">
    <!-- Generator: Sketch 55 (78076) - https://sketchapp.com -->
    <title>Group</title>
    <desc>Created with Sketch.</desc>
    <g id="Page-1" stroke="none" stroke-width="1" fill="none" fill-rule="evenodd">
        <g id="Group" transform="translate(-0.000044, 0.000000)">
            <path d="M40.2530444,20.0545 C40.0550444,20.0496 39.8660444,19.9683 39.7270444,19.8277 C39.6560444,19.7587 39.6000444,19.677 39.5610444,19.5864 C39.5220444,19.4959 39.5010444,19.3983 39.5000444,19.2999 L39.5000444,6.1641 L34.7153444,6.1641 C34.6171444,6.1634 34.5198444,6.143 34.4290444,6.104 C34.3387444,6.0651 34.2572444,6.0083 34.1888444,5.9372 C34.1174444,5.8689 34.0604444,5.7871 34.0205444,5.6965 C33.9806444,5.6059 33.9591444,5.5084 33.9574444,5.4095 L33.9574444,0.7758 C33.9617444,0.5761 34.0450444,0.3863 34.1888444,0.248 C34.2554444,0.1731 34.3361444,0.1124 34.4268444,0.0697 C34.5171444,0.0271 34.6153444,0.0034 34.7153444,0 L51.4910444,0 C51.5890444,0.0013 51.6870444,0.0219 51.7770444,0.0609 C51.8670444,0.0998 51.9490444,0.1562 52.0180444,0.227 C52.0880444,0.2956 52.1440444,0.3777 52.1830444,0.4682 C52.2220444,0.5588 52.2420444,0.6561 52.2440444,0.7547 L52.2440444,5.3725 C52.2420444,5.5773 52.1610444,5.7733 52.0150444,5.9176 C51.8700444,6.062 51.6740444,6.143 51.4700444,6.143 L46.7330444,6.143 L46.7330444,19.2999 C46.7310444,19.3983 46.7110444,19.4959 46.6720444,19.5864 C46.6330444,19.677 46.5770444,19.7587 46.5060444,19.8277 C46.3670444,19.9688 46.1780444,20.0501 45.9800444,20.0545 L40.2530444,20.0545 Z M56.2130444,20.0545 C56.0080444,20.0518 55.8130444,19.9692 55.6690444,19.8242 C55.5240444,19.6792 55.4420444,19.4836 55.4390444,19.2788 L55.4390444,0.7758 C55.4430444,0.5761 55.5270444,0.3863 55.6710444,0.248 C55.7390444,0.1769 55.8200444,0.1202 55.9110444,0.0812 C56.0010444,0.0422 56.0990444,0.0218 56.1970444,0.0211 L70.8730444,0.0211 C70.9710444,0.0218 71.0690444,0.0422 71.1590444,0.0812 C71.2490444,0.1202 71.3310444,0.1769 71.3990444,0.248 C71.5430444,0.3863 71.6260444,0.5761 71.6310444,0.7758 L71.6310444,4.8183 C71.6270444,5.0228 71.5440444,5.2178 71.3990444,5.3624 C71.2550444,5.5071 71.0610444,5.5901 70.8570444,5.5941 L62.2770444,5.5941 L62.2770444,7.3883 L70.2250444,7.3883 C70.4250444,7.3931 70.6140444,7.4766 70.7520444,7.6208 C70.8230444,7.6885 70.8800444,7.7707 70.9190444,7.8612 C70.9580444,7.9522 70.9780444,8.0497 70.9780444,8.1486 L70.9780444,11.8742 C70.9770444,11.9731 70.9570444,12.0707 70.9180444,12.1612 C70.8790444,12.2517 70.8230444,12.3339 70.7520444,12.402 C70.6140444,12.5462 70.4250444,12.6297 70.2250444,12.6345 L62.2770444,12.6345 L62.2770444,14.4391 L71.0830444,14.4391 C71.2820444,14.4439 71.4720444,14.5274 71.6090444,14.6716 C71.6800444,14.7397 71.7370444,14.8219 71.7760444,14.9124 C71.8150444,15.003 71.8350444,15.1005 71.8360444,15.199 L71.8360444,19.2419 C71.8350444,19.3403 71.8140444,19.4379 71.7750444,19.5284 C71.7360444,19.6189 71.6800444,19.7007 71.6090444,19.7697 C71.4700444,19.9103 71.2810444,19.9916 71.0830444,19.9965 L56.2130444,20.0545 Z M76.4100444,20.0545 C76.2060444,20.0518 76.0110444,19.9692 75.8660444,19.8242 C75.7220444,19.6792 75.6390444,19.4836 75.6370444,19.2788 L75.6370444,0.7758 C75.6410444,0.5761 75.7240444,0.3863 75.8680444,0.248 C75.9360444,0.1764 76.0180444,0.1194 76.1080444,0.0803 C76.1990444,0.0413 76.2960444,0.0212 76.3950444,0.0211 L84.8590444,0.0211 C87.6060444,0.0211 89.7520444,0.6386 91.2960444,1.8735 C92.0590444,2.4824 92.6660444,3.2639 93.0690444,4.1538 C93.4710444,5.0437 93.6570444,6.0166 93.6120444,6.9927 C93.6360444,8.1416 93.3510444,9.2755 92.7860444,10.2753 C92.2280444,11.2242 91.4520444,12.0258 90.5230444,12.613 L94.0440444,19.1522 C94.0970444,19.2476 94.1260444,19.3544 94.1280444,19.4634 C94.1280444,19.6312 94.0620444,19.7925 93.9430444,19.9112 C93.8250444,20.0299 93.6640444,20.0967 93.4970444,20.0967 L87.6480444,20.0967 C87.3580444,20.1134 87.0720444,20.0277 86.8380444,19.8541 C86.6560444,19.7165 86.5130444,19.535 86.4220444,19.3262 L83.9580444,13.848 L82.7900444,13.848 L82.7900444,19.2999 C82.7820444,19.5012 82.6970444,19.6915 82.5530444,19.8317 C82.4090444,19.9723 82.2170444,20.0518 82.0160444,20.0545 L76.4100444,20.0545 Z M84.8750444,8.3543 C85.0580444,8.3653 85.2410444,8.3332 85.4100444,8.2611 C85.5790444,8.1886 85.7290444,8.0779 85.8480444,7.9372 C86.0860444,7.6384 86.2070444,7.2635 86.1900444,6.8818 C86.1980444,6.4876 86.0840444,6.1005 85.8640444,5.7736 C85.7520444,5.6177 85.6030444,5.4929 85.4290444,5.4108 C85.2570444,5.3286 85.0660444,5.2918 84.8750444,5.3039 L82.7690444,5.3039 L82.7690444,8.3438 L84.8750444,8.3543 Z M97.6920444,14.2598 C97.5930444,14.2593 97.4960444,14.2387 97.4060444,14.1996 C97.3160444,14.1609 97.2340444,14.1042 97.1660444,14.033 C97.0940444,13.9644 97.0370444,13.8827 96.9970444,13.7922 C96.9570444,13.7016 96.9360444,13.604 96.9340444,13.5052 L96.9340444,9.4363 C96.9380444,9.2315 97.0210444,9.0368 97.1650444,8.8923 C97.3090444,8.7477 97.5040444,8.6646 97.7080444,8.6602 L106.988044,8.6602 C107.192044,8.6646 107.386044,8.7477 107.531044,8.8923 C107.675044,9.0368 107.758044,9.2315 107.762044,9.4363 L107.762044,13.5104 C107.760044,13.6093 107.738044,13.7069 107.698044,13.7974 C107.659044,13.888 107.602044,13.9697 107.530044,14.0383 C107.462044,14.1095 107.380044,14.1662 107.290044,14.2048 C107.200044,14.244 107.102044,14.2646 107.004044,14.265 L97.6920444,14.2598 Z" id="Combined-Shape" fill="#CC9AC6"></path>
            <path d="M70.1460444,49.4803 C70.0020444,49.3366 69.9190444,49.1424 69.9150444,48.9384 L69.9150444,35.8024 L65.1770444,35.8024 C64.9730444,35.7985 64.7790444,35.7154 64.6350444,35.5708 C64.4900444,35.4262 64.4080444,35.2311 64.4030444,35.0267 L64.4030444,30.409 C64.4080444,30.2046 64.4900444,30.0095 64.6350444,29.8649 C64.7790444,29.7203 64.9730444,29.6372 65.1770444,29.6333 L81.9370444,29.6333 C82.1360444,29.6377 82.3260444,29.7212 82.4630444,29.8653 C82.5350444,29.9339 82.5910444,30.0156 82.6300444,30.1062 C82.6690444,30.1967 82.6890444,30.2943 82.6900444,30.3932 L82.6900444,35.0109 C82.6890444,35.1094 82.6690444,35.2069 82.6300444,35.2979 C82.5910444,35.3884 82.5350444,35.4702 82.4630444,35.5387 C82.3260444,35.6829 82.1360444,35.7664 81.9370444,35.7708 L77.2000444,35.7708 L77.2000444,48.9384 C77.1980444,49.1424 77.1170444,49.3375 76.9730444,49.4816 C76.8290444,49.6258 76.6350444,49.7075 76.4310444,49.7089 L70.6880444,49.7089 C70.4850444,49.7062 70.2900444,49.624 70.1460444,49.4803 Z M86.1070444,49.4816 C85.9630444,49.3375 85.8810444,49.1424 85.8800444,48.9384 L85.8800444,30.409 C85.8830444,30.2051 85.9640444,30.0099 86.1080444,29.8653 C86.2510444,29.7203 86.4450444,29.6372 86.6480444,29.6333 L92.4860444,29.6333 C92.6900444,29.6372 92.8850444,29.7203 93.0290444,29.8649 C93.1730444,30.0095 93.2560444,30.2046 93.2600444,30.409 L93.2600444,48.9384 C93.2560444,49.1424 93.1730444,49.3366 93.0280444,49.4803 C92.8840444,49.624 92.6890444,49.7062 92.4860444,49.7089 L86.6480444,49.7089 C86.4450444,49.7075 86.2500444,49.6258 86.1070444,49.4816 Z M99.7180444,48.0199 C98.0200444,46.7005 97.1150444,44.7777 97.0020444,42.2515 C97.0020444,42.0383 96.9970444,41.7777 96.9910444,41.4673 L96.9910444,41.4669 L96.9910444,41.4665 L96.9910444,41.4663 L96.9910444,41.4661 C96.9820444,41.0084 96.9710444,40.4425 96.9710444,39.7605 L96.9710444,39.7597 C96.9710444,38.6152 96.9710444,37.7444 97.0020444,37.2062 C97.0190444,35.7027 97.4710444,34.2356 98.3030444,32.9844 C99.1320444,31.7828 100.288044,30.8463 101.635044,30.2877 C104.801044,29.065 108.307044,29.065 111.473044,30.2877 C112.819044,30.8463 113.976044,31.7828 114.805044,32.9844 C115.636044,34.2365 116.090044,35.7022 116.110044,37.2062 C116.147044,38.2618 116.163044,39.1272 116.163044,39.7605 C116.163044,40.3938 116.163044,41.2227 116.110044,42.2515 C115.995044,44.7777 115.087044,46.7005 113.389044,48.0199 C111.690044,49.3392 109.414044,49.9989 106.562044,49.9989 C103.698044,49.9989 101.417044,49.3392 99.7180444,48.0199 Z M107.385044,44.2789 C107.648044,44.18 107.888044,44.0267 108.088044,43.8298 C108.499044,43.3437 108.710044,42.7192 108.678044,42.0828 C108.714044,40.9744 108.735044,40.1618 108.735044,39.6445 C108.735044,39.1272 108.735044,38.2988 108.678044,37.2642 C108.709044,36.6247 108.494044,35.9976 108.077044,35.5124 C107.658044,35.145 107.119044,34.9424 106.562044,34.9424 C106.004044,34.9424 105.466044,35.145 105.046044,35.5124 C104.625044,35.9958 104.408044,36.6239 104.440044,37.2642 C104.440044,37.4816 104.436044,37.7421 104.431044,38.0481 L104.431044,38.0493 L104.431044,38.05 L104.431044,38.0502 C104.423044,38.4866 104.414044,39.0156 104.414044,39.6445 C104.414044,40.716 104.414044,41.5286 104.440044,42.0828 C104.408044,42.7192 104.619044,43.3437 105.030044,43.8298 C105.231044,44.0271 105.471044,44.1805 105.735044,44.2794 C105.999044,44.3787 106.280044,44.4213 106.562044,44.4051 C106.842044,44.4209 107.123044,44.3778 107.385044,44.2789 Z M120.090044,49.4553 C119.946044,49.3111 119.865044,49.1155 119.864044,48.9116 L119.864044,30.409 C119.866044,30.2051 119.948044,30.0099 120.091044,29.8653 C120.234044,29.7203 120.429044,29.6372 120.632044,29.6333 L125.154044,29.6333 C125.388044,29.6245 125.620044,29.6816 125.824044,29.7981 C126.027044,29.9146 126.195044,30.086 126.306044,30.293 L131.138044,38.2407 L131.138044,30.409 C131.142044,30.2046 131.225044,30.0095 131.370044,29.8649 C131.514044,29.7203 131.708044,29.6372 131.912044,29.6333 L137.087044,29.6333 C137.286044,29.6377 137.475044,29.7212 137.613044,29.8653 C137.684044,29.9339 137.741044,30.0156 137.780044,30.1062 C137.818044,30.1967 137.839044,30.2943 137.839044,30.3932 L137.839044,48.9384 C137.839044,49.0369 137.818044,49.1344 137.780044,49.225 C137.741044,49.3155 137.684044,49.3977 137.613044,49.4658 C137.545044,49.5366 137.463044,49.5933 137.372044,49.6319 C137.282044,49.6711 137.185044,49.6917 137.087044,49.693 L132.570044,49.693 C132.307044,49.7128 132.045044,49.6421 131.828044,49.4922 C131.659044,49.3647 131.513044,49.2096 131.396044,49.0334 L126.564044,41.7237 L126.564044,48.9384 C126.560044,49.1424 126.477044,49.3366 126.333044,49.4803 C126.189044,49.624 125.994044,49.7062 125.791044,49.7089 L120.632044,49.6825 C120.429044,49.6812 120.234044,49.5994 120.090044,49.4553 Z M145.361044,49.1388 C144.125044,48.7029 143.032044,47.9342 142.203044,46.9168 C141.517044,46.043 141.126044,44.9729 141.087044,43.8614 C141.087044,43.7788 141.103044,43.697 141.135044,43.621 C141.167044,43.545 141.213044,43.476 141.272044,43.418 C141.329044,43.3582 141.397044,43.3112 141.473044,43.2795 C141.549044,43.2479 141.631044,43.2321 141.713044,43.2334 L147.151044,43.2334 C147.369044,43.2241 147.588044,43.2584 147.793044,43.3336 C148.008044,43.432 148.206044,43.5617 148.383044,43.7186 C148.989044,44.1735 149.732044,44.4064 150.488044,44.3783 C151.023044,44.398 151.558044,44.3246 152.068044,44.162 C152.457044,44.0179 152.652044,43.8227 152.652044,43.5762 C152.652044,43.2334 152.394044,42.9692 151.883044,42.7847 C150.919044,42.5249 149.935044,42.3469 148.941044,42.2515 C144.028044,41.6042 141.571044,39.4933 141.571044,35.9185 C141.556044,34.6861 141.944044,33.4828 142.677044,32.4935 C143.466044,31.4436 144.530044,30.6345 145.751044,30.1558 C147.196044,29.5762 148.742044,29.2927 150.299044,29.3217 C151.925044,29.2843 153.541044,29.5977 155.036044,30.2402 C156.247044,30.7443 157.319044,31.5358 158.158044,32.5462 C158.813044,33.3083 159.213044,34.2572 159.300044,35.2588 C159.301044,35.3414 159.285044,35.4236 159.254044,35.4996 C159.222044,35.5761 159.175044,35.6447 159.116044,35.7022 C159.063044,35.7607 158.999044,35.8077 158.928044,35.8407 C158.856044,35.8732 158.779044,35.8908 158.700044,35.8921 L152.957044,35.8921 C152.743044,35.9009 152.530044,35.8648 152.331044,35.7866 C152.137044,35.6983 151.959044,35.5787 151.804044,35.4333 C151.382044,35.0742 150.842044,34.8861 150.288044,34.9054 C149.372044,34.9054 148.915044,35.1691 148.915044,35.7075 C148.915044,35.9927 149.141044,36.2353 149.588044,36.4252 C150.398044,36.6999 151.237044,36.877 152.089044,36.953 C153.662044,37.1156 155.206044,37.4918 156.679044,38.072 C157.712044,38.4728 158.597044,39.1843 159.211044,40.109 C159.769044,41.0676 160.041044,42.1663 159.995044,43.2756 C160.015044,44.5743 159.579044,45.8391 158.763044,46.8482 C157.866044,47.928 156.695044,48.745 155.373044,49.2127 C153.817044,49.7704 152.172044,50.037 150.520044,49.9989 L150.499044,49.9726 C148.749044,50.017 147.007044,49.7348 145.361044,49.1388 Z" id="Combined-Shape" fill="#F05B61"></path>
            <path d="M5.81134441,49.4235 C5.61074441,49.2468 5.46154441,49.0187 5.37974441,48.7638 L4.44072262e-05,30.4669 L4.44072262e-05,30.2665 C-0.000955592774,30.1838 0.0149444072,30.1017 0.0466444072,30.0256 C0.0782444072,29.9496 0.125144407,29.8806 0.184344407,29.823 C0.241944407,29.7624 0.311444407,29.714 0.388344407,29.6815 C0.465344407,29.649 0.548144407,29.6323 0.631744407,29.6331 L5.92194441,29.6331 C6.23434441,29.6164 6.54114441,29.7202 6.78004441,29.9232 C6.98484441,30.1074 7.13424441,30.3451 7.21144441,30.6093 L9.92794441,41.2753 L12.6439444,30.6093 C12.7255444,30.3544 12.8749444,30.1263 13.0753444,29.9496 C13.3142444,29.7474 13.6210444,29.6433 13.9336444,29.6595 L19.2552444,29.6595 C19.4213444,29.6622 19.5800444,29.7298 19.6971444,29.8481 C19.8141444,29.9667 19.8803444,30.1263 19.8816444,30.2928 L19.8816444,30.4932 L14.4758444,48.7638 C14.3978444,49.0196 14.2501444,49.2481 14.0493444,49.4235 C13.8091444,49.6235 13.5027444,49.725 13.1914444,49.7087 L6.66914441,49.7087 C6.35754441,49.7272 6.05044441,49.6252 5.81134441,49.4235 Z M23.4858444,49.6481 C23.3955444,49.6094 23.3135444,49.5527 23.2451444,49.4815 C23.1741444,49.4134 23.1176444,49.3316 23.0790444,49.2407 C23.0400444,49.1501 23.0194444,49.0526 23.0189444,48.9541 L23.0189444,30.4089 C23.0194444,30.31 23.0400444,30.2128 23.0790444,30.1219 C23.1176444,30.0313 23.1741444,29.9496 23.2451444,29.881 C23.3135444,29.8094 23.3950444,29.7523 23.4853444,29.7123 C23.5756444,29.6723 23.6730444,29.6507 23.7716444,29.649 L38.4470444,29.649 C38.6510444,29.6529 38.8460444,29.736 38.9900444,29.8806 C39.1340444,30.0252 39.2170444,30.2203 39.2210444,30.4247 L39.2210444,34.4671 C39.2170444,34.6671 39.1330444,34.8565 38.9900444,34.995 C38.9210444,35.0662 38.8400444,35.1229 38.7490444,35.162 C38.6590444,35.2006 38.5610444,35.2213 38.4630444,35.2217 L29.8669444,35.2217 L29.8669444,37.0267 L37.8209444,37.0267 C37.9195444,37.0289 38.0170444,37.0505 38.1070444,37.09 C38.1970444,37.13 38.2790444,37.1876 38.3470444,37.2592 C38.4180444,37.3273 38.4750444,37.4091 38.5130444,37.5001 C38.5520444,37.5906 38.5730444,37.6882 38.5740444,37.7866 L38.5740444,41.5179 C38.5720444,41.7218 38.4910444,41.917 38.3470444,42.0611 C38.2030444,42.2053 38.0080444,42.287 37.8051444,42.2883 L29.8669444,42.2883 L29.8669444,44.1197 L38.6790444,44.1197 C38.7770444,44.1206 38.8750444,44.1408 38.9650444,44.1799 C39.0550444,44.219 39.1370444,44.2757 39.2050444,44.3469 C39.2760444,44.415 39.3320444,44.4972 39.3710444,44.5878 C39.4100444,44.6783 39.4310444,44.7759 39.4310444,44.8743 L39.4310444,48.9225 C39.4300444,49.1264 39.3490444,49.3215 39.2050444,49.4657 C39.0610444,49.6098 38.8660444,49.6916 38.6630444,49.6929 L23.7716444,49.7087 C23.6734444,49.7079 23.5761444,49.6872 23.4858444,49.6481 Z M43.4270444,49.4802 C43.2820444,49.3365 43.1990444,49.1422 43.1950444,48.9383 L43.1950444,30.4089 C43.1990444,30.2045 43.2820444,30.0094 43.4260444,29.8648 C43.5700444,29.7202 43.7650444,29.6371 43.9690444,29.6331 L48.4900444,29.6331 C48.7280444,29.6208 48.9650444,29.6762 49.1730444,29.7931 C49.3800444,29.91 49.5510444,30.0832 49.6640444,30.2928 L54.4970444,38.2406 L54.4970444,30.4089 C54.4970444,30.31 54.5180444,30.2128 54.5560444,30.1219 C54.5950444,30.0313 54.6520444,29.9496 54.7230444,29.881 C54.8610444,29.7369 55.0500444,29.6534 55.2490444,29.649 L60.4240444,29.649 C60.5220444,29.6499 60.6200444,29.6709 60.7100444,29.7109 C60.8010444,29.7509 60.8830444,29.809 60.9500444,29.881 C61.0220444,29.9491 61.0790444,30.0309 61.1190444,30.1214 C61.1590444,30.212 61.1800444,30.31 61.1820444,30.4089 L61.1820444,48.9383 C61.1800444,49.0372 61.1590444,49.1348 61.1190444,49.2253 C61.0790444,49.3158 61.0220444,49.3976 60.9500444,49.4657 C60.8820444,49.5373 60.8010444,49.5945 60.7100444,49.6336 C60.6200444,49.6727 60.5220444,49.6929 60.4240444,49.6929 L55.9280444,49.6929 C55.6640444,49.7118 55.4010444,49.641 55.1810444,49.4921 C55.0150444,49.3633 54.8710444,49.2081 54.7550444,49.0332 L49.9170444,41.7394 L49.9170444,48.9383 C49.9160444,49.1422 49.8340444,49.3374 49.6910444,49.4815 C49.5460444,49.6257 49.3520444,49.7074 49.1480444,49.7087 L43.9690444,49.7087 C43.7650444,49.7061 43.5710444,49.6239 43.4270444,49.4802 Z" id="Combined-Shape" fill="#087F8C"></path>
            <path d="M1.34574441,19.8237 C1.20124441,19.6791 1.11884441,19.4831 1.11614441,19.2783 L1.11614441,0.7754 C1.12064441,0.5757 1.20384441,0.3859 1.34774441,0.2476 C1.41594441,0.1765 1.49764441,0.1197 1.58804441,0.0808 C1.67844441,0.0418 1.77574441,0.0213 1.87414441,0.0207 L7.72744441,0.0207 C7.82604441,0.0213 7.92344441,0.0418 8.01374441,0.0808 C8.10404441,0.1197 8.18554441,0.1765 8.25394441,0.2476 C8.32444441,0.3163 8.38064441,0.3983 8.41964441,0.4889 C8.45814441,0.5795 8.47884441,0.6768 8.48014441,0.7754 L8.48014441,19.2994 C8.47884441,19.3978 8.45814441,19.4954 8.41964441,19.5859 C8.38064441,19.6765 8.32444441,19.7587 8.25394441,19.8272 C8.11494441,19.9687 7.92604441,20.0505 7.72744441,20.054 L1.88994441,20.054 C1.68554441,20.0514 1.49034441,19.9687 1.34574441,19.8237 Z M12.9894444,19.8237 C12.8448444,19.6791 12.7624444,19.4831 12.7597444,19.2783 L12.7597444,0.7754 C12.7641444,0.5757 12.8474444,0.3859 12.9912444,0.2476 C13.0596444,0.1765 13.1411444,0.1197 13.2314444,0.0808 C13.3221444,0.0418 13.4195444,0.0213 13.5176444,0.0207 L18.0393444,0.0207 C18.2764444,0.0077 18.5127444,0.0628 18.7196444,0.1797 C18.9265444,0.2966 19.0962444,0.4703 19.2079444,0.6804 L24.0614444,8.6021 L24.0614444,0.7754 C24.0623444,0.6768 24.0829444,0.5795 24.1219444,0.4889 C24.1609444,0.3983 24.2170444,0.3163 24.2876444,0.2476 C24.3560444,0.1767 24.4375444,0.1201 24.5278444,0.0812 C24.6186444,0.0422 24.7154444,0.0217 24.8141444,0.0207 L29.9937444,0.0207 C30.0919444,0.0213 30.1892444,0.0418 30.2795444,0.0808 C30.3702444,0.1197 30.4518444,0.1765 30.5201444,0.2476 C30.6639444,0.3859 30.7472444,0.5757 30.7516444,0.7754 L30.7516444,19.2994 C30.7441444,19.4954 30.6635444,19.6813 30.5263444,19.8211 C30.3891444,19.9604 30.2045444,20.0439 30.0095444,20.054 L25.4878444,20.054 C25.2252444,20.0698 24.9644444,19.9995 24.7457444,19.8536 C24.5782444,19.7261 24.4340444,19.5706 24.3192444,19.3943 L19.4815444,12.1009 L19.4815444,19.2994 C19.4806444,19.3978 19.4596444,19.4954 19.4210444,19.5859 C19.3820444,19.6765 19.3259444,19.7587 19.2553444,19.8272 C19.1159444,19.9683 18.9270444,20.05 18.7288444,20.054 L13.5334444,20.054 C13.3292444,20.0514 13.1341444,19.9687 12.9894444,19.8237 Z" id="Combined-Shape" fill="#0D4BA0"></path>
        </g>
    </g>
</svg>