<svg height="394" viewBox="0 0 537 394" width="537" xmlns="http://www.w3.org/2000/svg"><g fill="none"><path d="m0 0h537v393.345h-537z" fill="#282a29"/><path d="m90.3110351 185.721908c-.9694886-.012954-1.7522739-.797297-1.7652021-1.768716v-42.184476c.0102479-.455331.2002508-.888015.5283598-1.203208.3142331-.327703.7472808-.514284 1.2008178-.51738h13.3530934c.453537.003096.886585.189677 1.200818.51738.324793.316421.510577.749336.516352 1.203208v42.232604c-.005775.453873-.191559.886788-.516352 1.203209-.317295.323245-.748403.50899-1.200818.517379zm26.5620889 0c-.969489-.012954-1.752274-.797297-1.765202-1.768716v-42.184476c.010248-.455331.200251-.888015.52836-1.203208.314233-.327703.74728-.514284 1.200817-.51738h10.315025c1.104845-.060556 2.144566.526038 2.665815 1.50401l11.07154 18.060154v-17.843576c.005775-.453872.191558-.886787.516352-1.203208.31502-.326563.747565-.512928 1.200818-.51738h11.816046c.453537.003096.886585.189677 1.200818.51738.328109.315193.518112.747877.52836 1.203208v42.232604c-.035935.925723-.769867 1.671547-1.693153 1.720588h-10.315025c-.598968.035932-1.193322-.124567-1.693153-.457219-.381258-.290983-.710195-.644989-.972662-1.046791l-11.035515-16.628336v16.411758c-.005775.453873-.191558.886788-.516352 1.203209-.318027.322171-.748677.50772-1.200818.517379zm60.95351 0c-.451869-.010909-.882073-.196265-1.200818-.517379-.324794-.316421-.510577-.749336-.516352-1.203209v-29.947849h-10.915433c-.453537-.003096-.886585-.189677-1.200818-.51738-.329215-.314417-.51943-.747585-.52836-1.203208v-10.564167c.010248-.455331.200251-.888015.52836-1.203208.305964-.345495.740095-.549943 1.200818-.565508h38.270062c.45297.005786.885025.191939 1.200818.517379.324793.316421.510577.749336.516351 1.203209v10.528071c-.0066.972132-.794978 1.756706-1.765202 1.756683h-10.80736v29.995978c-.005774.453873-.191558.886788-.516351 1.203209-.318027.322171-.748678.50772-1.200818.517379zm36.408794 0c-.969488-.012954-1.752274-.797297-1.765202-1.768716v-42.184476c.010248-.455331.200251-.888015.52836-1.203208.314233-.327703.747281-.514284 1.200818-.51738h33.478799c.453537.003096.886584.189677 1.200818.51738.328109.315193.518112.747877.528359 1.203208v9.216574c-.019151.968775-.798351 1.749527-1.765202 1.768716h-19.573329v4.090907h18.132348c.454426.010269.886251.20065 1.200818.529412.329381.313237.516039.74819.516351 1.203208v8.494649c-.003089.45444-.189299.88835-.516351 1.203209-.314567.328762-.746392.519143-1.200818.529411h-18.132348v4.114972h20.089681c.454426.010268.886251.200649 1.200818.529411.327052.314859.513262.748769.516351 1.203208v9.216575c-.005774.453872-.191558.886787-.516351 1.203208-.318746.321114-.748949.50647-1.200818.517379zm46.075378 0c-.969489-.012954-1.752274-.797297-1.765202-1.768716v-42.184476c.010247-.455331.20025-.888015.528359-1.203208.312615-.330037.746704-.517066 1.200818-.51738h19.30915c6.268268 0 11.163602 1.407754 14.686001 4.223261 3.527272 2.816226 5.492303 7.156849 5.283598 11.671118.055022 2.619175-.596297 5.204699-1.885284 7.483955-1.272418 2.163833-3.042826 3.991396-5.163516 5.330212l8.033471 14.907748c.120325.21761.186248.461187.192131.709893 0 .382933-.151818.750182-.422054 1.020956-.270237.270774-.636756.422894-1.018928.422894h-13.341085c-.662062.037987-1.316455-.15787-1.849259-.553476-.413877-.313005-.740538-.727323-.948646-1.203208l-5.619828-12.4893h-2.665815v12.429139c-.038238.952577-.813825 1.708562-1.765202 1.720588zm19.309149-26.675124c.848503.050946 1.671464-.30118 2.221513-.950534.541434-.681498.818656-1.536187.780532-2.406416.017306-.898953-.242695-1.781353-.744507-2.526737-.518648-.722205-1.371308-1.126661-2.257538-1.070856h-4.803271v6.930479zm29.239913 13.463899c-.453537-.003095-.886585-.189677-1.200818-.517379-.329215-.314417-.51943-.747586-.52836-1.203209v-9.276734c.019151-.968775.798352-1.749527 1.765202-1.768716h21.170417c.966851.019189 1.746051.799941 1.765203 1.768716v9.288767c-.00893.455622-.199145.888791-.52836 1.203208-.314233.327702-.747281.514284-1.200818.517379zm-207.645408 80.819489c-.711364.042227-1.4118343-.190292-1.9573325-.649733-.457738-.403051-.798004-.922782-.9846706-1.50401l-12.2723575-41.715225v-.457219c-.0045518-.38047.1474616-.746028.4202862-1.010695.2657781-.279651.6353105-.43647 1.0206951-.433155h12.0682185c.7128038-.037659 1.4130208.19908 1.9573328.661765.466922.419565.807902.96122.984671 1.56417l6.196219 24.316836 6.19622-24.316836c.186667-.581228.526933-1.100959.984671-1.50401.544918-.461608 1.244696-.6982 1.957333-.661764h12.140267c.788419.013033 1.422564.653779 1.428973 1.443849v.457219l-12.332398 41.655065c-.177657.582526-.514606 1.103545-.972663 1.50401-.547874.455161-1.246611.687105-1.957333.649733zm39.014569 0c-.453252-.004452-.885797-.190817-1.200817-.51738-.327052-.314859-.513263-.748768-.516352-1.203208v-42.280733c.003089-.45444.1893-.888349.516352-1.203208.313792-.32987.7461-.520464 1.200817-.529412h33.4788c.96685.01919 1.746051.799941 1.765202 1.768716v9.216574c-.010248.455331-.200251.888015-.52836 1.203209-.314233.327702-.747281.514284-1.200818.517379h-19.609354v4.114972h18.144357c.454717.008947.887025.199541 1.200817.529411.327052.314859.513263.748769.516352 1.203208v8.506682c-.006546.967459-.787656 1.750124-1.753194 1.756684h-18.108332v4.175132h20.10169c.453537.003095.886584.189676 1.200817.517379.325914.315647.511909.749054.516352 1.203208v9.228607c-.006546.967459-.787656 1.750124-1.753194 1.756683zm46.075378 0c-.964906-.012785-1.745857-.789967-1.765202-1.756684v-42.244637c.019151-.968775.798352-1.749527 1.765202-1.768716h10.315025c1.106988-.056354 2.148135.528411 2.677823 1.50401l11.023507 18.120314v-17.855608c.00309-.45444.1893-.888349.516352-1.203208.314567-.328762.746392-.519143 1.200818-.529412h11.804038c.45561.00485.889438.196114 1.200818.529412.330338.313626.520771.74729.52836 1.203208v42.244637c-.007589.455918-.198022.889582-.52836 1.203208-.312615.330036-.746704.517066-1.200818.517379h-10.254983c-.603445.043177-1.203892-.117825-1.705162-.457219-.378264-.29428-.706699-.647746-.972662-1.046791l-11.035515-16.628336v16.411759c-.006547.967459-.787656 1.750124-1.753194 1.756684zm60.95351 0c-.964906-.012785-1.745858-.789967-1.765202-1.756684v-29.94785h-10.80736c-.966851-.019189-1.746051-.799941-1.765202-1.768716v-10.528071c.019151-.968775.798351-1.749527 1.765202-1.768716h38.234037c.454426.010268.886251.20065 1.200818.529412.327052.314858.513262.748768.516352 1.203208v10.528071c-.00309.45444-.1893.888349-.516352 1.203208-.314567.328762-.746392.519143-1.200818.529411h-10.80736v30.020043c-.006546.967459-.787656 1.750124-1.753194 1.756684zm36.408794 0c-.965538-.00656-1.746648-.789225-1.753194-1.756684v-42.244637c.012759-.966826.788398-1.749332 1.753194-1.768716h13.317069c.966851.019189 1.746051.799941 1.765202 1.768716v42.244637c-.019345.966717-.800296 1.743899-1.765202 1.756684zm45.426936.661764c-6.532449 0-11.735992-1.50401-15.610631-4.51203-3.874638-3.008021-5.940045-7.391709-6.196219-13.151065 0-1.203208-.07205-3.068181-.07205-5.679142 0-2.610962 0-4.596255.07205-5.823527.037253-3.428695 1.067672-6.772727 2.966019-9.625665 1.890784-2.739369 4.529991-4.874155 7.601177-6.148394 7.222491-2.787363 15.220793-2.787363 22.443284 0 3.071186 1.274239 5.710392 3.409025 7.601176 6.148394 1.896956 2.854307 2.931046 6.196724 2.978028 9.625665.084058 2.406416.120082 4.379677.120082 5.823527 0 1.443849 0 3.332886-.120082 5.679142-.26418 5.759356-2.333589 10.143044-6.208228 13.151065-3.874638 3.00802-9.066174 4.51203-15.574606 4.51203zm0-12.754006c1.293324.073752 2.557717-.402432 3.482372-1.311497.937057-1.108086 1.417933-2.532074 1.344916-3.982619.084057-2.526737.132089-4.379677.132089-5.558821s0-3.068181-.132089-5.426469c.071944-1.458197-.41815-2.88833-1.368933-3.99465-1.981349-1.73262-4.935361-1.73262-6.91671 0-.959506 1.101955-1.454598 2.53411-1.38094 3.99465 0 1.203209-.060041 2.983957-.060041 5.426469s0 4.295453.060041 5.558821c-.073018 1.450545.407858 2.874533 1.344915 3.982619.928349.910963 2.197196 1.387182 3.49438 1.311497zm32.097859 12.032081c-.965538-.006559-1.746648-.789224-1.753194-1.756684v-42.184476c.012759-.966826.788398-1.749332 1.753194-1.768716h10.315024c1.090704-.040503 2.109931.542406 2.629791 1.50401l11.023507 18.120314v-17.855608c.019152-.968775.798352-1.749527 1.765203-1.768716h11.804038c.454426.010268.886251.20065 1.200818.529412.327052.314858.513262.748768.516352 1.203208v42.280733c-.00309.45444-.1893.888349-.516352 1.203208-.315792.32544-.747847.511593-1.200818.517379h-10.303016c-.599877.045199-1.197184-.116098-1.693153-.457219-.384768-.290818-.717685-.644738-.984671-1.046791l-11.023507-16.664432v16.447855c-.019345.966717-.800296 1.743899-1.765202 1.756684zm68.1344.661765c-3.990672.102353-7.965363-.542372-11.719982-1.901069-2.820177-.993779-5.312883-2.74631-7.204906-5.065506-1.565582-1.99228-2.457247-4.432383-2.545734-6.966575-.000401-.379653.150964-.743651.420286-1.010695.263314-.274582.628695-.427127 1.008687-.421123h12.404448c.498549-.020433.996261.057234 1.464997.22861.489279.224364.942541.520382 1.344916.878342 1.382442 1.036741 3.077673 1.567555 4.803271 1.50401 1.220185.04414 2.438835-.122741 3.602454-.493316.888605-.328877 1.332907-.774064 1.332907-1.335561 0-.782085-.5884-1.383689-1.753194-1.804812-2.199775-.591986-4.445133-.998485-6.712571-1.21524-11.207632-1.475935-16.811449-6.288768-16.811449-14.438497-.036593-2.809566.849447-5.553301 2.521718-7.808821 1.799549-2.39348 4.227447-4.238856 7.012775-5.330212 3.297126-1.320957 6.824761-1.967341 10.375066-1.901069 3.710451-.084928 7.395884.629008 10.80736 2.093583 2.763171 1.149676 5.206686 2.953963 7.120849 5.258019 1.494127 1.736829 2.405669 3.900264 2.605775 6.18449.004551.38047-.147462.746028-.420287 1.010694-.242711.26978-.586212.426623-.948646.433155h-13.100921c-.487807.019648-.974378-.062291-1.428973-.240641-.441295-.201616-.846876-.473897-1.200818-.80615-.963455-.817845-2.196386-1.246798-3.458355-1.203208-2.089423 0-3.134135.601604-3.134135 1.828877 0 .649732.516352 1.203208 1.537047 1.636363 1.846968.626218 3.761709 1.030124 5.703884 1.203208 3.589632.370769 7.112279 1.228897 10.471131 2.550801 2.357476.91385 4.375037 2.536155 5.775934 4.644383 1.272905 2.185552 1.893838 4.69093 1.789218 7.219249.046229 2.961483-.948434 5.844933-2.809913 8.145719-2.046098 2.46198-4.717978 4.324379-7.733267 5.390372-3.549919 1.271459-7.302629 1.879124-11.07154 1.79278z" fill="#f9f9fa"/></g></svg>