<svg xmlns="http://www.w3.org/2000/svg" width="537" height="394" viewBox="0 0 537 394"><g fill="none"><rect width="537" height="393.345" fill="#282A29"/><path fill="#F9F9FA" d="M90.3110351,185.721908 C89.3415465,185.708954 88.5587612,184.924611 88.545833,183.953192 L88.545833,141.768716 C88.5560809,141.313385 88.7460838,140.880701 89.0741928,140.565508 C89.3884259,140.237805 89.8214736,140.051224 90.2750106,140.048128 L103.628104,140.048128 C104.081641,140.051224 104.514689,140.237805 104.828922,140.565508 C105.153715,140.881929 105.339499,141.314844 105.345274,141.768716 L105.345274,184.00132 C105.339499,184.455193 105.153715,184.888108 104.828922,185.204529 C104.511627,185.527774 104.080519,185.713519 103.628104,185.721908 L90.3110351,185.721908 Z M116.873124,185.721908 C115.903635,185.708954 115.12085,184.924611 115.107922,183.953192 L115.107922,141.768716 C115.11817,141.313385 115.308173,140.880701 115.636282,140.565508 C115.950515,140.237805 116.383562,140.051224 116.837099,140.048128 L127.152124,140.048128 C128.256969,139.987572 129.29669,140.574166 129.817939,141.552138 L140.889479,159.612292 L140.889479,141.768716 C140.895254,141.314844 141.081037,140.881929 141.405831,140.565508 C141.720851,140.238945 142.153396,140.05258 142.606649,140.048128 L154.422695,140.048128 C154.876232,140.051224 155.30928,140.237805 155.623513,140.565508 C155.951622,140.880701 156.141625,141.313385 156.151873,141.768716 L156.151873,184.00132 C156.115938,184.927043 155.382006,185.672867 154.45872,185.721908 L144.143695,185.721908 C143.544727,185.75784 142.950373,185.597341 142.450542,185.264689 C142.069284,184.973706 141.740347,184.6197 141.47788,184.217898 L130.442365,167.589562 L130.442365,184.00132 C130.43659,184.455193 130.250807,184.888108 129.926013,185.204529 C129.607986,185.5267 129.177336,185.712249 128.725195,185.721908 L116.873124,185.721908 Z M177.826634,185.721908 C177.374765,185.710999 176.944561,185.525643 176.625816,185.204529 C176.301022,184.888108 176.115239,184.455193 176.109464,184.00132 L176.109464,154.053471 L165.194031,154.053471 C164.740494,154.050375 164.307446,153.863794 163.993213,153.536091 C163.663998,153.221674 163.473783,152.788506 163.464853,152.332883 L163.464853,141.768716 C163.475101,141.313385 163.665104,140.880701 163.993213,140.565508 C164.299177,140.220013 164.733308,140.015565 165.194031,140 L203.464093,140 C203.917063,140.005786 204.349118,140.191939 204.664911,140.517379 C204.989704,140.8338 205.175488,141.266715 205.181262,141.720588 L205.181262,152.248659 C205.174662,153.220791 204.386284,154.005365 203.41606,154.005342 L192.6087,154.005342 L192.6087,184.00132 C192.602926,184.455193 192.417142,184.888108 192.092349,185.204529 C191.774322,185.5267 191.343671,185.712249 190.891531,185.721908 L177.826634,185.721908 Z M214.235428,185.721908 C213.26594,185.708954 212.483154,184.924611 212.470226,183.953192 L212.470226,141.768716 C212.480474,141.313385 212.670477,140.880701 212.998586,140.565508 C213.312819,140.237805 213.745867,140.051224 214.199404,140.048128 L247.678203,140.048128 C248.13174,140.051224 248.564787,140.237805 248.879021,140.565508 C249.20713,140.880701 249.397133,141.313385 249.40738,141.768716 L249.40738,150.98529 C249.388229,151.954065 248.609029,152.734817 247.642178,152.754006 L228.068849,152.754006 L228.068849,156.844913 L246.201197,156.844913 C246.655623,156.855182 247.087448,157.045563 247.402015,157.374325 C247.731396,157.687562 247.918054,158.122515 247.918366,158.577533 L247.918366,167.072182 C247.915277,167.526622 247.729067,167.960532 247.402015,168.275391 C247.087448,168.604153 246.655623,168.794534 246.201197,168.804802 L228.068849,168.804802 L228.068849,172.919774 L248.15853,172.919774 C248.612956,172.930042 249.044781,173.120423 249.359348,173.449185 C249.6864,173.764044 249.87261,174.197954 249.875699,174.652393 L249.875699,183.868968 C249.869925,184.32284 249.684141,184.755755 249.359348,185.072176 C249.040602,185.39329 248.610399,185.578646 248.15853,185.589555 L214.235428,185.721908 Z M260.310806,185.721908 C259.341317,185.708954 258.558532,184.924611 258.545604,183.953192 L258.545604,141.768716 C258.555851,141.313385 258.745854,140.880701 259.073963,140.565508 C259.386578,140.235471 259.820667,140.048442 260.274781,140.048128 L279.583931,140.048128 C285.852199,140.048128 290.747533,141.455882 294.269932,144.271389 C297.797204,147.087615 299.762235,151.428238 299.55353,155.942507 C299.608552,158.561682 298.957233,161.147206 297.668246,163.426462 C296.395828,165.590295 294.62542,167.417858 292.50473,168.756674 L300.538201,183.664422 C300.658526,183.882032 300.724449,184.125609 300.730332,184.374315 C300.730332,184.757248 300.578514,185.124497 300.308278,185.395271 C300.038041,185.666045 299.671522,185.818165 299.28935,185.818165 L285.948265,185.818165 C285.286203,185.856152 284.63181,185.660295 284.099006,185.264689 C283.685129,184.951684 283.358468,184.537366 283.15036,184.061481 L277.530532,171.572181 L274.864717,171.572181 L274.864717,184.00132 C274.826479,184.953897 274.050892,185.709882 273.099515,185.721908 L260.310806,185.721908 Z M279.619955,159.046784 C280.468458,159.09773 281.291419,158.745604 281.841468,158.09625 C282.382902,157.414752 282.660124,156.560063 282.622,155.689834 C282.639306,154.790881 282.379305,153.908481 281.877493,153.163097 C281.358845,152.440892 280.506185,152.036436 279.619955,152.092241 L274.816684,152.092241 L274.816684,159.02272 L279.619955,159.046784 Z M308.859868,172.510683 C308.406331,172.507588 307.973283,172.321006 307.65905,171.993304 C307.329835,171.678887 307.13962,171.245718 307.13069,170.790095 L307.13069,161.513361 C307.149841,160.544586 307.929042,159.763834 308.895892,159.744645 L330.066309,159.744645 C331.03316,159.763834 331.81236,160.544586 331.831512,161.513361 L331.831512,170.802128 C331.822582,171.25775 331.632367,171.690919 331.303152,172.005336 C330.988919,172.333038 330.555871,172.51962 330.102334,172.522715 L308.859868,172.510683 Z M101.21446,253.330172 C100.503096,253.372399 99.8026257,253.13988 99.2571275,252.680439 C98.7993895,252.277388 98.4591235,251.757657 98.2724569,251.176429 L86.0000994,209.461204 L86.0000994,209.003985 C85.9955476,208.623515 86.147561,208.257957 86.4203856,207.99329 C86.6861637,207.713639 87.0556961,207.55682 87.4410807,207.560135 L99.5092992,207.560135 C100.222103,207.522476 100.92232,207.759215 101.466632,208.2219 C101.933554,208.641465 102.274534,209.18312 102.451303,209.78607 L108.647522,234.102906 L114.843742,209.78607 C115.030409,209.204842 115.370675,208.685111 115.828413,208.28206 C116.373331,207.820452 117.073109,207.58386 117.785746,207.620296 L129.926013,207.620296 C130.714432,207.633329 131.348577,208.274075 131.354986,209.064145 L131.354986,209.521364 L119.022588,251.176429 C118.844931,251.758955 118.507982,252.279974 118.049925,252.680439 C117.502051,253.1356 116.803314,253.367544 116.092592,253.330172 L101.21446,253.330172 Z M140.229029,253.330172 C139.775777,253.32572 139.343232,253.139355 139.028212,252.812792 C138.70116,252.497933 138.514949,252.064024 138.51186,251.609584 L138.51186,209.328851 C138.514949,208.874411 138.70116,208.440502 139.028212,208.125643 C139.342004,207.795773 139.774312,207.605179 140.229029,207.596231 L173.707829,207.596231 C174.674679,207.615421 175.45388,208.396172 175.473031,209.364947 L175.473031,218.581521 C175.462783,219.036852 175.27278,219.469536 174.944671,219.78473 C174.630438,220.112432 174.19739,220.299014 173.743853,220.302109 L154.134499,220.302109 L154.134499,224.417081 L172.278856,224.417081 C172.733573,224.426028 173.165881,224.616622 173.479673,224.946492 C173.806725,225.261351 173.992936,225.695261 173.996025,226.1497 L173.996025,234.656382 C173.989479,235.623841 173.208369,236.406506 172.242831,236.413066 L154.134499,236.413066 L154.134499,240.588198 L174.236189,240.588198 C174.689726,240.591293 175.122773,240.777874 175.437006,241.105577 C175.76292,241.421224 175.948915,241.854631 175.953358,242.308785 L175.953358,251.537392 C175.946812,252.504851 175.165702,253.287516 174.200164,253.294075 L140.229029,253.330172 Z M186.304407,253.330172 C185.339501,253.317387 184.55855,252.540205 184.539205,251.573488 L184.539205,209.328851 C184.558356,208.360076 185.337557,207.579324 186.304407,207.560135 L196.619432,207.560135 C197.72642,207.503781 198.767567,208.088546 199.297255,209.064145 L210.320762,227.184459 L210.320762,209.328851 C210.323852,208.874411 210.510062,208.440502 210.837114,208.125643 C211.151681,207.796881 211.583506,207.6065 212.037932,207.596231 L223.84197,207.596231 C224.29758,207.601081 224.731408,207.792345 225.042788,208.125643 C225.373126,208.439269 225.563559,208.872933 225.571148,209.328851 L225.571148,251.573488 C225.563559,252.029406 225.373126,252.46307 225.042788,252.776696 C224.730173,253.106732 224.296084,253.293762 223.84197,253.294075 L213.586987,253.294075 C212.983542,253.337252 212.383095,253.17625 211.881825,252.836856 C211.503561,252.542576 211.175126,252.18911 210.909163,251.790065 L199.873648,235.161729 L199.873648,251.573488 C199.867101,252.540947 199.085992,253.323612 198.120454,253.330172 L186.304407,253.330172 Z M247.257917,253.330172 C246.293011,253.317387 245.512059,252.540205 245.492715,251.573488 L245.492715,221.625638 L234.685355,221.625638 C233.718504,221.606449 232.939304,220.825697 232.920153,219.856922 L232.920153,209.328851 C232.939304,208.360076 233.718504,207.579324 234.685355,207.560135 L272.919392,207.560135 C273.373818,207.570403 273.805643,207.760785 274.12021,208.089547 C274.447262,208.404405 274.633472,208.838315 274.636562,209.292755 L274.636562,219.820826 C274.633472,220.275266 274.447262,220.709175 274.12021,221.024034 C273.805643,221.352796 273.373818,221.543177 272.919392,221.553445 L262.112032,221.553445 L262.112032,251.573488 C262.105486,252.540947 261.324376,253.323612 260.358838,253.330172 L247.257917,253.330172 Z M283.666711,253.330172 C282.701173,253.323612 281.920063,252.540947 281.913517,251.573488 L281.913517,209.328851 C281.926276,208.362025 282.701915,207.579519 283.666711,207.560135 L296.98378,207.560135 C297.950631,207.579324 298.729831,208.360076 298.748982,209.328851 L298.748982,251.573488 C298.729637,252.540205 297.948686,253.317387 296.98378,253.330172 L283.666711,253.330172 Z M329.093647,253.991936 C322.561198,253.991936 317.357655,252.487926 313.483016,249.479906 C309.608378,246.471885 307.542971,242.088197 307.286797,236.328841 C307.286797,235.125633 307.214747,233.26066 307.214747,230.649699 C307.214747,228.038737 307.214747,226.053444 307.286797,224.826172 C307.32405,221.397477 308.354469,218.053445 310.252816,215.200507 C312.1436,212.461138 314.782807,210.326352 317.853993,209.052113 C325.076484,206.26475 333.074786,206.26475 340.297277,209.052113 C343.368463,210.326352 346.007669,212.461138 347.898453,215.200507 C349.795409,218.054814 350.829499,221.397231 350.876481,224.826172 C350.960539,227.232588 350.996563,229.205849 350.996563,230.649699 C350.996563,232.093548 350.996563,233.982585 350.876481,236.328841 C350.612301,242.088197 348.542892,246.471885 344.668253,249.479906 C340.793615,252.487926 335.602079,253.991936 329.093647,253.991936 Z M329.093647,241.23793 C330.386971,241.311682 331.651364,240.835498 332.576019,239.926433 C333.513076,238.818347 333.993952,237.394359 333.920935,235.943814 C334.004992,233.417077 334.053024,231.564137 334.053024,230.384993 C334.053024,229.205849 334.053024,227.316812 333.920935,224.958524 C333.992879,223.500327 333.502785,222.070194 332.552002,220.963874 C330.570653,219.231254 327.616641,219.231254 325.635292,220.963874 C324.675786,222.065829 324.180694,223.497984 324.254352,224.958524 C324.254352,226.161733 324.194311,227.942481 324.194311,230.384993 C324.194311,232.827505 324.194311,234.680446 324.254352,235.943814 C324.181334,237.394359 324.66221,238.818347 325.599267,239.926433 C326.527616,240.837396 327.796463,241.313615 329.093647,241.23793 Z M361.191506,253.270011 C360.225968,253.263452 359.444858,252.480787 359.438312,251.513327 L359.438312,209.328851 C359.451071,208.362025 360.22671,207.579519 361.191506,207.560135 L371.50653,207.560135 C372.597234,207.519632 373.616461,208.102541 374.136321,209.064145 L385.159828,227.184459 L385.159828,209.328851 C385.17898,208.360076 385.95818,207.579324 386.925031,207.560135 L398.729069,207.560135 C399.183495,207.570403 399.61532,207.760785 399.929887,208.089547 C400.256939,208.404405 400.443149,208.838315 400.446239,209.292755 L400.446239,251.573488 C400.443149,252.027928 400.256939,252.461837 399.929887,252.776696 C399.614095,253.102136 399.18204,253.288289 398.729069,253.294075 L388.426053,253.294075 C387.826176,253.339274 387.228869,253.177977 386.7329,252.836856 C386.348132,252.546038 386.015215,252.192118 385.748229,251.790065 L374.724722,235.125633 L374.724722,251.573488 C374.705377,252.540205 373.924426,253.317387 372.95952,253.330172 L361.191506,253.270011 Z M429.325906,253.931776 C425.335234,254.034129 421.360543,253.389404 417.605924,252.030707 C414.785747,251.036928 412.293041,249.284397 410.401018,246.965201 C408.835436,244.972921 407.943771,242.532818 407.855284,239.998626 C407.854883,239.618973 408.006248,239.254975 408.27557,238.987931 C408.538884,238.713349 408.904265,238.560804 409.284257,238.566808 L421.688705,238.566808 C422.187254,238.546375 422.684966,238.624042 423.153702,238.795418 C423.642981,239.019782 424.096243,239.3158 424.498618,239.67376 C425.88106,240.710501 427.576291,241.241315 429.301889,241.17777 C430.522074,241.22191 431.740724,241.055029 432.904343,240.684454 C433.792948,240.355577 434.23725,239.91039 434.23725,239.348893 C434.23725,238.566808 433.64885,237.965204 432.484056,237.544081 C430.284281,236.952095 428.038923,236.545596 425.771485,236.328841 C414.563853,234.852906 408.960036,230.040073 408.960036,221.890344 C408.923443,219.080778 409.809483,216.337043 411.481754,214.081523 C413.281303,211.688043 415.709201,209.842667 418.494529,208.751311 C421.791655,207.430354 425.31929,206.78397 428.869595,206.850242 C432.580046,206.765314 436.265479,207.47925 439.676955,208.943825 C442.440126,210.093501 444.883641,211.897788 446.797804,214.201844 C448.291931,215.938673 449.203473,218.102108 449.403579,220.386334 C449.40813,220.766804 449.256117,221.132362 448.983292,221.397028 C448.740581,221.666808 448.39708,221.823651 448.034646,221.830183 L434.933725,221.830183 C434.445918,221.849831 433.959347,221.767892 433.504752,221.589542 C433.063457,221.387926 432.657876,221.115645 432.303934,220.783392 C431.340479,219.965547 430.107548,219.536594 428.845579,219.580184 C426.756156,219.580184 425.711444,220.181788 425.711444,221.409061 C425.711444,222.058793 426.227796,222.612269 427.248491,223.045424 C429.095459,223.671642 431.0102,224.075548 432.952375,224.248632 C436.542007,224.619401 440.064654,225.477529 443.423506,226.799433 C445.780982,227.713283 447.798543,229.335588 449.19944,231.443816 C450.472345,233.629368 451.093278,236.134746 450.988658,238.663065 C451.034887,241.624548 450.040224,244.507998 448.178745,246.808784 C446.132647,249.270764 443.460767,251.133163 440.445478,252.199156 C436.895559,253.470615 433.142849,254.07828 429.373938,253.991936 L429.325906,253.931776 Z"/></g></svg>