<svg fill="none" height="282" viewBox="0 0 537 282" width="537" xmlns="http://www.w3.org/2000/svg"><path d="m247.258 197.105c-.464-.006-.908-.193-1.237-.52s-.519-.769-.528-1.233v-29.889h-10.807c-.466-.009-.909-.198-1.238-.527s-.518-.773-.528-1.238v-10.507c.01-.465.199-.909.528-1.238s.772-.518 1.238-.527h38.234c.454.01.886.2 1.2.528.162.156.291.342.38.548s.135.428.137.653v10.507c-.002.224-.048.446-.137.653-.089.206-.218.392-.38.548-.314.328-.746.518-1.2.528h-10.808v29.961c-.003.464-.189.908-.517 1.236s-.772.514-1.236.517zm36.409 0c-.464-.003-.908-.189-1.236-.517s-.514-.772-.517-1.236v-42.161c.006-.464.192-.908.519-1.237.327-.33.77-.519 1.234-.528h13.317c.465.009.909.198 1.238.527s.518.773.527 1.238v42.161c-.009.464-.198.906-.528 1.233-.329.327-.773.514-1.237.52zm45.427.66c-6.533 0-11.736-1.501-15.611-4.503-3.874-3.002-5.94-7.377-6.196-13.125 0-1.201-.072-3.062-.072-5.668 0-2.605 0-4.587.072-5.812.037-3.421 1.068-6.759 2.966-9.606 1.891-2.734 4.53-4.865 7.601-6.136 7.223-2.782 15.221-2.782 22.444 0 3.071 1.271 5.71 3.402 7.601 6.136 1.897 2.849 2.931 6.184 2.978 9.606.084 2.402.12 4.371.12 5.812s0 3.327-.12 5.668c-.264 5.748-2.334 10.123-6.209 13.125-3.874 3.002-9.066 4.503-15.574 4.503zm0-12.728c.639.036 1.28-.062 1.879-.287.6-.225 1.146-.574 1.603-1.022.937-1.106 1.418-2.527 1.345-3.975.084-2.522.132-4.371.132-5.548s0-3.062-.132-5.416c.072-1.455-.418-2.882-1.369-3.986-.958-.836-2.186-1.297-3.458-1.297s-2.5.461-3.458 1.297c-.96 1.1-1.455 2.529-1.381 3.986 0 1.201-.06 2.979-.06 5.416 0 2.438 0 4.287.06 5.548-.073 1.448.407 2.869 1.345 3.975.459.449 1.007.798 1.608 1.023.602.226 1.244.323 1.886.286zm32.098 12.008c-.464-.003-.908-.189-1.236-.517-.329-.328-.514-.773-.517-1.237v-42.1c.006-.464.192-.908.519-1.237.327-.33.77-.519 1.234-.528h10.315c.534-.02 1.064.11 1.529.375.464.265.846.655 1.101 1.126l11.023 18.084v-17.82c.009-.465.198-.909.527-1.238s.773-.518 1.238-.527h11.804c.455.01.887.2 1.201.528.162.156.291.342.38.548.088.206.135.428.136.653v42.197c-.001.224-.048.446-.136.652-.089.206-.218.393-.38.548-.156.161-.343.29-.549.378-.206.089-.427.136-.652.139h-10.303c-.6.045-1.197-.116-1.693-.457-.385-.29-.718-.643-.985-1.044l-11.023-16.632v16.416c-.009.464-.199.906-.528 1.233s-.773.514-1.237.52zm68.134.66c-3.991.102-7.965-.541-11.72-1.897-2.82-.992-5.313-2.741-7.205-5.056-1.565-1.988-2.457-4.423-2.546-6.952 0-.188.037-.374.109-.547.073-.173.178-.33.312-.462.13-.136.287-.243.46-.315.174-.072.36-.108.548-.105h12.405c.498-.021.996.057 1.465.228.489.224.942.519 1.345.876 1.382 1.035 3.077 1.565 4.803 1.501 1.22.045 2.439-.122 3.603-.492.888-.328 1.332-.772 1.332-1.333 0-.78-.588-1.381-1.753-1.801-2.2-.591-4.445-.996-6.712-1.213-11.208-1.473-16.812-6.276-16.812-14.41-.036-2.804.85-5.542 2.522-7.793 1.8-2.389 4.227-4.23 7.013-5.319 3.297-1.319 6.824-1.964 10.375-1.898 3.71-.085 7.396.628 10.807 2.09 2.763 1.147 5.207 2.948 7.121 5.247 1.494 1.734 2.406 3.893 2.606 6.172.002.188-.034.375-.106.548-.073.174-.18.33-.315.461-.12.133-.266.24-.429.315-.163.074-.34.114-.519.117h-13.101c-.488.02-.974-.062-1.429-.24-.441-.201-.847-.473-1.201-.804-.963-.817-2.196-1.245-3.458-1.201-2.09 0-3.134.6-3.134 1.825 0 .649.516 1.201 1.537 1.633 1.847.625 3.761 1.028 5.704 1.201 3.589.37 7.112 1.226 10.471 2.546 2.357.912 4.375 2.531 5.776 4.635 1.273 2.181 1.893 4.681 1.789 7.205.046 2.955-.949 5.833-2.81 8.129-2.046 2.457-4.718 4.316-7.733 5.38-3.55 1.269-7.303 1.875-11.072 1.789z" fill="#c56866"/><path d="m101.214 197.105c-.711.042-1.4114-.19-1.9569-.649-.4577-.402-.798-.921-.9847-1.501l-12.2723-41.632v-.456c-.0023-.188.0339-.375.1061-.548.0723-.173.1792-.33.3142-.461.1315-.138.2899-.248.4655-.322s.3645-.112.5552-.11h12.0682c.7127-.038 1.4127.198 1.9577.66.467.419.808.96.984 1.561l6.197 24.269 6.196-24.269c.186-.58.527-1.099.984-1.501.545-.46 1.245-.697 1.958-.66h12.14c.379.006.741.16 1.008.429.267.27.418.633.421 1.012v.456l-12.332 41.572c-.178.582-.515 1.102-.973 1.501-.548.455-1.247.686-1.957.649zm39.015 0c-.224-.002-.446-.049-.652-.138-.206-.088-.393-.217-.549-.379-.162-.155-.291-.341-.379-.548-.089-.206-.136-.428-.137-.652v-42.197c.001-.225.048-.446.137-.653.088-.206.217-.392.379-.548.156-.163.342-.293.548-.384s.428-.14.653-.144h33.479c.465.009.909.198 1.238.527s.518.773.527 1.238v9.198c-.01.455-.2.886-.528 1.201-.156.162-.342.291-.549.38-.206.088-.428.135-.652.136h-19.61v4.107h18.145c.225.005.447.054.653.144.206.091.392.222.548.385.161.155.291.341.379.548.089.206.135.428.137.652v8.49c-.003.464-.189.908-.517 1.236s-.772.514-1.236.517h-18.109v4.167h20.102c.225.002.447.048.653.137s.392.218.548.38c.161.155.29.342.379.548.088.206.135.428.137.652v9.211c-.003.464-.189.908-.517 1.236s-.772.514-1.236.517zm46.075 0c-.464-.006-.907-.193-1.237-.52-.329-.327-.519-.769-.528-1.233v-42.161c.009-.465.198-.909.527-1.238s.773-.518 1.238-.527h10.315c.543-.028 1.082.098 1.556.364s.863.66 1.122 1.137l11.024 18.084v-17.82c.001-.225.048-.446.136-.653.089-.206.218-.392.38-.548.315-.328.746-.518 1.201-.528h11.804c.225.002.448.05.654.141.207.091.393.223.547.387.163.155.294.341.385.547s.139.429.143.654v42.161c-.004.225-.052.447-.143.653s-.222.392-.385.547c-.155.163-.341.293-.548.382-.206.089-.428.135-.653.135h-10.255c-.604.043-1.204-.118-1.705-.457-.379-.293-.707-.646-.973-1.044l-11.035-16.596v16.38c-.004.464-.189.908-.517 1.236-.329.328-.773.514-1.237.517z" fill="#b299b6"/><path d="m177.827 129.631c-.452-.011-.882-.196-1.201-.516-.161-.157-.289-.343-.378-.549s-.136-.428-.139-.652v-29.8885h-10.915c-.224-.0015-.446-.048-.653-.1367-.206-.0886-.392-.2177-.548-.3796-.163-.1554-.293-.3415-.384-.5476s-.14-.4281-.144-.6532v-10.5432c.01-.4544.2-.8862.528-1.2008.152-.1706.336-.3087.543-.4057.206-.097.43-.151.658-.1587h38.27c.224.0029.446.0499.652.1385s.392.217.549.3779c.161.1563.289.3429.378.5489.088.2061.135.4276.138.6519v10.5071c-.003.4661-.19.912-.521 1.2404-.331.3285-.778.5128-1.244.5128h-10.807v29.9365c-.003.224-.05.446-.139.652-.088.206-.217.392-.378.549-.318.321-.748.506-1.201.516zm36.408 0c-.466-.006-.911-.194-1.241-.524s-.518-.775-.524-1.241v-42.1008c.01-.4544.2-.8862.529-1.2008.155-.1619.341-.291.548-.3797.206-.0887.428-.1351.652-.1367h33.479c.225.0016.447.048.653.1367s.392.2178.548.3797c.328.3146.518.7464.528 1.2008v9.1982c-.009.4653-.198.909-.527 1.238-.329.3291-.773.518-1.238.5272h-19.573v4.0824h18.132c.455.011.886.201 1.201.529.163.154.293.341.382.547.088.207.134.429.134.654v8.477c-.001.225-.048.447-.136.653-.089.206-.218.393-.38.548-.315.328-.746.518-1.201.529h-18.132v4.106h20.089c.455.011.887.201 1.201.529.162.155.291.342.38.548s.135.428.137.652v9.199c-.003.224-.05.446-.139.652s-.217.392-.378.549c-.319.32-.749.505-1.201.516zm46.076 0c-.467-.006-.912-.194-1.242-.524-.329-.33-.517-.775-.523-1.241v-42.1008c.01-.4544.2-.8862.528-1.2008.155-.163.341-.2928.547-.3816.207-.0888.429-.1346.654-.1348h19.309c6.268 0 11.163 1.405 14.686 4.2149 1.739 1.3855 3.124 3.1637 4.043 5.1885.918 2.0247 1.343 4.2384 1.24 6.4594.055 2.6142-.596 5.1942-1.885 7.4692-1.272 2.159-3.043 3.983-5.163 5.319l8.033 14.879c.12.217.186.46.192.708 0 .382-.152.749-.422 1.019s-.637.422-1.019.422h-13.341c-.662.038-1.316-.157-1.849-.552-.414-.313-.741-.726-.949-1.201l-5.62-12.465h-2.665v12.405c-.019.458-.212.891-.541 1.21-.328.32-.766.501-1.225.507zm19.309-26.622c.418.025.837-.048 1.222-.212.386-.165.728-.417.999-.737.542-.68.819-1.533.781-2.4014.017-.8971-.243-1.7778-.745-2.5217-.255-.3546-.596-.6386-.991-.8255-.394-.1869-.83-.2706-1.266-.2432h-4.803v6.9168zm29.24 13.437c-.225-.001-.447-.048-.653-.137-.206-.088-.393-.217-.548-.379-.163-.156-.294-.342-.384-.548-.091-.206-.14-.428-.144-.653v-9.258c.009-.466.198-.909.527-1.238s.772-.518 1.238-.528h21.17c.465.01.909.199 1.238.528s.518.772.527 1.238v9.27c-.004.225-.053.447-.144.653-.09.206-.221.392-.384.548-.156.162-.342.291-.548.379-.206.089-.428.136-.653.137z" fill="#36508a"/><path d="m90.3111 129.63c-.4662-.006-.9116-.194-1.2413-.524-.3297-.329-.5177-.775-.5239-1.241v-42.1006c.0102-.4544.2002-.8863.5284-1.2008.1555-.1619.3419-.291.5481-.3797.2063-.0887.4282-.1352.6527-.1367h13.3529c.225.0015.447.048.653.1367s.392.2178.548.3797c.161.1563.289.3429.378.5489.088.2061.135.4276.138.6519v42.1486c-.003.224-.05.446-.138.652-.089.206-.217.393-.378.549-.317.322-.748.508-1.201.516zm26.5619 0c-.466-.006-.911-.194-1.241-.524-.33-.329-.518-.775-.524-1.241v-42.1006c.01-.4544.2-.8863.528-1.2008.156-.1619.342-.291.548-.3797.207-.0887.429-.1352.653-.1367h10.315c.541-.0296 1.08.0959 1.552.3619.472.2659.859.6611 1.114 1.1391l11.072 18.0248v-17.8086c.002-.2243.049-.4458.138-.6519.089-.206.217-.3926.378-.5489.156-.1614.342-.2901.548-.3788.207-.0886.428-.1354.653-.1376h11.816c.224.0015.446.048.652.1367.207.0887.393.2178.549.3797.328.3145.518.7464.528 1.2008v42.1486c-.017.446-.201.869-.514 1.187-.313.317-.734.507-1.179.53h-10.315c-.599.036-1.194-.124-1.693-.456-.382-.29-.711-.644-.973-1.045l-11.036-16.595v16.379c-.002.224-.05.446-.138.652-.089.206-.217.393-.378.549-.318.321-.749.507-1.201.516z" fill="#5ca0b3"/></svg>