<svg xmlns="http://www.w3.org/2000/svg" width="537" height="394" viewBox="0 0 537 394">
  <g fill="none">
    <rect width="537" height="393.345" fill="#F9F9FA"/>
    <path fill="#212121" d="M119.64,187 C118.832643,186.989234 118.180766,186.337357 118.17,185.53 L118.17,150.47 C118.178534,150.09157 118.336762,149.731961 118.61,149.47 C118.871683,149.197642 119.23231,149.042573 119.61,149.04 L130.73,149.04 C131.10769,149.042573 131.468317,149.197642 131.73,149.47 C132.000477,149.732981 132.155191,150.092782 132.16,150.47 L132.16,185.57 C132.155191,185.947218 132.000477,186.307019 131.73,186.57 C131.465767,186.838653 131.106755,186.993028 130.73,187 L119.64,187 Z M141.76,187 C140.952643,186.989234 140.300766,186.337357 140.29,185.53 L140.29,150.47 C140.298534,150.09157 140.456762,149.731961 140.73,149.47 C140.991683,149.197642 141.35231,149.042573 141.73,149.04 L150.32,149.04 C151.240077,148.989671 152.105921,149.477196 152.54,150.29 L161.76,165.3 L161.76,150.47 C161.764809,150.092782 161.919523,149.732981 162.19,149.47 C162.452338,149.19859 162.812547,149.0437 163.19,149.04 L173.03,149.04 C173.40769,149.042573 173.768317,149.197642 174.03,149.47 C174.303238,149.731961 174.461466,150.09157 174.47,150.47 L174.47,185.57 C174.440074,186.339379 173.828881,186.959242 173.06,187 L164.47,187 C163.9712,187.029863 163.476242,186.89647 163.06,186.62 C162.742501,186.378161 162.468573,186.083942 162.25,185.75 L153.06,171.93 L153.06,185.57 C153.055191,185.947218 152.900477,186.307019 152.63,186.57 C152.365158,186.837761 152.006527,186.991972 151.63,187 L141.76,187 Z M192.52,187 C192.143699,186.990933 191.78544,186.836882 191.52,186.57 C191.249523,186.307019 191.094809,185.947218 191.09,185.57 L191.09,160.68 L182,160.68 C181.62231,160.677427 181.261683,160.522358 181,160.25 C180.725841,159.988685 180.567436,159.628673 180.56,159.25 L180.56,150.47 C180.568534,150.09157 180.726762,149.731961 181,149.47 C181.254796,149.182855 181.616326,149.012936 182,149 L213.87,149 C214.247218,149.004809 214.607019,149.159523 214.87,149.43 C215.140477,149.692981 215.295191,150.052782 215.3,150.43 L215.3,159.18 C215.294504,159.987951 214.637969,160.640019 213.83,160.64 L204.83,160.64 L204.83,185.57 C204.825191,185.947218 204.670477,186.307019 204.4,186.57 C204.135158,186.837761 203.776527,186.991972 203.4,187 L192.52,187 Z M222.84,187 C222.032643,186.989234 221.380766,186.337357 221.37,185.53 L221.37,150.47 C221.378534,150.09157 221.536762,149.731961 221.81,149.47 C222.071683,149.197642 222.43231,149.042573 222.81,149.04 L250.69,149.04 C251.06769,149.042573 251.428317,149.197642 251.69,149.47 C251.963238,149.731961 252.121466,150.09157 252.13,150.47 L252.13,158.13 C252.114052,158.93516 251.46516,159.584052 250.66,159.6 L234.36,159.6 L234.36,163 L249.46,163 C249.83843,163.008534 250.198039,163.166762 250.46,163.44 C250.734297,163.700335 250.88974,164.061829 250.89,164.44 L250.89,171.5 C250.887427,171.87769 250.732358,172.238317 250.46,172.5 C250.198039,172.773238 249.83843,172.931466 249.46,172.94 L234.36,172.94 L234.36,176.36 L251.09,176.36 C251.46843,176.368534 251.828039,176.526762 252.09,176.8 C252.362358,177.061683 252.517427,177.42231 252.52,177.8 L252.52,185.46 C252.515191,185.837218 252.360477,186.197019 252.09,186.46 C251.82456,186.726882 251.466301,186.880933 251.09,186.89 L222.84,187 Z M261.21,187 C260.402643,186.989234 259.750766,186.337357 259.74,185.53 L259.74,150.47 C259.748534,150.09157 259.906762,149.731961 260.18,149.47 C260.440335,149.195703 260.801829,149.04026 261.18,149.04 L277.26,149.04 C282.48,149.04 286.556667,150.21 289.49,152.55 C292.427391,154.890598 294.063802,158.498139 293.89,162.25 C293.935821,164.426826 293.393424,166.575684 292.32,168.47 C291.260374,170.268387 289.786038,171.787295 288.02,172.9 L294.71,185.29 C294.810202,185.470858 294.865101,185.673297 294.87,185.88 C294.87,186.19826 294.743572,186.503484 294.518528,186.728528 C294.293484,186.953572 293.98826,187.08 293.67,187.08 L282.56,187.08 C282.008657,187.111571 281.463702,186.948792 281.02,186.62 C280.675338,186.359858 280.403306,186.015513 280.23,185.62 L275.55,175.24 L273.33,175.24 L273.33,185.57 C273.298157,186.361698 272.652275,186.990005 271.86,187 L261.21,187 Z M277.29,164.83 C277.996604,164.872342 278.681938,164.579686 279.14,164.04 C279.590887,163.4736 279.821749,162.763257 279.79,162.04 C279.804412,161.29287 279.587892,160.559497 279.17,159.94 C278.738088,159.339768 278.028022,159.003619 277.29,159.05 L273.29,159.05 L273.29,164.81 L277.29,164.83 Z M301.64,176.02 C301.26231,176.017427 300.901683,175.862358 300.64,175.59 C300.365841,175.328685 300.207436,174.968673 300.2,174.59 L300.2,166.88 C300.215948,166.07484 300.86484,165.425948 301.67,165.41 L319.3,165.41 C320.10516,165.425948 320.754052,166.07484 320.77,166.88 L320.77,174.6 C320.762564,174.978673 320.604159,175.338685 320.33,175.6 C320.068317,175.872358 319.70769,176.027427 319.33,176.03 L301.64,176.02 Z M128.72,243.19 C128.1276,243.225096 127.544272,243.031846 127.09,242.65 C126.708811,242.315019 126.42545,241.883065 126.27,241.4 L116.05,206.73 L116.05,206.35 C116.046209,206.033787 116.172801,205.729967 116.4,205.51 C116.621331,205.277579 116.929065,205.147244 117.25,205.15 L127.3,205.15 C127.893599,205.118701 128.476716,205.315458 128.93,205.7 C129.318837,206.048706 129.602793,206.498881 129.75,207 L134.91,227.21 L140.07,207 C140.22545,206.516935 140.508811,206.084981 140.89,205.75 C141.343789,205.366352 141.926541,205.169718 142.52,205.2 L152.63,205.2 C153.286568,205.210832 153.814662,205.743364 153.82,206.4 L153.82,206.78 L143.55,241.4 C143.402054,241.884144 143.121454,242.317169 142.74,242.65 C142.283749,243.028289 141.701864,243.221061 141.11,243.19 L128.72,243.19 Z M161.21,243.19 C160.832547,243.1863 160.472338,243.03141 160.21,242.76 C159.937642,242.498317 159.782573,242.13769 159.78,241.76 L159.78,206.62 C159.782573,206.24231 159.937642,205.881683 160.21,205.62 C160.471315,205.345841 160.831327,205.187436 161.21,205.18 L189.09,205.18 C189.89516,205.195948 190.544052,205.84484 190.56,206.65 L190.56,214.31 C190.551466,214.68843 190.393238,215.048039 190.12,215.31 C189.858317,215.582358 189.49769,215.737427 189.12,215.74 L172.79,215.74 L172.79,219.16 L187.9,219.16 C188.278673,219.167436 188.638685,219.325841 188.9,219.6 C189.172358,219.861683 189.327427,220.22231 189.33,220.6 L189.33,227.67 C189.324549,228.474067 188.674067,229.124549 187.87,229.13 L172.79,229.13 L172.79,232.6 L189.53,232.6 C189.90769,232.602573 190.268317,232.757642 190.53,233.03 C190.80141,233.292338 190.9563,233.652547 190.96,234.03 L190.96,241.7 C190.954549,242.504067 190.304067,243.154549 189.5,243.16 L161.21,243.19 Z M199.58,243.19 C198.776459,243.179375 198.12611,242.533449 198.11,241.73 L198.11,206.62 C198.125948,205.81484 198.77484,205.165948 199.58,205.15 L208.17,205.15 C209.091862,205.103164 209.958894,205.589168 210.4,206.4 L219.58,221.46 L219.58,206.62 C219.582573,206.24231 219.737642,205.881683 220.01,205.62 C220.271961,205.346762 220.63157,205.188534 221.01,205.18 L230.84,205.18 C231.219416,205.184031 231.580693,205.342993 231.84,205.62 C232.115094,205.880658 232.27368,206.241081 232.28,206.62 L232.28,241.73 C232.27368,242.108919 232.115094,242.469342 231.84,242.73 C231.579665,243.004297 231.218171,243.15974 230.84,243.16 L222.3,243.16 C221.797472,243.195885 221.29744,243.062074 220.88,242.78 C220.564994,242.535421 220.291485,242.241651 220.07,241.91 L210.88,228.09 L210.88,241.73 C210.874549,242.534067 210.224067,243.184549 209.42,243.19 L199.58,243.19 Z M250.34,243.19 C249.536459,243.179375 248.88611,242.533449 248.87,241.73 L248.87,216.84 L239.87,216.84 C239.06484,216.824052 238.415948,216.17516 238.4,215.37 L238.4,206.62 C238.415948,205.81484 239.06484,205.165948 239.87,205.15 L271.71,205.15 C272.08843,205.158534 272.448039,205.316762 272.71,205.59 C272.982358,205.851683 273.137427,206.21231 273.14,206.59 L273.14,215.34 C273.137427,215.71769 272.982358,216.078317 272.71,216.34 C272.448039,216.613238 272.08843,216.771466 271.71,216.78 L262.71,216.78 L262.71,241.73 C262.704549,242.534067 262.054067,243.184549 261.25,243.19 L250.34,243.19 Z M280.66,243.19 C279.855933,243.184549 279.205451,242.534067 279.2,241.73 L279.2,206.62 C279.210625,205.816459 279.856551,205.16611 280.66,205.15 L291.75,205.15 C292.55516,205.165948 293.204052,205.81484 293.22,206.62 L293.22,241.73 C293.20389,242.533449 292.553541,243.179375 291.75,243.19 L280.66,243.19 Z M318.49,243.74 C313.05,243.74 308.716667,242.49 305.49,239.99 C302.263333,237.49 300.543333,233.846667 300.33,229.06 C300.33,228.06 300.27,226.51 300.27,224.34 C300.27,222.17 300.27,220.52 300.33,219.5 C300.361024,216.650373 301.219121,213.87111 302.8,211.5 C304.37458,209.223279 306.572422,207.449034 309.13,206.39 C315.144644,204.07339 321.805356,204.07339 327.82,206.39 C330.377578,207.449034 332.57542,209.223279 334.15,211.5 C335.72972,213.872247 336.590875,216.650168 336.63,219.5 C336.7,221.5 336.73,223.14 336.73,224.34 C336.73,225.54 336.73,227.11 336.63,229.06 C336.41,233.846667 334.686667,237.49 331.46,239.99 C328.233333,242.49 323.91,243.74 318.49,243.74 Z M318.49,233.14 C319.567036,233.201296 320.61998,232.805534 321.39,232.05 C322.170349,231.129057 322.570806,229.945564 322.51,228.74 C322.58,226.64 322.62,225.1 322.62,224.12 C322.62,223.14 322.62,221.57 322.51,219.61 C322.569913,218.398076 322.161779,217.209476 321.37,216.29 C319.72,214.85 317.26,214.85 315.61,216.29 C314.810956,217.205848 314.39866,218.396128 314.46,219.61 C314.46,220.61 314.41,222.09 314.41,224.12 C314.41,226.15 314.41,227.69 314.46,228.74 C314.399194,229.945564 314.799651,231.129057 315.58,232.05 C316.353097,232.807112 317.40975,233.202902 318.49,233.14 Z M345.22,243.14 C344.415933,243.134549 343.765451,242.484067 343.76,241.68 L343.76,206.62 C343.770625,205.816459 344.416551,205.16611 345.22,205.15 L353.81,205.15 C354.718301,205.116337 355.567078,205.600799 356,206.4 L365.18,221.46 L365.18,206.62 C365.195948,205.81484 365.84484,205.165948 366.65,205.15 L376.48,205.15 C376.85843,205.158534 377.218039,205.316762 377.48,205.59 C377.752358,205.851683 377.907427,206.21231 377.91,206.59 L377.91,241.73 C377.907427,242.10769 377.752358,242.468317 377.48,242.73 C377.217019,243.000477 376.857218,243.155191 376.48,243.16 L367.9,243.16 C367.400443,243.197565 366.903026,243.063509 366.49,242.78 C366.169578,242.538298 365.892336,242.244151 365.67,241.91 L356.49,228.06 L356.49,241.73 C356.47389,242.533449 355.823541,243.179375 355.02,243.19 L345.22,243.14 Z M401.96,243.69 C398.636705,243.775067 395.326718,243.239229 392.2,242.11 C389.851453,241.284059 387.775612,239.827511 386.2,237.9 C384.896237,236.244194 384.153689,234.216196 384.08,232.11 C384.079666,231.794467 384.205717,231.491943 384.43,231.27 C384.649278,231.041792 384.953556,230.91501 385.27,230.92 L395.6,230.92 C396.015174,230.903018 396.429652,230.967568 396.82,231.11 C397.227454,231.296472 397.604915,231.542495 397.94,231.84 C399.09125,232.701647 400.502981,233.142813 401.94,233.09 C402.956128,233.126685 403.970978,232.987989 404.94,232.68 C405.68,232.406667 406.05,232.036667 406.05,231.57 C406.05,230.92 405.56,230.42 404.59,230.07 C402.758102,229.577993 400.888244,229.240148 399,229.06 C389.666667,227.833333 385,223.833333 385,217.06 C384.969526,214.724938 385.70739,212.444588 387.1,210.57 C388.598603,208.580752 390.620474,207.047038 392.94,206.14 C395.685733,205.042137 398.623428,204.50492 401.58,204.56 C404.669937,204.489415 407.739039,205.082775 410.58,206.3 C412.881074,207.25551 414.91595,208.755073 416.51,210.67 C417.754258,212.113499 418.513359,213.911554 418.68,215.81 C418.683791,216.126213 418.557199,216.430033 418.33,216.65 C418.127878,216.874217 417.841823,217.004571 417.54,217.01 L406.63,217.01 C406.223772,217.02633 405.818571,216.958229 405.44,216.81 C405.072505,216.642434 404.734751,216.416139 404.44,216.14 C403.637668,215.46028 402.610925,215.103772 401.56,215.14 C399.82,215.14 398.95,215.64 398.95,216.66 C398.95,217.2 399.38,217.66 400.23,218.02 C401.768092,218.540457 403.362623,218.876148 404.98,219.02 C407.969323,219.328151 410.902863,220.041351 413.7,221.14 C415.663225,221.899511 417.343381,223.247827 418.51,225 C419.570032,226.816437 420.087124,228.898685 420,231 C420.038498,233.461323 419.210176,235.857791 417.66,237.77 C415.95608,239.81618 413.73103,241.364041 411.22,242.25 C408.263749,243.306724 405.13862,243.811761 402,243.74 L401.96,243.69 Z"/>
  </g>
</svg>
