<svg fill="none" height="150" viewBox="0 0 285 150" width="285" xmlns="http://www.w3.org/2000/svg"><path d="m0 0h284.899v150h-284.899z" fill="#36508a"/><path clip-rule="evenodd" d="m102.253 70.0545c-.198-.0049-.387-.0862-.526-.2268-.071-.069-.127-.1507-.166-.2413-.039-.0905-.06-.1881-.061-.2865v-13.1358h-4.7847c-.0982-.0007-.1955-.0211-.2863-.0601-.0903-.0389-.1718-.0957-.2402-.1668-.0714-.0683-.1284-.1501-.1683-.2407s-.0614-.1881-.0631-.287v-4.6337c.0043-.1997.0876-.3895.2314-.5278.0666-.0749.1473-.1356.238-.1783.0903-.0426.1885-.0663.2885-.0697h16.7757c.098.0013.196.0219.286.0609.09.0389.172.0953.241.1661.07.0686.126.1507.165.2412.039.0906.059.1879.061.2865v4.6178c-.002.2048-.083.4008-.229.5451-.145.1444-.341.2254-.545.2254h-4.737v13.1569c-.002.0984-.022.196-.061.2865-.039.0906-.095.1723-.166.2413-.139.1411-.328.2224-.526.2268zm15.96 0c-.205-.0027-.4-.0853-.544-.2303-.145-.145-.227-.3406-.23-.5454v-18.503c.004-.1997.088-.3895.232-.5278.068-.0711.149-.1278.24-.1668.09-.039.188-.0594.286-.0601h14.676c.098.0007.196.0211.286.0601s.172.0957.24.1668c.144.1383.227.3281.232.5278v4.0425c-.004.2045-.087.3995-.232.5441-.144.1447-.338.2277-.542.2317h-8.58v1.7942h7.948c.2.0048.389.0883.527.2325.071.0677.128.1499.167.2404.039.091.059.1885.059.2874v3.7256c-.001.0989-.021.1965-.06.287s-.095.1727-.166.2408c-.138.1442-.327.2277-.527.2325h-7.948v1.8046h8.806c.199.0048.389.0883.526.2325.071.0681.128.1503.167.2408.039.0906.059.1881.06.2866v4.0429c-.001.0984-.022.196-.061.2865s-.095.1723-.166.2413c-.139.1406-.328.2219-.526.2268zm20.197 0c-.204-.0027-.399-.0853-.544-.2303-.144-.145-.227-.3406-.229-.5454v-18.503c.004-.1997.087-.3895.231-.5278.068-.0716.15-.1286.24-.1677.091-.039.188-.0591.287-.0592h8.464c2.747 0 4.893.6175 6.437 1.8524.763.6089 1.37 1.3904 1.773 2.2803.402.8899.588 1.8628.543 2.8389.024 1.1489-.261 2.2828-.826 3.2826-.558.9489-1.334 1.7505-2.263 2.3377l3.521 6.5392c.053.0954.082.2022.084.3112 0 .1678-.066.3291-.185.4478-.118.1187-.279.1855-.446.1855h-5.849c-.29.0167-.576-.069-.81-.2426-.182-.1376-.325-.3191-.416-.5279l-2.464-5.4782h-1.168v5.4519c-.008.2013-.093.3916-.237.5318-.144.1406-.336.2201-.537.2228zm8.465-11.7002c.183.011.366-.0211.535-.0932.169-.0725.319-.1832.438-.3239.238-.2988.359-.6737.342-1.0554.008-.3942-.106-.7813-.326-1.1082-.112-.1559-.261-.2807-.435-.3628-.172-.0822-.363-.119-.554-.1069h-2.106v3.0399zm12.817 5.9055c-.099-.0005-.196-.0211-.286-.0602-.09-.0387-.172-.0954-.24-.1666-.072-.0686-.129-.1503-.169-.2408-.04-.0906-.061-.1882-.063-.287v-4.0689c.004-.2048.087-.3995.231-.544.144-.1446.339-.2277.543-.2321h9.28c.204.0044.398.0875.543.2321.144.1445.227.3392.231.544v4.0741c-.002.0989-.024.1965-.064.287-.039.0906-.096.1723-.168.2409-.068.0712-.15.1279-.24.1665-.09.0392-.188.0598-.286.0602zm-27.546 35.2205c.144.1437.339.2259.542.2286h5.743c.204-.0014.398-.0831.542-.2273.144-.1441.225-.3392.227-.5432v-13.1676h4.737c.199-.0044.389-.0879.526-.2321.072-.0685.128-.1503.167-.2408.039-.091.059-.1885.06-.287v-4.6177c-.001-.0989-.021-.1965-.06-.287-.039-.0906-.095-.1723-.167-.2409-.137-.1441-.327-.2276-.526-.232h-16.76c-.204.0039-.398.087-.542.2316-.145.1446-.227.3397-.232.5441v4.6177c.005.2044.087.3995.232.5441.144.1446.338.2277.542.2316h4.738v13.136c.004.204.087.3982.231.5419zm15.961.0013c.143.1442.338.2259.541.2273h5.838c.203-.0027.398-.0849.542-.2286.145-.1437.228-.3379.232-.5419v-18.5294c-.004-.2044-.087-.3995-.231-.5441s-.339-.2277-.543-.2316h-5.838c-.203.0039-.397.087-.54.232-.144.1446-.225.3398-.228.5437v18.5294c.001.204.083.3991.227.5432zm13.611-1.4617c1.699 1.3193 3.98 1.979 6.844 1.979 2.852 0 5.128-.6597 6.827-1.979 1.698-1.3194 2.606-3.2422 2.721-5.7684.053-1.0288.053-1.8577.053-2.491s-.016-1.4987-.053-2.5543c-.02-1.504-.474-2.9697-1.305-4.2218-.829-1.2016-1.986-2.1381-3.332-2.6967-3.166-1.2227-6.672-1.2227-9.838 0-1.347.5586-2.503 1.4951-3.332 2.6967-.832 1.2512-1.284 2.7183-1.301 4.2218-.031.5382-.031 1.409-.031 2.5535v.0008c0 .682.011 1.2479.02 1.7056v.0002.0002.0004.0004c.006.3104.011.571.011.7842.113 2.5262 1.018 4.449 2.716 5.7684zm7.667-3.741c-.262.0989-.543.142-.823.1262-.282.0162-.563-.0264-.827-.1257-.264-.0989-.504-.2523-.705-.4496-.411-.4861-.622-1.1106-.59-1.747-.026-.5542-.026-1.3668-.026-2.4383 0-.6289.009-1.1579.017-1.5943v-.0002-.0007-.0012c.005-.306.009-.5665.009-.7839-.032-.6403.185-1.2684.606-1.7518.42-.3674.958-.57 1.516-.57.557 0 1.096.2026 1.515.57.417.4852.632 1.1123.601 1.7518.057 1.0346.057 1.863.057 2.3803s-.021 1.3299-.057 2.4383c.032.6364-.179 1.2609-.59 1.747-.2.1969-.44.3502-.703.4491zm12.705 5.1764c.144.1441.339.2259.542.2272l5.159.0264c.203-.0027.398-.0849.542-.2286s.227-.3379.231-.5419v-7.2147l4.832 7.3097c.117.1762.263.3313.432.4588.217.1499.479.2206.742.2008h4.517c.098-.0013.195-.0219.285-.0611.091-.0386.173-.0953.241-.1661.071-.0681.128-.1503.167-.2408.038-.0906.059-.1881.059-.2866v-18.5452c0-.0989-.021-.1965-.059-.287-.039-.0906-.096-.1723-.167-.2409-.138-.1441-.327-.2276-.526-.232h-5.175c-.204.0039-.398.087-.542.2316-.145.1446-.228.3397-.232.5441v7.8317l-4.832-7.9477c-.111-.207-.279-.3784-.482-.4949-.204-.1165-.436-.1736-.67-.1648h-4.522c-.203.0039-.398.087-.541.232-.143.1446-.225.3398-.227.5437v18.5026c.001.2039.082.3995.226.5437zm25.271-.3165c1.646.596 3.388.8782 5.138.8338l.021.0263c1.652.0381 3.297-.2285 4.853-.7862 1.322-.4677 2.493-1.2847 3.39-2.3645.816-1.0091 1.252-2.2739 1.232-3.5726.046-1.1093-.226-2.208-.784-3.1666-.614-.9247-1.499-1.6362-2.532-2.037-1.473-.5802-3.017-.9564-4.59-1.119-.852-.076-1.691-.2531-2.501-.5278-.447-.1899-.673-.4325-.673-.7177 0-.5384.457-.8021 1.373-.8021.554-.0193 1.094.1688 1.516.5279.155.1454.333.265.527.3533.199.0782.412.1143.626.1055h5.743c.079-.0013.156-.0189.228-.0514.071-.033.135-.08.188-.1385.059-.0575.106-.1261.138-.2026.031-.076.047-.1582.046-.2408-.087-1.0016-.487-1.9505-1.142-2.7126-.839-1.0104-1.911-1.8019-3.122-2.306-1.495-.6425-3.111-.9559-4.737-.9185-1.557-.029-3.103.2545-4.548.8341-1.221.4787-2.285 1.2878-3.074 2.3377-.733.9893-1.121 2.1926-1.106 3.425 0 3.5748 2.457 5.6857 7.37 6.333.994.0954 1.978.2734 2.942.5332.511.1845.769.4487.769.7915 0 .2465-.195.4417-.584.5858-.51.1626-1.045.236-1.58.2163-.756.0281-1.499-.2048-2.105-.6597-.177-.1569-.375-.2866-.59-.385-.205-.0752-.424-.1095-.642-.1002h-5.438c-.082-.0013-.164.0145-.24.0461-.076.0317-.144.0787-.201.1385-.059.058-.105.127-.137.203s-.048.1578-.048.2404c.039 1.1115.43 2.1816 1.116 3.0554.829 1.0174 1.922 1.7861 3.158 2.222zm-139.5497.2847c.2391.2017.5462.3037.8578.2852h6.5223c.3113.0163.6177-.0852.8579-.2852.2008-.1754.3485-.4039.4265-.6597l5.4058-18.2706v-.2004c-.0013-.1665-.0675-.3261-.1845-.4447-.1171-.1183-.2758-.1859-.4419-.1886h-5.3216c-.3126-.0162-.6194.0879-.8583.2901-.2004.1767-.3498.4048-.4314.6597l-2.716 10.666-2.7165-10.666c-.0772-.2642-.2266-.5019-.4314-.6861-.2389-.203-.5457-.3068-.8581-.2901h-5.2902c-.0836-.0008-.1664.0159-.2434.0484-.0769.0325-.1464.0809-.204.1415-.0592.0576-.1061.1266-.1377.2026-.0317.0761-.0476.1582-.0466.2409v.2004l5.3797 18.2969c.0818.2549.231.483.4316.6597zm17.6745.2246c.0903.0391.1876.0598.2858.0606l14.8914-.0158c.203-.0013.398-.0831.542-.2272.144-.1442.225-.3393.226-.5432v-4.0482c0-.0984-.021-.196-.06-.2865-.039-.0906-.095-.1728-.166-.2409-.068-.0712-.15-.1279-.24-.167s-.188-.0593-.286-.0602h-8.8121v-1.8314h7.9382c.2029-.0013.3979-.083.5419-.2272.144-.1441.225-.3393.227-.5432v-3.7313c-.001-.0984-.022-.196-.061-.2865-.038-.091-.095-.1728-.166-.2409-.068-.0716-.15-.1292-.24-.1692-.09-.0395-.1875-.0611-.2861-.0633h-7.954v-1.805h8.5961c.098-.0004.196-.0211.286-.0597.091-.0391.172-.0958.241-.167.143-.1385.227-.3279.231-.5279v-4.0424c-.004-.2044-.087-.3995-.231-.5441s-.339-.2277-.543-.2316h-14.6754c-.0986.0017-.196.0233-.2863.0633s-.1718.0971-.2402.1687c-.071.0686-.1275.1503-.1661.2409-.039.0909-.0596.1881-.0601.287v18.5452c.0005.0985.0211.196.0601.2866.0386.0909.0951.1727.1661.2408.0684.0712.1504.1279.2407.1666zm19.9412-.1679c.144.1437.338.2259.542.2285h5.179c.204-.0013.398-.083.543-.2272.143-.1441.225-.3393.226-.5432v-7.1989l4.838 7.2938c.116.1749.26.3301.426.4589.22.1489.483.2197.747.2008h4.496c.098 0 .196-.0202.286-.0593.091-.0391.172-.0963.24-.1679.072-.0681.129-.1499.169-.2404s.061-.1881.063-.287v-18.5294c-.002-.0989-.023-.1969-.063-.2875-.04-.0905-.097-.1723-.169-.2404-.067-.072-.149-.1301-.24-.1701-.09-.04-.188-.061-.286-.0619h-5.175c-.199.0044-.388.0879-.526.232-.071.0686-.128.1503-.167.2409-.038.0909-.059.1881-.059.287v7.8317l-4.833-7.9478c-.113-.2096-.284-.3828-.491-.4997-.208-.1169-.445-.1723-.683-.16h-4.521c-.204.004-.399.0871-.543.2317s-.227.3397-.231.5441v18.5294c.004.2039.087.3982.232.5419zm-42.0813-29.6565c.1446.145.3398.2277.5442.2303h5.8375c.1986-.0035.3875-.0853.5265-.2268.0705-.0685.1267-.1507.1657-.2413.0385-.0905.0592-.1881.0605-.2865v-18.524c-.0013-.0986-.022-.1959-.0605-.2865-.039-.0906-.0952-.1726-.1657-.2413-.0684-.0711-.1499-.1279-.2402-.1668-.0903-.039-.1877-.0595-.2863-.0601h-5.8533c-.0984.0006-.1957.0211-.2861.0601-.0904.0389-.1721.0957-.2403.1668-.1439.1383-.2271.3281-.2316.5278v18.5029c.0027.2048.0851.4008.2296.5454zm11.6437 0c.1447.145.3398.2277.544.2303h5.1954c.1982-.004.3871-.0857.5265-.2268.0706-.0685.1267-.1507.1657-.2413.0386-.0905.0596-.1881.0605-.2865v-7.1985l4.8377 7.2934c.1148.1763.259.3318.4265.4593.2187.1459.4795.2162.7421.2004h4.5217c.195-.0101.3796-.0936.5168-.2329.1372-.1398.2178-.3257.2253-.5217v-18.524c-.0044-.1997-.0877-.3895-.2315-.5278-.0683-.0711-.1499-.1279-.2406-.1668-.0903-.039-.1876-.0595-.2858-.0601h-5.1796c-.0987.001-.1955.0215-.2863.0605-.0903.0389-.1718.0955-.2402.1664-.0706.0687-.1267.1507-.1657.2413s-.0596.1879-.0605.2865v7.8267l-4.8535-7.9217c-.1117-.2101-.2814-.3838-.4883-.5007s-.4432-.172-.6803-.159h-4.5217c-.0981.0006-.1955.0211-.2862.0601-.0903.0389-.1718.0957-.2402.1668-.1438.1383-.2271.3281-.2315.5278v18.5029c.0027.2048.0851.4008.2297.5454z" fill="#f9f9fa" fill-rule="evenodd"/></svg>