<svg width="283" height="149" viewBox="0 0 283 149" fill="none" xmlns="http://www.w3.org/2000/svg">
<rect width="283" height="149" rx="3" fill="#36508A"/>
<path d="M130.305 104.144C130.061 104.141 129.827 104.042 129.654 103.869C129.48 103.697 129.38 103.463 129.375 103.218V87.4255H123.68C123.434 87.4208 123.201 87.3209 123.028 87.1471C122.854 86.9733 122.755 86.7387 122.749 86.493V80.9414C122.755 80.6957 122.854 80.4611 123.028 80.2873C123.201 80.1134 123.434 80.0136 123.68 80.0088H143.829C144.069 80.0141 144.296 80.1145 144.462 80.2878C144.547 80.3702 144.615 80.4685 144.662 80.5773C144.709 80.6862 144.733 80.8035 144.734 80.9224V86.4739C144.733 86.5923 144.709 86.7096 144.662 86.819C144.615 86.9278 144.547 87.0261 144.462 87.1085C144.296 87.2818 144.069 87.3822 143.829 87.3875H138.134V103.218C138.132 103.463 138.034 103.698 137.861 103.871C137.688 104.044 137.454 104.143 137.21 104.144H130.305ZM149.493 104.144C149.249 104.143 149.015 104.044 148.842 103.871C148.669 103.698 148.571 103.463 148.569 103.218V80.9414C148.572 80.6962 148.67 80.4616 148.843 80.2878C149.015 80.1134 149.249 80.0136 149.493 80.0088H156.511C156.756 80.0136 156.99 80.1134 157.164 80.2873C157.337 80.4611 157.437 80.6957 157.441 80.9414V103.218C157.437 103.463 157.337 103.697 157.163 103.869C156.99 104.042 156.756 104.141 156.511 104.144H149.493ZM173.433 104.493C169.99 104.493 167.248 103.7 165.206 102.114C163.165 100.527 162.076 98.2159 161.941 95.1788C161.941 94.5442 161.903 93.5609 161.903 92.184C161.903 90.8076 161.903 89.7604 161.941 89.1131C161.96 87.3056 162.504 85.5419 163.504 84.0376C164.5 82.5931 165.891 81.4671 167.51 80.7956C171.316 79.3256 175.531 79.3256 179.338 80.7956C180.956 81.4671 182.347 82.5931 183.343 84.0376C184.343 85.543 184.888 87.3051 184.913 89.1131C184.957 90.3823 184.976 91.4226 184.976 92.184C184.976 92.9454 184.976 93.9419 184.913 95.1788C184.774 98.2159 183.683 100.527 181.641 102.114C179.599 103.7 176.863 104.493 173.433 104.493ZM173.433 97.7678C173.77 97.7868 174.108 97.7351 174.423 97.6162C174.74 97.4973 175.027 97.3129 175.268 97.0762C175.762 96.4918 176.015 95.741 175.977 94.9759C176.021 93.6434 176.047 92.6664 176.047 92.0445C176.047 91.4226 176.047 90.4267 175.977 89.1829C176.015 88.4141 175.757 87.6601 175.256 87.0768C174.751 86.6351 174.103 86.3915 173.433 86.3915C172.763 86.3915 172.116 86.6351 171.611 87.0768C171.105 87.658 170.844 88.4131 170.883 89.1829C170.883 89.8175 170.851 90.7569 170.851 92.0445C170.851 93.3327 170.851 94.3096 170.883 94.9759C170.845 95.741 171.097 96.4918 171.592 97.0762C171.834 97.3134 172.123 97.4978 172.439 97.6167C172.756 97.7361 173.095 97.7874 173.433 97.7678V97.7678ZM190.349 104.112C190.104 104.111 189.87 104.013 189.697 103.839C189.524 103.666 189.427 103.431 189.425 103.186V80.9414C189.428 80.6962 189.526 80.4616 189.699 80.2878C189.871 80.1134 190.104 80.0136 190.349 80.0088H195.785C196.066 79.9983 196.346 80.0669 196.591 80.207C196.835 80.347 197.037 80.553 197.171 80.8019L202.98 90.3569V80.9414C202.985 80.6957 203.084 80.4611 203.258 80.2873C203.431 80.1134 203.665 80.0136 203.91 80.0088H210.131C210.371 80.0141 210.598 80.1145 210.764 80.2878C210.849 80.3702 210.917 80.4685 210.964 80.5773C211.01 80.6862 211.035 80.8035 211.036 80.9224V103.218C211.035 103.336 211.01 103.454 210.964 103.562C210.917 103.671 210.849 103.77 210.764 103.852C210.682 103.937 210.583 104.005 210.475 104.052C210.366 104.099 210.25 104.124 210.131 104.125H204.701C204.385 104.149 204.07 104.064 203.809 103.884C203.606 103.73 203.431 103.544 203.29 103.332L197.481 94.5442V103.218C197.476 103.463 197.376 103.697 197.203 103.869C197.029 104.042 196.795 104.141 196.551 104.144L190.349 104.112ZM226.256 104.461C224.152 104.515 222.058 104.175 220.079 103.459C218.593 102.935 217.279 102.011 216.282 100.787C215.457 99.737 214.987 98.4505 214.94 97.1142C214.94 97.0149 214.96 96.9166 214.998 96.8252C215.036 96.7338 215.092 96.6508 215.162 96.5811C215.231 96.5092 215.313 96.4527 215.405 96.4147C215.496 96.3766 215.594 96.3576 215.693 96.3592H222.231C222.493 96.3481 222.756 96.3893 223.003 96.4797C223.261 96.598 223.499 96.7539 223.712 96.9425C224.44 97.4894 225.333 97.7694 226.243 97.7356C226.886 97.7594 227.528 97.6711 228.142 97.4756C228.61 97.3023 228.844 97.0677 228.844 96.7713C228.844 96.3592 228.534 96.0416 227.92 95.8197C226.76 95.5075 225.577 95.2935 224.383 95.1788C218.476 94.4005 215.523 91.8628 215.523 87.565C215.504 86.0835 215.971 84.6368 216.852 83.4474C217.8 82.1852 219.079 81.2124 220.548 80.6371C222.285 79.9401 224.144 79.5993 226.015 79.6342C227.97 79.5893 229.913 79.966 231.711 80.7385C233.167 81.3445 234.455 82.2961 235.463 83.5108C236.251 84.427 236.731 85.5678 236.837 86.7719C236.838 86.8713 236.819 86.9701 236.781 87.0615C236.742 87.1534 236.686 87.2358 236.615 87.3051C236.552 87.3753 236.475 87.4319 236.389 87.4715C236.303 87.5106 236.21 87.5317 236.115 87.5333H229.211C228.954 87.5439 228.698 87.5006 228.458 87.4065C228.226 87.3003 228.012 87.1566 227.825 86.9817C227.318 86.55 226.668 86.3239 226.003 86.3471C224.901 86.3471 224.351 86.6641 224.351 87.3114C224.351 87.6543 224.623 87.946 225.161 88.1742C226.134 88.5045 227.143 88.7174 228.167 88.8088C230.058 89.0043 231.915 89.4566 233.685 90.154C234.927 90.6359 235.991 91.4913 236.729 92.603C237.4 93.7554 237.727 95.0763 237.672 96.4099C237.696 97.9712 237.172 99.4919 236.191 100.705C235.113 102.003 233.705 102.985 232.116 103.548C230.245 104.218 228.267 104.538 226.281 104.493L226.256 104.461Z" fill="#F9F9FA"/>
<path d="M53.3401 104.144C52.9654 104.166 52.5963 104.044 52.3088 103.801C52.0676 103.589 51.8882 103.315 51.7898 103.008L45.3223 81.0111V80.7702C45.3211 80.6709 45.3402 80.5721 45.3782 80.4806C45.4163 80.3892 45.4727 80.3063 45.5438 80.2371C45.6131 80.1642 45.6966 80.106 45.7891 80.0669C45.8817 80.0278 45.9812 80.0078 46.0817 80.0088H52.4417C52.8173 79.9887 53.1862 80.1134 53.4734 80.3575C53.7195 80.5789 53.8992 80.8648 53.992 81.1823L57.2578 94.0053L60.5231 81.1823C60.6211 80.8759 60.8008 80.6016 61.0417 80.3892C61.3289 80.1462 61.6978 80.021 62.0735 80.0405H68.4713C68.6711 80.0437 68.8619 80.1251 69.0026 80.2672C69.1433 80.4098 69.2229 80.6016 69.2244 80.8019V81.0428L62.7254 103.008C62.6316 103.316 62.454 103.59 62.2127 103.801C61.9239 104.042 61.5555 104.164 61.1813 104.144H53.3401ZM73.9011 104.144C73.783 104.143 73.666 104.118 73.5574 104.071C73.4489 104.025 73.3503 103.957 73.2681 103.871C73.1827 103.789 73.1148 103.691 73.0684 103.581C73.0215 103.473 72.9967 103.355 72.9962 103.237V80.9414C72.9967 80.8225 73.0215 80.7057 73.0684 80.5964C73.1148 80.4875 73.1827 80.3892 73.2681 80.3068C73.3503 80.2207 73.4484 80.152 73.5569 80.1039C73.6655 80.0558 73.7825 80.03 73.9011 80.0278H91.5445C91.7896 80.0326 92.0236 80.1325 92.197 80.3063C92.3704 80.4801 92.47 80.7147 92.4747 80.9604V85.8203C92.4694 86.0608 92.3693 86.2885 92.1964 86.4549C92.1142 86.5405 92.0162 86.6087 91.9071 86.6557C91.7986 86.7022 91.6816 86.727 91.5635 86.7275H81.229V88.8976H90.7915C90.91 88.9002 91.027 88.9261 91.1356 88.9736C91.2442 89.0217 91.3422 89.0909 91.4244 89.1771C91.5092 89.259 91.5777 89.3572 91.6241 89.4666C91.671 89.5755 91.6953 89.6928 91.6963 89.8111V94.297C91.6947 94.5421 91.5967 94.7767 91.4239 94.95C91.251 95.1233 91.017 95.2216 90.7725 95.2232H81.229V97.4249H91.8228C91.9414 97.426 92.0584 97.4503 92.1669 97.4973C92.2755 97.5443 92.3735 97.6125 92.4557 97.6981C92.5406 97.78 92.6086 97.8788 92.6555 97.9876C92.7018 98.0965 92.7266 98.2138 92.7277 98.3321V103.199C92.7261 103.444 92.6281 103.679 92.4552 103.852C92.2823 104.025 92.0484 104.124 91.8038 104.125L73.9011 104.144ZM98.1827 104.144C97.9381 104.141 97.7047 104.042 97.5308 103.869C97.3574 103.697 97.2572 103.463 97.2525 103.218V80.9414C97.2572 80.6957 97.3568 80.4611 97.5302 80.2873C97.7036 80.1134 97.9376 80.0136 98.1827 80.0088H103.619C103.905 79.994 104.189 80.0606 104.439 80.2011C104.688 80.3417 104.893 80.5499 105.03 80.8019L110.84 90.3569V80.9414C110.84 80.8225 110.865 80.7057 110.911 80.5964C110.958 80.4875 111.026 80.3892 111.112 80.3068C111.278 80.1335 111.505 80.0331 111.745 80.0278H117.965C118.084 80.0289 118.201 80.0543 118.31 80.1023C118.419 80.1504 118.517 80.2202 118.598 80.3068C118.684 80.3887 118.753 80.487 118.801 80.5958C118.849 80.7047 118.874 80.8225 118.876 80.9414V103.218C118.874 103.337 118.849 103.454 118.801 103.563C118.753 103.672 118.684 103.77 118.598 103.852C118.516 103.938 118.418 104.007 118.309 104.054C118.201 104.101 118.084 104.125 117.965 104.125H112.561C112.243 104.148 111.926 104.063 111.662 103.884C111.463 103.729 111.29 103.542 111.15 103.332L105.334 94.5633V103.218C105.332 103.463 105.234 103.698 105.062 103.871C104.888 104.044 104.654 104.143 104.41 104.144H98.1827Z" fill="#F9F9FA"/>
<path d="M93.7153 68.493C93.4771 68.4872 93.2505 68.3895 93.0824 68.2204C92.9975 68.1375 92.9301 68.0392 92.8832 67.9303C92.8362 67.8215 92.8115 67.7042 92.8099 67.5858V51.7937H87.0577C86.9396 51.7929 86.8226 51.7683 86.7135 51.7215C86.605 51.6747 86.507 51.6064 86.4247 51.5209C86.3388 51.4388 86.2703 51.3405 86.2224 51.2316C86.1744 51.1227 86.1486 51.0054 86.1465 50.8864V45.3157C86.1518 45.0756 86.2519 44.8475 86.4247 44.6813C86.5048 44.5911 86.6018 44.5182 86.7109 44.4669C86.8195 44.4157 86.9375 44.3871 87.0577 44.3831H107.226C107.344 44.3846 107.461 44.4094 107.57 44.4562C107.678 44.503 107.776 44.5709 107.859 44.6559C107.944 44.7385 108.011 44.8371 108.058 44.9459C108.105 45.0548 108.129 45.1719 108.131 45.2904V50.842C108.129 51.0883 108.031 51.3239 107.856 51.4974C107.682 51.671 107.446 51.7683 107.201 51.7683H101.505V67.5858C101.504 67.7042 101.479 67.8215 101.432 67.9303C101.386 68.0392 101.318 68.1375 101.233 68.2204C101.065 68.39 100.839 68.4878 100.6 68.493H93.7153ZM112.902 68.493C112.657 68.4899 112.422 68.3905 112.248 68.2162C112.074 68.0418 111.975 67.8067 111.972 67.5605V45.3157C111.977 45.0756 112.078 44.8475 112.251 44.6813C112.333 44.5957 112.431 44.5275 112.54 44.4806C112.648 44.4338 112.765 44.4093 112.883 44.4084H130.527C130.645 44.4093 130.762 44.4338 130.871 44.4806C130.98 44.5275 131.078 44.5957 131.16 44.6813C131.333 44.8475 131.433 45.0756 131.438 45.3157V50.1758C131.433 50.4216 131.334 50.6561 131.16 50.8299C130.987 51.0038 130.753 51.1036 130.508 51.1084H120.193V53.2655H129.749C129.988 53.2713 130.215 53.3717 130.381 53.545C130.467 53.6263 130.536 53.7251 130.583 53.834C130.629 53.9434 130.653 54.0607 130.653 54.1795V58.6585C130.653 58.7774 130.628 58.8947 130.582 59.0035C130.535 59.1124 130.467 59.2112 130.381 59.2931C130.215 59.4664 129.988 59.5668 129.749 59.5726H120.193V61.7421H130.78C131.02 61.7479 131.247 61.8483 131.413 62.0216C131.498 62.1035 131.566 62.2023 131.613 62.3111C131.66 62.42 131.684 62.5373 131.685 62.6556V67.5161C131.684 67.6344 131.659 67.7517 131.612 67.8606C131.565 67.9694 131.498 68.0677 131.413 68.1507C131.245 68.3197 131.018 68.4175 130.78 68.4233L112.902 68.493ZM137.185 68.493C136.938 68.4899 136.704 68.3905 136.53 68.2162C136.357 68.0418 136.258 67.8067 136.254 67.5605V45.3157C136.26 45.0756 136.36 44.8475 136.533 44.6813C136.614 44.5951 136.712 44.5266 136.821 44.4796C136.93 44.4327 137.047 44.4085 137.166 44.4084H147.341C150.645 44.4084 153.224 45.1508 155.081 46.6354C155.997 47.3675 156.727 48.307 157.212 49.3769C157.695 50.4467 157.919 51.6163 157.865 52.7898C157.894 54.1711 157.551 55.5343 156.872 56.7363C156.201 57.8771 155.268 58.8408 154.151 59.5467L158.384 67.4083C158.447 67.523 158.482 67.6514 158.485 67.7824C158.485 67.9842 158.405 68.1781 158.263 68.3208C158.121 68.4635 157.927 68.5438 157.726 68.5438H150.695C150.346 68.5639 150.002 68.4608 149.721 68.2521C149.503 68.0867 149.33 67.8685 149.221 67.6175L146.259 61.0314H144.854V67.5858C144.844 67.8278 144.743 68.0566 144.569 68.2252C144.397 68.3942 144.166 68.4899 143.924 68.493H137.185ZM147.36 54.4268C147.581 54.44 147.801 54.4015 148.004 54.3148C148.208 54.2276 148.388 54.0945 148.531 53.9254C148.816 53.5661 148.962 53.1154 148.942 52.6566C148.951 52.1826 148.814 51.7172 148.55 51.3242C148.415 51.1368 148.236 50.9868 148.028 50.888C147.82 50.7893 147.59 50.745 147.36 50.7595H144.829V54.4141L147.36 54.4268ZM162.77 61.5265C162.651 61.526 162.534 61.5011 162.426 61.4541C162.317 61.4076 162.219 61.3395 162.137 61.2539C162.051 61.1714 161.982 61.0732 161.935 60.9643C161.887 60.8555 161.861 60.7382 161.859 60.6193V55.7277C161.863 55.4814 161.963 55.2474 162.136 55.0735C162.31 54.8997 162.543 54.7998 162.789 54.7946H173.946C174.191 54.7998 174.425 54.8997 174.598 55.0735C174.771 55.2474 174.871 55.4814 174.876 55.7277V60.6256C174.874 60.7445 174.848 60.8618 174.8 60.9707C174.752 61.0795 174.683 61.1778 174.597 61.2602C174.515 61.3458 174.417 61.414 174.309 61.4605C174.2 61.5075 174.083 61.5323 173.964 61.5328L162.77 61.5265Z" fill="#F9F9FA"/>
<path d="M47.5941 68.4924C47.3484 68.4892 47.1137 68.3899 46.9399 68.2156C46.7662 68.0417 46.6671 67.8061 46.6638 67.5598V45.3152C46.6692 45.0751 46.7693 44.8469 46.9423 44.6807C47.0242 44.5952 47.1225 44.527 47.2311 44.4801C47.3399 44.4332 47.4568 44.4087 47.5751 44.4079H54.6121C54.7307 44.4087 54.8477 44.4332 54.9562 44.4801C55.0648 44.527 55.1628 44.5952 55.245 44.6807C55.3299 44.7633 55.3973 44.8619 55.4443 44.9708C55.4906 45.0797 55.5154 45.1967 55.517 45.3152V67.5852C55.5154 67.7036 55.4906 67.8209 55.4443 67.9297C55.3973 68.0385 55.3299 68.1374 55.245 68.2198C55.078 68.3899 54.8508 68.4882 54.6121 68.4924H47.5941ZM61.5923 68.4924C61.3467 68.4892 61.1122 68.3899 60.9382 68.2156C60.7643 68.0417 60.6653 67.8061 60.6621 67.5598V45.3152C60.6674 45.0751 60.7675 44.8469 60.9404 44.6807C61.0226 44.5952 61.1206 44.527 61.2292 44.4801C61.3382 44.4332 61.4552 44.4087 61.5733 44.4079H67.0093C67.2944 44.3922 67.5785 44.4586 67.8272 44.5991C68.076 44.7396 68.2799 44.9484 68.4143 45.201L74.2493 54.7247V45.3152C74.2503 45.1967 74.2751 45.0797 74.322 44.9708C74.3689 44.8619 74.4364 44.7633 74.5212 44.6807C74.6034 44.5955 74.7014 44.5275 74.81 44.4806C74.9191 44.4338 75.0355 44.409 75.1541 44.4079H81.3812C81.4992 44.4087 81.6162 44.4332 81.7248 44.4801C81.8339 44.527 81.9319 44.5952 82.0141 44.6807C82.187 44.8469 82.2871 45.0751 82.2924 45.3152V67.5852C82.2834 67.8209 82.1864 68.0444 82.0215 68.2124C81.8565 68.3799 81.6347 68.4803 81.4002 68.4924H75.9641C75.6485 68.5114 75.3349 68.4269 75.0719 68.2515C74.8706 68.0983 74.6972 67.9112 74.5591 67.6993L68.7431 58.9311V67.5852C68.7421 67.7036 68.7168 67.8209 68.6704 67.9297C68.6235 68.0385 68.5561 68.1374 68.4712 68.2198C68.3036 68.3894 68.0765 68.4877 67.8383 68.4924H61.5923Z" fill="#F9F9FA"/>
</svg>
