<svg xmlns="http://www.w3.org/2000/svg" viewBox="0 0 304 143.28"><defs><style>.cls-1{fill:#eee;}.cls-2{fill:#fff;}</style></defs><title>interventions_1</title><g id="Layer_2" data-name="Layer 2"><g id="Layer_1-2" data-name="Layer 1"><path class="cls-1" d="M14.87,122.11l-2.72,10a11.44,11.44,0,0,0-.52,2.82c0,.45.14,1,.83,1,.93,0,1.72-1.45,2.61-3.82l1.17.38c-1.44,4.3-2.92,5.47-4.5,5.47-1.31,0-2.38-.9-2.38-2.79a7,7,0,0,1,.07-.86l-.24-.1C7.78,136.64,6,138,4.1,138c-2.41,0-4.1-2-4.1-5.2a12.14,12.14,0,0,1,3.37-8.43,7.34,7.34,0,0,1,4.92-2.44c1.69,0,2.86,1.06,3.21,3l.75-2.79ZM5.06,136c3,0,5.71-5.92,5.71-9.12,0-1.62-.65-3.41-2.37-3.41-3.13,0-5.68,5.48-5.68,9.12C2.72,134.81,3.61,136,5.06,136Zm29.84-3c0-2.23-1.69-3.16-3.79-4.09s-3.13-1.69-3.13-3c0-1.65,1.31-2.69,3.24-2.69a4.35,4.35,0,0,1,2.75.86,2.23,2.23,0,0,0-.86,1.69,1.42,1.42,0,0,0,1.51,1.48,1.89,1.89,0,0,0,1.72-2.1c0-2-2.37-3.23-5.12-3.23s-5.75,1.68-5.75,4.92c0,2.27,1.93,3.2,3.65,4,2.37,1.07,3.27,1.69,3.27,3,0,1.76-1.35,2.83-3.34,2.83a4.67,4.67,0,0,1-3.24-1.14,2.34,2.34,0,0,0,.86-1.79,1.46,1.46,0,0,0-1.48-1.55,2,2,0,0,0-1.86,2.17c0,2.37,3.14,3.65,5.72,3.65C32.11,138,34.9,136.22,34.9,133Zm12-11c-4.65,0-8.81,5-8.81,9.91,0,3.61,2.2,6.16,5.57,6.16,2.93,0,4.78-2,6.23-4.68l-1.1-.66c-1.48,2.62-3.06,3.62-4.61,3.62-1.86,0-3.34-1.41-3.34-4.41,0-3.2,2.24-8.57,6-8.57a2.79,2.79,0,0,1,2.1.83,2.71,2.71,0,0,0-1.14,2.1,1.5,1.5,0,0,0,1.58,1.51c1.17,0,1.86-1.24,1.86-2.41C51.21,123.32,49.32,121.91,46.88,121.91Zm14.45,0c3.61,0,5.71,2.68,5.71,6.36,0,5.16-3.82,9.71-8.26,9.71-3.64,0-5.71-2.69-5.71-6.37C53.07,126.45,56.89,121.91,61.33,121.91Zm3,5.23c0-2.69-1.28-3.86-3-3.86-3.51,0-5.57,5.65-5.57,9.43,0,2.69,1.27,3.86,3,3.86C62.26,136.57,64.33,130.92,64.33,127.14ZM82.43,138c1.48,0,3-1.17,4.44-5.47l-1.17-.38c-.9,2.37-1.65,3.82-2.62,3.82-.65,0-.82-.55-.82-1a11.58,11.58,0,0,1,.51-2.82l2.65-10H82.64c-2.76,10.15-6,13.7-7.92,13.7-.9,0-1.21-.62-1.21-1.48,0-2.65,2.41-6.33,2.41-9.4,0-2-1-3-2.41-3-2,0-3.3,2-4.74,5.09l1.17.52c1.17-2.31,1.89-3.62,2.75-3.62.52,0,.65.48.65.9,0,2.3-2.51,6.85-2.51,9.74,0,2.1,1.14,3.44,2.86,3.44,2.34,0,4.64-2.38,6.85-7l.24.1a15.85,15.85,0,0,0-.76,4C80,137.12,81,138,82.43,138Zm16.93-14,.42-1.51H95.06l1.27-4.65-2.75.34-1.17,4.31H89.28L88.9,124H92l-2.1,7.64a16.62,16.62,0,0,0-.62,3.37,2.86,2.86,0,0,0,3.2,3c1.48,0,3.69-.9,5.51-5.75l-1.2-.38c-1,2.24-2.14,4-3.55,4A1.18,1.18,0,0,1,92,134.54a10.76,10.76,0,0,1,.44-2.45L94.68,124Zm15.9-2.06c-4.64,0-8.81,5-8.81,9.91,0,3.61,2.2,6.16,5.58,6.16,2.92,0,4.78-2,6.23-4.68l-1.1-.66c-1.48,2.62-3.07,3.62-4.62,3.62-1.85,0-3.33-1.41-3.33-4.41,0-3.2,2.23-8.57,6-8.57a2.77,2.77,0,0,1,2.1.83,2.73,2.73,0,0,0-1.13,2.1,1.5,1.5,0,0,0,1.58,1.51c1.17,0,1.86-1.24,1.86-2.41C119.6,123.32,117.71,121.91,115.26,121.91Zm14.46,0c3.61,0,5.71,2.68,5.71,6.36,0,5.16-3.82,9.71-8.26,9.71-3.65,0-5.71-2.69-5.71-6.37C121.46,126.45,125.28,121.91,129.72,121.91Zm3,5.23c0-2.69-1.27-3.86-3-3.86-3.51,0-5.58,5.65-5.58,9.43,0,2.69,1.28,3.86,3,3.86C130.65,136.57,132.71,130.92,132.71,127.14Zm18,8c0,.41.14.86.72.86.83,0,1.69-1.45,2.55-3.82l1.2.38c-1.48,4.3-3,5.47-4.51,5.47s-2.51-1-2.51-3c0-3.2,2.44-6.71,2.44-9.5,0-.76-.31-1.41-1.2-1.41-2,0-5.23,3.65-8,13.63h-2.79l2.89-10.84c.73-2.65.38-3.17-.27-3.17-1,0-1.9,1.72-3,3.89l-1.17-.52c1.41-3.2,2.82-5.06,4.71-5.06,1.38,0,2.17,1,2.17,2.83a14,14,0,0,1-.76,4l.24.11c2.21-4.58,4.58-7,6.92-7,1.72,0,2.86,1.37,2.86,3.44C153.26,128.27,150.68,132.68,150.68,135.09Zm4.3,8.19c-1.62,0-2.34-.9-2.34-1.89a1.83,1.83,0,0,1,1.75-1.93,1.31,1.31,0,0,1,1.38,1.34,2.06,2.06,0,0,1-.45,1.31c1.17,0,1.72-.86,2.83-6.06L160.69,124h-3.37l.41-1.51H161c1.21-5.89,3.89-8.57,7.13-8.61,2.3,0,3.44,1.24,3.44,2.55a2.23,2.23,0,0,1-1.93,2.44,1.37,1.37,0,0,1-1.44-1.51,2.56,2.56,0,0,1,.82-1.86,1.63,1.63,0,0,0-1-.28c-2.37,0-3.3,2.28-4.13,6.1l-.27,1.17H168l-.41,1.51h-4.27L161,135.09C159.66,141.35,157.39,143.28,155,143.28Zm26.19-18.21c0,3-3.27,5.51-10.36,6.27a4.86,4.86,0,0,0-.07,1c0,2.79,1.35,4,3.24,4s3.58-1.27,5.09-3.48l1.07.69c-1.65,2.51-3.68,4.41-6.88,4.41s-5.27-2.2-5.27-5.78c0-5.27,4.82-10.29,9.36-10.29C179.83,121.91,181.17,123.28,181.17,125.07Zm-4.34-1.79c-2.75,0-5,3.58-5.78,6.78,5.85-.79,7.64-2.79,7.64-4.92A1.74,1.74,0,0,0,176.83,123.28ZM184,137.67h2.79c2.23-8.37,5.16-12.63,6.57-13.29-.1,1.24.52,2,1.45,2a2.23,2.23,0,0,0,1.89-2.44,1.89,1.89,0,0,0-2-2c-2.07,0-3.75,2.61-5.85,7l-.28-.11a14.37,14.37,0,0,0,.76-4c0-1.83-.79-2.83-2.17-2.83-1.89,0-3.3,1.86-4.72,5.06l1.17.52c1.07-2.17,2-3.89,3-3.89.66,0,1,.52.28,3.17Zm26.74-12.6c0,3-3.27,5.51-10.36,6.27a4.86,4.86,0,0,0-.07,1c0,2.79,1.35,4,3.24,4s3.58-1.27,5.09-3.48l1.07.69C208,136.08,206,138,202.79,138s-5.27-2.2-5.27-5.78c0-5.27,4.82-10.29,9.36-10.29C209.36,121.91,210.7,123.28,210.7,125.07Zm-4.34-1.79c-2.75,0-5,3.58-5.78,6.78,5.85-.79,7.64-2.79,7.64-4.92A1.74,1.74,0,0,0,206.36,123.28Zm19.17,11.81c0-2.41,2.59-6.82,2.59-9.74,0-2.07-1.14-3.44-2.86-3.44-2.34,0-4.72,2.44-6.92,7l-.24-.11a14.37,14.37,0,0,0,.76-4c0-1.83-.79-2.83-2.17-2.83-1.89,0-3.3,1.86-4.72,5.06l1.17.52c1.07-2.17,2-3.89,3-3.89.66,0,1,.52.28,3.17l-2.89,10.84h2.79c2.72-10,6-13.63,7.95-13.63.89,0,1.2.65,1.2,1.41,0,2.79-2.41,6.3-2.44,9.5,0,2,1.1,3,2.51,3s3-1.17,4.51-5.47l-1.21-.38c-.86,2.37-1.72,3.82-2.54,3.82C225.67,136,225.53,135.5,225.53,135.09Zm15-13.18c-4.65,0-8.81,5-8.81,9.91,0,3.61,2.2,6.16,5.58,6.16,2.92,0,4.78-2,6.23-4.68l-1.11-.66c-1.48,2.62-3.06,3.62-4.61,3.62-1.86,0-3.34-1.41-3.34-4.41,0-3.2,2.24-8.57,6-8.57a2.79,2.79,0,0,1,2.1.83,2.7,2.7,0,0,0-1.13,2.1,1.5,1.5,0,0,0,1.58,1.51c1.17,0,1.86-1.24,1.86-2.41C244.88,123.32,243,121.91,240.54,121.91Zm19.27,3.16c0,3-3.27,5.51-10.36,6.27a5.65,5.65,0,0,0-.06,1c0,2.79,1.34,4,3.23,4s3.58-1.27,5.09-3.48l1.07.69c-1.65,2.51-3.68,4.41-6.88,4.41s-5.27-2.2-5.27-5.78c0-5.27,4.82-10.29,9.36-10.29C258.47,121.91,259.81,123.28,259.81,125.07Zm-4.33-1.79c-2.76,0-5,3.58-5.78,6.78,5.85-.79,7.64-2.79,7.64-4.92A1.74,1.74,0,0,0,255.48,123.28Z"/><path class="cls-2" d="M3.64,38a1.49,1.49,0,0,1-1.47-1.47V1.47a1.43,1.43,0,0,1,.44-1,1.4,1.4,0,0,1,1-.43H14.73a1.4,1.4,0,0,1,1,.43,1.42,1.42,0,0,1,.43,1v35.1a1.42,1.42,0,0,1-.43,1,1.44,1.44,0,0,1-1,.43Zm22.12,0a1.49,1.49,0,0,1-1.47-1.47V1.47a1.43,1.43,0,0,1,.44-1,1.4,1.4,0,0,1,1-.43h8.59a2.37,2.37,0,0,1,2.22,1.25L45.76,16.3V1.47a1.42,1.42,0,0,1,.43-1,1.41,1.41,0,0,1,1-.43h9.84a1.4,1.4,0,0,1,1,.43,1.43,1.43,0,0,1,.44,1v35.1A1.49,1.49,0,0,1,57.06,38H48.47a2.3,2.3,0,0,1-1.41-.38,3.51,3.51,0,0,1-.81-.87L37.06,22.93V36.57a1.42,1.42,0,0,1-.43,1,1.45,1.45,0,0,1-1,.43Zm50.76,0a1.46,1.46,0,0,1-1-.43,1.42,1.42,0,0,1-.43-1V11.68H66a1.4,1.4,0,0,1-1-.43,1.42,1.42,0,0,1-.44-1V1.47a1.43,1.43,0,0,1,.44-1A1.4,1.4,0,0,1,66,0H97.87a1.42,1.42,0,0,1,1,.43,1.42,1.42,0,0,1,.43,1v8.75a1.47,1.47,0,0,1-1.47,1.46h-9V36.57a1.42,1.42,0,0,1-.43,1,1.45,1.45,0,0,1-1,.43Zm30.32,0a1.49,1.49,0,0,1-1.47-1.47V1.47a1.43,1.43,0,0,1,.44-1,1.4,1.4,0,0,1,1-.43h27.88a1.4,1.4,0,0,1,1,.43,1.43,1.43,0,0,1,.44,1V9.13a1.5,1.5,0,0,1-1.47,1.47h-16.3V14h15.1a1.43,1.43,0,0,1,1,.44,1.38,1.38,0,0,1,.43,1v7.06a1.4,1.4,0,0,1-.43,1,1.43,1.43,0,0,1-1,.44h-15.1v3.42h16.73a1.43,1.43,0,0,1,1,.44,1.4,1.4,0,0,1,.43,1v7.66a1.42,1.42,0,0,1-.43,1,1.46,1.46,0,0,1-1,.43Zm38.37,0a1.49,1.49,0,0,1-1.47-1.47V1.47a1.43,1.43,0,0,1,.44-1,1.38,1.38,0,0,1,1-.43h16.08q7.83,0,12.23,3.51a11.71,11.71,0,0,1,4.4,9.7,12.1,12.1,0,0,1-1.57,6.22,13.09,13.09,0,0,1-4.3,4.43l6.69,12.39a1.28,1.28,0,0,1,.16.59,1.2,1.2,0,0,1-1.2,1.2H166.56a2.36,2.36,0,0,1-1.54-.46,2.52,2.52,0,0,1-.79-1l-4.68-10.38h-2.22V36.57A1.49,1.49,0,0,1,155.86,38Zm16.08-22.17a2.25,2.25,0,0,0,1.85-.79,3,3,0,0,0,.65-2,3.63,3.63,0,0,0-.62-2.1,2.15,2.15,0,0,0-1.88-.89h-4v5.76Zm24.35,11.19a1.4,1.4,0,0,1-1-.43,1.42,1.42,0,0,1-.44-1V17.88a1.5,1.5,0,0,1,1.47-1.47H203.3a1.5,1.5,0,0,1,1.47,1.47V25.6a1.42,1.42,0,0,1-.44,1,1.4,1.4,0,0,1-1,.43ZM12.72,94.19a2.32,2.32,0,0,1-1.63-.54,2.81,2.81,0,0,1-.82-1.25L.05,57.73l0-.38a1.15,1.15,0,0,1,.35-.84,1.16,1.16,0,0,1,.85-.36H11.3a2.33,2.33,0,0,1,1.63.55A2.81,2.81,0,0,1,13.75,58l5.16,20.21L24.07,58a2.81,2.81,0,0,1,.82-1.25,2.34,2.34,0,0,1,1.63-.55H36.63a1.21,1.21,0,0,1,1.19,1.2l0,.38L27.55,92.4a2.71,2.71,0,0,1-.81,1.25,2.36,2.36,0,0,1-1.63.54Zm32.49,0a1.41,1.41,0,0,1-1-.43,1.4,1.4,0,0,1-.43-1V57.62a1.4,1.4,0,0,1,.43-1,1.42,1.42,0,0,1,1-.44H73.09a1.5,1.5,0,0,1,1.47,1.47v7.66a1.43,1.43,0,0,1-.44,1,1.4,1.4,0,0,1-1,.43H56.79v3.42H71.9a1.42,1.42,0,0,1,1,.44,1.4,1.4,0,0,1,.43,1v7.07a1.47,1.47,0,0,1-1.46,1.46H56.79V83.6H73.53a1.4,1.4,0,0,1,1,.43,1.41,1.41,0,0,1,.43,1v7.67a1.47,1.47,0,0,1-1.46,1.46Zm38.37,0a1.49,1.49,0,0,1-1.47-1.46V57.62a1.5,1.5,0,0,1,1.47-1.47h8.59A2.4,2.4,0,0,1,94.4,57.4l9.18,15.06V57.62a1.4,1.4,0,0,1,.43-1,1.43,1.43,0,0,1,1-.44h9.83a1.39,1.39,0,0,1,1,.44,1.41,1.41,0,0,1,.44,1V92.73a1.41,1.41,0,0,1-.44,1,1.38,1.38,0,0,1-1,.43H106.3a2.25,2.25,0,0,1-1.42-.38,3.71,3.71,0,0,1-.81-.87L94.88,79.09V92.73a1.47,1.47,0,0,1-1.46,1.46Zm50.76,0a1.49,1.49,0,0,1-1.47-1.46V67.84h-9a1.5,1.5,0,0,1-1.47-1.47V57.62a1.5,1.5,0,0,1,1.47-1.47h31.84a1.43,1.43,0,0,1,1,.44,1.4,1.4,0,0,1,.43,1v8.75a1.4,1.4,0,0,1-.43,1,1.43,1.43,0,0,1-1,.44h-9V92.73a1.47,1.47,0,0,1-1.46,1.46Zm30.32,0a1.47,1.47,0,0,1-1.46-1.46V57.62a1.49,1.49,0,0,1,1.46-1.47h11.09a1.5,1.5,0,0,1,1.47,1.47V92.73a1.49,1.49,0,0,1-1.47,1.46Zm37.83.55q-8.16,0-13-3.75t-5.16-10.93c0-1-.06-2.55-.06-4.72s0-3.82.06-4.84a14.71,14.71,0,0,1,2.47-8,14.39,14.39,0,0,1,6.33-5.11,26,26,0,0,1,18.69,0,14.39,14.39,0,0,1,6.33,5.11,14.8,14.8,0,0,1,2.48,8c.07,2,.1,3.64.1,4.84s0,2.77-.1,4.72q-.33,7.18-5.17,10.93T202.49,94.74Zm0-10.6a3.83,3.83,0,0,0,2.9-1.09,4.75,4.75,0,0,0,1.12-3.31c.07-2.1.11-3.64.11-4.62s0-2.55-.11-4.51a4.73,4.73,0,0,0-1.14-3.32,4.38,4.38,0,0,0-5.76,0,4.69,4.69,0,0,0-1.15,3.32c0,1-.05,2.48-.05,4.51s0,3.57.05,4.62a4.75,4.75,0,0,0,1.12,3.31A3.84,3.84,0,0,0,202.49,84.14Zm26.73,10a1.47,1.47,0,0,1-1.46-1.46V57.62a1.49,1.49,0,0,1,1.46-1.47h8.59A2.39,2.39,0,0,1,240,57.4l9.18,15.06V57.62a1.5,1.5,0,0,1,1.47-1.47h9.83a1.43,1.43,0,0,1,1,.44,1.4,1.4,0,0,1,.43,1V92.73a1.4,1.4,0,0,1-.43,1,1.42,1.42,0,0,1-1,.43h-8.58a2.2,2.2,0,0,1-1.41-.38,3.56,3.56,0,0,1-.82-.87l-9.18-13.85V92.73a1.49,1.49,0,0,1-1.47,1.46Zm56.74.55a26.72,26.72,0,0,1-9.76-1.58,13.56,13.56,0,0,1-6-4.21,9.92,9.92,0,0,1-2.12-5.79,1.18,1.18,0,0,1,.35-.84,1.14,1.14,0,0,1,.84-.35H279.6a3.18,3.18,0,0,1,1.22.19,4.52,4.52,0,0,1,1.12.73,6.29,6.29,0,0,0,4,1.25,8.85,8.85,0,0,0,3-.41q1.11-.41,1.11-1.11c0-.65-.49-1.15-1.46-1.5A34,34,0,0,0,283,80.06q-14-1.84-14-12a10.65,10.65,0,0,1,2.1-6.49,13.44,13.44,0,0,1,5.84-4.43,22.16,22.16,0,0,1,8.64-1.58,21.6,21.6,0,0,1,9,1.74,15.4,15.4,0,0,1,5.93,4.37,9.09,9.09,0,0,1,2.17,5.14,1.15,1.15,0,0,1-.35.84,1.09,1.09,0,0,1-.79.36H290.63a2.94,2.94,0,0,1-1.19-.2,3.72,3.72,0,0,1-1-.67,4.23,4.23,0,0,0-2.88-1c-1.74,0-2.61.5-2.61,1.52,0,.54.43,1,1.28,1.36a20.48,20.48,0,0,0,4.75,1,33.15,33.15,0,0,1,8.72,2.12A10.2,10.2,0,0,1,302.51,76a11,11,0,0,1,1.49,6,10.49,10.49,0,0,1-2.34,6.77,14.78,14.78,0,0,1-6.44,4.48A25.65,25.65,0,0,1,286,94.74Z"/></g></g></svg>