<svg xmlns="http://www.w3.org/2000/svg" xmlns:xlink="http://www.w3.org/1999/xlink" width="315" height="75" viewBox="0 0 315 75">
  <defs>
    <path id="a" d="M35.0984673,17.2586608 L35.1494893,42.6647635 C35.1494893,42.6647635 24.3513881,43.0173649 14.7383877,36.3390953 C3.46717383,28.2245628 0.88360751,15.7095655 0.88360751,15.7095655 C0.88360751,15.7095655 0.166980947,13.1802385 0,8.97958108 C7.1129245,16.6427838 28.658105,17.4232081 35.0984673,17.2586608 Z"/>
    <path id="b" d="M21.9232068,30.6057973 L0.169300127,17.9873703 C0.169300127,17.9873703 5.24134639,8.32139189 15.7541885,3.20397095 C28.3148664,-2.65626351 40.305026,1.32343041 40.305026,1.32343041 C40.305026,1.32343041 42.8259745,1.95576216 46.5018745,3.90917365 C36.4111231,6.32096689 24.9938009,24.8654473 21.9232068,30.6057973 Z"/>
    <path id="c" d="M1.77649174,13.0015872 L23.3587791,0.0728709459 C23.3587791,0.0728709459 29.135856,9.32277973 28.3218239,21.1137689 C27.1320847,35.0767824 17.7973859,43.6802554 17.7973859,43.6802554 C17.7973859,43.6802554 16.0023407,45.6031081 12.523571,47.8668088 C15.4341417,37.7683061 5.17872853,18.5468311 1.77649174,13.0015872 Z"/>
  </defs>
  <g fill="none" transform="translate(2 2)">
    <ellipse cx="35.296" cy="35.695" fill="#FFFFFF" rx="24.291" ry="24.621"/>
    <g fill="#2B2D31" transform="translate(24.351 25.387)">
      <path d="M1.10624877,15.3452108 L1.10624877,0.0658189189 C1.92491925,0.141040541 2.72967464,0.17395 3.50659988,0.300886486 C5.92612862,0.656798346 8.22440766,1.60214582 10.2043912,3.05587838 C10.3835195,3.20095483 10.4958991,3.41431563 10.5151613,3.64589797 C10.5321686,8.47888716 10.5321686,13.3118764 10.5151613,18.1448655 C10.5052148,18.2602296 10.4881743,18.3748519 10.4641393,18.4880642 C7.66720847,16.438275 4.63835963,15.2535345 1.10624877,15.3452108 Z M2.34469079,3.05587838 C4.83186942,3.01999892 7.2700307,3.7584271 9.3300604,5.17148649 C9.26280419,4.85884662 9.16771782,4.52505068 8.95667245,4.40986757 C8.06369817,3.89792949 7.13869686,3.4456376 6.18757175,3.05587838 C4.95568506,2.61237027 3.6506373,2.41519196 2.34469079,2.47526149 L2.34469079,3.05587838 Z M9.21410141,15.6108372 L9.41587006,15.4533419 C9.25816583,15.2182743 9.15148356,14.9056345 8.93348065,14.7833993 C8.14307296,14.316055 7.32343617,13.9014563 6.47978841,13.5422426 C5.16072434,13.0180808 3.7451442,12.7903086 2.33077572,12.8746507 C2.33077572,13.0227432 2.30758392,13.133225 2.31222228,13.2413561 C2.32622784,13.3068117 2.34884906,13.3700625 2.37947849,13.4294101 C4.82996927,13.3792128 7.22967262,14.1410066 9.21410141,15.5990838 L9.21410141,15.6108372 Z M2.31917982,5.64162162 C4.81538693,5.60836407 7.26241249,6.34629196 9.33469876,7.75722973 C9.27208091,7.44694054 9.18395207,7.14605405 8.98450261,7.00971486 C7.07742392,5.70204108 4.82090731,5.0178615 2.51862928,5.04925135 C2.45639854,5.05980606 2.39565775,5.07796004 2.33773326,5.10331689 L2.31917982,5.64162162 Z M9.20714387,13.0062885 L9.40659334,12.8699493 C9.30237006,12.6332914 9.16488487,12.4131781 8.99841769,12.2164615 C8.73355682,12.0063321 8.44654778,11.8265848 8.14264034,11.6805074 C6.37590214,10.6933457 4.37966097,10.2061825 2.36324423,10.270102 C2.34189603,10.3471454 2.32638966,10.4257302 2.31686064,10.5051696 C2.32060958,10.610593 2.32989948,10.715739 2.34469079,10.8201601 C4.80239094,10.7747573 7.20818544,11.5394591 9.20018633,12.9992365 L9.20714387,13.0062885 Z M9.22105895,10.4205453 L9.42514678,10.270102 C9.26976173,10.0350345 9.16771782,9.71064122 8.96131081,9.59310743 C8.04197949,9.07778979 7.09155558,8.62164028 6.11567718,8.22736486 C4.90778267,7.7890115 3.62586349,7.59882689 2.34469079,7.66790405 C2.32710082,7.77134217 2.31548515,7.87573314 2.3099031,7.98054392 C2.31972794,8.06571825 2.33679881,8.14987229 2.36092505,8.23206622 C4.8184342,8.1880278 7.22354171,8.95441989 9.21410141,10.4158439 L9.22105895,10.4205453 Z"/>
      <path d="M10.137135 18.4974669C7.26830955 17.2680635 3.20974487 16.4218203.0950863725 16.4782365L.0950863725 1.27641689.790840318 1.27641689.790840318 15.5567716C3.85911522 15.474498 7.6532934 16.793227 10.137135 18.4974669zM20.5131455 1.22940338C20.7659361 1.21529932 21.0697486 1.24350743 21.3109433 1.22940338L21.3109433 16.4711845C17.9150788 16.4698725 14.5544548 17.1688802 11.4335565 18.525675 11.9924788 17.8909926 14.6456205 16.5370034 16.2481738 16.1491419 17.6379583 15.7879003 19.0667963 15.6039087 20.5015496 15.6014345 20.5015496 11.0035128 20.5131455 6.001275 20.5131455 1.22940338z"/>
      <path d="M9.31150696,0.0987283784 C9.26215015,0.093809148 9.21243627,0.093809148 9.16307946,0.0987283784 C6.05517378,0.172025884 3.03779692,1.1737597 0.489346941,2.97830608 C0.188897706,3.16430642 0.0182172767,3.50666109 0.0487027762,3.86216014 C0.0610717352,8.54313896 0.0649370349,13.2241178 0.0602986752,17.9050966 C0.0602986752,18.0813973 0.0394260569,18.2600486 0.0602986752,18.532727 C2.89665559,16.4335736 5.92782361,15.2558851 9.40659334,15.3475615 L9.40659334,0.152793919 C9.40195498,0.124585811 9.34397548,0.10342973 9.31150696,0.0987283784 Z M1.60255325,14.3391216 L1.62342587,13.9935723 C1.75707471,13.9850296 1.88048057,14.0661895 1.92723843,14.1933797 C1.66053275,14.3085628 1.60255325,14.3391216 1.60255325,14.3391216 Z M1.95274941,14.1510676 C1.92550196,14.0106158 1.80167004,13.9110018 1.66053275,13.916 C1.60223638,13.5172055 1.63557063,13.1101531 1.7579383,12.7265581 L1.98985628,12.3081378 L3.10770095,13.0344966 C3.10770095,13.0344966 2.65778007,13.8689865 1.95043023,14.1534182 L1.95274941,14.1510676 Z M3.09378588,12.9874831 L2.00377136,12.2423189 L2.37715931,11.6334939 L3.5158766,12.357502 L3.09378588,12.9874831 Z M3.55762184,12.3128392 L2.39803193,11.5864804 L6.19221011,5.00458851 L7.3657151,5.70979122 L3.55762184,12.3128392 Z M7.46080147,5.71214189 L6.1365498,4.90115878 L4.88187351,7.08258581 L4.74504191,6.92979189 L6.26178551,4.38871149 L7.77852911,5.27021486 L7.46080147,5.71214189 Z M7.66952765,5.10566757 L6.53081036,4.44277703 L7.23816021,3.20397095 L8.43253781,3.86686149 L7.66952765,5.10566757 Z" transform="translate(10.9)"/>
    </g>
    <g transform="translate(0 28.208)">
      <path fill="#FFFFFF" d="M9.45993447,0.112832432 C9.45993447,0.112832432 1.43093395,2.19788176 0.602986752,5.62281622 C-0.50326202,9.46617095 6.84389964,11.8803149 6.84389964,11.8803149 L9.09118488,12.6278297 C9.09118488,12.6278297 7.5489303,7.05202703 9.45993447,0.112832432 Z"/>
      <use fill="#FFFFFF" fill-rule="evenodd" xlink:href="#a"/>
      <path stroke="#2B2D31" stroke-width="1.44" d="M35.8169855,16.5200682 L35.8708902,43.3615906 L35.1729877,43.38438 C35.1550669,43.3849508 35.1550669,43.3849508 35.0889901,43.3862705 C34.6162857,43.3941985 33.9459611,43.3794318 33.1069161,43.3238861 C31.8430968,43.24022 30.4688413,43.0795115 29.0130262,42.8235265 C24.994535,42.1169303 21.0011712,40.8093185 17.2662659,38.751969 C16.2560525,38.1954991 15.2754981,37.5889267 14.3177137,36.9234182 C11.5180392,34.9078368 9.09752758,32.5248616 7.02885592,29.8512381 C4.66560125,26.7968852 2.87748657,23.5268313 1.58374386,20.2559733 C1.13038112,19.1097755 0.770909657,18.0442076 0.495424092,17.0859299 C0.398468903,16.7486708 0.318833444,16.4482995 0.255289331,16.1881472 C0.216443394,16.0291103 0.191246742,15.9169943 0.190875111,15.9058353 C0.158546031,15.7917301 0.105003218,15.580937 0.0374484725,15.278283 C-0.0734433106,14.7814735 -0.183916355,14.2025241 -0.286755957,13.5462629 C-0.500754763,12.1806498 -0.653685255,10.6621332 -0.719431818,9.00817932 L-0.796761865,7.06282542 L0.527711107,8.48976378 C5.98867514,14.3732052 21.6714076,16.881479 35.0800778,16.5388957 L35.8169855,16.5200682 Z"/>
    </g>
    <g transform="translate(4.406)">
      <path fill="#FFFFFF" d="M49.3683808,16.6239784 C49.3683808,16.6239784 51.5878358,8.52825135 49.0715257,6.09530203 C46.3372127,3.20632162 40.6088386,8.46243243 40.6088386,8.46243243 L38.8485811,10.0655932 C38.8485811,10.0655932 44.3891017,11.4854014 49.3683808,16.6239784 Z"/>
      <use fill="#FFFFFF" fill-rule="evenodd" xlink:href="#b"/>
      <path stroke="#2B2D31" stroke-width="1.44" d="M22.2065782,31.6025271 L-0.78891492,18.2639136 L-0.468256723,17.6528239 C-0.388466105,17.5007641 -0.23443169,17.2264098 -0.0056016182,16.847175 C0.371993866,16.2213947 0.825415499,15.5257604 1.35526401,14.7776928 C2.86635074,12.6442623 4.68973488,10.5119882 6.83103392,8.52083292 C9.40886779,6.12375174 12.2767105,4.09595859 15.4497713,2.55149092 C22.95657,-0.950835988 30.7287639,-1.3903805 37.7307307,-0.0436759425 C38.4986339,0.104016678 39.1842891,0.262559394 39.7792685,0.421573901 C40.1406485,0.51815649 40.394319,0.594443985 40.4801978,0.625064552 C40.5706672,0.647757072 40.7346569,0.693231017 40.9668403,0.764206465 C41.3469536,0.88040215 41.784558,1.02753215 42.2743223,1.20832302 C43.6660601,1.7220671 45.2021237,2.40312317 46.8397458,3.27337259 L48.5210689,4.16684517 L46.6692476,4.60944948 C38.9239466,6.46065598 28.9494964,18.9969175 22.5580837,30.9454019 L22.2065782,31.6025271 Z"/>
    </g>
    <g transform="translate(41.513 17.395)">
      <path fill="#FFFFFF" d="M0.187853565,44.0939743 C0.187853565,44.0939743 6.02986752,50.0529372 9.36252892,49.0303932 C13.1914948,48.0501615 11.5216853,40.4081149 11.5216853,40.4081149 L11.0184233,38.0574392 C11.0184233,38.0574392 7.054945,42.2486939 0.187853565,44.0939743 Z"/>
      <use fill="#FFFFFF" fill-rule="evenodd" xlink:href="#c"/>
      <path stroke="#2B2D31" stroke-width="1.44" d="M0.782250965,12.7578773 L23.5950716,-0.907981118 L23.96946,-0.30853286 C24.0138161,-0.237512506 24.0925571,-0.105879504 24.2007568,0.0837279868 C24.3784059,0.395037495 24.5756244,0.758996131 24.787481,1.17297341 C25.3902802,2.35086979 25.9921592,3.6968929 26.5535465,5.19010108 C28.4355862,10.1960513 29.4239182,15.6040822 29.0392244,21.1748961 C28.5393707,27.0412771 26.62159,32.4054451 23.7382321,37.1853271 C22.5520123,39.1517809 21.2807292,40.8849408 20.0079755,42.3702783 C19.5610484,42.8918541 19.145173,43.345795 18.7707544,43.7302558 C18.5431454,43.9639694 18.3778776,44.1244011 18.3236935,44.1715805 C18.2594714,44.2403752 18.1392636,44.3629957 17.9634718,44.5332578 C17.6755364,44.8121357 17.332854,45.1262424 16.9358212,45.469386 C15.8073218,46.4447146 14.4664208,47.4615761 12.9162675,48.4702899 L11.2965526,49.5242688 L11.8317332,47.6674086 C14.0682818,39.9074897 8.25579041,24.9388634 1.1627934,13.3781165 L0.782250965,12.7578773 Z"/>
    </g>
    <g fill="#2B2D31" transform="translate(13.915 3.996)">
      <path d="M42.0049848 30.3448723C41.8032162 29.6161628 41.6176818 28.9344669 41.4251899 28.2292642 41.2627218 27.7660653 41.4476208 27.2511808 41.8658341 27.0022115 43.1668939 26.0736946 44.4563579 25.1216709 45.7550986 24.2002061 46.2189346 23.8687608 46.4508525 23.9510345 46.585365 24.519898 46.7477076 25.1898405 46.8775816 25.8691858 47.0492009 26.6355061L49.3683808 24.9383182C50.5279707 24.0873736 51.0590628 24.2895318 51.3025767 25.7469507 51.7865122 28.6492516 52.2503482 31.5539032 52.6940846 34.4609054 52.8564272 35.5140081 52.5201461 36.35555 51.6388578 37.0254926 48.765394 39.2092703 45.9197604 41.4353601 43.0578925 43.6426446 42.1000712 44.3831074 41.5968092 44.2326642 41.2025486 43.0761318 40.2965224 40.4794187 39.3928153 37.8819221 38.4914274 35.2836419 38.0136764 33.9037953 38.2896588 33.0340453 39.4492487 32.1854514L42.0049848 30.3448723zM48.6726268 34.8111561C48.6726268 33.0152399 48.2853238 31.9315784 47.0839886 31.2851426 46.2096578 30.8150074 45.5556491 30.9019824 44.8297459 31.5766264 43.5750696 32.7519642 43.0578925 35.5892297 43.851052 37.1054155 44.2592844 37.9205515 45.0696929 38.4489888 45.9707823 38.4876128 46.856709 38.5557824 47.4156314 37.9775162 47.8261262 37.312275 48.2889794 36.5556508 48.5782652 35.7033205 48.6726268 34.8182081L48.6726268 34.8111561zM.171619306 49.1291216C.171619306 47.2031347.171619306 45.2779313.171619306 43.3535115.152644149 43.2225761.152644149 43.0895333.171619306 42.958598.25742896 42.6835689.310770095 42.2886554.50326202 42.1852257.695753945 42.0817959 1.06682272 42.262798 1.28250644 42.4202932 4.83858216 45.0640198 8.39465788 47.7179327 11.9507336 50.3820318 12.4029737 50.7205291 12.8575329 51.0519743 13.3028154 51.3975236 13.4825622 51.5327217 13.6487928 51.6854633 13.7991199 51.8535547 14.4763204 52.6339791 14.3186162 53.1981412 13.3352839 53.4496635 9.31537226 54.4620212 5.29546058 55.463409 1.2755489 56.453827.691115585 56.5995689.394260569 56.4021122.2527906 55.8003392.200182434 55.5619453.174506319 55.3182585.176257666 55.0739804.169300127 53.0829581.171619306 51.0989878.171619306 49.1291216zM18.2403493 6.43850068C18.0084313 7.03087095 17.6999804 7.16956081 17.1781649 6.85221959 16.7143289 6.57013851 16.1855559 6.40559122 15.7078049 6.14701689 15.3135443 5.93310541 15.0445195 5.97776824 14.8218782 6.46905946L17.347465 7.67730676 16.8024578 8.38250946C16.0881504 8.04166149 15.3622471 7.74312568 14.6850466 7.35761486 14.1910613 7.07318311 13.9382707 7.22362635 13.7272253 7.69611216L16.2922382 8.97723041C15.0050934 10.9988115 12.5166135 11.8403534 10.0118993 11.045825 9.29816269 10.8223516 8.63248791 10.4642582 8.04987314 9.99037162 6.59342822 8.77272162 6.42644727 6.80285541 8.48587895 5.33133243 8.63141471 5.27451293 8.79379335 5.28218783 8.93348065 5.35248851 9.45156629 5.57302059 9.95715462 5.82257731 10.4479051 6.10000338 10.8908684 6.36092838 11.2062769 6.33507095 11.4521099 5.81557162L9.24656993 4.73426081C9.5596592 4.20065743 9.92377044 4.06666892 10.459501 4.40751689 10.8375273 4.64258446 11.2804906 4.77892365 11.672432 4.99988716 12.0643734 5.22085068 12.3333983 5.20674662 12.5792313 4.72485811L10.4363092 3.69056081C10.730845 3.26273784 11.0184233 3.06057973 11.517047 3.35911554 11.9344993 3.60828716 12.4122504 3.7493277 12.8412986 3.97969392 13.2030907 4.17244932 13.4350087 4.09957838 13.632139 3.68821014L11.5448771 2.74793986C11.8092636 2.30836351 12.0968419 2.1837777 12.5374861 2.42354662 12.9781303 2.66331554 13.4048593 2.7832 13.8176733 3.00181284 14.1655503 3.18516554 14.4137026 3.17576284 14.6061945 2.75499189L12.523571 1.82412432C13.2703469 1.08131081 13.9776968.413718919 15.0955414.27737973L14.6317055.806281757C15.0050934 1.14948041 15.3274594 1.09541486 15.6219952.724008108 16.0255325.225664865 16.5032836-.0235067568 17.217591.326743919L16.0139366 1.32578108C16.5241562 1.77711081 16.8581181 1.73479865 17.1735265 1.32578108 17.2941239 1.16123378 17.4819775 1.0437 17.6002556.874451351 17.9620477.352601351 18.3516699.453680405 18.8131867.815684459L17.6721502 2.06389324C18.0919218 2.38123446 18.4142877 2.43294932 18.7250578 1.97456757 18.9574416 1.67361087 19.2100605 1.38928579 19.4811105 1.12362297L20.1420767 1.67603176 19.3187679 2.696225C19.8916053 3.30975135 20.197737 2.79730405 20.5479332 2.40944257 20.9282787 3.55422162 20.042352 4.09487703 19.5599626 4.86824932 18.8642086 4.56971351 18.1893273 4.30173649 17.5376378 3.98674595 17.1596115 3.80339324 16.9392894 3.89036824 16.7885427 4.28293108L19.1448294 5.33133243 18.7088236 5.95191081 16.6656262 5.03749797C16.2017902 4.83063851 16.2017902 4.83063851 15.8237639 5.32428041L18.2403493 6.43850068z"/>
      <path d="M5.82346052,14.6118 L7.88521138,15.9305291 L6.99928469,16.9577743 L1.92260007,13.6668284 C2.1734421,13.4019665 2.44235778,13.1553202 2.72735546,12.9287162 C2.88559968,12.8717623 3.0606266,12.888986 3.20510651,12.9757297 C3.73851786,13.2836682 4.25569496,13.6221655 4.68474323,13.8924932 L6.95753945,11.7063649 C6.67459951,11.4430892 6.37310614,11.1892162 6.10408128,10.9047845 C4.51312392,9.21935 4.52008146,6.95329865 6.20612519,5.36189122 C7.25671365,4.36990608 8.42558027,3.50015608 9.54342495,2.58104189 C9.62270251,2.50036 9.72643626,2.44903058 9.83796078,2.4353 C10.0313952,2.46933387 10.2215202,2.5204602 10.4061598,2.58809392 C10.355767,2.7505232 10.2772347,2.90255695 10.1742419,3.03707297 C9.22337813,3.86451081 8.24004589,4.65668851 7.30077806,5.49587973 C6.07161276,6.59599595 5.72141661,8.08162297 6.46123497,9.36274122 C6.79897252,9.97158969 7.27031447,10.4935682 7.83882778,10.8883297 C10.1881569,12.4115676 12.6696793,12.5126466 15.1535209,11.2338791 C15.7357877,10.896785 16.2477884,10.4480895 16.6609878,9.91279932 C17.4425514,8.97252905 18.1220711,7.94763446 18.8897196,6.99561081 C19.0926432,6.80171049 19.3681246,6.70578125 19.6457722,6.73233514 C19.9611807,6.77229662 20.1096082,7.02852027 19.8776902,7.36231622 C19.0335088,8.53765405 18.2542643,9.77175878 17.3265924,10.8883297 C16.2087477,12.256423 14.6270671,12.8182345 12.9201508,13.039198 C11.3725348,13.2452804 9.79863482,13.0453652 8.34904734,12.4585811 C8.15663954,12.3999495 7.94826306,12.4355852 7.78548664,12.5549588 C7.1245204,13.1966932 6.50761857,13.8830905 5.82346052,14.6118 Z"/>
    </g>
    <g fill="#FFFFFF" transform="translate(86.701 17.526)">
      <g>
        <polygon points=".294 8.266 5.602 8.266 10.98 21.316 16.913 8.266 22.235 8.266 9.268 36.682 3.908 36.682 8.166 27.52"/>
        <path d="M35.7011409 7.73430395C39.6501635 7.74942044 43.2880019 9.83498384 45.2331073 13.1989558 46.1951873 14.8654143 46.694379 16.7495289 46.6809539 18.6636077 46.6901324 20.5907969 46.1887256 22.4873991 45.2256634 24.1683337 43.3331806 27.5702821 39.6769805 29.6721172 35.7197508 29.6329856 32.8407085 29.6693831 30.0801013 28.5128485 28.119487 26.4489151 23.7647389 21.9567448 23.947913 14.861645 28.5289038 10.5904953 30.4461888 8.7572007 33.0208344 7.73190268 35.7011409 7.73430395zM35.7867462 12.6488475C34.2563266 12.6138873 32.7857024 13.2306094 31.7558522 14.3392465 30.6625972 15.5207813 30.0854371 17.0743387 30.147961 18.6672508 30.147961 20.4766578 30.6789621 21.9423988 31.7409643 23.064474 32.770118 24.1732427 34.2419427 24.7878078 35.7718584 24.7475868 37.310899 24.7817918 38.7894871 24.1611592 39.8250842 23.0462585 40.9268192 21.851589 41.5078442 20.2827255 41.4441414 18.674537 41.4441414 16.8894174 40.9131403 15.4394631 39.851138 14.3246741 38.808904 13.2149333 37.3261451 12.6022343 35.7867462 12.6452044L35.7867462 12.6488475zM51.6832822 8.26619673L56.9461485 8.26619673 56.9461485 18.2847252C56.9461485 20.2277125 57.0801394 21.5817318 57.3481213 22.3467831 57.803453 23.833774 59.2367247 24.8246758 60.8207197 24.7475868 62.4382282 24.8293036 63.9032286 23.818161 64.3677576 22.2994227 64.5836319 21.6995254 64.6915691 20.4183681 64.6915691 18.4559509L64.6915691 8.25526743 69.9023277 8.25526743 69.9023277 17.0679294C69.9023277 20.7110306 69.6169767 23.19684 69.0462745 24.5253576 68.4330649 26.0549481 67.3580132 27.3652036 65.964483 28.281395 64.6072044 29.1533106 62.8814507 29.5892683 60.787222 29.5892683 58.51682 29.5892683 56.6806479 29.0792342 55.2787057 28.0591658 53.8435403 26.9925385 52.8043481 25.4955691 52.3197392 23.7967374 51.9128037 22.5337956 51.709336 20.2398562 51.709336 16.9149191L51.6832822 8.26619673zM96.3059864 12.5869148L94.1956291 13.9057175C92.3718636 11.4769833 89.8818653 10.2626162 86.7256343 10.2626162 84.376666 10.1948579 82.1033391 11.0793832 80.4429482 12.7071372 78.8081301 14.2638736 77.9041605 16.4132735 77.945506 18.6453922 77.9414538 20.144809 78.3379229 21.6192158 79.0955948 22.9223931 79.830828 24.2271507 80.9240384 25.3047669 82.2518258 26.0336015 83.6271679 26.7763423 85.1774144 27.1531792 86.7479662 27.1265319 89.7875754 27.1265319 92.2688891 25.9121648 94.1919071 23.4834306L96.3022644 24.8787384C95.3164252 26.373333 93.934925 27.5782494 92.3048681 28.3651863 90.532402 29.2138396 88.5793782 29.6383708 86.6065313 29.6038407 83.3336786 29.6038407 80.6191214 28.5582707 78.4628599 26.4671306 76.3480349 24.4749943 75.1761241 21.7109197 75.2284675 18.8384766 75.2160056 16.8704043 75.7374672 14.9343601 76.7395875 13.2281006 77.7178196 11.5306213 79.1566853 10.1310714 80.8970286 9.18425825 82.7065297 8.20277419 84.7463797 7.70047855 86.8149616 7.72701775 88.1700427 7.72885524 89.5155594 7.94917662 90.7974701 8.37913287 91.9658659 8.74463647 93.0630535 9.30007919 94.0430283 10.0221715 94.9583968 10.7271355 95.7266747 11.59787 96.3059864 12.5869148zM122.825026 8.26619673L122.825026 29.0683049 120.219647 29.0683049 120.219647 25.5017087C119.207716 26.7808741 117.925404 27.8309655 116.460457 28.5801293 112.386756 30.5333616 107.486903 29.6454829 104.39755 26.3942685 102.342142 24.3070713 101.222198 21.5036022 101.285983 18.6053181 101.23519 15.7339178 102.367398 12.9633768 104.427326 10.9183744 106.369522 8.8539454 109.115981 7.69388773 111.982926 7.72701775 113.590737 7.70584541 115.178058 8.08173691 116.598169 8.81994812 118.053405 9.61832413 119.295499 10.7417292 120.223369 12.0987392L120.223369 8.27348294 122.825026 8.26619673zM112.180191 10.3136196C110.739034 10.3045858 109.322949 10.6826072 108.086023 11.40655 106.826347 12.1522357 105.7972 13.218756 105.108447 14.4922568 103.619888 17.1030654 103.619888 20.2824396 105.108447 22.8932482 105.807338 24.1798494 106.847485 25.258363 108.119521 26.015386 109.339581 26.7495132 110.744313 27.1367742 112.176469 27.1338181 113.632232 27.1379594 115.062588 26.7605882 116.319022 26.0408877 117.589082 25.3363142 118.632164 24.2976669 119.330096 23.0426154 120.044819 21.7335427 120.407308 20.2679238 120.383413 18.78383 120.448285 16.5428776 119.593002 14.3699366 118.008796 12.7508544 116.51143 11.1620972 114.391896 10.2752463 112.183912 10.3136196L112.180191 10.3136196zM129.643676 8.26619673L132.308607 8.26619673 132.308607 12.091453C133.243113 10.7387003 134.485264 9.61639563 135.937528 8.81266192 137.345934 8.07536771 138.922224 7.69935932 140.519274 7.71973155 143.385597 7.69253539 146.128561 8.85945372 148.063708 10.9293037 150.121557 12.9753644 151.252268 15.7455241 151.201329 18.6162474 151.265281 21.5138689 150.146826 24.3169671 148.093484 26.4051979 146.176737 28.4736837 143.446562 29.6394262 140.593713 29.6074838 139.016455 29.6243101 137.45806 29.2707637 136.049187 28.5764862 134.590371 27.8260731 133.313421 26.7774565 132.304885 25.5017087L132.304885 36.6860296 129.639954 36.6860296 129.643676 8.26619673zM140.299678 10.3136196C138.092702 10.2748866 135.974169 11.1618851 134.478516 12.7508544 132.908737 14.3726869 132.063598 16.5397415 132.129952 18.7729007 132.106057 20.2569945 132.468546 21.7226134 133.18327 23.0316861 133.882251 24.2884234 134.928248 25.3274047 136.201788 26.0299584 137.461033 26.7494317 138.893711 27.1267374 140.351785 27.1228888 141.776707 27.1242834 143.173835 26.7369869 144.386401 26.0044567 145.657301 25.2472056 146.696186 24.1686672 147.393753 22.8823189 148.880154 20.2709612 148.880154 17.0926852 147.393753 14.4813275 146.704847 13.207934 145.675735 12.1414497 144.416177 11.3956207 143.172001 10.6707578 141.747463 10.2963251 140.299678 10.3136196zM167.373291 10.543135L165.661184 12.3209684C164.23691 10.9317325 162.843653 10.2371145 161.481412 10.2371145 160.649514 10.2199097 159.845233 10.5295566 159.248229 11.0968864 158.660197 11.6054553 158.322834 12.3361705 158.321459 13.1042352 158.330262 13.8134388 158.593788 14.4969864 159.065853 15.0350789 159.574522 15.6592635 160.642728 16.3878838 162.270469 17.2209396 164.25552 18.2531516 165.602874 19.2477183 166.312529 20.2046395 167.009192 21.1607641 167.376807 22.309141 167.362125 23.4834306 167.385558 25.1164299 166.731602 26.6889604 165.549681 27.8417175 164.367759 28.9944747 162.758862 29.6289587 161.090605 29.6001976 159.90383 29.6021263 158.732845 29.3339797 157.670114 28.8169309 156.609077 28.3153189 155.684397 27.5750215 154.971685 26.6565718L156.646572 24.7439437C158.006332 26.2861899 159.449216 27.057313 160.975224 27.057313 161.987868 27.0788107 162.968273 26.7083124 163.703428 26.0263153 164.414761 25.4123373 164.821592 24.5283118 164.820019 23.6000099 164.826471 22.8529424 164.562794 22.1277111 164.075625 21.552587 163.579362 20.9672621 162.462771 20.2277125 160.725852 19.3339383 158.857422 18.3624447 157.585749 17.4067378 156.910832 16.4668176 156.236606 15.5199165 155.883738 14.3894296 155.902178 13.2353868 155.859039 11.7608507 156.442601 10.3348387 157.513791 9.29719439 158.592758 8.25072994 160.063701 7.6843049 161.581905 7.73066085 163.512367 7.73308958 165.442829 8.67058097 167.373291 10.543135zM172.531942 8.26619673L175.196873 8.26619673 175.196873 17.9787047C175.196873 20.3491492 175.320939 21.9800442 175.56907 22.8713896 175.91537 24.0956326 176.686592 25.1635421 177.750145 25.8915206 178.881367 26.641837 180.22534 27.0242481 181.591218 26.9844509 182.938143 27.0211374 184.26221 26.6384573 185.37274 25.8915206 186.386032 25.2012975 187.139338 24.2040925 187.516595 23.0535447 187.784577 22.2496337 187.918568 20.5495198 187.918568 17.953203L187.918568 8.26619673 190.639328 8.26619673 190.639328 18.4668802C190.639328 21.3352153 190.306832 23.4955743 189.64184 24.9479574 189.014746 26.3570777 187.966252 27.5472019 186.634488 28.3615432 185.29706 29.1824554 183.619692 29.5929114 181.602384 29.5929114 179.585076 29.5929114 177.901505 29.1824554 176.55167 28.3615432 175.205723 27.5453887 174.149194 26.3433423 173.525708 24.9188125 172.860716 23.4469996 172.52822 21.2319941 172.52822 18.2737959L172.531942 8.26619673z"/>
        <polygon points="196.944 .237 199.609 .237 199.609 29.068 196.944 29.068"/>
        <path d="M223.355449,22.1682711 L225.588631,23.352279 C224.956548,24.6637415 224.0921,25.8552303 223.03536,26.8715148 C222.093802,27.7491727 220.987994,28.4406562 219.778635,28.9080084 C218.47106,29.3913338 217.082006,29.6286493 215.684468,29.6074838 C212.3074,29.6074838 209.666042,28.4951236 207.760393,26.2704031 C205.905134,24.1789344 204.889305,21.4989753 204.901919,18.7291835 C204.87133,16.17819 205.724051,13.6922105 207.3212,11.6761395 C209.365803,9.05067787 212.102692,7.73794705 215.531867,7.73794705 C219.062776,7.73794705 221.881549,9.08225141 223.988184,11.7708601 C225.476972,13.6701303 226.238735,16.0405748 226.273474,18.8821938 L207.656177,18.8821938 C207.705804,21.2987843 208.47377,23.279417 209.960077,24.8240919 C211.368726,26.3360129 213.374744,27.1803623 215.464872,27.1411043 C216.516506,27.1421678 217.559547,26.9557569 218.542941,26.590996 C219.474778,26.2626579 220.336613,25.7686181 221.085047,25.1337555 C221.988979,24.2618537 222.754282,23.2622532 223.355449,22.1682711 Z M223.355449,16.5651814 C223.088786,15.3310118 222.559994,14.1655104 221.803387,13.1443093 C221.082727,12.258792 220.159725,11.5512608 219.108681,11.0786709 C218.009273,10.5604301 216.804228,10.2926427 215.583975,10.2954041 C213.641973,10.2615911 211.762661,10.9683831 210.34344,12.2663219 C209.276475,13.2232432 208.470048,14.6574107 207.924159,16.5688245 L223.355449,16.5651814 Z"/>
      </g>
    </g>
  </g>
</svg>
