<svg xmlns="http://www.w3.org/2000/svg" xmlns:xlink="http://www.w3.org/1999/xlink" width="386" height="398" viewBox="0 0 386 398">
  <defs>
    <rect id="a" width="14" height="14" x="18" y="90" rx="3"/>
    <rect id="b" width="14" height="14" y="62" rx="3"/>
    <rect id="c" width="14" height="14" x="36" y="66" rx="3"/>
  </defs>
  <g fill="none" fill-rule="evenodd">
    <rect width="385" height="398" fill="#FCFCFC"/>
    <text fill="#2B2D31" font-family="SpaceMono-Bold, Space Mono" font-size="20" font-weight="bold" letter-spacing="3">
      <tspan x="19" y="32">TYPOGRAPH</tspan> <tspan x="156.16" y="32">Y</tspan>
    </text>
    <path stroke="#2B2D31" stroke-linecap="square" stroke-linejoin="round" stroke-width="2" d="M22.5,46.5 L384.965171,46.5"/>
    <path stroke="#E9ECEF" stroke-linecap="square" stroke-linejoin="round" d="M53 186L384.500377 186M53 288L384.500377 288"/>
    <g transform="translate(53 69)">
      <rect width="14" height="14" y="90" fill="#2B2D31" rx="3"/>
      <use fill="#FFFFFF" xlink:href="#a"/>
      <rect width="13" height="13" x="18.5" y="90.5" stroke="#2B2D31" rx="3"/>
      <text fill="#2B2D31" font-family="Poppins-SemiBold, Poppins" font-size="30" font-weight="500">
        <tspan x="0" y="33">Poppins Semibold</tspan>
      </text>
      <text fill="#76797D" font-family="Karla-Regular, Karla" font-size="14">
        <tspan x="0" y="62">Major headings</tspan> <tspan x="0" y="79">48px, 30px</tspan>
      </text>
    </g>
    <g transform="translate(53 297)">
      <use fill="#FFFFFF" xlink:href="#b"/>
      <rect width="13" height="13" x=".5" y="62.5" stroke="#2F3234" rx="3"/>
      <rect width="14" height="14" x="18" y="62" fill="#2F3234" rx="3"/>
      <rect width="14" height="14" x="36" y="62" fill="#696D72" rx="3"/>
      <rect width="14" height="14" x="54" y="62" fill="#79A5CD" rx="3"/>
      <text fill="#76797D" font-family="Karla-Regular, Karla" font-size="14">
        <tspan x="0" y="13">Karla Regular</tspan>
      </text>
      <text fill="#76797D" font-family="Karla-Regular, Karla" font-size="14">
        <tspan x="0" y="34">Body text and quotes</tspan> <tspan x="0" y="51">32px, 20px, 16px, 14px</tspan>
      </text>
    </g>
    <g transform="translate(53 195)">
      <rect width="14" height="14" y="66" fill="#2F3234" rx="3"/>
      <rect width="14" height="14" x="18" y="66" fill="#336699" rx="3"/>
      <use fill="#FCFCFC" xlink:href="#c"/>
      <rect width="13" height="13" x="36.5" y="66.5" stroke="#2F3234" rx="3"/>
      <text fill="#2F3234" font-family="Karla-Bold, Karla" font-size="20" font-weight="bold">
        <tspan x="0" y="18">KARLA BOLD</tspan>
      </text>
      <text fill="#76797D" font-family="Karla-Regular, Karla" font-size="14">
        <tspan x="0" y="38">Secondary headings and buttons</tspan> <tspan x="0" y="55">48px, 18px, 15px, 14px</tspan>
      </text>
    </g>
  </g>
</svg>
