<svg fill="none" height="146" viewBox="0 0 469 146" width="469" xmlns="http://www.w3.org/2000/svg"><path d="m457.26.6h-445.6c-6.10826 0-11.059994 4.95173-11.059994 11.06v122.82c0 6.108 4.951734 11.06 11.059994 11.06h445.6c6.108 0 11.06-4.952 11.06-11.06v-122.82c0-6.10827-4.952-11.06-11.06-11.06z" fill="#2e343c" stroke="#000" stroke-linecap="round" stroke-linejoin="round" stroke-width=".43"/><g fill="#fcfcfc"><path d="m123.794 13.68h-1.465v-3.0469h-2.856v3.0469h-1.465v-7.10937h1.465v2.88085h2.856v-2.88085h1.465z"/><path d="m125.078 13.68v-7.10937h2.188c.625 0 1.183.1416 1.674.4248.495.27995.881.68034 1.158 1.20117.276.51758.415 1.10677.415 1.76758v.32712c0 .6608-.137 1.2484-.41 1.7627-.271.5143-.653.9131-1.148 1.1963s-1.053.4264-1.675.4297zm1.465-5.92285v4.74605h.708c.573 0 1.011-.1871 1.313-.5615.303-.3743.458-.9098.464-1.6064v-.376c0-.72266-.149-1.26953-.449-1.64063-.299-.37435-.737-.56152-1.313-.56152z"/><path d="m133.496 6.57063 1.826 5.15627 1.817-5.15627h1.923v7.10937h-1.469v-1.9434l.146-3.35445-1.919 5.29785h-1.006l-1.914-5.29297.147 3.34957v1.9434h-1.465v-7.10937z"/><path d="m141.899 13.68h-1.464v-7.10937h1.464z"/><path d="m132.016 58.2906v4.6826c0 .778-.245 1.3933-.733 1.8457-.485.4525-1.149.6788-1.992.6788-.83 0-1.489-.2198-1.978-.6592-.488-.4395-.737-1.0433-.747-1.8115v-4.7364h1.465v4.6924c0 .4655.111.8057.332 1.0205.225.2116.534.3174.928.3174.824 0 1.242-.4329 1.255-1.2988v-4.7315z"/><path d="m136.903 63.5348c0-.2767-.097-.4883-.293-.6348-.195-.1497-.547-.306-1.054-.4687-.508-.1661-.91-.3288-1.206-.4883-.808-.4362-1.211-1.0238-1.211-1.7627 0-.3841.107-.7259.322-1.0254.218-.3028.529-.5388.933-.708.406-.1693.862-.2539 1.367-.2539.508 0 .96.0927 1.357.2783.397.1823.705.4411.923.7764.221.3352.332.7161.332 1.1425h-1.465c0-.3255-.102-.5778-.307-.7568-.205-.1823-.494-.2734-.865-.2734-.358 0-.636.0765-.835.2295-.198.1497-.297.3483-.297.5957 0 .2311.115.4248.346.581.235.1563.578.3027 1.03.4395.834.2506 1.441.5615 1.822.9326s.571.8333.571 1.3867c0 .6152-.233 1.0986-.698 1.4502-.466.3483-1.092.5225-1.88.5225-.547 0-1.045-.0993-1.494-.2979-.449-.2018-.793-.4769-1.03-.8252-.235-.3483-.352-.7519-.352-1.2109h1.47c0 .7845.468 1.1767 1.406 1.1767.348 0 .62-.07.815-.2099.196-.1433.293-.3418.293-.5957z"/><path d="m139.369 65.4v-7.1094h2.49c.863 0 1.517.166 1.963.4981.446.3287.669.8121.669 1.4502 0 .3483-.089.6559-.268.9228-.179.2637-.428.4574-.747.5811.364.0911.651.275.859.5517.212.2767.317.6153.317 1.0157 0 .6836-.218 1.2011-.654 1.5527s-1.058.5306-1.865.5371zm1.465-3.0957v1.9189h1.255c.345 0 .613-.0813.806-.2441.195-.166.293-.3939.293-.6836 0-.651-.337-.9814-1.011-.9912zm0-1.0352h1.084c.739-.013 1.108-.3076 1.108-.8837 0-.3223-.094-.5534-.283-.6934-.185-.1432-.48-.2149-.884-.2149h-1.025z"/><path d="m236.982 14.5889h-2.812v1.9043h3.3v1.1768h-4.765v-7.1094h4.756v1.1865h-3.291v1.6944h2.812z"/><path d="m243.779 11.7471h-2.178v5.9229h-1.465v-5.9229h-2.148v-1.1865h5.791z"/><path d="m250.405 17.67h-1.465v-3.0469h-2.856v3.0469h-1.465v-7.1094h1.465v2.8809h2.856v-2.8809h1.465z"/><path d="m255.966 14.5889h-2.812v1.9043h3.301v1.1768h-4.766v-7.1094h4.756v1.1865h-3.291v1.6944h2.812z"/><path d="m259.946 15.0675h-1.167v2.6025h-1.465v-7.1094h2.642c.84 0 1.487.1872 1.943.5615.456.3744.684.9034.684 1.587 0 .485-.106.8903-.318 1.2158-.208.3222-.525.5794-.952.7715l1.538 2.9052v.0684h-1.572zm-1.167-1.1866h1.182c.367 0 .652-.0927.854-.2783.202-.1888.303-.4476.303-.7763 0-.3353-.096-.599-.288-.7911-.189-.192-.48-.2881-.874-.2881h-1.177z"/><path d="m269.482 17.67h-1.465l-2.851-4.6777v4.6777h-1.465v-7.1094h1.465l2.856 4.6875v-4.6875h1.46z"/><path d="m275.039 14.5889h-2.813v1.9043h3.301v1.1768h-4.766v-7.1094h4.756v1.1865h-3.291v1.6944h2.813z"/><path d="m281.836 11.7471h-2.178v5.9229h-1.465v-5.9229h-2.148v-1.1865h5.791z"/><path d="m352.727 77.3075h-1.167v2.6025h-1.465v-7.1094h2.641c.84 0 1.488.1872 1.944.5616.455.3743.683.9033.683 1.5869 0 .485-.106.8903-.317 1.2158-.208.3223-.526.5794-.952.7715l1.538 2.9052v.0684h-1.572zm-1.167-1.1866h1.181c.368 0 .653-.0927.855-.2783.202-.1888.302-.4476.302-.7763 0-.3353-.096-.599-.288-.7911-.188-.192-.48-.288-.874-.288h-1.176z"/><path d="m360.168 78.0448c0-.2767-.098-.4883-.293-.6348-.195-.1497-.547-.306-1.055-.4687-.508-.1661-.91-.3288-1.206-.4883-.807-.4362-1.211-1.0238-1.211-1.7627 0-.3841.108-.7259.323-1.0254.218-.3027.529-.5388.932-.708.407-.1693.863-.2539 1.367-.2539.508 0 .961.0927 1.358.2783.397.1823.705.4411.923.7764.221.3352.332.7161.332 1.1425h-1.465c0-.3255-.103-.5778-.308-.7568-.205-.1823-.493-.2734-.864-.2734-.358 0-.636.0765-.835.2295-.199.1497-.298.3483-.298.5957 0 .2311.116.4248.347.581.234.1563.578.3027 1.03.4395.833.2506 1.441.5615 1.821.9326.381.3711.572.8333.572 1.3867 0 .6152-.233 1.0986-.699 1.4502-.465.3483-1.092.5225-1.879.5225-.547 0-1.045-.0993-1.495-.2979-.449-.2018-.792-.4769-1.03-.8252-.234-.3483-.351-.7519-.351-1.2109h1.469c0 .7845.469 1.1767 1.407 1.1767.348 0 .62-.07.815-.2099.195-.1433.293-.3418.293-.5957z"/><path d="m365.285 77.4344h-2.749v-1.1377h2.749z"/><path d="m371.232 79.91h-4.873v-.9668l2.3-2.4512c.316-.345.549-.6461.698-.9033.153-.2571.23-.5013.23-.7324 0-.3158-.08-.5632-.239-.7422-.16-.1823-.388-.2734-.684-.2734-.319 0-.571.1106-.757.332-.182.2181-.273.5062-.273.8643h-1.416c0-.433.102-.8285.307-1.1866.209-.358.502-.638.879-.8398.378-.2051.806-.3076 1.284-.3076.733 0 1.301.1758 1.705.5273.406.3516.61.848.61 1.4893 0 .3515-.091.7096-.274 1.0742-.182.3646-.494.7894-.937 1.2744l-1.616 1.7041h3.056z"/><path d="m373.537 75.7303h.752c.358 0 .623-.0895.796-.2685.172-.1791.259-.4167.259-.7129 0-.2865-.087-.5095-.259-.669-.169-.1595-.404-.2392-.703-.2392-.27 0-.497.0748-.679.2246-.182.1465-.273.3385-.273.5761h-1.411c0-.371.099-.7031.297-.996.202-.2963.482-.5274.84-.6934.362-.166.759-.249 1.192-.249.752 0 1.341.1806 1.767.542.427.358.64.8528.64 1.4843 0 .3256-.099.625-.298.8985-.199.2734-.459.4834-.781.6299.4.1432.698.358.893.6445.199.2864.298.625.298 1.0156 0 .6315-.231 1.1377-.693 1.5186-.459.3808-1.068.5713-1.826.5713-.71 0-1.291-.1872-1.744-.5616-.449-.3743-.673-.8691-.673-1.4843h1.411c0 .2669.099.485.298.6543.201.1692.449.2539.742.2539.335 0 .597-.0879.786-.2637.192-.179.288-.415.288-.708 0-.7097-.391-1.0645-1.172-1.0645h-.747z"/><path d="m382.717 79.91h-4.873v-.9668l2.3-2.4512c.315-.345.548-.6461.698-.9033.153-.2571.229-.5013.229-.7324 0-.3158-.079-.5632-.239-.7422-.159-.1823-.387-.2734-.684-.2734-.319 0-.571.1106-.756.332-.183.2181-.274.5062-.274.8643h-1.416c0-.433.103-.8285.308-1.1866.208-.358.501-.638.879-.8398.377-.2051.805-.3076 1.284-.3076.732 0 1.3.1758 1.704.5273.407.3516.61.848.61 1.4893 0 .3515-.091.7096-.273 1.0742s-.495.7894-.938 1.2744l-1.616 1.7041h3.057z"/><path d="m235.767 95.3975h-1.167v2.6025h-1.465v-7.1094h2.641c.84 0 1.488.1872 1.944.5615.455.3744.683.9034.683 1.587 0 .485-.105.8903-.317 1.2158-.208.3222-.526.5794-.952.7715l1.538 2.9052v.0684h-1.572zm-1.167-1.1866h1.181c.368 0 .653-.0927.855-.2783.202-.1888.302-.4476.302-.7764 0-.3352-.096-.5989-.288-.791-.188-.192-.48-.2881-.874-.2881h-1.176z"/><path d="m243.799 94.9189h-2.813v1.9043h3.301v1.1768h-4.766v-7.1094h4.756v1.1865h-3.291v1.6944h2.813z"/><path d="m248.833 96.1348c0-.2767-.098-.4883-.293-.6348-.195-.1497-.547-.306-1.055-.4688-.507-.166-.909-.3287-1.206-.4882-.807-.4362-1.211-1.0238-1.211-1.7627 0-.3841.108-.7259.323-1.0254.218-.3028.529-.5388.932-.708.407-.1693.863-.2539 1.367-.2539.508 0 .961.0927 1.358.2783.397.1823.705.4411.923.7764.221.3352.332.7161.332 1.1425h-1.465c0-.3255-.103-.5778-.308-.7568-.205-.1823-.493-.2734-.864-.2734-.358 0-.636.0765-.835.2295-.199.1497-.298.3483-.298.5957 0 .2311.116.4248.347.581.234.1563.578.3027 1.03.4395.833.2506 1.441.5615 1.821.9326.381.3711.572.8333.572 1.3867 0 .6152-.233 1.0986-.699 1.4502-.465.3483-1.092.5225-1.879.5225-.547 0-1.045-.0993-1.495-.2979-.449-.2018-.792-.4769-1.03-.8252-.234-.3483-.351-.7519-.351-1.2109h1.469c0 .7845.469 1.1767 1.407 1.1767.348 0 .62-.07.815-.2099.195-.1433.293-.3418.293-.5957z"/><path d="m256.65 92.0771h-2.177v5.9229h-1.465v-5.9229h-2.149v-1.1865h5.791z"/><path d="m260.918 96.5352h-2.568l-.489 1.4648h-1.557l2.646-7.1094h1.358l2.661 7.1094h-1.558zm-2.173-1.1866h1.777l-.893-2.6611z"/><path d="m266.265 95.3975h-1.167v2.6025h-1.465v-7.1094h2.641c.84 0 1.488.1872 1.944.5615.456.3744.683.9034.683 1.587 0 .485-.105.8903-.317 1.2158-.208.3222-.526.5794-.952.7715l1.538 2.9052v.0684h-1.572zm-1.167-1.1866h1.181c.368 0 .653-.0927.855-.2783.202-.1888.303-.4476.303-.7764 0-.3352-.097-.5989-.289-.791-.188-.192-.48-.2881-.874-.2881h-1.176z"/><path d="m275.127 92.0771h-2.178v5.9229h-1.465v-5.9229h-2.148v-1.1865h5.791z"/><path d="m287.73 95.4951v2.5049h-1.465v-7.1094h2.773c.534 0 1.003.0977 1.406.293.407.1953.72.4736.938.835.218.358.327.7666.327 1.2255 0 .6967-.239 1.2468-.718 1.6504-.475.4004-1.134.6006-1.977.6006zm0-1.1865h1.308c.388 0 .682-.0912.884-.2734.205-.1823.308-.4428.308-.7813 0-.3483-.103-.6299-.308-.8447-.205-.2149-.488-.3255-.85-.3321h-1.342z"/><path d="m298.257 95.9492.957-5.0586h1.46l-1.577 7.1094h-1.475l-1.157-4.7559-1.157 4.7559h-1.475l-1.577-7.1094h1.46l.962 5.0489 1.172-5.0489h1.24z"/><path d="m304.102 95.3975h-1.167v2.6025h-1.465v-7.1094h2.641c.84 0 1.488.1872 1.944.5615.456.3744.683.9034.683 1.587 0 .485-.105.8903-.317 1.2158-.208.3222-.526.5794-.952.7715l1.538 2.9052v.0684h-1.572zm-1.167-1.1866h1.181c.368 0 .653-.0927.855-.2783.202-.1888.303-.4476.303-.7764 0-.3352-.096-.5989-.289-.791-.188-.192-.48-.2881-.874-.2881h-1.176z"/><path d="m425.308 99.0475h-1.167v2.6025h-1.464v-7.1094h2.641c.84 0 1.488.1872 1.944.5615.455.3744.683.9034.683 1.587 0 .485-.106.8903-.317 1.2158-.209.3222-.526.5794-.952.7715l1.538 2.9056v.068h-1.573zm-1.167-1.1866h1.182c.368 0 .653-.0927.855-.2783.201-.1888.302-.4476.302-.7763 0-.3353-.096-.599-.288-.7911-.189-.192-.48-.2881-.874-.2881h-1.177z"/><path d="m433.341 98.5689h-2.813v1.9041h3.301v1.177h-4.766v-7.1094h4.756v1.1865h-3.291v1.6944h2.813z"/><path d="m438.375 99.7848c0-.2767-.098-.4883-.293-.6348-.195-.1497-.547-.306-1.055-.4687-.508-.1661-.91-.3288-1.206-.4883-.807-.4362-1.211-1.0238-1.211-1.7627 0-.3841.108-.7259.322-1.0254.219-.3028.529-.5388.933-.708.407-.1693.863-.2539 1.367-.2539.508 0 .961.0927 1.358.2783.397.1823.704.4411.923.7764.221.3352.332.7161.332 1.1425h-1.465c0-.3255-.103-.5778-.308-.7568-.205-.1823-.493-.2734-.864-.2734-.358 0-.637.0765-.835.2295-.199.1497-.298.3483-.298.5957 0 .2311.116.4248.347.581.234.1563.578.3027 1.03.4395.833.2506 1.44.5615 1.821.9326s.572.8333.572 1.3867c0 .615-.233 1.099-.699 1.45-.465.349-1.092.523-1.88.523-.546 0-1.044-.1-1.494-.298-.449-.202-.792-.477-1.03-.825-.234-.349-.351-.7523-.351-1.2113h1.469c0 .7843.469 1.1763 1.406 1.1763.349 0 .621-.07.816-.21.195-.143.293-.341.293-.5952z"/><path d="m445.118 98.5689h-2.812v1.9041h3.3v1.177h-4.765v-7.1094h4.756v1.1865h-3.291v1.6944h2.812z"/><path d="m451.915 95.7271h-2.178v5.9229h-1.465v-5.9229h-2.148v-1.1865h5.791z"/></g><path d="m39 82.43c0 1.78-.5278 3.5201-1.5168 5.0001-.9889 1.4801-2.3945 2.6336-4.039 3.3148-1.6446.6812-3.4542.8594-5.2.5122-1.7458-.3473-3.3495-1.2045-4.6082-2.4631-1.2586-1.2587-2.1158-2.8624-2.4631-4.6082-.3472-1.7458-.169-3.5554.5122-5.2.6812-1.6445 1.8347-3.0501 3.3148-4.039 1.48-.989 3.2201-1.5168 5.0001-1.5168 1.1819 0 2.3522.2328 3.4442.6851 1.0919.4523 2.084 1.1152 2.9198 1.9509.8357.8358 1.4986 1.8279 1.9509 2.9198.4523 1.092.6851 2.2623.6851 3.4442z" stroke="#000" stroke-linecap="round" stroke-linejoin="round" stroke-width=".43"/><path d="m98.77 18.12h62.36v34.02h-62.36z" stroke="#000" stroke-linecap="round" stroke-linejoin="round" stroke-width=".43"/><path d="m235.93 22.55h41.67v46.2h-41.67z" stroke="#000" stroke-linecap="round" stroke-linejoin="round" stroke-width=".43"/><path d="m443.13 112c0 1.21-.359 2.394-1.031 3.4-.673 1.007-1.629 1.791-2.747 2.254s-2.349.585-3.536.348c-1.187-.236-2.278-.819-3.133-1.675-.856-.855-1.439-1.946-1.675-3.133-.237-1.187-.115-2.418.348-3.536s1.248-2.074 2.254-2.747c1.006-.672 2.19-1.031 3.4-1.031 1.623 0 3.18.645 4.328 1.793 1.147 1.147 1.792 2.704 1.792 4.327z" fill="#738498" stroke="#000" stroke-linecap="round" stroke-linejoin="round" stroke-width=".43"/><path d="m302.42 108.38c0 1.21-.359 2.394-1.031 3.4-.673 1.007-1.629 1.791-2.747 2.254s-2.349.585-3.536.348c-1.187-.236-2.278-.819-3.134-1.675-.855-.855-1.438-1.946-1.674-3.133-.237-1.187-.115-2.418.348-3.536s1.247-2.074 2.254-2.747c1.006-.672 2.19-1.031 3.4-1.031.804 0 1.6.158 2.342.466.743.307 1.417.758 1.985 1.327.569.568 1.02 1.242 1.327 1.985.308.742.466 1.538.466 2.342z" fill="#738498" stroke="#000" stroke-linecap="round" stroke-linejoin="round" stroke-width=".43"/><path d="m259.22 108.38c0 1.21-.359 2.394-1.031 3.4-.673 1.007-1.629 1.791-2.747 2.254s-2.349.585-3.536.348c-1.187-.236-2.278-.819-3.134-1.675-.855-.855-1.438-1.946-1.674-3.133-.237-1.187-.115-2.418.348-3.536s1.247-2.074 2.254-2.747c1.006-.672 2.19-1.031 3.4-1.031.804 0 1.599.158 2.342.466.743.307 1.417.758 1.985 1.327.569.568 1.02 1.242 1.327 1.985.308.742.466 1.538.466 2.342z" fill="#738498" stroke="#000" stroke-linecap="round" stroke-linejoin="round" stroke-width=".43"/><path d="m338.45 105.58c0 1.054-.313 2.085-.898 2.961-.586.877-1.418 1.56-2.392 1.963-.974.404-2.046.509-3.08.304-1.034-.206-1.983-.714-2.729-1.459-.745-.746-1.253-1.695-1.459-2.729-.205-1.034-.1-2.106.304-3.08.403-.974 1.086-1.806 1.963-2.392.876-.585 1.907-.898 2.961-.898.7-.001 1.394.136 2.041.403.648.267 1.236.66 1.731 1.155s.888 1.083 1.155 1.731c.267.647.404 1.341.403 2.041z" stroke="#000" stroke-linecap="round" stroke-linejoin="round" stroke-width=".43"/><path d="m390.92 99c.38 3.62-3.56 15.08-3.56 15.08-.108.67-.477 1.27-1.026 1.669s-1.233.565-1.904.461h-35.16c-.813.13-1.645-.05-2.331-.504-.687-.453-1.179-1.148-1.379-1.946 0 0-4.09-10.68-3.85-14.25.45-3.59 1.35-6.22 4.89-6.22h39.19c.216-.0195.434-.0195.65 0 3.1.06 4.21 3.61 4.48 5.71z" stroke="#000" stroke-linecap="round" stroke-linejoin="round" stroke-width=".43"/><path d="m405.76 105.58c0 1.054-.312 2.084-.898 2.96-.585.876-1.417 1.56-2.39 1.963-.973.404-2.045.51-3.078.305-1.034-.205-1.984-.711-2.729-1.456-.746-.744-1.255-1.693-1.461-2.726-.207-1.033-.103-2.105.299-3.079s1.083-1.807 1.959-2.394c.875-.587 1.904-.901 2.958-.903.701-.001 1.395.136 2.043.403s1.236.66 1.732 1.155.89 1.083 1.158 1.73c.269.647.407 1.341.407 2.042z" stroke="#000" stroke-linecap="round" stroke-linejoin="round" stroke-width=".43"/><path d="m55.2 73.43h40.58v47.1h-40.58z" stroke="#000" stroke-linecap="round" stroke-linejoin="round" stroke-width=".43"/><path d="m115.49 73.43h40.58v47.1h-40.58z" stroke="#000" stroke-linecap="round" stroke-linejoin="round" stroke-width=".43"/><path d="m175.78 73.43h40.58v47.1h-40.58z" fill="#2e343c" stroke="#000" stroke-linecap="round" stroke-linejoin="round" stroke-width=".43"/><path d="m19 10.9c0 .9889-.2932 1.9556-.8426 2.7779-.5495.8222-1.3303 1.4631-2.244 1.8415-.9136.3784-1.9189.4775-2.8888.2845-.97-.1929-1.8609-.6691-2.5601-1.3684-.69929-.6992-1.1755-1.5901-1.36842-2.56-.19293-.97-.09391-1.97529.28452-2.88892.37844-.91363 1.0193-1.69452 1.8416-2.24393.8222-.54941 1.7889-.84265 2.7778-.84265 1.3261 0 2.5979.52678 3.5355 1.46447.9377.93768 1.4645 2.20945 1.4645 3.53553z" fill="#454f5b" stroke="#000" stroke-linecap="round" stroke-linejoin="round" stroke-width=".43"/><path d="m19 134.28c0 .989-.2932 1.956-.8426 2.778-.5495.822-1.3303 1.463-2.244 1.841-.9136.379-1.9189.478-2.8888.285-.97-.193-1.8609-.669-2.5601-1.368-.69929-.7-1.1755-1.591-1.36842-2.561-.19293-.969-.09391-1.975.28452-2.888.37844-.914 1.0193-1.695 1.8416-2.244.8222-.55 1.7889-.843 2.7778-.843 1.3261 0 2.5979.527 3.5355 1.464.9377.938 1.4645 2.21 1.4645 3.536z" fill="#454f5b" stroke="#000" stroke-linecap="round" stroke-linejoin="round" stroke-width=".43"/><path d="m459.84 134.28c0 .989-.293 1.956-.843 2.778-.549.822-1.33 1.463-2.244 1.841-.913.379-1.919.478-2.888.285-.97-.193-1.861-.669-2.561-1.368-.699-.7-1.175-1.591-1.368-2.561-.193-.969-.094-1.975.285-2.888.378-.914 1.019-1.695 1.841-2.244.822-.55 1.789-.843 2.778-.843 1.326 0 2.598.527 3.535 1.464.938.938 1.465 2.21 1.465 3.536z" fill="#454f5b" stroke="#000" stroke-linecap="round" stroke-linejoin="round" stroke-width=".43"/><path d="m459.84 10.9c0 .9889-.293 1.9556-.843 2.7779-.549.8222-1.33 1.4631-2.244 1.8415-.913.3784-1.919.4775-2.888.2845-.97-.1929-1.861-.6691-2.561-1.3684-.699-.6992-1.175-1.5901-1.368-2.56-.193-.97-.094-1.97529.285-2.88892.378-.91363 1.019-1.69452 1.841-2.24393s1.789-.84265 2.778-.84265c1.326 0 2.598.52678 3.535 1.46447.938.93768 1.465 2.20945 1.465 3.53553z" fill="#454f5b" stroke="#000" stroke-linecap="round" stroke-linejoin="round" stroke-width=".43"/><path d="m55.2 69.75h161.17" stroke="#fcfcfc" stroke-miterlimit="10"/><path d="m179.13 113.67h34.71v-14.2h-35.55v14.2zm.84-12.47h32.23v10.8h-32.2z" fill="#454f5b" stroke="#000" stroke-miterlimit="10" stroke-width=".25"/><path d="m181.48 106.61v-3.82h29.26v3.82h-3.33v.75h-3.46v-.75h-3.24v.75h-3.46v-.75h-2.31v.75h-3.47v-.75h-3.24v.75h-3.46v-.75z" fill="#fcfcfc"/><path d="m179.13 94.64h34.71v-14.21h-35.55v14.2zm.87-12.48h32.2v10.84h-32.2z" fill="#454f5b" stroke="#000" stroke-miterlimit="10" stroke-width=".25"/><path d="m181.48 87.58v-3.82h29.26v3.82h-3.33v.75h-3.46v-.75h-3.24v.75h-3.46v-.75h-2.31v.75h-3.47v-.75h-3.24v.75h-3.46v-.75z" fill="#fcfcfc"/><path d="m118.85 113.67h34.71v-14.2h-35.56v14.2zm.84-12.47h32.23v10.8h-32.22z" fill="#454f5b" stroke="#000" stroke-miterlimit="10" stroke-width=".25"/><path d="m121.2 106.61v-3.82h29.26v3.82h-3.33v.75h-3.46v-.75h-3.24v.75h-3.47v-.75h-2.3v.75h-3.47v-.75h-3.24v.75h-3.46v-.75z" fill="#fcfcfc"/><path d="m118.85 94.64h34.71v-14.21h-35.56v14.2zm.84-12.47h32.23v10.83h-32.22z" fill="#454f5b" stroke="#000" stroke-miterlimit="10" stroke-width=".25"/><path d="m121.2 87.58v-3.82h29.26v3.82h-3.33v.75h-3.46v-.75h-3.24v.75h-3.47v-.75h-2.3v.75h-3.47v-.75h-3.24v.75h-3.46v-.75z" fill="#fcfcfc"/><path d="m58.56 113.67h34.71v-14.2h-35.55v14.2zm.84-12.47h32.23v10.8h-32.23z" fill="#454f5b" stroke="#000" stroke-miterlimit="10" stroke-width=".25"/><path d="m60.9 106.61v-3.82h29.27v3.82h-3.33v.75h-3.47v-.75h-3.24v.75h-3.46v-.75h-2.31v.75h-3.46v-.75h-3.24v.75h-3.46v-.75z" fill="#fcfcfc"/><path d="m58.56 94.64h34.71v-14.21h-35.55v14.2zm.84-12.47h32.23v10.83h-32.23z" fill="#454f5b" stroke="#000" stroke-miterlimit="10" stroke-width=".25"/><path d="m60.9 87.58v-3.82h29.27v3.82h-3.33v.75h-3.47v-.75h-3.24v.75h-3.46v-.75h-2.31v.75h-3.46v-.75h-3.24v.75h-3.46v-.75z" fill="#fcfcfc"/><path d="m237.63 24.6v42.09h38.27v-42.09zm31 28.7h-4.63v2.7h-1.91v1.91h-10.68v-1.91h-2.3v-2.7h-4.21v-18h1.91v6.9h1.19v-6.88h1.53v6.88h1.15v-6.88h1.53v6.88h1.15v-6.88h1.53v6.88h1.11v-6.88h1.53v6.88h1.15v-6.88h1.53v6.88h1.15v-6.88h1.53v6.88h1.11v-6.88h1.53v6.88h1.15v-6.88h1.91z" fill="#454f5b" stroke="#000" stroke-miterlimit="10" stroke-width=".25"/><path d="m349.62 99.66c-.451 0-.883.1791-1.202.498-.319.319-.498.751-.498 1.202s.179.883.498 1.202.751.498 1.202.498c.222.001.443-.041.648-.126.206-.084.393-.209.55-.366s.282-.344.366-.55c.085-.205.127-.426.126-.648.001-.223-.041-.445-.126-.651-.084-.207-.208-.395-.365-.554s-.343-.2851-.549-.3718c-.206-.0866-.427-.1319-.65-.1332zm4.68 6.87c-.452.005-.883.189-1.2.511-.316.323-.493.757-.49 1.209-.001.222.042.442.126.647.085.205.209.391.367.547.157.157.344.28.549.364.206.083.426.125.648.122.223.003.445-.039.652-.122s.396-.206.556-.362.287-.342.375-.547.134-.426.137-.649c-.003-.455-.185-.891-.507-1.213s-.758-.504-1.213-.507zm3.68-6.87c-.451 0-.883.1791-1.202.498-.319.319-.498.751-.498 1.202s.179.883.498 1.202.751.498 1.202.498c.222.001.442-.042.647-.126.205-.085.391-.209.548-.367.156-.157.279-.344.363-.549.083-.206.125-.426.122-.648.005-.447-.166-.877-.477-1.197-.311-.3208-.736-.5051-1.183-.513zm4.68 6.87c-.452.005-.883.189-1.2.511-.316.323-.493.757-.49 1.209-.001.222.042.442.126.647.085.205.209.391.367.547.157.157.344.28.549.364.206.083.426.125.648.122.223.003.444-.039.651-.122.206-.083.395-.206.553-.362.159-.156.286-.342.373-.548.086-.205.132-.425.133-.648 0-.454-.18-.89-.5-1.213-.321-.322-.756-.504-1.21-.507zm3.67-6.87c-.451 0-.883.1791-1.202.498-.319.319-.498.751-.498 1.202s.179.883.498 1.202.751.498 1.202.498c.222.001.443-.041.648-.126.206-.084.393-.209.55-.366s.282-.344.366-.55c.085-.205.127-.426.126-.648.001-.223-.041-.445-.126-.651-.084-.207-.208-.395-.365-.554s-.343-.2851-.549-.3718c-.206-.0866-.427-.1319-.65-.1332zm4.68 6.87c-.452.005-.883.189-1.2.511-.316.323-.493.757-.49 1.209 0 .448.178.878.495 1.195s.747.495 1.195.495.878-.178 1.195-.495.495-.747.495-1.195c.001-.225-.042-.447-.126-.655-.085-.208-.21-.397-.368-.557s-.345-.287-.552-.374-.429-.133-.654-.134zm3.64-6.87c-.223.0013-.444.0466-.65.1332-.206.0867-.392.2128-.549.3718s-.281.347-.365.554c-.085.206-.127.428-.126.651-.001.222.042.443.126.648.084.206.209.393.366.55s.344.282.55.366c.205.085.426.127.648.126.451 0 .883-.179 1.202-.498s.498-.751.498-1.202-.179-.883-.498-1.202c-.319-.3189-.751-.498-1.202-.498zm4.71 6.87c-.455.003-.891.185-1.213.507s-.504.758-.507 1.213c.003.223.049.444.137.649s.215.391.375.547.349.279.556.362.429.125.652.122c.222.003.442-.039.648-.122.205-.084.392-.207.549-.364.158-.156.282-.342.367-.547.084-.205.127-.425.126-.647.003-.452-.174-.886-.49-1.209-.317-.322-.748-.506-1.2-.511zm3.65-7c-.452.0053-.883.1891-1.2.511-.316.323-.493.757-.49 1.209-.001.222.042.442.126.647.085.205.209.391.367.547.157.157.344.28.549.364.206.083.426.125.648.122.223.003.444-.039.651-.122.206-.083.395-.206.553-.362.159-.156.286-.342.373-.548.086-.205.132-.425.133-.648-.003-.454-.185-.889-.507-1.21-.323-.3202-.759-.5-1.213-.5zm-33.39.12c-.451 0-.883.1791-1.202.498-.319.319-.498.751-.498 1.202s.179.883.498 1.202.751.498 1.202.498c.222.001.443-.041.648-.126.206-.084.393-.209.55-.366s.282-.344.366-.55c.085-.205.127-.426.126-.648 0-.449-.178-.88-.494-1.199-.317-.3181-.747-.4984-1.196-.501zm4.68 6.87c-.452.005-.883.189-1.2.511-.316.323-.493.757-.49 1.209-.001.222.042.442.126.647.085.205.209.391.367.547.157.157.344.28.549.364.206.083.426.125.648.122.223.003.445-.039.652-.122s.396-.206.556-.362.287-.342.375-.547.134-.426.137-.649c-.005-.454-.188-.887-.51-1.207s-.756-.5-1.21-.503zm3.68-6.87c-.451 0-.883.1791-1.202.498-.319.319-.498.751-.498 1.202s.179.883.498 1.202.751.498 1.202.498c.222.001.442-.042.647-.126.205-.085.391-.209.548-.367.156-.157.279-.344.363-.549.083-.206.125-.426.122-.648.003-.445-.17-.873-.481-1.191-.311-.3182-.734-.5011-1.179-.509zm4.68 6.87c-.452.005-.883.189-1.2.511-.316.323-.493.757-.49 1.209-.001.222.042.442.126.647.085.205.209.391.367.547.157.157.344.28.549.364.206.083.426.125.648.122.223.003.444-.039.651-.122.206-.083.395-.206.553-.362.159-.156.286-.342.373-.548.086-.205.132-.425.133-.648-.003-.453-.184-.886-.504-1.206s-.753-.501-1.206-.504zm3.67-6.87c-.451 0-.883.1791-1.202.498-.319.319-.498.751-.498 1.202s.179.883.498 1.202.751.498 1.202.498c.222.001.443-.041.648-.126.206-.084.393-.209.55-.366s.282-.344.366-.55c.085-.205.127-.426.126-.648 0-.449-.178-.88-.494-1.199-.317-.3181-.747-.4984-1.196-.501zm4.68 6.87c-.452.005-.883.189-1.2.511-.316.323-.493.757-.49 1.209 0 .448.178.878.495 1.195s.747.495 1.195.495.878-.178 1.195-.495.495-.747.495-1.195c0-.452-.179-.885-.497-1.206-.319-.32-.751-.501-1.203-.504zm3.64-6.87c-.223.0013-.444.0466-.65.1332-.206.0867-.392.213-.549.3718-.157.159-.281.347-.365.554-.085.206-.127.428-.126.651-.001.222.042.443.126.648.084.206.209.393.366.55s.344.282.55.366c.205.085.426.127.648.126.451 0 .883-.179 1.202-.498s.498-.751.498-1.202-.179-.883-.498-1.202c-.319-.3189-.751-.498-1.202-.498zm4.71 6.87c-.455.003-.891.185-1.213.507s-.504.758-.507 1.213c.003.223.049.444.137.649s.215.391.375.547.349.279.556.362.429.125.652.122c.222.003.442-.039.648-.122.205-.084.392-.207.549-.364.158-.156.282-.342.367-.547.084-.205.127-.425.126-.647 0-.45-.177-.882-.494-1.202-.316-.32-.746-.503-1.196-.508zm3.65-7c-.452.0053-.883.1891-1.2.511-.316.323-.493.757-.49 1.209-.001.222.042.442.126.647.085.205.209.391.367.547.157.157.344.28.549.364.206.083.426.125.648.122.223.003.444-.039.651-.122.206-.083.395-.206.553-.362.159-.156.286-.342.373-.548.086-.205.132-.425.133-.648-.005-.453-.189-.885-.511-1.203-.322-.3186-.756-.497-1.209-.497zm0 0c-.452.0053-.883.1891-1.2.511-.316.323-.493.757-.49 1.209-.001.222.042.442.126.647.085.205.209.391.367.547.157.157.344.28.549.364.206.083.426.125.648.122.223.003.444-.039.651-.122.206-.083.395-.206.553-.362.159-.156.286-.342.373-.548.086-.205.132-.425.133-.648-.005-.453-.189-.885-.511-1.203-.322-.3186-.756-.497-1.209-.497zm-33.39.12c-.223 0-.444.044-.651.1294-.206.0854-.393.2107-.551.3686-.158.158-.283.345-.369.551-.085.207-.129.428-.129.651s.044.444.129.651c.086.206.211.393.369.551s.345.283.551.369c.207.085.428.129.651.129.222.001.443-.041.648-.126.206-.084.393-.209.55-.366s.282-.344.366-.55c.085-.205.127-.426.126-.648-.003-.447-.181-.876-.498-1.192-.316-.3165-.745-.4954-1.192-.498zm8.36 0c-.223 0-.444.044-.651.1294-.206.0854-.393.2107-.551.3686-.158.158-.283.345-.369.551-.085.207-.129.428-.129.651s.044.444.129.651c.086.206.211.393.369.551s.345.283.551.369c.207.085.428.129.651.129.222.001.442-.042.647-.126.205-.085.391-.209.548-.367.156-.157.279-.344.363-.549.083-.206.125-.426.122-.648 0-.443-.174-.868-.484-1.185-.311-.3156-.733-.4971-1.176-.505zm8.35 0c-.223 0-.444.044-.651.1294-.206.0854-.393.2107-.551.3686-.158.158-.283.345-.369.551-.085.207-.129.428-.129.651s.044.444.129.651c.086.206.211.393.369.551s.345.283.551.369c.207.085.428.129.651.129.222.001.443-.041.648-.126.206-.084.393-.209.55-.366s.282-.344.366-.55c.085-.205.127-.426.126-.648-.003-.447-.181-.876-.498-1.192-.316-.3165-.745-.4954-1.192-.498zm8.32 0c-.223.0013-.444.0466-.65.1332-.206.0867-.392.213-.549.3718-.157.159-.281.347-.365.554-.085.206-.127.428-.126.651-.001.222.042.443.126.648.084.206.209.393.366.55s.344.282.55.366c.205.085.426.127.648.126.451 0 .883-.179 1.202-.498s.498-.751.498-1.202-.179-.883-.498-1.202c-.319-.3189-.751-.498-1.202-.498zm-20.35 6.87c-.452.005-.883.189-1.2.511-.316.323-.493.757-.49 1.209-.001.222.042.442.126.647.085.205.209.391.367.547.157.157.344.28.549.364.206.083.426.125.648.122.223.003.445-.039.652-.122s.396-.206.556-.362.287-.342.375-.547.134-.426.137-.649c-.008-.452-.192-.883-.514-1.2-.321-.318-.754-.497-1.206-.5zm8.36 0c-.452.005-.883.189-1.2.511-.316.323-.493.757-.49 1.209-.001.222.042.442.126.647.085.205.209.391.367.547.157.157.344.28.549.364.206.083.426.125.648.122.223.003.444-.039.651-.122.206-.083.395-.206.553-.362.159-.156.286-.342.373-.548.086-.205.132-.425.133-.648-.005-.451-.187-.882-.507-1.2s-.752-.497-1.203-.5zm8.35 0c-.452.005-.883.189-1.2.511-.316.323-.493.757-.49 1.209 0 .448.178.878.495 1.195s.747.495 1.195.495.878-.178 1.195-.495.495-.747.495-1.195c-.003-.45-.183-.881-.501-1.199s-.749-.498-1.199-.501zm8.35 0c-.455.003-.891.185-1.213.507s-.504.758-.507 1.213c.003.223.049.444.137.649s.215.391.375.547.349.279.556.362.429.125.652.122c.222.003.442-.039.648-.122.205-.084.392-.207.549-.364.158-.156.282-.342.367-.547.084-.205.127-.425.126-.647-.003-.448-.181-.878-.497-1.196s-.745-.499-1.193-.504z" fill="#454f5b" stroke="#000" stroke-miterlimit="10" stroke-width=".25"/><path d="m410.34 87.12c-.269-.6614-.667-1.263-1.17-1.77-.504-.5064-1.107-.9045-1.77-1.17-.611-.2414-1.263-.3636-1.92-.36h-78.33c-.66-.0036-1.315.1185-1.93.36-.659.2681-1.258.666-1.76 1.17-.506.5044-.904 1.1067-1.17 1.77-.242.6109-.365 1.2628-.36 1.92v31.78h88.77v-31.82c0-.6437-.123-1.2816-.36-1.88zm-77.22 23.79c-1.054 0-2.085-.313-2.961-.898-.877-.586-1.56-1.418-1.963-2.392-.404-.974-.509-2.046-.304-3.08.206-1.034.714-1.983 1.459-2.729.746-.745 1.695-1.253 2.729-1.459 1.034-.205 2.106-.1 3.08.304.974.403 1.806 1.086 2.392 1.963.585.876.898 1.907.898 2.961 0 1.414-.562 2.769-1.561 3.769-1 .999-2.355 1.561-3.769 1.561zm54.24 3.17c-.108.67-.477 1.27-1.026 1.669s-1.233.565-1.904.461h-35.16c-.813.13-1.645-.05-2.331-.504-.687-.453-1.179-1.148-1.379-1.946 0 0-4.09-10.68-3.85-14.25.45-3.59 1.35-6.22 4.89-6.22h39.19c.216-.0195.434-.0195.65 0 3.1.09 4.21 3.64 4.48 5.74.38 3.59-3.56 15.05-3.56 15.05zm13.06-3.17c-1.054-.002-2.083-.316-2.958-.903-.876-.587-1.557-1.42-1.959-2.394s-.506-2.046-.299-3.079c.206-1.033.715-1.982 1.461-2.726.745-.745 1.695-1.251 2.729-1.456 1.033-.205 2.105-.099 3.078.305.973.403 1.805 1.087 2.39 1.963.586.876.898 1.906.898 2.96 0 .701-.138 1.395-.407 2.042-.268.647-.662 1.235-1.158 1.73s-1.084.888-1.732 1.155-1.342.404-2.043.403z" fill="#454f5b" stroke="#000" stroke-miterlimit="10" stroke-width=".25"/><path d="m118.26 34h.12v-.56h1.18v.56h1.18v-.56h1.18v.56h1.18v-.56h1.18v.56h1.18v-.56h1.18v.56h1.18v-.56h1.18v.56h1.18v-.56h1.18v.56h1.18v-.56h1.18v.56h1.28v-.56h1.18v.56h1.18v-.56h1.18v.56h1.18v-.56h1.18v.56h1.37v1.4h-.19v.6h-1.18v-.6h-1.2v.6h-1.18v-.6h-1.18v.6h-1.18v-.6h-1.16v.6h-1.18v-.6h-1.22v.6h-1.18v-.6h-1.18v.6h-1.24v-.6h-1.18v.6h-1.18v-.6h-1.18v.6h-1.18v-.6h-1.18v.6h-1.18v-.6h-1.18v.6h-1.18v-.6h-1.31zm-3.18-5.24h30.42c.561.0059 1.098.228 1.5.62.2.195.357.4285.464.6864.107.2578.16.5346.156.8136v5.36c-.006.5612-.228 1.0984-.62 1.5-.185.1938-.406.3485-.652.455s-.51.1626-.778.165c-.436.1371-.84.3635-1.184.6648-.344.3012-.622.6708-.816 1.0852-.56.81-1 1.5-2.06 1.5h-22.44c-1 0-1.62-.81-2.24-1.68-.5-.69-1.06-1.43-1.81-1.56-.268-.0024-.532-.0585-.778-.165s-.467-.2612-.652-.455c-.2-.195-.357-.4285-.464-.6864-.107-.2578-.16-.5346-.156-.8136v-5.34c.006-.5612.228-1.0984.62-1.5.194-.1983.426-.3554.682-.462.256-.1065.531-.1603.808-.158zm29.92 1.59h-29.42c-.279.0088-.546.119-.75.31-.101.0964-.181.213-.235.3421-.053.1292-.079.2682-.075.4079v4.36c.009.2794.119.546.31.75.096.1012.213.1811.342.2345s.268.0791.408.0755h.06c.543.1358 1.051.3839 1.492.7284s.805.7777 1.068 1.2716c.44.62.87 1.18 1.37 1.18h21.43c.44 0 .75-.5 1.12-1 .277-.5254.657-.9894 1.117-1.364.461-.3747.992-.6522 1.563-.816h.12c.279-.0088.546-.119.75-.31.101-.0964.181-.213.234-.3421.054-.1292.08-.2682.076-.4079v-4.36c-.009-.2794-.119-.546-.31-.75-.096-.1012-.213-.1811-.342-.2345s-.268-.0791-.408-.0755z" fill="#454f5b" stroke="#000" stroke-miterlimit="10" stroke-width=".25"/><path d="m30.37 76.07h-.73c-3.3137 0-6 2.6863-6 6v.73c0 3.3137 2.6863 6 6 6h.73c3.3137 0 6-2.6863 6-6v-.73c0-3.3137-2.6863-6-6-6z" fill="#000"/><path d="m30.37 11.76h-.73c-3.3137 0-6 2.6863-6 6v.73c0 3.3137 2.6863 6 6 6h.73c3.3137 0 6-2.6863 6-6v-.73c0-3.3137-2.6863-6-6-6z" fill="#000"/><path d="m23.64 18.49h12.73v64.31h-12.73z" fill="#000"/></svg>