<svg width="469" height="146" viewBox="0 0 469 146" fill="none" xmlns="http://www.w3.org/2000/svg">
<path d="M457.26 0.6H11.66C5.55174 0.6 0.600006 5.55173 0.600006 11.66V134.48C0.600006 140.588 5.55174 145.54 11.66 145.54H457.26C463.368 145.54 468.32 140.588 468.32 134.48V11.66C468.32 5.55173 463.368 0.6 457.26 0.6Z" fill="#2E343C" stroke="black" stroke-width="0.43" stroke-linecap="round" stroke-linejoin="round"/>
<path d="M123.794 13.68H122.329V10.6331H119.473V13.68H118.008V6.57063H119.473V9.45148H122.329V6.57063H123.794V13.68Z" fill="#FCFCFC"/>
<path d="M125.078 13.68V6.57063H127.266C127.891 6.57063 128.449 6.71223 128.94 6.99543C129.435 7.27538 129.821 7.67577 130.098 8.1966C130.374 8.71418 130.513 9.30337 130.513 9.96418V10.2913C130.513 10.9521 130.376 11.5397 130.103 12.054C129.832 12.5683 129.45 12.9671 128.955 13.2503C128.46 13.5335 127.902 13.6767 127.28 13.68H125.078ZM126.543 7.75715V12.5032H127.251C127.824 12.5032 128.262 12.3161 128.564 11.9417C128.867 11.5674 129.022 11.0319 129.028 10.3353V9.9593C129.028 9.23664 128.879 8.68977 128.579 8.31867C128.28 7.94432 127.842 7.75715 127.266 7.75715H126.543Z" fill="#FCFCFC"/>
<path d="M133.496 6.57063L135.322 11.7269L137.139 6.57063H139.062V13.68H137.593V11.7366L137.739 8.38215L135.82 13.68H134.814L132.9 8.38703L133.047 11.7366V13.68H131.582V6.57063H133.496Z" fill="#FCFCFC"/>
<path d="M141.899 13.68H140.435V6.57063H141.899V13.68Z" fill="#FCFCFC"/>
<path d="M132.016 58.2906V62.9732C132.016 63.7512 131.771 64.3665 131.283 64.8189C130.798 65.2714 130.134 65.4977 129.291 65.4977C128.461 65.4977 127.802 65.2779 127.313 64.8385C126.825 64.399 126.576 63.7952 126.566 63.027V58.2906H128.031V62.983C128.031 63.4485 128.142 63.7887 128.363 64.0035C128.588 64.2151 128.897 64.3209 129.291 64.3209C130.115 64.3209 130.533 63.888 130.546 63.0221V58.2906H132.016Z" fill="#FCFCFC"/>
<path d="M136.903 63.5348C136.903 63.2581 136.806 63.0465 136.61 62.9C136.415 62.7503 136.063 62.594 135.556 62.4313C135.048 62.2652 134.646 62.1025 134.35 61.943C133.542 61.5068 133.139 60.9192 133.139 60.1803C133.139 59.7962 133.246 59.4544 133.461 59.1549C133.679 58.8521 133.99 58.6161 134.394 58.4469C134.8 58.2776 135.256 58.193 135.761 58.193C136.269 58.193 136.721 58.2857 137.118 58.4713C137.515 58.6536 137.823 58.9124 138.041 59.2477C138.262 59.5829 138.373 59.9638 138.373 60.3902H136.908C136.908 60.0647 136.806 59.8124 136.601 59.6334C136.396 59.4511 136.107 59.36 135.736 59.36C135.378 59.36 135.1 59.4365 134.901 59.5895C134.703 59.7392 134.604 59.9378 134.604 60.1852C134.604 60.4163 134.719 60.61 134.95 60.7662C135.185 60.9225 135.528 61.0689 135.98 61.2057C136.814 61.4563 137.421 61.7672 137.802 62.1383C138.183 62.5094 138.373 62.9716 138.373 63.525C138.373 64.1402 138.14 64.6236 137.675 64.9752C137.209 65.3235 136.583 65.4977 135.795 65.4977C135.248 65.4977 134.75 65.3984 134.301 65.1998C133.852 64.998 133.508 64.7229 133.271 64.3746C133.036 64.0263 132.919 63.6227 132.919 63.1637H134.389C134.389 63.9482 134.857 64.3404 135.795 64.3404C136.143 64.3404 136.415 64.2704 136.61 64.1305C136.806 63.9872 136.903 63.7887 136.903 63.5348Z" fill="#FCFCFC"/>
<path d="M139.369 65.4V58.2906H141.859C142.722 58.2906 143.376 58.4566 143.822 58.7887C144.268 59.1174 144.491 59.6008 144.491 60.2389C144.491 60.5872 144.402 60.8948 144.223 61.1617C144.044 61.4254 143.795 61.6191 143.476 61.7428C143.84 61.8339 144.127 62.0178 144.335 62.2945C144.547 62.5712 144.652 62.9098 144.652 63.3102C144.652 63.9938 144.434 64.5113 143.998 64.8629C143.562 65.2145 142.94 65.3935 142.133 65.4H139.369ZM140.834 62.3043V64.2232H142.089C142.434 64.2232 142.702 64.1419 142.895 63.9791C143.09 63.8131 143.188 63.5852 143.188 63.2955C143.188 62.6445 142.851 62.3141 142.177 62.3043H140.834ZM140.834 61.2691H141.918C142.657 61.2561 143.026 60.9615 143.026 60.3854C143.026 60.0631 142.932 59.832 142.743 59.692C142.558 59.5488 142.263 59.4771 141.859 59.4771H140.834V61.2691Z" fill="#FCFCFC"/>
<path d="M236.982 14.5889H234.17V16.4932H237.47V17.67H232.705V10.5606H237.461V11.7471H234.17V13.4415H236.982V14.5889Z" fill="#FCFCFC"/>
<path d="M243.779 11.7471H241.601V17.67H240.136V11.7471H237.988V10.5606H243.779V11.7471Z" fill="#FCFCFC"/>
<path d="M250.405 17.67H248.94V14.6231H246.084V17.67H244.619V10.5606H246.084V13.4415H248.94V10.5606H250.405V17.67Z" fill="#FCFCFC"/>
<path d="M255.966 14.5889H253.154V16.4932H256.455V17.67H251.689V10.5606H256.445V11.7471H253.154V13.4415H255.966V14.5889Z" fill="#FCFCFC"/>
<path d="M259.946 15.0675H258.779V17.67H257.314V10.5606H259.956C260.796 10.5606 261.443 10.7478 261.899 11.1221C262.355 11.4965 262.583 12.0255 262.583 12.7091C262.583 13.1941 262.477 13.5994 262.265 13.9249C262.057 14.2471 261.74 14.5043 261.313 14.6964L262.851 17.6016V17.67H261.279L259.946 15.0675ZM258.779 13.8809H259.961C260.328 13.8809 260.613 13.7882 260.815 13.6026C261.017 13.4138 261.118 13.155 261.118 12.8263C261.118 12.491 261.022 12.2273 260.83 12.0352C260.641 11.8432 260.35 11.7471 259.956 11.7471H258.779V13.8809Z" fill="#FCFCFC"/>
<path d="M269.482 17.67H268.017L265.166 12.9923V17.67H263.701V10.5606H265.166L268.022 15.2481V10.5606H269.482V17.67Z" fill="#FCFCFC"/>
<path d="M275.039 14.5889H272.226V16.4932H275.527V17.67H270.761V10.5606H275.517V11.7471H272.226V13.4415H275.039V14.5889Z" fill="#FCFCFC"/>
<path d="M281.836 11.7471H279.658V17.67H278.193V11.7471H276.045V10.5606H281.836V11.7471Z" fill="#FCFCFC"/>
<path d="M352.727 77.3075H351.56V79.91H350.095V72.8006H352.736C353.576 72.8006 354.224 72.9878 354.68 73.3622C355.135 73.7365 355.363 74.2655 355.363 74.9491C355.363 75.4341 355.257 75.8394 355.046 76.1649C354.838 76.4872 354.52 76.7443 354.094 76.9364L355.632 79.8416V79.91H354.06L352.727 77.3075ZM351.56 76.1209H352.741C353.109 76.1209 353.394 76.0282 353.596 75.8426C353.798 75.6538 353.898 75.395 353.898 75.0663C353.898 74.731 353.802 74.4673 353.61 74.2752C353.422 74.0832 353.13 73.9872 352.736 73.9872H351.56V76.1209Z" fill="#FCFCFC"/>
<path d="M360.168 78.0448C360.168 77.7681 360.07 77.5565 359.875 77.41C359.68 77.2603 359.328 77.104 358.82 76.9413C358.312 76.7752 357.91 76.6125 357.614 76.453C356.807 76.0168 356.403 75.4292 356.403 74.6903C356.403 74.3062 356.511 73.9644 356.726 73.6649C356.944 73.3622 357.255 73.1261 357.658 72.9569C358.065 72.7876 358.521 72.703 359.025 72.703C359.533 72.703 359.986 72.7957 360.383 72.9813C360.78 73.1636 361.088 73.4224 361.306 73.7577C361.527 74.0929 361.638 74.4738 361.638 74.9002H360.173C360.173 74.5747 360.07 74.3224 359.865 74.1434C359.66 73.9611 359.372 73.87 359.001 73.87C358.643 73.87 358.365 73.9465 358.166 74.0995C357.967 74.2492 357.868 74.4478 357.868 74.6952C357.868 74.9263 357.984 75.12 358.215 75.2762C358.449 75.4325 358.793 75.5789 359.245 75.7157C360.078 75.9663 360.686 76.2772 361.066 76.6483C361.447 77.0194 361.638 77.4816 361.638 78.035C361.638 78.6502 361.405 79.1336 360.939 79.4852C360.474 79.8335 359.847 80.0077 359.06 80.0077C358.513 80.0077 358.015 79.9084 357.565 79.7098C357.116 79.508 356.773 79.2329 356.535 78.8846C356.301 78.5363 356.184 78.1327 356.184 77.6737H357.653C357.653 78.4582 358.122 78.8504 359.06 78.8504C359.408 78.8504 359.68 78.7804 359.875 78.6405C360.07 78.4972 360.168 78.2987 360.168 78.0448Z" fill="#FCFCFC"/>
<path d="M365.285 77.4344H362.536V76.2967H365.285V77.4344Z" fill="#FCFCFC"/>
<path d="M371.232 79.91H366.359V78.9432L368.659 76.492C368.975 76.147 369.208 75.8459 369.357 75.5887C369.51 75.3316 369.587 75.0874 369.587 74.8563C369.587 74.5405 369.507 74.2931 369.348 74.1141C369.188 73.9318 368.96 73.8407 368.664 73.8407C368.345 73.8407 368.093 73.9513 367.907 74.1727C367.725 74.3908 367.634 74.6789 367.634 75.037H366.218C366.218 74.604 366.32 74.2085 366.525 73.8504C366.734 73.4924 367.027 73.2124 367.404 73.0106C367.782 72.8055 368.21 72.703 368.688 72.703C369.421 72.703 369.989 72.8788 370.393 73.2303C370.799 73.5819 371.003 74.0783 371.003 74.7196C371.003 75.0711 370.912 75.4292 370.729 75.7938C370.547 76.1584 370.235 76.5832 369.792 77.0682L368.176 78.7723H371.232V79.91Z" fill="#FCFCFC"/>
<path d="M373.537 75.7303H374.289C374.647 75.7303 374.912 75.6408 375.085 75.4618C375.257 75.2827 375.344 75.0451 375.344 74.7489C375.344 74.4624 375.257 74.2394 375.085 74.0799C374.916 73.9204 374.681 73.8407 374.382 73.8407C374.112 73.8407 373.885 73.9155 373.703 74.0653C373.521 74.2118 373.43 74.4038 373.43 74.6414H372.019C372.019 74.2704 372.118 73.9383 372.316 73.6454C372.518 73.3491 372.798 73.118 373.156 72.952C373.518 72.786 373.915 72.703 374.348 72.703C375.1 72.703 375.689 72.8836 376.115 73.245C376.542 73.603 376.755 74.0978 376.755 74.7293C376.755 75.0549 376.656 75.3543 376.457 75.6278C376.258 75.9012 375.998 76.1112 375.676 76.2577C376.076 76.4009 376.374 76.6157 376.569 76.9022C376.768 77.1886 376.867 77.5272 376.867 77.9178C376.867 78.5493 376.636 79.0555 376.174 79.4364C375.715 79.8172 375.106 80.0077 374.348 80.0077C373.638 80.0077 373.057 79.8205 372.604 79.4461C372.155 79.0718 371.931 78.577 371.931 77.9618H373.342C373.342 78.2287 373.441 78.4468 373.64 78.6161C373.841 78.7853 374.089 78.87 374.382 78.87C374.717 78.87 374.979 78.7821 375.168 78.6063C375.36 78.4273 375.456 78.1913 375.456 77.8983C375.456 77.1886 375.065 76.8338 374.284 76.8338H373.537V75.7303Z" fill="#FCFCFC"/>
<path d="M382.717 79.91H377.844V78.9432L380.144 76.492C380.459 76.147 380.692 75.8459 380.842 75.5887C380.995 75.3316 381.071 75.0874 381.071 74.8563C381.071 74.5405 380.992 74.2931 380.832 74.1141C380.673 73.9318 380.445 73.8407 380.148 73.8407C379.829 73.8407 379.577 73.9513 379.392 74.1727C379.209 74.3908 379.118 74.6789 379.118 75.037H377.702C377.702 74.604 377.805 74.2085 378.01 73.8504C378.218 73.4924 378.511 73.2124 378.889 73.0106C379.266 72.8055 379.694 72.703 380.173 72.703C380.905 72.703 381.473 72.8788 381.877 73.2303C382.284 73.5819 382.487 74.0783 382.487 74.7196C382.487 75.0711 382.396 75.4292 382.214 75.7938C382.032 76.1584 381.719 76.5832 381.276 77.0682L379.66 78.7723H382.717V79.91Z" fill="#FCFCFC"/>
<path d="M235.767 95.3975H234.6V98H233.135V90.8906H235.776C236.616 90.8906 237.264 91.0778 237.72 91.4521C238.175 91.8265 238.403 92.3555 238.403 93.0391C238.403 93.5241 238.298 93.9294 238.086 94.2549C237.878 94.5771 237.56 94.8343 237.134 95.0264L238.672 97.9316V98H237.1L235.767 95.3975ZM234.6 94.2109H235.781C236.149 94.2109 236.434 94.1182 236.636 93.9326C236.838 93.7438 236.938 93.485 236.938 93.1562C236.938 92.821 236.842 92.5573 236.65 92.3652C236.462 92.1732 236.17 92.0771 235.776 92.0771H234.6V94.2109Z" fill="#FCFCFC"/>
<path d="M243.799 94.9189H240.986V96.8232H244.287V98H239.521V90.8906H244.277V92.0771H240.986V93.7715H243.799V94.9189Z" fill="#FCFCFC"/>
<path d="M248.833 96.1348C248.833 95.8581 248.735 95.6465 248.54 95.5C248.345 95.3503 247.993 95.194 247.485 95.0312C246.978 94.8652 246.576 94.7025 246.279 94.543C245.472 94.1068 245.068 93.5192 245.068 92.7803C245.068 92.3962 245.176 92.0544 245.391 91.7549C245.609 91.4521 245.92 91.2161 246.323 91.0469C246.73 90.8776 247.186 90.793 247.69 90.793C248.198 90.793 248.651 90.8857 249.048 91.0713C249.445 91.2536 249.753 91.5124 249.971 91.8477C250.192 92.1829 250.303 92.5638 250.303 92.9902H248.838C248.838 92.6647 248.735 92.4124 248.53 92.2334C248.325 92.0511 248.037 91.96 247.666 91.96C247.308 91.96 247.03 92.0365 246.831 92.1895C246.632 92.3392 246.533 92.5378 246.533 92.7852C246.533 93.0163 246.649 93.21 246.88 93.3662C247.114 93.5225 247.458 93.6689 247.91 93.8057C248.743 94.0563 249.351 94.3672 249.731 94.7383C250.112 95.1094 250.303 95.5716 250.303 96.125C250.303 96.7402 250.07 97.2236 249.604 97.5752C249.139 97.9235 248.512 98.0977 247.725 98.0977C247.178 98.0977 246.68 97.9984 246.23 97.7998C245.781 97.598 245.438 97.3229 245.2 96.9746C244.966 96.6263 244.849 96.2227 244.849 95.7637H246.318C246.318 96.5482 246.787 96.9404 247.725 96.9404C248.073 96.9404 248.345 96.8704 248.54 96.7305C248.735 96.5872 248.833 96.3887 248.833 96.1348Z" fill="#FCFCFC"/>
<path d="M256.65 92.0771H254.473V98H253.008V92.0771H250.859V90.8906H256.65V92.0771Z" fill="#FCFCFC"/>
<path d="M260.918 96.5352H258.35L257.861 98H256.304L258.95 90.8906H260.308L262.969 98H261.411L260.918 96.5352ZM258.745 95.3486H260.522L259.629 92.6875L258.745 95.3486Z" fill="#FCFCFC"/>
<path d="M266.265 95.3975H265.098V98H263.633V90.8906H266.274C267.114 90.8906 267.762 91.0778 268.218 91.4521C268.674 91.8265 268.901 92.3555 268.901 93.0391C268.901 93.5241 268.796 93.9294 268.584 94.2549C268.376 94.5771 268.058 94.8343 267.632 95.0264L269.17 97.9316V98H267.598L266.265 95.3975ZM265.098 94.2109H266.279C266.647 94.2109 266.932 94.1182 267.134 93.9326C267.336 93.7438 267.437 93.485 267.437 93.1562C267.437 92.821 267.34 92.5573 267.148 92.3652C266.96 92.1732 266.668 92.0771 266.274 92.0771H265.098V94.2109Z" fill="#FCFCFC"/>
<path d="M275.127 92.0771H272.949V98H271.484V92.0771H269.336V90.8906H275.127V92.0771Z" fill="#FCFCFC"/>
<path d="M287.73 95.4951V98H286.265V90.8906H289.038C289.572 90.8906 290.041 90.9883 290.444 91.1836C290.851 91.3789 291.164 91.6572 291.382 92.0186C291.6 92.3766 291.709 92.7852 291.709 93.2441C291.709 93.9408 291.47 94.4909 290.991 94.8945C290.516 95.2949 289.857 95.4951 289.014 95.4951H287.73ZM287.73 94.3086H289.038C289.426 94.3086 289.72 94.2174 289.922 94.0352C290.127 93.8529 290.23 93.5924 290.23 93.2539C290.23 92.9056 290.127 92.624 289.922 92.4092C289.717 92.1943 289.434 92.0837 289.072 92.0771H287.73V94.3086Z" fill="#FCFCFC"/>
<path d="M298.257 95.9492L299.214 90.8906H300.674L299.097 98H297.622L296.465 93.2441L295.308 98H293.833L292.256 90.8906H293.716L294.678 95.9395L295.85 90.8906H297.09L298.257 95.9492Z" fill="#FCFCFC"/>
<path d="M304.102 95.3975H302.935V98H301.47V90.8906H304.111C304.951 90.8906 305.599 91.0778 306.055 91.4521C306.511 91.8265 306.738 92.3555 306.738 93.0391C306.738 93.5241 306.633 93.9294 306.421 94.2549C306.213 94.5771 305.895 94.8343 305.469 95.0264L307.007 97.9316V98H305.435L304.102 95.3975ZM302.935 94.2109H304.116C304.484 94.2109 304.769 94.1182 304.971 93.9326C305.173 93.7438 305.274 93.485 305.274 93.1562C305.274 92.821 305.178 92.5573 304.985 92.3652C304.797 92.1732 304.505 92.0771 304.111 92.0771H302.935V94.2109Z" fill="#FCFCFC"/>
<path d="M425.308 99.0475H424.141V101.65H422.677V94.5406H425.318C426.158 94.5406 426.806 94.7278 427.262 95.1021C427.717 95.4765 427.945 96.0055 427.945 96.6891C427.945 97.1741 427.839 97.5794 427.628 97.9049C427.419 98.2271 427.102 98.4843 426.676 98.6764L428.214 101.582V101.65H426.641L425.308 99.0475ZM424.141 97.8609H425.323C425.691 97.8609 425.976 97.7682 426.178 97.5826C426.379 97.3938 426.48 97.135 426.48 96.8063C426.48 96.471 426.384 96.2073 426.192 96.0152C426.003 95.8232 425.712 95.7271 425.318 95.7271H424.141V97.8609Z" fill="#FCFCFC"/>
<path d="M433.341 98.5689H430.528V100.473H433.829V101.65H429.063V94.5406H433.819V95.7271H430.528V97.4215H433.341V98.5689Z" fill="#FCFCFC"/>
<path d="M438.375 99.7848C438.375 99.5081 438.277 99.2965 438.082 99.15C437.887 99.0003 437.535 98.844 437.027 98.6813C436.519 98.5152 436.117 98.3525 435.821 98.193C435.014 97.7568 434.61 97.1692 434.61 96.4303C434.61 96.0462 434.718 95.7044 434.932 95.4049C435.151 95.1021 435.461 94.8661 435.865 94.6969C436.272 94.5276 436.728 94.443 437.232 94.443C437.74 94.443 438.193 94.5357 438.59 94.7213C438.987 94.9036 439.294 95.1624 439.513 95.4977C439.734 95.8329 439.845 96.2138 439.845 96.6402H438.38C438.38 96.3147 438.277 96.0624 438.072 95.8834C437.867 95.7011 437.579 95.61 437.208 95.61C436.85 95.61 436.571 95.6865 436.373 95.8395C436.174 95.9892 436.075 96.1878 436.075 96.4352C436.075 96.6663 436.191 96.86 436.422 97.0162C436.656 97.1725 437 97.3189 437.452 97.4557C438.285 97.7063 438.892 98.0172 439.273 98.3883C439.654 98.7594 439.845 99.2216 439.845 99.775C439.845 100.39 439.612 100.874 439.146 101.225C438.681 101.574 438.054 101.748 437.266 101.748C436.72 101.748 436.222 101.648 435.772 101.45C435.323 101.248 434.98 100.973 434.742 100.625C434.508 100.276 434.391 99.8727 434.391 99.4137H435.86C435.86 100.198 436.329 100.59 437.266 100.59C437.615 100.59 437.887 100.52 438.082 100.38C438.277 100.237 438.375 100.039 438.375 99.7848Z" fill="#FCFCFC"/>
<path d="M445.118 98.5689H442.306V100.473H445.606V101.65H440.841V94.5406H445.597V95.7271H442.306V97.4215H445.118V98.5689Z" fill="#FCFCFC"/>
<path d="M451.915 95.7271H449.737V101.65H448.272V95.7271H446.124V94.5406H451.915V95.7271Z" fill="#FCFCFC"/>
<path d="M39 82.43C39 84.21 38.4722 85.9501 37.4832 87.4301C36.4943 88.9102 35.0887 90.0637 33.4442 90.7449C31.7996 91.4261 29.99 91.6043 28.2442 91.2571C26.4984 90.9098 24.8947 90.0526 23.636 88.794C22.3774 87.5353 21.5202 85.9316 21.1729 84.1858C20.8257 82.44 21.0039 80.6304 21.6851 78.9858C22.3663 77.3413 23.5198 75.9357 24.9999 74.9468C26.4799 73.9578 28.22 73.43 30 73.43C31.1819 73.43 32.3522 73.6628 33.4442 74.1151C34.5361 74.5674 35.5282 75.2303 36.364 76.066C37.1997 76.9018 37.8626 77.8939 38.3149 78.9858C38.7672 80.0778 39 81.2481 39 82.43Z" stroke="black" stroke-width="0.43" stroke-linecap="round" stroke-linejoin="round"/>
<path d="M98.77 18.12H161.13V52.14H98.77V18.12Z" stroke="black" stroke-width="0.43" stroke-linecap="round" stroke-linejoin="round"/>
<path d="M235.93 22.55H277.6V68.75H235.93V22.55Z" stroke="black" stroke-width="0.43" stroke-linecap="round" stroke-linejoin="round"/>
<path d="M443.13 112C443.13 113.21 442.771 114.394 442.099 115.4C441.426 116.407 440.47 117.191 439.352 117.654C438.234 118.117 437.003 118.239 435.816 118.002C434.629 117.766 433.538 117.183 432.683 116.327C431.827 115.472 431.244 114.381 431.008 113.194C430.771 112.007 430.893 110.776 431.356 109.658C431.819 108.54 432.604 107.584 433.61 106.911C434.616 106.239 435.8 105.88 437.01 105.88C438.633 105.88 440.19 106.525 441.338 107.673C442.485 108.82 443.13 110.377 443.13 112Z" fill="#738498" stroke="black" stroke-width="0.43" stroke-linecap="round" stroke-linejoin="round"/>
<path d="M302.42 108.38C302.42 109.59 302.061 110.774 301.389 111.78C300.716 112.787 299.76 113.571 298.642 114.034C297.524 114.497 296.293 114.619 295.106 114.382C293.919 114.146 292.828 113.563 291.972 112.707C291.117 111.852 290.534 110.761 290.298 109.574C290.061 108.387 290.183 107.156 290.646 106.038C291.109 104.92 291.893 103.964 292.9 103.291C293.906 102.619 295.09 102.26 296.3 102.26C297.104 102.26 297.9 102.418 298.642 102.726C299.385 103.033 300.059 103.484 300.627 104.053C301.196 104.621 301.647 105.295 301.954 106.038C302.262 106.78 302.42 107.576 302.42 108.38Z" fill="#738498" stroke="black" stroke-width="0.43" stroke-linecap="round" stroke-linejoin="round"/>
<path d="M259.22 108.38C259.22 109.59 258.861 110.774 258.189 111.78C257.516 112.787 256.56 113.571 255.442 114.034C254.324 114.497 253.093 114.619 251.906 114.382C250.719 114.146 249.628 113.563 248.772 112.707C247.917 111.852 247.334 110.761 247.098 109.574C246.861 108.387 246.983 107.156 247.446 106.038C247.909 104.92 248.693 103.964 249.7 103.291C250.706 102.619 251.89 102.26 253.1 102.26C253.904 102.26 254.699 102.418 255.442 102.726C256.185 103.033 256.859 103.484 257.427 104.053C257.996 104.621 258.447 105.295 258.754 106.038C259.062 106.78 259.22 107.576 259.22 108.38Z" fill="#738498" stroke="black" stroke-width="0.43" stroke-linecap="round" stroke-linejoin="round"/>
<path d="M338.45 105.58C338.45 106.634 338.137 107.665 337.552 108.541C336.966 109.418 336.134 110.101 335.16 110.504C334.186 110.908 333.114 111.013 332.08 110.808C331.046 110.602 330.097 110.094 329.351 109.349C328.606 108.603 328.098 107.654 327.892 106.62C327.687 105.586 327.792 104.514 328.196 103.54C328.599 102.566 329.282 101.734 330.159 101.148C331.035 100.563 332.066 100.25 333.12 100.25C333.82 100.249 334.514 100.386 335.161 100.653C335.809 100.92 336.397 101.313 336.892 101.808C337.387 102.303 337.78 102.891 338.047 103.539C338.314 104.186 338.451 104.88 338.45 105.58V105.58Z" stroke="black" stroke-width="0.43" stroke-linecap="round" stroke-linejoin="round"/>
<path d="M390.92 99C391.3 102.62 387.36 114.08 387.36 114.08C387.252 114.75 386.883 115.35 386.334 115.749C385.785 116.148 385.101 116.314 384.43 116.21H349.27C348.457 116.34 347.625 116.16 346.939 115.706C346.252 115.253 345.76 114.558 345.56 113.76C345.56 113.76 341.47 103.08 341.71 99.51C342.16 95.92 343.06 93.29 346.6 93.29H385.79C386.006 93.2705 386.224 93.2705 386.44 93.29C389.54 93.35 390.65 96.9 390.92 99V99Z" stroke="black" stroke-width="0.43" stroke-linecap="round" stroke-linejoin="round"/>
<path d="M405.76 105.58C405.76 106.634 405.448 107.664 404.862 108.54C404.277 109.416 403.445 110.1 402.472 110.503C401.499 110.907 400.427 111.013 399.394 110.808C398.36 110.603 397.41 110.097 396.665 109.352C395.919 108.608 395.41 107.659 395.204 106.626C394.997 105.593 395.101 104.521 395.503 103.547C395.905 102.573 396.586 101.74 397.462 101.153C398.337 100.566 399.366 100.252 400.42 100.25C401.121 100.249 401.815 100.386 402.463 100.653C403.111 100.92 403.699 101.313 404.195 101.808C404.691 102.303 405.085 102.891 405.353 103.538C405.622 104.185 405.76 104.879 405.76 105.58V105.58Z" stroke="black" stroke-width="0.43" stroke-linecap="round" stroke-linejoin="round"/>
<path d="M55.2 73.43H95.78V120.53H55.2V73.43Z" stroke="black" stroke-width="0.43" stroke-linecap="round" stroke-linejoin="round"/>
<path d="M115.49 73.43H156.07V120.53H115.49V73.43Z" stroke="black" stroke-width="0.43" stroke-linecap="round" stroke-linejoin="round"/>
<path d="M175.78 73.43H216.36V120.53H175.78V73.43Z" fill="#2E343C" stroke="black" stroke-width="0.43" stroke-linecap="round" stroke-linejoin="round"/>
<path d="M19 10.9C19 11.8889 18.7068 12.8556 18.1574 13.6779C17.6079 14.5001 16.8271 15.141 15.9134 15.5194C14.9998 15.8978 13.9945 15.9969 13.0246 15.8039C12.0546 15.611 11.1637 15.1348 10.4645 14.4355C9.76521 13.7363 9.289 12.8454 9.09608 11.8755C8.90315 10.9055 9.00217 9.90021 9.3806 8.98658C9.75904 8.07295 10.3999 7.29206 11.2222 6.74265C12.0444 6.19324 13.0111 5.9 14 5.9C15.3261 5.9 16.5979 6.42678 17.5355 7.36447C18.4732 8.30215 19 9.57392 19 10.9Z" fill="#454F5B" stroke="black" stroke-width="0.43" stroke-linecap="round" stroke-linejoin="round"/>
<path d="M19 134.28C19 135.269 18.7068 136.236 18.1574 137.058C17.6079 137.88 16.8271 138.521 15.9134 138.899C14.9998 139.278 13.9945 139.377 13.0246 139.184C12.0546 138.991 11.1637 138.515 10.4645 137.816C9.76521 137.116 9.289 136.225 9.09608 135.255C8.90315 134.286 9.00217 133.28 9.3806 132.367C9.75904 131.453 10.3999 130.672 11.2222 130.123C12.0444 129.573 13.0111 129.28 14 129.28C15.3261 129.28 16.5979 129.807 17.5355 130.744C18.4732 131.682 19 132.954 19 134.28V134.28Z" fill="#454F5B" stroke="black" stroke-width="0.43" stroke-linecap="round" stroke-linejoin="round"/>
<path d="M459.84 134.28C459.84 135.269 459.547 136.236 458.997 137.058C458.448 137.88 457.667 138.521 456.753 138.899C455.84 139.278 454.834 139.377 453.865 139.184C452.895 138.991 452.004 138.515 451.304 137.816C450.605 137.116 450.129 136.225 449.936 135.255C449.743 134.286 449.842 133.28 450.221 132.367C450.599 131.453 451.24 130.672 452.062 130.123C452.884 129.573 453.851 129.28 454.84 129.28C456.166 129.28 457.438 129.807 458.375 130.744C459.313 131.682 459.84 132.954 459.84 134.28V134.28Z" fill="#454F5B" stroke="black" stroke-width="0.43" stroke-linecap="round" stroke-linejoin="round"/>
<path d="M459.84 10.9C459.84 11.8889 459.547 12.8556 458.997 13.6779C458.448 14.5001 457.667 15.141 456.753 15.5194C455.84 15.8978 454.834 15.9969 453.865 15.8039C452.895 15.611 452.004 15.1348 451.304 14.4355C450.605 13.7363 450.129 12.8454 449.936 11.8755C449.743 10.9055 449.842 9.90021 450.221 8.98658C450.599 8.07295 451.24 7.29206 452.062 6.74265C452.884 6.19324 453.851 5.9 454.84 5.9C456.166 5.9 457.438 6.42678 458.375 7.36447C459.313 8.30215 459.84 9.57392 459.84 10.9V10.9Z" fill="#454F5B" stroke="black" stroke-width="0.43" stroke-linecap="round" stroke-linejoin="round"/>
<path d="M55.2 69.75H216.37" stroke="#FCFCFC" stroke-miterlimit="10"/>
<path d="M179.13 113.67H213.84V99.47H178.29V113.67H179.13ZM179.97 101.2H212.2V112H180L179.97 101.2Z" fill="#454F5B" stroke="black" stroke-width="0.25" stroke-miterlimit="10"/>
<path d="M181.48 106.61V102.79H210.74V106.61H207.41V107.36H203.95V106.61H200.71V107.36H197.25V106.61H194.94V107.36H191.47V106.61H188.23V107.36H184.77V106.61H181.48Z" fill="#FCFCFC"/>
<path d="M179.13 94.64H213.84V80.43H178.29V94.63L179.13 94.64ZM180 82.16H212.2V93H180V82.16Z" fill="#454F5B" stroke="black" stroke-width="0.25" stroke-miterlimit="10"/>
<path d="M181.48 87.58V83.76H210.74V87.58H207.41V88.33H203.95V87.58H200.71V88.33H197.25V87.58H194.94V88.33H191.47V87.58H188.23V88.33H184.77V87.58H181.48Z" fill="#FCFCFC"/>
<path d="M118.85 113.67H153.56V99.47H118V113.67H118.85ZM119.69 101.2H151.92V112H119.7L119.69 101.2Z" fill="#454F5B" stroke="black" stroke-width="0.25" stroke-miterlimit="10"/>
<path d="M121.2 106.61V102.79H150.46V106.61H147.13V107.36H143.67V106.61H140.43V107.36H136.96V106.61H134.66V107.36H131.19V106.61H127.95V107.36H124.49V106.61H121.2Z" fill="#FCFCFC"/>
<path d="M118.85 94.64H153.56V80.43H118V94.63L118.85 94.64ZM119.69 82.17H151.92V93H119.7L119.69 82.17Z" fill="#454F5B" stroke="black" stroke-width="0.25" stroke-miterlimit="10"/>
<path d="M121.2 87.58V83.76H150.46V87.58H147.13V88.33H143.67V87.58H140.43V88.33H136.96V87.58H134.66V88.33H131.19V87.58H127.95V88.33H124.49V87.58H121.2Z" fill="#FCFCFC"/>
<path d="M58.56 113.67H93.27V99.47H57.72V113.67H58.56ZM59.4 101.2H91.63V112H59.4V101.2Z" fill="#454F5B" stroke="black" stroke-width="0.25" stroke-miterlimit="10"/>
<path d="M60.9 106.61V102.79H90.17V106.61H86.84V107.36H83.37V106.61H80.13V107.36H76.67V106.61H74.36V107.36H70.9V106.61H67.66V107.36H64.2V106.61H60.9Z" fill="#FCFCFC"/>
<path d="M58.56 94.64H93.27V80.43H57.72V94.63L58.56 94.64ZM59.4 82.17H91.63V93H59.4V82.17Z" fill="#454F5B" stroke="black" stroke-width="0.25" stroke-miterlimit="10"/>
<path d="M60.9 87.58V83.76H90.17V87.58H86.84V88.33H83.37V87.58H80.13V88.33H76.67V87.58H74.36V88.33H70.9V87.58H67.66V88.33H64.2V87.58H60.9Z" fill="#FCFCFC"/>
<path d="M237.63 24.6V66.69H275.9V24.6H237.63ZM268.63 53.3H264V56H262.09V57.91H251.41V56H249.11V53.3H244.9V35.3H246.81V42.2H248V35.32H249.53V42.2H250.68V35.32H252.21V42.2H253.36V35.32H254.89V42.2H256V35.32H257.53V42.2H258.68V35.32H260.21V42.2H261.36V35.32H262.89V42.2H264V35.32H265.53V42.2H266.68V35.32H268.59L268.63 53.3Z" fill="#454F5B" stroke="black" stroke-width="0.25" stroke-miterlimit="10"/>
<path d="M349.62 99.66C349.169 99.66 348.737 99.8391 348.418 100.158C348.099 100.477 347.92 100.909 347.92 101.36C347.92 101.811 348.099 102.243 348.418 102.562C348.737 102.881 349.169 103.06 349.62 103.06C349.842 103.061 350.063 103.019 350.268 102.934C350.474 102.85 350.661 102.725 350.818 102.568C350.975 102.411 351.1 102.224 351.184 102.018C351.269 101.813 351.311 101.592 351.31 101.37C351.311 101.147 351.269 100.925 351.184 100.719C351.1 100.512 350.976 100.324 350.819 100.165C350.662 100.006 350.476 99.8799 350.27 99.7932C350.064 99.7066 349.843 99.6613 349.62 99.66V99.66ZM354.3 106.53C353.848 106.535 353.417 106.719 353.1 107.041C352.784 107.364 352.607 107.798 352.61 108.25C352.609 108.472 352.652 108.692 352.736 108.897C352.821 109.102 352.945 109.288 353.103 109.444C353.26 109.601 353.447 109.724 353.652 109.808C353.858 109.891 354.078 109.933 354.3 109.93C354.523 109.933 354.745 109.891 354.952 109.808C355.159 109.725 355.348 109.602 355.508 109.446C355.668 109.29 355.795 109.104 355.883 108.899C355.971 108.694 356.017 108.473 356.02 108.25C356.017 107.795 355.835 107.359 355.513 107.037C355.191 106.715 354.755 106.533 354.3 106.53V106.53ZM357.98 99.66C357.529 99.66 357.097 99.8391 356.778 100.158C356.459 100.477 356.28 100.909 356.28 101.36C356.28 101.811 356.459 102.243 356.778 102.562C357.097 102.881 357.529 103.06 357.98 103.06C358.202 103.061 358.422 103.018 358.627 102.934C358.832 102.849 359.018 102.725 359.175 102.567C359.331 102.41 359.454 102.223 359.538 102.018C359.621 101.812 359.663 101.592 359.66 101.37C359.665 100.923 359.494 100.493 359.183 100.173C358.872 99.8522 358.447 99.6679 358 99.66H357.98ZM362.66 106.53C362.208 106.535 361.777 106.719 361.46 107.041C361.144 107.364 360.967 107.798 360.97 108.25C360.969 108.472 361.012 108.692 361.096 108.897C361.181 109.102 361.305 109.288 361.463 109.444C361.62 109.601 361.807 109.724 362.012 109.808C362.218 109.891 362.438 109.933 362.66 109.93C362.883 109.933 363.104 109.891 363.311 109.808C363.517 109.725 363.706 109.602 363.864 109.446C364.023 109.29 364.15 109.104 364.237 108.898C364.323 108.693 364.369 108.473 364.37 108.25C364.37 107.796 364.19 107.36 363.87 107.037C363.549 106.715 363.114 106.533 362.66 106.53ZM366.33 99.66C365.879 99.66 365.447 99.8391 365.128 100.158C364.809 100.477 364.63 100.909 364.63 101.36C364.63 101.811 364.809 102.243 365.128 102.562C365.447 102.881 365.879 103.06 366.33 103.06C366.552 103.061 366.773 103.019 366.978 102.934C367.184 102.85 367.371 102.725 367.528 102.568C367.685 102.411 367.81 102.224 367.894 102.018C367.979 101.813 368.021 101.592 368.02 101.37C368.021 101.147 367.979 100.925 367.894 100.719C367.81 100.512 367.686 100.324 367.529 100.165C367.372 100.006 367.186 99.8799 366.98 99.7932C366.774 99.7066 366.553 99.6613 366.33 99.66V99.66ZM371.01 106.53C370.558 106.535 370.127 106.719 369.81 107.041C369.494 107.364 369.317 107.798 369.32 108.25C369.32 108.698 369.498 109.128 369.815 109.445C370.132 109.762 370.562 109.94 371.01 109.94C371.458 109.94 371.888 109.762 372.205 109.445C372.522 109.128 372.7 108.698 372.7 108.25C372.701 108.025 372.658 107.803 372.574 107.595C372.489 107.387 372.364 107.198 372.206 107.038C372.048 106.878 371.861 106.751 371.654 106.664C371.447 106.577 371.225 106.531 371 106.53H371.01ZM374.65 99.66C374.427 99.6613 374.206 99.7066 374 99.7932C373.794 99.8799 373.608 100.006 373.451 100.165C373.294 100.324 373.17 100.512 373.086 100.719C373.001 100.925 372.959 101.147 372.96 101.37C372.959 101.592 373.002 101.813 373.086 102.018C373.17 102.224 373.295 102.411 373.452 102.568C373.609 102.725 373.796 102.85 374.002 102.934C374.207 103.019 374.428 103.061 374.65 103.06C375.101 103.06 375.533 102.881 375.852 102.562C376.171 102.243 376.35 101.811 376.35 101.36C376.35 100.909 376.171 100.477 375.852 100.158C375.533 99.8391 375.101 99.66 374.65 99.66V99.66ZM379.36 106.53C378.905 106.533 378.469 106.715 378.147 107.037C377.825 107.359 377.643 107.795 377.64 108.25C377.643 108.473 377.689 108.694 377.777 108.899C377.865 109.104 377.992 109.29 378.152 109.446C378.312 109.602 378.501 109.725 378.708 109.808C378.915 109.891 379.137 109.933 379.36 109.93C379.582 109.933 379.802 109.891 380.008 109.808C380.213 109.724 380.4 109.601 380.557 109.444C380.715 109.288 380.839 109.102 380.924 108.897C381.008 108.692 381.051 108.472 381.05 108.25C381.053 107.798 380.876 107.364 380.56 107.041C380.243 106.719 379.812 106.535 379.36 106.53V106.53ZM383.01 99.53C382.558 99.5353 382.127 99.7191 381.81 100.041C381.494 100.364 381.317 100.798 381.32 101.25C381.319 101.472 381.362 101.692 381.446 101.897C381.531 102.102 381.655 102.288 381.813 102.444C381.97 102.601 382.157 102.724 382.362 102.808C382.568 102.891 382.788 102.933 383.01 102.93C383.233 102.933 383.454 102.891 383.661 102.808C383.867 102.725 384.056 102.602 384.214 102.446C384.373 102.29 384.5 102.104 384.587 101.898C384.673 101.693 384.719 101.473 384.72 101.25C384.717 100.796 384.535 100.361 384.213 100.04C383.89 99.7198 383.454 99.54 383 99.54L383.01 99.53ZM349.62 99.65C349.169 99.65 348.737 99.8291 348.418 100.148C348.099 100.467 347.92 100.899 347.92 101.35C347.92 101.801 348.099 102.233 348.418 102.552C348.737 102.871 349.169 103.05 349.62 103.05C349.842 103.051 350.063 103.009 350.268 102.924C350.474 102.84 350.661 102.715 350.818 102.558C350.975 102.401 351.1 102.214 351.184 102.008C351.269 101.803 351.311 101.582 351.31 101.36C351.31 100.911 351.132 100.48 350.816 100.161C350.499 99.8429 350.069 99.6626 349.62 99.66V99.65ZM354.3 106.52C353.848 106.525 353.417 106.709 353.1 107.031C352.784 107.354 352.607 107.788 352.61 108.24C352.609 108.462 352.652 108.682 352.736 108.887C352.821 109.092 352.945 109.278 353.103 109.434C353.26 109.591 353.447 109.714 353.652 109.798C353.858 109.881 354.078 109.923 354.3 109.92C354.523 109.923 354.745 109.881 354.952 109.798C355.159 109.715 355.348 109.592 355.508 109.436C355.668 109.28 355.795 109.094 355.883 108.889C355.971 108.684 356.017 108.463 356.02 108.24C356.015 107.786 355.832 107.353 355.51 107.033C355.188 106.713 354.754 106.533 354.3 106.53V106.52ZM357.98 99.65C357.529 99.65 357.097 99.8291 356.778 100.148C356.459 100.467 356.28 100.899 356.28 101.35C356.28 101.801 356.459 102.233 356.778 102.552C357.097 102.871 357.529 103.05 357.98 103.05C358.202 103.051 358.422 103.008 358.627 102.924C358.832 102.839 359.018 102.715 359.175 102.557C359.331 102.4 359.454 102.213 359.538 102.008C359.621 101.802 359.663 101.582 359.66 101.36C359.663 100.915 359.49 100.487 359.179 100.169C358.868 99.8508 358.445 99.6679 358 99.66L357.98 99.65ZM362.66 106.52C362.208 106.525 361.777 106.709 361.46 107.031C361.144 107.354 360.967 107.788 360.97 108.24C360.969 108.462 361.012 108.682 361.096 108.887C361.181 109.092 361.305 109.278 361.463 109.434C361.62 109.591 361.807 109.714 362.012 109.798C362.218 109.881 362.438 109.923 362.66 109.92C362.883 109.923 363.104 109.881 363.311 109.798C363.517 109.715 363.706 109.592 363.864 109.436C364.023 109.28 364.15 109.094 364.237 108.888C364.323 108.683 364.369 108.463 364.37 108.24C364.367 107.787 364.186 107.354 363.866 107.034C363.546 106.714 363.113 106.533 362.66 106.53V106.52ZM366.33 99.65C365.879 99.65 365.447 99.8291 365.128 100.148C364.809 100.467 364.63 100.899 364.63 101.35C364.63 101.801 364.809 102.233 365.128 102.552C365.447 102.871 365.879 103.05 366.33 103.05C366.552 103.051 366.773 103.009 366.978 102.924C367.184 102.84 367.371 102.715 367.528 102.558C367.685 102.401 367.81 102.214 367.894 102.008C367.979 101.803 368.021 101.582 368.02 101.36C368.02 100.911 367.842 100.48 367.526 100.161C367.209 99.8429 366.779 99.6626 366.33 99.66V99.65ZM371.01 106.52C370.558 106.525 370.127 106.709 369.81 107.031C369.494 107.354 369.317 107.788 369.32 108.24C369.32 108.688 369.498 109.118 369.815 109.435C370.132 109.752 370.562 109.93 371.01 109.93C371.458 109.93 371.888 109.752 372.205 109.435C372.522 109.118 372.7 108.688 372.7 108.24C372.7 107.788 372.521 107.355 372.203 107.034C371.884 106.714 371.452 106.533 371 106.53L371.01 106.52ZM374.65 99.65C374.427 99.6513 374.206 99.6966 374 99.7832C373.794 99.8699 373.608 99.9962 373.451 100.155C373.294 100.314 373.17 100.502 373.086 100.709C373.001 100.915 372.959 101.137 372.96 101.36C372.959 101.582 373.002 101.803 373.086 102.008C373.17 102.214 373.295 102.401 373.452 102.558C373.609 102.715 373.796 102.84 374.002 102.924C374.207 103.009 374.428 103.051 374.65 103.05C375.101 103.05 375.533 102.871 375.852 102.552C376.171 102.233 376.35 101.801 376.35 101.35C376.35 100.899 376.171 100.467 375.852 100.148C375.533 99.8291 375.101 99.65 374.65 99.65V99.65ZM379.36 106.52C378.905 106.523 378.469 106.705 378.147 107.027C377.825 107.349 377.643 107.785 377.64 108.24C377.643 108.463 377.689 108.684 377.777 108.889C377.865 109.094 377.992 109.28 378.152 109.436C378.312 109.592 378.501 109.715 378.708 109.798C378.915 109.881 379.137 109.923 379.36 109.92C379.582 109.923 379.802 109.881 380.008 109.798C380.213 109.714 380.4 109.591 380.557 109.434C380.715 109.278 380.839 109.092 380.924 108.887C381.008 108.682 381.051 108.462 381.05 108.24C381.05 107.79 380.873 107.358 380.556 107.038C380.24 106.718 379.81 106.535 379.36 106.53V106.52ZM383.01 99.52C382.558 99.5253 382.127 99.7091 381.81 100.031C381.494 100.354 381.317 100.788 381.32 101.24C381.319 101.462 381.362 101.682 381.446 101.887C381.531 102.092 381.655 102.278 381.813 102.434C381.97 102.591 382.157 102.714 382.362 102.798C382.568 102.881 382.788 102.923 383.01 102.92C383.233 102.923 383.454 102.881 383.661 102.798C383.867 102.715 384.056 102.592 384.214 102.436C384.373 102.28 384.5 102.094 384.587 101.888C384.673 101.683 384.719 101.463 384.72 101.24C384.715 100.787 384.531 100.355 384.209 100.037C383.887 99.7184 383.453 99.54 383 99.54L383.01 99.52ZM383.01 99.52C382.558 99.5253 382.127 99.7091 381.81 100.031C381.494 100.354 381.317 100.788 381.32 101.24C381.319 101.462 381.362 101.682 381.446 101.887C381.531 102.092 381.655 102.278 381.813 102.434C381.97 102.591 382.157 102.714 382.362 102.798C382.568 102.881 382.788 102.923 383.01 102.92C383.233 102.923 383.454 102.881 383.661 102.798C383.867 102.715 384.056 102.592 384.214 102.436C384.373 102.28 384.5 102.094 384.587 101.888C384.673 101.683 384.719 101.463 384.72 101.24C384.715 100.787 384.531 100.355 384.209 100.037C383.887 99.7184 383.453 99.54 383 99.54L383.01 99.52ZM349.62 99.64C349.397 99.64 349.176 99.684 348.969 99.7694C348.763 99.8548 348.576 99.9801 348.418 100.138C348.26 100.296 348.135 100.483 348.049 100.689C347.964 100.896 347.92 101.117 347.92 101.34C347.92 101.563 347.964 101.784 348.049 101.991C348.135 102.197 348.26 102.384 348.418 102.542C348.576 102.7 348.763 102.825 348.969 102.911C349.176 102.996 349.397 103.04 349.62 103.04C349.842 103.041 350.063 102.999 350.268 102.914C350.474 102.83 350.661 102.705 350.818 102.548C350.975 102.391 351.1 102.204 351.184 101.998C351.269 101.793 351.311 101.572 351.31 101.35C351.307 100.903 351.129 100.474 350.812 100.158C350.496 99.8415 350.067 99.6626 349.62 99.66V99.64ZM357.98 99.64C357.757 99.64 357.536 99.684 357.329 99.7694C357.123 99.8548 356.936 99.9801 356.778 100.138C356.62 100.296 356.495 100.483 356.409 100.689C356.324 100.896 356.28 101.117 356.28 101.34C356.28 101.563 356.324 101.784 356.409 101.991C356.495 102.197 356.62 102.384 356.778 102.542C356.936 102.7 357.123 102.825 357.329 102.911C357.536 102.996 357.757 103.04 357.98 103.04C358.202 103.041 358.422 102.998 358.627 102.914C358.832 102.829 359.018 102.705 359.175 102.547C359.331 102.39 359.454 102.203 359.538 101.998C359.621 101.792 359.663 101.572 359.66 101.35C359.66 100.907 359.486 100.482 359.176 100.165C358.865 99.8494 358.443 99.6679 358 99.66L357.98 99.64ZM366.33 99.64C366.107 99.64 365.886 99.684 365.679 99.7694C365.473 99.8548 365.286 99.9801 365.128 100.138C364.97 100.296 364.845 100.483 364.759 100.689C364.674 100.896 364.63 101.117 364.63 101.34C364.63 101.563 364.674 101.784 364.759 101.991C364.845 102.197 364.97 102.384 365.128 102.542C365.286 102.7 365.473 102.825 365.679 102.911C365.886 102.996 366.107 103.04 366.33 103.04C366.552 103.041 366.773 102.999 366.978 102.914C367.184 102.83 367.371 102.705 367.528 102.548C367.685 102.391 367.81 102.204 367.894 101.998C367.979 101.793 368.021 101.572 368.02 101.35C368.017 100.903 367.839 100.474 367.522 100.158C367.206 99.8415 366.777 99.6626 366.33 99.66V99.64ZM374.65 99.64C374.427 99.6413 374.206 99.6866 374 99.7732C373.794 99.8599 373.608 99.9862 373.451 100.145C373.294 100.304 373.17 100.492 373.086 100.699C373.001 100.905 372.959 101.127 372.96 101.35C372.959 101.572 373.002 101.793 373.086 101.998C373.17 102.204 373.295 102.391 373.452 102.548C373.609 102.705 373.796 102.83 374.002 102.914C374.207 102.999 374.428 103.041 374.65 103.04C375.101 103.04 375.533 102.861 375.852 102.542C376.171 102.223 376.35 101.791 376.35 101.34C376.35 100.889 376.171 100.457 375.852 100.138C375.533 99.8191 375.101 99.64 374.65 99.64V99.64ZM354.3 106.51C353.848 106.515 353.417 106.699 353.1 107.021C352.784 107.344 352.607 107.778 352.61 108.23C352.609 108.452 352.652 108.672 352.736 108.877C352.821 109.082 352.945 109.268 353.103 109.424C353.26 109.581 353.447 109.704 353.652 109.788C353.858 109.871 354.078 109.913 354.3 109.91C354.523 109.913 354.745 109.871 354.952 109.788C355.159 109.705 355.348 109.582 355.508 109.426C355.668 109.27 355.795 109.084 355.883 108.879C355.971 108.674 356.017 108.453 356.02 108.23C356.012 107.778 355.828 107.347 355.506 107.03C355.185 106.712 354.752 106.533 354.3 106.53V106.51ZM362.66 106.51C362.208 106.515 361.777 106.699 361.46 107.021C361.144 107.344 360.967 107.778 360.97 108.23C360.969 108.452 361.012 108.672 361.096 108.877C361.181 109.082 361.305 109.268 361.463 109.424C361.62 109.581 361.807 109.704 362.012 109.788C362.218 109.871 362.438 109.913 362.66 109.91C362.883 109.913 363.104 109.871 363.311 109.788C363.517 109.705 363.706 109.582 363.864 109.426C364.023 109.27 364.15 109.084 364.237 108.878C364.323 108.673 364.369 108.453 364.37 108.23C364.365 107.779 364.183 107.348 363.863 107.03C363.543 106.712 363.111 106.533 362.66 106.53V106.51ZM371.01 106.51C370.558 106.515 370.127 106.699 369.81 107.021C369.494 107.344 369.317 107.778 369.32 108.23C369.32 108.678 369.498 109.108 369.815 109.425C370.132 109.742 370.562 109.92 371.01 109.92C371.458 109.92 371.888 109.742 372.205 109.425C372.522 109.108 372.7 108.678 372.7 108.23C372.697 107.78 372.517 107.349 372.199 107.031C371.881 106.713 371.45 106.533 371 106.53L371.01 106.51ZM379.36 106.51C378.905 106.513 378.469 106.695 378.147 107.017C377.825 107.339 377.643 107.775 377.64 108.23C377.643 108.453 377.689 108.674 377.777 108.879C377.865 109.084 377.992 109.27 378.152 109.426C378.312 109.582 378.501 109.705 378.708 109.788C378.915 109.871 379.137 109.913 379.36 109.91C379.582 109.913 379.802 109.871 380.008 109.788C380.213 109.704 380.4 109.581 380.557 109.424C380.715 109.268 380.839 109.082 380.924 108.877C381.008 108.672 381.051 108.452 381.05 108.23C381.047 107.782 380.869 107.352 380.553 107.034C380.237 106.716 379.808 106.535 379.36 106.53V106.51Z" fill="#454F5B" stroke="black" stroke-width="0.25" stroke-miterlimit="10"/>
<path d="M410.34 87.12C410.071 86.4586 409.673 85.857 409.17 85.35C408.666 84.8436 408.063 84.4455 407.4 84.18C406.789 83.9386 406.137 83.8164 405.48 83.82H327.15C326.49 83.8164 325.835 83.9385 325.22 84.18C324.561 84.4481 323.962 84.846 323.46 85.35C322.954 85.8544 322.556 86.4567 322.29 87.12C322.048 87.7309 321.925 88.3828 321.93 89.04V120.82H410.7V89C410.7 88.3563 410.577 87.7184 410.34 87.12V87.12ZM333.12 110.91C332.066 110.91 331.035 110.597 330.159 110.012C329.282 109.426 328.599 108.594 328.196 107.62C327.792 106.646 327.687 105.574 327.892 104.54C328.098 103.506 328.606 102.557 329.351 101.811C330.097 101.066 331.046 100.558 332.08 100.352C333.114 100.147 334.186 100.252 335.16 100.656C336.134 101.059 336.966 101.742 337.552 102.619C338.137 103.495 338.45 104.526 338.45 105.58C338.45 106.994 337.888 108.349 336.889 109.349C335.889 110.348 334.534 110.91 333.12 110.91V110.91ZM387.36 114.08C387.252 114.75 386.883 115.35 386.334 115.749C385.785 116.148 385.101 116.314 384.43 116.21H349.27C348.457 116.34 347.625 116.16 346.939 115.706C346.252 115.253 345.76 114.558 345.56 113.76C345.56 113.76 341.47 103.08 341.71 99.51C342.16 95.92 343.06 93.29 346.6 93.29H385.79C386.006 93.2705 386.224 93.2705 386.44 93.29C389.54 93.38 390.65 96.93 390.92 99.03C391.3 102.62 387.36 114.08 387.36 114.08V114.08ZM400.42 110.91C399.366 110.908 398.337 110.594 397.462 110.007C396.586 109.42 395.905 108.587 395.503 107.613C395.101 106.639 394.997 105.567 395.204 104.534C395.41 103.501 395.919 102.552 396.665 101.808C397.41 101.063 398.36 100.557 399.394 100.352C400.427 100.147 401.499 100.253 402.472 100.657C403.445 101.06 404.277 101.744 404.862 102.62C405.448 103.496 405.76 104.526 405.76 105.58C405.76 106.281 405.622 106.975 405.353 107.622C405.085 108.269 404.691 108.857 404.195 109.352C403.699 109.847 403.111 110.24 402.463 110.507C401.815 110.774 401.121 110.911 400.42 110.91V110.91Z" fill="#454F5B" stroke="black" stroke-width="0.25" stroke-miterlimit="10"/>
<path d="M118.26 34H118.38V33.44H119.56V34H120.74V33.44H121.92V34H123.1V33.44H124.28V34H125.46V33.44H126.64V34H127.82V33.44H129V34H130.18V33.44H131.36V34H132.54V33.44H133.72V34H135V33.44H136.18V34H137.36V33.44H138.54V34H139.72V33.44H140.9V34H142.27V35.4H142.08V36H140.9V35.4H139.7V36H138.52V35.4H137.34V36H136.16V35.4H135V36H133.82V35.4H132.6V36H131.42V35.4H130.24V36H129V35.4H127.82V36H126.64V35.4H125.46V36H124.28V35.4H123.1V36H121.92V35.4H120.74V36H119.56V35.4H118.25L118.26 34ZM115.08 28.76H145.5C146.061 28.7659 146.598 28.988 147 29.38C147.2 29.575 147.357 29.8085 147.464 30.0664C147.571 30.3242 147.624 30.601 147.62 30.88V36.24C147.614 36.8012 147.392 37.3384 147 37.74C146.815 37.9338 146.594 38.0885 146.348 38.195C146.102 38.3015 145.838 38.3576 145.57 38.36C145.134 38.4971 144.73 38.7235 144.386 39.0248C144.042 39.326 143.764 39.6956 143.57 40.11C143.01 40.92 142.57 41.61 141.51 41.61H119.07C118.07 41.61 117.45 40.8 116.83 39.93C116.33 39.24 115.77 38.5 115.02 38.37C114.752 38.3676 114.488 38.3115 114.242 38.205C113.996 38.0985 113.775 37.9438 113.59 37.75C113.39 37.555 113.233 37.3215 113.126 37.0636C113.019 36.8058 112.966 36.529 112.97 36.25V30.91C112.976 30.3488 113.198 29.8116 113.59 29.41C113.784 29.2117 114.016 29.0546 114.272 28.948C114.528 28.8415 114.803 28.7877 115.08 28.79V28.76ZM145 30.35H115.58C115.301 30.3588 115.034 30.469 114.83 30.66C114.729 30.7564 114.649 30.873 114.595 31.0021C114.542 31.1313 114.516 31.2703 114.52 31.41V35.77C114.529 36.0494 114.639 36.316 114.83 36.52C114.926 36.6212 115.043 36.7011 115.172 36.7545C115.301 36.8079 115.44 36.8336 115.58 36.83H115.64C116.183 36.9658 116.691 37.2139 117.132 37.5584C117.573 37.9029 117.937 38.3361 118.2 38.83C118.64 39.45 119.07 40.01 119.57 40.01H141C141.44 40.01 141.75 39.51 142.12 39.01C142.397 38.4846 142.777 38.0206 143.237 37.646C143.698 37.2713 144.229 36.9938 144.8 36.83H144.92C145.199 36.8212 145.466 36.711 145.67 36.52C145.771 36.4236 145.851 36.307 145.904 36.1779C145.958 36.0487 145.984 35.9097 145.98 35.77V31.41C145.971 31.1306 145.861 30.864 145.67 30.66C145.574 30.5588 145.457 30.4789 145.328 30.4255C145.199 30.3721 145.06 30.3464 144.92 30.35H145Z" fill="#454F5B" stroke="black" stroke-width="0.25" stroke-miterlimit="10"/>
<path d="M30.37 76.07H29.64C26.3263 76.07 23.64 78.7563 23.64 82.07V82.8C23.64 86.1137 26.3263 88.8 29.64 88.8H30.37C33.6837 88.8 36.37 86.1137 36.37 82.8V82.07C36.37 78.7563 33.6837 76.07 30.37 76.07Z" fill="black"/>
<path d="M30.37 11.76H29.64C26.3263 11.76 23.64 14.4463 23.64 17.76V18.49C23.64 21.8037 26.3263 24.49 29.64 24.49H30.37C33.6837 24.49 36.37 21.8037 36.37 18.49V17.76C36.37 14.4463 33.6837 11.76 30.37 11.76Z" fill="black"/>
<path d="M23.64 18.49H36.37V82.8H23.64V18.49Z" fill="black"/>
</svg>
