<svg fill="none" height="146" viewBox="0 0 469 146" width="469" xmlns="http://www.w3.org/2000/svg"><path d="m457.66.65c2.932-.000002 5.743 1.16387 7.817 3.23586s3.24 4.88258 3.243 7.81414v122.83c0 2.933-1.165 5.746-3.239 7.821-2.075 2.074-4.888 3.239-7.821 3.239h-445.6c-2.93329 0-5.74645-1.165-7.8206-3.239-2.07415-2.075-3.2394-4.888-3.2394-7.821v-122.83c.00265-2.93156 1.16907-5.74215 3.24293-7.81414 2.07387-2.07199 4.88551-3.235862 7.81707-3.23586z" fill="#2e343c" stroke="#000" stroke-linecap="round" stroke-linejoin="round" stroke-width=".43"/><path d="m19.4 11.42c0 .9889-.2932 1.9556-.8426 2.7779-.5494.8222-1.3303 1.4631-2.244 1.8415-.9136.3784-1.9189.4775-2.8888.2845-.9699-.1929-1.8608-.6691-2.5601-1.3684-.6993-.6992-1.17547-1.5901-1.3684-2.56-.19293-.97-.09391-1.9753.28453-2.88892.37847-.91363 1.01927-1.69452 1.84157-2.24393.8222-.54941 1.7889-.84265 2.7778-.84265 1.3261 0 2.5979.52678 3.5356 1.46447.9376.93768 1.4644 2.20943 1.4644 3.53553z" fill="#454f5b" stroke="#000" stroke-linecap="round" stroke-linejoin="round" stroke-width=".43"/><path d="m19.4 134.8c0 .989-.2932 1.956-.8426 2.778s-1.3303 1.463-2.244 1.841c-.9136.379-1.9189.478-2.8888.285s-1.8608-.669-2.5601-1.368c-.6993-.7-1.17547-1.591-1.3684-2.561-.19293-.969-.09391-1.975.28453-2.888.37847-.914 1.01927-1.695 1.84157-2.244.8222-.55 1.7889-.843 2.7778-.843 1.3261 0 2.5979.527 3.5356 1.464.9376.938 1.4644 2.21 1.4644 3.536z" fill="#454f5b" stroke="#000" stroke-linecap="round" stroke-linejoin="round" stroke-width=".43"/><path d="m460.24 134.8c0 .989-.293 1.956-.843 2.778-.549.822-1.33 1.463-2.244 1.841-.913.379-1.919.478-2.888.285-.97-.193-1.861-.669-2.561-1.368-.699-.7-1.175-1.591-1.368-2.561-.193-.969-.094-1.975.285-2.888.378-.914 1.019-1.695 1.841-2.244.822-.55 1.789-.843 2.778-.843 1.326 0 2.598.527 3.536 1.464.937.938 1.464 2.21 1.464 3.536z" fill="#454f5b" stroke="#000" stroke-linecap="round" stroke-linejoin="round" stroke-width=".43"/><path d="m460.24 11.42c0 .9889-.293 1.9556-.843 2.7779-.549.8222-1.33 1.4631-2.244 1.8415-.913.3784-1.919.4775-2.888.2845-.97-.1929-1.861-.6691-2.561-1.3684-.699-.6992-1.175-1.5901-1.368-2.56-.193-.97-.094-1.9753.285-2.88892.378-.91363 1.019-1.69452 1.841-2.24393s1.789-.84265 2.778-.84265c1.326 0 2.598.52678 3.536 1.46447.937.93768 1.464 2.20943 1.464 3.53553z" fill="#454f5b" stroke="#000" stroke-linecap="round" stroke-linejoin="round" stroke-width=".43"/><path d="m191.466 86.5h-1.646v-6.5449l-2.156.7734v-1.418l3.715-1.3417h.087z" fill="#fcfcfc"/><path d="m202.949 86.5h-5.818v-1.1133l2.76-2.9648c.215-.2344.396-.4473.545-.6387.148-.1914.267-.3652.357-.5215.094-.1601.16-.3086.199-.4453.043-.1367.065-.2695.065-.3984 0-.1914-.028-.3614-.082-.5098-.055-.1484-.133-.2734-.235-.375-.097-.1055-.216-.1855-.357-.2402-.137-.0547-.289-.0821-.457-.0821-.449 0-.785.125-1.008.375-.219.25-.328.5996-.328 1.0489h-1.635c0-.3789.072-.7364.217-1.0723.145-.3398.348-.6367.609-.8906.266-.2539.584-.4531.955-.5977.375-.1484.79-.2226 1.243-.2226.433 0 .816.0605 1.148.1816.336.1211.615.291.838.5098.227.2187.398.4824.516.791.117.3047.175.6426.175 1.0137 0 .2812-.045.5507-.134.8085-.086.254-.211.5059-.375.7559-.161.25-.354.5059-.58.7676-.227.2578-.479.5293-.756.8144l-1.606 1.6993h3.744z" fill="#fcfcfc"/><path d="m208.907 81.5195h.885c.445 0 .775-.1113.99-.334.215-.2265.322-.5214.322-.8847 0-.168-.025-.3203-.076-.457-.047-.1407-.119-.2598-.217-.3575-.097-.1015-.222-.1797-.375-.2343-.148-.0547-.322-.0821-.521-.0821-.164 0-.319.0235-.463.0703-.141.0469-.266.1153-.375.2051-.106.0859-.19.1914-.252.3164-.063.125-.094.2656-.094.4219h-1.629c0-.3477.071-.6641.211-.9492.145-.2852.342-.5293.592-.7324.25-.2071.543-.3672.879-.4805.34-.1133.705-.1699 1.096-.1699.421 0 .808.0527 1.16.1582.351.1015.652.2558.902.4629.25.2031.443.457.58.7617.141.3008.211.6504.211 1.0488 0 .1836-.027.3652-.082.5449-.055.1758-.135.3438-.24.5039-.106.1602-.237.3086-.393.4453-.156.1329-.336.2481-.539.3457.238.086.444.1954.615.3282.176.1328.321.2851.434.457.113.168.197.3535.252.5566.055.2032.082.418.082.6446 0 .3984-.076.7539-.229 1.0664-.152.3125-.361.5762-.627.791-.265.2109-.582.373-.949.4863-.363.1094-.756.1641-1.177.1641-.364 0-.719-.0488-1.067-.1465-.344-.1016-.65-.2519-.92-.4512-.269-.2031-.486-.457-.65-.7617-.16-.3047-.24-.664-.24-1.0781h1.628c0 .1641.032.3164.094.457.063.1367.151.2559.264.3574.117.0977.254.1758.41.2344.156.0547.328.082.516.082.414 0 .738-.1093.972-.3281.235-.2187.352-.5156.352-.8906 0-.2305-.033-.4277-.1-.5918-.066-.1641-.164-.2988-.293-.4043-.125-.1055-.277-.1836-.457-.2344-.175-.0508-.375-.0761-.597-.0761h-.885z" fill="#fcfcfc"/><path d="m221.919 83.3301h.99v1.3183h-.99v1.8516h-1.629v-1.8516h-3.545l-.064-1.0195 3.586-5.6601h1.652zm-3.639 0h2.01v-3.1699l-.158.2812z" fill="#fcfcfc"/><path d="m227.138 82.2988.487-4.33h4.734v1.3828h-3.393l-.205 1.875c.121-.0704.293-.1426.516-.2168.223-.0743.479-.1114.768-.1114.41 0 .775.0664 1.095.1993.325.1289.596.3164.815.5625.222.246.392.5468.51.9023.117.3555.175.7578.175 1.207 0 .3828-.056.7461-.17 1.0899-.113.3437-.287.6465-.521.9082s-.529.4687-.885.6211c-.355.1523-.775.2285-1.26.2285-.367 0-.722-.0547-1.066-.1641-.34-.1093-.643-.2695-.908-.4804-.266-.211-.483-.4688-.651-.7735-.164-.3086-.252-.6601-.263-1.0547h1.605c.039.3711.172.6582.399.8614.23.2031.523.3046.879.3046.218 0 .404-.041.556-.123.156-.082.281-.1953.375-.3398.098-.1446.168-.3165.211-.5157.047-.1992.07-.414.07-.6445 0-.2266-.029-.4336-.087-.6211-.055-.1914-.141-.3555-.258-.4922s-.264-.2422-.44-.3164-.383-.1113-.621-.1113c-.16 0-.299.0137-.416.041s-.221.0625-.31.1055c-.09.0429-.17.0937-.241.1523-.07.0547-.136.1133-.199.1758z" fill="#fcfcfc"/><path d="m241.276 77.8984v1.3536h-.094c-.43 0-.811.0566-1.143.1699-.328.1133-.609.2734-.844.4804-.23.2071-.414.4551-.55.7442-.133.289-.217.6113-.252.9668.09-.0977.193-.1934.31-.2871.117-.0977.248-.1836.393-.2578.148-.0782.308-.1407.48-.1875.172-.0469.358-.0704.557-.0704.406 0 .76.0782 1.061.2344.304.1524.558.3613.761.627.203.2617.354.5683.451.9199.102.3477.153.7148.153 1.1016 0 .414-.067.7988-.199 1.1543-.133.3554-.323.664-.569.9257-.246.2618-.545.4688-.896.6211-.352.1485-.746.2227-1.184.2227-.457 0-.869-.084-1.236-.252-.367-.1718-.68-.4082-.938-.709-.254-.3007-.451-.6562-.592-1.0664-.136-.414-.205-.8652-.205-1.3535v-.6269c0-.6758.092-1.3008.276-1.875.183-.5782.457-1.0762.82-1.4942.363-.4218.815-.75 1.354-.9843.539-.2383 1.162-.3575 1.869-.3575zm-1.618 4.2188c-.293 0-.552.0781-.779.2344-.223.1562-.391.3574-.504.6035v.4804c0 .3125.031.586.094.8204.066.2343.158.4296.275.5859.118.1523.256.2676.416.3457s.334.1172.522.1172c.191 0 .365-.0391.521-.1172.157-.082.289-.1934.399-.334.109-.1406.193-.3066.252-.498.058-.1953.088-.4082.088-.6387s-.03-.4434-.088-.6387c-.059-.1953-.143-.3633-.252-.5039-.11-.1445-.244-.2558-.405-.334-.156-.082-.335-.123-.539-.123z" fill="#fcfcfc"/><path d="m252.419 78.877-3.323 7.623h-1.716l3.328-7.2012h-4.283v-1.33h5.994z" fill="#fcfcfc"/><path d="m262.097 80.2363c0 .4141-.106.7832-.317 1.1075-.207.3203-.492.5761-.855.7675.414.1953.742.4688.984.8203.246.3516.37.7637.37 1.2364 0 .4023-.075.7558-.223 1.0605-.145.3047-.346.5606-.604.7676-.254.2031-.554.3574-.902.4629s-.723.1582-1.125.1582c-.406 0-.785-.0527-1.137-.1582-.347-.1055-.65-.2598-.908-.4629-.258-.207-.461-.4629-.609-.7676-.145-.3047-.217-.6582-.217-1.0605 0-.2344.031-.4551.094-.6621.066-.211.158-.4024.275-.5743.117-.1757.258-.332.422-.4687.168-.1406.355-.2598.562-.3574-.363-.1875-.648-.4414-.855-.7617-.207-.3243-.311-.6934-.311-1.1075 0-.3867.067-.7265.2-1.0195.132-.2969.316-.5469.55-.75.239-.2031.52-.3555.844-.457.328-.1055.686-.1582 1.072-.1582.387 0 .745.0527 1.073.1582.328.1015.611.2539.849.457.242.2031.43.4531.563.75.137.293.205.6328.205 1.0195zm-1.453 3.8203c0-.1953-.03-.3711-.088-.5273-.059-.1563-.143-.2891-.252-.3984-.106-.1133-.234-.1993-.387-.2579-.148-.0585-.316-.0878-.504-.0878-.187 0-.357.0293-.509.0878-.149.0586-.276.1446-.381.2579-.106.1093-.188.2421-.246.3984-.059.1562-.088.332-.088.5273 0 .3907.111.6973.334.92.222.2226.523.3339.902.3339.18 0 .344-.0273.492-.082.149-.0586.276-.1426.381-.2519.109-.1094.193-.2403.252-.3926.063-.1563.094-.332.094-.5274zm-.17-3.7441c0-.1719-.026-.3281-.076-.4687-.051-.1407-.123-.2598-.217-.3575-.09-.1015-.201-.1797-.334-.2343-.129-.0547-.276-.0821-.44-.0821-.332 0-.587.1016-.767.3047s-.27.4824-.27.8379c0 .1719.024.3301.071.4746.047.1406.115.2617.205.3633.093.1016.205.1816.334.2402.133.0547.281.0821.445.0821s.311-.0274.439-.0821c.129-.0586.239-.1386.329-.2402.089-.1016.158-.2227.205-.3633.05-.1445.076-.3027.076-.4746z" fill="#fcfcfc"/><path d="m288.316 86.5h-1.646v-6.5449l-2.156.7734v-1.418l3.715-1.3417h.087z" fill="#fcfcfc"/><path d="m299.799 86.5h-5.818v-1.1133l2.76-2.9648c.215-.2344.396-.4473.545-.6387.148-.1914.267-.3652.357-.5215.094-.1601.16-.3086.199-.4453.043-.1367.065-.2695.065-.3984 0-.1914-.028-.3614-.082-.5098-.055-.1484-.133-.2734-.235-.375-.097-.1055-.216-.1855-.357-.2402-.137-.0547-.289-.0821-.457-.0821-.449 0-.785.125-1.008.375-.219.25-.328.5996-.328 1.0489h-1.635c0-.3789.072-.7364.217-1.0723.145-.3398.348-.6367.609-.8906.266-.2539.584-.4531.955-.5977.375-.1484.789-.2226 1.243-.2226.433 0 .816.0605 1.148.1816.336.1211.615.291.838.5098.227.2187.398.4824.516.791.117.3047.175.6426.175 1.0137 0 .2812-.045.5507-.134.8085-.086.254-.211.5059-.375.7559-.161.25-.354.5059-.58.7676-.227.2578-.479.5293-.756.8144l-1.606 1.6993h3.744z" fill="#fcfcfc"/><path d="m305.757 81.5195h.885c.445 0 .775-.1113.99-.334.215-.2265.322-.5214.322-.8847 0-.168-.025-.3203-.076-.457-.047-.1407-.119-.2598-.217-.3575-.098-.1015-.223-.1797-.375-.2343-.148-.0547-.322-.0821-.521-.0821-.164 0-.319.0235-.463.0703-.141.0469-.266.1153-.375.2051-.106.0859-.19.1914-.252.3164-.063.125-.094.2656-.094.4219h-1.629c0-.3477.07-.6641.211-.9492.145-.2852.342-.5293.592-.7324.25-.2071.543-.3672.879-.4805.34-.1133.705-.1699 1.096-.1699.421 0 .808.0527 1.16.1582.351.1015.652.2558.902.4629.25.2031.443.457.58.7617.141.3008.211.6504.211 1.0488 0 .1836-.027.3652-.082.5449-.055.1758-.135.3438-.24.5039-.106.1602-.237.3086-.393.4453-.156.1329-.336.2481-.539.3457.238.086.443.1954.615.3282.176.1328.321.2851.434.457.113.168.197.3535.252.5566.055.2032.082.418.082.6446 0 .3984-.076.7539-.229 1.0664-.152.3125-.361.5762-.627.791-.265.2109-.582.373-.949.4863-.363.1094-.756.1641-1.177.1641-.364 0-.719-.0488-1.067-.1465-.344-.1016-.65-.2519-.92-.4512-.269-.2031-.486-.457-.65-.7617-.16-.3047-.24-.664-.24-1.0781h1.628c0 .1641.032.3164.094.457.063.1367.151.2559.264.3574.117.0977.254.1758.41.2344.156.0547.328.082.516.082.414 0 .738-.1093.972-.3281.235-.2187.352-.5156.352-.8906 0-.2305-.033-.4277-.1-.5918-.066-.1641-.164-.2988-.293-.4043-.125-.1055-.277-.1836-.457-.2344-.176-.0508-.375-.0761-.597-.0761h-.885z" fill="#fcfcfc"/><path d="m318.769 83.3301h.99v1.3183h-.99v1.8516h-1.629v-1.8516h-3.545l-.064-1.0195 3.586-5.6601h1.652zm-3.639 0h2.01v-3.1699l-.158.2812z" fill="#fcfcfc"/><path d="m323.988 82.2988.487-4.33h4.734v1.3828h-3.393l-.205 1.875c.121-.0704.293-.1426.516-.2168.223-.0743.479-.1114.768-.1114.41 0 .775.0664 1.095.1993.324.1289.596.3164.815.5625.222.246.392.5468.509.9023.118.3555.176.7578.176 1.207 0 .3828-.056.7461-.17 1.0899-.113.3437-.287.6465-.521.9082-.235.2617-.529.4687-.885.6211-.355.1523-.775.2285-1.26.2285-.367 0-.722-.0547-1.066-.1641-.34-.1093-.643-.2695-.908-.4804-.266-.211-.483-.4688-.651-.7735-.164-.3086-.252-.6601-.263-1.0547h1.605c.039.3711.172.6582.399.8614.23.2031.523.3046.878.3046.219 0 .405-.041.557-.123.156-.082.281-.1953.375-.3398.098-.1446.168-.3165.211-.5157.047-.1992.07-.414.07-.6445 0-.2266-.029-.4336-.088-.6211-.054-.1914-.14-.3555-.257-.4922-.118-.1367-.264-.2422-.44-.3164s-.383-.1113-.621-.1113c-.16 0-.299.0137-.416.041s-.221.0625-.31.1055c-.09.0429-.17.0937-.241.1523-.07.0547-.136.1133-.199.1758z" fill="#fcfcfc"/><path d="m338.126 77.8984v1.3536h-.094c-.43 0-.811.0566-1.143.1699-.328.1133-.609.2734-.844.4804-.23.2071-.414.4551-.55.7442-.133.289-.217.6113-.252.9668.09-.0977.193-.1934.31-.2871.117-.0977.248-.1836.393-.2578.148-.0782.308-.1407.48-.1875.172-.0469.358-.0704.557-.0704.406 0 .76.0782 1.061.2344.304.1524.558.3613.761.627.203.2617.354.5683.451.9199.102.3477.153.7148.153 1.1016 0 .414-.067.7988-.199 1.1543-.133.3554-.323.664-.569.9257-.246.2618-.545.4688-.896.6211-.352.1485-.746.2227-1.184.2227-.457 0-.869-.084-1.236-.252-.367-.1718-.68-.4082-.938-.709-.254-.3007-.451-.6562-.592-1.0664-.136-.414-.205-.8652-.205-1.3535v-.6269c0-.6758.092-1.3008.276-1.875.183-.5782.457-1.0762.82-1.4942.363-.4218.815-.75 1.354-.9843.539-.2383 1.162-.3575 1.869-.3575zm-1.618 4.2188c-.293 0-.552.0781-.779.2344-.223.1562-.391.3574-.504.6035v.4804c0 .3125.031.586.094.8204.066.2343.158.4296.275.5859.117.1523.256.2676.416.3457s.334.1172.522.1172c.191 0 .365-.0391.521-.1172.157-.082.289-.1934.399-.334.109-.1406.193-.3066.252-.498.058-.1953.088-.4082.088-.6387s-.03-.4434-.088-.6387c-.059-.1953-.143-.3633-.252-.5039-.11-.1445-.244-.2558-.405-.334-.156-.082-.336-.123-.539-.123z" fill="#fcfcfc"/><path d="m349.269 78.877-3.323 7.623h-1.716l3.328-7.2012h-4.284v-1.33h5.995z" fill="#fcfcfc"/><path d="m358.947 80.2363c0 .4141-.106.7832-.317 1.1075-.207.3203-.492.5761-.855.7675.414.1953.742.4688.984.8203.246.3516.37.7637.37 1.2364 0 .4023-.075.7558-.223 1.0605-.145.3047-.346.5606-.604.7676-.254.2031-.554.3574-.902.4629s-.723.1582-1.125.1582c-.406 0-.785-.0527-1.137-.1582-.347-.1055-.65-.2598-.908-.4629-.258-.207-.461-.4629-.609-.7676-.145-.3047-.217-.6582-.217-1.0605 0-.2344.031-.4551.094-.6621.066-.211.158-.4024.275-.5743.117-.1757.258-.332.422-.4687.168-.1406.355-.2598.562-.3574-.363-.1875-.648-.4414-.855-.7617-.207-.3243-.311-.6934-.311-1.1075 0-.3867.067-.7265.2-1.0195.132-.2969.316-.5469.55-.75.239-.2031.52-.3555.844-.457.328-.1055.686-.1582 1.072-.1582.387 0 .745.0527 1.073.1582.328.1015.611.2539.849.457.242.2031.43.4531.563.75.137.293.205.6328.205 1.0195zm-1.453 3.8203c0-.1953-.03-.3711-.088-.5273-.059-.1563-.143-.2891-.252-.3984-.106-.1133-.234-.1993-.387-.2579-.148-.0585-.316-.0878-.504-.0878-.187 0-.357.0293-.509.0878-.149.0586-.276.1446-.381.2579-.106.1093-.188.2421-.246.3984-.059.1562-.088.332-.088.5273 0 .3907.111.6973.334.92.222.2226.523.3339.902.3339.18 0 .344-.0273.492-.082.149-.0586.276-.1426.381-.2519.109-.1094.193-.2403.252-.3926.062-.1563.094-.332.094-.5274zm-.17-3.7441c0-.1719-.026-.3281-.076-.4687-.051-.1407-.123-.2598-.217-.3575-.09-.1015-.201-.1797-.334-.2343-.129-.0547-.276-.0821-.44-.0821-.332 0-.587.1016-.767.3047s-.27.4824-.27.8379c0 .1719.024.3301.071.4746.046.1406.115.2617.205.3633.093.1016.205.1816.334.2402.132.0547.281.0821.445.0821s.311-.0274.439-.0821c.129-.0586.239-.1386.329-.2402.089-.1016.158-.2227.205-.3633.05-.1445.076-.3027.076-.4746z" fill="#fcfcfc"/><path d="m272.301 82.7584h-4.881v-1.3184h4.881z" fill="#fcfcfc"/><path d="m369.301 82.7584h-4.881v-1.3184h4.881z" fill="#fcfcfc"/><path d="m104.116 86.5h-1.646v-6.5449l-2.156.7734v-1.418l3.715-1.3417h.087z" fill="#fcfcfc"/><path d="m115.599 86.5h-5.818v-1.1133l2.76-2.9648c.215-.2344.396-.4473.545-.6387.148-.1914.267-.3652.357-.5215.094-.1601.16-.3086.199-.4453.043-.1367.065-.2695.065-.3984 0-.1914-.028-.3614-.082-.5098-.055-.1484-.133-.2734-.235-.375-.097-.1055-.216-.1855-.357-.2402-.137-.0547-.289-.0821-.457-.0821-.449 0-.785.125-1.008.375-.219.25-.328.5996-.328 1.0489h-1.635c0-.3789.072-.7364.217-1.0723.145-.3398.348-.6367.609-.8906.266-.2539.584-.4531.955-.5977.375-.1484.789-.2226 1.243-.2226.433 0 .816.0605 1.148.1816.336.1211.615.291.838.5098.227.2187.398.4824.516.791.117.3047.175.6426.175 1.0137 0 .2812-.045.5507-.134.8085-.086.254-.211.5059-.375.7559-.161.25-.354.5059-.58.7676-.227.2578-.479.5293-.756.8144l-1.606 1.6993h3.744z" fill="#fcfcfc"/><path d="m121.557 81.5195h.885c.445 0 .775-.1113.99-.334.215-.2265.322-.5214.322-.8847 0-.168-.025-.3203-.076-.457-.047-.1407-.119-.2598-.217-.3575-.098-.1015-.223-.1797-.375-.2343-.148-.0547-.322-.0821-.521-.0821-.164 0-.319.0235-.463.0703-.141.0469-.266.1153-.375.2051-.106.0859-.19.1914-.252.3164-.063.125-.094.2656-.094.4219h-1.629c0-.3477.07-.6641.211-.9492.145-.2852.342-.5293.592-.7324.25-.2071.543-.3672.879-.4805.34-.1133.705-.1699 1.096-.1699.421 0 .808.0527 1.16.1582.351.1015.652.2558.902.4629.25.2031.443.457.58.7617.141.3008.211.6504.211 1.0488 0 .1836-.027.3652-.082.5449-.055.1758-.135.3438-.24.5039-.106.1602-.237.3086-.393.4453-.156.1329-.336.2481-.539.3457.238.086.443.1954.615.3282.176.1328.321.2851.434.457.113.168.197.3535.252.5566.055.2032.082.418.082.6446 0 .3984-.076.7539-.229 1.0664-.152.3125-.361.5762-.627.791-.265.2109-.582.373-.949.4863-.363.1094-.756.1641-1.177.1641-.364 0-.719-.0488-1.067-.1465-.344-.1016-.65-.2519-.92-.4512-.269-.2031-.486-.457-.65-.7617-.16-.3047-.24-.664-.24-1.0781h1.628c0 .1641.032.3164.094.457.063.1367.151.2559.264.3574.117.0977.254.1758.41.2344.156.0547.328.082.516.082.414 0 .738-.1093.972-.3281.235-.2187.352-.5156.352-.8906 0-.2305-.033-.4277-.1-.5918-.066-.1641-.164-.2988-.293-.4043-.125-.1055-.277-.1836-.457-.2344-.176-.0508-.375-.0761-.597-.0761h-.885z" fill="#fcfcfc"/><path d="m134.569 83.3301h.99v1.3183h-.99v1.8516h-1.629v-1.8516h-3.545l-.064-1.0195 3.586-5.6601h1.652zm-3.639 0h2.01v-3.1699l-.158.2812z" fill="#fcfcfc"/><path d="m139.788 82.2988.487-4.33h4.734v1.3828h-3.393l-.205 1.875c.121-.0704.293-.1426.516-.2168.223-.0743.479-.1114.768-.1114.41 0 .775.0664 1.095.1993.324.1289.596.3164.815.5625.222.246.392.5468.509.9023.118.3555.176.7578.176 1.207 0 .3828-.056.7461-.17 1.0899-.113.3437-.287.6465-.521.9082-.235.2617-.529.4687-.885.6211-.355.1523-.775.2285-1.26.2285-.367 0-.722-.0547-1.066-.1641-.34-.1093-.643-.2695-.908-.4804-.266-.211-.483-.4688-.651-.7735-.164-.3086-.252-.6601-.263-1.0547h1.605c.039.3711.172.6582.399.8614.23.2031.523.3046.878.3046.219 0 .405-.041.557-.123.156-.082.281-.1953.375-.3398.098-.1446.168-.3165.211-.5157.047-.1992.07-.414.07-.6445 0-.2266-.029-.4336-.088-.6211-.054-.1914-.14-.3555-.257-.4922-.118-.1367-.264-.2422-.44-.3164s-.383-.1113-.621-.1113c-.16 0-.299.0137-.416.041s-.221.0625-.31.1055c-.09.0429-.17.0937-.241.1523-.07.0547-.136.1133-.199.1758z" fill="#fcfcfc"/><path d="m153.926 77.8984v1.3536h-.094c-.43 0-.811.0566-1.143.1699-.328.1133-.609.2734-.844.4804-.23.2071-.414.4551-.55.7442-.133.289-.217.6113-.252.9668.09-.0977.193-.1934.31-.2871.117-.0977.248-.1836.393-.2578.148-.0782.308-.1407.48-.1875.172-.0469.358-.0704.557-.0704.406 0 .76.0782 1.061.2344.304.1524.558.3613.761.627.203.2617.354.5683.451.9199.102.3477.153.7148.153 1.1016 0 .414-.067.7988-.199 1.1543-.133.3554-.323.664-.569.9257-.246.2618-.545.4688-.896.6211-.352.1485-.746.2227-1.184.2227-.457 0-.869-.084-1.236-.252-.367-.1718-.68-.4082-.938-.709-.254-.3007-.451-.6562-.592-1.0664-.136-.414-.205-.8652-.205-1.3535v-.6269c0-.6758.092-1.3008.276-1.875.183-.5782.457-1.0762.82-1.4942.363-.4218.815-.75 1.354-.9843.539-.2383 1.162-.3575 1.869-.3575zm-1.618 4.2188c-.293 0-.552.0781-.779.2344-.223.1562-.391.3574-.504.6035v.4804c0 .3125.031.586.094.8204.066.2343.158.4296.275.5859.117.1523.256.2676.416.3457s.334.1172.522.1172c.191 0 .365-.0391.521-.1172.157-.082.289-.1934.399-.334.109-.1406.193-.3066.252-.498.058-.1953.088-.4082.088-.6387s-.03-.4434-.088-.6387c-.059-.1953-.143-.3633-.252-.5039-.11-.1445-.244-.2558-.405-.334-.156-.082-.336-.123-.539-.123z" fill="#fcfcfc"/><path d="m165.069 78.877-3.323 7.623h-1.716l3.328-7.2012h-4.284v-1.33h5.995z" fill="#fcfcfc"/><path d="m174.747 80.2363c0 .4141-.106.7832-.317 1.1075-.207.3203-.492.5761-.855.7675.414.1953.742.4688.984.8203.246.3516.369.7637.369 1.2364 0 .4023-.074.7558-.222 1.0605-.145.3047-.346.5606-.604.7676-.254.2031-.554.3574-.902.4629s-.723.1582-1.125.1582c-.406 0-.785-.0527-1.137-.1582-.347-.1055-.65-.2598-.908-.4629-.258-.207-.461-.4629-.609-.7676-.145-.3047-.217-.6582-.217-1.0605 0-.2344.031-.4551.094-.6621.066-.211.158-.4024.275-.5743.117-.1757.258-.332.422-.4687.168-.1406.355-.2598.562-.3574-.363-.1875-.648-.4414-.855-.7617-.207-.3243-.311-.6934-.311-1.1075 0-.3867.067-.7265.2-1.0195.132-.2969.316-.5469.55-.75.239-.2031.52-.3555.844-.457.328-.1055.686-.1582 1.072-.1582.387 0 .745.0527 1.073.1582.328.1015.611.2539.849.457.242.2031.43.4531.563.75.136.293.205.6328.205 1.0195zm-1.453 3.8203c0-.1953-.03-.3711-.088-.5273-.059-.1563-.143-.2891-.252-.3984-.106-.1133-.234-.1993-.387-.2579-.148-.0585-.316-.0878-.504-.0878-.187 0-.357.0293-.51.0878-.148.0586-.275.1446-.38.2579-.106.1093-.188.2421-.246.3984-.059.1562-.088.332-.088.5273 0 .3907.111.6973.334.92.222.2226.523.3339.902.3339.18 0 .344-.0273.492-.082.149-.0586.276-.1426.381-.2519.109-.1094.193-.2403.252-.3926.062-.1563.094-.332.094-.5274zm-.17-3.7441c0-.1719-.026-.3281-.076-.4687-.051-.1407-.123-.2598-.217-.3575-.09-.1015-.201-.1797-.334-.2343-.129-.0547-.276-.0821-.44-.0821-.332 0-.587.1016-.767.3047s-.27.4824-.27.8379c0 .1719.024.3301.071.4746.046.1406.115.2617.205.3633.093.1016.205.1816.334.2402.132.0547.281.0821.445.0821s.311-.0274.439-.0821c.129-.0586.239-.1386.329-.2402.089-.1016.158-.2227.205-.3633.05-.1445.076-.3027.076-.4746z" fill="#fcfcfc"/><path d="m85.3176 82.7617h-3.5039v2.4082h4.0957v1.3301h-5.7481v-8.5312h5.7305v1.3417h-4.0781v2.1504h3.5039z" fill="#fcfcfc"/><path d="m95.7509 82.7584h-4.8809v-1.3184h4.8809z" fill="#fcfcfc"/><path d="m58.2562 82.793h-3.5039v2.4082h4.0957v1.33h-5.748v-8.5312h5.7304v1.3418h-4.0781v2.1504h3.5039z" fill="#fcfcfc"/><path d="m46.5831 81.3086h2.1446v1.4883h-2.1446v2.414h-1.5527v-2.414h-2.1504v-1.4883h2.1504v-2.3086h1.5527z" fill="#fcfcfc"/><path d="m68.6309 82.7584h-4.8809v-1.3184h4.8809z" fill="#fcfcfc"/><path d="m200.906 69.3v-7.1094h2.188c.625 0 1.183.1416 1.675.4248.494.28.88.6804 1.157 1.2012.276.5176.415 1.1068.415 1.7676v.3271c0 .6608-.137 1.2484-.41 1.7627-.271.5143-.653.9131-1.148 1.1963s-1.053.4264-1.675.4297zm1.465-5.9228v4.746h.708c.573 0 1.011-.1871 1.314-.5615.302-.3743.457-.9098.463-1.6064v-.376c0-.7227-.149-1.2695-.449-1.6406-.299-.3744-.737-.5615-1.313-.5615z" fill="#fcfcfc"/><path d="m208.968 69.3h-1.465v-7.1094h1.465z" fill="#fcfcfc"/><path d="m215.955 68.4016c-.264.3157-.636.5615-1.118.7373-.482.1725-1.016.2588-1.602.2588-.615 0-1.155-.1335-1.621-.4004-.462-.2702-.82-.6608-1.074-1.1719-.251-.5111-.379-1.1117-.386-1.8018v-.4834c0-.7096.119-1.3232.357-1.8408.241-.5208.586-.918 1.035-1.1914.452-.2767.981-.415 1.587-.415.843 0 1.502.2018 1.977.6054.476.4004.757.9847.845 1.753h-1.426c-.065-.4069-.21-.7048-.434-.8936-.222-.1888-.528-.2832-.918-.2832-.498 0-.878.1872-1.138.5615-.26.3744-.392.931-.395 1.67v.4541c0 .7454.141 1.3086.424 1.6894.284.3809.699.5713 1.245.5713.551 0 .943-.1172 1.177-.3516v-1.2255h-1.333v-1.0791h2.798z" fill="#fcfcfc"/><path d="m218.704 69.3h-1.465v-7.1094h1.465z" fill="#fcfcfc"/><path d="m225.271 63.3772h-2.177v5.9228h-1.465v-5.9228h-2.149v-1.1866h5.791z" fill="#fcfcfc"/><path d="m229.539 67.8352h-2.568l-.489 1.4648h-1.557l2.646-7.1094h1.358l2.661 7.1094h-1.558zm-2.173-1.1866h1.778l-.894-2.6611z" fill="#fcfcfc"/><path d="m233.719 68.1232h3.11v1.1768h-4.575v-7.1094h1.465z" fill="#fcfcfc"/><path d="m241.722 69.3h-1.465v-7.1094h1.465z" fill="#fcfcfc"/><path d="m248.865 69.3h-1.465l-2.851-4.6777v4.6777h-1.465v-7.1094h1.465l2.856 4.6875v-4.6875h1.46z" fill="#fcfcfc"/><path d="m256.648 67.8352h-2.568l-.488 1.4648h-1.558l2.647-7.1094h1.357l2.661 7.1094h-1.557zm-2.172-1.1866h1.777l-.894-2.6611z" fill="#fcfcfc"/><path d="m98.667 69.3v-7.1094h2.187c.625 0 1.184.1416 1.675.4248.495.28.881.6804 1.158 1.2012.276.5176.415 1.1068.415 1.7676v.3271c0 .6608-.137 1.2484-.411 1.7627-.27.5143-.652.9131-1.147 1.1963s-1.053.4264-1.675.4297zm1.465-5.9228v4.746h.708c.573 0 1.011-.1871 1.313-.5615.303-.3743.458-.9098.464-1.6064v-.376c0-.7227-.15-1.2695-.449-1.6406-.3-.3744-.737-.5615-1.314-.5615z" fill="#fcfcfc"/><path d="m106.729 69.3h-1.465v-7.1094h1.465z" fill="#fcfcfc"/><path d="m113.716 68.4016c-.264.3157-.637.5615-1.118.7373-.482.1725-1.016.2588-1.602.2588-.615 0-1.156-.1335-1.621-.4004-.462-.2702-.82-.6608-1.074-1.1719-.251-.5111-.379-1.1117-.386-1.8018v-.4834c0-.7096.119-1.3232.356-1.8408.241-.5208.586-.918 1.036-1.1914.452-.2767.981-.415 1.587-.415.843 0 1.502.2018 1.977.6054.475.4004.757.9847.845 1.753h-1.426c-.065-.4069-.21-.7048-.435-.8936-.221-.1888-.527-.2832-.917-.2832-.499 0-.878.1872-1.138.5615-.261.3744-.392.931-.396 1.67v.4541c0 .7454.142 1.3086.425 1.6894.283.3809.698.5713 1.245.5713.55 0 .943-.1172 1.177-.3516v-1.2255h-1.333v-1.0791h2.798z" fill="#fcfcfc"/><path d="m116.465 69.3h-1.465v-7.1094h1.465z" fill="#fcfcfc"/><path d="m123.032 63.3772h-2.178v5.9228h-1.464v-5.9228h-2.149v-1.1866h5.791z" fill="#fcfcfc"/><path d="m127.3 67.8352h-2.569l-.488 1.4648h-1.557l2.646-7.1094h1.357l2.662 7.1094h-1.558zm-2.173-1.1866h1.777l-.893-2.6611z" fill="#fcfcfc"/><path d="m131.479 68.1232h3.111v1.1768h-4.575v-7.1094h1.464z" fill="#fcfcfc"/><path d="m143.765 65.9064c0 .6999-.124 1.3135-.371 1.8409-.248.5273-.603.9342-1.065 1.2207-.459.2864-.986.4297-1.582.4297-.589 0-1.115-.1416-1.577-.4248s-.82-.6869-1.074-1.211c-.254-.5273-.383-1.1328-.386-1.8164v-.3516c0-.6998.125-1.3151.376-1.8457.254-.5338.61-.9423 1.069-1.2255.463-.2865.99-.4297 1.582-.4297.593 0 1.118.1432 1.577.4297.463.2832.819.6917 1.07 1.2255.254.5306.381 1.1443.381 1.8409zm-1.485-.3222c0-.7455-.133-1.3119-.4-1.6992-.267-.3874-.648-.5811-1.143-.5811-.491 0-.87.1921-1.137.5762-.267.3808-.402.9407-.406 1.6797v.3466c0 .726.134 1.2891.401 1.6895s.651.6006 1.152.6006c.492 0 .869-.1921 1.133-.5762.264-.3874.397-.9505.4-1.6894z" fill="#fcfcfc"/><path d="m150.21 62.1906v4.6826c0 .778-.244 1.3933-.732 1.8457-.485.4525-1.15.6788-1.993.6788-.83 0-1.489-.2198-1.977-.6592-.488-.4395-.737-1.0433-.747-1.8115v-4.7364h1.465v4.6924c0 .4655.11.8057.332 1.0205.224.2116.533.3174.927.3174.824 0 1.242-.4329 1.255-1.2988v-4.7315z" fill="#fcfcfc"/><path d="m156.763 63.3772h-2.178v5.9228h-1.465v-5.9228h-2.148v-1.1866h5.791z" fill="#fcfcfc"/><path d="m40.5391 66.7951v2.5049h-1.4649v-7.1094h2.7735c.5338 0 1.0026.0977 1.4062.293.4069.1953.7194.4736.9375.835.2181.358.3272.7666.3272 1.2255 0 .6967-.2393 1.2468-.7178 1.6504-.4753.4004-1.1345.6006-1.9776.6006zm0-1.1865h1.3086c.3873 0 .6819-.0911.8837-.2734.2051-.1823.3077-.4427.3077-.7813 0-.3483-.1026-.6299-.3077-.8447-.205-.2149-.4882-.3255-.8496-.332h-1.3427z" fill="#fcfcfc"/><path d="m51.3691 65.9064c0 .6999-.1237 1.3135-.3711 1.8409-.2473.5273-.6022.9342-1.0644 1.2207-.459.2864-.9863.4297-1.582.4297-.5892 0-1.1149-.1416-1.5772-.4248-.4622-.2832-.8203-.6869-1.0742-1.211-.2539-.5273-.3825-1.1328-.3857-1.8164v-.3516c0-.6998.1253-1.3151.3759-1.8457.2539-.5338.6104-.9423 1.0694-1.2255.4622-.2865.9895-.4297 1.582-.4297.5924 0 1.1182.1432 1.5771.4297.4623.2832.8187.6917 1.0694 1.2255.2539.5306.3808 1.1443.3808 1.8409zm-1.4843-.3222c0-.7455-.1335-1.3119-.4004-1.6992-.267-.3874-.6478-.5811-1.1426-.5811-.4915 0-.8708.1921-1.1377.5762-.2669.3808-.402.9407-.4053 1.6797v.3466c0 .726.1335 1.2891.4004 1.6895s.6511.6006 1.1524.6006c.4915 0 .8691-.1921 1.1328-.5762.2636-.3874.3971-.9505.4004-1.6894z" fill="#fcfcfc"/><path d="m57.9707 67.2492.957-5.0586h1.46l-1.5772 7.1094h-1.4746l-1.1572-4.7559-1.1572 4.7559h-1.4746l-1.5772-7.1094h1.46l.9619 5.0489 1.1719-5.0489h1.2402z" fill="#fcfcfc"/><path d="m65.4609 66.2189h-2.8125v1.9043h3.3008v1.1768h-4.7656v-7.1094h4.7559v1.1866h-3.2911v1.6943h2.8125z" fill="#fcfcfc"/><path d="m69.4404 66.6975h-1.167v2.6025h-1.4648v-7.1094h2.6416c.8398 0 1.4876.1872 1.9434.5616.4557.3743.6835.9033.6835 1.5869 0 .485-.1057.8903-.3173 1.2158-.2084.3223-.5258.5794-.9522.7715l1.5381 2.9052v.0684h-1.5723zm-1.167-1.1866h1.1817c.3678 0 .6526-.0927.8545-.2783.2018-.1888.3027-.4476.3027-.7763 0-.3353-.096-.599-.2881-.7911-.1888-.192-.4801-.288-.874-.288h-1.1768z" fill="#fcfcfc"/><path d="m298.077 69.3v-7.1094h2.188c.625 0 1.183.1416 1.674.4248.495.28.881.6804 1.158 1.2012.276.5176.415 1.1068.415 1.7676v.3271c0 .6608-.137 1.2484-.41 1.7627-.271.5143-.653.9131-1.148 1.1963s-1.053.4264-1.675.4297zm1.465-5.9228v4.746h.708c.573 0 1.011-.1871 1.313-.5615.303-.3743.458-.9098.464-1.6064v-.376c0-.7227-.149-1.2695-.449-1.6406-.299-.3744-.737-.5615-1.313-.5615z" fill="#fcfcfc"/><path d="m306.139 69.3h-1.465v-7.1094h1.465z" fill="#fcfcfc"/><path d="m313.126 68.4016c-.264.3157-.636.5615-1.118.7373-.482.1725-1.016.2588-1.602.2588-.615 0-1.155-.1335-1.621-.4004-.462-.2702-.82-.6608-1.074-1.1719-.251-.5111-.379-1.1117-.386-1.8018v-.4834c0-.7096.119-1.3232.357-1.8408.241-.5208.586-.918 1.035-1.1914.452-.2767.981-.415 1.587-.415.843 0 1.502.2018 1.977.6054.476.4004.757.9847.845 1.753h-1.426c-.065-.4069-.21-.7048-.434-.8936-.222-.1888-.528-.2832-.918-.2832-.498 0-.878.1872-1.138.5615-.26.3744-.392.931-.396 1.67v.4541c0 .7454.142 1.3086.425 1.6894.283.3809.699.5713 1.245.5713.551 0 .943-.1172 1.177-.3516v-1.2255h-1.333v-1.0791h2.798z" fill="#fcfcfc"/><path d="m315.875 69.3h-1.465v-7.1094h1.465z" fill="#fcfcfc"/><path d="m322.442 63.3772h-2.177v5.9228h-1.465v-5.9228h-2.149v-1.1866h5.791z" fill="#fcfcfc"/><path d="m326.71 67.8352h-2.568l-.489 1.4648h-1.557l2.646-7.1094h1.358l2.661 7.1094h-1.558zm-2.173-1.1866h1.777l-.893-2.6611z" fill="#fcfcfc"/><path d="m330.89 68.1232h3.11v1.1768h-4.575v-7.1094h1.465z" fill="#fcfcfc"/><path d="m338.893 69.3h-1.465v-7.1094h1.465z" fill="#fcfcfc"/><path d="m346.036 69.3h-1.465l-2.851-4.6777v4.6777h-1.465v-7.1094h1.465l2.856 4.6875v-4.6875h1.46z" fill="#fcfcfc"/><path d="m349.806 69.3v-7.1094h2.49c.863 0 1.517.166 1.963.4981.446.3288.669.8121.669 1.4502 0 .3483-.09.6559-.269.9228-.179.2637-.428.4574-.747.5811.365.0911.651.275.859.5517.212.2767.318.6153.318 1.0157 0 .6836-.218 1.2011-.654 1.5527-.437.3516-1.058.5306-1.866.5371zm1.465-3.0957v1.9189h1.254c.345 0 .614-.0813.806-.2441.195-.166.293-.3939.293-.6836 0-.651-.337-.9814-1.011-.9912zm0-1.0352h1.083c.739-.013 1.109-.3076 1.109-.8837 0-.3223-.095-.5534-.283-.6934-.186-.1432-.48-.2148-.884-.2148h-1.025z" fill="#fcfcfc"/><path d="m383.696 67.6452h-2.568l-.488 1.4648h-1.558l2.647-7.1094h1.357l2.661 7.1094h-1.558zm-2.173-1.1866h1.778l-.894-2.6611z" fill="#fcfcfc"/><path d="m392.192 69.11h-1.464l-2.852-4.6777v4.6777h-1.465v-7.1094h1.465l2.856 4.6875v-4.6875h1.46z" fill="#fcfcfc"/><path d="m397.573 67.6452h-2.568l-.488 1.4648h-1.558l2.646-7.1094h1.358l2.661 7.1094h-1.558zm-2.173-1.1866h1.778l-.894-2.6611z" fill="#fcfcfc"/><path d="m401.753 67.9332h3.11v1.1768h-4.575v-7.1094h1.465z" fill="#fcfcfc"/><path d="m411.235 65.7164c0 .6999-.123 1.3135-.371 1.8409-.247.5273-.602.9342-1.064 1.2207-.459.2864-.987.4297-1.582.4297-.589 0-1.115-.1416-1.577-.4248-.463-.2833-.821-.6869-1.075-1.211-.254-.5273-.382-1.1328-.385-1.8164v-.3516c0-.6998.125-1.3151.376-1.8457.254-.5338.61-.9423 1.069-1.2255.462-.2865.99-.4297 1.582-.4297s1.118.1432 1.577.4297c.462.2832.819.6917 1.069 1.2255.254.5306.381 1.1442.381 1.8409zm-1.484-.3222c0-.7455-.133-1.3119-.4-1.6992-.267-.3874-.648-.5811-1.143-.5811-.492 0-.871.1921-1.138.5762-.267.3808-.402.9407-.405 1.6797v.3466c0 .726.134 1.2891.4 1.6895.267.4004.651.6006 1.153.6006.491 0 .869-.1921 1.133-.5762.263-.3874.397-.9505.4-1.6894z" fill="#fcfcfc"/><path d="m417.925 68.2116c-.264.3157-.637.5615-1.118.7373-.482.1725-1.016.2588-1.602.2588-.615 0-1.156-.1335-1.621-.4004-.462-.2702-.82-.6608-1.074-1.1719-.251-.5111-.379-1.1117-.386-1.8018v-.4834c0-.7096.119-1.3232.356-1.8408.241-.5208.586-.918 1.036-1.1914.452-.2767.981-.415 1.587-.415.843 0 1.502.2018 1.977.6054.475.4004.757.9847.845 1.753h-1.426c-.065-.4069-.21-.7048-.435-.8936-.221-.1888-.527-.2832-.918-.2832-.498 0-.877.1872-1.137.5615-.261.3744-.392.931-.396 1.67v.4541c0 .7454.142 1.3086.425 1.6894.283.3809.698.5713 1.245.5713.55 0 .943-.1172 1.177-.3516v-1.2255h-1.333v-1.0792h2.798z" fill="#fcfcfc"/><path d="m423.164 69.11h-1.465v-7.1094h1.465z" fill="#fcfcfc"/><path d="m430.308 69.11h-1.465l-2.852-4.6777v4.6777h-1.465v-7.1094h1.465l2.857 4.6875v-4.6875h1.46z" fill="#fcfcfc"/><path d="m38 73.11h35.18" stroke="#fcfcfc" stroke-miterlimit="10"/><path d="m75 73.11h104.71" stroke="#fcfcfc" stroke-miterlimit="10"/><path d="m182 73.11h94.7" stroke="#fcfcfc" stroke-miterlimit="10"/><path d="m280 73.11h94.7" stroke="#fcfcfc" stroke-miterlimit="10"/><path d="m377 73.11h55.03" stroke="#fcfcfc" stroke-miterlimit="10"/><path d="m66.19 86.93c2.6675 0 4.83-2.1625 4.83-4.83s-2.1625-4.83-4.83-4.83-4.83 2.1625-4.83 4.83 2.1625 4.83 4.83 4.83z" stroke="#fcfcfc" stroke-linecap="round" stroke-linejoin="round" stroke-width=".5"/><path d="m93.31 86.93c2.6676 0 4.83-2.1625 4.83-4.83s-2.1624-4.83-4.83-4.83c-2.6675 0-4.83 2.1625-4.83 4.83s2.1625 4.83 4.83 4.83z" stroke="#fcfcfc" stroke-linecap="round" stroke-linejoin="round" stroke-width=".5"/><path d="m269.86 86.93c2.668 0 4.83-2.1625 4.83-4.83s-2.162-4.83-4.83-4.83-4.83 2.1625-4.83 4.83 2.162 4.83 4.83 4.83z" stroke="#fcfcfc" stroke-linecap="round" stroke-linejoin="round" stroke-width=".5"/><path d="m366.86 86.93c2.668 0 4.83-2.1625 4.83-4.83s-2.162-4.83-4.83-4.83-4.83 2.1625-4.83 4.83 2.162 4.83 4.83 4.83z" stroke="#fcfcfc" stroke-linecap="round" stroke-linejoin="round" stroke-width=".5"/><path d="m424.01 86.93c2.667 0 4.83-2.1625 4.83-4.83s-2.163-4.83-4.83-4.83c-2.668 0-4.83 2.1625-4.83 4.83s2.162 4.83 4.83 4.83z" stroke="#fcfcfc" stroke-linecap="round" stroke-linejoin="round" stroke-width=".5"/><path d="m45.8 86.93c2.6676 0 4.83-2.1625 4.83-4.83s-2.1624-4.83-4.83-4.83c-2.6675 0-4.83 2.1625-4.83 4.83s2.1625 4.83 4.83 4.83z" stroke="#fcfcfc" stroke-linecap="round" stroke-linejoin="round" stroke-width=".5"/><path d="m376.69 100.06h55.01v21.28h-55.01z" fill="#57bd82" stroke="#000" stroke-linecap="round" stroke-linejoin="round" stroke-width=".43"/><path d="m279.52 100.06h94.7v21.28h-94.7z" fill="#57bd82" stroke="#000" stroke-linecap="round" stroke-linejoin="round" stroke-width=".43"/><path d="m182.47 100.06h94.7v21.28h-94.7z" fill="#57bd82" stroke="#000" stroke-linecap="round" stroke-linejoin="round" stroke-width=".43"/><path d="m75.41 100.06h104.62v21.28h-104.62z" fill="#57bd82" stroke="#000" stroke-linecap="round" stroke-linejoin="round" stroke-width=".43"/><path d="m37.7 100.06h35.17v21.28h-35.17z" fill="#57bd82" stroke="#000" stroke-linecap="round" stroke-linejoin="round" stroke-width=".43"/><path d="m385.816 86.5h-1.646v-6.5449l-2.156.7734v-1.418l3.715-1.3417h.087z" fill="#fcfcfc"/><path d="m397.299 86.5h-5.818v-1.1133l2.76-2.9648c.215-.2344.396-.4473.545-.6387.148-.1914.267-.3652.357-.5215.094-.1601.16-.3086.199-.4453.043-.1367.065-.2695.065-.3984 0-.1914-.028-.3614-.082-.5098-.055-.1484-.133-.2734-.235-.375-.097-.1055-.216-.1855-.357-.2402-.137-.0547-.289-.0821-.457-.0821-.449 0-.785.125-1.008.375-.219.25-.328.5996-.328 1.0489h-1.635c0-.3789.072-.7364.217-1.0723.145-.3398.348-.6367.609-.8906.266-.2539.584-.4531.955-.5977.375-.1484.789-.2226 1.243-.2226.433 0 .816.0605 1.148.1816.336.1211.615.291.838.5098.227.2187.398.4824.516.791.117.3047.175.6426.175 1.0137 0 .2812-.045.5507-.134.8085-.086.254-.211.5059-.375.7559-.161.25-.354.5059-.58.7676-.227.2578-.479.5293-.756.8144l-1.606 1.6993h3.744z" fill="#fcfcfc"/><path d="m403.257 81.5195h.885c.445 0 .775-.1113.99-.334.215-.2265.322-.5214.322-.8847 0-.168-.025-.3203-.076-.457-.047-.1407-.119-.2598-.217-.3575-.098-.1015-.223-.1797-.375-.2343-.148-.0547-.322-.0821-.521-.0821-.164 0-.319.0235-.463.0703-.141.0469-.266.1153-.375.2051-.106.0859-.19.1914-.252.3164-.063.125-.094.2656-.094.4219h-1.629c0-.3477.07-.6641.211-.9492.145-.2852.342-.5293.592-.7324.25-.2071.543-.3672.879-.4805.34-.1133.705-.1699 1.096-.1699.421 0 .808.0527 1.16.1582.351.1015.652.2558.902.4629.25.2031.443.457.58.7617.141.3008.211.6504.211 1.0488 0 .1836-.027.3652-.082.5449-.055.1758-.135.3438-.24.5039-.106.1602-.237.3086-.393.4453-.156.1329-.336.2481-.539.3457.238.086.443.1954.615.3282.176.1328.321.2851.434.457.113.168.197.3535.252.5566.055.2032.082.418.082.6446 0 .3984-.076.7539-.229 1.0664-.152.3125-.361.5762-.627.791-.265.2109-.582.373-.949.4863-.363.1094-.756.1641-1.177.1641-.364 0-.719-.0488-1.067-.1465-.344-.1016-.65-.2519-.92-.4512-.269-.2031-.486-.457-.65-.7617-.16-.3047-.24-.664-.24-1.0781h1.628c0 .1641.032.3164.094.457.063.1367.151.2559.264.3574.117.0977.254.1758.41.2344.156.0547.328.082.516.082.414 0 .738-.1093.972-.3281.235-.2187.352-.5156.352-.8906 0-.2305-.033-.4277-.1-.5918-.066-.1641-.164-.2988-.293-.4043-.125-.1055-.277-.1836-.457-.2344-.176-.0508-.375-.0761-.597-.0761h-.885z" fill="#fcfcfc"/><path d="m416.269 83.3301h.99v1.3183h-.99v1.8516h-1.629v-1.8516h-3.545l-.064-1.0195 3.586-5.6601h1.652zm-3.639 0h2.01v-3.1699l-.158.2812z" fill="#fcfcfc"/><path d="m426.451 82.7584h-4.881v-1.3184h4.881z" fill="#fcfcfc"/><g fill="#418e62"><path d="m88.29 105.56h8.5v13.3h-8.5z"/><path d="m88.29 102.67h8.5v1.71h-8.5z"/><path d="m90.83 104.3h3.41v1.27h-3.41z"/><path d="m78.31 105.56h8.5v13.3h-8.5z"/><path d="m78.31 102.67h8.5v1.71h-8.5z"/><path d="m80.85 104.3h3.41v1.27h-3.41z"/><path d="m41.12 105.56h8.5v13.3h-8.5z"/><path d="m41.12 102.67h8.5v1.71h-8.5z"/><path d="m43.66 104.3h3.41v1.27h-3.41z"/><path d="m51.04 105.56h8.5v13.3h-8.5z"/><path d="m51.04 102.67h8.5v1.71h-8.5z"/><path d="m53.59 104.3h3.41v1.27h-3.41z"/><path d="m60.96 105.56h8.5v13.3h-8.5z"/><path d="m60.96 102.67h8.5v1.71h-8.5z"/><path d="m63.51 104.3h3.41v1.27h-3.41z"/><path d="m98.27 105.56h8.5v13.3h-8.5z"/><path d="m98.27 102.67h8.5v1.71h-8.5z"/><path d="m100.81 104.3h3.41v1.27h-3.41z"/><path d="m108.25 105.56h8.5v13.3h-8.5z"/><path d="m108.25 102.67h8.5v1.71h-8.5z"/><path d="m110.79 104.3h3.41v1.27h-3.41z"/><path d="m118.23 105.56h8.5v13.3h-8.5z"/><path d="m118.23 102.67h8.5v1.71h-8.5z"/><path d="m120.77 104.3h3.41v1.27h-3.41z"/><path d="m128.21 105.56h8.5v13.3h-8.5z"/><path d="m128.21 102.67h8.5v1.71h-8.5z"/><path d="m130.75 104.3h3.41v1.27h-3.41z"/><path d="m138.18 105.56h8.5v13.3h-8.5z"/><path d="m138.18 102.67h8.5v1.71h-8.5z"/><path d="m140.73 104.3h3.41v1.27h-3.41z"/><path d="m148.16 105.56h8.5v13.3h-8.5z"/><path d="m148.16 102.67h8.5v1.71h-8.5z"/><path d="m150.71 104.3h3.41v1.27h-3.41z"/><path d="m158.14 105.56h8.5v13.3h-8.5z"/><path d="m158.14 102.67h8.5v1.71h-8.5z"/><path d="m160.69 104.3h3.41v1.27h-3.41z"/><path d="m168.12 105.56h8.5v13.3h-8.5z"/><path d="m168.12 102.67h8.5v1.71h-8.5z"/><path d="m170.67 104.3h3.41v1.27h-3.41z"/><path d="m185.88 105.56h8.5v13.3h-8.5z"/><path d="m185.88 102.67h8.5v1.71h-8.5z"/><path d="m188.43 104.3h3.41v1.27h-3.41z"/><path d="m195.81 105.56h8.5v13.3h-8.5z"/><path d="m195.81 102.67h8.5v1.71h-8.5z"/><path d="m198.35 104.3h3.41v1.27h-3.41z"/><path d="m205.73 105.56h8.5v13.3h-8.5z"/><path d="m205.73 102.67h8.5v1.71h-8.5z"/><path d="m208.27 104.3h3.41v1.27h-3.41z"/><path d="m215.65 105.56h8.5v13.3h-8.5z"/><path d="m215.65 102.67h8.5v1.71h-8.5z"/><path d="m218.19 104.3h3.41v1.27h-3.41z"/><path d="m225.57 105.56h8.5v13.3h-8.5z"/><path d="m225.57 102.67h8.5v1.71h-8.5z"/><path d="m228.11 104.3h3.41v1.27h-3.41z"/><path d="m235.49 105.56h8.5v13.3h-8.5z"/><path d="m235.49 102.67h8.5v1.71h-8.5z"/><path d="m238.04 104.3h3.41v1.27h-3.41z"/><path d="m245.41 105.56h8.5v13.3h-8.5z"/><path d="m245.41 102.67h8.5v1.71h-8.5z"/><path d="m247.96 104.3h3.41v1.27h-3.41z"/><path d="m255.33 105.56h8.5v13.3h-8.5z"/><path d="m255.33 102.67h8.5v1.71h-8.5z"/><path d="m257.88 104.3h3.41v1.27h-3.41z"/><path d="m265.25 105.56h8.5v13.3h-8.5z"/><path d="m265.25 102.67h8.5v1.71h-8.5z"/><path d="m267.8 104.3h3.41v1.27h-3.41z"/><path d="m282.94 105.56h8.5v13.3h-8.5z"/><path d="m282.94 102.67h8.5v1.71h-8.5z"/><path d="m285.48 104.3h3.41v1.27h-3.41z"/><path d="m292.86 105.56h8.5v13.3h-8.5z"/><path d="m292.86 102.67h8.5v1.71h-8.5z"/><path d="m295.41 104.3h3.41v1.27h-3.41z"/><path d="m302.78 105.56h8.5v13.3h-8.5z"/><path d="m302.78 102.67h8.5v1.71h-8.5z"/><path d="m305.33 104.3h3.41v1.27h-3.41z"/><path d="m312.7 105.56h8.5v13.3h-8.5z"/><path d="m312.7 102.67h8.5v1.71h-8.5z"/><path d="m315.25 104.3h3.41v1.27h-3.41z"/><path d="m322.62 105.56h8.5v13.3h-8.5z"/><path d="m322.62 102.67h8.5v1.71h-8.5z"/><path d="m325.17 104.3h3.41v1.27h-3.41z"/><path d="m332.55 105.56h8.5v13.3h-8.5z"/><path d="m332.55 102.67h8.5v1.71h-8.5z"/><path d="m335.09 104.3h3.41v1.27h-3.41z"/><path d="m342.47 105.56h8.5v13.3h-8.5z"/><path d="m342.47 102.67h8.5v1.71h-8.5z"/><path d="m345.01 104.3h3.41v1.27h-3.41z"/><path d="m352.39 105.56h8.5v13.3h-8.5z"/><path d="m352.39 102.67h8.5v1.71h-8.5z"/><path d="m354.93 104.3h3.41v1.27h-3.41z"/><path d="m362.31 105.56h8.5v13.3h-8.5z"/><path d="m362.31 102.67h8.5v1.71h-8.5z"/><path d="m364.85 104.3h3.41v1.27h-3.41z"/><path d="m380.11 105.56h8.5v13.3h-8.5z"/><path d="m380.11 102.67h8.5v1.71h-8.5z"/><path d="m382.66 104.3h3.41v1.27h-3.41z"/><path d="m390.03 105.56h8.5v13.3h-8.5z"/><path d="m390.03 102.67h8.5v1.71h-8.5z"/><path d="m392.58 104.3h3.41v1.27h-3.41z"/><path d="m399.95 105.56h8.5v13.3h-8.5z"/><path d="m399.95 102.67h8.5v1.71h-8.5z"/><path d="m402.5 104.3h3.41v1.27h-3.41z"/><path d="m409.88 105.56h8.5v13.3h-8.5z"/><path d="m409.88 102.67h8.5v1.71h-8.5z"/><path d="m412.42 104.3h3.41v1.27h-3.41z"/><path d="m419.8 105.56h8.5v13.3h-8.5z"/><path d="m419.8 102.67h8.5v1.71h-8.5z"/><path d="m422.34 104.3h3.41v1.27h-3.41z"/></g><path d="m48.92 93.58c-.0059.7008-.2191 1.3842-.6128 1.964-.3937.5799-.9502 1.0302-1.5993 1.2943-.6492.2641-1.362.3301-2.0487.1898-.6866-.1404-1.3164-.4808-1.8098-.9785-.4935-.4976-.8287-1.1302-.9632-1.818-.1346-.6878-.0625-1.4.207-2.047.2696-.6469.7246-1.1996 1.3077-1.5883.5831-.3888 1.2683-.5963 1.9691-.5963.9415 0 1.8445.374 2.5102 1.0398.6658.6657 1.0398 1.5687 1.0398 2.5102z" fill="#59ff8d"/><path d="m58.85 93.58c-.0059.7004-.2189 1.3834-.6121 1.963s-.9491 1.03-1.5977 1.2943c-.6486.2644-1.3609.3311-2.0473.1915-.6864-.1395-1.3162-.479-1.81-.9756-.4939-.4967-.8298-1.1283-.9655-1.8155-.1357-.6871-.0651-1.3991.2029-2.0462s.7215-1.2004 1.3033-1.5904 1.266-.5991 1.9664-.6011c.9415 0 1.8445.374 2.5102 1.0398.6658.6657 1.0398 1.5687 1.0398 2.5102z" fill="#59ff8d"/><path d="m106.48 93.58c-.006.7004-.219 1.3834-.612 1.963s-.949 1.03-1.598 1.2943c-.648.2644-1.361.3311-2.047.1915-.686-.1395-1.316-.479-1.81-.9756-.494-.4967-.8299-1.1283-.9656-1.8155-.1357-.6871-.0651-1.3991.2029-2.0462s.7217-1.2004 1.3037-1.5904c.581-.39 1.266-.5991 1.966-.6011.942 0 1.844.374 2.51 1.0398.666.6657 1.04 1.5687 1.04 2.5102z" fill="#abb5c1"/><path d="m116.4 93.58c-.006.7004-.219 1.3834-.612 1.963s-.949 1.03-1.598 1.2943c-.648.2644-1.361.3311-2.047.1915-.686-.1395-1.316-.479-1.81-.9756-.494-.4967-.83-1.1283-.966-1.8155-.135-.6871-.065-1.3991.203-2.0462s.722-1.2004 1.304-1.5904c.581-.39 1.266-.5991 1.966-.6011.942 0 1.844.374 2.51 1.0398.666.6657 1.04 1.5687 1.04 2.5102z" fill="#abb5c1"/><path d="m126.32 93.58c-.006.7004-.219 1.3834-.612 1.963s-.949 1.03-1.598 1.2943c-.648.2644-1.361.3311-2.047.1915-.687-.1395-1.316-.479-1.81-.9756-.494-.4967-.83-1.1283-.966-1.8155-.135-.6871-.065-1.3991.203-2.0462s.722-1.2004 1.304-1.5904c.581-.39 1.266-.5991 1.966-.6011.941 0 1.844.374 2.51 1.0398.666.6657 1.04 1.5687 1.04 2.5102z" fill="#abb5c1"/><path d="m136.24 93.58c-.006.7004-.219 1.3834-.612 1.963s-.949 1.03-1.598 1.2943c-.648.2644-1.361.3311-2.047.1915-.686-.1395-1.316-.479-1.81-.9756-.494-.4967-.83-1.1283-.966-1.8155-.135-.6871-.065-1.3991.203-2.0462s.722-1.2004 1.304-1.5904c.581-.39 1.266-.5991 1.966-.6011.942 0 1.844.374 2.51 1.0398.666.6657 1.04 1.5687 1.04 2.5102z" fill="#abb5c1"/><path d="m146.16 93.58c-.006.7008-.219 1.3842-.613 1.964-.393.5799-.95 1.0302-1.599 1.2943s-1.362.3301-2.049.1898c-.686-.1404-1.316-.4808-1.81-.9785-.493-.4976-.828-1.1302-.963-1.818-.134-.6878-.062-1.4.207-2.047.27-.6469.725-1.1996 1.308-1.5883.583-.3888 1.268-.5963 1.969-.5963.942 0 1.844.374 2.51 1.0398.666.6657 1.04 1.5687 1.04 2.5102z" fill="#abb5c1"/><path d="m156.08 93.58c-.006.7008-.219 1.3842-.613 1.964-.393.5799-.95 1.0302-1.599 1.2943s-1.362.3301-2.049.1898c-.686-.1404-1.316-.4808-1.81-.9785-.493-.4976-.828-1.1302-.963-1.818-.134-.6878-.062-1.4.207-2.047.27-.6469.725-1.1996 1.308-1.5883.583-.3888 1.268-.5963 1.969-.5963.941 0 1.844.374 2.51 1.0398.666.6657 1.04 1.5687 1.04 2.5102z" fill="#abb5c1"/><path d="m166 93.58c-.006.7008-.219 1.3842-.613 1.964-.393.5799-.95 1.0302-1.599 1.2943s-1.362.3301-2.049.1898c-.686-.1404-1.316-.4808-1.81-.9785-.493-.4976-.828-1.1302-.963-1.818-.134-.6878-.062-1.4.207-2.047.27-.6469.725-1.1996 1.308-1.5883.583-.3888 1.268-.5963 1.969-.5963.942 0 1.845.374 2.51 1.0398.666.6657 1.04 1.5687 1.04 2.5102z" fill="#abb5c1"/><path d="m175.92 93.58c-.006.7008-.219 1.3842-.613 1.964-.393.5799-.95 1.0302-1.599 1.2943s-1.362.3301-2.049.1898c-.686-.1404-1.316-.4808-1.81-.9785-.493-.4976-.828-1.1302-.963-1.818-.134-.6878-.062-1.4.207-2.047.27-.6469.725-1.1996 1.308-1.5883.583-.3888 1.268-.5963 1.969-.5963.942 0 1.844.374 2.51 1.0398.666.6657 1.04 1.5687 1.04 2.5102z" fill="#abb5c1"/><path d="m193.69 93.58c-.006.7004-.219 1.3834-.612 1.963s-.949 1.03-1.598 1.2943c-.648.2644-1.361.3311-2.047.1915-.687-.1395-1.316-.479-1.81-.9756-.494-.4967-.83-1.1283-.966-1.8155-.135-.6871-.065-1.3991.203-2.0462s.722-1.2004 1.304-1.5904c.581-.39 1.266-.5991 1.966-.6011.941 0 1.844.374 2.51 1.0398.666.6657 1.04 1.5687 1.04 2.5102z" fill="#abb5c1"/><path d="m203.61 93.58c-.006.7004-.219 1.3834-.612 1.963s-.949 1.03-1.598 1.2943c-.648.2644-1.361.3311-2.047.1915-.686-.1395-1.316-.479-1.81-.9756-.494-.4967-.83-1.1283-.966-1.8155-.135-.6871-.065-1.3991.203-2.0462s.722-1.2004 1.304-1.5904c.581-.39 1.266-.5991 1.966-.6011.942 0 1.844.374 2.51 1.0398.666.6657 1.04 1.5687 1.04 2.5102z" fill="#abb5c1"/><path d="m213.53 93.58c-.006.7017-.22 1.3858-.614 1.9661-.395.5802-.952 1.0306-1.603 1.2941-.65.2634-1.364.3283-2.051.1863s-1.317-.4844-1.81-.984c-.492-.4997-.826-1.1341-.958-1.8232s-.058-1.402.215-2.0486c.273-.6465.731-1.1978 1.317-1.5842.585-.3863 1.272-.5904 1.974-.5865.942 0 1.845.374 2.51 1.0398.666.6657 1.04 1.5687 1.04 2.5102z" fill="#abb5c1"/><path d="m223.45 93.58c-.006.7008-.219 1.3842-.613 1.964-.394.5799-.95 1.0302-1.599 1.2943s-1.362.3301-2.049.1898c-.686-.1404-1.316-.4808-1.81-.9785-.493-.4976-.828-1.1302-.963-1.818-.134-.6878-.062-1.4.207-2.047.27-.6469.725-1.1996 1.308-1.5883.583-.3888 1.268-.5963 1.969-.5963.941 0 1.844.374 2.51 1.0398.666.6657 1.04 1.5687 1.04 2.5102z" fill="#abb5c1"/><path d="m233.37 93.58c-.006.7008-.219 1.3842-.613 1.964-.393.5799-.95 1.0302-1.599 1.2943s-1.362.3301-2.049.1898c-.686-.1404-1.316-.4808-1.81-.9785-.493-.4976-.828-1.1302-.963-1.818-.134-.6878-.062-1.4.207-2.047.27-.6469.725-1.1996 1.308-1.5883.583-.3888 1.268-.5963 1.969-.5963.942 0 1.844.374 2.51 1.0398.666.6657 1.04 1.5687 1.04 2.5102z" fill="#abb5c1"/><path d="m243.29 93.58c-.006.7008-.219 1.3842-.613 1.964-.393.5799-.95 1.0302-1.599 1.2943s-1.362.3301-2.049.1898c-.686-.1404-1.316-.4808-1.81-.9785-.493-.4976-.828-1.1302-.963-1.818-.134-.6878-.062-1.4.207-2.047.27-.6469.725-1.1996 1.308-1.5883.583-.3888 1.268-.5963 1.969-.5963.942 0 1.845.374 2.51 1.0398.666.6657 1.04 1.5687 1.04 2.5102z" fill="#abb5c1"/><path d="m253.22 93.58c-.006.7004-.219 1.3834-.612 1.963s-.949 1.03-1.598 1.2943c-.648.2644-1.361.3311-2.047.1915-.686-.1395-1.316-.479-1.81-.9756-.494-.4967-.83-1.1283-.966-1.8155-.135-.6871-.065-1.3991.203-2.0462s.722-1.2004 1.304-1.5904c.581-.39 1.266-.5991 1.966-.6011.466 0 .928.0918 1.359.2702.43.1784.822.4399 1.151.7696.33.3296.591.721.77 1.1517.178.4307.27.8923.27 1.3585z" fill="#abb5c1"/><path d="m263.14 93.58c-.006.7004-.219 1.3834-.612 1.963s-.949 1.03-1.598 1.2943c-.648.2644-1.361.3311-2.047.1915-.686-.1395-1.316-.479-1.81-.9756-.494-.4967-.83-1.1283-.966-1.8155-.135-.6871-.065-1.3991.203-2.0462s.722-1.2004 1.304-1.5904c.581-.39 1.266-.5991 1.966-.6011.942 0 1.845.374 2.51 1.0398.666.6657 1.04 1.5687 1.04 2.5102z" fill="#abb5c1"/><path d="m290.74 93.58c-.006.7008-.219 1.3842-.613 1.964-.393.5799-.95 1.0302-1.599 1.2943s-1.362.3301-2.049.1898c-.686-.1404-1.316-.4808-1.81-.9785-.493-.4976-.828-1.1302-.963-1.818-.134-.6878-.062-1.4.207-2.047.27-.6469.725-1.1996 1.308-1.5883.583-.3888 1.268-.5963 1.969-.5963.942 0 1.844.374 2.51 1.0398.666.6657 1.04 1.5687 1.04 2.5102z" fill="#abb5c1"/><path d="m300.66 93.58c-.006.7008-.219 1.3842-.613 1.964-.394.5799-.95 1.0302-1.599 1.2943s-1.362.3301-2.049.1898c-.686-.1404-1.316-.4808-1.81-.9785-.493-.4976-.828-1.1302-.963-1.818-.134-.6878-.062-1.4.207-2.047.27-.6469.725-1.1996 1.308-1.5883.583-.3888 1.268-.5963 1.969-.5963.941 0 1.844.374 2.51 1.0398.666.6657 1.04 1.5687 1.04 2.5102z" fill="#abb5c1"/><path d="m310.59 93.58c-.006.6991-.218 1.3809-.61 1.9598-.392.579-.946 1.0293-1.593 1.2946-.647.2652-1.358.3335-2.043.1964-.686-.1371-1.316-.4736-1.811-.9673s-.833-1.1225-.972-1.8077c-.139-.6851-.073-1.3961.191-2.0437.263-.6476.712-1.203 1.29-1.5965.578-.3936 1.259-.6077 1.958-.6156.942 0 1.844.374 2.51 1.0398.666.6657 1.04 1.5687 1.04 2.5102z" fill="#abb5c1"/><path d="m320.51 93.58c-.006.7025-.22 1.3874-.616 1.9681-.395.5807-.954 1.0309-1.606 1.2938-.651.2629-1.366.3265-2.054.1829-.687-.1436-1.317-.488-1.809-.9897-.492-.5016-.824-1.1379-.954-1.8283s-.052-1.4039.224-2.0501.737-1.196 1.325-1.5799c.589-.384 1.278-.5847 1.98-.5768.942 0 1.845.374 2.51 1.0398.666.6657 1.04 1.5687 1.04 2.5102z" fill="#abb5c1"/><path d="m330.43 93.58c-.006.7004-.219 1.3834-.612 1.963s-.949 1.03-1.598 1.2943c-.648.2644-1.361.3311-2.047.1915-.687-.1395-1.316-.479-1.81-.9756-.494-.4967-.83-1.1283-.966-1.8155-.135-.6871-.065-1.3991.203-2.0462s.722-1.2004 1.304-1.5904c.581-.39 1.266-.5991 1.966-.6011.466 0 .928.0918 1.358.2702.431.1784.823.4399 1.152.7696.33.3296.591.721.77 1.1517.178.4307.27.8923.27 1.3585z" fill="#abb5c1"/><path d="m340.35 93.58c-.006.7004-.219 1.3834-.612 1.963s-.949 1.03-1.598 1.2943c-.648.2644-1.361.3311-2.047.1915-.686-.1395-1.316-.479-1.81-.9756-.494-.4967-.83-1.1283-.966-1.8155-.135-.6871-.065-1.3991.203-2.0462s.722-1.2004 1.304-1.5904c.581-.39 1.266-.5991 1.966-.6011.942 0 1.844.374 2.51 1.0398.666.6657 1.04 1.5687 1.04 2.5102z" fill="#abb5c1"/><path d="m350.27 93.58c-.006.7008-.219 1.3842-.613 1.964-.393.5799-.95 1.0302-1.599 1.2943s-1.362.3301-2.049.1898c-.686-.1404-1.316-.4808-1.81-.9785-.493-.4976-.828-1.1302-.963-1.818-.134-.6878-.062-1.4.207-2.047.27-.6469.725-1.1996 1.308-1.5883.583-.3888 1.268-.5963 1.969-.5963.942 0 1.845.374 2.51 1.0398.666.6657 1.04 1.5687 1.04 2.5102z" fill="#abb5c1"/><path d="m360.19 93.58c-.006.7008-.219 1.3842-.613 1.964-.394.5799-.95 1.0302-1.599 1.2943s-1.362.3301-2.049.1898c-.686-.1404-1.316-.4808-1.81-.9785-.493-.4976-.828-1.1302-.963-1.818-.134-.6878-.062-1.4.207-2.047.27-.6469.725-1.1996 1.308-1.5883.583-.3888 1.268-.5963 1.969-.5963.941 0 1.844.374 2.51 1.0398.666.6657 1.04 1.5687 1.04 2.5102z" fill="#abb5c1"/></svg>