<svg width="469" height="146" viewBox="0 0 469 146" fill="none" xmlns="http://www.w3.org/2000/svg">
<path d="M457.66 0.65C460.592 0.649998 463.403 1.81387 465.477 3.88586C467.551 5.95785 468.717 8.76844 468.72 11.7V134.53C468.72 137.463 467.555 140.276 465.481 142.351C463.406 144.425 460.593 145.59 457.66 145.59H12.06C9.12671 145.59 6.31355 144.425 4.2394 142.351C2.16525 140.276 1 137.463 1 134.53V11.7C1.00265 8.76844 2.16907 5.95785 4.24293 3.88586C6.3168 1.81387 9.12844 0.649998 12.06 0.65H457.66Z" fill="#2E343C" stroke="black" stroke-width="0.43" stroke-linecap="round" stroke-linejoin="round"/>
<path d="M19.4 11.42C19.4 12.4089 19.1068 13.3756 18.5574 14.1979C18.008 15.0201 17.2271 15.661 16.3134 16.0394C15.3998 16.4178 14.3945 16.5169 13.4246 16.3239C12.4547 16.131 11.5638 15.6548 10.8645 14.9555C10.1652 14.2563 9.68903 13.3654 9.4961 12.3955C9.30317 11.4255 9.40219 10.4202 9.78063 9.50658C10.1591 8.59295 10.7999 7.81206 11.6222 7.26265C12.4444 6.71324 13.4111 6.42 14.4 6.42C15.7261 6.42 16.9979 6.94678 17.9356 7.88447C18.8732 8.82215 19.4 10.0939 19.4 11.42Z" fill="#454F5B" stroke="black" stroke-width="0.43" stroke-linecap="round" stroke-linejoin="round"/>
<path d="M19.4 134.8C19.4 135.789 19.1068 136.756 18.5574 137.578C18.008 138.4 17.2271 139.041 16.3134 139.419C15.3998 139.798 14.3945 139.897 13.4246 139.704C12.4547 139.511 11.5638 139.035 10.8645 138.336C10.1652 137.636 9.68903 136.745 9.4961 135.775C9.30317 134.806 9.40219 133.8 9.78063 132.887C10.1591 131.973 10.7999 131.192 11.6222 130.643C12.4444 130.093 13.4111 129.8 14.4 129.8C15.7261 129.8 16.9979 130.327 17.9356 131.264C18.8732 132.202 19.4 133.474 19.4 134.8Z" fill="#454F5B" stroke="black" stroke-width="0.43" stroke-linecap="round" stroke-linejoin="round"/>
<path d="M460.24 134.8C460.24 135.789 459.947 136.756 459.397 137.578C458.848 138.4 458.067 139.041 457.153 139.419C456.24 139.798 455.234 139.897 454.265 139.704C453.295 139.511 452.404 139.035 451.704 138.336C451.005 137.636 450.529 136.745 450.336 135.775C450.143 134.806 450.242 133.8 450.621 132.887C450.999 131.973 451.64 131.192 452.462 130.643C453.284 130.093 454.251 129.8 455.24 129.8C456.566 129.8 457.838 130.327 458.776 131.264C459.713 132.202 460.24 133.474 460.24 134.8Z" fill="#454F5B" stroke="black" stroke-width="0.43" stroke-linecap="round" stroke-linejoin="round"/>
<path d="M460.24 11.42C460.24 12.4089 459.947 13.3756 459.397 14.1979C458.848 15.0201 458.067 15.661 457.153 16.0394C456.24 16.4178 455.234 16.5169 454.265 16.3239C453.295 16.131 452.404 15.6548 451.704 14.9555C451.005 14.2563 450.529 13.3654 450.336 12.3955C450.143 11.4255 450.242 10.4202 450.621 9.50658C450.999 8.59295 451.64 7.81206 452.462 7.26265C453.284 6.71324 454.251 6.42 455.24 6.42C456.566 6.42 457.838 6.94678 458.776 7.88447C459.713 8.82215 460.24 10.0939 460.24 11.42Z" fill="#454F5B" stroke="black" stroke-width="0.43" stroke-linecap="round" stroke-linejoin="round"/>
<path d="M191.466 86.5H189.82V79.9551L187.664 80.7285V79.3105L191.379 77.9688H191.466V86.5Z" fill="#FCFCFC"/>
<path d="M202.949 86.5H197.131V85.3867L199.891 82.4219C200.106 82.1875 200.287 81.9746 200.436 81.7832C200.584 81.5918 200.703 81.418 200.793 81.2617C200.887 81.1016 200.953 80.9531 200.992 80.8164C201.035 80.6797 201.057 80.5469 201.057 80.418C201.057 80.2266 201.029 80.0566 200.975 79.9082C200.92 79.7598 200.842 79.6348 200.74 79.5332C200.643 79.4277 200.524 79.3477 200.383 79.293C200.246 79.2383 200.094 79.2109 199.926 79.2109C199.477 79.2109 199.141 79.3359 198.918 79.5859C198.699 79.8359 198.59 80.1855 198.59 80.6348H196.955C196.955 80.2559 197.027 79.8984 197.172 79.5625C197.317 79.2227 197.52 78.9258 197.781 78.6719C198.047 78.418 198.365 78.2188 198.736 78.0742C199.111 77.9258 199.526 77.8516 199.979 77.8516C200.412 77.8516 200.795 77.9121 201.127 78.0332C201.463 78.1543 201.742 78.3242 201.965 78.543C202.192 78.7617 202.363 79.0254 202.481 79.334C202.598 79.6387 202.656 79.9766 202.656 80.3477C202.656 80.6289 202.611 80.8984 202.522 81.1562C202.436 81.4102 202.311 81.6621 202.147 81.9121C201.986 82.1621 201.793 82.418 201.567 82.6797C201.34 82.9375 201.088 83.209 200.811 83.4941L199.205 85.1934H202.949V86.5Z" fill="#FCFCFC"/>
<path d="M208.907 81.5195H209.792C210.237 81.5195 210.567 81.4082 210.782 81.1855C210.997 80.959 211.104 80.6641 211.104 80.3008C211.104 80.1328 211.079 79.9805 211.028 79.8438C210.981 79.7031 210.909 79.584 210.811 79.4863C210.714 79.3848 210.589 79.3066 210.436 79.252C210.288 79.1973 210.114 79.1699 209.915 79.1699C209.751 79.1699 209.596 79.1934 209.452 79.2402C209.311 79.2871 209.186 79.3555 209.077 79.4453C208.971 79.5312 208.887 79.6367 208.825 79.7617C208.762 79.8867 208.731 80.0273 208.731 80.1836H207.102C207.102 79.8359 207.173 79.5195 207.313 79.2344C207.458 78.9492 207.655 78.7051 207.905 78.502C208.155 78.2949 208.448 78.1348 208.784 78.0215C209.124 77.9082 209.489 77.8516 209.88 77.8516C210.301 77.8516 210.688 77.9043 211.04 78.0098C211.391 78.1113 211.692 78.2656 211.942 78.4727C212.192 78.6758 212.385 78.9297 212.522 79.2344C212.663 79.5352 212.733 79.8848 212.733 80.2832C212.733 80.4668 212.706 80.6484 212.651 80.8281C212.596 81.0039 212.516 81.1719 212.411 81.332C212.305 81.4922 212.174 81.6406 212.018 81.7773C211.862 81.9102 211.682 82.0254 211.479 82.123C211.717 82.209 211.923 82.3184 212.094 82.4512C212.27 82.584 212.415 82.7363 212.528 82.9082C212.641 83.0762 212.725 83.2617 212.78 83.4648C212.835 83.668 212.862 83.8828 212.862 84.1094C212.862 84.5078 212.786 84.8633 212.633 85.1758C212.481 85.4883 212.272 85.752 212.006 85.9668C211.741 86.1777 211.424 86.3398 211.057 86.4531C210.694 86.5625 210.301 86.6172 209.88 86.6172C209.516 86.6172 209.161 86.5684 208.813 86.4707C208.469 86.3691 208.163 86.2188 207.893 86.0195C207.624 85.8164 207.407 85.5625 207.243 85.2578C207.083 84.9531 207.003 84.5938 207.003 84.1797H208.631C208.631 84.3438 208.663 84.4961 208.725 84.6367C208.788 84.7734 208.876 84.8926 208.989 84.9941C209.106 85.0918 209.243 85.1699 209.399 85.2285C209.555 85.2832 209.727 85.3105 209.915 85.3105C210.329 85.3105 210.653 85.2012 210.887 84.9824C211.122 84.7637 211.239 84.4668 211.239 84.0918C211.239 83.8613 211.206 83.6641 211.139 83.5C211.073 83.3359 210.975 83.2012 210.846 83.0957C210.721 82.9902 210.569 82.9121 210.389 82.8613C210.214 82.8105 210.014 82.7852 209.792 82.7852H208.907V81.5195Z" fill="#FCFCFC"/>
<path d="M221.919 83.3301H222.909V84.6484H221.919V86.5H220.29V84.6484H216.745L216.681 83.6289L220.267 77.9688H221.919V83.3301ZM218.28 83.3301H220.29V80.1602L220.132 80.4414L218.28 83.3301Z" fill="#FCFCFC"/>
<path d="M227.138 82.2988L227.625 77.9688H232.359V79.3516H228.966L228.761 81.2266C228.882 81.1562 229.054 81.084 229.277 81.0098C229.5 80.9355 229.756 80.8984 230.045 80.8984C230.455 80.8984 230.82 80.9648 231.14 81.0977C231.465 81.2266 231.736 81.4141 231.955 81.6602C232.177 81.9062 232.347 82.207 232.465 82.5625C232.582 82.918 232.64 83.3203 232.64 83.7695C232.64 84.1523 232.584 84.5156 232.47 84.8594C232.357 85.2031 232.183 85.5059 231.949 85.7676C231.715 86.0293 231.42 86.2363 231.064 86.3887C230.709 86.541 230.289 86.6172 229.804 86.6172C229.437 86.6172 229.082 86.5625 228.738 86.4531C228.398 86.3438 228.095 86.1836 227.83 85.9727C227.564 85.7617 227.347 85.5039 227.179 85.1992C227.015 84.8906 226.927 84.5391 226.916 84.1445H228.521C228.56 84.5156 228.693 84.8027 228.92 85.0059C229.15 85.209 229.443 85.3105 229.799 85.3105C230.017 85.3105 230.203 85.2695 230.355 85.1875C230.511 85.1055 230.636 84.9922 230.73 84.8477C230.828 84.7031 230.898 84.5312 230.941 84.332C230.988 84.1328 231.011 83.918 231.011 83.6875C231.011 83.4609 230.982 83.2539 230.924 83.0664C230.869 82.875 230.783 82.7109 230.666 82.5742C230.549 82.4375 230.402 82.332 230.226 82.2578C230.05 82.1836 229.843 82.1465 229.605 82.1465C229.445 82.1465 229.306 82.1602 229.189 82.1875C229.072 82.2148 228.968 82.25 228.879 82.293C228.789 82.3359 228.709 82.3867 228.638 82.4453C228.568 82.5 228.502 82.5586 228.439 82.6211L227.138 82.2988Z" fill="#FCFCFC"/>
<path d="M241.276 77.8984V79.252H241.182C240.752 79.252 240.371 79.3086 240.039 79.4219C239.711 79.5352 239.43 79.6953 239.195 79.9023C238.965 80.1094 238.781 80.3574 238.645 80.6465C238.512 80.9355 238.428 81.2578 238.393 81.6133C238.483 81.5156 238.586 81.4199 238.703 81.3262C238.82 81.2285 238.951 81.1426 239.096 81.0684C239.244 80.9902 239.404 80.9277 239.576 80.8809C239.748 80.834 239.934 80.8105 240.133 80.8105C240.539 80.8105 240.893 80.8887 241.194 81.0449C241.498 81.1973 241.752 81.4062 241.955 81.6719C242.158 81.9336 242.309 82.2402 242.406 82.5918C242.508 82.9395 242.559 83.3066 242.559 83.6934C242.559 84.1074 242.492 84.4922 242.36 84.8477C242.227 85.2031 242.037 85.5117 241.791 85.7734C241.545 86.0352 241.246 86.2422 240.895 86.3945C240.543 86.543 240.149 86.6172 239.711 86.6172C239.254 86.6172 238.842 86.5332 238.475 86.3652C238.108 86.1934 237.795 85.957 237.537 85.6562C237.283 85.3555 237.086 85 236.945 84.5898C236.809 84.1758 236.74 83.7246 236.74 83.2363V82.6094C236.74 81.9336 236.832 81.3086 237.016 80.7344C237.199 80.1562 237.473 79.6582 237.836 79.2402C238.199 78.8184 238.651 78.4902 239.19 78.2559C239.729 78.0176 240.352 77.8984 241.059 77.8984H241.276ZM239.658 82.1172C239.365 82.1172 239.106 82.1953 238.879 82.3516C238.656 82.5078 238.488 82.709 238.375 82.9551V83.4355C238.375 83.748 238.406 84.0215 238.469 84.2559C238.535 84.4902 238.627 84.6855 238.744 84.8418C238.862 84.9941 239 85.1094 239.16 85.1875C239.32 85.2656 239.494 85.3047 239.682 85.3047C239.873 85.3047 240.047 85.2656 240.203 85.1875C240.36 85.1055 240.492 84.9941 240.602 84.8535C240.711 84.7129 240.795 84.5469 240.854 84.3555C240.912 84.1602 240.942 83.9473 240.942 83.7168C240.942 83.4863 240.912 83.2734 240.854 83.0781C240.795 82.8828 240.711 82.7148 240.602 82.5742C240.492 82.4297 240.358 82.3184 240.197 82.2402C240.041 82.1582 239.862 82.1172 239.658 82.1172Z" fill="#FCFCFC"/>
<path d="M252.419 78.877L249.096 86.5H247.38L250.708 79.2988H246.425V77.9688H252.419V78.877Z" fill="#FCFCFC"/>
<path d="M262.097 80.2363C262.097 80.6504 261.991 81.0195 261.78 81.3438C261.573 81.6641 261.288 81.9199 260.925 82.1113C261.339 82.3066 261.667 82.5801 261.909 82.9316C262.155 83.2832 262.279 83.6953 262.279 84.168C262.279 84.5703 262.204 84.9238 262.056 85.2285C261.911 85.5332 261.71 85.7891 261.452 85.9961C261.198 86.1992 260.898 86.3535 260.55 86.459C260.202 86.5645 259.827 86.6172 259.425 86.6172C259.019 86.6172 258.64 86.5645 258.288 86.459C257.941 86.3535 257.638 86.1992 257.38 85.9961C257.122 85.7891 256.919 85.5332 256.771 85.2285C256.626 84.9238 256.554 84.5703 256.554 84.168C256.554 83.9336 256.585 83.7129 256.648 83.5059C256.714 83.2949 256.806 83.1035 256.923 82.9316C257.04 82.7559 257.181 82.5996 257.345 82.4629C257.513 82.3223 257.7 82.2031 257.907 82.1055C257.544 81.918 257.259 81.6641 257.052 81.3438C256.845 81.0195 256.741 80.6504 256.741 80.2363C256.741 79.8496 256.808 79.5098 256.941 79.2168C257.073 78.9199 257.257 78.6699 257.491 78.4668C257.73 78.2637 258.011 78.1113 258.335 78.0098C258.663 77.9043 259.021 77.8516 259.407 77.8516C259.794 77.8516 260.152 77.9043 260.48 78.0098C260.808 78.1113 261.091 78.2637 261.329 78.4668C261.571 78.6699 261.759 78.9199 261.892 79.2168C262.029 79.5098 262.097 79.8496 262.097 80.2363ZM260.644 84.0566C260.644 83.8613 260.614 83.6855 260.556 83.5293C260.497 83.373 260.413 83.2402 260.304 83.1309C260.198 83.0176 260.07 82.9316 259.917 82.873C259.769 82.8145 259.601 82.7852 259.413 82.7852C259.226 82.7852 259.056 82.8145 258.904 82.873C258.755 82.9316 258.628 83.0176 258.523 83.1309C258.417 83.2402 258.335 83.373 258.277 83.5293C258.218 83.6855 258.189 83.8613 258.189 84.0566C258.189 84.4473 258.3 84.7539 258.523 84.9766C258.745 85.1992 259.046 85.3105 259.425 85.3105C259.605 85.3105 259.769 85.2832 259.917 85.2285C260.066 85.1699 260.193 85.0859 260.298 84.9766C260.407 84.8672 260.491 84.7363 260.55 84.584C260.613 84.4277 260.644 84.252 260.644 84.0566ZM260.474 80.3125C260.474 80.1406 260.448 79.9844 260.398 79.8438C260.347 79.7031 260.275 79.584 260.181 79.4863C260.091 79.3848 259.98 79.3066 259.847 79.252C259.718 79.1973 259.571 79.1699 259.407 79.1699C259.075 79.1699 258.82 79.2715 258.64 79.4746C258.46 79.6777 258.37 79.957 258.37 80.3125C258.37 80.4844 258.394 80.6426 258.441 80.7871C258.488 80.9277 258.556 81.0488 258.646 81.1504C258.739 81.252 258.851 81.332 258.98 81.3906C259.113 81.4453 259.261 81.4727 259.425 81.4727C259.589 81.4727 259.736 81.4453 259.864 81.3906C259.993 81.332 260.103 81.252 260.193 81.1504C260.282 81.0488 260.351 80.9277 260.398 80.7871C260.448 80.6426 260.474 80.4844 260.474 80.3125Z" fill="#FCFCFC"/>
<path d="M288.316 86.5H286.67V79.9551L284.514 80.7285V79.3105L288.229 77.9688H288.316V86.5Z" fill="#FCFCFC"/>
<path d="M299.799 86.5H293.981V85.3867L296.741 82.4219C296.956 82.1875 297.137 81.9746 297.286 81.7832C297.434 81.5918 297.553 81.418 297.643 81.2617C297.737 81.1016 297.803 80.9531 297.842 80.8164C297.885 80.6797 297.907 80.5469 297.907 80.418C297.907 80.2266 297.879 80.0566 297.825 79.9082C297.77 79.7598 297.692 79.6348 297.59 79.5332C297.493 79.4277 297.374 79.3477 297.233 79.293C297.096 79.2383 296.944 79.2109 296.776 79.2109C296.327 79.2109 295.991 79.3359 295.768 79.5859C295.549 79.8359 295.44 80.1855 295.44 80.6348H293.805C293.805 80.2559 293.877 79.8984 294.022 79.5625C294.167 79.2227 294.37 78.9258 294.631 78.6719C294.897 78.418 295.215 78.2188 295.586 78.0742C295.961 77.9258 296.375 77.8516 296.829 77.8516C297.262 77.8516 297.645 77.9121 297.977 78.0332C298.313 78.1543 298.592 78.3242 298.815 78.543C299.042 78.7617 299.213 79.0254 299.331 79.334C299.448 79.6387 299.506 79.9766 299.506 80.3477C299.506 80.6289 299.461 80.8984 299.372 81.1562C299.286 81.4102 299.161 81.6621 298.997 81.9121C298.836 82.1621 298.643 82.418 298.417 82.6797C298.19 82.9375 297.938 83.209 297.661 83.4941L296.055 85.1934H299.799V86.5Z" fill="#FCFCFC"/>
<path d="M305.757 81.5195H306.642C307.087 81.5195 307.417 81.4082 307.632 81.1855C307.847 80.959 307.954 80.6641 307.954 80.3008C307.954 80.1328 307.929 79.9805 307.878 79.8438C307.831 79.7031 307.759 79.584 307.661 79.4863C307.563 79.3848 307.438 79.3066 307.286 79.252C307.138 79.1973 306.964 79.1699 306.765 79.1699C306.601 79.1699 306.446 79.1934 306.302 79.2402C306.161 79.2871 306.036 79.3555 305.927 79.4453C305.821 79.5312 305.737 79.6367 305.675 79.7617C305.612 79.8867 305.581 80.0273 305.581 80.1836H303.952C303.952 79.8359 304.022 79.5195 304.163 79.2344C304.308 78.9492 304.505 78.7051 304.755 78.502C305.005 78.2949 305.298 78.1348 305.634 78.0215C305.974 77.9082 306.339 77.8516 306.73 77.8516C307.151 77.8516 307.538 77.9043 307.89 78.0098C308.241 78.1113 308.542 78.2656 308.792 78.4727C309.042 78.6758 309.235 78.9297 309.372 79.2344C309.513 79.5352 309.583 79.8848 309.583 80.2832C309.583 80.4668 309.556 80.6484 309.501 80.8281C309.446 81.0039 309.366 81.1719 309.261 81.332C309.155 81.4922 309.024 81.6406 308.868 81.7773C308.712 81.9102 308.532 82.0254 308.329 82.123C308.567 82.209 308.772 82.3184 308.944 82.4512C309.12 82.584 309.265 82.7363 309.378 82.9082C309.491 83.0762 309.575 83.2617 309.63 83.4648C309.685 83.668 309.712 83.8828 309.712 84.1094C309.712 84.5078 309.636 84.8633 309.483 85.1758C309.331 85.4883 309.122 85.752 308.856 85.9668C308.591 86.1777 308.274 86.3398 307.907 86.4531C307.544 86.5625 307.151 86.6172 306.73 86.6172C306.366 86.6172 306.011 86.5684 305.663 86.4707C305.319 86.3691 305.013 86.2188 304.743 86.0195C304.474 85.8164 304.257 85.5625 304.093 85.2578C303.933 84.9531 303.853 84.5938 303.853 84.1797H305.481C305.481 84.3438 305.513 84.4961 305.575 84.6367C305.638 84.7734 305.726 84.8926 305.839 84.9941C305.956 85.0918 306.093 85.1699 306.249 85.2285C306.405 85.2832 306.577 85.3105 306.765 85.3105C307.179 85.3105 307.503 85.2012 307.737 84.9824C307.972 84.7637 308.089 84.4668 308.089 84.0918C308.089 83.8613 308.056 83.6641 307.989 83.5C307.923 83.3359 307.825 83.2012 307.696 83.0957C307.571 82.9902 307.419 82.9121 307.239 82.8613C307.063 82.8105 306.864 82.7852 306.642 82.7852H305.757V81.5195Z" fill="#FCFCFC"/>
<path d="M318.769 83.3301H319.759V84.6484H318.769V86.5H317.14V84.6484H313.595L313.531 83.6289L317.117 77.9688H318.769V83.3301ZM315.13 83.3301H317.14V80.1602L316.982 80.4414L315.13 83.3301Z" fill="#FCFCFC"/>
<path d="M323.988 82.2988L324.475 77.9688H329.209V79.3516H325.816L325.611 81.2266C325.732 81.1562 325.904 81.084 326.127 81.0098C326.35 80.9355 326.606 80.8984 326.895 80.8984C327.305 80.8984 327.67 80.9648 327.99 81.0977C328.314 81.2266 328.586 81.4141 328.805 81.6602C329.027 81.9062 329.197 82.207 329.314 82.5625C329.432 82.918 329.49 83.3203 329.49 83.7695C329.49 84.1523 329.434 84.5156 329.32 84.8594C329.207 85.2031 329.033 85.5059 328.799 85.7676C328.564 86.0293 328.27 86.2363 327.914 86.3887C327.559 86.541 327.139 86.6172 326.654 86.6172C326.287 86.6172 325.932 86.5625 325.588 86.4531C325.248 86.3438 324.945 86.1836 324.68 85.9727C324.414 85.7617 324.197 85.5039 324.029 85.1992C323.865 84.8906 323.777 84.5391 323.766 84.1445H325.371C325.41 84.5156 325.543 84.8027 325.77 85.0059C326 85.209 326.293 85.3105 326.648 85.3105C326.867 85.3105 327.053 85.2695 327.205 85.1875C327.361 85.1055 327.486 84.9922 327.58 84.8477C327.678 84.7031 327.748 84.5312 327.791 84.332C327.838 84.1328 327.861 83.918 327.861 83.6875C327.861 83.4609 327.832 83.2539 327.773 83.0664C327.719 82.875 327.633 82.7109 327.516 82.5742C327.398 82.4375 327.252 82.332 327.076 82.2578C326.9 82.1836 326.693 82.1465 326.455 82.1465C326.295 82.1465 326.156 82.1602 326.039 82.1875C325.922 82.2148 325.818 82.25 325.729 82.293C325.639 82.3359 325.559 82.3867 325.488 82.4453C325.418 82.5 325.352 82.5586 325.289 82.6211L323.988 82.2988Z" fill="#FCFCFC"/>
<path d="M338.126 77.8984V79.252H338.032C337.602 79.252 337.221 79.3086 336.889 79.4219C336.561 79.5352 336.28 79.6953 336.045 79.9023C335.815 80.1094 335.631 80.3574 335.495 80.6465C335.362 80.9355 335.278 81.2578 335.243 81.6133C335.333 81.5156 335.436 81.4199 335.553 81.3262C335.67 81.2285 335.801 81.1426 335.946 81.0684C336.094 80.9902 336.254 80.9277 336.426 80.8809C336.598 80.834 336.784 80.8105 336.983 80.8105C337.389 80.8105 337.743 80.8887 338.044 81.0449C338.348 81.1973 338.602 81.4062 338.805 81.6719C339.008 81.9336 339.159 82.2402 339.256 82.5918C339.358 82.9395 339.409 83.3066 339.409 83.6934C339.409 84.1074 339.342 84.4922 339.21 84.8477C339.077 85.2031 338.887 85.5117 338.641 85.7734C338.395 86.0352 338.096 86.2422 337.745 86.3945C337.393 86.543 336.999 86.6172 336.561 86.6172C336.104 86.6172 335.692 86.5332 335.325 86.3652C334.958 86.1934 334.645 85.957 334.387 85.6562C334.133 85.3555 333.936 85 333.795 84.5898C333.659 84.1758 333.59 83.7246 333.59 83.2363V82.6094C333.59 81.9336 333.682 81.3086 333.866 80.7344C334.049 80.1562 334.323 79.6582 334.686 79.2402C335.049 78.8184 335.501 78.4902 336.04 78.2559C336.579 78.0176 337.202 77.8984 337.909 77.8984H338.126ZM336.508 82.1172C336.215 82.1172 335.956 82.1953 335.729 82.3516C335.506 82.5078 335.338 82.709 335.225 82.9551V83.4355C335.225 83.748 335.256 84.0215 335.319 84.2559C335.385 84.4902 335.477 84.6855 335.594 84.8418C335.711 84.9941 335.85 85.1094 336.01 85.1875C336.17 85.2656 336.344 85.3047 336.532 85.3047C336.723 85.3047 336.897 85.2656 337.053 85.1875C337.21 85.1055 337.342 84.9941 337.452 84.8535C337.561 84.7129 337.645 84.5469 337.704 84.3555C337.762 84.1602 337.792 83.9473 337.792 83.7168C337.792 83.4863 337.762 83.2734 337.704 83.0781C337.645 82.8828 337.561 82.7148 337.452 82.5742C337.342 82.4297 337.208 82.3184 337.047 82.2402C336.891 82.1582 336.711 82.1172 336.508 82.1172Z" fill="#FCFCFC"/>
<path d="M349.269 78.877L345.946 86.5H344.23L347.558 79.2988H343.274V77.9688H349.269V78.877Z" fill="#FCFCFC"/>
<path d="M358.947 80.2363C358.947 80.6504 358.841 81.0195 358.63 81.3438C358.423 81.6641 358.138 81.9199 357.775 82.1113C358.189 82.3066 358.517 82.5801 358.759 82.9316C359.005 83.2832 359.129 83.6953 359.129 84.168C359.129 84.5703 359.054 84.9238 358.906 85.2285C358.761 85.5332 358.56 85.7891 358.302 85.9961C358.048 86.1992 357.748 86.3535 357.4 86.459C357.052 86.5645 356.677 86.6172 356.275 86.6172C355.869 86.6172 355.49 86.5645 355.138 86.459C354.791 86.3535 354.488 86.1992 354.23 85.9961C353.972 85.7891 353.769 85.5332 353.621 85.2285C353.476 84.9238 353.404 84.5703 353.404 84.168C353.404 83.9336 353.435 83.7129 353.498 83.5059C353.564 83.2949 353.656 83.1035 353.773 82.9316C353.89 82.7559 354.031 82.5996 354.195 82.4629C354.363 82.3223 354.55 82.2031 354.757 82.1055C354.394 81.918 354.109 81.6641 353.902 81.3438C353.695 81.0195 353.591 80.6504 353.591 80.2363C353.591 79.8496 353.658 79.5098 353.791 79.2168C353.923 78.9199 354.107 78.6699 354.341 78.4668C354.58 78.2637 354.861 78.1113 355.185 78.0098C355.513 77.9043 355.871 77.8516 356.257 77.8516C356.644 77.8516 357.002 77.9043 357.33 78.0098C357.658 78.1113 357.941 78.2637 358.179 78.4668C358.421 78.6699 358.609 78.9199 358.742 79.2168C358.879 79.5098 358.947 79.8496 358.947 80.2363ZM357.494 84.0566C357.494 83.8613 357.464 83.6855 357.406 83.5293C357.347 83.373 357.263 83.2402 357.154 83.1309C357.048 83.0176 356.92 82.9316 356.767 82.873C356.619 82.8145 356.451 82.7852 356.263 82.7852C356.076 82.7852 355.906 82.8145 355.754 82.873C355.605 82.9316 355.478 83.0176 355.373 83.1309C355.267 83.2402 355.185 83.373 355.127 83.5293C355.068 83.6855 355.039 83.8613 355.039 84.0566C355.039 84.4473 355.15 84.7539 355.373 84.9766C355.595 85.1992 355.896 85.3105 356.275 85.3105C356.455 85.3105 356.619 85.2832 356.767 85.2285C356.916 85.1699 357.043 85.0859 357.148 84.9766C357.257 84.8672 357.341 84.7363 357.4 84.584C357.462 84.4277 357.494 84.252 357.494 84.0566ZM357.324 80.3125C357.324 80.1406 357.298 79.9844 357.248 79.8438C357.197 79.7031 357.125 79.584 357.031 79.4863C356.941 79.3848 356.83 79.3066 356.697 79.252C356.568 79.1973 356.421 79.1699 356.257 79.1699C355.925 79.1699 355.67 79.2715 355.49 79.4746C355.31 79.6777 355.22 79.957 355.22 80.3125C355.22 80.4844 355.244 80.6426 355.291 80.7871C355.337 80.9277 355.406 81.0488 355.496 81.1504C355.589 81.252 355.701 81.332 355.83 81.3906C355.962 81.4453 356.111 81.4727 356.275 81.4727C356.439 81.4727 356.586 81.4453 356.714 81.3906C356.843 81.332 356.953 81.252 357.043 81.1504C357.132 81.0488 357.201 80.9277 357.248 80.7871C357.298 80.6426 357.324 80.4844 357.324 80.3125Z" fill="#FCFCFC"/>
<path d="M272.301 82.7584H267.42V81.44H272.301V82.7584Z" fill="#FCFCFC"/>
<path d="M369.301 82.7584H364.42V81.44H369.301V82.7584Z" fill="#FCFCFC"/>
<path d="M104.116 86.5H102.47V79.9551L100.314 80.7285V79.3105L104.029 77.9688H104.116V86.5Z" fill="#FCFCFC"/>
<path d="M115.599 86.5H109.781V85.3867L112.541 82.4219C112.756 82.1875 112.937 81.9746 113.086 81.7832C113.234 81.5918 113.353 81.418 113.443 81.2617C113.537 81.1016 113.603 80.9531 113.642 80.8164C113.685 80.6797 113.707 80.5469 113.707 80.418C113.707 80.2266 113.679 80.0566 113.625 79.9082C113.57 79.7598 113.492 79.6348 113.39 79.5332C113.293 79.4277 113.174 79.3477 113.033 79.293C112.896 79.2383 112.744 79.2109 112.576 79.2109C112.127 79.2109 111.791 79.3359 111.568 79.5859C111.349 79.8359 111.24 80.1855 111.24 80.6348H109.605C109.605 80.2559 109.677 79.8984 109.822 79.5625C109.967 79.2227 110.17 78.9258 110.431 78.6719C110.697 78.418 111.015 78.2188 111.386 78.0742C111.761 77.9258 112.175 77.8516 112.629 77.8516C113.062 77.8516 113.445 77.9121 113.777 78.0332C114.113 78.1543 114.392 78.3242 114.615 78.543C114.842 78.7617 115.013 79.0254 115.131 79.334C115.248 79.6387 115.306 79.9766 115.306 80.3477C115.306 80.6289 115.261 80.8984 115.172 81.1562C115.086 81.4102 114.961 81.6621 114.797 81.9121C114.636 82.1621 114.443 82.418 114.217 82.6797C113.99 82.9375 113.738 83.209 113.461 83.4941L111.855 85.1934H115.599V86.5Z" fill="#FCFCFC"/>
<path d="M121.557 81.5195H122.442C122.887 81.5195 123.217 81.4082 123.432 81.1855C123.647 80.959 123.754 80.6641 123.754 80.3008C123.754 80.1328 123.729 79.9805 123.678 79.8438C123.631 79.7031 123.559 79.584 123.461 79.4863C123.363 79.3848 123.238 79.3066 123.086 79.252C122.938 79.1973 122.764 79.1699 122.565 79.1699C122.401 79.1699 122.246 79.1934 122.102 79.2402C121.961 79.2871 121.836 79.3555 121.727 79.4453C121.621 79.5312 121.537 79.6367 121.475 79.7617C121.412 79.8867 121.381 80.0273 121.381 80.1836H119.752C119.752 79.8359 119.822 79.5195 119.963 79.2344C120.108 78.9492 120.305 78.7051 120.555 78.502C120.805 78.2949 121.098 78.1348 121.434 78.0215C121.774 77.9082 122.139 77.8516 122.53 77.8516C122.951 77.8516 123.338 77.9043 123.69 78.0098C124.041 78.1113 124.342 78.2656 124.592 78.4727C124.842 78.6758 125.035 78.9297 125.172 79.2344C125.313 79.5352 125.383 79.8848 125.383 80.2832C125.383 80.4668 125.356 80.6484 125.301 80.8281C125.246 81.0039 125.166 81.1719 125.061 81.332C124.955 81.4922 124.824 81.6406 124.668 81.7773C124.512 81.9102 124.332 82.0254 124.129 82.123C124.367 82.209 124.572 82.3184 124.744 82.4512C124.92 82.584 125.065 82.7363 125.178 82.9082C125.291 83.0762 125.375 83.2617 125.43 83.4648C125.485 83.668 125.512 83.8828 125.512 84.1094C125.512 84.5078 125.436 84.8633 125.283 85.1758C125.131 85.4883 124.922 85.752 124.656 85.9668C124.391 86.1777 124.074 86.3398 123.707 86.4531C123.344 86.5625 122.951 86.6172 122.53 86.6172C122.166 86.6172 121.811 86.5684 121.463 86.4707C121.119 86.3691 120.813 86.2188 120.543 86.0195C120.274 85.8164 120.057 85.5625 119.893 85.2578C119.733 84.9531 119.653 84.5938 119.653 84.1797H121.281C121.281 84.3438 121.313 84.4961 121.375 84.6367C121.438 84.7734 121.526 84.8926 121.639 84.9941C121.756 85.0918 121.893 85.1699 122.049 85.2285C122.205 85.2832 122.377 85.3105 122.565 85.3105C122.979 85.3105 123.303 85.2012 123.537 84.9824C123.772 84.7637 123.889 84.4668 123.889 84.0918C123.889 83.8613 123.856 83.6641 123.789 83.5C123.723 83.3359 123.625 83.2012 123.496 83.0957C123.371 82.9902 123.219 82.9121 123.039 82.8613C122.863 82.8105 122.664 82.7852 122.442 82.7852H121.557V81.5195Z" fill="#FCFCFC"/>
<path d="M134.569 83.3301H135.559V84.6484H134.569V86.5H132.94V84.6484H129.395L129.331 83.6289L132.917 77.9688H134.569V83.3301ZM130.93 83.3301H132.94V80.1602L132.782 80.4414L130.93 83.3301Z" fill="#FCFCFC"/>
<path d="M139.788 82.2988L140.275 77.9688H145.009V79.3516H141.616L141.411 81.2266C141.532 81.1562 141.704 81.084 141.927 81.0098C142.15 80.9355 142.406 80.8984 142.695 80.8984C143.105 80.8984 143.47 80.9648 143.79 81.0977C144.114 81.2266 144.386 81.4141 144.605 81.6602C144.827 81.9062 144.997 82.207 145.114 82.5625C145.232 82.918 145.29 83.3203 145.29 83.7695C145.29 84.1523 145.234 84.5156 145.12 84.8594C145.007 85.2031 144.833 85.5059 144.599 85.7676C144.364 86.0293 144.07 86.2363 143.714 86.3887C143.359 86.541 142.939 86.6172 142.454 86.6172C142.087 86.6172 141.732 86.5625 141.388 86.4531C141.048 86.3438 140.745 86.1836 140.48 85.9727C140.214 85.7617 139.997 85.5039 139.829 85.1992C139.665 84.8906 139.577 84.5391 139.566 84.1445H141.171C141.21 84.5156 141.343 84.8027 141.57 85.0059C141.8 85.209 142.093 85.3105 142.448 85.3105C142.667 85.3105 142.853 85.2695 143.005 85.1875C143.161 85.1055 143.286 84.9922 143.38 84.8477C143.478 84.7031 143.548 84.5312 143.591 84.332C143.638 84.1328 143.661 83.918 143.661 83.6875C143.661 83.4609 143.632 83.2539 143.573 83.0664C143.519 82.875 143.433 82.7109 143.316 82.5742C143.198 82.4375 143.052 82.332 142.876 82.2578C142.7 82.1836 142.493 82.1465 142.255 82.1465C142.095 82.1465 141.956 82.1602 141.839 82.1875C141.722 82.2148 141.618 82.25 141.529 82.293C141.439 82.3359 141.359 82.3867 141.288 82.4453C141.218 82.5 141.152 82.5586 141.089 82.6211L139.788 82.2988Z" fill="#FCFCFC"/>
<path d="M153.926 77.8984V79.252H153.832C153.402 79.252 153.021 79.3086 152.689 79.4219C152.361 79.5352 152.08 79.6953 151.845 79.9023C151.615 80.1094 151.431 80.3574 151.295 80.6465C151.162 80.9355 151.078 81.2578 151.043 81.6133C151.133 81.5156 151.236 81.4199 151.353 81.3262C151.47 81.2285 151.601 81.1426 151.746 81.0684C151.894 80.9902 152.054 80.9277 152.226 80.8809C152.398 80.834 152.584 80.8105 152.783 80.8105C153.189 80.8105 153.543 80.8887 153.844 81.0449C154.148 81.1973 154.402 81.4062 154.605 81.6719C154.808 81.9336 154.959 82.2402 155.056 82.5918C155.158 82.9395 155.209 83.3066 155.209 83.6934C155.209 84.1074 155.142 84.4922 155.01 84.8477C154.877 85.2031 154.687 85.5117 154.441 85.7734C154.195 86.0352 153.896 86.2422 153.545 86.3945C153.193 86.543 152.799 86.6172 152.361 86.6172C151.904 86.6172 151.492 86.5332 151.125 86.3652C150.758 86.1934 150.445 85.957 150.187 85.6562C149.933 85.3555 149.736 85 149.595 84.5898C149.459 84.1758 149.39 83.7246 149.39 83.2363V82.6094C149.39 81.9336 149.482 81.3086 149.666 80.7344C149.849 80.1562 150.123 79.6582 150.486 79.2402C150.849 78.8184 151.301 78.4902 151.84 78.2559C152.379 78.0176 153.002 77.8984 153.709 77.8984H153.926ZM152.308 82.1172C152.015 82.1172 151.756 82.1953 151.529 82.3516C151.306 82.5078 151.138 82.709 151.025 82.9551V83.4355C151.025 83.748 151.056 84.0215 151.119 84.2559C151.185 84.4902 151.277 84.6855 151.394 84.8418C151.511 84.9941 151.65 85.1094 151.81 85.1875C151.97 85.2656 152.144 85.3047 152.332 85.3047C152.523 85.3047 152.697 85.2656 152.853 85.1875C153.01 85.1055 153.142 84.9941 153.252 84.8535C153.361 84.7129 153.445 84.5469 153.504 84.3555C153.562 84.1602 153.592 83.9473 153.592 83.7168C153.592 83.4863 153.562 83.2734 153.504 83.0781C153.445 82.8828 153.361 82.7148 153.252 82.5742C153.142 82.4297 153.008 82.3184 152.847 82.2402C152.691 82.1582 152.511 82.1172 152.308 82.1172Z" fill="#FCFCFC"/>
<path d="M165.069 78.877L161.746 86.5H160.03L163.358 79.2988H159.074V77.9688H165.069V78.877Z" fill="#FCFCFC"/>
<path d="M174.747 80.2363C174.747 80.6504 174.641 81.0195 174.43 81.3438C174.223 81.6641 173.938 81.9199 173.575 82.1113C173.989 82.3066 174.317 82.5801 174.559 82.9316C174.805 83.2832 174.928 83.6953 174.928 84.168C174.928 84.5703 174.854 84.9238 174.706 85.2285C174.561 85.5332 174.36 85.7891 174.102 85.9961C173.848 86.1992 173.548 86.3535 173.2 86.459C172.852 86.5645 172.477 86.6172 172.075 86.6172C171.669 86.6172 171.29 86.5645 170.938 86.459C170.591 86.3535 170.288 86.1992 170.03 85.9961C169.772 85.7891 169.569 85.5332 169.421 85.2285C169.276 84.9238 169.204 84.5703 169.204 84.168C169.204 83.9336 169.235 83.7129 169.298 83.5059C169.364 83.2949 169.456 83.1035 169.573 82.9316C169.69 82.7559 169.831 82.5996 169.995 82.4629C170.163 82.3223 170.35 82.2031 170.557 82.1055C170.194 81.918 169.909 81.6641 169.702 81.3438C169.495 81.0195 169.391 80.6504 169.391 80.2363C169.391 79.8496 169.458 79.5098 169.591 79.2168C169.723 78.9199 169.907 78.6699 170.141 78.4668C170.38 78.2637 170.661 78.1113 170.985 78.0098C171.313 77.9043 171.671 77.8516 172.057 77.8516C172.444 77.8516 172.802 77.9043 173.13 78.0098C173.458 78.1113 173.741 78.2637 173.979 78.4668C174.221 78.6699 174.409 78.9199 174.542 79.2168C174.678 79.5098 174.747 79.8496 174.747 80.2363ZM173.294 84.0566C173.294 83.8613 173.264 83.6855 173.206 83.5293C173.147 83.373 173.063 83.2402 172.954 83.1309C172.848 83.0176 172.72 82.9316 172.567 82.873C172.419 82.8145 172.251 82.7852 172.063 82.7852C171.876 82.7852 171.706 82.8145 171.553 82.873C171.405 82.9316 171.278 83.0176 171.173 83.1309C171.067 83.2402 170.985 83.373 170.927 83.5293C170.868 83.6855 170.839 83.8613 170.839 84.0566C170.839 84.4473 170.95 84.7539 171.173 84.9766C171.395 85.1992 171.696 85.3105 172.075 85.3105C172.255 85.3105 172.419 85.2832 172.567 85.2285C172.716 85.1699 172.843 85.0859 172.948 84.9766C173.057 84.8672 173.141 84.7363 173.2 84.584C173.262 84.4277 173.294 84.252 173.294 84.0566ZM173.124 80.3125C173.124 80.1406 173.098 79.9844 173.048 79.8438C172.997 79.7031 172.925 79.584 172.831 79.4863C172.741 79.3848 172.63 79.3066 172.497 79.252C172.368 79.1973 172.221 79.1699 172.057 79.1699C171.725 79.1699 171.47 79.2715 171.29 79.4746C171.11 79.6777 171.02 79.957 171.02 80.3125C171.02 80.4844 171.044 80.6426 171.091 80.7871C171.137 80.9277 171.206 81.0488 171.296 81.1504C171.389 81.252 171.501 81.332 171.63 81.3906C171.762 81.4453 171.911 81.4727 172.075 81.4727C172.239 81.4727 172.386 81.4453 172.514 81.3906C172.643 81.332 172.753 81.252 172.843 81.1504C172.932 81.0488 173.001 80.9277 173.048 80.7871C173.098 80.6426 173.124 80.4844 173.124 80.3125Z" fill="#FCFCFC"/>
<path d="M85.3176 82.7617H81.8137V85.1699H85.9094V86.5H80.1613V77.9688H85.8918V79.3105H81.8137V81.4609H85.3176V82.7617Z" fill="#FCFCFC"/>
<path d="M95.7509 82.7584H90.87V81.44H95.7509V82.7584Z" fill="#FCFCFC"/>
<path d="M58.2562 82.793H54.7523V85.2012H58.848V86.5312H53.1V78H58.8304V79.3418H54.7523V81.4922H58.2562V82.793Z" fill="#FCFCFC"/>
<path d="M46.5831 81.3086H48.7277V82.7969H46.5831V85.2109H45.0304V82.7969H42.88V81.3086H45.0304V79H46.5831V81.3086Z" fill="#FCFCFC"/>
<path d="M68.6309 82.7584H63.75V81.44H68.6309V82.7584Z" fill="#FCFCFC"/>
<path d="M200.906 69.3V62.1906H203.094C203.719 62.1906 204.277 62.3322 204.769 62.6154C205.263 62.8954 205.649 63.2958 205.926 63.8166C206.202 64.3342 206.341 64.9234 206.341 65.5842V65.9113C206.341 66.5721 206.204 67.1597 205.931 67.674C205.66 68.1883 205.278 68.5871 204.783 68.8703C204.288 69.1535 203.73 69.2967 203.108 69.3H200.906ZM202.371 63.3772V68.1232H203.079C203.652 68.1232 204.09 67.9361 204.393 67.5617C204.695 67.1874 204.85 66.6519 204.856 65.9553V65.5793C204.856 64.8566 204.707 64.3098 204.407 63.9387C204.108 63.5643 203.67 63.3772 203.094 63.3772H202.371Z" fill="#FCFCFC"/>
<path d="M208.968 69.3H207.503V62.1906H208.968V69.3Z" fill="#FCFCFC"/>
<path d="M215.955 68.4016C215.691 68.7173 215.319 68.9631 214.837 69.1389C214.355 69.3114 213.821 69.3977 213.235 69.3977C212.62 69.3977 212.08 69.2642 211.614 68.9973C211.152 68.7271 210.794 68.3365 210.54 67.8254C210.289 67.3143 210.161 66.7137 210.154 66.0236V65.5402C210.154 64.8306 210.273 64.217 210.511 63.6994C210.752 63.1786 211.097 62.7814 211.546 62.508C211.998 62.2313 212.527 62.093 213.133 62.093C213.976 62.093 214.635 62.2948 215.11 62.6984C215.586 63.0988 215.867 63.6831 215.955 64.4514H214.529C214.464 64.0445 214.319 63.7466 214.095 63.5578C213.873 63.369 213.567 63.2746 213.177 63.2746C212.679 63.2746 212.299 63.4618 212.039 63.8361C211.779 64.2105 211.647 64.7671 211.644 65.5061V65.9602C211.644 66.7056 211.785 67.2688 212.068 67.6496C212.352 68.0305 212.767 68.2209 213.313 68.2209C213.864 68.2209 214.256 68.1037 214.49 67.8693V66.6438H213.157V65.5647H215.955V68.4016Z" fill="#FCFCFC"/>
<path d="M218.704 69.3H217.239V62.1906H218.704V69.3Z" fill="#FCFCFC"/>
<path d="M225.271 63.3772H223.094V69.3H221.629V63.3772H219.48V62.1906H225.271V63.3772Z" fill="#FCFCFC"/>
<path d="M229.539 67.8352H226.971L226.482 69.3H224.925L227.571 62.1906H228.929L231.59 69.3H230.032L229.539 67.8352ZM227.366 66.6486H229.144L228.25 63.9875L227.366 66.6486Z" fill="#FCFCFC"/>
<path d="M233.719 68.1232H236.829V69.3H232.254V62.1906H233.719V68.1232Z" fill="#FCFCFC"/>
<path d="M241.722 69.3H240.257V62.1906H241.722V69.3Z" fill="#FCFCFC"/>
<path d="M248.865 69.3H247.4L244.549 64.6223V69.3H243.084V62.1906H244.549L247.405 66.8781V62.1906H248.865V69.3Z" fill="#FCFCFC"/>
<path d="M256.648 67.8352H254.08L253.592 69.3H252.034L254.681 62.1906H256.038L258.699 69.3H257.142L256.648 67.8352ZM254.476 66.6486H256.253L255.359 63.9875L254.476 66.6486Z" fill="#FCFCFC"/>
<path d="M98.667 69.3V62.1906H100.854C101.479 62.1906 102.038 62.3322 102.529 62.6154C103.024 62.8954 103.41 63.2958 103.687 63.8166C103.963 64.3342 104.102 64.9234 104.102 65.5842V65.9113C104.102 66.5721 103.965 67.1597 103.691 67.674C103.421 68.1883 103.039 68.5871 102.544 68.8703C102.049 69.1535 101.491 69.2967 100.869 69.3H98.667ZM100.132 63.3772V68.1232H100.84C101.413 68.1232 101.851 67.9361 102.153 67.5617C102.456 67.1874 102.611 66.6519 102.617 65.9553V65.5793C102.617 64.8566 102.467 64.3098 102.168 63.9387C101.868 63.5643 101.431 63.3772 100.854 63.3772H100.132Z" fill="#FCFCFC"/>
<path d="M106.729 69.3H105.264V62.1906H106.729V69.3Z" fill="#FCFCFC"/>
<path d="M113.716 68.4016C113.452 68.7173 113.079 68.9631 112.598 69.1389C112.116 69.3114 111.582 69.3977 110.996 69.3977C110.381 69.3977 109.84 69.2642 109.375 68.9973C108.913 68.7271 108.555 68.3365 108.301 67.8254C108.05 67.3143 107.922 66.7137 107.915 66.0236V65.5402C107.915 64.8306 108.034 64.217 108.271 63.6994C108.512 63.1786 108.857 62.7814 109.307 62.508C109.759 62.2313 110.288 62.093 110.894 62.093C111.737 62.093 112.396 62.2948 112.871 62.6984C113.346 63.0988 113.628 63.6831 113.716 64.4514H112.29C112.225 64.0445 112.08 63.7466 111.855 63.5578C111.634 63.369 111.328 63.2746 110.938 63.2746C110.439 63.2746 110.06 63.4618 109.8 63.8361C109.539 64.2105 109.408 64.7671 109.404 65.5061V65.9602C109.404 66.7056 109.546 67.2688 109.829 67.6496C110.112 68.0305 110.527 68.2209 111.074 68.2209C111.624 68.2209 112.017 68.1037 112.251 67.8693V66.6438H110.918V65.5647H113.716V68.4016Z" fill="#FCFCFC"/>
<path d="M116.465 69.3H115V62.1906H116.465V69.3Z" fill="#FCFCFC"/>
<path d="M123.032 63.3772H120.854V69.3H119.39V63.3772H117.241V62.1906H123.032V63.3772Z" fill="#FCFCFC"/>
<path d="M127.3 67.8352H124.731L124.243 69.3H122.686L125.332 62.1906H126.689L129.351 69.3H127.793L127.3 67.8352ZM125.127 66.6486H126.904L126.011 63.9875L125.127 66.6486Z" fill="#FCFCFC"/>
<path d="M131.479 68.1232H134.59V69.3H130.015V62.1906H131.479V68.1232Z" fill="#FCFCFC"/>
<path d="M143.765 65.9064C143.765 66.6063 143.641 67.2199 143.394 67.7473C143.146 68.2746 142.791 68.6815 142.329 68.968C141.87 69.2544 141.343 69.3977 140.747 69.3977C140.158 69.3977 139.632 69.2561 139.17 68.9729C138.708 68.6897 138.35 68.286 138.096 67.7619C137.842 67.2346 137.713 66.6291 137.71 65.9455V65.5939C137.71 64.8941 137.835 64.2788 138.086 63.7482C138.34 63.2144 138.696 62.8059 139.155 62.5227C139.618 62.2362 140.145 62.093 140.737 62.093C141.33 62.093 141.855 62.2362 142.314 62.5227C142.777 62.8059 143.133 63.2144 143.384 63.7482C143.638 64.2788 143.765 64.8925 143.765 65.5891V65.9064ZM142.28 65.5842C142.28 64.8387 142.147 64.2723 141.88 63.885C141.613 63.4976 141.232 63.3039 140.737 63.3039C140.246 63.3039 139.867 63.496 139.6 63.8801C139.333 64.2609 139.198 64.8208 139.194 65.5598V65.9064C139.194 66.6324 139.328 67.1955 139.595 67.5959C139.862 67.9963 140.246 68.1965 140.747 68.1965C141.239 68.1965 141.616 68.0044 141.88 67.6203C142.144 67.2329 142.277 66.6698 142.28 65.9309V65.5842Z" fill="#FCFCFC"/>
<path d="M150.21 62.1906V66.8732C150.21 67.6512 149.966 68.2665 149.478 68.7189C148.993 69.1714 148.328 69.3977 147.485 69.3977C146.655 69.3977 145.996 69.1779 145.508 68.7385C145.02 68.299 144.771 67.6952 144.761 66.927V62.1906H146.226V66.883C146.226 67.3485 146.336 67.6887 146.558 67.9035C146.782 68.1151 147.091 68.2209 147.485 68.2209C148.309 68.2209 148.727 67.788 148.74 66.9221V62.1906H150.21Z" fill="#FCFCFC"/>
<path d="M156.763 63.3772H154.585V69.3H153.12V63.3772H150.972V62.1906H156.763V63.3772Z" fill="#FCFCFC"/>
<path d="M40.5391 66.7951V69.3H39.0742V62.1906H41.8477C42.3815 62.1906 42.8503 62.2883 43.2539 62.4836C43.6608 62.6789 43.9733 62.9572 44.1914 63.3186C44.4095 63.6766 44.5186 64.0852 44.5186 64.5441C44.5186 65.2408 44.2793 65.7909 43.8008 66.1945C43.3255 66.5949 42.6663 66.7951 41.8232 66.7951H40.5391ZM40.5391 65.6086H41.8477C42.235 65.6086 42.5296 65.5175 42.7314 65.3352C42.9365 65.1529 43.0391 64.8925 43.0391 64.5539C43.0391 64.2056 42.9365 63.924 42.7314 63.7092C42.5264 63.4943 42.2432 63.3837 41.8818 63.3772H40.5391V65.6086Z" fill="#FCFCFC"/>
<path d="M51.3691 65.9064C51.3691 66.6063 51.2454 67.2199 50.998 67.7473C50.7507 68.2746 50.3958 68.6815 49.9336 68.968C49.4746 69.2544 48.9473 69.3977 48.3516 69.3977C47.7624 69.3977 47.2367 69.2561 46.7744 68.9729C46.3122 68.6897 45.9541 68.286 45.7002 67.7619C45.4463 67.2346 45.3177 66.6291 45.3145 65.9455V65.5939C45.3145 64.8941 45.4398 64.2788 45.6904 63.7482C45.9443 63.2144 46.3008 62.8059 46.7598 62.5227C47.222 62.2362 47.7493 62.093 48.3418 62.093C48.9342 62.093 49.46 62.2362 49.9189 62.5227C50.3812 62.8059 50.7376 63.2144 50.9883 63.7482C51.2422 64.2788 51.3691 64.8925 51.3691 65.5891V65.9064ZM49.8848 65.5842C49.8848 64.8387 49.7513 64.2723 49.4844 63.885C49.2174 63.4976 48.8366 63.3039 48.3418 63.3039C47.8503 63.3039 47.471 63.496 47.2041 63.8801C46.9372 64.2609 46.8021 64.8208 46.7988 65.5598V65.9064C46.7988 66.6324 46.9323 67.1955 47.1992 67.5959C47.4661 67.9963 47.8503 68.1965 48.3516 68.1965C48.8431 68.1965 49.2207 68.0044 49.4844 67.6203C49.748 67.2329 49.8815 66.6698 49.8848 65.9309V65.5842Z" fill="#FCFCFC"/>
<path d="M57.9707 67.2492L58.9277 62.1906H60.3877L58.8105 69.3H57.3359L56.1787 64.5441L55.0215 69.3H53.5469L51.9697 62.1906H53.4297L54.3916 67.2395L55.5635 62.1906H56.8037L57.9707 67.2492Z" fill="#FCFCFC"/>
<path d="M65.4609 66.2189H62.6484V68.1232H65.9492V69.3H61.1836V62.1906H65.9395V63.3772H62.6484V65.0715H65.4609V66.2189Z" fill="#FCFCFC"/>
<path d="M69.4404 66.6975H68.2734V69.3H66.8086V62.1906H69.4502C70.29 62.1906 70.9378 62.3778 71.3936 62.7522C71.8493 63.1265 72.0771 63.6555 72.0771 64.3391C72.0771 64.8241 71.9714 65.2294 71.7598 65.5549C71.5514 65.8772 71.234 66.1343 70.8076 66.3264L72.3457 69.2316V69.3H70.7734L69.4404 66.6975ZM68.2734 65.5109H69.4551C69.8229 65.5109 70.1077 65.4182 70.3096 65.2326C70.5114 65.0438 70.6123 64.785 70.6123 64.4563C70.6123 64.121 70.5163 63.8573 70.3242 63.6652C70.1354 63.4732 69.8441 63.3772 69.4502 63.3772H68.2734V65.5109Z" fill="#FCFCFC"/>
<path d="M298.077 69.3V62.1906H300.265C300.89 62.1906 301.448 62.3322 301.939 62.6154C302.434 62.8954 302.82 63.2958 303.097 63.8166C303.373 64.3342 303.512 64.9234 303.512 65.5842V65.9113C303.512 66.5721 303.375 67.1597 303.102 67.674C302.831 68.1883 302.449 68.5871 301.954 68.8703C301.459 69.1535 300.901 69.2967 300.279 69.3H298.077ZM299.542 63.3772V68.1232H300.25C300.823 68.1232 301.261 67.9361 301.563 67.5617C301.866 67.1874 302.021 66.6519 302.027 65.9553V65.5793C302.027 64.8566 301.878 64.3098 301.578 63.9387C301.279 63.5643 300.841 63.3772 300.265 63.3772H299.542Z" fill="#FCFCFC"/>
<path d="M306.139 69.3H304.674V62.1906H306.139V69.3Z" fill="#FCFCFC"/>
<path d="M313.126 68.4016C312.862 68.7173 312.49 68.9631 312.008 69.1389C311.526 69.3114 310.992 69.3977 310.406 69.3977C309.791 69.3977 309.251 69.2642 308.785 68.9973C308.323 68.7271 307.965 68.3365 307.711 67.8254C307.46 67.3143 307.332 66.7137 307.325 66.0236V65.5402C307.325 64.8306 307.444 64.217 307.682 63.6994C307.923 63.1786 308.268 62.7814 308.717 62.508C309.169 62.2313 309.698 62.093 310.304 62.093C311.147 62.093 311.806 62.2948 312.281 62.6984C312.757 63.0988 313.038 63.6831 313.126 64.4514H311.7C311.635 64.0445 311.49 63.7466 311.266 63.5578C311.044 63.369 310.738 63.2746 310.348 63.2746C309.85 63.2746 309.47 63.4618 309.21 63.8361C308.95 64.2105 308.818 64.7671 308.814 65.5061V65.9602C308.814 66.7056 308.956 67.2688 309.239 67.6496C309.522 68.0305 309.938 68.2209 310.484 68.2209C311.035 68.2209 311.427 68.1037 311.661 67.8693V66.6438H310.328V65.5647H313.126V68.4016Z" fill="#FCFCFC"/>
<path d="M315.875 69.3H314.41V62.1906H315.875V69.3Z" fill="#FCFCFC"/>
<path d="M322.442 63.3772H320.265V69.3H318.8V63.3772H316.651V62.1906H322.442V63.3772Z" fill="#FCFCFC"/>
<path d="M326.71 67.8352H324.142L323.653 69.3H322.096L324.742 62.1906H326.1L328.761 69.3H327.203L326.71 67.8352ZM324.537 66.6486H326.314L325.421 63.9875L324.537 66.6486Z" fill="#FCFCFC"/>
<path d="M330.89 68.1232H334V69.3H329.425V62.1906H330.89V68.1232Z" fill="#FCFCFC"/>
<path d="M338.893 69.3H337.428V62.1906H338.893V69.3Z" fill="#FCFCFC"/>
<path d="M346.036 69.3H344.571L341.72 64.6223V69.3H340.255V62.1906H341.72L344.576 66.8781V62.1906H346.036V69.3Z" fill="#FCFCFC"/>
<path d="M349.806 69.3V62.1906H352.296C353.159 62.1906 353.813 62.3566 354.259 62.6887C354.705 63.0175 354.928 63.5008 354.928 64.1389C354.928 64.4872 354.838 64.7948 354.659 65.0617C354.48 65.3254 354.231 65.5191 353.912 65.6428C354.277 65.7339 354.563 65.9178 354.771 66.1945C354.983 66.4712 355.089 66.8098 355.089 67.2102C355.089 67.8938 354.871 68.4113 354.435 68.7629C353.998 69.1145 353.377 69.2935 352.569 69.3H349.806ZM351.271 66.2043V68.1232H352.525C352.87 68.1232 353.139 68.0419 353.331 67.8791C353.526 67.7131 353.624 67.4852 353.624 67.1955C353.624 66.5445 353.287 66.2141 352.613 66.2043H351.271ZM351.271 65.1691H352.354C353.093 65.1561 353.463 64.8615 353.463 64.2854C353.463 63.9631 353.368 63.732 353.18 63.592C352.994 63.4488 352.7 63.3772 352.296 63.3772H351.271V65.1691Z" fill="#FCFCFC"/>
<path d="M383.696 67.6452H381.128L380.64 69.11H379.082L381.729 62.0006H383.086L385.747 69.11H384.189L383.696 67.6452ZM381.523 66.4586H383.301L382.407 63.7975L381.523 66.4586Z" fill="#FCFCFC"/>
<path d="M392.192 69.11H390.728L387.876 64.4323V69.11H386.411V62.0006H387.876L390.732 66.6881V62.0006H392.192V69.11Z" fill="#FCFCFC"/>
<path d="M397.573 67.6452H395.005L394.517 69.11H392.959L395.605 62.0006H396.963L399.624 69.11H398.066L397.573 67.6452ZM395.4 66.4586H397.178L396.284 63.7975L395.4 66.4586Z" fill="#FCFCFC"/>
<path d="M401.753 67.9332H404.863V69.11H400.288V62.0006H401.753V67.9332Z" fill="#FCFCFC"/>
<path d="M411.235 65.7164C411.235 66.4163 411.112 67.0299 410.864 67.5573C410.617 68.0846 410.262 68.4915 409.8 68.778C409.341 69.0644 408.813 69.2077 408.218 69.2077C407.629 69.2077 407.103 69.0661 406.641 68.7829C406.178 68.4996 405.82 68.096 405.566 67.5719C405.312 67.0446 405.184 66.4391 405.181 65.7555V65.4039C405.181 64.7041 405.306 64.0888 405.557 63.5582C405.811 63.0244 406.167 62.6159 406.626 62.3327C407.088 62.0462 407.616 61.903 408.208 61.903C408.8 61.903 409.326 62.0462 409.785 62.3327C410.247 62.6159 410.604 63.0244 410.854 63.5582C411.108 64.0888 411.235 64.7024 411.235 65.3991V65.7164ZM409.751 65.3942C409.751 64.6487 409.618 64.0823 409.351 63.695C409.084 63.3076 408.703 63.1139 408.208 63.1139C407.716 63.1139 407.337 63.306 407.07 63.6901C406.803 64.0709 406.668 64.6308 406.665 65.3698V65.7164C406.665 66.4424 406.799 67.0055 407.065 67.4059C407.332 67.8063 407.716 68.0065 408.218 68.0065C408.709 68.0065 409.087 67.8144 409.351 67.4303C409.614 67.0429 409.748 66.4798 409.751 65.7409V65.3942Z" fill="#FCFCFC"/>
<path d="M417.925 68.2116C417.661 68.5273 417.288 68.7731 416.807 68.9489C416.325 69.1214 415.791 69.2077 415.205 69.2077C414.59 69.2077 414.049 69.0742 413.584 68.8073C413.122 68.5371 412.764 68.1465 412.51 67.6354C412.259 67.1243 412.131 66.5237 412.124 65.8336V65.3502C412.124 64.6406 412.243 64.027 412.48 63.5094C412.721 62.9886 413.066 62.5914 413.516 62.318C413.968 62.0413 414.497 61.903 415.103 61.903C415.946 61.903 416.605 62.1048 417.08 62.5084C417.555 62.9088 417.837 63.4931 417.925 64.2614H416.499C416.434 63.8545 416.289 63.5566 416.064 63.3678C415.843 63.179 415.537 63.0846 415.146 63.0846C414.648 63.0846 414.269 63.2718 414.009 63.6461C413.748 64.0205 413.617 64.5771 413.613 65.3161V65.7702C413.613 66.5156 413.755 67.0788 414.038 67.4596C414.321 67.8405 414.736 68.0309 415.283 68.0309C415.833 68.0309 416.226 67.9137 416.46 67.6793V66.4538H415.127V65.3746H417.925V68.2116Z" fill="#FCFCFC"/>
<path d="M423.164 69.11H421.699V62.0006H423.164V69.11Z" fill="#FCFCFC"/>
<path d="M430.308 69.11H428.843L425.991 64.4323V69.11H424.526V62.0006H425.991L428.848 66.6881V62.0006H430.308V69.11Z" fill="#FCFCFC"/>
<path d="M38 73.11H73.18" stroke="#FCFCFC" stroke-miterlimit="10"/>
<path d="M75 73.11H179.71" stroke="#FCFCFC" stroke-miterlimit="10"/>
<path d="M182 73.11H276.7" stroke="#FCFCFC" stroke-miterlimit="10"/>
<path d="M280 73.11H374.7" stroke="#FCFCFC" stroke-miterlimit="10"/>
<path d="M377 73.11H432.03" stroke="#FCFCFC" stroke-miterlimit="10"/>
<path d="M66.19 86.93C68.8575 86.93 71.02 84.7675 71.02 82.1C71.02 79.4325 68.8575 77.27 66.19 77.27C63.5225 77.27 61.36 79.4325 61.36 82.1C61.36 84.7675 63.5225 86.93 66.19 86.93Z" stroke="#FCFCFC" stroke-width="0.5" stroke-linecap="round" stroke-linejoin="round"/>
<path d="M93.31 86.93C95.9776 86.93 98.14 84.7675 98.14 82.1C98.14 79.4325 95.9776 77.27 93.31 77.27C90.6425 77.27 88.48 79.4325 88.48 82.1C88.48 84.7675 90.6425 86.93 93.31 86.93Z" stroke="#FCFCFC" stroke-width="0.5" stroke-linecap="round" stroke-linejoin="round"/>
<path d="M269.86 86.93C272.528 86.93 274.69 84.7675 274.69 82.1C274.69 79.4325 272.528 77.27 269.86 77.27C267.192 77.27 265.03 79.4325 265.03 82.1C265.03 84.7675 267.192 86.93 269.86 86.93Z" stroke="#FCFCFC" stroke-width="0.5" stroke-linecap="round" stroke-linejoin="round"/>
<path d="M366.86 86.93C369.528 86.93 371.69 84.7675 371.69 82.1C371.69 79.4325 369.528 77.27 366.86 77.27C364.192 77.27 362.03 79.4325 362.03 82.1C362.03 84.7675 364.192 86.93 366.86 86.93Z" stroke="#FCFCFC" stroke-width="0.5" stroke-linecap="round" stroke-linejoin="round"/>
<path d="M424.01 86.93C426.677 86.93 428.84 84.7675 428.84 82.1C428.84 79.4325 426.677 77.27 424.01 77.27C421.342 77.27 419.18 79.4325 419.18 82.1C419.18 84.7675 421.342 86.93 424.01 86.93Z" stroke="#FCFCFC" stroke-width="0.5" stroke-linecap="round" stroke-linejoin="round"/>
<path d="M45.8 86.93C48.4676 86.93 50.63 84.7675 50.63 82.1C50.63 79.4325 48.4676 77.27 45.8 77.27C43.1325 77.27 40.97 79.4325 40.97 82.1C40.97 84.7675 43.1325 86.93 45.8 86.93Z" stroke="#FCFCFC" stroke-width="0.5" stroke-linecap="round" stroke-linejoin="round"/>
<path d="M376.69 100.06H431.7V121.34H376.69V100.06Z" fill="#57BD82" stroke="black" stroke-width="0.43" stroke-linecap="round" stroke-linejoin="round"/>
<path d="M279.52 100.06H374.22V121.34H279.52V100.06Z" fill="#57BD82" stroke="black" stroke-width="0.43" stroke-linecap="round" stroke-linejoin="round"/>
<path d="M182.47 100.06H277.17V121.34H182.47V100.06Z" fill="#57BD82" stroke="black" stroke-width="0.43" stroke-linecap="round" stroke-linejoin="round"/>
<path d="M75.41 100.06H180.03V121.34H75.41V100.06Z" fill="#57BD82" stroke="black" stroke-width="0.43" stroke-linecap="round" stroke-linejoin="round"/>
<path d="M37.7 100.06H72.87V121.34H37.7V100.06Z" fill="#57BD82" stroke="black" stroke-width="0.43" stroke-linecap="round" stroke-linejoin="round"/>
<path d="M385.816 86.5H384.17V79.9551L382.014 80.7285V79.3105L385.729 77.9688H385.816V86.5Z" fill="#FCFCFC"/>
<path d="M397.299 86.5H391.481V85.3867L394.241 82.4219C394.456 82.1875 394.637 81.9746 394.786 81.7832C394.934 81.5918 395.053 81.418 395.143 81.2617C395.237 81.1016 395.303 80.9531 395.342 80.8164C395.385 80.6797 395.407 80.5469 395.407 80.418C395.407 80.2266 395.379 80.0566 395.325 79.9082C395.27 79.7598 395.192 79.6348 395.09 79.5332C394.993 79.4277 394.874 79.3477 394.733 79.293C394.596 79.2383 394.444 79.2109 394.276 79.2109C393.827 79.2109 393.491 79.3359 393.268 79.5859C393.049 79.8359 392.94 80.1855 392.94 80.6348H391.305C391.305 80.2559 391.377 79.8984 391.522 79.5625C391.667 79.2227 391.87 78.9258 392.131 78.6719C392.397 78.418 392.715 78.2188 393.086 78.0742C393.461 77.9258 393.875 77.8516 394.329 77.8516C394.762 77.8516 395.145 77.9121 395.477 78.0332C395.813 78.1543 396.092 78.3242 396.315 78.543C396.542 78.7617 396.713 79.0254 396.831 79.334C396.948 79.6387 397.006 79.9766 397.006 80.3477C397.006 80.6289 396.961 80.8984 396.872 81.1562C396.786 81.4102 396.661 81.6621 396.497 81.9121C396.336 82.1621 396.143 82.418 395.917 82.6797C395.69 82.9375 395.438 83.209 395.161 83.4941L393.555 85.1934H397.299V86.5Z" fill="#FCFCFC"/>
<path d="M403.257 81.5195H404.142C404.587 81.5195 404.917 81.4082 405.132 81.1855C405.347 80.959 405.454 80.6641 405.454 80.3008C405.454 80.1328 405.429 79.9805 405.378 79.8438C405.331 79.7031 405.259 79.584 405.161 79.4863C405.063 79.3848 404.938 79.3066 404.786 79.252C404.638 79.1973 404.464 79.1699 404.265 79.1699C404.101 79.1699 403.946 79.1934 403.802 79.2402C403.661 79.2871 403.536 79.3555 403.427 79.4453C403.321 79.5312 403.237 79.6367 403.175 79.7617C403.112 79.8867 403.081 80.0273 403.081 80.1836H401.452C401.452 79.8359 401.522 79.5195 401.663 79.2344C401.808 78.9492 402.005 78.7051 402.255 78.502C402.505 78.2949 402.798 78.1348 403.134 78.0215C403.474 77.9082 403.839 77.8516 404.23 77.8516C404.651 77.8516 405.038 77.9043 405.39 78.0098C405.741 78.1113 406.042 78.2656 406.292 78.4727C406.542 78.6758 406.735 78.9297 406.872 79.2344C407.013 79.5352 407.083 79.8848 407.083 80.2832C407.083 80.4668 407.056 80.6484 407.001 80.8281C406.946 81.0039 406.866 81.1719 406.761 81.332C406.655 81.4922 406.524 81.6406 406.368 81.7773C406.212 81.9102 406.032 82.0254 405.829 82.123C406.067 82.209 406.272 82.3184 406.444 82.4512C406.62 82.584 406.765 82.7363 406.878 82.9082C406.991 83.0762 407.075 83.2617 407.13 83.4648C407.185 83.668 407.212 83.8828 407.212 84.1094C407.212 84.5078 407.136 84.8633 406.983 85.1758C406.831 85.4883 406.622 85.752 406.356 85.9668C406.091 86.1777 405.774 86.3398 405.407 86.4531C405.044 86.5625 404.651 86.6172 404.23 86.6172C403.866 86.6172 403.511 86.5684 403.163 86.4707C402.819 86.3691 402.513 86.2188 402.243 86.0195C401.974 85.8164 401.757 85.5625 401.593 85.2578C401.433 84.9531 401.353 84.5938 401.353 84.1797H402.981C402.981 84.3438 403.013 84.4961 403.075 84.6367C403.138 84.7734 403.226 84.8926 403.339 84.9941C403.456 85.0918 403.593 85.1699 403.749 85.2285C403.905 85.2832 404.077 85.3105 404.265 85.3105C404.679 85.3105 405.003 85.2012 405.237 84.9824C405.472 84.7637 405.589 84.4668 405.589 84.0918C405.589 83.8613 405.556 83.6641 405.489 83.5C405.423 83.3359 405.325 83.2012 405.196 83.0957C405.071 82.9902 404.919 82.9121 404.739 82.8613C404.563 82.8105 404.364 82.7852 404.142 82.7852H403.257V81.5195Z" fill="#FCFCFC"/>
<path d="M416.269 83.3301H417.259V84.6484H416.269V86.5H414.64V84.6484H411.095L411.031 83.6289L414.617 77.9688H416.269V83.3301ZM412.63 83.3301H414.64V80.1602L414.482 80.4414L412.63 83.3301Z" fill="#FCFCFC"/>
<path d="M426.451 82.7584H421.57V81.44H426.451V82.7584Z" fill="#FCFCFC"/>
<path d="M88.29 105.56H96.79V118.86H88.29V105.56Z" fill="#418E62"/>
<path d="M88.29 102.67H96.79V104.38H88.29V102.67Z" fill="#418E62"/>
<path d="M90.83 104.3H94.24V105.57H90.83V104.3Z" fill="#418E62"/>
<path d="M78.31 105.56H86.81V118.86H78.31V105.56Z" fill="#418E62"/>
<path d="M78.31 102.67H86.81V104.38H78.31V102.67Z" fill="#418E62"/>
<path d="M80.85 104.3H84.26V105.57H80.85V104.3Z" fill="#418E62"/>
<path d="M41.12 105.56H49.62V118.86H41.12V105.56Z" fill="#418E62"/>
<path d="M41.12 102.67H49.62V104.38H41.12V102.67Z" fill="#418E62"/>
<path d="M43.66 104.3H47.07V105.57H43.66V104.3Z" fill="#418E62"/>
<path d="M51.04 105.56H59.54V118.86H51.04V105.56Z" fill="#418E62"/>
<path d="M51.04 102.67H59.54V104.38H51.04V102.67Z" fill="#418E62"/>
<path d="M53.59 104.3H57V105.57H53.59V104.3Z" fill="#418E62"/>
<path d="M60.96 105.56H69.46V118.86H60.96V105.56Z" fill="#418E62"/>
<path d="M60.96 102.67H69.46V104.38H60.96V102.67Z" fill="#418E62"/>
<path d="M63.51 104.3H66.92V105.57H63.51V104.3Z" fill="#418E62"/>
<path d="M98.27 105.56H106.77V118.86H98.27V105.56Z" fill="#418E62"/>
<path d="M98.27 102.67H106.77V104.38H98.27V102.67Z" fill="#418E62"/>
<path d="M100.81 104.3H104.22V105.57H100.81V104.3Z" fill="#418E62"/>
<path d="M108.25 105.56H116.75V118.86H108.25V105.56Z" fill="#418E62"/>
<path d="M108.25 102.67H116.75V104.38H108.25V102.67Z" fill="#418E62"/>
<path d="M110.79 104.3H114.2V105.57H110.79V104.3Z" fill="#418E62"/>
<path d="M118.23 105.56H126.73V118.86H118.23V105.56Z" fill="#418E62"/>
<path d="M118.23 102.67H126.73V104.38H118.23V102.67Z" fill="#418E62"/>
<path d="M120.77 104.3H124.18V105.57H120.77V104.3Z" fill="#418E62"/>
<path d="M128.21 105.56H136.71V118.86H128.21V105.56Z" fill="#418E62"/>
<path d="M128.21 102.67H136.71V104.38H128.21V102.67Z" fill="#418E62"/>
<path d="M130.75 104.3H134.16V105.57H130.75V104.3Z" fill="#418E62"/>
<path d="M138.18 105.56H146.68V118.86H138.18V105.56Z" fill="#418E62"/>
<path d="M138.18 102.67H146.68V104.38H138.18V102.67Z" fill="#418E62"/>
<path d="M140.73 104.3H144.14V105.57H140.73V104.3Z" fill="#418E62"/>
<path d="M148.16 105.56H156.66V118.86H148.16V105.56Z" fill="#418E62"/>
<path d="M148.16 102.67H156.66V104.38H148.16V102.67Z" fill="#418E62"/>
<path d="M150.71 104.3H154.12V105.57H150.71V104.3Z" fill="#418E62"/>
<path d="M158.14 105.56H166.64V118.86H158.14V105.56Z" fill="#418E62"/>
<path d="M158.14 102.67H166.64V104.38H158.14V102.67Z" fill="#418E62"/>
<path d="M160.69 104.3H164.1V105.57H160.69V104.3Z" fill="#418E62"/>
<path d="M168.12 105.56H176.62V118.86H168.12V105.56Z" fill="#418E62"/>
<path d="M168.12 102.67H176.62V104.38H168.12V102.67Z" fill="#418E62"/>
<path d="M170.67 104.3H174.08V105.57H170.67V104.3Z" fill="#418E62"/>
<path d="M185.88 105.56H194.38V118.86H185.88V105.56Z" fill="#418E62"/>
<path d="M185.88 102.67H194.38V104.38H185.88V102.67Z" fill="#418E62"/>
<path d="M188.43 104.3H191.84V105.57H188.43V104.3Z" fill="#418E62"/>
<path d="M195.81 105.56H204.31V118.86H195.81V105.56Z" fill="#418E62"/>
<path d="M195.81 102.67H204.31V104.38H195.81V102.67Z" fill="#418E62"/>
<path d="M198.35 104.3H201.76V105.57H198.35V104.3Z" fill="#418E62"/>
<path d="M205.73 105.56H214.23V118.86H205.73V105.56Z" fill="#418E62"/>
<path d="M205.73 102.67H214.23V104.38H205.73V102.67Z" fill="#418E62"/>
<path d="M208.27 104.3H211.68V105.57H208.27V104.3Z" fill="#418E62"/>
<path d="M215.65 105.56H224.15V118.86H215.65V105.56Z" fill="#418E62"/>
<path d="M215.65 102.67H224.15V104.38H215.65V102.67Z" fill="#418E62"/>
<path d="M218.19 104.3H221.6V105.57H218.19V104.3Z" fill="#418E62"/>
<path d="M225.57 105.56H234.07V118.86H225.57V105.56Z" fill="#418E62"/>
<path d="M225.57 102.67H234.07V104.38H225.57V102.67Z" fill="#418E62"/>
<path d="M228.11 104.3H231.52V105.57H228.11V104.3Z" fill="#418E62"/>
<path d="M235.49 105.56H243.99V118.86H235.49V105.56Z" fill="#418E62"/>
<path d="M235.49 102.67H243.99V104.38H235.49V102.67Z" fill="#418E62"/>
<path d="M238.04 104.3H241.45V105.57H238.04V104.3Z" fill="#418E62"/>
<path d="M245.41 105.56H253.91V118.86H245.41V105.56Z" fill="#418E62"/>
<path d="M245.41 102.67H253.91V104.38H245.41V102.67Z" fill="#418E62"/>
<path d="M247.96 104.3H251.37V105.57H247.96V104.3Z" fill="#418E62"/>
<path d="M255.33 105.56H263.83V118.86H255.33V105.56Z" fill="#418E62"/>
<path d="M255.33 102.67H263.83V104.38H255.33V102.67Z" fill="#418E62"/>
<path d="M257.88 104.3H261.29V105.57H257.88V104.3Z" fill="#418E62"/>
<path d="M265.25 105.56H273.75V118.86H265.25V105.56Z" fill="#418E62"/>
<path d="M265.25 102.67H273.75V104.38H265.25V102.67Z" fill="#418E62"/>
<path d="M267.8 104.3H271.21V105.57H267.8V104.3Z" fill="#418E62"/>
<path d="M282.94 105.56H291.44V118.86H282.94V105.56Z" fill="#418E62"/>
<path d="M282.94 102.67H291.44V104.38H282.94V102.67Z" fill="#418E62"/>
<path d="M285.48 104.3H288.89V105.57H285.48V104.3Z" fill="#418E62"/>
<path d="M292.86 105.56H301.36V118.86H292.86V105.56Z" fill="#418E62"/>
<path d="M292.86 102.67H301.36V104.38H292.86V102.67Z" fill="#418E62"/>
<path d="M295.41 104.3H298.82V105.57H295.41V104.3Z" fill="#418E62"/>
<path d="M302.78 105.56H311.28V118.86H302.78V105.56Z" fill="#418E62"/>
<path d="M302.78 102.67H311.28V104.38H302.78V102.67Z" fill="#418E62"/>
<path d="M305.33 104.3H308.74V105.57H305.33V104.3Z" fill="#418E62"/>
<path d="M312.7 105.56H321.2V118.86H312.7V105.56Z" fill="#418E62"/>
<path d="M312.7 102.67H321.2V104.38H312.7V102.67Z" fill="#418E62"/>
<path d="M315.25 104.3H318.66V105.57H315.25V104.3Z" fill="#418E62"/>
<path d="M322.62 105.56H331.12V118.86H322.62V105.56Z" fill="#418E62"/>
<path d="M322.62 102.67H331.12V104.38H322.62V102.67Z" fill="#418E62"/>
<path d="M325.17 104.3H328.58V105.57H325.17V104.3Z" fill="#418E62"/>
<path d="M332.55 105.56H341.05V118.86H332.55V105.56Z" fill="#418E62"/>
<path d="M332.55 102.67H341.05V104.38H332.55V102.67Z" fill="#418E62"/>
<path d="M335.09 104.3H338.5V105.57H335.09V104.3Z" fill="#418E62"/>
<path d="M342.47 105.56H350.97V118.86H342.47V105.56Z" fill="#418E62"/>
<path d="M342.47 102.67H350.97V104.38H342.47V102.67Z" fill="#418E62"/>
<path d="M345.01 104.3H348.42V105.57H345.01V104.3Z" fill="#418E62"/>
<path d="M352.39 105.56H360.89V118.86H352.39V105.56Z" fill="#418E62"/>
<path d="M352.39 102.67H360.89V104.38H352.39V102.67Z" fill="#418E62"/>
<path d="M354.93 104.3H358.34V105.57H354.93V104.3Z" fill="#418E62"/>
<path d="M362.31 105.56H370.81V118.86H362.31V105.56Z" fill="#418E62"/>
<path d="M362.31 102.67H370.81V104.38H362.31V102.67Z" fill="#418E62"/>
<path d="M364.85 104.3H368.26V105.57H364.85V104.3Z" fill="#418E62"/>
<path d="M380.11 105.56H388.61V118.86H380.11V105.56Z" fill="#418E62"/>
<path d="M380.11 102.67H388.61V104.38H380.11V102.67Z" fill="#418E62"/>
<path d="M382.66 104.3H386.07V105.57H382.66V104.3Z" fill="#418E62"/>
<path d="M390.03 105.56H398.53V118.86H390.03V105.56Z" fill="#418E62"/>
<path d="M390.03 102.67H398.53V104.38H390.03V102.67Z" fill="#418E62"/>
<path d="M392.58 104.3H395.99V105.57H392.58V104.3Z" fill="#418E62"/>
<path d="M399.95 105.56H408.45V118.86H399.95V105.56Z" fill="#418E62"/>
<path d="M399.95 102.67H408.45V104.38H399.95V102.67Z" fill="#418E62"/>
<path d="M402.5 104.3H405.91V105.57H402.5V104.3Z" fill="#418E62"/>
<path d="M409.88 105.56H418.38V118.86H409.88V105.56Z" fill="#418E62"/>
<path d="M409.88 102.67H418.38V104.38H409.88V102.67Z" fill="#418E62"/>
<path d="M412.42 104.3H415.83V105.57H412.42V104.3Z" fill="#418E62"/>
<path d="M419.8 105.56H428.3V118.86H419.8V105.56Z" fill="#418E62"/>
<path d="M419.8 102.67H428.3V104.38H419.8V102.67Z" fill="#418E62"/>
<path d="M422.34 104.3H425.75V105.57H422.34V104.3Z" fill="#418E62"/>
<path d="M48.92 93.58C48.9141 94.2808 48.7009 94.9642 48.3072 95.544C47.9135 96.1239 47.357 96.5742 46.7079 96.8383C46.0587 97.1024 45.3459 97.1684 44.6592 97.0281C43.9726 96.8877 43.3428 96.5473 42.8494 96.0496C42.3559 95.552 42.0207 94.9194 41.8862 94.2316C41.7516 93.5438 41.8237 92.8316 42.0932 92.1846C42.3628 91.5377 42.8178 90.985 43.4009 90.5963C43.984 90.2075 44.6692 90 45.37 90C46.3115 90 47.2145 90.374 47.8802 91.0398C48.546 91.7055 48.92 92.6085 48.92 93.55V93.58Z" fill="#59FF8D"/>
<path d="M58.85 93.58C58.8441 94.2804 58.6311 94.9634 58.2379 95.543C57.8447 96.1226 57.2888 96.573 56.6402 96.8373C55.9916 97.1017 55.2793 97.1684 54.5929 97.0288C53.9065 96.8893 53.2767 96.5498 52.7829 96.0532C52.289 95.5565 51.9531 94.9249 51.8174 94.2377C51.6817 93.5506 51.7523 92.8386 52.0203 92.1915C52.2883 91.5444 52.7418 90.9911 53.3236 90.6011C53.9054 90.2111 54.5896 90.002 55.29 90C56.2315 90 57.1345 90.374 57.8002 91.0398C58.466 91.7055 58.84 92.6085 58.84 93.55L58.85 93.58Z" fill="#59FF8D"/>
<path d="M106.48 93.58C106.474 94.2804 106.261 94.9634 105.868 95.543C105.475 96.1226 104.919 96.573 104.27 96.8373C103.622 97.1017 102.909 97.1684 102.223 97.0288C101.537 96.8893 100.907 96.5498 100.413 96.0532C99.919 95.5565 99.5831 94.9249 99.4474 94.2377C99.3117 93.5506 99.3823 92.8386 99.6503 92.1915C99.9183 91.5444 100.372 90.9911 100.954 90.6011C101.535 90.2111 102.22 90.002 102.92 90C103.862 90 104.764 90.374 105.43 91.0398C106.096 91.7055 106.47 92.6085 106.47 93.55L106.48 93.58Z" fill="#ABB5C1"/>
<path d="M116.4 93.58C116.394 94.2804 116.181 94.9634 115.788 95.543C115.395 96.1226 114.839 96.573 114.19 96.8373C113.542 97.1017 112.829 97.1684 112.143 97.0288C111.457 96.8893 110.827 96.5498 110.333 96.0532C109.839 95.5565 109.503 94.9249 109.367 94.2377C109.232 93.5506 109.302 92.8386 109.57 92.1915C109.838 91.5444 110.292 90.9911 110.874 90.6011C111.455 90.2111 112.14 90.002 112.84 90C113.782 90 114.684 90.374 115.35 91.0398C116.016 91.7055 116.39 92.6085 116.39 93.55L116.4 93.58Z" fill="#ABB5C1"/>
<path d="M126.32 93.58C126.314 94.2804 126.101 94.9634 125.708 95.543C125.315 96.1226 124.759 96.573 124.11 96.8373C123.462 97.1017 122.749 97.1684 122.063 97.0288C121.376 96.8893 120.747 96.5498 120.253 96.0532C119.759 95.5565 119.423 94.9249 119.287 94.2377C119.152 93.5506 119.222 92.8386 119.49 92.1915C119.758 91.5444 120.212 90.9911 120.794 90.6011C121.375 90.2111 122.06 90.002 122.76 90C123.701 90 124.604 90.374 125.27 91.0398C125.936 91.7055 126.31 92.6085 126.31 93.55L126.32 93.58Z" fill="#ABB5C1"/>
<path d="M136.24 93.58C136.234 94.2804 136.021 94.9634 135.628 95.543C135.235 96.1226 134.679 96.573 134.03 96.8373C133.382 97.1017 132.669 97.1684 131.983 97.0288C131.297 96.8893 130.667 96.5498 130.173 96.0532C129.679 95.5565 129.343 94.9249 129.207 94.2377C129.072 93.5506 129.142 92.8386 129.41 92.1915C129.678 91.5444 130.132 90.9911 130.714 90.6011C131.295 90.2111 131.98 90.002 132.68 90C133.622 90 134.524 90.374 135.19 91.0398C135.856 91.7055 136.23 92.6085 136.23 93.55L136.24 93.58Z" fill="#ABB5C1"/>
<path d="M146.16 93.58C146.154 94.2808 145.941 94.9642 145.547 95.544C145.154 96.1239 144.597 96.5742 143.948 96.8383C143.299 97.1024 142.586 97.1684 141.899 97.0281C141.213 96.8877 140.583 96.5473 140.089 96.0496C139.596 95.552 139.261 94.9194 139.126 94.2316C138.992 93.5438 139.064 92.8316 139.333 92.1846C139.603 91.5377 140.058 90.985 140.641 90.5963C141.224 90.2075 141.909 90 142.61 90C143.552 90 144.454 90.374 145.12 91.0398C145.786 91.7055 146.16 92.6085 146.16 93.55V93.58Z" fill="#ABB5C1"/>
<path d="M156.08 93.58C156.074 94.2808 155.861 94.9642 155.467 95.544C155.074 96.1239 154.517 96.5742 153.868 96.8383C153.219 97.1024 152.506 97.1684 151.819 97.0281C151.133 96.8877 150.503 96.5473 150.009 96.0496C149.516 95.552 149.181 94.9194 149.046 94.2316C148.912 93.5438 148.984 92.8316 149.253 92.1846C149.523 91.5377 149.978 90.985 150.561 90.5963C151.144 90.2075 151.829 90 152.53 90C153.471 90 154.374 90.374 155.04 91.0398C155.706 91.7055 156.08 92.6085 156.08 93.55V93.58Z" fill="#ABB5C1"/>
<path d="M166 93.58C165.994 94.2808 165.781 94.9642 165.387 95.544C164.994 96.1239 164.437 96.5742 163.788 96.8383C163.139 97.1024 162.426 97.1684 161.739 97.0281C161.053 96.8877 160.423 96.5473 159.929 96.0496C159.436 95.552 159.101 94.9194 158.966 94.2316C158.832 93.5438 158.904 92.8316 159.173 92.1846C159.443 91.5377 159.898 90.985 160.481 90.5963C161.064 90.2075 161.749 90 162.45 90C163.392 90 164.295 90.374 164.96 91.0398C165.626 91.7055 166 92.6085 166 93.55V93.58Z" fill="#ABB5C1"/>
<path d="M175.92 93.58C175.914 94.2808 175.701 94.9642 175.307 95.544C174.914 96.1239 174.357 96.5742 173.708 96.8383C173.059 97.1024 172.346 97.1684 171.659 97.0281C170.973 96.8877 170.343 96.5473 169.849 96.0496C169.356 95.552 169.021 94.9194 168.886 94.2316C168.752 93.5438 168.824 92.8316 169.093 92.1846C169.363 91.5377 169.818 90.985 170.401 90.5963C170.984 90.2075 171.669 90 172.37 90C173.312 90 174.214 90.374 174.88 91.0398C175.546 91.7055 175.92 92.6085 175.92 93.55V93.58Z" fill="#ABB5C1"/>
<path d="M193.69 93.58C193.684 94.2804 193.471 94.9634 193.078 95.543C192.685 96.1226 192.129 96.573 191.48 96.8373C190.832 97.1017 190.119 97.1684 189.433 97.0288C188.746 96.8893 188.117 96.5498 187.623 96.0532C187.129 95.5565 186.793 94.9249 186.657 94.2377C186.522 93.5506 186.592 92.8386 186.86 92.1915C187.128 91.5444 187.582 90.9911 188.164 90.6011C188.745 90.2111 189.43 90.002 190.13 90C191.071 90 191.974 90.374 192.64 91.0398C193.306 91.7055 193.68 92.6085 193.68 93.55L193.69 93.58Z" fill="#ABB5C1"/>
<path d="M203.61 93.58C203.604 94.2804 203.391 94.9634 202.998 95.543C202.605 96.1226 202.049 96.573 201.4 96.8373C200.752 97.1017 200.039 97.1684 199.353 97.0288C198.667 96.8893 198.037 96.5498 197.543 96.0532C197.049 95.5565 196.713 94.9249 196.577 94.2377C196.442 93.5506 196.512 92.8386 196.78 92.1915C197.048 91.5444 197.502 90.9911 198.084 90.6011C198.665 90.2111 199.35 90.002 200.05 90C200.992 90 201.894 90.374 202.56 91.0398C203.226 91.7055 203.6 92.6085 203.6 93.55L203.61 93.58Z" fill="#ABB5C1"/>
<path d="M213.53 93.58C213.524 94.2817 213.31 94.9658 212.916 95.5461C212.521 96.1263 211.964 96.5767 211.313 96.8402C210.663 97.1036 209.949 97.1685 209.262 97.0265C208.575 96.8845 207.945 96.5421 207.452 96.0425C206.96 95.5428 206.626 94.9084 206.494 94.2193C206.362 93.5302 206.436 92.8173 206.709 92.1707C206.982 91.5242 207.44 90.9729 208.026 90.5865C208.611 90.2002 209.298 89.9961 210 90C210.942 90 211.845 90.374 212.51 91.0398C213.176 91.7055 213.55 92.6085 213.55 93.55L213.53 93.58Z" fill="#ABB5C1"/>
<path d="M223.45 93.58C223.444 94.2808 223.231 94.9642 222.837 95.544C222.443 96.1239 221.887 96.5742 221.238 96.8383C220.589 97.1024 219.876 97.1684 219.189 97.0281C218.503 96.8877 217.873 96.5473 217.379 96.0496C216.886 95.552 216.551 94.9194 216.416 94.2316C216.282 93.5438 216.354 92.8316 216.623 92.1846C216.893 91.5377 217.348 90.985 217.931 90.5963C218.514 90.2075 219.199 90 219.9 90C220.841 90 221.744 90.374 222.41 91.0398C223.076 91.7055 223.45 92.6085 223.45 93.55V93.58Z" fill="#ABB5C1"/>
<path d="M233.37 93.58C233.364 94.2808 233.151 94.9642 232.757 95.544C232.364 96.1239 231.807 96.5742 231.158 96.8383C230.509 97.1024 229.796 97.1684 229.109 97.0281C228.423 96.8877 227.793 96.5473 227.299 96.0496C226.806 95.552 226.471 94.9194 226.336 94.2316C226.202 93.5438 226.274 92.8316 226.543 92.1846C226.813 91.5377 227.268 90.985 227.851 90.5963C228.434 90.2075 229.119 90 229.82 90C230.762 90 231.664 90.374 232.33 91.0398C232.996 91.7055 233.37 92.6085 233.37 93.55V93.58Z" fill="#ABB5C1"/>
<path d="M243.29 93.58C243.284 94.2808 243.071 94.9642 242.677 95.544C242.284 96.1239 241.727 96.5742 241.078 96.8383C240.429 97.1024 239.716 97.1684 239.029 97.0281C238.343 96.8877 237.713 96.5473 237.219 96.0496C236.726 95.552 236.391 94.9194 236.256 94.2316C236.122 93.5438 236.194 92.8316 236.463 92.1846C236.733 91.5377 237.188 90.985 237.771 90.5963C238.354 90.2075 239.039 90 239.74 90C240.682 90 241.585 90.374 242.25 91.0398C242.916 91.7055 243.29 92.6085 243.29 93.55V93.58Z" fill="#ABB5C1"/>
<path d="M253.22 93.58C253.214 94.2804 253.001 94.9634 252.608 95.543C252.215 96.1226 251.659 96.573 251.01 96.8373C250.362 97.1017 249.649 97.1684 248.963 97.0288C248.277 96.8893 247.647 96.5498 247.153 96.0532C246.659 95.5565 246.323 94.9249 246.187 94.2377C246.052 93.5506 246.122 92.8386 246.39 92.1915C246.658 91.5444 247.112 90.9911 247.694 90.6011C248.275 90.2111 248.96 90.002 249.66 90C250.126 90 250.588 90.0918 251.019 90.2702C251.449 90.4486 251.841 90.7101 252.17 91.0398C252.5 91.3694 252.761 91.7608 252.94 92.1915C253.118 92.6222 253.21 93.0838 253.21 93.55L253.22 93.58Z" fill="#ABB5C1"/>
<path d="M263.14 93.58C263.134 94.2804 262.921 94.9634 262.528 95.543C262.135 96.1226 261.579 96.573 260.93 96.8373C260.282 97.1017 259.569 97.1684 258.883 97.0288C258.197 96.8893 257.567 96.5498 257.073 96.0532C256.579 95.5565 256.243 94.9249 256.107 94.2377C255.972 93.5506 256.042 92.8386 256.31 92.1915C256.578 91.5444 257.032 90.9911 257.614 90.6011C258.195 90.2111 258.88 90.002 259.58 90C260.522 90 261.425 90.374 262.09 91.0398C262.756 91.7055 263.13 92.6085 263.13 93.55L263.14 93.58Z" fill="#ABB5C1"/>
<path d="M290.74 93.58C290.734 94.2808 290.521 94.9642 290.127 95.544C289.734 96.1239 289.177 96.5742 288.528 96.8383C287.879 97.1024 287.166 97.1684 286.479 97.0281C285.793 96.8877 285.163 96.5473 284.669 96.0496C284.176 95.552 283.841 94.9194 283.706 94.2316C283.572 93.5438 283.644 92.8316 283.913 92.1846C284.183 91.5377 284.638 90.985 285.221 90.5963C285.804 90.2075 286.489 90 287.19 90C288.132 90 289.034 90.374 289.7 91.0398C290.366 91.7055 290.74 92.6085 290.74 93.55V93.58Z" fill="#ABB5C1"/>
<path d="M300.66 93.58C300.654 94.2808 300.441 94.9642 300.047 95.544C299.653 96.1239 299.097 96.5742 298.448 96.8383C297.799 97.1024 297.086 97.1684 296.399 97.0281C295.713 96.8877 295.083 96.5473 294.589 96.0496C294.096 95.552 293.761 94.9194 293.626 94.2316C293.492 93.5438 293.564 92.8316 293.833 92.1846C294.103 91.5377 294.558 90.985 295.141 90.5963C295.724 90.2075 296.409 90 297.11 90C298.051 90 298.954 90.374 299.62 91.0398C300.286 91.7055 300.66 92.6085 300.66 93.55V93.58Z" fill="#ABB5C1"/>
<path d="M310.59 93.58C310.584 94.2791 310.372 94.9609 309.98 95.5398C309.588 96.1188 309.034 96.5691 308.387 96.8344C307.74 97.0996 307.029 97.1679 306.344 97.0308C305.658 96.8937 305.028 96.5572 304.533 96.0635C304.038 95.5698 303.7 94.941 303.561 94.2558C303.422 93.5707 303.488 92.8597 303.752 92.2121C304.015 91.5645 304.464 91.0091 305.042 90.6156C305.62 90.222 306.301 90.0079 307 90C307.942 90 308.844 90.374 309.51 91.0398C310.176 91.7055 310.55 92.6085 310.55 93.55L310.59 93.58Z" fill="#ABB5C1"/>
<path d="M320.51 93.58C320.504 94.2825 320.29 94.9674 319.894 95.5481C319.499 96.1288 318.94 96.579 318.288 96.8419C317.637 97.1048 316.922 97.1684 316.234 97.0248C315.547 96.8812 314.917 96.5368 314.425 96.0351C313.933 95.5335 313.601 94.8972 313.471 94.2068C313.341 93.5164 313.419 92.8029 313.695 92.1567C313.971 91.5105 314.432 90.9607 315.02 90.5768C315.609 90.1928 316.298 89.9921 317 90C317.942 90 318.845 90.374 319.51 91.0398C320.176 91.7055 320.55 92.6085 320.55 93.55L320.51 93.58Z" fill="#ABB5C1"/>
<path d="M330.43 93.58C330.424 94.2804 330.211 94.9634 329.818 95.543C329.425 96.1226 328.869 96.573 328.22 96.8373C327.572 97.1017 326.859 97.1684 326.173 97.0288C325.486 96.8893 324.857 96.5498 324.363 96.0532C323.869 95.5565 323.533 94.9249 323.397 94.2377C323.262 93.5506 323.332 92.8386 323.6 92.1915C323.868 91.5444 324.322 90.9911 324.904 90.6011C325.485 90.2111 326.17 90.002 326.87 90C327.336 90 327.798 90.0918 328.228 90.2702C328.659 90.4486 329.051 90.7101 329.38 91.0398C329.71 91.3694 329.971 91.7608 330.15 92.1915C330.328 92.6222 330.42 93.0838 330.42 93.55L330.43 93.58Z" fill="#ABB5C1"/>
<path d="M340.35 93.58C340.344 94.2804 340.131 94.9634 339.738 95.543C339.345 96.1226 338.789 96.573 338.14 96.8373C337.492 97.1017 336.779 97.1684 336.093 97.0288C335.407 96.8893 334.777 96.5498 334.283 96.0532C333.789 95.5565 333.453 94.9249 333.317 94.2377C333.182 93.5506 333.252 92.8386 333.52 92.1915C333.788 91.5444 334.242 90.9911 334.824 90.6011C335.405 90.2111 336.09 90.002 336.79 90C337.732 90 338.634 90.374 339.3 91.0398C339.966 91.7055 340.34 92.6085 340.34 93.55L340.35 93.58Z" fill="#ABB5C1"/>
<path d="M350.27 93.58C350.264 94.2808 350.051 94.9642 349.657 95.544C349.264 96.1239 348.707 96.5742 348.058 96.8383C347.409 97.1024 346.696 97.1684 346.009 97.0281C345.323 96.8877 344.693 96.5473 344.199 96.0496C343.706 95.552 343.371 94.9194 343.236 94.2316C343.102 93.5438 343.174 92.8316 343.443 92.1846C343.713 91.5377 344.168 90.985 344.751 90.5963C345.334 90.2075 346.019 90 346.72 90C347.662 90 348.565 90.374 349.23 91.0398C349.896 91.7055 350.27 92.6085 350.27 93.55V93.58Z" fill="#ABB5C1"/>
<path d="M360.19 93.58C360.184 94.2808 359.971 94.9642 359.577 95.544C359.183 96.1239 358.627 96.5742 357.978 96.8383C357.329 97.1024 356.616 97.1684 355.929 97.0281C355.243 96.8877 354.613 96.5473 354.119 96.0496C353.626 95.552 353.291 94.9194 353.156 94.2316C353.022 93.5438 353.094 92.8316 353.363 92.1846C353.633 91.5377 354.088 90.985 354.671 90.5963C355.254 90.2075 355.939 90 356.64 90C357.581 90 358.484 90.374 359.15 91.0398C359.816 91.7055 360.19 92.6085 360.19 93.55V93.58Z" fill="#ABB5C1"/>
</svg>
