<svg viewBox="0 0 605.91 166.71" xmlns="http://www.w3.org/2000/svg"><rect fill="#2e343c" height="144.94" rx="11.06" stroke="#000" stroke-linecap="round" stroke-linejoin="round" stroke-width=".43" width="467.72" x="1.6" y="10.12"/><g fill="#fcfcfc" font-family="Roboto-Regular, Roboto" font-size="10"><text transform="translate(118.37 23.68)">HDMI</text><text transform="translate(127.46 75.4)">USB</text><text transform="translate(233.07 27.67)"><tspan letter-spacing=".01em">E</tspan><tspan x="5.78" y="0">THERN</tspan><tspan letter-spacing=".01em" x="37.85" y="0">E</tspan><tspan letter-spacing="-.02em" x="43.63" y="0">T</tspan></text><text transform="translate(359.46 89.91)">RS-232</text><text transform="translate(233.4 109.07)">RES<tspan letter-spacing="-.04em" x="17.77" y="0">T</tspan><tspan x="23.35" y="0">A</tspan><tspan letter-spacing="-.04em" x="29.88" y="0">R</tspan><tspan letter-spacing="-.02em" x="35.64" y="0">T</tspan></text><text transform="translate(286.63 108.41)">PWR</text><text transform="translate(421.35 111.65)">RES<tspan letter-spacing=".01em" x="17.77" y="0">E</tspan><tspan letter-spacing="-.02em" x="23.55" y="0">T</tspan></text></g><g stroke="#000" stroke-linecap="round" stroke-linejoin="round" stroke-width=".43"><path d="m40 91.43a9 9 0 1 1 -9-9 9 9 0 0 1 9 9z" fill="none"/><path d="m99.77 27.12h62.36v34.02h-62.36z" fill="none"/><path d="m236.93 31.55h41.67v46.2h-41.67z" fill="none"/><path d="m442.13 121a6.12 6.12 0 1 1 -6.12-6.12 6.12 6.12 0 0 1 6.12 6.12z" fill="#738498"/><path d="m303.42 117.38a6.12 6.12 0 1 1 -6.12-6.12 6.12 6.12 0 0 1 6.12 6.12z" fill="#738498"/><path d="m260.22 117.38a6.12 6.12 0 1 1 -6.12-6.12 6.12 6.12 0 0 1 6.12 6.12z" fill="#738498"/><g fill="none"><path d="m347.45 114.58a5.33 5.33 0 1 1 -5.33-5.33 5.32 5.32 0 0 1 5.33 5.33z"/><path d="m399.92 108c.38 3.62-3.56 15.08-3.56 15.08a2.57 2.57 0 0 1 -2.93 2.13h-35.16a3.29 3.29 0 0 1 -3.71-2.45s-4.09-10.68-3.85-14.25c.45-3.59 1.35-6.22 4.89-6.22h39.19a3.62 3.62 0 0 1 .65 0c3.1.06 4.21 3.61 4.48 5.71z"/><path d="m414.76 114.58a5.33 5.33 0 1 1 -5.34-5.33 5.33 5.33 0 0 1 5.34 5.33z"/><path d="m56.2 82.43h40.58v47.1h-40.58z"/><path d="m116.49 82.43h40.58v47.1h-40.58z"/></g><path d="m176.78 82.43h40.58v47.1h-40.58z" fill="#2e343c"/><g fill="#454f5b"><path d="m20 19.9a5 5 0 1 1 -5-5 5 5 0 0 1 5 5z"/><path d="m20 143.28a5 5 0 1 1 -5-5 5 5 0 0 1 5 5z"/><path d="m460.84 143.28a5 5 0 1 1 -5-5 5 5 0 0 1 5 5z"/><path d="m460.84 19.9a5 5 0 1 1 -5-5 5 5 0 0 1 5 5z"/></g></g><path d="m56.2 78.75h161.17" fill="none" stroke="#fcfcfc" stroke-miterlimit="10"/><path d="m180.13 122.67h34.71v-14.2h-35.55v14.2zm.84-12.47h32.23v10.8h-32.2z" fill="#454f5b" stroke="#000" stroke-miterlimit="10" stroke-width=".25"/><path d="m182.48 115.61v-3.82h29.26v3.82h-3.33v.75h-3.46v-.75h-3.24v.75h-3.46v-.75h-2.31v.75h-3.47v-.75h-3.24v.75h-3.46v-.75z" fill="#fcfcfc"/><path d="m180.13 103.64h34.71v-14.21h-35.55v14.2zm.87-12.48h32.2v10.84h-32.2z" fill="#454f5b" stroke="#000" stroke-miterlimit="10" stroke-width=".25"/><path d="m182.48 96.58v-3.82h29.26v3.82h-3.33v.75h-3.46v-.75h-3.24v.75h-3.46v-.75h-2.31v.75h-3.47v-.75h-3.24v.75h-3.46v-.75z" fill="#fcfcfc"/><path d="m119.85 122.67h34.71v-14.2h-35.56v14.2zm.84-12.47h32.23v10.8h-32.22z" fill="#454f5b" stroke="#000" stroke-miterlimit="10" stroke-width=".25"/><path d="m122.2 115.61v-3.82h29.26v3.82h-3.33v.75h-3.46v-.75h-3.24v.75h-3.47v-.75h-2.3v.75h-3.47v-.75h-3.24v.75h-3.46v-.75z" fill="#fcfcfc"/><path d="m119.85 103.64h34.71v-14.21h-35.56v14.2zm.84-12.47h32.23v10.83h-32.22z" fill="#454f5b" stroke="#000" stroke-miterlimit="10" stroke-width=".25"/><path d="m122.2 96.58v-3.82h29.26v3.82h-3.33v.75h-3.46v-.75h-3.24v.75h-3.47v-.75h-2.3v.75h-3.47v-.75h-3.24v.75h-3.46v-.75z" fill="#fcfcfc"/><path d="m59.56 122.67h34.71v-14.2h-35.55v14.2zm.84-12.47h32.23v10.8h-32.23z" fill="#454f5b" stroke="#000" stroke-miterlimit="10" stroke-width=".25"/><path d="m61.9 115.61v-3.82h29.27v3.82h-3.33v.75h-3.47v-.75h-3.24v.75h-3.46v-.75h-2.31v.75h-3.46v-.75h-3.24v.75h-3.46v-.75z" fill="#fcfcfc"/><path d="m59.56 103.64h34.71v-14.21h-35.55v14.2zm.84-12.47h32.23v10.83h-32.23z" fill="#454f5b" stroke="#000" stroke-miterlimit="10" stroke-width=".25"/><path d="m61.9 96.58v-3.82h29.27v3.82h-3.33v.75h-3.47v-.75h-3.24v.75h-3.46v-.75h-2.31v.75h-3.46v-.75h-3.24v.75h-3.46v-.75z" fill="#fcfcfc"/><g fill="#454f5b" stroke="#000" stroke-miterlimit="10" stroke-width=".25"><path d="m238.63 33.6v42.09h38.27v-42.09zm31 28.7h-4.63v2.7h-1.91v1.91h-10.68v-1.91h-2.3v-2.7h-4.21v-18h1.91v6.9h1.19v-6.88h1.53v6.88h1.15v-6.88h1.53v6.88h1.15v-6.88h1.53v6.88h1.11v-6.88h1.53v6.88h1.15v-6.88h1.53v6.88h1.15v-6.88h1.53v6.88h1.11v-6.88h1.53v6.88h1.15v-6.88h1.91z"/><path d="m358.62 108.66a1.7 1.7 0 1 0 0 3.4 1.68 1.68 0 0 0 1.69-1.69 1.7 1.7 0 0 0 -1.69-1.71zm4.68 6.87a1.71 1.71 0 0 0 -1.69 1.72 1.67 1.67 0 0 0 1.69 1.68 1.7 1.7 0 0 0 1.72-1.68 1.73 1.73 0 0 0 -1.72-1.72zm3.68-6.87a1.7 1.7 0 1 0 0 3.4 1.67 1.67 0 0 0 1.68-1.69 1.69 1.69 0 0 0 -1.66-1.71zm4.68 6.87a1.71 1.71 0 0 0 -1.69 1.72 1.67 1.67 0 0 0 1.69 1.68 1.69 1.69 0 0 0 1.71-1.68 1.72 1.72 0 0 0 -1.71-1.72zm3.67-6.87a1.7 1.7 0 1 0 0 3.4 1.68 1.68 0 0 0 1.69-1.69 1.7 1.7 0 0 0 -1.69-1.71zm4.68 6.87a1.71 1.71 0 0 0 -1.69 1.72 1.69 1.69 0 0 0 3.38 0 1.71 1.71 0 0 0 -1.7-1.72zm3.64-6.87a1.7 1.7 0 0 0 -1.69 1.71 1.68 1.68 0 0 0 1.69 1.69 1.7 1.7 0 1 0 0-3.4zm4.71 6.87a1.73 1.73 0 0 0 -1.72 1.72 1.7 1.7 0 0 0 1.72 1.68 1.67 1.67 0 0 0 1.69-1.68 1.71 1.71 0 0 0 -1.69-1.72zm3.65-7a1.71 1.71 0 0 0 -1.69 1.72 1.67 1.67 0 0 0 1.69 1.68 1.69 1.69 0 0 0 1.71-1.68 1.72 1.72 0 0 0 -1.72-1.71zm-33.39.12a1.7 1.7 0 1 0 0 3.4 1.68 1.68 0 0 0 1.69-1.69 1.7 1.7 0 0 0 -1.69-1.7zm4.68 6.87a1.71 1.71 0 0 0 -1.69 1.72 1.67 1.67 0 0 0 1.69 1.68 1.7 1.7 0 0 0 1.72-1.68 1.73 1.73 0 0 0 -1.72-1.71zm3.68-6.87a1.7 1.7 0 1 0 0 3.4 1.67 1.67 0 0 0 1.68-1.69 1.69 1.69 0 0 0 -1.66-1.7zm4.68 6.87a1.71 1.71 0 0 0 -1.69 1.72 1.67 1.67 0 0 0 1.69 1.68 1.69 1.69 0 0 0 1.71-1.68 1.72 1.72 0 0 0 -1.71-1.71zm3.67-6.87a1.7 1.7 0 1 0 0 3.4 1.68 1.68 0 0 0 1.69-1.69 1.7 1.7 0 0 0 -1.69-1.7zm4.68 6.87a1.71 1.71 0 0 0 -1.69 1.72 1.69 1.69 0 0 0 3.38 0 1.71 1.71 0 0 0 -1.7-1.71zm3.64-6.87a1.7 1.7 0 0 0 -1.69 1.71 1.68 1.68 0 0 0 1.69 1.69 1.7 1.7 0 1 0 0-3.4zm4.71 6.87a1.73 1.73 0 0 0 -1.72 1.72 1.7 1.7 0 0 0 1.72 1.68 1.67 1.67 0 0 0 1.69-1.68 1.71 1.71 0 0 0 -1.69-1.71zm3.65-7a1.71 1.71 0 0 0 -1.69 1.72 1.67 1.67 0 0 0 1.69 1.68 1.69 1.69 0 0 0 1.71-1.68 1.72 1.72 0 0 0 -1.72-1.7zm0 0a1.71 1.71 0 0 0 -1.69 1.72 1.67 1.67 0 0 0 1.69 1.68 1.69 1.69 0 0 0 1.71-1.68 1.72 1.72 0 0 0 -1.72-1.7zm-33.39.12a1.7 1.7 0 1 0 0 3.4 1.68 1.68 0 0 0 1.69-1.69 1.7 1.7 0 0 0 -1.69-1.69zm8.36 0a1.7 1.7 0 1 0 0 3.4 1.67 1.67 0 0 0 1.68-1.69 1.69 1.69 0 0 0 -1.66-1.69zm8.35 0a1.7 1.7 0 1 0 0 3.4 1.68 1.68 0 0 0 1.69-1.69 1.7 1.7 0 0 0 -1.69-1.69zm8.32 0a1.7 1.7 0 0 0 -1.69 1.71 1.68 1.68 0 0 0 1.69 1.69 1.7 1.7 0 1 0 0-3.4zm-20.35 6.87a1.71 1.71 0 0 0 -1.69 1.72 1.67 1.67 0 0 0 1.69 1.68 1.7 1.7 0 0 0 1.72-1.68 1.73 1.73 0 0 0 -1.72-1.7zm8.36 0a1.71 1.71 0 0 0 -1.69 1.72 1.67 1.67 0 0 0 1.69 1.68 1.69 1.69 0 0 0 1.71-1.68 1.72 1.72 0 0 0 -1.71-1.7zm8.35 0a1.71 1.71 0 0 0 -1.69 1.72 1.69 1.69 0 0 0 3.38 0 1.71 1.71 0 0 0 -1.7-1.7zm8.35 0a1.73 1.73 0 0 0 -1.72 1.72 1.7 1.7 0 0 0 1.72 1.68 1.67 1.67 0 0 0 1.69-1.68 1.71 1.71 0 0 0 -1.69-1.7z"/><path d="m419.34 96.12a5.41 5.41 0 0 0 -1.17-1.77 5.25 5.25 0 0 0 -1.77-1.17 5.15 5.15 0 0 0 -1.92-.36h-78.33a5.2 5.2 0 0 0 -1.93.36 5.31 5.31 0 0 0 -1.76 1.17 5.26 5.26 0 0 0 -1.17 1.77 5.11 5.11 0 0 0 -.36 1.92v31.78h88.77v-31.82a5.11 5.11 0 0 0 -.36-1.88zm-77.22 23.79a5.33 5.33 0 1 1 5.33-5.33 5.33 5.33 0 0 1 -5.33 5.33zm54.24 3.17a2.57 2.57 0 0 1 -2.93 2.13h-35.16a3.29 3.29 0 0 1 -3.71-2.45s-4.09-10.68-3.85-14.25c.45-3.59 1.35-6.22 4.89-6.22h39.19a3.62 3.62 0 0 1 .65 0c3.1.09 4.21 3.64 4.48 5.74.38 3.59-3.56 15.05-3.56 15.05zm13.06-3.17a5.33 5.33 0 1 1 5.34-5.33 5.33 5.33 0 0 1 -5.34 5.33z"/><path d="m119.26 43h.12v-.56h1.18v.56h1.18v-.56h1.18v.56h1.18v-.56h1.18v.56h1.18v-.56h1.18v.56h1.18v-.56h1.18v.56h1.18v-.56h1.18v.56h1.18v-.56h1.18v.56h1.28v-.56h1.18v.56h1.18v-.56h1.18v.56h1.18v-.56h1.18v.56h1.37v1.4h-.19v.6h-1.18v-.6h-1.2v.6h-1.18v-.6h-1.18v.6h-1.18v-.6h-1.16v.6h-1.18v-.6h-1.22v.6h-1.18v-.6h-1.18v.6h-1.24v-.6h-1.18v.6h-1.18v-.6h-1.18v.6h-1.18v-.6h-1.18v.6h-1.18v-.6h-1.18v.6h-1.18v-.6h-1.31zm-3.18-5.24h30.42a2.18 2.18 0 0 1 1.5.62 2.06 2.06 0 0 1 .62 1.5v5.36a2.18 2.18 0 0 1 -.62 1.5 2 2 0 0 1 -1.43.62 3.3 3.3 0 0 0 -2 1.75c-.56.81-1 1.5-2.06 1.5h-22.44c-1 0-1.62-.81-2.24-1.68-.5-.69-1.06-1.43-1.81-1.56a2 2 0 0 1 -1.43-.62 2.06 2.06 0 0 1 -.62-1.5v-5.34a2.18 2.18 0 0 1 .62-1.5 2.06 2.06 0 0 1 1.49-.62zm29.92 1.59h-29.42a1.15 1.15 0 0 0 -.75.31 1 1 0 0 0 -.31.75v4.36a1.15 1.15 0 0 0 .31.75 1 1 0 0 0 .75.31h.06a4 4 0 0 1 2.56 2c.44.62.87 1.18 1.37 1.18h21.43c.44 0 .75-.5 1.12-1a4.4 4.4 0 0 1 2.68-2.18h.12a1.15 1.15 0 0 0 .75-.31 1 1 0 0 0 .31-.75v-4.36a1.15 1.15 0 0 0 -.31-.75 1 1 0 0 0 -.75-.31z"/></g><rect height="12.73" rx="6" width="12.73" x="24.64" y="85.07"/><rect height="12.73" rx="6" width="12.73" x="24.64" y="20.76"/><path d="m24.64 27.49h12.73v64.31h-12.73z"/></svg>