<svg viewBox="0 0 605.91 166.71" xmlns="http://www.w3.org/2000/svg"><path d="m458.66 9.65a11.06 11.06 0 0 1 11.06 11.05v122.83a11.06 11.06 0 0 1 -11.06 11.06h-445.6a11.06 11.06 0 0 1 -11.06-11.06v-122.83a11.06 11.06 0 0 1 11.06-11.05h444.12" fill="#2e343c" stroke="#000" stroke-linecap="round" stroke-linejoin="round" stroke-width=".43"/><path d="m20.4 20.42a5 5 0 1 1 -5-5 5 5 0 0 1 5 5z" fill="#454f5b" stroke="#000" stroke-linecap="round" stroke-linejoin="round" stroke-width=".43"/><path d="m20.4 143.8a5 5 0 1 1 -5-5 5 5 0 0 1 5 5z" fill="#454f5b" stroke="#000" stroke-linecap="round" stroke-linejoin="round" stroke-width=".43"/><path d="m461.24 143.8a5 5 0 1 1 -5-5 5 5 0 0 1 5 5z" fill="#454f5b" stroke="#000" stroke-linecap="round" stroke-linejoin="round" stroke-width=".43"/><path d="m461.24 20.42a5 5 0 1 1 -5-5 5 5 0 0 1 5 5z" fill="#454f5b" stroke="#000" stroke-linecap="round" stroke-linejoin="round" stroke-width=".43"/><text fill="#fcfcfc" font-family="RobotoMono-Bold, Roboto Mono" font-size="12" font-weight="700" letter-spacing=".22em" transform="translate(187.85 94.88)">12345678-</text><text fill="#fcfcfc" font-family="RobotoMono-Bold, Roboto Mono" font-size="12" font-weight="700" letter-spacing=".22em" transform="translate(284.91 94.88)">12345678-</text><text fill="#fcfcfc" font-family="RobotoMono-Bold, Roboto Mono" font-size="12" font-weight="700" letter-spacing=".23em" transform="translate(80.3 94.88)">E-12345678</text><text fill="#fcfcfc" font-family="RobotoMono-Bold, Roboto Mono" font-size="12" font-weight="700" letter-spacing=".23em" transform="translate(43.15 94.88)">+E-</text><text fill="#fcfcfc" font-family="Roboto-Bold, Roboto" font-size="10" font-weight="700" transform="translate(201.61 79.3)">DIG<tspan letter-spacing="-.01em" x="16.23" y="0">I</tspan><tspan letter-spacing="-.06em" x="19" y="0">T</tspan><tspan x="24.6" y="0">AL IN A</tspan></text><text fill="#fcfcfc" font-family="Roboto-Bold, Roboto" font-size="10" font-weight="700" transform="translate(99.46 79.3)">DIG<tspan letter-spacing="-.01em" x="16.23" y="0">I</tspan><tspan letter-spacing="-.06em" x="19" y="0">T</tspan><tspan x="24.6" y="0">AL OU</tspan><tspan letter-spacing="-.03em" x="52.72" y="0">T</tspan></text><text fill="#fcfcfc" font-family="Roboto-Bold, Roboto" font-size="10" font-weight="700" transform="translate(39.24 79.3)">POWER</text><text fill="#fcfcfc" font-family="Roboto-Bold, Roboto" font-size="10" font-weight="700" transform="translate(298.83 79.3)">DIG<tspan letter-spacing="-.01em" x="16.23" y="0">I</tspan><tspan letter-spacing="-.06em" x="19" y="0">T</tspan><tspan x="24.6" y="0">AL IN B</tspan></text><text fill="#fcfcfc" font-family="Roboto-Bold, Roboto" font-size="10" font-weight="700" transform="translate(379.26 79.11)">A<tspan letter-spacing=".01em" x="6.73" y="0">N</tspan><tspan x="13.88" y="0">A</tspan><tspan letter-spacing="-.03em" x="20.61" y="0">L</tspan><tspan x="25.71" y="0">OG IN</tspan></text><path d="m38.7 82.11h35.18" fill="none" stroke="#fcfcfc" stroke-miterlimit="10"/><path d="m76.41 82.11h104.71" fill="none" stroke="#fcfcfc" stroke-miterlimit="10"/><path d="m183.47 82.11h94.7" fill="none" stroke="#fcfcfc" stroke-miterlimit="10"/><path d="m280.52 82.11h94.7" fill="none" stroke="#fcfcfc" stroke-miterlimit="10"/><path d="m377.68 82.11h55.03" fill="none" stroke="#fcfcfc" stroke-miterlimit="10"/><circle cx="67.19" cy="91.1" fill="none" r="4.83" stroke="#fcfcfc" stroke-linecap="round" stroke-linejoin="round" stroke-width=".5"/><circle cx="94.31" cy="91.1" fill="none" r="4.83" stroke="#fcfcfc" stroke-linecap="round" stroke-linejoin="round" stroke-width=".5"/><circle cx="270.86" cy="91.1" fill="none" r="4.83" stroke="#fcfcfc" stroke-linecap="round" stroke-linejoin="round" stroke-width=".5"/><circle cx="367.86" cy="91.1" fill="none" r="4.83" stroke="#fcfcfc" stroke-linecap="round" stroke-linejoin="round" stroke-width=".5"/><circle cx="425.01" cy="91.1" fill="none" r="4.83" stroke="#fcfcfc" stroke-linecap="round" stroke-linejoin="round" stroke-width=".5"/><circle cx="46.8" cy="91.1" fill="none" r="4.83" stroke="#fcfcfc" stroke-linecap="round" stroke-linejoin="round" stroke-width=".5"/><circle cx="489.82" cy="50.61" fill="#fcfcfc" r="9.15"/><path d="m489.82 60.24a9.63 9.63 0 1 1 9.63-9.63 9.64 9.64 0 0 1 -9.63 9.63zm0-18.3a8.68 8.68 0 1 0 8.68 8.68 8.69 8.69 0 0 0 -8.68-8.69z"/><path d="m377.69 109.06h55.01v21.28h-55.01z" fill="#57bd82" stroke="#000" stroke-linecap="round" stroke-linejoin="round" stroke-width=".43"/><path d="m280.52 109.06h94.7v21.28h-94.7z" fill="#57bd82" stroke="#000" stroke-linecap="round" stroke-linejoin="round" stroke-width=".43"/><path d="m183.47 109.06h94.7v21.28h-94.7z" fill="#57bd82" stroke="#000" stroke-linecap="round" stroke-linejoin="round" stroke-width=".43"/><path d="m76.41 109.06h104.62v21.28h-104.62z" fill="#57bd82" stroke="#000" stroke-linecap="round" stroke-linejoin="round" stroke-width=".43"/><path d="m38.7 109.06h35.17v21.28h-35.17z" fill="#57bd82" stroke="#000" stroke-linecap="round" stroke-linejoin="round" stroke-width=".43"/><text fill="#fcfcfc" font-family="RobotoMono-Bold, Roboto Mono" font-size="12" font-weight="700" letter-spacing=".21em" transform="translate(382.16 94.88)">1234-</text><g fill="#418e62"><path d="m89.29 114.56h8.5v13.3h-8.5z"/><path d="m89.29 111.67h8.5v1.71h-8.5z"/><path d="m91.83 113.3h3.41v1.27h-3.41z"/><path d="m79.31 114.56h8.5v13.3h-8.5z"/><path d="m79.31 111.67h8.5v1.71h-8.5z"/><path d="m81.85 113.3h3.41v1.27h-3.41z"/><path d="m42.12 114.56h8.5v13.3h-8.5z"/><path d="m42.12 111.67h8.5v1.71h-8.5z"/><path d="m44.66 113.3h3.41v1.27h-3.41z"/><path d="m52.04 114.56h8.5v13.3h-8.5z"/><path d="m52.04 111.67h8.5v1.71h-8.5z"/><path d="m54.59 113.3h3.41v1.27h-3.41z"/><path d="m61.96 114.56h8.5v13.3h-8.5z"/><path d="m61.96 111.67h8.5v1.71h-8.5z"/><path d="m64.51 113.3h3.41v1.27h-3.41z"/><path d="m99.27 114.56h8.5v13.3h-8.5z"/><path d="m99.27 111.67h8.5v1.71h-8.5z"/><path d="m101.81 113.3h3.41v1.27h-3.41z"/><path d="m109.25 114.56h8.5v13.3h-8.5z"/><path d="m109.25 111.67h8.5v1.71h-8.5z"/><path d="m111.79 113.3h3.41v1.27h-3.41z"/><path d="m119.23 114.56h8.5v13.3h-8.5z"/><path d="m119.23 111.67h8.5v1.71h-8.5z"/><path d="m121.77 113.3h3.41v1.27h-3.41z"/><path d="m129.21 114.56h8.5v13.3h-8.5z"/><path d="m129.21 111.67h8.5v1.71h-8.5z"/><path d="m131.75 113.3h3.41v1.27h-3.41z"/><path d="m139.18 114.56h8.5v13.3h-8.5z"/><path d="m139.18 111.67h8.5v1.71h-8.5z"/><path d="m141.73 113.3h3.41v1.27h-3.41z"/><path d="m149.16 114.56h8.5v13.3h-8.5z"/><path d="m149.16 111.67h8.5v1.71h-8.5z"/><path d="m151.71 113.3h3.41v1.27h-3.41z"/><path d="m159.14 114.56h8.5v13.3h-8.5z"/><path d="m159.14 111.67h8.5v1.71h-8.5z"/><path d="m161.69 113.3h3.41v1.27h-3.41z"/><path d="m169.12 114.56h8.5v13.3h-8.5z"/><path d="m169.12 111.67h8.5v1.71h-8.5z"/><path d="m171.67 113.3h3.41v1.27h-3.41z"/><path d="m186.88 114.56h8.5v13.3h-8.5z"/><path d="m186.88 111.67h8.5v1.71h-8.5z"/><path d="m189.43 113.3h3.41v1.27h-3.41z"/><path d="m196.81 114.56h8.5v13.3h-8.5z"/><path d="m196.81 111.67h8.5v1.71h-8.5z"/><path d="m199.35 113.3h3.41v1.27h-3.41z"/><path d="m206.73 114.56h8.5v13.3h-8.5z"/><path d="m206.73 111.67h8.5v1.71h-8.5z"/><path d="m209.27 113.3h3.41v1.27h-3.41z"/><path d="m216.65 114.56h8.5v13.3h-8.5z"/><path d="m216.65 111.67h8.5v1.71h-8.5z"/><path d="m219.19 113.3h3.41v1.27h-3.41z"/><path d="m226.57 114.56h8.5v13.3h-8.5z"/><path d="m226.57 111.67h8.5v1.71h-8.5z"/><path d="m229.11 113.3h3.41v1.27h-3.41z"/><path d="m236.49 114.56h8.5v13.3h-8.5z"/><path d="m236.49 111.67h8.5v1.71h-8.5z"/><path d="m239.04 113.3h3.41v1.27h-3.41z"/><path d="m246.41 114.56h8.5v13.3h-8.5z"/><path d="m246.41 111.67h8.5v1.71h-8.5z"/><path d="m248.96 113.3h3.41v1.27h-3.41z"/><path d="m256.33 114.56h8.5v13.3h-8.5z"/><path d="m256.33 111.67h8.5v1.71h-8.5z"/><path d="m258.88 113.3h3.41v1.27h-3.41z"/><path d="m266.25 114.56h8.5v13.3h-8.5z"/><path d="m266.25 111.67h8.5v1.71h-8.5z"/><path d="m268.8 113.3h3.41v1.27h-3.41z"/><path d="m283.94 114.56h8.5v13.3h-8.5z"/><path d="m283.94 111.67h8.5v1.71h-8.5z"/><path d="m286.48 113.3h3.41v1.27h-3.41z"/><path d="m293.86 114.56h8.5v13.3h-8.5z"/><path d="m293.86 111.67h8.5v1.71h-8.5z"/><path d="m296.41 113.3h3.41v1.27h-3.41z"/><path d="m303.78 114.56h8.5v13.3h-8.5z"/><path d="m303.78 111.67h8.5v1.71h-8.5z"/><path d="m306.33 113.3h3.41v1.27h-3.41z"/><path d="m313.7 114.56h8.5v13.3h-8.5z"/><path d="m313.7 111.67h8.5v1.71h-8.5z"/><path d="m316.25 113.3h3.41v1.27h-3.41z"/><path d="m323.62 114.56h8.5v13.3h-8.5z"/><path d="m323.62 111.67h8.5v1.71h-8.5z"/><path d="m326.17 113.3h3.41v1.27h-3.41z"/><path d="m333.55 114.56h8.5v13.3h-8.5z"/><path d="m333.55 111.67h8.5v1.71h-8.5z"/><path d="m336.09 113.3h3.41v1.27h-3.41z"/><path d="m343.47 114.56h8.5v13.3h-8.5z"/><path d="m343.47 111.67h8.5v1.71h-8.5z"/><path d="m346.01 113.3h3.41v1.27h-3.41z"/><path d="m353.39 114.56h8.5v13.3h-8.5z"/><path d="m353.39 111.67h8.5v1.71h-8.5z"/><path d="m355.93 113.3h3.41v1.27h-3.41z"/><path d="m363.31 114.56h8.5v13.3h-8.5z"/><path d="m363.31 111.67h8.5v1.71h-8.5z"/><path d="m365.85 113.3h3.41v1.27h-3.41z"/><path d="m381.11 114.56h8.5v13.3h-8.5z"/><path d="m381.11 111.67h8.5v1.71h-8.5z"/><path d="m383.66 113.3h3.41v1.27h-3.41z"/><path d="m391.03 114.56h8.5v13.3h-8.5z"/><path d="m391.03 111.67h8.5v1.71h-8.5z"/><path d="m393.58 113.3h3.41v1.27h-3.41z"/><path d="m400.95 114.56h8.5v13.3h-8.5z"/><path d="m400.95 111.67h8.5v1.71h-8.5z"/><path d="m403.5 113.3h3.41v1.27h-3.41z"/><path d="m410.88 114.56h8.5v13.3h-8.5z"/><path d="m410.88 111.67h8.5v1.71h-8.5z"/><path d="m413.42 113.3h3.41v1.27h-3.41z"/><path d="m420.8 114.56h8.5v13.3h-8.5z"/><path d="m420.8 111.67h8.5v1.71h-8.5z"/><path d="m423.34 113.3h3.41v1.27h-3.41z"/></g><path d="m49.92 102.58a3.55 3.55 0 1 1 -3.55-3.58 3.55 3.55 0 0 1 3.55 3.55z" fill="#59ff8d"/><path d="m59.85 102.58a3.55 3.55 0 1 1 -3.56-3.58 3.55 3.55 0 0 1 3.55 3.55z" fill="#59ff8d"/><g fill="#abb5c1"><path d="m107.48 102.58a3.55 3.55 0 1 1 -3.56-3.58 3.55 3.55 0 0 1 3.55 3.55z"/><path d="m117.4 102.58a3.55 3.55 0 1 1 -3.56-3.58 3.55 3.55 0 0 1 3.55 3.55z"/><path d="m127.32 102.58a3.55 3.55 0 1 1 -3.56-3.58 3.55 3.55 0 0 1 3.55 3.55z"/><path d="m137.24 102.58a3.55 3.55 0 1 1 -3.56-3.58 3.55 3.55 0 0 1 3.55 3.55z"/><path d="m147.16 102.58a3.55 3.55 0 1 1 -3.55-3.58 3.55 3.55 0 0 1 3.55 3.55z"/><path d="m157.08 102.58a3.55 3.55 0 1 1 -3.55-3.58 3.55 3.55 0 0 1 3.55 3.55z"/><path d="m167 102.58a3.55 3.55 0 1 1 -3.55-3.58 3.55 3.55 0 0 1 3.55 3.55z"/><path d="m176.92 102.58a3.55 3.55 0 1 1 -3.55-3.58 3.55 3.55 0 0 1 3.55 3.55z"/><path d="m194.69 102.58a3.55 3.55 0 1 1 -3.56-3.58 3.55 3.55 0 0 1 3.55 3.55z"/><path d="m204.61 102.58a3.55 3.55 0 1 1 -3.56-3.58 3.55 3.55 0 0 1 3.55 3.55z"/><path d="m214.53 102.58a3.55 3.55 0 1 1 -3.53-3.58 3.55 3.55 0 0 1 3.55 3.55z"/><path d="m224.45 102.58a3.55 3.55 0 1 1 -3.55-3.58 3.55 3.55 0 0 1 3.55 3.55z"/><path d="m234.37 102.58a3.55 3.55 0 1 1 -3.55-3.58 3.55 3.55 0 0 1 3.55 3.55z"/><path d="m244.29 102.58a3.55 3.55 0 1 1 -3.55-3.58 3.55 3.55 0 0 1 3.55 3.55z"/><path d="m254.22 102.58a3.55 3.55 0 1 1 -3.56-3.58 3.55 3.55 0 0 1 3.55 3.55z"/><path d="m264.14 102.58a3.55 3.55 0 1 1 -3.56-3.58 3.55 3.55 0 0 1 3.55 3.55z"/><path d="m291.74 102.58a3.55 3.55 0 1 1 -3.55-3.58 3.55 3.55 0 0 1 3.55 3.55z"/><path d="m301.66 102.58a3.55 3.55 0 1 1 -3.55-3.58 3.55 3.55 0 0 1 3.55 3.55z"/><path d="m311.59 102.58a3.55 3.55 0 1 1 -3.59-3.58 3.55 3.55 0 0 1 3.55 3.55z"/><path d="m321.51 102.58a3.55 3.55 0 1 1 -3.51-3.58 3.55 3.55 0 0 1 3.55 3.55z"/><path d="m331.43 102.58a3.55 3.55 0 1 1 -3.56-3.58 3.55 3.55 0 0 1 3.55 3.55z"/><path d="m341.35 102.58a3.55 3.55 0 1 1 -3.56-3.58 3.55 3.55 0 0 1 3.55 3.55z"/><path d="m351.27 102.58a3.55 3.55 0 1 1 -3.55-3.58 3.55 3.55 0 0 1 3.55 3.55z"/><path d="m361.19 102.58a3.55 3.55 0 1 1 -3.55-3.58 3.55 3.55 0 0 1 3.55 3.55z"/></g><path d="m491.3 49.1h4.07v2.82h-4.07v4.58h-2.94v-4.58h-4.08v-2.82h4.08v-4.38h2.94z"/><path d="m494.3 86.76h-6.64v4.57h7.77v2.52h-10.9v-16.18h10.87v2.54h-7.73v4.08h6.64z"/><circle cx="489.72" cy="119.62" fill="#fcfcfc" r="9.15"/><path d="m489.72 129.24a9.63 9.63 0 1 1 9.63-9.63 9.64 9.64 0 0 1 -9.63 9.63zm0-18.3a8.68 8.68 0 1 0 8.68 8.68 8.69 8.69 0 0 0 -8.68-8.68z"/><path d="m494.35 120.86h-9.26v-2.5h9.26z"/><text font-family="Roboto-Regular, Roboto" font-size="12" transform="translate(506.86 53.94)">24 <tspan letter-spacing="-.02em" x="16.45" y="0">V</tspan><tspan x="23.81" y="0">olt </tspan><tspan letter-spacing="-.01em" x="40.46" y="0">P</tspan><tspan x="47.95" y="0">ower</tspan></text><text font-family="Roboto-Regular, Roboto" font-size="12" transform="translate(506.86 89.67)">Ea<tspan letter-spacing=".02em" x="13.35" y="0">r</tspan><tspan x="17.7" y="0">th</tspan></text><text font-family="Roboto-Regular, Roboto" font-size="12" transform="translate(506.86 123.59)">G<tspan letter-spacing="-.01em" x="8.17" y="0">r</tspan><tspan x="12.12" y="0">ound</tspan></text></svg>