<svg xmlns="http://www.w3.org/2000/svg" xmlns:xlink="http://www.w3.org/1999/xlink" width="386" height="398" viewBox="0 0 386 398">
  <defs>
    <path id="a" d="M203,0 L228,0 C229.104569,-2.02906125e-16 230,0.8954305 230,2 L230,54 C230,55.1045695 229.104569,56 228,56 L203,56 C201.895431,56 201,55.1045695 201,54 L201,2 C201,0.8954305 201.895431,2.02906125e-16 203,0 Z"/>
    <rect id="b" width="9" height="56" x="169" rx="2"/>
    <rect id="c" width="9" height="56" x="182" rx="2"/>
    <rect id="d" width="9" height="56" x="208" rx="2"/>
    <rect id="e" width="9" height="56" x="195" rx="2"/>
    <rect id="f" width="9" height="56" x="221" rx="2"/>
  </defs>
  <g fill="none" fill-rule="evenodd">
    <rect width="385" height="398" fill="#FCFCFC"/>
    <text fill="#2B2D31" font-family="SpaceMono-Bold, Space Mono" font-size="20" font-weight="bold" letter-spacing="3">
      <tspan x="19" y="32">COLOR</tspan>
    </text>
    <text fill="#76797D" font-family="Karla-Regular, Karla" font-size="14">
      <tspan x="56.302" y="350">#C81535</tspan>
    </text>
    <text fill="#76797D" font-family="Karla-Regular, Karla" font-size="14">
      <tspan x="55.084" y="288">#FFD700</tspan>
    </text>
    <g transform="translate(62 131)">
      <text fill="#76797D" font-family="Karla-Regular, Karla" font-size="14">
        <tspan x=".112" y="33">BLACKS</tspan>
      </text>
      <g transform="translate(60)">
        <rect width="25" height="56" fill="#1A1B1D" rx="2"/>
        <path fill="#25272C" d="M31,0 L52,0 C53.1045695,-2.02906125e-16 54,0.8954305 54,2 L54,54 C54,55.1045695 53.1045695,56 52,56 L31,56 C29.8954305,56 29,55.1045695 29,54 L29,2 C29,0.8954305 29.8954305,2.02906125e-16 31,0 Z"/>
        <path fill="#353A42" d="M90,0 L111,0 C112.104569,-2.02906125e-16 113,0.8954305 113,2 L113,54 C113,55.1045695 112.104569,56 111,56 L90,56 C88.8954305,56 88,55.1045695 88,54 L88,2 C88,0.8954305 88.8954305,2.02906125e-16 90,0 Z"/>
        <path fill="#5D636B" d="M177.5,0 L198.5,0 C199.604569,-2.02906125e-16 200.5,0.8954305 200.5,2 L200.5,54 C200.5,55.1045695 199.604569,56 198.5,56 L177.5,56 C176.395431,56 175.5,55.1045695 175.5,54 L175.5,2 C175.5,0.8954305 176.395431,2.02906125e-16 177.5,0 Z"/>
        <path fill="#30343B" d="M61,0 L82,0 C83.1045695,-2.02906125e-16 84,0.8954305 84,2 L84,54 C84,55.1045695 83.1045695,56 82,56 L61,56 C59.8954305,56 59,55.1045695 59,54 L59,2 C59,0.8954305 59.8954305,2.02906125e-16 61,0 Z"/>
        <path fill="#515760" d="M148,0 L169,0 C170.104569,-2.02906125e-16 171,0.8954305 171,2 L171,54 C171,55.1045695 170.104569,56 169,56 L148,56 C146.895431,56 146,55.1045695 146,54 L146,2 C146,0.8954305 146.895431,2.02906125e-16 148,0 Z"/>
        <path fill="#434952" d="M119,0 L140,0 C141.104569,-2.02906125e-16 142,0.8954305 142,2 L142,54 C142,55.1045695 141.104569,56 140,56 L119,56 C117.895431,56 117,55.1045695 117,54 L117,2 C117,0.8954305 117.895431,2.02906125e-16 119,0 Z"/>
        <path fill="#696F78" d="M207,0 L228,0 C229.104569,-2.02906125e-16 230,0.8954305 230,2 L230,54 C230,55.1045695 229.104569,56 228,56 L207,56 C205.895431,56 205,55.1045695 205,54 L205,2 C205,0.8954305 205.895431,2.02906125e-16 207,0 Z"/>
      </g>
    </g>
    <g transform="translate(70 193)">
      <text fill="#76797D" font-family="Karla-Regular, Karla" font-size="14">
        <tspan x=".246" y="33">BLUES</tspan>
      </text>
      <g transform="translate(52)">
        <rect width="29" height="56" fill="#112A51" rx="2"/>
        <path fill="#234885" d="M35.5,0 L60.5,0 C61.6045695,-2.02906125e-16 62.5,0.8954305 62.5,2 L62.5,54 C62.5,55.1045695 61.6045695,56 60.5,56 L35.5,56 C34.3954305,56 33.5,55.1045695 33.5,54 L33.5,2 C33.5,0.8954305 34.3954305,2.02906125e-16 35.5,0 Z"/>
        <path fill="#457CD5" d="M102.5,0 L127.5,0 C128.604569,-2.02906125e-16 129.5,0.8954305 129.5,2 L129.5,54 C129.5,55.1045695 128.604569,56 127.5,56 L102.5,56 C101.395431,56 100.5,55.1045695 100.5,54 L100.5,2 C100.5,0.8954305 101.395431,2.02906125e-16 102.5,0 Z"/>
        <use fill="#DAE8FF" xlink:href="#a"/>
        <path stroke="#212121" d="M203,0.5 C202.171573,0.5 201.5,1.17157288 201.5,2 L201.5,54 C201.5,54.8284271 202.171573,55.5 203,55.5 L228,55.5 C228.828427,55.5 229.5,54.8284271 229.5,54 L229.5,2 C229.5,1.17157288 228.828427,0.5 228,0.5 L203,0.5 Z"/>
        <path fill="#3766B2" d="M69,0 L94,0 C95.1045695,-2.02906125e-16 96,0.8954305 96,2 L96,54 C96,55.1045695 95.1045695,56 94,56 L69,56 C67.8954305,56 67,55.1045695 67,54 L67,2 C67,0.8954305 67.8954305,2.02906125e-16 69,0 Z"/>
        <path fill="#519FFF" d="M169.5,0 L194.5,0 C195.604569,-2.02906125e-16 196.5,0.8954305 196.5,2 L196.5,54 C196.5,55.1045695 195.604569,56 194.5,56 L169.5,56 C168.395431,56 167.5,55.1045695 167.5,54 L167.5,2 C167.5,0.8954305 168.395431,2.02906125e-16 169.5,0 Z"/>
        <path fill="#3A89EB" d="M136,0 L161,0 C162.104569,-2.02906125e-16 163,0.8954305 163,2 L163,54 C163,55.1045695 162.104569,56 161,56 L136,56 C134.895431,56 134,55.1045695 134,54 L134,2 C134,0.8954305 134.895431,2.02906125e-16 136,0 Z"/>
      </g>
    </g>
    <g transform="translate(45 69)">
      <text fill="#76797D" font-family="Karla-Regular, Karla" font-size="14">
        <tspan x=".718" y="33">NEUTRALS</tspan>
      </text>
      <g transform="translate(77)">
        <rect width="9" height="56" fill="#121C2E" rx="2"/>
        <rect width="9" height="56" x="13" fill="#182339" rx="2"/>
        <rect width="9" height="56" x="104" fill="#949AA5" rx="2"/>
        <rect width="9" height="56" x="39" fill="#2B3950" rx="2"/>
        <rect width="9" height="56" x="130" fill="#ACB1B9" rx="2"/>
        <rect width="9" height="56" x="78" fill="#788293" rx="2"/>
        <use fill="#DFE1E5" xlink:href="#b"/>
        <rect width="8" height="55" x="169.5" y=".5" stroke="#212121" rx="2"/>
        <rect width="9" height="56" x="26" fill="#212E44" rx="2"/>
        <rect width="9" height="56" x="117" fill="#A0A6AF" rx="2"/>
        <rect width="9" height="56" x="65" fill="#6B7689" rx="2"/>
        <rect width="9" height="56" x="156" fill="#CED2D8" rx="2"/>
        <rect width="9" height="56" x="52" fill="#47556C" rx="2"/>
        <rect width="9" height="56" x="143" fill="#B9BEC5" rx="2"/>
        <rect width="9" height="56" x="91" fill="#878F9E" rx="2"/>
        <use fill="#EBECF0" xlink:href="#c"/>
        <rect width="8" height="55" x="182.5" y=".5" stroke="#212121" rx="2"/>
        <use fill="#FAFBFC" xlink:href="#d"/>
        <rect width="8" height="55" x="208.5" y=".5" stroke="#212121" rx="2"/>
        <g>
          <use fill="#F4F5F7" xlink:href="#e"/>
          <rect width="8" height="55" x="195.5" y=".5" stroke="#212121" rx="2"/>
        </g>
        <g>
          <use fill="#FFFFFF" xlink:href="#f"/>
          <rect width="8" height="55" x="221.5" y=".5" stroke="#212121" rx="2"/>
        </g>
      </g>
    </g>
    <rect width="230" height="56" x="122" y="255" fill="#FFD700" rx="2"/>
    <rect width="230" height="56" x="122" y="317" fill="#C81535" rx="2"/>
    <path stroke="#2B2D31" stroke-linecap="square" stroke-linejoin="round" stroke-width="2" d="M22.5,46.5 L384.965171,46.5"/>
  </g>
</svg>
