<?xml version="1.0" encoding="UTF-8"?>
<svg width="471px" height="176px" viewBox="0 0 471 176" version="1.1" xmlns="http://www.w3.org/2000/svg" xmlns:xlink="http://www.w3.org/1999/xlink">
    <!-- Generator: Sketch 48.2 (47327) - http://www.bohemiancoding.com/sketch -->
    <title>din-header</title>
    <desc>Created with Sketch.</desc>
    <defs></defs>
    <g id="tulip" stroke="none" stroke-width="1" fill="none" fill-rule="evenodd" transform="translate(-185.000000, -488.000000)">
        <g id="din-header" transform="translate(185.000000, 488.000000)">
            <rect id="Rectangle-6" fill="#2B2D31" x="0" y="0" width="471" height="176"></rect>
            <path d="M21,44.12 L21,48 L13.16,48 L13.16,72.6 L8.84,72.6 L8.84,48 L1,48 L1,44.12 L21,44.12 Z M29.52,44.12 L29.52,54.36 C30.88,52.84 32.76,52.08 34.84,52.08 C36.92,52.08 38.64,52.76 39.84,53.92 C41.4,55.44 41.88,57.36 41.88,59.64 L41.88,72.6 L37.8,72.6 L37.8,60.24 C37.8,57.08 36,55.72 33.72,55.72 C31.44,55.72 29.52,57.12 29.52,60.24 L29.52,72.6 L25.44,72.6 L25.44,44.12 L29.52,44.12 Z M64.32,63.64 L51.16,63.64 C51.16,67.16 52.96,69.32 56.32,69.32 C58.6,69.32 59.8,68.68 61.24,67.24 L63.84,69.68 C61.76,71.76 59.8,72.84 56.24,72.84 C51.16,72.84 47.12,70.16 47.12,62.44 C47.12,55.84 50.52,52.08 55.72,52.08 C61.16,52.08 64.32,56 64.32,61.92 L64.32,63.64 Z M60.28,60.8 C60.2,59.56 60.12,58.92 59.72,58.04 C59.04,56.52 57.64,55.48 55.72,55.48 C53.76,55.48 52.36,56.52 51.68,58.04 C51.28,58.92 51.2,59.56 51.16,60.8 L60.28,60.8 Z M95,44.12 L95,72.6 L91,72.6 L91,70.44 C89.48,72.28 87.8,72.84 85.64,72.84 C83.56,72.84 81.8,72.16 80.68,71.04 C78.72,69.04 78.4,65.8 78.4,62.48 C78.4,59.16 78.72,55.88 80.68,53.88 C81.8,52.76 83.52,52.08 85.6,52.08 C87.76,52.08 89.44,52.6 90.92,54.4 L90.92,44.12 L95,44.12 Z M86.68,55.72 C83,55.72 82.48,58.88 82.48,62.48 C82.48,66.08 83,69.2 86.68,69.2 C90.4,69.2 90.92,66.08 90.92,62.48 C90.92,58.88 90.4,55.72 86.68,55.72 Z M105.56,52.32 L105.56,72.6 L101.48,72.6 L101.48,52.32 L105.56,52.32 Z M105.68,44 L105.68,48.32 L101.36,48.32 L101.36,44 L105.68,44 Z M118.24,52.08 C120.4,52.08 122.04,52.64 123.56,54.48 L123.56,52.32 L127.52,52.32 L127.52,72.48 C127.52,77.44 124.24,81.04 118.84,81.04 C115.76,81.04 113.8,80.32 111.68,78.36 L114.28,75.76 C115.56,76.96 116.68,77.56 118.68,77.56 C122.12,77.56 123.44,75.12 123.44,72.4 L123.44,69.8 C121.96,71.56 120.28,72.12 118.2,72.12 C116.16,72.12 114.48,71.44 113.36,70.32 C111.4,68.36 111.08,65.52 111.08,62.08 C111.08,58.64 111.4,55.8 113.36,53.84 C114.48,52.72 116.2,52.08 118.24,52.08 Z M119.32,55.72 C115.64,55.72 115.16,58.88 115.16,62.08 C115.16,65.28 115.64,68.44 119.32,68.44 C123,68.44 123.44,65.28 123.44,62.08 C123.44,58.88 123,55.72 119.32,55.72 Z M138.08,52.32 L138.08,72.6 L134,72.6 L134,52.32 L138.08,52.32 Z M138.2,44 L138.2,48.32 L133.88,48.32 L133.88,44 L138.2,44 Z M149.12,46.52 L149.12,52.32 L153.04,52.32 L153.04,55.44 L149.12,55.44 L149.12,66.76 C149.12,68.28 149.84,69.12 151.36,69.12 L153.04,69.12 L153.04,72.6 L150.6,72.6 C146.8,72.6 145.04,69.92 145.04,66.96 L145.04,55.44 L142.72,55.44 L142.72,52.32 L145.04,52.32 L145.04,46.52 L149.12,46.52 Z M164.6,52.08 C170.2,52.08 172.96,54.48 172.96,59.04 L172.96,72.6 L168.96,72.6 L168.96,70.76 C167.48,72.24 166.08,72.84 163.56,72.84 C161.04,72.84 159.36,72.24 158.12,71 C157.08,69.92 156.52,68.36 156.52,66.64 C156.52,63.24 158.88,60.8 163.56,60.8 L168.88,60.8 L168.88,59.36 C168.88,56.76 167.64,55.56 164.44,55.56 C162.28,55.56 161.16,56.12 160,57.56 L157.36,55.04 C159.24,52.8 161.2,52.08 164.6,52.08 Z M168.88,63.64 L164.2,63.64 C161.72,63.64 160.48,64.68 160.48,66.56 C160.48,68.44 161.64,69.44 164.32,69.44 C165.76,69.44 166.92,69.28 168,68.28 C168.64,67.68 168.88,66.72 168.88,65.28 L168.88,63.64 Z M183.2,44.12 L183.2,66.08 C183.2,68.24 183.76,68.96 185.4,68.96 L187.2,68.96 L187.2,72.6 L184.96,72.6 C181.04,72.6 179.12,70.44 179.12,66.32 L179.12,44.12 L183.2,44.12 Z M207.84,52.08 C213.44,52.08 216.2,54.48 216.2,59.04 L216.2,72.6 L212.2,72.6 L212.2,70.76 C210.72,72.24 209.32,72.84 206.8,72.84 C204.28,72.84 202.6,72.24 201.36,71 C200.32,69.92 199.76,68.36 199.76,66.64 C199.76,63.24 202.12,60.8 206.8,60.8 L212.12,60.8 L212.12,59.36 C212.12,56.76 210.88,55.56 207.68,55.56 C205.52,55.56 204.4,56.12 203.24,57.56 L200.6,55.04 C202.48,52.8 204.44,52.08 207.84,52.08 Z M212.12,63.64 L207.44,63.64 C204.96,63.64 203.72,64.68 203.72,66.56 C203.72,68.44 204.88,69.44 207.56,69.44 C209,69.44 210.16,69.28 211.24,68.28 C211.88,67.68 212.12,66.72 212.12,65.28 L212.12,63.64 Z M231.84,52.08 C233.92,52.08 235.68,52.76 236.8,53.88 C238.76,55.88 239.08,59.12 239.08,62.44 C239.08,65.76 238.76,69.04 236.8,71.04 C235.68,72.16 233.96,72.84 231.88,72.84 C229.72,72.84 228.04,72.32 226.56,70.52 L226.56,80.8 L222.48,80.8 L222.48,52.32 L226.48,52.32 L226.48,54.48 C228,52.64 229.68,52.08 231.84,52.08 Z M230.8,55.72 C227.08,55.72 226.56,58.84 226.56,62.44 C226.56,66.04 227.08,69.2 230.8,69.2 C234.48,69.2 235,66.04 235,62.44 C235,58.84 234.48,55.72 230.8,55.72 Z M253.96,52.08 C256.04,52.08 257.8,52.76 258.92,53.88 C260.88,55.88 261.2,59.12 261.2,62.44 C261.2,65.76 260.88,69.04 258.92,71.04 C257.8,72.16 256.08,72.84 254,72.84 C251.84,72.84 250.16,72.32 248.68,70.52 L248.68,80.8 L244.6,80.8 L244.6,52.32 L248.6,52.32 L248.6,54.48 C250.12,52.64 251.8,52.08 253.96,52.08 Z M252.92,55.72 C249.2,55.72 248.68,58.84 248.68,62.44 C248.68,66.04 249.2,69.2 252.92,69.2 C256.6,69.2 257.12,66.04 257.12,62.44 C257.12,58.84 256.6,55.72 252.92,55.72 Z M285.68,52.08 C287.76,52.08 289.52,52.76 290.64,53.88 C292.6,55.88 292.92,59.12 292.92,62.44 C292.92,65.76 292.6,69.04 290.64,71.04 C289.52,72.16 287.8,72.84 285.72,72.84 C283.56,72.84 281.88,72.32 280.4,70.52 L280.4,80.8 L276.32,80.8 L276.32,52.32 L280.32,52.32 L280.32,54.48 C281.84,52.64 283.52,52.08 285.68,52.08 Z M284.64,55.72 C280.92,55.72 280.4,58.84 280.4,62.44 C280.4,66.04 280.92,69.2 284.64,69.2 C288.32,69.2 288.84,66.04 288.84,62.44 C288.84,58.84 288.32,55.72 284.64,55.72 Z M302.4,44.12 L302.4,66.08 C302.4,68.24 302.96,68.96 304.6,68.96 L306.4,68.96 L306.4,72.6 L304.16,72.6 C300.24,72.6 298.32,70.44 298.32,66.32 L298.32,44.12 L302.4,44.12 Z M317.44,52.08 C323.04,52.08 325.8,54.48 325.8,59.04 L325.8,72.6 L321.8,72.6 L321.8,70.76 C320.32,72.24 318.92,72.84 316.4,72.84 C313.88,72.84 312.2,72.24 310.96,71 C309.92,69.92 309.36,68.36 309.36,66.64 C309.36,63.24 311.72,60.8 316.4,60.8 L321.72,60.8 L321.72,59.36 C321.72,56.76 320.48,55.56 317.28,55.56 C315.12,55.56 314,56.12 312.84,57.56 L310.2,55.04 C312.08,52.8 314.04,52.08 317.44,52.08 Z M321.72,63.64 L317.04,63.64 C314.56,63.64 313.32,64.68 313.32,66.56 C313.32,68.44 314.48,69.44 317.16,69.44 C318.6,69.44 319.76,69.28 320.84,68.28 C321.48,67.68 321.72,66.72 321.72,65.28 L321.72,63.64 Z M336.64,46.52 L336.64,52.32 L340.56,52.32 L340.56,55.44 L336.64,55.44 L336.64,66.76 C336.64,68.28 337.36,69.12 338.88,69.12 L340.56,69.12 L340.56,72.6 L338.12,72.6 C334.32,72.6 332.56,69.92 332.56,66.96 L332.56,55.44 L330.24,55.44 L330.24,52.32 L332.56,52.32 L332.56,46.52 L336.64,46.52 Z M354.52,44.12 L354.52,47.6 L352.72,47.6 C351.2,47.6 350.48,48.48 350.48,49.96 L350.48,52.32 L354.52,52.32 L354.52,55.44 L350.48,55.44 L350.48,72.6 L346.4,72.6 L346.4,55.44 L344.08,55.44 L344.08,52.32 L346.4,52.32 L346.4,49.76 C346.4,46.84 348.16,44.12 351.96,44.12 L354.52,44.12 Z M365.76,52.08 C368.52,52.08 370.52,53.12 371.84,54.48 C373.76,56.48 374.24,59.04 374.24,62.44 C374.24,65.88 373.76,68.44 371.84,70.44 C370.52,71.8 368.52,72.84 365.76,72.84 C363,72.84 361.04,71.8 359.72,70.44 C357.8,68.44 357.32,65.88 357.32,62.44 C357.32,59.04 357.8,56.48 359.72,54.48 C361.04,53.12 363,52.08 365.76,52.08 Z M365.76,55.72 C364.56,55.72 363.56,56.12 362.8,56.88 C361.56,58.12 361.4,60.24 361.4,62.44 C361.4,64.64 361.56,66.76 362.8,68 C363.56,68.76 364.56,69.2 365.76,69.2 C366.96,69.2 368,68.76 368.76,68 C370,66.76 370.16,64.64 370.16,62.44 C370.16,60.24 370,58.12 368.76,56.88 C368,56.12 366.96,55.72 365.76,55.72 Z M389.16,52.08 C391.12,52.08 392.6,52.6 394,54 L390.92,57.08 C390,56.16 389.28,55.72 387.88,55.72 C385.68,55.72 383.84,57.48 383.84,60.28 L383.84,72.6 L379.76,72.6 L379.76,52.32 L383.76,52.32 L383.76,54.52 C384.8,53.08 386.88,52.08 389.16,52.08 Z M418.84,52.08 C420.92,52.08 422.76,52.76 423.96,53.92 C425.52,55.44 426.12,57.36 426.12,59.64 L426.12,72.6 L422.04,72.6 L422.04,60.24 C422.04,57.08 420.24,55.72 417.96,55.72 C415.76,55.72 413.76,57.12 413.76,60.04 L413.76,72.6 L409.68,72.6 L409.68,60.24 C409.68,57.08 407.88,55.72 405.6,55.72 C403.32,55.72 401.4,57.12 401.4,60.24 L401.4,72.6 L397.32,72.6 L397.32,52.32 L401.32,52.32 L401.32,54.36 C402.68,52.88 404.68,52.08 406.72,52.08 C409.24,52.08 411.2,53.08 412.48,55.04 C414.12,53.04 416.16,52.08 418.84,52.08 Z M11.8,95.12 L11.8,98.6 L10,98.6 C8.48,98.6 7.76,99.48 7.76,100.96 L7.76,103.32 L11.8,103.32 L11.8,106.44 L7.76,106.44 L7.76,123.6 L3.68,123.6 L3.68,106.44 L1.36,106.44 L1.36,103.32 L3.68,103.32 L3.68,100.76 C3.68,97.84 5.44,95.12 9.24,95.12 L11.8,95.12 Z M23.04,103.08 C25.8,103.08 27.8,104.12 29.12,105.48 C31.04,107.48 31.52,110.04 31.52,113.44 C31.52,116.88 31.04,119.44 29.12,121.44 C27.8,122.8 25.8,123.84 23.04,123.84 C20.28,123.84 18.32,122.8 17,121.44 C15.08,119.44 14.6,116.88 14.6,113.44 C14.6,110.04 15.08,107.48 17,105.48 C18.32,104.12 20.28,103.08 23.04,103.08 Z M23.04,106.72 C21.84,106.72 20.84,107.12 20.08,107.88 C18.84,109.12 18.68,111.24 18.68,113.44 C18.68,115.64 18.84,117.76 20.08,119 C20.84,119.76 21.84,120.2 23.04,120.2 C24.24,120.2 25.28,119.76 26.04,119 C27.28,117.76 27.44,115.64 27.44,113.44 C27.44,111.24 27.28,109.12 26.04,107.88 C25.28,107.12 24.24,106.72 23.04,106.72 Z M46.44,103.08 C48.4,103.08 49.88,103.6 51.28,105 L48.2,108.08 C47.28,107.16 46.56,106.72 45.16,106.72 C42.96,106.72 41.12,108.48 41.12,111.28 L41.12,123.6 L37.04,123.6 L37.04,103.32 L41.04,103.32 L41.04,105.52 C42.08,104.08 44.16,103.08 46.44,103.08 Z M85.72,103.08 C87.8,103.08 89.64,103.76 90.84,104.92 C92.4,106.44 93,108.36 93,110.64 L93,123.6 L88.92,123.6 L88.92,111.24 C88.92,108.08 87.12,106.72 84.84,106.72 C82.64,106.72 80.64,108.12 80.64,111.04 L80.64,123.6 L76.56,123.6 L76.56,111.24 C76.56,108.08 74.76,106.72 72.48,106.72 C70.2,106.72 68.28,108.12 68.28,111.24 L68.28,123.6 L64.2,123.6 L64.2,103.32 L68.2,103.32 L68.2,105.36 C69.56,103.88 71.56,103.08 73.6,103.08 C76.12,103.08 78.08,104.08 79.36,106.04 C81,104.04 83.04,103.08 85.72,103.08 Z M105.84,103.08 C111.44,103.08 114.2,105.48 114.2,110.04 L114.2,123.6 L110.2,123.6 L110.2,121.76 C108.72,123.24 107.32,123.84 104.8,123.84 C102.28,123.84 100.6,123.24 99.36,122 C98.32,120.92 97.76,119.36 97.76,117.64 C97.76,114.24 100.12,111.8 104.8,111.8 L110.12,111.8 L110.12,110.36 C110.12,107.76 108.88,106.56 105.68,106.56 C103.52,106.56 102.4,107.12 101.24,108.56 L98.6,106.04 C100.48,103.8 102.44,103.08 105.84,103.08 Z M110.12,114.64 L105.44,114.64 C102.96,114.64 101.72,115.68 101.72,117.56 C101.72,119.44 102.88,120.44 105.56,120.44 C107,120.44 108.16,120.28 109.24,119.28 C109.88,118.68 110.12,117.72 110.12,116.28 L110.12,114.64 Z M129.88,103.08 C131.96,103.08 133.68,103.76 134.88,104.92 C136.44,106.44 136.92,108.36 136.92,110.64 L136.92,123.6 L132.84,123.6 L132.84,111.24 C132.84,108.08 131.04,106.72 128.76,106.72 C126.48,106.72 124.56,108.12 124.56,111.24 L124.56,123.6 L120.48,123.6 L120.48,103.32 L124.48,103.32 L124.48,105.36 C125.88,103.84 127.84,103.08 129.88,103.08 Z M159.44,103.32 L159.44,123.6 L155.44,123.6 L155.44,121.56 C154.04,123.08 152.08,123.84 150.04,123.84 C147.96,123.84 146.24,123.16 145.04,122 C143.48,120.48 143,118.56 143,116.28 L143,103.32 L147.08,103.32 L147.08,115.68 C147.08,118.84 148.88,120.2 151.16,120.2 C153.44,120.2 155.36,118.8 155.36,115.68 L155.36,103.32 L159.44,103.32 Z M174.68,95.12 L174.68,98.6 L172.88,98.6 C171.36,98.6 170.64,99.48 170.64,100.96 L170.64,103.32 L174.68,103.32 L174.68,106.44 L170.64,106.44 L170.64,123.6 L166.56,123.6 L166.56,106.44 L164.24,106.44 L164.24,103.32 L166.56,103.32 L166.56,100.76 C166.56,97.84 168.32,95.12 172.12,95.12 L174.68,95.12 Z M185.08,103.08 C190.68,103.08 193.44,105.48 193.44,110.04 L193.44,123.6 L189.44,123.6 L189.44,121.76 C187.96,123.24 186.56,123.84 184.04,123.84 C181.52,123.84 179.84,123.24 178.6,122 C177.56,120.92 177,119.36 177,117.64 C177,114.24 179.36,111.8 184.04,111.8 L189.36,111.8 L189.36,110.36 C189.36,107.76 188.12,106.56 184.92,106.56 C182.76,106.56 181.64,107.12 180.48,108.56 L177.84,106.04 C179.72,103.8 181.68,103.08 185.08,103.08 Z M189.36,114.64 L184.68,114.64 C182.2,114.64 180.96,115.68 180.96,117.56 C180.96,119.44 182.12,120.44 184.8,120.44 C186.24,120.44 187.4,120.28 188.48,119.28 C189.12,118.68 189.36,117.72 189.36,116.28 L189.36,114.64 Z M207.8,103.08 C210.6,103.08 212.56,103.88 214.48,105.92 L211.68,108.64 C210.4,107.24 209.4,106.72 207.8,106.72 C206.24,106.72 204.92,107.36 204.04,108.52 C203.16,109.64 202.84,111.08 202.84,113.44 C202.84,115.8 203.16,117.28 204.04,118.4 C204.92,119.56 206.24,120.2 207.8,120.2 C209.4,120.2 210.4,119.68 211.68,118.28 L214.48,120.96 C212.56,123 210.6,123.84 207.8,123.84 C203.24,123.84 198.76,121.04 198.76,113.44 C198.76,105.84 203.24,103.08 207.8,103.08 Z M223.76,97.52 L223.76,103.32 L227.68,103.32 L227.68,106.44 L223.76,106.44 L223.76,117.76 C223.76,119.28 224.48,120.12 226,120.12 L227.68,120.12 L227.68,123.6 L225.24,123.6 C221.44,123.6 219.68,120.92 219.68,117.96 L219.68,106.44 L217.36,106.44 L217.36,103.32 L219.68,103.32 L219.68,97.52 L223.76,97.52 Z M249.12,103.32 L249.12,123.6 L245.12,123.6 L245.12,121.56 C243.72,123.08 241.76,123.84 239.72,123.84 C237.64,123.84 235.92,123.16 234.72,122 C233.16,120.48 232.68,118.56 232.68,116.28 L232.68,103.32 L236.76,103.32 L236.76,115.68 C236.76,118.84 238.56,120.2 240.84,120.2 C243.12,120.2 245.04,118.8 245.04,115.68 L245.04,103.32 L249.12,103.32 Z M265,103.08 C266.96,103.08 268.44,103.6 269.84,105 L266.76,108.08 C265.84,107.16 265.12,106.72 263.72,106.72 C261.52,106.72 259.68,108.48 259.68,111.28 L259.68,123.6 L255.6,123.6 L255.6,103.32 L259.6,103.32 L259.6,105.52 C260.64,104.08 262.72,103.08 265,103.08 Z M277.24,103.32 L277.24,123.6 L273.16,123.6 L273.16,103.32 L277.24,103.32 Z M277.36,95 L277.36,99.32 L273.04,99.32 L273.04,95 L277.36,95 Z M293.12,103.08 C295.2,103.08 296.92,103.76 298.12,104.92 C299.68,106.44 300.16,108.36 300.16,110.64 L300.16,123.6 L296.08,123.6 L296.08,111.24 C296.08,108.08 294.28,106.72 292,106.72 C289.72,106.72 287.8,108.12 287.8,111.24 L287.8,123.6 L283.72,123.6 L283.72,103.32 L287.72,103.32 L287.72,105.36 C289.12,103.84 291.08,103.08 293.12,103.08 Z M312.64,103.08 C314.8,103.08 316.44,103.64 317.96,105.48 L317.96,103.32 L321.92,103.32 L321.92,123.48 C321.92,128.44 318.64,132.04 313.24,132.04 C310.16,132.04 308.2,131.32 306.08,129.36 L308.68,126.76 C309.96,127.96 311.08,128.56 313.08,128.56 C316.52,128.56 317.84,126.12 317.84,123.4 L317.84,120.8 C316.36,122.56 314.68,123.12 312.6,123.12 C310.56,123.12 308.88,122.44 307.76,121.32 C305.8,119.36 305.48,116.52 305.48,113.08 C305.48,109.64 305.8,106.8 307.76,104.84 C308.88,103.72 310.6,103.08 312.64,103.08 Z M313.72,106.72 C310.04,106.72 309.56,109.88 309.56,113.08 C309.56,116.28 310.04,119.44 313.72,119.44 C317.4,119.44 317.84,116.28 317.84,113.08 C317.84,109.88 317.4,106.72 313.72,106.72 Z M333.16,118.72 L333.16,123.6 L328.28,123.6 L328.28,118.72 L333.16,118.72 Z" fill="#FFFFFF"></path>
        </g>
    </g>
</svg>