<svg fill="none" height="45" viewBox="0 0 160 45" width="160" xmlns="http://www.w3.org/2000/svg"><path clip-rule="evenodd" d="m19.7238 23.9555 12.3026-12.0104-12.3026-11.9451-12.36931 11.9451zm49.6115-12.3999v21.7483h-4.7472v-21.7483h-7.4885v-3.8952h20.1254l-.6018 3.8952zm31.7597 13.4385c0 6.1025-3.2097 8.6993-9.1604 8.6993h-1.7384c-5.8839 0-9.1601-2.5968-9.1601-8.6993v-17.26878h4.7472v17.20388c0 2.9214.6686 4.9988 4.7472 4.9988h1.0698c4.0785 0 4.6803-2.0774 4.6803-4.9988v-17.20388h4.8144zm23.669 4.5444v3.8303h-17.05v-25.64348h4.747v21.81318zm9.895-21.81318v25.64348h-4.747v-25.64348zm11.768 15.58088v9.9977h-4.747v-25.6435h9.828c6.285 0 8.492 1.62301 8.492 7.0114v1.9476c0 4.7392-2.407 6.6868-8.291 6.6868zm4.747-3.7654c3.41 0 4.012-.7141 4.012-2.9863h.067v-1.8178c0-2.467-.535-3.246-4.012-3.246h-4.814v8.0501zm-111.8594 8.245v-16.9442l-17.3839 16.9442v16.9442zm-21.8639 0v16.9442l-17.4507-16.9442v-16.9442z" fill="#282726" fill-rule="evenodd"/></svg>