<svg xmlns="http://www.w3.org/2000/svg" xmlns:xlink="http://www.w3.org/1999/xlink" width="1728" height="377" viewBox="0 0 1728 377">
  <defs>
    <rect id="a" width="1728" height="376.127" rx="4.2"/>
  </defs>
  <g fill="none" fill-rule="evenodd">
    <use fill="#FFFFFF" xlink:href="#a"/>
    <rect width="1727" height="375.127" x=".5" y=".5" stroke="#E2E4E7" rx="4.2"/>
    <g transform="translate(115 63)">
      <g transform="translate(1279.126 14.261)">
        <path fill="#2B3950" d="M3.15,1.10921212 L69.312814,1.10921212 C71.0525109,1.10921212 72.462814,2.51951516 72.462814,4.25921212 L72.462814,64.5107788 C72.462814,66.2504758 71.0525109,67.6607788 69.312814,67.6607788 L3.15,67.6607788 C1.41030304,67.6607788 5.54212195e-15,66.2504758 5.32907052e-15,64.5107788 L4.4408921e-16,4.25921212 C2.31037778e-16,2.51951516 1.41030304,1.10921212 3.15,1.10921212 Z M49.0776669,7.33690368 C48.5810904,7.03332742 48.0101159,6.87326489 47.4280976,6.8744764 L26.3397632,6.91837317 C25.7601714,6.91957963 25.1921485,7.08067226 24.6982162,7.38391974 L7.77219775,17.7755726 C6.84097753,18.347291 6.27257354,19.3607736 6.27030841,20.4534894 L6.21137312,48.8843162 C6.20909395,49.9838076 6.78027083,51.0049255 7.71835401,51.5784118 L24.5791462,61.8860621 C25.0757226,62.1896384 25.6466972,62.3497009 26.2287154,62.3484894 L47.3170498,62.3045926 C47.8966416,62.3033862 48.4646645,62.1422936 48.9585968,61.8390461 L65.8846153,51.4473933 C66.8158355,50.8756748 67.3842395,49.8621923 67.3865046,48.7694764 L67.4454399,20.3386497 C67.4477191,19.2391582 66.8765422,18.2180403 65.938459,17.644554 L49.0776669,7.33690368 Z"/>
        <path fill="#2B3950" d="M21.9104395,22.1838556 L50.5523745,22.1838556 C51.3431458,22.1838556 51.9841926,22.8249024 51.9841926,23.6156738 L51.9841926,46.1050152 C51.9841926,46.8957865 51.3431458,47.5368334 50.5523745,47.5368334 L21.9104395,47.5368334 C21.1196682,47.5368334 20.4786213,46.8957865 20.4786213,46.1050152 L20.4786213,23.6156738 C20.4786213,22.8249024 21.1196682,22.1838556 21.9104395,22.1838556 Z M36.231407,41.1985889 C39.7114163,41.1985889 42.5325212,38.3608602 42.5325212,34.8603445 C42.5325212,31.3598287 39.7114163,28.5221 36.231407,28.5221 C32.7513977,28.5221 29.9302927,31.3598287 29.9302927,34.8603445 C29.9302927,38.3608602 32.7513977,41.1985889 36.231407,41.1985889 Z"/>
        <g fill="#949AA5" transform="translate(9.452 11.092)">
          <ellipse cx="18.643" cy="3.169" rx="3.151" ry="3.169"/>
          <ellipse cx="3.151" cy="14.261" rx="3.151" ry="3.169"/>
          <ellipse cx="3.151" cy="33.276" rx="3.151" ry="3.169"/>
          <ellipse cx="50.409" cy="14.261" rx="3.151" ry="3.169"/>
          <ellipse cx="50.409" cy="33.276" rx="3.151" ry="3.169"/>
          <ellipse cx="18.643" cy="42.783" rx="3.151" ry="3.169"/>
          <ellipse cx="35.971" cy="3.169" rx="3.151" ry="3.169"/>
          <ellipse cx="35.971" cy="42.783" rx="3.151" ry="3.169"/>
        </g>
      </g>
      <g transform="translate(1435.079 3.17)">
        <path fill="#2B3950" d="M63.0111426,58.6287612 L63.0111426,68.9427501 C63.0111426,70.2475228 61.9534153,71.3052501 60.6486426,71.3052501 L2.3625,71.3052501 C1.05772728,71.3052501 1.04796699e-15,70.2475228 8.8817842e-16,68.9427501 L7.50590136e-16,58.6287612 L8.34917139,58.6287612 C8.95806532,58.6287612 9.45167139,58.1351551 9.45167139,57.5262612 L9.45167139,53.3930167 C9.45167139,52.7841228 8.95806532,52.2905167 8.34917139,52.2905167 L0,52.2905167 L3.91244223e-16,31.6912222 L8.34917139,31.6912222 C8.95806532,31.6912222 9.45167139,31.1976162 9.45167139,30.5887222 L9.45167139,26.4554778 C9.45167139,25.8465839 8.95806532,25.3529778 8.34917139,25.3529778 L0,25.3529778 L0,2.3625 C-1.59788574e-16,1.05772728 1.05772728,4.68057496e-15 2.3625,4.4408921e-15 L60.6486426,0 C61.9534153,4.39580103e-15 63.0111426,1.05772728 63.0111426,2.3625 L63.0111426,25.3529778 L54.6619712,25.3529778 C54.0530773,25.3529778 53.5594712,25.8465839 53.5594712,26.4554778 L53.5594712,30.5887222 C53.5594712,31.1976162 54.0530773,31.6912222 54.6619712,31.6912222 L63.0111426,31.6912222 L63.0111426,52.2905167 L54.6619712,52.2905167 C54.0530773,52.2905167 53.5594712,52.7841228 53.5594712,53.3930167 L53.5594712,57.5262612 C53.5594712,58.1351551 54.0530773,58.6287612 54.6619712,58.6287612 L63.0111426,58.6287612 Z M16.8552856,25.3529778 C16.2463917,25.3529778 15.7527856,25.8465839 15.7527856,26.4554778 L15.7527856,30.5887223 C15.7527856,31.1976162 16.2463917,31.6912222 16.8552856,31.6912222 L20.9513999,31.6912222 C21.5602938,31.6912222 22.0538999,31.1976162 22.0538999,30.5887223 L22.0538999,26.4554778 C22.0538999,25.8465839 21.5602938,25.3529778 20.9513999,25.3529778 L16.8552856,25.3529778 Z M16.8552856,12.6764889 C16.2463917,12.6764889 15.7527856,13.170095 15.7527856,13.7789889 L15.7527856,17.9122334 C15.7527856,18.5211273 16.2463917,19.0147333 16.8552856,19.0147333 L20.9513999,19.0147333 C21.5602938,19.0147333 22.0538999,18.5211273 22.0538999,17.9122334 L22.0538999,13.7789889 C22.0538999,13.170095 21.5602938,12.6764889 20.9513999,12.6764889 L16.8552856,12.6764889 Z M16.8552856,39.6140278 C16.2463917,39.6140278 15.7527856,40.1076339 15.7527856,40.7165278 L15.7527856,44.8497723 C15.7527856,45.4586662 16.2463917,45.9522723 16.8552856,45.9522723 L20.9513999,45.9522723 C21.5602938,45.9522723 22.0538999,45.4586662 22.0538999,44.8497723 L22.0538999,40.7165278 C22.0538999,40.1076339 21.5602938,39.6140278 20.9513999,39.6140278 L16.8552856,39.6140278 Z M29.4575141,25.3529778 C28.8486202,25.3529778 28.3550142,25.8465839 28.3550142,26.4554778 L28.3550142,30.5887223 C28.3550142,31.1976162 28.8486202,31.6912222 29.4575141,31.6912222 L33.5536284,31.6912222 C34.1625224,31.6912222 34.6561284,31.1976162 34.6561284,30.5887223 L34.6561284,26.4554778 C34.6561284,25.8465839 34.1625224,25.3529778 33.5536284,25.3529778 L29.4575141,25.3529778 Z M29.4575141,12.6764889 C28.8486202,12.6764889 28.3550142,13.170095 28.3550142,13.7789889 L28.3550142,17.9122334 C28.3550142,18.5211273 28.8486202,19.0147333 29.4575141,19.0147333 L33.5536284,19.0147333 C34.1625224,19.0147333 34.6561284,18.5211273 34.6561284,17.9122334 L34.6561284,13.7789889 C34.6561284,13.170095 34.1625224,12.6764889 33.5536284,12.6764889 L29.4575141,12.6764889 Z M29.4575141,39.6140278 C28.8486202,39.6140278 28.3550142,40.1076339 28.3550142,40.7165278 L28.3550142,44.8497723 C28.3550142,45.4586662 28.8486202,45.9522723 29.4575141,45.9522723 L33.5536284,45.9522723 C34.1625224,45.9522723 34.6561284,45.4586662 34.6561284,44.8497723 L34.6561284,40.7165278 C34.6561284,40.1076339 34.1625224,39.6140278 33.5536284,39.6140278 L29.4575141,39.6140278 Z M42.0597427,25.3529778 C41.4508487,25.3529778 40.9572427,25.8465839 40.9572427,26.4554778 L40.9572427,30.5887223 C40.9572427,31.1976162 41.4508487,31.6912222 42.0597427,31.6912222 L46.155857,31.6912222 C46.7647509,31.6912222 47.2583569,31.1976162 47.2583569,30.5887223 L47.2583569,26.4554778 C47.2583569,25.8465839 46.7647509,25.3529778 46.155857,25.3529778 L42.0597427,25.3529778 Z M42.0597427,12.6764889 C41.4508487,12.6764889 40.9572427,13.170095 40.9572427,13.7789889 L40.9572427,17.9122334 C40.9572427,18.5211273 41.4508487,19.0147333 42.0597427,19.0147333 L46.155857,19.0147333 C46.7647509,19.0147333 47.2583569,18.5211273 47.2583569,17.9122334 L47.2583569,13.7789889 C47.2583569,13.170095 46.7647509,12.6764889 46.155857,12.6764889 L42.0597427,12.6764889 Z M42.0597427,39.6140278 C41.4508487,39.6140278 40.9572427,40.1076339 40.9572427,40.7165278 L40.9572427,44.8497723 C40.9572427,45.4586662 41.4508487,45.9522723 42.0597427,45.9522723 L46.155857,45.9522723 C46.7647509,45.9522723 47.2583569,45.4586662 47.2583569,44.8497723 L47.2583569,40.7165278 C47.2583569,40.1076339 46.7647509,39.6140278 46.155857,39.6140278 L42.0597427,39.6140278 Z M16.8552856,52.2905167 C16.2463917,52.2905167 15.7527856,52.7841228 15.7527856,53.3930167 L15.7527856,57.5262612 C15.7527856,58.1351551 16.2463917,58.6287612 16.8552856,58.6287612 L20.9513999,58.6287612 C21.5602938,58.6287612 22.0538999,58.1351551 22.0538999,57.5262612 L22.0538999,53.3930167 C22.0538999,52.7841228 21.5602938,52.2905167 20.9513999,52.2905167 L16.8552856,52.2905167 Z M29.4575141,52.2905167 C28.8486202,52.2905167 28.3550142,52.7841228 28.3550142,53.3930167 L28.3550142,57.5262612 C28.3550142,58.1351551 28.8486202,58.6287612 29.4575141,58.6287612 L33.5536284,58.6287612 C34.1625224,58.6287612 34.6561284,58.1351551 34.6561284,57.5262612 L34.6561284,53.3930167 C34.6561284,52.7841228 34.1625224,52.2905167 33.5536284,52.2905167 L29.4575141,52.2905167 Z M42.0597427,52.2905167 C41.4508487,52.2905167 40.9572427,52.7841228 40.9572427,53.3930167 L40.9572427,57.5262612 C40.9572427,58.1351551 41.4508487,58.6287612 42.0597427,58.6287612 L46.155857,58.6287612 C46.7647509,58.6287612 47.2583569,58.1351551 47.2583569,57.5262612 L47.2583569,53.3930167 C47.2583569,52.7841228 46.7647509,52.2905167 46.155857,52.2905167 L42.0597427,52.2905167 Z"/>
        <path fill="#7B8391" d="M29.1426534 74.4743723L33.8684891 74.4743723 33.8684891 87.9570656C33.8684891 89.262069 32.8105748 90.3199834 31.5055713 90.3199834L31.5055713 90.3199834C30.2005678 90.3199834 29.1426534 89.262069 29.1426534 87.9570656L29.1426534 74.4743723zM42.5325212 74.4743723L47.2583569 74.4743723 47.2583569 87.9570656C47.2583569 89.262069 46.2004426 90.3199834 44.8954391 90.3199834L44.8954391 90.3199834C43.5904356 90.3199834 42.5325212 89.262069 42.5325212 87.9570656L42.5325212 74.4743723zM15.7527856 74.4743723L20.4786213 74.4743723 20.4786213 87.9570656C20.4786213 89.262069 19.420707 90.3199834 18.1157035 90.3199834L18.1157035 90.3199834C16.8107 90.3199834 15.7527856 89.262069 15.7527856 87.9570656L15.7527856 74.4743723z"/>
      </g>
      <g transform="translate(819.145 12.676)">
        <path fill="#949AA5" fill-rule="nonzero" d="M67.7440451,34.8532118 L66.1687665,36.4377729 L66.1687665,34.8532118 L67.7440451,34.8532118 Z M69.3193237,14.1284019 L69.3193237,27.070187 C68.804803,26.9829534 68.2761631,26.9375389 67.7369783,26.9375389 C67.2027292,26.9375389 66.678833,26.9821257 66.1687665,27.0678018 L66.1687665,14.1307871 C66.678833,14.2164632 67.2027292,14.26105 67.7369783,14.26105 C68.2761631,14.26105 68.804803,14.2156355 69.3193237,14.1284019 Z M58.4159895,3.16912222 C58.3300429,3.68443493 58.2853069,4.21380402 58.2853069,4.75368334 C58.2853069,5.29356266 58.3300429,5.82293175 58.4159895,6.33824445 L45.5523957,6.33824445 C45.6383424,5.82293175 45.6830784,5.29356266 45.6830784,4.75368334 C45.6830784,4.21380402 45.6383424,3.68443493 45.5523957,3.16912222 L58.4159895,3.16912222 Z M58.4148027,38.022334 L47.1476992,38.022334 C47.2206284,37.5070836 47.2583569,36.9804266 47.2583569,36.4449056 C47.2583569,35.9044414 47.2199287,35.3730056 47.1456706,34.8532118 L58.4171819,34.8532118 C58.3304567,35.370772 58.2853069,35.9025351 58.2853069,36.4449056 C58.2853069,36.9822943 58.3296311,37.5092696 58.4148027,38.022334 Z M58.4159895,66.5515667 C58.3300429,67.0668794 58.2853069,67.5962485 58.2853069,68.1361278 C58.2853069,68.6760071 58.3300429,69.2053762 58.4159895,69.7206889 L45.5523957,69.7206889 C45.6383424,69.2053762 45.6830784,68.6760071 45.6830784,68.1361278 C45.6830784,67.5962485 45.6383424,67.0668794 45.5523957,66.5515667 L58.4159895,66.5515667 Z M25.3151148,38.022334 L14.0480113,38.022334 C14.1331829,37.5092696 14.1775071,36.9822943 14.1775071,36.4449056 C14.1775071,35.9025351 14.1323573,35.370772 14.045632,34.8532118 L25.3171434,34.8532118 C25.2428853,35.3730056 25.204457,35.9044414 25.204457,36.4449056 C25.204457,36.9804266 25.2421856,37.5070836 25.3151148,38.022334 Z M26.9104183,66.5515667 C26.8244716,67.0668794 26.7797356,67.5962485 26.7797356,68.1361278 C26.7797356,68.6760071 26.8244716,69.2053762 26.9104183,69.7206889 L14.0468244,69.7206889 C14.1327711,69.2053762 14.1775071,68.6760071 14.1775071,68.1361278 C14.1775071,67.5962485 14.1327711,67.0668794 14.0468244,66.5515667 L26.9104183,66.5515667 Z M6.30111426,45.8208195 L6.30111426,58.7602139 C5.78882032,58.6737608 5.26255234,58.6287612 4.72583569,58.6287612 C4.18911905,58.6287612 3.66285107,58.6737608 3.15055713,58.7602139 L3.15055713,45.8208195 C3.66285107,45.9072726 4.18911905,45.9522723 4.72583569,45.9522723 C5.26255234,45.9522723 5.78882032,45.9072726 6.30111426,45.8208195 Z M14.0468244,3.16912222 L26.9104183,3.16912222 C26.8244716,3.68443493 26.7797356,4.21380402 26.7797356,4.75368334 C26.7797356,5.29356266 26.8244716,5.82293175 26.9104183,6.33824445 L14.0468244,6.33824445 C14.1327711,5.82293175 14.1775071,5.29356266 14.1775071,4.75368334 C14.1775071,4.21380402 14.1327711,3.68443493 14.0468244,3.16912222 Z"/>
        <path fill="#2B3950" fill-rule="nonzero" d="M37.8066856 23.7684167L37.8066856 20.5992945C37.8066856 19.7241655 37.1014093 19.0147333 36.231407 19.0147333 35.3614047 19.0147333 34.6561284 19.7241655 34.6561284 20.5992945L34.6561284 23.7684167C34.6561284 24.6435456 35.3614047 25.3529778 36.231407 25.3529778 37.1014093 25.3529778 37.8066856 24.6435456 37.8066856 23.7684167zM37.8066856 52.2905167L37.8066856 49.1213945C37.8066856 48.2462655 37.1014093 47.5368334 36.231407 47.5368334 35.3614047 47.5368334 34.6561284 48.2462655 34.6561284 49.1213945L34.6561284 52.2905167C34.6561284 53.1656456 35.3614047 53.8750778 36.231407 53.8750778 37.1014093 53.8750778 37.8066856 53.1656456 37.8066856 52.2905167z"/>
        <path fill="#2B3950" fill-rule="nonzero" d="M48.8500304,27.7133279 L48.8500304,24.5442057 C48.8500304,23.6690768 48.1447542,22.9596446 47.2747519,22.9596446 C46.4047495,22.9596446 45.6994733,23.6690768 45.6994733,24.5442057 L45.6994733,27.7133279 C45.6994733,28.5884569 46.4047495,29.297889 47.2747519,29.297889 C48.1447542,29.297889 48.8500304,28.5884569 48.8500304,27.7133279 Z" transform="rotate(45 47.275 26.129)"/>
        <path fill="#2B3950" fill-rule="nonzero" d="M27.6471788,49.0411203 L27.6471788,45.8719981 C27.6471788,44.9968692 26.9419025,44.287437 26.0719002,44.287437 C25.2018979,44.287437 24.4966216,44.9968692 24.4966216,45.8719981 L24.4966216,49.0411203 C24.4966216,49.9162493 25.2018979,50.6256815 26.0719002,50.6256815 C26.9419025,50.6256815 27.6471788,49.9162493 27.6471788,49.0411203 Z" transform="rotate(45 26.072 47.457)"/>
        <path fill="#2B3950" fill-rule="nonzero" d="M26.7633407,27.7133279 L26.7633407,24.5442057 C26.7633407,23.6690768 26.0580644,22.9596446 25.1880621,22.9596446 C24.3180598,22.9596446 23.6127835,23.6690768 23.6127835,24.5442057 L23.6127835,27.7133279 C23.6127835,28.5884569 24.3180598,29.297889 25.1880621,29.297889 C26.0580644,29.297889 26.7633407,28.5884569 26.7633407,27.7133279 Z" transform="scale(-1 1) rotate(45 0 -34.68)"/>
        <path fill="#2B3950" fill-rule="nonzero" d="M47.9661923,49.0411203 L47.9661923,45.8719981 C47.9661923,44.9968692 47.2609161,44.287437 46.3909138,44.287437 C45.5209114,44.287437 44.8156352,44.9968692 44.8156352,45.8719981 L44.8156352,49.0411203 C44.8156352,49.9162493 45.5209114,50.6256815 46.3909138,50.6256815 C47.2609161,50.6256815 47.9661923,49.9162493 47.9661923,49.0411203 Z" transform="scale(-1 1) rotate(45 0 -64.541)"/>
        <path fill="#949AA5" d="M36.231407 9.50736667C38.841414 9.50736667 40.9572427 7.37907015 40.9572427 4.75368334 40.9572427 2.12829652 38.841414 0 36.231407 0 33.6214 0 31.5055713 2.12829652 31.5055713 4.75368334 31.5055713 7.37907015 33.6214 9.50736667 36.231407 9.50736667zM4.72583569 9.50736667C7.33584268 9.50736667 9.45167139 7.37907015 9.45167139 4.75368334 9.45167139 2.12829652 7.33584268 0 4.72583569 0 2.11582871 0 0 2.12829652 0 4.75368334 0 7.37907015 2.11582871 9.50736667 4.72583569 9.50736667zM4.72583569 72.8898112C7.33584268 72.8898112 9.45167139 70.7615146 9.45167139 68.1361278 9.45167139 65.510741 7.33584268 63.3824445 4.72583569 63.3824445 2.11582871 63.3824445 0 65.510741 0 68.1361278 0 70.7615146 2.11582871 72.8898112 4.72583569 72.8898112zM4.72583569 41.1985889C7.33584268 41.1985889 9.45167139 39.0702924 9.45167139 36.4449056 9.45167139 33.8195188 7.33584268 31.6912222 4.72583569 31.6912222 2.11582871 31.6912222 0 33.8195188 0 36.4449056 0 39.0702924 2.11582871 41.1985889 4.72583569 41.1985889zM36.231407 72.8898112C38.841414 72.8898112 40.9572427 70.7615146 40.9572427 68.1361278 40.9572427 65.510741 38.841414 63.3824445 36.231407 63.3824445 33.6214 63.3824445 31.5055713 65.510741 31.5055713 68.1361278 31.5055713 70.7615146 33.6214 72.8898112 36.231407 72.8898112z"/>
        <path fill="#2B3950" d="M36.231407,42.78315 C39.7114163,42.78315 42.5325212,39.9454213 42.5325212,36.4449056 C42.5325212,32.9443898 39.7114163,30.1066611 36.231407,30.1066611 C32.7513977,30.1066611 29.9302927,32.9443898 29.9302927,36.4449056 C29.9302927,39.9454213 32.7513977,42.78315 36.231407,42.78315 Z"/>
        <path fill="#949AA5" d="M67.7369783 72.8898112C70.3469853 72.8898112 72.462814 70.7615146 72.462814 68.1361278 72.462814 65.510741 70.3469853 63.3824445 67.7369783 63.3824445 65.1269713 63.3824445 63.0111426 65.510741 63.0111426 68.1361278 63.0111426 70.7615146 65.1269713 72.8898112 67.7369783 72.8898112zM67.7369783 41.1985889C70.3469853 41.1985889 72.462814 39.0702924 72.462814 36.4449056 72.462814 33.8195188 70.3469853 31.6912222 67.7369783 31.6912222 65.1269713 31.6912222 63.0111426 33.8195188 63.0111426 36.4449056 63.0111426 39.0702924 65.1269713 41.1985889 67.7369783 41.1985889zM67.7369783 9.50736667C70.3469853 9.50736667 72.462814 7.37907015 72.462814 4.75368334 72.462814 2.12829652 70.3469853 0 67.7369783 0 65.1269713 0 63.0111426 2.12829652 63.0111426 4.75368334 63.0111426 7.37907015 65.1269713 9.50736667 67.7369783 9.50736667z"/>
      </g>
      <g transform="translate(556.073 15.846)">
        <path fill="#2B3950" d="M60.0406173,38.0156088 L72.462814,38.0160687 L72.462814,64.4777642 C72.462814,65.6230937 71.534341,66.5515667 70.3890115,66.5515667 L2.0738025,66.5515667 C0.928473005,66.5515667 -7.4791601e-16,65.6230937 -8.8817842e-16,64.4777642 L-2.55780099e-16,38.0133859 L12.4221967,38.0138458 L12.4221967,40.1809702 C12.4221967,41.3262997 13.3506697,42.2547727 14.4959992,42.2547727 L16.5594925,42.2547727 C17.704822,42.2547727 18.633295,41.3262997 18.633295,40.1809702 L18.633295,38.0140758 L30.0203086,38.0144973 L30.0203086,35.9296627 L18.633295,35.9296627 L18.633295,33.7647612 C18.633295,32.6194317 17.704822,31.6909587 16.5594925,31.6909587 L14.4959992,31.6909587 C13.3506697,31.6909587 12.4221967,32.6194317 12.4221967,33.7647612 L12.4221967,35.9296627 L0,35.9296627 L0,27.309592 C-5.6104964e-16,22.728274 3.71389202,19.014382 8.29521,19.014382 L64.167604,19.014382 C68.748922,19.014382 72.462814,22.728274 72.462814,27.309592 L72.462814,35.9296627 L60.0406173,35.9296627 L60.0406173,33.7647612 C60.0406173,32.6194317 59.1121443,31.6909587 57.9668148,31.6909587 L55.9033215,31.6909587 C54.757992,31.6909587 53.829519,32.6194317 53.829519,33.7647612 L53.829519,35.9296627 L42.4425053,35.9296627 L42.4425053,38.0149573 L53.829519,38.0153789 L53.829519,40.1809702 C53.829519,41.3262997 54.757992,42.2547727 55.9033215,42.2547727 L57.9668148,42.2547727 C59.1121443,42.2547727 60.0406173,41.3262997 60.0406173,40.1809702 L60.0406173,38.0156088 Z M30.0203086,35.9296627 L42.4425053,35.9296627 L42.4425053,34.8211426 C42.4425053,33.6758131 41.5140323,32.7473401 40.3687028,32.7473401 L32.0941111,32.7473401 C30.9487817,32.7473401 30.0203086,33.6758131 30.0203086,34.8211426 L30.0203086,35.9296627 Z M30.0203086,38.0144973 L30.0203086,39.1245888 C30.0203086,40.2699183 30.9487817,41.1983913 32.0941111,41.1983913 L40.3687028,41.1983913 C41.5140323,41.1983913 42.4425053,40.2699183 42.4425053,39.1245888 L42.4425053,38.0149573 L30.0203086,38.0144973 Z"/>
        <path fill="#949AA5" d="M26.928505,4.18477644e-14 L45.534309,4.26325641e-14 C50.1156269,4.17910064e-14 53.829519,3.71389202 53.829519,8.29521 L53.829519,15.8457209 L18.633295,15.8457209 L18.633295,8.29521 C18.633295,3.71389202 22.347187,4.52504787e-14 26.928505,4.4408921e-14 Z M30.0254632,8.45076292 C28.307469,8.45076292 26.9147595,9.84347243 26.9147595,11.5614667 L26.9147595,15.8454327 L45.5480545,15.8454327 L45.5480545,11.5614667 C45.5480545,9.84347243 44.155345,8.45076292 42.4373507,8.45076292 L30.0254632,8.45076292 Z"/>
      </g>
      <g fill-rule="nonzero" transform="translate(272.523 12.676)">
        <path fill="#2B3950" d="M57.5041688,12.2069232 C57.2036951,10.4414902 56.223216,8.8680871 54.7771865,7.83085638 C54.6061563,7.67731018 36.876021,-5.15339446 2.10937301,4.63517602 C1.53023461,4.80921149 1.09922031,5.30034373 0.997676424,5.9019322 C0.541595773,8.12835215 3.14505616,17.7537798 10.6133768,23.8284515 C11.6950201,24.7017233 13.0297502,25.1937685 14.4140489,25.2295606 C17.264553,25.3447202 21.1602419,25.4598799 25.4550013,25.4598799 C36.1919,25.4598799 49.2092019,24.740132 53.009874,21.4484853 C53.5609715,20.9782501 58.2643032,17.2163681 57.5041688,12.2069232 Z"/>
        <path fill="#949AA5" d="M20.4222367,30.1635031 C22.0032423,30.1942375 23.6956365,30.2135632 25.4550013,30.2135632 C36.0722306,30.2135632 48.9193134,29.50977 52.8793726,26.3112751 C52.1562139,27.1695217 49.7531522,30.3429153 50.929006,33.3036806 L51.0715312,33.6683528 C54.0075504,41.0769571 59.4805182,54.8865188 59.4900199,63.3123667 C59.4900199,67.304568 56.8865595,71.1144332 53.6844933,71.8149877 C51.5359655,72.1727877 49.3628457,72.3588997 47.185344,72.3715927 C44.9524492,72.3715927 42.8430762,72.1124835 41.8929081,71.2487861 C41.40656,70.8022557 41.1745752,70.1389974 41.2752989,69.4830048 C41.4073787,68.8829889 41.65606,68.3154179 42.0069283,67.8131898 C42.8240728,66.4984504 44.0402879,64.4063834 43.0901198,59.780804 C41.6838712,53.053561 38.2537646,42.2477469 34.8426614,38.0828061 C33.7950654,39.3330322 32.3258793,40.1467667 30.7189322,40.3668059 C30.5493283,40.3693093 30.3801006,40.3499599 30.2153431,40.3092261 C29.438553,40.1102254 28.8970291,39.4007942 28.9041113,38.5914279 C28.9041113,34.429101 23.0253774,31.2474396 20.4222367,30.1635031 Z"/>
      </g>
      <g fill-rule="nonzero" transform="rotate(45 81.578 198.075)">
        <path fill="#949AA5" d="M26.0619013 31.2403672L19.0814015 31.2403672C18.287679 31.2403672 17.6442398 31.8982594 17.6442398 32.7098106L17.6442398 47.3832528C17.6442398 47.4126417 17.6442398 47.4420306 17.6442398 47.4714194 17.6415611 47.5231636 17.6415611 47.5750164 17.6442398 47.6267606 17.6442398 47.6729431 17.6442398 47.7191256 17.6770892 47.7653081 17.7099386 47.8114906 17.7017263 47.8534747 17.718151 47.8996572 17.7350757 47.9454067 17.7542626 47.9902475 17.7756374 48.0340063 17.7756374 48.0759904 17.8166992 48.1179745 17.8413363 48.1557602 17.8659733 48.1935459 17.8906104 48.2313316 17.9193536 48.2691173 17.9480968 48.306903 17.9768401 48.3446887 18.0096895 48.3782759L18.1082377 48.4748394 18.2149983 48.563006C18.25728 48.5934046 18.3011437 48.6214352 18.3463959 48.6469742L18.4162009 48.6931567 18.4531565 48.6931567C18.5234591 48.7257473 18.5962425 48.7524255 18.6707839 48.7729265L18.7488012 48.7981169C18.8419204 48.8188909 18.9368297 48.830142 19.0321274 48.8317042L19.0567645 48.8317042C19.1421901 48.8310828 19.2273904 48.8226524 19.3113474 48.8065137L19.3811524 48.8065137C19.4496311 48.7905622 19.5168778 48.7695141 19.582355 48.7435376L19.6193106 48.7435376C19.6935964 48.7105732 19.7650244 48.6712481 19.8328318 48.6259821L19.8862121 48.5881964C19.9397483 48.5484713 19.9905139 48.5049826 20.0381406 48.4580457L20.0792024 48.42026C20.1367281 48.3592504 20.1889376 48.2932249 20.2352371 48.2229348L20.2598741 48.1809507C20.2866816 48.1388942 20.3113514 48.095453 20.3337853 48.0508L27.1130825 34.1960477C27.3452197 33.7420405 27.4703646 33.2388431 27.4785322 32.7266043 27.4876661 31.91665 26.8540345 31.2518849 26.0619013 31.2403672zM16.835323 12.1753884L20.3666347 12.1753884C20.9381149 12.1753884 21.4013912 11.701706 21.4013912 11.1173891L21.4013912 1.47784024C21.4013912 1.4568482 21.4013912 1.43585615 21.4013912 1.4148641 21.4033723 1.37710556 21.4033723 1.33926557 21.4013912 1.30150703 21.4013912 1.26791975 21.4013912 1.23433248 21.3808603 1.2007452 21.3603294 1.16715792 21.3808603 1.13776905 21.352117 1.10418177 21.3400314 1.07130648 21.3263266 1.03907747 21.3110553 1.00761835L21.2658873.919451743 21.1796576.839681957 21.1139588.759912171 21.0400476.688539205 20.9661365.625563058 20.8716944.566785321 20.8183141.533198043 20.7936771.533198043C20.7433056.509323374 20.6911229.48966632 20.6376424.474420306L20.5801559.474420306C20.5127093.459063069 20.4439324.450624458 20.3748471.449229847 20.3133777.443595726 20.2515385.443595726 20.1900691.449229847L20.1202641.449229847C19.582355.600372599 19.23333 1.15036428 18.9130483 1.57440367 17.4754905 3.50673939 16.5275728 5.77255612 16.1536978 8.17010544 15.9398419 9.13545867 15.8174598 10.1196356 15.7882481 11.1089923 15.7860218 11.39324 15.8957569 11.6664467 16.0927269 11.8670513 16.289697 12.0676559 16.5573308 12.1787815 16.835323 12.1753884zM11.3330467 12.1753884L7.80173507 12.1753884C7.23025487 12.1753884 6.76697863 11.701706 6.76697863 11.1173891L6.76697863 1.47784024C6.76697863 1.4568482 6.76697863 1.43585615 6.76697863 1.4148641 6.76499744 1.37710556 6.76499744 1.33926557 6.76697863 1.30150703 6.76697863 1.26791975 6.76697863 1.23433248 6.78750951 1.2007452 6.80804039 1.16715792 6.78750951 1.13776905 6.81625275 1.10418177 6.82833842 1.07130648 6.8420432 1.03907747 6.85731451 1.00761835L6.90248245.919451743 6.9804998.839681957 7.04619862.759912171 7.1201098.688539205 7.19402097.625563058 7.28846303.562586911 7.33773714.528999633 7.3623742.528999633C7.41274562.505124964 7.46492835.48546791 7.5184089.470221896L7.57589537.470221896C7.6491079.444890668 7.72485658.427992451 7.80173507.419840978 7.86320447.414206857 7.92504361.414206857 7.98651301.419840978L8.0398933.419840978C8.5778024.570983731 8.92682739 1.12097541 9.24710915 1.5450148 10.6846669 3.47735052 11.6325846 5.74316725 12.0064597 8.14071657 12.2203155 9.1060698 12.3426976 10.0902467 12.3719094 11.0796034 12.3819721 11.3674205 12.2768446 11.6469938 12.0807948 11.8537857 11.884745 12.0605777 11.6147177 12.1767151 11.3330467 12.1753884z"/>
        <path fill="#2B3950" d="M85.079974,15.1142752 L1.84777936,15.1142752 C1.06042711,15.1142226 0.419615945,15.7619397 0.410617635,16.566925 L0.410617635,32.7098106 C0.410617635,32.7098106 0.410617635,32.7475963 0.410617635,32.7475963 C0.407759352,32.800736 0.407759352,32.8539962 0.410617635,32.9071359 C0.410617635,32.9533184 0.410617635,32.9995009 0.431148517,33.041485 C0.451679399,33.0834691 0.455785575,33.1254532 0.472210281,33.1716357 C0.488596856,33.2230748 0.507789085,33.2735347 0.52969675,33.3227785 L0.52969675,33.3647626 L7.70318684,48.0382048 C7.72562074,48.0828578 7.75029052,48.126299 7.77709801,48.1683555 L7.80173507,48.2103396 C7.84803451,48.2806297 7.90024407,48.3466551 7.95776977,48.4076648 L7.99883154,48.4454505 C8.04645822,48.4923873 8.09722385,48.5358761 8.15076006,48.5756012 L8.20414035,48.6133869 C8.27194775,48.6586529 8.3433757,48.697978 8.41766152,48.7309424 L8.45461711,48.7309424 C8.52009436,48.7569188 8.58734108,48.777967 8.65581975,48.7939185 L8.72562475,48.7939185 C8.80958176,48.8100571 8.894782,48.8184875 8.98020768,48.819109 L9.03358798,48.819109 C9.12888565,48.8175468 9.22379499,48.8062956 9.31691415,48.7855217 L9.3949315,48.7603312 C9.4694729,48.7398303 9.54225625,48.7131521 9.61255884,48.6805615 L9.64951443,48.6805615 L9.71931943,48.6343789 C9.7645717,48.60884 9.80843538,48.5808094 9.85071707,48.5504107 L9.95747766,48.4622441 L10.0560259,48.3656807 C10.0888753,48.3320934 10.1176185,48.2943078 10.1463618,48.2565221 C10.175105,48.2187364 10.1997421,48.1809507 10.2243791,48.143165 C10.2490162,48.1053793 10.2695471,48.0633952 10.2900779,48.0214111 C10.3114528,47.9776523 10.3306397,47.9328115 10.3475644,47.887062 C10.3475644,47.8450779 10.3763076,47.7988954 10.3886262,47.7527129 C10.4009447,47.7065304 10.4132632,47.6603479 10.4214756,47.6141654 C10.4241543,47.5624212 10.4241543,47.5105684 10.4214756,47.4588242 C10.4214756,47.4294353 10.4214756,47.4000465 10.4214756,47.3706576 L10.4214756,28.3056788 L85.079974,28.3056788 C85.8736965,28.3056788 86.5171358,27.6477865 86.5171358,26.8362353 L86.5171358,16.566925 C86.5081375,15.7619397 85.8673263,15.1142226 85.079974,15.1142752 Z"/>
      </g>
      <g fill-rule="nonzero" transform="rotate(-45 32.968 13.31)">
        <path fill="#949AA5" d="M24.0746003,56.4665404 L23.1286828,63.5432783 C23.1791271,64.0688446 19.3419963,68.2900065 18.9821602,68.6226434 L18.9821602,72.497863 C18.9821602,73.0433875 18.7333016,73.2762333 17.9900887,73.968118 L17.7244153,74.2175956 C17.3713051,86.0262047 17.3713051,86.0262047 17.3343126,86.1692385 C17.3196432,86.227142 17.300531,86.2838547 17.2771424,86.3388834 C17.2771424,86.3388834 16.9072174,87.210392 16.5339295,88.0852269 C16.348967,88.5243076 16.1572786,88.9600619 16.0126716,89.2926988 C15.693191,90.0178472 15.4880507,90.5400871 14.6843047,90.5400871 C13.8805586,90.5400871 13.6417889,89.9879099 13.339123,89.2893724 C13.1978789,88.9600619 13.0095535,88.5209813 12.824591,88.0819006 C12.454666,87.2070656 12.088104,86.3322306 12.088104,86.3322306 C12.0040302,86.119343 12.0040302,86.1160166 11.4155132,74.2142693 L11.1464768,73.9481598 C10.4234417,73.2363169 10.2048496,73.0234293 10.2048496,72.5011894 L10.2048496,68.5627688 C9.73067309,68.1203617 5.8565498,63.9923381 5.8565498,63.4933828 L4.72251539,56.4002186 C4.69971155,56.3772804 6.02095632,56.8967015 6.49290442,57.0016361 C10.0205483,57.785985 12.2366479,57.7285906 14.5604493,57.7285906 C17.2676275,57.7285906 19.2731971,57.7275832 22.440563,56.9369024 C22.7850967,56.8508952 24.1019937,56.4385673 24.0746003,56.4665404 Z"/>
        <path fill="#2B3950" d="M27.0964617,28.6198448 C29.0873307,26.1450264 29.0873307,26.1450264 29.1142343,25.7525149 C29.1142343,25.5629119 29.8305435,12.3539016 28.549258,5.66790042 C28.253318,4.16438175 27.2444317,2.12199134 24.0227216,0.964415014 C17.5692124,-1.36404311 5.46257713,1.05755334 3.08833144,2.62759939 C1.82049769,3.46584431 1.27233615,5.81758702 0.552663939,12.3505752 C0.159198293,15.9064634 -0.0324900983,17.9155901 0.00450239831,18.7970779 C0.0314060322,19.2893804 0.0314060322,19.2893804 2.30140014,21.4748047 C2.90673191,22.0602456 3.68021138,22.8053522 4.08712884,23.2111692 C4.18129156,30.0568361 4.24182474,41.7057794 4.03332158,43.415533 C1.61872043,46.8084291 1.67925361,50.37097 3.12532393,51.1759513 C6.46473749,53.0387178 10.7121487,53.3048273 14.3508652,53.3048273 C17.9895817,53.3048273 22.3378815,53.0453705 25.9127019,51.1925831 C27.2578836,50.5006984 27.883393,46.79845 25.6033101,43.4088802 C25.3746292,41.9486043 25.4687919,32.3087877 25.5629546,30.5192013 L27.0964617,28.6198448 Z"/>
      </g>
      <g fill-rule="nonzero" transform="translate(415.874 20.6)">
        <path fill="#2B3950" d="M54.9179914 39.0125284C50.8915794 41.1516859 40.5193152 42.6804705 28.3550142 42.6804705 16.1907131 42.6804705 5.81844891 41.1573903 1.7920369 39.0125284.635152317 39.6286058 0 40.2960229 0 40.9919621L0 51.3968242C0 54.517142 12.6973753 57.0442 28.3550142 57.0442 44.012653 57.0442 56.7100283 54.517142 56.7100283 51.3968242L56.7100283 40.9919621C56.7100283 40.2960229 56.074876 39.6286058 54.9179914 39.0125284zM28.3550142 0C12.6973753 0 0 2.52705806 0 5.6473758L0 16.0522379C0 19.1668512 12.6973753 21.676796 28.3550142 21.676796 44.012653 21.676796 56.7100283 19.149738 56.7100283 16.0294202L56.7100283 5.6473758C56.7100283 2.52705806 44.012653 0 28.3550142 0z"/>
        <path fill="#949AA5" d="M54.9179914,21.3402352 C50.8915794,23.4850972 40.5193152,25.0081773 28.3550142,25.0081773 C16.1907131,25.0081773 5.81844891,23.4850972 1.7920369,21.3402352 C0.635152317,21.9563126 0,22.6237297 0,23.319669 L0,33.7245311 C0,36.8448488 12.6973753,39.360498 28.3550142,39.360498 C44.012653,39.360498 56.7100283,36.83344 56.7100283,33.7131222 L56.7100283,23.319669 C56.7100283,22.6237297 56.074876,21.9563126 54.9179914,21.3402352 Z"/>
      </g>
      <g transform="translate(712.026 14.261)">
        <path fill="#2B3950" d="M2.3625 0L21.2666785-4.4408921e-16C22.5714512-6.8377207e-16 23.6291785 1.05772728 23.6291785 2.3625L23.6291785 15.8456111 0 15.8456111 0 2.3625C-1.59788574e-16 1.05772728 1.05772728 6.8377207e-16 2.3625 4.4408921e-16zM0 38.0294667L23.6291785 38.0294667 23.6291785 51.5125778C23.6291785 52.8173505 22.5714512 53.8750778 21.2666785 53.8750778L2.3625 53.8750778C1.05772728 53.8750778 1.04796699e-15 52.8173505 8.8817842e-16 51.5125778L0 38.0294667z"/>
        <rect width="4.726" height="7.923" x="9.452" y="57.044" fill="#949AA5"/>
        <rect width="23.629" height="15.846" y="19.015" fill="#949AA5"/>
        <rect width="17.328" height="4.754" x="3.151" y="64.967" fill="#949AA5" rx="2.362"/>
      </g>
      <g transform="translate(967.221 15.846)">
        <path fill="#2B3950" d="M45.2892587,34.8603445 L66.1616997,34.8603445 L66.1616997,30.1066611 L45.2892587,30.1066611 L45.2892587,34.8603445 Z M18.5788429,-1.61492903e-06 L63.7992036,-7.98196583e-05 C65.1039763,-8.19641154e-05 66.1617053,1.05764358 66.1617075,2.3624163 L66.1617036,64.1890667 C66.1617036,65.4938394 65.1039763,66.5515667 63.7992036,66.5515667 L2.3625,66.5515667 C1.05772728,66.5515667 1.04796699e-15,65.4938394 8.8817842e-16,64.1890667 L-4.4408921e-16,18.6744013 C-5.20527915e-16,18.0502319 0.247004047,17.4514252 0.687060023,17.0087762 L16.9034068,0.696873237 C17.3468529,0.250814115 17.9498651,-5.81173476e-07 18.5788429,-1.61492903e-06 Z M24.8106374,19.4108736 C21.7656292,19.4108736 19.2971624,21.8938862 19.2971624,24.9568375 L19.2971624,40.0101681 C19.2971624,43.0731194 21.7656292,45.556132 24.8106374,45.556132 L39.7757838,45.556132 C42.8207919,45.556132 45.2892587,43.0731194 45.2892587,40.0101681 L45.2892587,24.9568375 C45.2892587,21.8938862 42.8207919,19.4108736 39.7757838,19.4108736 L24.8106374,19.4108736 Z"/>
        <path fill="#949AA5" d="M24.8106374,24.164557 C24.3756362,24.164557 24.0229981,24.519273 24.0229981,24.9568375 L24.0229981,40.0101681 C24.0229981,40.4477326 24.3756362,40.8024486 24.8106374,40.8024486 L39.7757838,40.8024486 C40.2107849,40.8024486 40.563423,40.4477326 40.563423,40.0101681 L40.563423,24.9568375 C40.563423,24.519273 40.2107849,24.164557 39.7757838,24.164557 L24.8106374,24.164557 Z"/>
      </g>
      <g transform="translate(1123.174 20.6)">
        <path fill="#949AA5" d="M48.8336355,9.50736667 L23.6291785,9.50736667 L26.076961,1.65908363 C26.3847697,0.67216203 27.2985041,-2.54181633e-16 28.3323128,-4.4408921e-16 L44.1305012,4.4408921e-16 C45.1643099,2.54181633e-16 46.0780443,0.67216203 46.385853,1.65908363 L48.8336355,9.50736667 Z"/>
        <path fill="#2B3950" d="M2.3625,12.6764889 L70.100314,12.6764889 C71.4050867,12.6764889 72.462814,13.7342162 72.462814,15.0389889 L72.462814,54.6817 C72.462814,55.9864728 71.4050867,57.0442 70.100314,57.0442 L2.3625,57.0442 C1.05772728,57.0442 -2.50474669e-15,55.9864728 -2.66453526e-15,54.6817 L0,15.0389889 C-1.59788574e-16,13.7342162 1.05772728,12.6764889 2.3625,12.6764889 Z M36.231407,45.9522723 C42.3214233,45.9522723 47.2583569,40.986247 47.2583569,34.8603445 C47.2583569,28.7344419 42.3214233,23.7684167 36.231407,23.7684167 C30.1413907,23.7684167 25.204457,28.7344419 25.204457,34.8603445 C25.204457,40.986247 30.1413907,45.9522723 36.231407,45.9522723 Z"/>
      </g>
    </g>
    <g fill="#878F9E" transform="translate(115 216)">
      <g transform="translate(1279.126 14.261)">
        <path d="M3.15,1.10921212 L69.312814,1.10921212 C71.0525109,1.10921212 72.462814,2.51951516 72.462814,4.25921212 L72.462814,64.5107788 C72.462814,66.2504758 71.0525109,67.6607788 69.312814,67.6607788 L3.15,67.6607788 C1.41030304,67.6607788 6.43030037e-15,66.2504758 6.21724894e-15,64.5107788 L8.8817842e-16,4.25921212 C6.75126988e-16,2.51951516 1.41030304,1.10921212 3.15,1.10921212 Z M49.0776669,7.33690368 C48.5810904,7.03332742 48.0101159,6.87326489 47.4280976,6.8744764 L26.3397632,6.91837317 C25.7601714,6.91957963 25.1921485,7.08067226 24.6982162,7.38391974 L7.77219775,17.7755726 C6.84097753,18.347291 6.27257354,19.3607736 6.27030841,20.4534894 L6.21137312,48.8843162 C6.20909395,49.9838076 6.78027083,51.0049255 7.71835401,51.5784118 L24.5791462,61.8860621 C25.0757226,62.1896384 25.6466972,62.3497009 26.2287154,62.3484894 L47.3170498,62.3045926 C47.8966416,62.3033862 48.4646645,62.1422936 48.9585968,61.8390461 L65.8846153,51.4473933 C66.8158355,50.8756748 67.3842395,49.8621923 67.3865046,48.7694764 L67.4454399,20.3386497 C67.4477191,19.2391582 66.8765422,18.2180403 65.938459,17.644554 L49.0776669,7.33690368 Z"/>
        <path d="M21.9104395,22.1838556 L50.5523745,22.1838556 C51.3431458,22.1838556 51.9841926,22.8249024 51.9841926,23.6156738 L51.9841926,46.1050152 C51.9841926,46.8957865 51.3431458,47.5368334 50.5523745,47.5368334 L21.9104395,47.5368334 C21.1196682,47.5368334 20.4786213,46.8957865 20.4786213,46.1050152 L20.4786213,23.6156738 C20.4786213,22.8249024 21.1196682,22.1838556 21.9104395,22.1838556 Z M36.231407,41.1985889 C39.7114163,41.1985889 42.5325212,38.3608602 42.5325212,34.8603445 C42.5325212,31.3598287 39.7114163,28.5221 36.231407,28.5221 C32.7513977,28.5221 29.9302927,31.3598287 29.9302927,34.8603445 C29.9302927,38.3608602 32.7513977,41.1985889 36.231407,41.1985889 Z"/>
        <g transform="translate(9.452 11.092)">
          <ellipse cx="18.643" cy="3.169" rx="3.151" ry="3.169"/>
          <ellipse cx="3.151" cy="14.261" rx="3.151" ry="3.169"/>
          <ellipse cx="3.151" cy="33.276" rx="3.151" ry="3.169"/>
          <ellipse cx="50.409" cy="14.261" rx="3.151" ry="3.169"/>
          <ellipse cx="50.409" cy="33.276" rx="3.151" ry="3.169"/>
          <ellipse cx="18.643" cy="42.783" rx="3.151" ry="3.169"/>
          <ellipse cx="35.971" cy="3.169" rx="3.151" ry="3.169"/>
          <ellipse cx="35.971" cy="42.783" rx="3.151" ry="3.169"/>
        </g>
      </g>
      <g transform="translate(1435.079 3.17)">
        <path d="M63.0111426 58.6287612L63.0111426 68.9427501C63.0111426 70.2475228 61.9534153 71.3052501 60.6486426 71.3052501L2.3625 71.3052501C1.05772728 71.3052501 1.04796699e-15 70.2475228 8.8817842e-16 68.9427501L7.50590136e-16 58.6287612 8.34917139 58.6287612C8.95806532 58.6287612 9.45167139 58.1351551 9.45167139 57.5262612L9.45167139 53.3930167C9.45167139 52.7841228 8.95806532 52.2905167 8.34917139 52.2905167L0 52.2905167 3.91244223e-16 31.6912222 8.34917139 31.6912222C8.95806532 31.6912222 9.45167139 31.1976162 9.45167139 30.5887222L9.45167139 26.4554778C9.45167139 25.8465839 8.95806532 25.3529778 8.34917139 25.3529778L0 25.3529778 0 2.3625C-1.59788574e-16 1.05772728 1.05772728-2.4248524e-15 2.3625-2.66453526e-15L60.6486426-4.4408921e-16C61.9534153 3.95171182e-15 63.0111426 1.05772728 63.0111426 2.3625L63.0111426 25.3529778 54.6619712 25.3529778C54.0530773 25.3529778 53.5594712 25.8465839 53.5594712 26.4554778L53.5594712 30.5887222C53.5594712 31.1976162 54.0530773 31.6912222 54.6619712 31.6912222L63.0111426 31.6912222 63.0111426 52.2905167 54.6619712 52.2905167C54.0530773 52.2905167 53.5594712 52.7841228 53.5594712 53.3930167L53.5594712 57.5262612C53.5594712 58.1351551 54.0530773 58.6287612 54.6619712 58.6287612L63.0111426 58.6287612zM16.8552856 25.3529778C16.2463917 25.3529778 15.7527856 25.8465839 15.7527856 26.4554778L15.7527856 30.5887223C15.7527856 31.1976162 16.2463917 31.6912222 16.8552856 31.6912222L20.9513999 31.6912222C21.5602938 31.6912222 22.0538999 31.1976162 22.0538999 30.5887223L22.0538999 26.4554778C22.0538999 25.8465839 21.5602938 25.3529778 20.9513999 25.3529778L16.8552856 25.3529778zM16.8552856 12.6764889C16.2463917 12.6764889 15.7527856 13.170095 15.7527856 13.7789889L15.7527856 17.9122334C15.7527856 18.5211273 16.2463917 19.0147333 16.8552856 19.0147333L20.9513999 19.0147333C21.5602938 19.0147333 22.0538999 18.5211273 22.0538999 17.9122334L22.0538999 13.7789889C22.0538999 13.170095 21.5602938 12.6764889 20.9513999 12.6764889L16.8552856 12.6764889zM16.8552856 39.6140278C16.2463917 39.6140278 15.7527856 40.1076339 15.7527856 40.7165278L15.7527856 44.8497723C15.7527856 45.4586662 16.2463917 45.9522723 16.8552856 45.9522723L20.9513999 45.9522723C21.5602938 45.9522723 22.0538999 45.4586662 22.0538999 44.8497723L22.0538999 40.7165278C22.0538999 40.1076339 21.5602938 39.6140278 20.9513999 39.6140278L16.8552856 39.6140278zM29.4575141 25.3529778C28.8486202 25.3529778 28.3550142 25.8465839 28.3550142 26.4554778L28.3550142 30.5887223C28.3550142 31.1976162 28.8486202 31.6912222 29.4575141 31.6912222L33.5536284 31.6912222C34.1625224 31.6912222 34.6561284 31.1976162 34.6561284 30.5887223L34.6561284 26.4554778C34.6561284 25.8465839 34.1625224 25.3529778 33.5536284 25.3529778L29.4575141 25.3529778zM29.4575141 12.6764889C28.8486202 12.6764889 28.3550142 13.170095 28.3550142 13.7789889L28.3550142 17.9122334C28.3550142 18.5211273 28.8486202 19.0147333 29.4575141 19.0147333L33.5536284 19.0147333C34.1625224 19.0147333 34.6561284 18.5211273 34.6561284 17.9122334L34.6561284 13.7789889C34.6561284 13.170095 34.1625224 12.6764889 33.5536284 12.6764889L29.4575141 12.6764889zM29.4575141 39.6140278C28.8486202 39.6140278 28.3550142 40.1076339 28.3550142 40.7165278L28.3550142 44.8497723C28.3550142 45.4586662 28.8486202 45.9522723 29.4575141 45.9522723L33.5536284 45.9522723C34.1625224 45.9522723 34.6561284 45.4586662 34.6561284 44.8497723L34.6561284 40.7165278C34.6561284 40.1076339 34.1625224 39.6140278 33.5536284 39.6140278L29.4575141 39.6140278zM42.0597427 25.3529778C41.4508487 25.3529778 40.9572427 25.8465839 40.9572427 26.4554778L40.9572427 30.5887223C40.9572427 31.1976162 41.4508487 31.6912222 42.0597427 31.6912222L46.155857 31.6912222C46.7647509 31.6912222 47.2583569 31.1976162 47.2583569 30.5887223L47.2583569 26.4554778C47.2583569 25.8465839 46.7647509 25.3529778 46.155857 25.3529778L42.0597427 25.3529778zM42.0597427 12.6764889C41.4508487 12.6764889 40.9572427 13.170095 40.9572427 13.7789889L40.9572427 17.9122334C40.9572427 18.5211273 41.4508487 19.0147333 42.0597427 19.0147333L46.155857 19.0147333C46.7647509 19.0147333 47.2583569 18.5211273 47.2583569 17.9122334L47.2583569 13.7789889C47.2583569 13.170095 46.7647509 12.6764889 46.155857 12.6764889L42.0597427 12.6764889zM42.0597427 39.6140278C41.4508487 39.6140278 40.9572427 40.1076339 40.9572427 40.7165278L40.9572427 44.8497723C40.9572427 45.4586662 41.4508487 45.9522723 42.0597427 45.9522723L46.155857 45.9522723C46.7647509 45.9522723 47.2583569 45.4586662 47.2583569 44.8497723L47.2583569 40.7165278C47.2583569 40.1076339 46.7647509 39.6140278 46.155857 39.6140278L42.0597427 39.6140278zM16.8552856 52.2905167C16.2463917 52.2905167 15.7527856 52.7841228 15.7527856 53.3930167L15.7527856 57.5262612C15.7527856 58.1351551 16.2463917 58.6287612 16.8552856 58.6287612L20.9513999 58.6287612C21.5602938 58.6287612 22.0538999 58.1351551 22.0538999 57.5262612L22.0538999 53.3930167C22.0538999 52.7841228 21.5602938 52.2905167 20.9513999 52.2905167L16.8552856 52.2905167zM29.4575141 52.2905167C28.8486202 52.2905167 28.3550142 52.7841228 28.3550142 53.3930167L28.3550142 57.5262612C28.3550142 58.1351551 28.8486202 58.6287612 29.4575141 58.6287612L33.5536284 58.6287612C34.1625224 58.6287612 34.6561284 58.1351551 34.6561284 57.5262612L34.6561284 53.3930167C34.6561284 52.7841228 34.1625224 52.2905167 33.5536284 52.2905167L29.4575141 52.2905167zM42.0597427 52.2905167C41.4508487 52.2905167 40.9572427 52.7841228 40.9572427 53.3930167L40.9572427 57.5262612C40.9572427 58.1351551 41.4508487 58.6287612 42.0597427 58.6287612L46.155857 58.6287612C46.7647509 58.6287612 47.2583569 58.1351551 47.2583569 57.5262612L47.2583569 53.3930167C47.2583569 52.7841228 46.7647509 52.2905167 46.155857 52.2905167L42.0597427 52.2905167zM29.1426534 74.4743723L33.8684891 74.4743723 33.8684891 87.9570656C33.8684891 89.262069 32.8105748 90.3199834 31.5055713 90.3199834L31.5055713 90.3199834C30.2005678 90.3199834 29.1426534 89.262069 29.1426534 87.9570656L29.1426534 74.4743723zM42.5325212 74.4743723L47.2583569 74.4743723 47.2583569 87.9570656C47.2583569 89.262069 46.2004426 90.3199834 44.8954391 90.3199834L44.8954391 90.3199834C43.5904356 90.3199834 42.5325212 89.262069 42.5325212 87.9570656L42.5325212 74.4743723zM15.7527856 74.4743723L20.4786213 74.4743723 20.4786213 87.9570656C20.4786213 89.262069 19.420707 90.3199834 18.1157035 90.3199834L18.1157035 90.3199834C16.8107 90.3199834 15.7527856 89.262069 15.7527856 87.9570656L15.7527856 74.4743723z"/>
      </g>
      <g transform="translate(819.145 12.676)">
        <path fill-rule="nonzero" d="M67.7440451 34.8532118L66.1687665 36.4377729 66.1687665 34.8532118 67.7440451 34.8532118zM69.3193237 14.1284019L69.3193237 27.070187C68.804803 26.9829534 68.2761631 26.9375389 67.7369783 26.9375389 67.2027292 26.9375389 66.678833 26.9821257 66.1687665 27.0678018L66.1687665 14.1307871C66.678833 14.2164632 67.2027292 14.26105 67.7369783 14.26105 68.2761631 14.26105 68.804803 14.2156355 69.3193237 14.1284019zM58.4159895 3.16912222C58.3300429 3.68443493 58.2853069 4.21380402 58.2853069 4.75368334 58.2853069 5.29356266 58.3300429 5.82293175 58.4159895 6.33824445L45.5523957 6.33824445C45.6383424 5.82293175 45.6830784 5.29356266 45.6830784 4.75368334 45.6830784 4.21380402 45.6383424 3.68443493 45.5523957 3.16912222L58.4159895 3.16912222zM58.4148027 38.022334L47.1476992 38.022334C47.2206284 37.5070836 47.2583569 36.9804266 47.2583569 36.4449056 47.2583569 35.9044414 47.2199287 35.3730056 47.1456706 34.8532118L58.4171819 34.8532118C58.3304567 35.370772 58.2853069 35.9025351 58.2853069 36.4449056 58.2853069 36.9822943 58.3296311 37.5092696 58.4148027 38.022334zM58.4159895 66.5515667C58.3300429 67.0668794 58.2853069 67.5962485 58.2853069 68.1361278 58.2853069 68.6760071 58.3300429 69.2053762 58.4159895 69.7206889L45.5523957 69.7206889C45.6383424 69.2053762 45.6830784 68.6760071 45.6830784 68.1361278 45.6830784 67.5962485 45.6383424 67.0668794 45.5523957 66.5515667L58.4159895 66.5515667zM25.3151148 38.022334L14.0480113 38.022334C14.1331829 37.5092696 14.1775071 36.9822943 14.1775071 36.4449056 14.1775071 35.9025351 14.1323573 35.370772 14.045632 34.8532118L25.3171434 34.8532118C25.2428853 35.3730056 25.204457 35.9044414 25.204457 36.4449056 25.204457 36.9804266 25.2421856 37.5070836 25.3151148 38.022334zM26.9104183 66.5515667C26.8244716 67.0668794 26.7797356 67.5962485 26.7797356 68.1361278 26.7797356 68.6760071 26.8244716 69.2053762 26.9104183 69.7206889L14.0468244 69.7206889C14.1327711 69.2053762 14.1775071 68.6760071 14.1775071 68.1361278 14.1775071 67.5962485 14.1327711 67.0668794 14.0468244 66.5515667L26.9104183 66.5515667zM6.30111426 45.8208195L6.30111426 58.7602139C5.78882032 58.6737608 5.26255234 58.6287612 4.72583569 58.6287612 4.18911905 58.6287612 3.66285107 58.6737608 3.15055713 58.7602139L3.15055713 45.8208195C3.66285107 45.9072726 4.18911905 45.9522723 4.72583569 45.9522723 5.26255234 45.9522723 5.78882032 45.9072726 6.30111426 45.8208195zM14.0468244 3.16912222L26.9104183 3.16912222C26.8244716 3.68443493 26.7797356 4.21380402 26.7797356 4.75368334 26.7797356 5.29356266 26.8244716 5.82293175 26.9104183 6.33824445L14.0468244 6.33824445C14.1327711 5.82293175 14.1775071 5.29356266 14.1775071 4.75368334 14.1775071 4.21380402 14.1327711 3.68443493 14.0468244 3.16912222zM37.8066856 23.7684167L37.8066856 20.5992945C37.8066856 19.7241655 37.1014093 19.0147333 36.231407 19.0147333 35.3614047 19.0147333 34.6561284 19.7241655 34.6561284 20.5992945L34.6561284 23.7684167C34.6561284 24.6435456 35.3614047 25.3529778 36.231407 25.3529778 37.1014093 25.3529778 37.8066856 24.6435456 37.8066856 23.7684167zM37.8066856 52.2905167L37.8066856 49.1213945C37.8066856 48.2462655 37.1014093 47.5368334 36.231407 47.5368334 35.3614047 47.5368334 34.6561284 48.2462655 34.6561284 49.1213945L34.6561284 52.2905167C34.6561284 53.1656456 35.3614047 53.8750778 36.231407 53.8750778 37.1014093 53.8750778 37.8066856 53.1656456 37.8066856 52.2905167z"/>
        <path fill-rule="nonzero" d="M48.8500304,27.7133279 L48.8500304,24.5442057 C48.8500304,23.6690768 48.1447542,22.9596446 47.2747519,22.9596446 C46.4047495,22.9596446 45.6994733,23.6690768 45.6994733,24.5442057 L45.6994733,27.7133279 C45.6994733,28.5884569 46.4047495,29.297889 47.2747519,29.297889 C48.1447542,29.297889 48.8500304,28.5884569 48.8500304,27.7133279 Z" transform="rotate(45 47.275 26.129)"/>
        <path fill-rule="nonzero" d="M27.6471788,49.0411203 L27.6471788,45.8719981 C27.6471788,44.9968692 26.9419025,44.287437 26.0719002,44.287437 C25.2018979,44.287437 24.4966216,44.9968692 24.4966216,45.8719981 L24.4966216,49.0411203 C24.4966216,49.9162493 25.2018979,50.6256815 26.0719002,50.6256815 C26.9419025,50.6256815 27.6471788,49.9162493 27.6471788,49.0411203 Z" transform="rotate(45 26.072 47.457)"/>
        <path fill-rule="nonzero" d="M26.7633407,27.7133279 L26.7633407,24.5442057 C26.7633407,23.6690768 26.0580644,22.9596446 25.1880621,22.9596446 C24.3180598,22.9596446 23.6127835,23.6690768 23.6127835,24.5442057 L23.6127835,27.7133279 C23.6127835,28.5884569 24.3180598,29.297889 25.1880621,29.297889 C26.0580644,29.297889 26.7633407,28.5884569 26.7633407,27.7133279 Z" transform="scale(-1 1) rotate(45 0 -34.68)"/>
        <path fill-rule="nonzero" d="M47.9661923,49.0411203 L47.9661923,45.8719981 C47.9661923,44.9968692 47.2609161,44.287437 46.3909138,44.287437 C45.5209114,44.287437 44.8156352,44.9968692 44.8156352,45.8719981 L44.8156352,49.0411203 C44.8156352,49.9162493 45.5209114,50.6256815 46.3909138,50.6256815 C47.2609161,50.6256815 47.9661923,49.9162493 47.9661923,49.0411203 Z" transform="scale(-1 1) rotate(45 0 -64.541)"/>
        <path d="M36.231407 9.50736667C38.841414 9.50736667 40.9572427 7.37907015 40.9572427 4.75368334 40.9572427 2.12829652 38.841414 0 36.231407 0 33.6214 0 31.5055713 2.12829652 31.5055713 4.75368334 31.5055713 7.37907015 33.6214 9.50736667 36.231407 9.50736667zM4.72583569 9.50736667C7.33584268 9.50736667 9.45167139 7.37907015 9.45167139 4.75368334 9.45167139 2.12829652 7.33584268 0 4.72583569 0 2.11582871 0 0 2.12829652 0 4.75368334 0 7.37907015 2.11582871 9.50736667 4.72583569 9.50736667zM4.72583569 72.8898112C7.33584268 72.8898112 9.45167139 70.7615146 9.45167139 68.1361278 9.45167139 65.510741 7.33584268 63.3824445 4.72583569 63.3824445 2.11582871 63.3824445 0 65.510741 0 68.1361278 0 70.7615146 2.11582871 72.8898112 4.72583569 72.8898112zM4.72583569 41.1985889C7.33584268 41.1985889 9.45167139 39.0702924 9.45167139 36.4449056 9.45167139 33.8195188 7.33584268 31.6912222 4.72583569 31.6912222 2.11582871 31.6912222 0 33.8195188 0 36.4449056 0 39.0702924 2.11582871 41.1985889 4.72583569 41.1985889zM36.231407 72.8898112C38.841414 72.8898112 40.9572427 70.7615146 40.9572427 68.1361278 40.9572427 65.510741 38.841414 63.3824445 36.231407 63.3824445 33.6214 63.3824445 31.5055713 65.510741 31.5055713 68.1361278 31.5055713 70.7615146 33.6214 72.8898112 36.231407 72.8898112zM36.231407 42.78315C39.7114163 42.78315 42.5325212 39.9454213 42.5325212 36.4449056 42.5325212 32.9443898 39.7114163 30.1066611 36.231407 30.1066611 32.7513977 30.1066611 29.9302927 32.9443898 29.9302927 36.4449056 29.9302927 39.9454213 32.7513977 42.78315 36.231407 42.78315zM67.7369783 72.8898112C70.3469853 72.8898112 72.462814 70.7615146 72.462814 68.1361278 72.462814 65.510741 70.3469853 63.3824445 67.7369783 63.3824445 65.1269713 63.3824445 63.0111426 65.510741 63.0111426 68.1361278 63.0111426 70.7615146 65.1269713 72.8898112 67.7369783 72.8898112zM67.7369783 41.1985889C70.3469853 41.1985889 72.462814 39.0702924 72.462814 36.4449056 72.462814 33.8195188 70.3469853 31.6912222 67.7369783 31.6912222 65.1269713 31.6912222 63.0111426 33.8195188 63.0111426 36.4449056 63.0111426 39.0702924 65.1269713 41.1985889 67.7369783 41.1985889zM67.7369783 9.50736667C70.3469853 9.50736667 72.462814 7.37907015 72.462814 4.75368334 72.462814 2.12829652 70.3469853 0 67.7369783 0 65.1269713 0 63.0111426 2.12829652 63.0111426 4.75368334 63.0111426 7.37907015 65.1269713 9.50736667 67.7369783 9.50736667z"/>
      </g>
      <g transform="translate(556.073 15.846)">
        <path d="M60.0406173 38.0156088L72.462814 38.0160687 72.462814 64.4777642C72.462814 65.6230937 71.534341 66.5515667 70.3890115 66.5515667L2.0738025 66.5515667C.928473005 66.5515667-3.038268e-16 65.6230937-4.4408921e-16 64.4777642L1.13690659e-15 38.0133859 12.4221967 38.0138458 12.4221967 40.1809702C12.4221967 41.3262997 13.3506697 42.2547727 14.4959992 42.2547727L16.5594925 42.2547727C17.704822 42.2547727 18.633295 41.3262997 18.633295 40.1809702L18.633295 38.0140758 30.0203086 38.0144973 30.0203086 35.9296627 18.633295 35.9296627 18.633295 33.7647612C18.633295 32.6194317 17.704822 31.6909587 16.5594925 31.6909587L14.4959992 31.6909587C13.3506697 31.6909587 12.4221967 32.6194317 12.4221967 33.7647612L12.4221967 35.9296627 0 35.9296627 1.77635684e-15 27.309592C1.2153072e-15 22.728274 3.71389202 19.014382 8.29521 19.014382L64.167604 19.014382C68.748922 19.014382 72.462814 22.728274 72.462814 27.309592L72.462814 35.9296627 60.0406173 35.9296627 60.0406173 33.7647612C60.0406173 32.6194317 59.1121443 31.6909587 57.9668148 31.6909587L55.9033215 31.6909587C54.757992 31.6909587 53.829519 32.6194317 53.829519 33.7647612L53.829519 35.9296627 42.4425053 35.9296627 42.4425053 38.0149573 53.829519 38.0153789 53.829519 40.1809702C53.829519 41.3262997 54.757992 42.2547727 55.9033215 42.2547727L57.9668148 42.2547727C59.1121443 42.2547727 60.0406173 41.3262997 60.0406173 40.1809702L60.0406173 38.0156088zM30.0203086 35.9296627L42.4425053 35.9296627 42.4425053 34.8211426C42.4425053 33.6758131 41.5140323 32.7473401 40.3687028 32.7473401L32.0941111 32.7473401C30.9487817 32.7473401 30.0203086 33.6758131 30.0203086 34.8211426L30.0203086 35.9296627zM30.0203086 38.0144973L30.0203086 39.1245888C30.0203086 40.2699183 30.9487817 41.1983913 32.0941111 41.1983913L40.3687028 41.1983913C41.5140323 41.1983913 42.4425053 40.2699183 42.4425053 39.1245888L42.4425053 38.0149573 30.0203086 38.0144973zM26.928505 4.18477644e-14L45.534309 4.26325641e-14C50.1156269 4.17910064e-14 53.829519 3.71389202 53.829519 8.29521L53.829519 15.8457209 18.633295 15.8457209 18.633295 8.29521C18.633295 3.71389202 22.347187 4.52504787e-14 26.928505 4.4408921e-14zM30.0254632 8.45076292C28.307469 8.45076292 26.9147595 9.84347243 26.9147595 11.5614667L26.9147595 15.8454327 45.5480545 15.8454327 45.5480545 11.5614667C45.5480545 9.84347243 44.155345 8.45076292 42.4373507 8.45076292L30.0254632 8.45076292z"/>
      </g>
      <g fill-rule="nonzero" transform="translate(272.523 12.676)">
        <path d="M57.5041688 12.2069232C57.2036951 10.4414902 56.223216 8.8680871 54.7771865 7.83085638 54.6061563 7.67731018 36.876021-5.15339446 2.10937301 4.63517602 1.53023461 4.80921149 1.09922031 5.30034373.997676424 5.9019322.541595773 8.12835215 3.14505616 17.7537798 10.6133768 23.8284515 11.6950201 24.7017233 13.0297502 25.1937685 14.4140489 25.2295606 17.264553 25.3447202 21.1602419 25.4598799 25.4550013 25.4598799 36.1919 25.4598799 49.2092019 24.740132 53.009874 21.4484853 53.5609715 20.9782501 58.2643032 17.2163681 57.5041688 12.2069232zM20.4222367 30.1635031C22.0032423 30.1942375 23.6956365 30.2135632 25.4550013 30.2135632 36.0722306 30.2135632 48.9193134 29.50977 52.8793726 26.3112751 52.1562139 27.1695217 49.7531522 30.3429153 50.929006 33.3036806L51.0715312 33.6683528C54.0075504 41.0769571 59.4805182 54.8865188 59.4900199 63.3123667 59.4900199 67.304568 56.8865595 71.1144332 53.6844933 71.8149877 51.5359655 72.1727877 49.3628457 72.3588997 47.185344 72.3715927 44.9524492 72.3715927 42.8430762 72.1124835 41.8929081 71.2487861 41.40656 70.8022557 41.1745752 70.1389974 41.2752989 69.4830048 41.4073787 68.8829889 41.65606 68.3154179 42.0069283 67.8131898 42.8240728 66.4984504 44.0402879 64.4063834 43.0901198 59.780804 41.6838712 53.053561 38.2537646 42.2477469 34.8426614 38.0828061 33.7950654 39.3330322 32.3258793 40.1467667 30.7189322 40.3668059 30.5493283 40.3693093 30.3801006 40.3499599 30.2153431 40.3092261 29.438553 40.1102254 28.8970291 39.4007942 28.9041113 38.5914279 28.9041113 34.429101 23.0253774 31.2474396 20.4222367 30.1635031z"/>
      </g>
      <g fill-rule="nonzero" transform="rotate(45 81.578 198.075)">
        <path d="M26.0619013 31.2403672L19.0814015 31.2403672C18.287679 31.2403672 17.6442398 31.8982594 17.6442398 32.7098106L17.6442398 47.3832528C17.6442398 47.4126417 17.6442398 47.4420306 17.6442398 47.4714194 17.6415611 47.5231636 17.6415611 47.5750164 17.6442398 47.6267606 17.6442398 47.6729431 17.6442398 47.7191256 17.6770892 47.7653081 17.7099386 47.8114906 17.7017263 47.8534747 17.718151 47.8996572 17.7350757 47.9454067 17.7542626 47.9902475 17.7756374 48.0340063 17.7756374 48.0759904 17.8166992 48.1179745 17.8413363 48.1557602 17.8659733 48.1935459 17.8906104 48.2313316 17.9193536 48.2691173 17.9480968 48.306903 17.9768401 48.3446887 18.0096895 48.3782759L18.1082377 48.4748394 18.2149983 48.563006C18.25728 48.5934046 18.3011437 48.6214352 18.3463959 48.6469742L18.4162009 48.6931567 18.4531565 48.6931567C18.5234591 48.7257473 18.5962425 48.7524255 18.6707839 48.7729265L18.7488012 48.7981169C18.8419204 48.8188909 18.9368297 48.830142 19.0321274 48.8317042L19.0567645 48.8317042C19.1421901 48.8310828 19.2273904 48.8226524 19.3113474 48.8065137L19.3811524 48.8065137C19.4496311 48.7905622 19.5168778 48.7695141 19.582355 48.7435376L19.6193106 48.7435376C19.6935964 48.7105732 19.7650244 48.6712481 19.8328318 48.6259821L19.8862121 48.5881964C19.9397483 48.5484713 19.9905139 48.5049826 20.0381406 48.4580457L20.0792024 48.42026C20.1367281 48.3592504 20.1889376 48.2932249 20.2352371 48.2229348L20.2598741 48.1809507C20.2866816 48.1388942 20.3113514 48.095453 20.3337853 48.0508L27.1130825 34.1960477C27.3452197 33.7420405 27.4703646 33.2388431 27.4785322 32.7266043 27.4876661 31.91665 26.8540345 31.2518849 26.0619013 31.2403672zM16.835323 12.1753884L20.3666347 12.1753884C20.9381149 12.1753884 21.4013912 11.701706 21.4013912 11.1173891L21.4013912 1.47784024C21.4013912 1.4568482 21.4013912 1.43585615 21.4013912 1.4148641 21.4033723 1.37710556 21.4033723 1.33926557 21.4013912 1.30150703 21.4013912 1.26791975 21.4013912 1.23433248 21.3808603 1.2007452 21.3603294 1.16715792 21.3808603 1.13776905 21.352117 1.10418177 21.3400314 1.07130648 21.3263266 1.03907747 21.3110553 1.00761835L21.2658873.919451743 21.1796576.839681957 21.1139588.759912171 21.0400476.688539205 20.9661365.625563058 20.8716944.566785321 20.8183141.533198043 20.7936771.533198043C20.7433056.509323374 20.6911229.48966632 20.6376424.474420306L20.5801559.474420306C20.5127093.459063069 20.4439324.450624458 20.3748471.449229847 20.3133777.443595726 20.2515385.443595726 20.1900691.449229847L20.1202641.449229847C19.582355.600372599 19.23333 1.15036428 18.9130483 1.57440367 17.4754905 3.50673939 16.5275728 5.77255612 16.1536978 8.17010544 15.9398419 9.13545867 15.8174598 10.1196356 15.7882481 11.1089923 15.7860218 11.39324 15.8957569 11.6664467 16.0927269 11.8670513 16.289697 12.0676559 16.5573308 12.1787815 16.835323 12.1753884zM11.3330467 12.1753884L7.80173507 12.1753884C7.23025487 12.1753884 6.76697863 11.701706 6.76697863 11.1173891L6.76697863 1.47784024C6.76697863 1.4568482 6.76697863 1.43585615 6.76697863 1.4148641 6.76499744 1.37710556 6.76499744 1.33926557 6.76697863 1.30150703 6.76697863 1.26791975 6.76697863 1.23433248 6.78750951 1.2007452 6.80804039 1.16715792 6.78750951 1.13776905 6.81625275 1.10418177 6.82833842 1.07130648 6.8420432 1.03907747 6.85731451 1.00761835L6.90248245.919451743 6.9804998.839681957 7.04619862.759912171 7.1201098.688539205 7.19402097.625563058 7.28846303.562586911 7.33773714.528999633 7.3623742.528999633C7.41274562.505124964 7.46492835.48546791 7.5184089.470221896L7.57589537.470221896C7.6491079.444890668 7.72485658.427992451 7.80173507.419840978 7.86320447.414206857 7.92504361.414206857 7.98651301.419840978L8.0398933.419840978C8.5778024.570983731 8.92682739 1.12097541 9.24710915 1.5450148 10.6846669 3.47735052 11.6325846 5.74316725 12.0064597 8.14071657 12.2203155 9.1060698 12.3426976 10.0902467 12.3719094 11.0796034 12.3819721 11.3674205 12.2768446 11.6469938 12.0807948 11.8537857 11.884745 12.0605777 11.6147177 12.1767151 11.3330467 12.1753884z"/>
        <path d="M85.079974,15.1142752 L1.84777936,15.1142752 C1.06042711,15.1142226 0.419615945,15.7619397 0.410617635,16.566925 L0.410617635,32.7098106 C0.410617635,32.7098106 0.410617635,32.7475963 0.410617635,32.7475963 C0.407759352,32.800736 0.407759352,32.8539962 0.410617635,32.9071359 C0.410617635,32.9533184 0.410617635,32.9995009 0.431148517,33.041485 C0.451679399,33.0834691 0.455785575,33.1254532 0.472210281,33.1716357 C0.488596856,33.2230748 0.507789085,33.2735347 0.52969675,33.3227785 L0.52969675,33.3647626 L7.70318684,48.0382048 C7.72562074,48.0828578 7.75029052,48.126299 7.77709801,48.1683555 L7.80173507,48.2103396 C7.84803451,48.2806297 7.90024407,48.3466551 7.95776977,48.4076648 L7.99883154,48.4454505 C8.04645822,48.4923873 8.09722385,48.5358761 8.15076006,48.5756012 L8.20414035,48.6133869 C8.27194775,48.6586529 8.3433757,48.697978 8.41766152,48.7309424 L8.45461711,48.7309424 C8.52009436,48.7569188 8.58734108,48.777967 8.65581975,48.7939185 L8.72562475,48.7939185 C8.80958176,48.8100571 8.894782,48.8184875 8.98020768,48.819109 L9.03358798,48.819109 C9.12888565,48.8175468 9.22379499,48.8062956 9.31691415,48.7855217 L9.3949315,48.7603312 C9.4694729,48.7398303 9.54225625,48.7131521 9.61255884,48.6805615 L9.64951443,48.6805615 L9.71931943,48.6343789 C9.7645717,48.60884 9.80843538,48.5808094 9.85071707,48.5504107 L9.95747766,48.4622441 L10.0560259,48.3656807 C10.0888753,48.3320934 10.1176185,48.2943078 10.1463618,48.2565221 C10.175105,48.2187364 10.1997421,48.1809507 10.2243791,48.143165 C10.2490162,48.1053793 10.2695471,48.0633952 10.2900779,48.0214111 C10.3114528,47.9776523 10.3306397,47.9328115 10.3475644,47.887062 C10.3475644,47.8450779 10.3763076,47.7988954 10.3886262,47.7527129 C10.4009447,47.7065304 10.4132632,47.6603479 10.4214756,47.6141654 C10.4241543,47.5624212 10.4241543,47.5105684 10.4214756,47.4588242 C10.4214756,47.4294353 10.4214756,47.4000465 10.4214756,47.3706576 L10.4214756,28.3056788 L85.079974,28.3056788 C85.8736965,28.3056788 86.5171358,27.6477865 86.5171358,26.8362353 L86.5171358,16.566925 C86.5081375,15.7619397 85.8673263,15.1142226 85.079974,15.1142752 Z"/>
      </g>
      <g fill-rule="nonzero" transform="rotate(-45 32.968 13.31)">
        <path d="M24.0746003 56.4665404L23.1286828 63.5432783C23.1791271 64.0688446 19.3419963 68.2900065 18.9821602 68.6226434L18.9821602 72.497863C18.9821602 73.0433875 18.7333016 73.2762333 17.9900887 73.968118L17.7244153 74.2175956C17.3713051 86.0262047 17.3713051 86.0262047 17.3343126 86.1692385 17.3196432 86.227142 17.300531 86.2838547 17.2771424 86.3388834 17.2771424 86.3388834 16.9072174 87.210392 16.5339295 88.0852269 16.348967 88.5243076 16.1572786 88.9600619 16.0126716 89.2926988 15.693191 90.0178472 15.4880507 90.5400871 14.6843047 90.5400871 13.8805586 90.5400871 13.6417889 89.9879099 13.339123 89.2893724 13.1978789 88.9600619 13.0095535 88.5209813 12.824591 88.0819006 12.454666 87.2070656 12.088104 86.3322306 12.088104 86.3322306 12.0040302 86.119343 12.0040302 86.1160166 11.4155132 74.2142693L11.1464768 73.9481598C10.4234417 73.2363169 10.2048496 73.0234293 10.2048496 72.5011894L10.2048496 68.5627688C9.73067309 68.1203617 5.8565498 63.9923381 5.8565498 63.4933828L4.72251539 56.4002186C4.69971155 56.3772804 6.02095632 56.8967015 6.49290442 57.0016361 10.0205483 57.785985 12.2366479 57.7285906 14.5604493 57.7285906 17.2676275 57.7285906 19.2731971 57.7275832 22.440563 56.9369024 22.7850967 56.8508952 24.1019937 56.4385673 24.0746003 56.4665404zM27.0964617 28.6198448C29.0873307 26.1450264 29.0873307 26.1450264 29.1142343 25.7525149 29.1142343 25.5629119 29.8305435 12.3539016 28.549258 5.66790042 28.253318 4.16438175 27.2444317 2.12199134 24.0227216.964415014 17.5692124-1.36404311 5.46257713 1.05755334 3.08833144 2.62759939 1.82049769 3.46584431 1.27233615 5.81758702.552663939 12.3505752.159198293 15.9064634-.0324900983 17.9155901.00450239831 18.7970779.0314060322 19.2893804.0314060322 19.2893804 2.30140014 21.4748047 2.90673191 22.0602456 3.68021138 22.8053522 4.08712884 23.2111692 4.18129156 30.0568361 4.24182474 41.7057794 4.03332158 43.415533 1.61872043 46.8084291 1.67925361 50.37097 3.12532393 51.1759513 6.46473749 53.0387178 10.7121487 53.3048273 14.3508652 53.3048273 17.9895817 53.3048273 22.3378815 53.0453705 25.9127019 51.1925831 27.2578836 50.5006984 27.883393 46.79845 25.6033101 43.4088802 25.3746292 41.9486043 25.4687919 32.3087877 25.5629546 30.5192013L27.0964617 28.6198448z"/>
      </g>
      <g fill-rule="nonzero" transform="translate(415.874 20.6)">
        <path d="M54.9179914 39.0125284C50.8915794 41.1516859 40.5193152 42.6804705 28.3550142 42.6804705 16.1907131 42.6804705 5.81844891 41.1573903 1.7920369 39.0125284.635152317 39.6286058 0 40.2960229 0 40.9919621L0 51.3968242C0 54.517142 12.6973753 57.0442 28.3550142 57.0442 44.012653 57.0442 56.7100283 54.517142 56.7100283 51.3968242L56.7100283 40.9919621C56.7100283 40.2960229 56.074876 39.6286058 54.9179914 39.0125284zM28.3550142 0C12.6973753 0 0 2.52705806 0 5.6473758L0 16.0522379C0 19.1668512 12.6973753 21.676796 28.3550142 21.676796 44.012653 21.676796 56.7100283 19.149738 56.7100283 16.0294202L56.7100283 5.6473758C56.7100283 2.52705806 44.012653 0 28.3550142 0z"/>
        <path d="M54.9179914,21.3402352 C50.8915794,23.4850972 40.5193152,25.0081773 28.3550142,25.0081773 C16.1907131,25.0081773 5.81844891,23.4850972 1.7920369,21.3402352 C0.635152317,21.9563126 0,22.6237297 0,23.319669 L0,33.7245311 C0,36.8448488 12.6973753,39.360498 28.3550142,39.360498 C44.012653,39.360498 56.7100283,36.83344 56.7100283,33.7131222 L56.7100283,23.319669 C56.7100283,22.6237297 56.074876,21.9563126 54.9179914,21.3402352 Z"/>
      </g>
      <path d="M726.203418,79.2280556 L730.142033,79.2280556 C731.446805,79.2280556 732.504533,80.2857829 732.504533,81.5905556 L732.504533,81.6192389 C732.504533,82.9240117 731.446805,83.9817389 730.142033,83.9817389 L717.538968,83.9817389 C716.234196,83.9817389 715.176468,82.9240117 715.176468,81.6192389 L715.176468,81.5905556 C715.176468,80.2857829 716.234196,79.2280556 717.538968,79.2280556 L721.477583,79.2280556 L721.477583,71.3052501 L726.203418,71.3052501 L726.203418,79.2280556 Z M714.388411,14.26105 L733.29259,14.26105 C734.597362,14.26105 735.65509,15.3187773 735.65509,16.62355 L735.65509,30.1066611 L712.025911,30.1066611 L712.025911,16.62355 C712.025911,15.3187773 713.083638,14.26105 714.388411,14.26105 Z M712.025911,52.2905167 L735.65509,52.2905167 L735.65509,65.7736278 C735.65509,67.0784005 734.597362,68.1361278 733.29259,68.1361278 L714.388411,68.1361278 C713.083638,68.1361278 712.025911,67.0784005 712.025911,65.7736278 L712.025911,52.2905167 Z M712.025911,33.2757834 L735.65509,33.2757834 L735.65509,49.1213945 L712.025911,49.1213945 L712.025911,33.2757834 Z"/>
      <g transform="translate(967.221 15.846)">
        <path d="M45.2892587,34.8603445 L66.1616997,34.8603445 L66.1616997,30.1066611 L45.2892587,30.1066611 L45.2892587,34.8603445 Z M18.5788429,-1.61492903e-06 L63.7992036,-7.98196583e-05 C65.1039763,-8.19641154e-05 66.1617053,1.05764358 66.1617075,2.3624163 L66.1617036,64.1890667 C66.1617036,65.4938394 65.1039763,66.5515667 63.7992036,66.5515667 L2.3625,66.5515667 C1.05772728,66.5515667 1.04796699e-15,65.4938394 8.8817842e-16,64.1890667 L4.4408921e-16,18.6744013 C1.19921119e-15,18.0502319 0.247004047,17.4514252 0.687060023,17.0087762 L16.9034068,0.696873237 C17.3468529,0.250814115 17.9498651,-5.81173476e-07 18.5788429,-1.61492903e-06 Z M24.8106374,19.4108736 C21.7656292,19.4108736 19.2971624,21.8938862 19.2971624,24.9568375 L19.2971624,40.0101681 C19.2971624,43.0731194 21.7656292,45.556132 24.8106374,45.556132 L39.7757838,45.556132 C42.8207919,45.556132 45.2892587,43.0731194 45.2892587,40.0101681 L45.2892587,24.9568375 C45.2892587,21.8938862 42.8207919,19.4108736 39.7757838,19.4108736 L24.8106374,19.4108736 Z"/>
        <path d="M24.8106374,24.164557 C24.3756362,24.164557 24.0229981,24.519273 24.0229981,24.9568375 L24.0229981,40.0101681 C24.0229981,40.4477326 24.3756362,40.8024486 24.8106374,40.8024486 L39.7757838,40.8024486 C40.2107849,40.8024486 40.563423,40.4477326 40.563423,40.0101681 L40.563423,24.9568375 C40.563423,24.519273 40.2107849,24.164557 39.7757838,24.164557 L24.8106374,24.164557 Z"/>
      </g>
      <g transform="translate(1123.174 20.6)">
        <path d="M48.8336355 9.50736667L23.6291785 9.50736667 26.076961 1.65908363C26.3847697.67216203 27.2985041-2.54181633e-16 28.3323128-4.4408921e-16L44.1305012 4.4408921e-16C45.1643099 2.54181633e-16 46.0780443.67216203 46.385853 1.65908363L48.8336355 9.50736667zM2.3625 12.6764889L70.100314 12.6764889C71.4050867 12.6764889 72.462814 13.7342162 72.462814 15.0389889L72.462814 54.6817C72.462814 55.9864728 71.4050867 57.0442 70.100314 57.0442L2.3625 57.0442C1.05772728 57.0442-2.50474669e-15 55.9864728-2.66453526e-15 54.6817L0 15.0389889C-1.59788574e-16 13.7342162 1.05772728 12.6764889 2.3625 12.6764889zM36.231407 45.9522723C42.3214233 45.9522723 47.2583569 40.986247 47.2583569 34.8603445 47.2583569 28.7344419 42.3214233 23.7684167 36.231407 23.7684167 30.1413907 23.7684167 25.204457 28.7344419 25.204457 34.8603445 25.204457 40.986247 30.1413907 45.9522723 36.231407 45.9522723z"/>
      </g>
    </g>
  </g>
</svg>
