<svg height="377" viewBox="0 0 1728 377" width="1728" xmlns="http://www.w3.org/2000/svg"><g fill="none" fill-rule="evenodd"><rect fill="#2b3950" height="376.127" rx="4.2" width="1728" y=".873"/><g transform="translate(934.145 76.676)"><g fill-rule="nonzero"><path d="m67.7440451 34.8532118-1.5752786 1.5845611v-1.5845611zm1.5752786-20.7248099v12.9417851c-.5145207-.0872336-1.0431606-.1326481-1.5823454-.1326481-.5342491 0-1.0581453.0445868-1.5682118.1302629v-12.9370147c.5100665.0856761 1.0339627.1302629 1.5682118.1302629.5391848 0 1.0678247-.0454145 1.5823454-.1326481zm-10.9033342-10.95927968c-.0859466.51531271-.1306826 1.0446818-.1306826 1.58456112s.044736 1.06924841.1306826 1.58456111h-12.8635938c.0859467-.5153127.1306827-1.04468179.1306827-1.58456111s-.044736-1.06924841-.1306827-1.58456112zm-.0011868 34.85321178h-11.2671035c.0729292-.5152504.1106577-1.0419074.1106577-1.5774284 0-.5404642-.0384282-1.0719-.1126863-1.5916938h11.2715113c-.0867252.5175602-.131875 1.0493233-.131875 1.5916938 0 .5373887.0443242 1.064364.1294958 1.5774284zm.0011868 28.5292327c-.0859466.5153127-.1306826 1.0446818-.1306826 1.5845611s.044736 1.0692484.1306826 1.5845611h-12.8635938c.0859467-.5153127.1306827-1.0446818.1306827-1.5845611s-.044736-1.0692484-.1306827-1.5845611zm-33.1008747-28.5292327h-11.2671035c.0851716-.5130644.1294958-1.0400397.1294958-1.5774284 0-.5423705-.0451498-1.0741336-.1318751-1.5916938h11.2715114c-.0742581.5197938-.1126864 1.0512296-.1126864 1.5916938 0 .535521.0377286 1.062178.1106578 1.5774284zm1.5953035 28.5292327c-.0859467.5153127-.1306827 1.0446818-.1306827 1.5845611s.044736 1.0692484.1306827 1.5845611h-12.8635939c.0859467-.5153127.1306827-1.0446818.1306827-1.5845611s-.044736-1.0692484-.1306827-1.5845611zm-20.60930404-20.7307472v12.9393944c-.51229394-.0864531-1.03856192-.1314527-1.57527857-.1314527-.53671664 0-1.06298462.0449996-1.57527856.1314527v-12.9393944c.51229394.0864531 1.03856192.1314528 1.57527856.1314528.53671665 0 1.06298463-.0449997 1.57527857-.1314528zm7.74571014-42.65169728h12.8635939c-.0859467.51531271-.1306827 1.0446818-.1306827 1.58456112s.044736 1.06924841.1306827 1.58456111h-12.8635939c.0859467-.5153127.1306827-1.04468179.1306827-1.58456111s-.044736-1.06924841-.1306827-1.58456112z" fill="#b9bec5"/><path d="m37.8066856 23.7684167v-3.1691222c0-.875129-.7052763-1.5845612-1.5752786-1.5845612s-1.5752786.7094322-1.5752786 1.5845612v3.1691222c0 .8751289.7052763 1.5845611 1.5752786 1.5845611s1.5752786-.7094322 1.5752786-1.5845611z" fill="#fafbfc"/><path d="m37.8066856 52.2905167v-3.1691222c0-.875129-.7052763-1.5845611-1.5752786-1.5845611s-1.5752786.7094321-1.5752786 1.5845611v3.1691222c0 .8751289.7052763 1.5845611 1.5752786 1.5845611s1.5752786-.7094322 1.5752786-1.5845611z" fill="#fff"/><g fill="#fafbfc"><path d="m48.8500304 27.7133279v-3.1691222c0-.8751289-.7052762-1.5845611-1.5752785-1.5845611-.8700024 0-1.5752786.7094322-1.5752786 1.5845611v3.1691222c0 .875129.7052762 1.5845611 1.5752786 1.5845611.8700023 0 1.5752785-.7094321 1.5752785-1.5845611z" transform="matrix(.70710678 .70710678 -.70710678 .70710678 32.32252 -25.775466)"/><path d="m27.6471788 49.0411203v-3.1691222c0-.8751289-.7052763-1.5845611-1.5752786-1.5845611s-1.5752786.7094322-1.5752786 1.5845611v3.1691222c0 .875129.7052763 1.5845612 1.5752786 1.5845612s1.5752786-.7094322 1.5752786-1.5845612z" transform="matrix(.70710678 .70710678 -.70710678 .70710678 41.193479 -4.535855)"/><path d="m26.7633407 27.7133279v-3.1691222c0-.8751289-.7052763-1.5845611-1.5752786-1.5845611s-1.5752786.7094322-1.5752786 1.5845611v3.1691222c0 .875129.7052763 1.5845611 1.5752786 1.5845611s1.5752786-.7094321 1.5752786-1.5845611z" transform="matrix(-.70710678 .70710678 .70710678 .70710678 24.522463 -10.157537)"/><path d="m47.9661923 49.0411203v-3.1691222c0-.8751289-.7052762-1.5845611-1.5752785-1.5845611-.8700024 0-1.5752786.7094322-1.5752786 1.5845611v3.1691222c0 .875129.7052762 1.5845612 1.5752786 1.5845612.8700023 0 1.5752785-.7094322 1.5752785-1.5845612z" transform="matrix(-.70710678 .70710678 .70710678 .70710678 45.637379 -18.903621)"/></g></g><path d="m36.231407 9.50736667c2.610007 0 4.7258357-2.12829652 4.7258357-4.75368333 0-2.62538682-2.1158287-4.75368334-4.7258357-4.75368334s-4.7258357 2.12829652-4.7258357 4.75368334c0 2.62538681 2.1158287 4.75368333 4.7258357 4.75368333zm-31.50557131 0c2.61000699 0 4.7258357-2.12829652 4.7258357-4.75368333 0-2.62538682-2.11582871-4.75368334-4.7258357-4.75368334-2.61000698 0-4.72583569 2.12829652-4.72583569 4.75368334 0 2.62538681 2.11582871 4.75368333 4.72583569 4.75368333zm0 63.38244453c2.61000699 0 4.7258357-2.1282966 4.7258357-4.7536834s-2.11582871-4.7536833-4.7258357-4.7536833c-2.61000698 0-4.72583569 2.1282965-4.72583569 4.7536833s2.11582871 4.7536834 4.72583569 4.7536834zm0-31.6912223c2.61000699 0 4.7258357-2.1282965 4.7258357-4.7536833s-2.11582871-4.7536834-4.7258357-4.7536834c-2.61000698 0-4.72583569 2.1282966-4.72583569 4.7536834s2.11582871 4.7536833 4.72583569 4.7536833zm31.50557131 31.6912223c2.610007 0 4.7258357-2.1282966 4.7258357-4.7536834s-2.1158287-4.7536833-4.7258357-4.7536833-4.7258357 2.1282965-4.7258357 4.7536833 2.1158287 4.7536834 4.7258357 4.7536834z" fill="#b9bec5"/><path d="m36.231407 42.78315c3.4800093 0 6.3011142-2.8377287 6.3011142-6.3382444 0-3.5005158-2.8211049-6.3382445-6.3011142-6.3382445s-6.3011143 2.8377287-6.3011143 6.3382445c0 3.5005157 2.821105 6.3382444 6.3011143 6.3382444z" fill="#fafbfc"/><path d="m67.7369783 72.8898112c2.610007 0 4.7258357-2.1282966 4.7258357-4.7536834s-2.1158287-4.7536833-4.7258357-4.7536833-4.7258357 2.1282965-4.7258357 4.7536833 2.1158287 4.7536834 4.7258357 4.7536834zm0-31.6912223c2.610007 0 4.7258357-2.1282965 4.7258357-4.7536833s-2.1158287-4.7536834-4.7258357-4.7536834-4.7258357 2.1282966-4.7258357 4.7536834 2.1158287 4.7536833 4.7258357 4.7536833zm0-31.69122223c2.610007 0 4.7258357-2.12829652 4.7258357-4.75368333 0-2.62538682-2.1158287-4.75368334-4.7258357-4.75368334s-4.7258357 2.12829652-4.7258357 4.75368334c0 2.62538681 2.1158287 4.75368333 4.7258357 4.75368333z" fill="#b9bec5"/></g><g transform="translate(671.073 79.846)"><path d="m60.0406173 38.0156088 12.4221967.0004599v26.4616955c0 1.1453295-.928473 2.0738025-2.0738025 2.0738025h-68.315209c-1.14532949 0-2.0738025-.928473-2.0738025-2.0738025v-26.4643783l12.4221967.0004599v2.1671244c0 1.1453295.928473 2.0738025 2.0738025 2.0738025h2.0634933c1.1453295 0 2.0738025-.928473 2.0738025-2.0738025v-2.1668944l11.3870136.0004215v-2.0848346h-11.3870136v-2.1649015c0-1.1453295-.928473-2.0738025-2.0738025-2.0738025h-2.0634933c-1.1453295 0-2.0738025.928473-2.0738025 2.0738025v2.1649015h-12.4221967v-8.6200707c0-4.581318 3.71389202-8.29521 8.29521-8.29521h55.872394c4.581318 0 8.29521 3.713892 8.29521 8.29521v8.6200707h-12.4221967v-2.1649015c0-1.1453295-.928473-2.0738025-2.0738025-2.0738025h-2.0634933c-1.1453295 0-2.0738025.928473-2.0738025 2.0738025v2.1649015h-11.3870137v2.0852946l11.3870137.0004216v2.1655913c0 1.1453295.928473 2.0738025 2.0738025 2.0738025h2.0634933c1.1453295 0 2.0738025-.928473 2.0738025-2.0738025zm-30.0203087-2.0859461h12.4221967v-1.1085201c0-1.1453295-.928473-2.0738025-2.0738025-2.0738025h-8.2745917c-1.1453294 0-2.0738025.928473-2.0738025 2.0738025zm0 2.0848346v1.1100915c0 1.1453295.9284731 2.0738025 2.0738025 2.0738025h8.2745917c1.1453295 0 2.0738025-.928473 2.0738025-2.0738025v-1.1096315z" fill="#b9bec5"/><path d="m26.928505 0h18.605804c4.5813179 0 8.29521 3.71389202 8.29521 8.29521v7.5505109h-35.196224v-7.5505109c0-4.58131798 3.713892-8.29521 8.29521-8.29521zm3.0969582 8.45076292c-1.7179942 0-3.1107037 1.39270951-3.1107037 3.11070378v4.283966h18.633295v-4.283966c0-1.71799427-1.3927095-3.11070378-3.1107038-3.11070378z" fill="#fafbfc"/></g><g fill-rule="nonzero"><g transform="translate(387.523 76.676)"><path d="m57.5041688 12.2069232c-.3004737-1.765433-1.2809528-3.3388361-2.7269823-4.37606682-.1710302-.1535462-17.9011655-12.98425084-52.66781349-3.19568036-.5791384.17403547-1.0101527.66516771-1.11169659 1.26675618-.45608065 2.22641995 2.14737974 11.8518476 9.61570038 17.9265193 1.0816433.8732718 2.4163734 1.365317 3.8006721 1.4011091 2.8505041.1151596 6.746193.2303193 11.0409524.2303193 10.7368987 0 23.7542006-.7197479 27.5548727-4.0113946.5510975-.4702352 5.2544292-4.2321172 4.4942948-9.2415621z" fill="#b9bec5"/><path d="m20.4222367 30.1635031c1.5810056.0307344 3.2733998.0500601 5.0327646.0500601 10.6172293 0 23.4643121-.7037932 27.4243713-3.9022881-.7231587.8582466-3.1262204 4.0316402-1.9503666 6.9924055l.1425252.3646722c2.9360192 7.4086043 8.408987 21.218166 8.4184887 29.6440139 0 3.9922013-2.6034604 7.8020665-5.8055266 8.502621-2.1485278.3578-4.3216476.543912-6.4991493.556605-2.2328948 0-4.3422678-.2591092-5.2924359-1.1228066-.4863481-.4465304-.7183329-1.1097887-.6176092-1.7657813.1320798-.6000159.3807611-1.1675869.7316294-1.669815.8171445-1.3147394 2.0333596-3.4068064 1.0831915-8.0323858-1.4062486-6.727243-4.8363552-17.5330571-8.2474584-21.6979979-1.047596 1.2502261-2.5167821 2.0639606-4.1237292 2.2839998-.1696039.0025034-.3388316-.016846-.5035891-.0575798-.7767901-.1990007-1.318314-.9084319-1.3112318-1.7177982 0-4.1623269-5.8787339-7.3439883-8.4818746-8.4279248z" fill="#fafbfc"/></g><g transform="matrix(.70710678 .70710678 -.70710678 .70710678 278.953819 64.330467)"><path d="m26.0619013 31.2403672h-6.9804998c-.7937225 0-1.4371617.6578922-1.4371617 1.4694434v14.6734422.0881666c-.0026787.0517442-.0026787.103597 0 .1553412 0 .0461825 0 .092365.0328494.1385475s.0246371.0881666.0410618.1343491c.0169247.0457495.0361116.0905903.0574864.1343491 0 .0419841.0410618.0839682.0656989.1217539.024637.0377857.0492741.0755714.0780173.1133571s.0574865.0755714.0903359.1091586l.0985482.0965635.1067606.0881666c.0422817.0303986.0861454.0584292.1313976.0839682l.069805.0461825h.0369556c.0703026.0325906.143086.0592688.2176274.0797698l.0780173.0251904c.0931192.020774.1880285.0320251.2833262.0335873h.0246371c.0854256-.0006214.1706259-.0090518.2545829-.0251905h.069805c.0684787-.0159515.1357254-.0369996.2012026-.0629761h.0369556c.0742858-.0329644.1457138-.0722895.2135212-.1175555l.0533803-.0377857c.0535362-.0397251.1043018-.0832138.1519285-.1301507l.0410618-.0377857c.0575257-.0610096.1097352-.1270351.1560347-.1973252l.024637-.0419841c.0268075-.0420565.0514773-.0854977.0739112-.1301507l6.7792972-13.8547523c.2321372-.4540072.3572821-.9572046.3654497-1.4694434.0091339-.8099543-.6244977-1.4747194-1.4166309-1.4862371zm-9.2265783-19.0649788h3.5313117c.5714802 0 1.0347565-.4736824 1.0347565-1.0579993v-9.63954886c0-.02099204 0-.04198409 0-.06297614.0019811-.03775854.0019811-.07559853 0-.11335707 0-.03358728 0-.06717455-.0205309-.10076183s0-.06297615-.0287433-.09656343c-.0120856-.03287529-.0257904-.0651043-.0410617-.09656342l-.045168-.08816661-.0862297-.07976978-.0656988-.07976979-.0739112-.07137296-.0739111-.06297615-.0944421-.05877774-.0533803-.03358728h-.024637c-.0503715-.02387467-.1025542-.04353172-.1560347-.05877773h-.0574865c-.0674466-.01535724-.1362235-.02379585-.2053088-.02519046-.0614694-.00563412-.1233086-.00563412-.184778 0h-.069805c-.5379091.15114275-.8869341.70113443-1.2072158 1.12517382-1.4375578 1.93233572-2.3854755 4.19815245-2.7593505 6.59570177-.2138559.96535323-.336238 1.94953016-.3654497 2.93888686-.0022263.2842477.1075088.5574544.3044788.758059.1969701.2006046.4646039.3117302.7425961.3083371zm-5.5022763 0h-3.53131163c-.5714802 0-1.03475644-.4736824-1.03475644-1.0579993v-9.63954886c0-.02099204 0-.04198409 0-.06297614-.00198119-.03775854-.00198119-.07559853 0-.11335707 0-.03358728 0-.06717455.02053088-.10076183s0-.06297615.02874324-.09656343c.01208567-.03287529.02579045-.0651043.04106176-.09656342l.04516794-.08816661.07801735-.07976978.06569882-.07976979.07391118-.07137296.07391117-.06297615.09444206-.06297615.04927411-.03358728h.02463706c.05037142-.02387467.10255415-.04353172.1560347-.05877773h.05748647c.07321253-.02533123.14896121-.04222945.2258397-.05038092.0614694-.00563412.12330854-.00563412.18477794 0h.05338029c.5379091.15114275.88693409.70113443 1.20721585 1.12517382 1.43755775 1.93233572 2.38547545 4.19815245 2.75935055 6.59570177.2138558.96535323.3362379 1.94953013.3654497 2.93888683.0100627.2878171-.0950648.5673904-.2911146.7741823-.1960498.206792-.4660771.3229294-.7477481.3216027z" fill="#fafbfc"/><path d="m85.079974 15.1142752h-83.23219464c-.78735225-.0000526-1.42816341.6476645-1.43716172 1.4526498v16.1428856c-.00285829.0909254-.00285829.1441856 0 .1973253 0 .0461825 0 .092365.02053088.1343491s.02463706.0839682.04106176.1301507c.01638658.0514391.03557881.101899.05748647.1511428l7.17349009 14.7154263c.0224339.044653.04710368.0880942.07391117.1301507.0709365.1122742.12314606.1782996.18067176.2393093.08868845.0847225.13945408.1282113.19299029.1679364.12118769.0830517.19261564.1223768.26690146.1553412.10243284.0259764.16967956.0470246.23815823.0629761.15376201.0161386.23896225.024569.32438793.0251905.14867797-.0015622.24358731-.0128134.33670647-.0335873.15255875-.0456914.2253421-.0723696.29564469-.1049602.15201286-.0717215.19587654-.0997521.23815823-.1301508l.20530883-.18473c.0328494-.0335873.0615926-.0713729.0903359-.1091586.0287432-.0377857.0533803-.0755714.0780173-.1133571.0246371-.0377857.045168-.0797698.0656988-.1217539.0213749-.0437588.0405618-.0885996.0574865-.1343491 0-.0419841.0287432-.0881666.0410618-.1343491.0123185-.0461825.024637-.092365.0328494-.1385475.0026787-.0517442.0026787-.103597 0-.1553412 0-.0195926 0-6.4039744 0-19.1531454h74.6584984c.7937225 0 1.4371618-.6578923 1.4371618-1.4694435v-10.2693103c-.0089983-.8049853-.6498095-1.4527024-1.4371618-1.4526498z" fill="#b9bec5"/></g><g transform="matrix(.70710678 -.70710678 .70710678 .70710678 115.244512 91.210305)"><path d="m24.0746003 56.4665404-.9459175 7.0767379c.0504443.5255663-3.7866865 4.7467282-4.1465226 5.0793651v3.8752196c0 .5455245-.2488586.7783703-.9920715 1.470255l-.2656734.2494776c-.3531102 11.8086091-.3531102 11.8086091-.3901027 11.9516429-.0146694.0579035-.0337816.1146162-.0571702.1696449 0 0-.369925.8715086-.7432129 1.7463435-.1849625.4390807-.3766509.874835-.5212579 1.2074719-.3194806.7251484-.5246209 1.2473883-1.3283669 1.2473883-.8037461 0-1.0425158-.5521772-1.3451817-1.2507147-.1412441-.3293105-.3295695-.7683911-.514532-1.2074718-.369925-.874835-.736487-1.74967-.736487-1.74967-.0840738-.2128876-.0840738-.216214-.6725908-12.1179613l-.2690364-.2661095c-.7230351-.7118429-.9416272-.9247305-.9416272-1.4469704v-3.9384206c-.47417651-.4424071-4.3482998-4.5704307-4.3482998-5.069386l-1.13403441-7.0931642c-.02280384-.0229382 1.29844093.4964829 1.77038903.6014175 3.52764388.7843489 5.74374348.7269545 8.06754488.7269545 2.7071782 0 4.7127478-.0010074 7.8801137-.7916882.3445337-.0860072 1.6614307-.4983351 1.6340373-.470362z" fill="#fafbfc"/><path d="m27.0964617 28.6198448c1.990869-2.4748184 1.990869-2.4748184 2.0177726-2.8673299 0-.189603.7163092-13.3986133-.5649763-20.08461448-.29594-1.50351867-1.3048263-3.54590908-4.5265364-4.70348541-6.4535092-2.32845812-18.56014447.09313833-20.93439016 1.66318438-1.26783375.83824492-1.81599529 3.18998763-2.5356675 9.72297581-.39346565 3.5558882-.58515404 5.5650149-.54816154 6.4465027.02690363.4923025.02690363.4923025 2.29689774 2.6777268.60533177.5854409 1.37881124 1.3305475 1.7857287 1.7363645.09416272 6.8456669.1546959 18.4946102-.05380726 20.2043638-2.41460115 3.3928961-2.35406797 6.955437-.90799765 7.7604183 3.33941356 1.8627665 7.58682477 2.128876 11.22554127 2.128876s7.9870163-.2594568 11.5618367-2.1122442c1.3451817-.6918847 1.9706911-4.3941331-.3093918-7.7837029-.2286809-1.4602759-.1345182-11.1000925-.0403555-12.8896789z" fill="#b9bec5"/></g><g transform="translate(530.874 84.6)"><path d="m54.9179914 39.0125284c-4.026412 2.1391575-14.3986762 3.6679421-26.5629772 3.6679421-12.1643011 0-22.53656529-1.5230802-26.5629773-3.6679421-1.15688458.6160774-1.7920369 1.2834945-1.7920369 1.9794337v10.4048621c0 3.1203178 12.6973753 5.6473758 28.3550142 5.6473758 15.6576388 0 28.3550141-2.527058 28.3550141-5.6473758v-10.4048621c0-.6959392-.6351523-1.3633563-1.7920369-1.9794337zm-26.5629772-39.0125284c-15.6576389 0-28.3550142 2.52705806-28.3550142 5.6473758v10.4048621c0 3.1146133 12.6973753 5.6245581 28.3550142 5.6245581 15.6576388 0 28.3550141-2.527058 28.3550141-5.6473758v-10.3820444c0-3.12031774-12.6973753-5.6473758-28.3550141-5.6473758z" fill="#b9bec5"/><path d="m54.9179914 21.3402352c-4.026412 2.144862-14.3986762 3.6679421-26.5629772 3.6679421-12.1643011 0-22.53656529-1.5230801-26.5629773-3.6679421-1.15688458.6160774-1.7920369 1.2834945-1.7920369 1.9794338v10.4048621c0 3.1203177 12.6973753 5.6359669 28.3550142 5.6359669 15.6576388 0 28.3550141-2.527058 28.3550141-5.6473758v-10.3934532c0-.6959393-.6351523-1.3633564-1.7920369-1.9794338z" fill="#fafbfc"/></g></g><g transform="translate(827.026 78.261)"><path d="m2.3625 0h18.9041785c1.3047727 0 2.3625 1.05772728 2.3625 2.3625v13.4831111h-23.6291785v-13.4831111c0-1.30477272 1.05772728-2.3625 2.3625-2.3625zm-2.3625 38.0294667h23.6291785v13.4831111c0 1.3047727-1.0577273 2.3625-2.3625 2.3625h-18.9041785c-1.30477272 0-2.3625-1.0577273-2.3625-2.3625z" fill="#b9bec5"/><g fill="#fafbfc"><path d="m9.452 57.044h4.726v7.923h-4.726z"/><path d="m0 19.015h23.629v15.846h-23.629z"/><rect height="4.754" rx="2.362" width="17.328" x="3.151" y="64.967"/></g></g><g transform="translate(1082.221 79.846)"><path d="m45.2892587 34.8603445h20.872441v-4.7536834h-20.872441zm-26.7104158-34.86034611 45.2203607-.00007821c1.3047727-.00000214 2.3625017 1.0577234 2.3625039 2.36249612l-.0000039 61.8266504c0 1.3047727-1.0577273 2.3625-2.3625 2.3625h-61.4367036c-1.30477272 0-2.3625-1.0577273-2.3625-2.3625v-45.5146654c0-.6241694.24700405-1.2229761.68706002-1.6656251l16.21634678-16.31190296c.4434461-.44605912 1.0464583-.69687382 1.6754361-.69687485zm6.2317945 19.41087521c-3.0450082 0-5.513475 2.4830126-5.513475 5.5459639v15.0533306c0 3.0629513 2.4684668 5.5459639 5.513475 5.5459639h14.9651464c3.0450081 0 5.5134749-2.4830126 5.5134749-5.5459639v-15.0533306c0-3.0629513-2.4684668-5.5459639-5.5134749-5.5459639z" fill="#b9bec5"/><path d="m24.8106374 24.164557c-.4350012 0-.7876393.354716-.7876393.7922805v15.0533306c0 .4375645.3526381.7922805.7876393.7922805h14.9651464c.4350011 0 .7876392-.354716.7876392-.7922805v-15.0533306c0-.4375645-.3526381-.7922805-.7876392-.7922805z" fill="#fafbfc"/></g><g transform="translate(1238.174 84.6)"><path d="m48.8336355 9.50736667h-25.204457l2.4477825-7.84828304c.3078087-.9869216 1.2215431-1.65908363 2.2553518-1.65908363h15.7981884c1.0338087 0 1.9475431.67216203 2.2553518 1.65908363z" fill="#fafbfc"/><path d="m2.3625 12.6764889h67.737814c1.3047727 0 2.3625 1.0577273 2.3625 2.3625v39.6427111c0 1.3047728-1.0577273 2.3625-2.3625 2.3625h-67.737814c-1.30477272 0-2.3625-1.0577272-2.3625-2.3625v-39.6427111c0-1.3047727 1.05772728-2.3625 2.3625-2.3625zm33.868907 33.2757834c6.0900163 0 11.0269499-4.9660253 11.0269499-11.0919278 0-6.1259026-4.9369336-11.0919278-11.0269499-11.0919278s-11.02695 4.9660252-11.02695 11.0919278c0 6.1259025 4.9369337 11.0919278 11.02695 11.0919278z" fill="#b9bec5"/></g><g transform="translate(1394.126 78.261)"><path d="m3.15 1.10921212h66.162814c1.7396969 0 3.15 1.41030304 3.15 3.15v60.25156668c0 1.739697-1.4103031 3.15-3.15 3.15h-66.162814c-1.73969696 0-3.15-1.410303-3.15-3.15v-60.25156668c0-1.73969696 1.41030304-3.15 3.15-3.15zm45.9276669 6.22769156c-.4965765-.30357626-1.067551-.46363879-1.6495693-.46242728l-21.0883344.04389677c-.5795918.00120646-1.1476147.16229909-1.641547.46554657l-16.92601845 10.39165286c-.93122022.5717184-1.49962421 1.585201-1.50188934 2.6779168l-.05893529 28.4308268c-.00227917 1.0994914.56889771 2.1206093 1.50698089 2.6940956l16.86079219 10.3076503c.4965764.3035763 1.067551.4636388 1.6495692.4624273l21.0883344-.0438968c.5795918-.0012064 1.1476147-.162299 1.641547-.4655465l16.9260185-10.3916528c.9312202-.5717185 1.4996242-1.585201 1.5018893-2.6779169l.0589353-28.4308267c.0022792-1.0994915-.5688977-2.1206094-1.5069809-2.6940957z" fill="#b9bec5"/><path d="m21.9104395 22.1838556h28.641935c.7907713 0 1.4318181.6410468 1.4318181 1.4318182v22.4893414c0 .7907713-.6410468 1.4318182-1.4318181 1.4318182h-28.641935c-.7907713 0-1.4318182-.6410469-1.4318182-1.4318182v-22.4893414c0-.7907714.6410469-1.4318182 1.4318182-1.4318182zm14.3209675 19.0147333c3.4800093 0 6.3011142-2.8377287 6.3011142-6.3382444 0-3.5005158-2.8211049-6.3382445-6.3011142-6.3382445s-6.3011143 2.8377287-6.3011143 6.3382445c0 3.5005157 2.821105 6.3382444 6.3011143 6.3382444z" fill="#b9bec5"/><g fill="#fafbfc"><ellipse cx="28.095" cy="14.261" rx="3.151" ry="3.169"/><ellipse cx="12.603" cy="25.353" rx="3.151" ry="3.169"/><ellipse cx="12.603" cy="44.368" rx="3.151" ry="3.169"/><ellipse cx="59.861" cy="25.353" rx="3.151" ry="3.169"/><ellipse cx="59.861" cy="44.368" rx="3.151" ry="3.169"/><ellipse cx="28.095" cy="53.875" rx="3.151" ry="3.169"/><ellipse cx="45.423" cy="14.261" rx="3.151" ry="3.169"/><ellipse cx="45.423" cy="53.875" rx="3.151" ry="3.169"/></g></g><g transform="translate(1550.079 67.17)"><path d="m63.0111426 58.6287612v10.3139889c0 1.3047727-1.0577273 2.3625-2.3625 2.3625h-58.2861426c-1.30477272 0-2.3625-1.0577273-2.3625-2.3625v-10.3139889h8.34917139c.60889393 0 1.1025-.4936061 1.1025-1.1025v-4.1332445c0-.6088939-.49360607-1.1025-1.1025-1.1025h-8.34917139v-20.5992945h8.34917139c.60889393 0 1.1025-.493606 1.1025-1.1025v-4.1332444c0-.6088939-.49360607-1.1025-1.1025-1.1025h-8.34917139v-22.9904778c0-1.30477272 1.05772728-2.3625 2.3625-2.3625h58.2861426c1.3047727 0 2.3625 1.05772728 2.3625 2.3625v22.9904778h-8.3491714c-.6088939 0-1.1025.4936061-1.1025 1.1025v4.1332444c0 .608894.4936061 1.1025 1.1025 1.1025h8.3491714v20.5992945h-8.3491714c-.6088939 0-1.1025.4936061-1.1025 1.1025v4.1332445c0 .6088939.4936061 1.1025 1.1025 1.1025zm-46.155857-33.2757834c-.6088939 0-1.1025.4936061-1.1025 1.1025v4.1332445c0 .6088939.4936061 1.1024999 1.1025 1.1024999h4.0961143c.6088939 0 1.1025-.493606 1.1025-1.1024999v-4.1332445c0-.6088939-.4936061-1.1025-1.1025-1.1025zm0-12.6764889c-.6088939 0-1.1025.4936061-1.1025 1.1025v4.1332445c0 .6088939.4936061 1.1024999 1.1025 1.1024999h4.0961143c.6088939 0 1.1025-.493606 1.1025-1.1024999v-4.1332445c0-.6088939-.4936061-1.1025-1.1025-1.1025zm0 26.9375389c-.6088939 0-1.1025.4936061-1.1025 1.1025v4.1332445c0 .6088939.4936061 1.1025 1.1025 1.1025h4.0961143c.6088939 0 1.1025-.4936061 1.1025-1.1025v-4.1332445c0-.6088939-.4936061-1.1025-1.1025-1.1025zm12.6022285-14.26105c-.6088939 0-1.1024999.4936061-1.1024999 1.1025v4.1332445c0 .6088939.493606 1.1024999 1.1024999 1.1024999h4.0961143c.608894 0 1.1025-.493606 1.1025-1.1024999v-4.1332445c0-.6088939-.493606-1.1025-1.1025-1.1025zm0-12.6764889c-.6088939 0-1.1024999.4936061-1.1024999 1.1025v4.1332445c0 .6088939.493606 1.1024999 1.1024999 1.1024999h4.0961143c.608894 0 1.1025-.493606 1.1025-1.1024999v-4.1332445c0-.6088939-.493606-1.1025-1.1025-1.1025zm0 26.9375389c-.6088939 0-1.1024999.4936061-1.1024999 1.1025v4.1332445c0 .6088939.493606 1.1025 1.1024999 1.1025h4.0961143c.608894 0 1.1025-.4936061 1.1025-1.1025v-4.1332445c0-.6088939-.493606-1.1025-1.1025-1.1025zm12.6022286-14.26105c-.608894 0-1.1025.4936061-1.1025 1.1025v4.1332445c0 .6088939.493606 1.1024999 1.1025 1.1024999h4.0961143c.6088939 0 1.1024999-.493606 1.1024999-1.1024999v-4.1332445c0-.6088939-.493606-1.1025-1.1024999-1.1025zm0-12.6764889c-.608894 0-1.1025.4936061-1.1025 1.1025v4.1332445c0 .6088939.493606 1.1024999 1.1025 1.1024999h4.0961143c.6088939 0 1.1024999-.493606 1.1024999-1.1024999v-4.1332445c0-.6088939-.493606-1.1025-1.1024999-1.1025zm0 26.9375389c-.608894 0-1.1025.4936061-1.1025 1.1025v4.1332445c0 .6088939.493606 1.1025 1.1025 1.1025h4.0961143c.6088939 0 1.1024999-.4936061 1.1024999-1.1025v-4.1332445c0-.6088939-.493606-1.1025-1.1024999-1.1025zm-25.2044571 12.6764889c-.6088939 0-1.1025.4936061-1.1025 1.1025v4.1332445c0 .6088939.4936061 1.1025 1.1025 1.1025h4.0961143c.6088939 0 1.1025-.4936061 1.1025-1.1025v-4.1332445c0-.6088939-.4936061-1.1025-1.1025-1.1025zm12.6022285 0c-.6088939 0-1.1024999.4936061-1.1024999 1.1025v4.1332445c0 .6088939.493606 1.1025 1.1024999 1.1025h4.0961143c.608894 0 1.1025-.4936061 1.1025-1.1025v-4.1332445c0-.6088939-.493606-1.1025-1.1025-1.1025zm12.6022286 0c-.608894 0-1.1025.4936061-1.1025 1.1025v4.1332445c0 .6088939.493606 1.1025 1.1025 1.1025h4.0961143c.6088939 0 1.1024999-.4936061 1.1024999-1.1025v-4.1332445c0-.6088939-.493606-1.1025-1.1024999-1.1025z" fill="#b9bec5"/><path d="m29.1426534 74.4743723h4.7258357v13.4826933c0 1.3050034-1.0579143 2.3629178-2.3629178 2.3629178s-2.3629179-1.0579144-2.3629179-2.3629178zm13.3898678 0h4.7258357v13.4826933c0 1.3050034-1.0579143 2.3629178-2.3629178 2.3629178s-2.3629179-1.0579144-2.3629179-2.3629178zm-26.7797356 0h4.7258357v13.4826933c0 1.3050034-1.0579143 2.3629178-2.3629178 2.3629178s-2.3629179-1.0579144-2.3629179-2.3629178z" fill="#fafbfc"/></g><g transform="translate(115 217)"><g fill="#ebecf0"><g transform="translate(819.145 12.676)"><g fill-rule="nonzero"><path d="m67.7440451 34.8532118-1.5752786 1.5845611v-1.5845611zm1.5752786-20.7248099v12.9417851c-.5145207-.0872336-1.0431606-.1326481-1.5823454-.1326481-.5342491 0-1.0581453.0445868-1.5682118.1302629v-12.9370147c.5100665.0856761 1.0339627.1302629 1.5682118.1302629.5391848 0 1.0678247-.0454145 1.5823454-.1326481zm-10.9033342-10.95927968c-.0859466.51531271-.1306826 1.0446818-.1306826 1.58456112s.044736 1.06924841.1306826 1.58456111h-12.8635938c.0859467-.5153127.1306827-1.04468179.1306827-1.58456111s-.044736-1.06924841-.1306827-1.58456112zm-.0011868 34.85321178h-11.2671035c.0729292-.5152504.1106577-1.0419074.1106577-1.5774284 0-.5404642-.0384282-1.0719-.1126863-1.5916938h11.2715113c-.0867252.5175602-.131875 1.0493233-.131875 1.5916938 0 .5373887.0443242 1.064364.1294958 1.5774284zm.0011868 28.5292327c-.0859466.5153127-.1306826 1.0446818-.1306826 1.5845611s.044736 1.0692484.1306826 1.5845611h-12.8635938c.0859467-.5153127.1306827-1.0446818.1306827-1.5845611s-.044736-1.0692484-.1306827-1.5845611zm-33.1008747-28.5292327h-11.2671035c.0851716-.5130644.1294958-1.0400397.1294958-1.5774284 0-.5423705-.0451498-1.0741336-.1318751-1.5916938h11.2715114c-.0742581.5197938-.1126864 1.0512296-.1126864 1.5916938 0 .535521.0377286 1.062178.1106578 1.5774284zm1.5953035 28.5292327c-.0859467.5153127-.1306827 1.0446818-.1306827 1.5845611s.044736 1.0692484.1306827 1.5845611h-12.8635939c.0859467-.5153127.1306827-1.0446818.1306827-1.5845611s-.044736-1.0692484-.1306827-1.5845611zm-20.60930404-20.7307472v12.9393944c-.51229394-.0864531-1.03856192-.1314527-1.57527857-.1314527-.53671664 0-1.06298462.0449996-1.57527856.1314527v-12.9393944c.51229394.0864531 1.03856192.1314528 1.57527856.1314528.53671665 0 1.06298463-.0449997 1.57527857-.1314528zm7.74571014-42.65169728h12.8635939c-.0859467.51531271-.1306827 1.0446818-.1306827 1.58456112s.044736 1.06924841.1306827 1.58456111h-12.8635939c.0859467-.5153127.1306827-1.04468179.1306827-1.58456111s-.044736-1.06924841-.1306827-1.58456112zm23.7598612 20.59929448v-3.1691222c0-.875129-.7052763-1.5845612-1.5752786-1.5845612s-1.5752786.7094322-1.5752786 1.5845612v3.1691222c0 .8751289.7052763 1.5845611 1.5752786 1.5845611s1.5752786-.7094322 1.5752786-1.5845611zm0 28.5221v-3.1691222c0-.875129-.7052763-1.5845611-1.5752786-1.5845611s-1.5752786.7094321-1.5752786 1.5845611v3.1691222c0 .8751289.7052763 1.5845611 1.5752786 1.5845611s1.5752786-.7094322 1.5752786-1.5845611z"/><path d="m48.8500304 27.7133279v-3.1691222c0-.8751289-.7052762-1.5845611-1.5752785-1.5845611-.8700024 0-1.5752786.7094322-1.5752786 1.5845611v3.1691222c0 .875129.7052762 1.5845611 1.5752786 1.5845611.8700023 0 1.5752785-.7094321 1.5752785-1.5845611z" transform="matrix(.70710678 .70710678 -.70710678 .70710678 32.32252 -25.775466)"/><path d="m27.6471788 49.0411203v-3.1691222c0-.8751289-.7052763-1.5845611-1.5752786-1.5845611s-1.5752786.7094322-1.5752786 1.5845611v3.1691222c0 .875129.7052763 1.5845612 1.5752786 1.5845612s1.5752786-.7094322 1.5752786-1.5845612z" transform="matrix(.70710678 .70710678 -.70710678 .70710678 41.193479 -4.535855)"/><path d="m26.7633407 27.7133279v-3.1691222c0-.8751289-.7052763-1.5845611-1.5752786-1.5845611s-1.5752786.7094322-1.5752786 1.5845611v3.1691222c0 .875129.7052763 1.5845611 1.5752786 1.5845611s1.5752786-.7094321 1.5752786-1.5845611z" transform="matrix(-.70710678 .70710678 .70710678 .70710678 24.522463 -10.157537)"/><path d="m47.9661923 49.0411203v-3.1691222c0-.8751289-.7052762-1.5845611-1.5752785-1.5845611-.8700024 0-1.5752786.7094322-1.5752786 1.5845611v3.1691222c0 .875129.7052762 1.5845612 1.5752786 1.5845612.8700023 0 1.5752785-.7094322 1.5752785-1.5845612z" transform="matrix(-.70710678 .70710678 .70710678 .70710678 45.637379 -18.903621)"/></g><path d="m36.231407 9.50736667c2.610007 0 4.7258357-2.12829652 4.7258357-4.75368333 0-2.62538682-2.1158287-4.75368334-4.7258357-4.75368334s-4.7258357 2.12829652-4.7258357 4.75368334c0 2.62538681 2.1158287 4.75368333 4.7258357 4.75368333zm-31.50557131 0c2.61000699 0 4.7258357-2.12829652 4.7258357-4.75368333 0-2.62538682-2.11582871-4.75368334-4.7258357-4.75368334-2.61000698 0-4.72583569 2.12829652-4.72583569 4.75368334 0 2.62538681 2.11582871 4.75368333 4.72583569 4.75368333zm0 63.38244453c2.61000699 0 4.7258357-2.1282966 4.7258357-4.7536834s-2.11582871-4.7536833-4.7258357-4.7536833c-2.61000698 0-4.72583569 2.1282965-4.72583569 4.7536833s2.11582871 4.7536834 4.72583569 4.7536834zm0-31.6912223c2.61000699 0 4.7258357-2.1282965 4.7258357-4.7536833s-2.11582871-4.7536834-4.7258357-4.7536834c-2.61000698 0-4.72583569 2.1282966-4.72583569 4.7536834s2.11582871 4.7536833 4.72583569 4.7536833zm31.50557131 31.6912223c2.610007 0 4.7258357-2.1282966 4.7258357-4.7536834s-2.1158287-4.7536833-4.7258357-4.7536833-4.7258357 2.1282965-4.7258357 4.7536833 2.1158287 4.7536834 4.7258357 4.7536834zm0-30.1066612c3.4800093 0 6.3011142-2.8377287 6.3011142-6.3382444 0-3.5005158-2.8211049-6.3382445-6.3011142-6.3382445s-6.3011143 2.8377287-6.3011143 6.3382445c0 3.5005157 2.821105 6.3382444 6.3011143 6.3382444zm31.5055713 30.1066612c2.610007 0 4.7258357-2.1282966 4.7258357-4.7536834s-2.1158287-4.7536833-4.7258357-4.7536833-4.7258357 2.1282965-4.7258357 4.7536833 2.1158287 4.7536834 4.7258357 4.7536834zm0-31.6912223c2.610007 0 4.7258357-2.1282965 4.7258357-4.7536833s-2.1158287-4.7536834-4.7258357-4.7536834-4.7258357 2.1282966-4.7258357 4.7536834 2.1158287 4.7536833 4.7258357 4.7536833zm0-31.69122223c2.610007 0 4.7258357-2.12829652 4.7258357-4.75368333 0-2.62538682-2.1158287-4.75368334-4.7258357-4.75368334s-4.7258357 2.12829652-4.7258357 4.75368334c0 2.62538681 2.1158287 4.75368333 4.7258357 4.75368333z"/></g><path d="m60.0406173 38.0156088 12.4221967.0004599v26.4616955c0 1.1453295-.928473 2.0738025-2.0738025 2.0738025h-68.315209c-1.14532949 0-2.0738025-.928473-2.0738025-2.0738025v-26.4643783l12.4221967.0004599v2.1671244c0 1.1453295.928473 2.0738025 2.0738025 2.0738025h2.0634933c1.1453295 0 2.0738025-.928473 2.0738025-2.0738025v-2.1668944l11.3870136.0004215v-2.0848346h-11.3870136v-2.1649015c0-1.1453295-.928473-2.0738025-2.0738025-2.0738025h-2.0634933c-1.1453295 0-2.0738025.928473-2.0738025 2.0738025v2.1649015h-12.4221967v-8.6200707c0-4.581318 3.71389202-8.29521 8.29521-8.29521h55.872394c4.581318 0 8.29521 3.713892 8.29521 8.29521v8.6200707h-12.4221967v-2.1649015c0-1.1453295-.928473-2.0738025-2.0738025-2.0738025h-2.0634933c-1.1453295 0-2.0738025.928473-2.0738025 2.0738025v2.1649015h-11.3870137v2.0852946l11.3870137.0004216v2.1655913c0 1.1453295.928473 2.0738025 2.0738025 2.0738025h2.0634933c1.1453295 0 2.0738025-.928473 2.0738025-2.0738025zm-30.0203087-2.0859461h12.4221967v-1.1085201c0-1.1453295-.928473-2.0738025-2.0738025-2.0738025h-8.2745917c-1.1453294 0-2.0738025.928473-2.0738025 2.0738025zm0 2.0848346v1.1100915c0 1.1453295.9284731 2.0738025 2.0738025 2.0738025h8.2745917c1.1453295 0 2.0738025-.928473 2.0738025-2.0738025v-1.1096315zm-3.0918036-38.0144973h18.605804c4.5813179 0 8.29521 3.71389202 8.29521 8.29521v7.5505109h-35.196224v-7.5505109c0-4.58131798 3.713892-8.29521 8.29521-8.29521zm3.0969582 8.45076292c-1.7179942 0-3.1107037 1.39270951-3.1107037 3.11070378v4.283966h18.633295v-4.283966c0-1.71799427-1.3927095-3.11070378-3.1107038-3.11070378z" transform="translate(556.073 15.846)"/><g fill-rule="nonzero"><path d="m57.5041688 12.2069232c-.3004737-1.765433-1.2809528-3.3388361-2.7269823-4.37606682-.1710302-.1535462-17.9011655-12.98425084-52.66781349-3.19568036-.5791384.17403547-1.0101527.66516771-1.11169659 1.26675618-.45608065 2.22641995 2.14737974 11.8518476 9.61570038 17.9265193 1.0816433.8732718 2.4163734 1.365317 3.8006721 1.4011091 2.8505041.1151596 6.746193.2303193 11.0409524.2303193 10.7368987 0 23.7542006-.7197479 27.5548727-4.0113946.5510975-.4702352 5.2544292-4.2321172 4.4942948-9.2415621zm-37.0819321 17.9565799c1.5810056.0307344 3.2733998.0500601 5.0327646.0500601 10.6172293 0 23.4643121-.7037932 27.4243713-3.9022881-.7231587.8582466-3.1262204 4.0316402-1.9503666 6.9924055l.1425252.3646722c2.9360192 7.4086043 8.408987 21.218166 8.4184887 29.6440139 0 3.9922013-2.6034604 7.8020665-5.8055266 8.502621-2.1485278.3578-4.3216476.543912-6.4991493.556605-2.2328948 0-4.3422678-.2591092-5.2924359-1.1228066-.4863481-.4465304-.7183329-1.1097887-.6176092-1.7657813.1320798-.6000159.3807611-1.1675869.7316294-1.669815.8171445-1.3147394 2.0333596-3.4068064 1.0831915-8.0323858-1.4062486-6.727243-4.8363552-17.5330571-8.2474584-21.6979979-1.047596 1.2502261-2.5167821 2.0639606-4.1237292 2.2839998-.1696039.0025034-.3388316-.016846-.5035891-.0575798-.7767901-.1990007-1.318314-.9084319-1.3112318-1.7177982 0-4.1623269-5.8787339-7.3439883-8.4818746-8.4279248z" transform="translate(272.523 12.676)"/><g transform="matrix(.70710678 .70710678 -.70710678 .70710678 163.953819 .330467)"><path d="m26.0619013 31.2403672h-6.9804998c-.7937225 0-1.4371617.6578922-1.4371617 1.4694434v14.6734422.0881666c-.0026787.0517442-.0026787.103597 0 .1553412 0 .0461825 0 .092365.0328494.1385475s.0246371.0881666.0410618.1343491c.0169247.0457495.0361116.0905903.0574864.1343491 0 .0419841.0410618.0839682.0656989.1217539.024637.0377857.0492741.0755714.0780173.1133571s.0574865.0755714.0903359.1091586l.0985482.0965635.1067606.0881666c.0422817.0303986.0861454.0584292.1313976.0839682l.069805.0461825h.0369556c.0703026.0325906.143086.0592688.2176274.0797698l.0780173.0251904c.0931192.020774.1880285.0320251.2833262.0335873h.0246371c.0854256-.0006214.1706259-.0090518.2545829-.0251905h.069805c.0684787-.0159515.1357254-.0369996.2012026-.0629761h.0369556c.0742858-.0329644.1457138-.0722895.2135212-.1175555l.0533803-.0377857c.0535362-.0397251.1043018-.0832138.1519285-.1301507l.0410618-.0377857c.0575257-.0610096.1097352-.1270351.1560347-.1973252l.024637-.0419841c.0268075-.0420565.0514773-.0854977.0739112-.1301507l6.7792972-13.8547523c.2321372-.4540072.3572821-.9572046.3654497-1.4694434.0091339-.8099543-.6244977-1.4747194-1.4166309-1.4862371zm-9.2265783-19.0649788h3.5313117c.5714802 0 1.0347565-.4736824 1.0347565-1.0579993v-9.63954886c0-.02099204 0-.04198409 0-.06297614.0019811-.03775854.0019811-.07559853 0-.11335707 0-.03358728 0-.06717455-.0205309-.10076183s0-.06297615-.0287433-.09656343c-.0120856-.03287529-.0257904-.0651043-.0410617-.09656342l-.045168-.08816661-.0862297-.07976978-.0656988-.07976979-.0739112-.07137296-.0739111-.06297615-.0944421-.05877774-.0533803-.03358728h-.024637c-.0503715-.02387467-.1025542-.04353172-.1560347-.05877773h-.0574865c-.0674466-.01535724-.1362235-.02379585-.2053088-.02519046-.0614694-.00563412-.1233086-.00563412-.184778 0h-.069805c-.5379091.15114275-.8869341.70113443-1.2072158 1.12517382-1.4375578 1.93233572-2.3854755 4.19815245-2.7593505 6.59570177-.2138559.96535323-.336238 1.94953016-.3654497 2.93888686-.0022263.2842477.1075088.5574544.3044788.758059.1969701.2006046.4646039.3117302.7425961.3083371zm-5.5022763 0h-3.53131163c-.5714802 0-1.03475644-.4736824-1.03475644-1.0579993v-9.63954886c0-.02099204 0-.04198409 0-.06297614-.00198119-.03775854-.00198119-.07559853 0-.11335707 0-.03358728 0-.06717455.02053088-.10076183s0-.06297615.02874324-.09656343c.01208567-.03287529.02579045-.0651043.04106176-.09656342l.04516794-.08816661.07801735-.07976978.06569882-.07976979.07391118-.07137296.07391117-.06297615.09444206-.06297615.04927411-.03358728h.02463706c.05037142-.02387467.10255415-.04353172.1560347-.05877773h.05748647c.07321253-.02533123.14896121-.04222945.2258397-.05038092.0614694-.00563412.12330854-.00563412.18477794 0h.05338029c.5379091.15114275.88693409.70113443 1.20721585 1.12517382 1.43755775 1.93233572 2.38547545 4.19815245 2.75935055 6.59570177.2138558.96535323.3362379 1.94953013.3654497 2.93888683.0100627.2878171-.0950648.5673904-.2911146.7741823-.1960498.206792-.4660771.3229294-.7477481.3216027z"/><path d="m85.079974 15.1142752h-83.23219464c-.78735225-.0000526-1.42816341.6476645-1.43716172 1.4526498v16.1428856.0377857c-.00285829.0531397-.00285829.1063999 0 .1595396 0 .0461825 0 .092365.02053088.1343491s.02463706.0839682.04106176.1301507c.01638658.0514391.03557881.101899.05748647.1511428v.0419841l7.17349009 14.6734422c.0224339.044653.04710368.0880942.07391117.1301507l.02463706.0419841c.04629944.0702901.098509.1363155.1560347.1973252l.04106177.0377857c.04762668.0469368.09839231.0904256.15192852.1301507l.05338029.0377857c.0678074.045266.13923535.0845911.21352117.1175555h.03695559c.06547725.0259764.13272397.0470246.20120264.0629761h.069805c.08395701.0161386.16915725.024569.25458293.0251905h.0533803c.09529767-.0015622.19020701-.0128134.28332617-.0335873l.07801735-.0251905c.0745414-.0205009.14732475-.0471791.21762734-.0797697h.03695559l.069805-.0461826c.04525227-.0255389.08911595-.0535695.13139764-.0839682l.10676059-.0881666.09854824-.0965634c.0328494-.0335873.0615926-.0713729.0903359-.1091586.0287432-.0377857.0533803-.0755714.0780173-.1133571.0246371-.0377857.045168-.0797698.0656988-.1217539.0213749-.0437588.0405618-.0885996.0574865-.1343491 0-.0419841.0287432-.0881666.0410618-.1343491.0123185-.0461825.024637-.092365.0328494-.1385475.0026787-.0517442.0026787-.103597 0-.1553412 0-.0293889 0-.0587777 0-.0881666v-19.0649788h74.6584984c.7937225 0 1.4371618-.6578923 1.4371618-1.4694435v-10.2693103c-.0089983-.8049853-.6498095-1.4527024-1.4371618-1.4526498z"/></g><path d="m24.0746003 56.4665404-.9459175 7.0767379c.0504443.5255663-3.7866865 4.7467282-4.1465226 5.0793651v3.8752196c0 .5455245-.2488586.7783703-.9920715 1.470255l-.2656734.2494776c-.3531102 11.8086091-.3531102 11.8086091-.3901027 11.9516429-.0146694.0579035-.0337816.1146162-.0571702.1696449 0 0-.369925.8715086-.7432129 1.7463435-.1849625.4390807-.3766509.874835-.5212579 1.2074719-.3194806.7251484-.5246209 1.2473883-1.3283669 1.2473883-.8037461 0-1.0425158-.5521772-1.3451817-1.2507147-.1412441-.3293105-.3295695-.7683911-.514532-1.2074718-.369925-.874835-.736487-1.74967-.736487-1.74967-.0840738-.2128876-.0840738-.216214-.6725908-12.1179613l-.2690364-.2661095c-.7230351-.7118429-.9416272-.9247305-.9416272-1.4469704v-3.9384206c-.47417651-.4424071-4.3482998-4.5704307-4.3482998-5.069386l-1.13403441-7.0931642c-.02280384-.0229382 1.29844093.4964829 1.77038903.6014175 3.52764388.7843489 5.74374348.7269545 8.06754488.7269545 2.7071782 0 4.7127478-.0010074 7.8801137-.7916882.3445337-.0860072 1.6614307-.4983351 1.6340373-.470362zm3.0218614-27.8466956c1.990869-2.4748184 1.990869-2.4748184 2.0177726-2.8673299 0-.189603.7163092-13.3986133-.5649763-20.08461448-.29594-1.50351867-1.3048263-3.54590908-4.5265364-4.70348541-6.4535092-2.32845812-18.56014447.09313833-20.93439016 1.66318438-1.26783375.83824492-1.81599529 3.18998763-2.5356675 9.72297581-.39346565 3.5558882-.58515404 5.5650149-.54816154 6.4465027.02690363.4923025.02690363.4923025 2.29689774 2.6777268.60533177.5854409 1.37881124 1.3305475 1.7857287 1.7363645.09416272 6.8456669.1546959 18.4946102-.05380726 20.2043638-2.41460115 3.3928961-2.35406797 6.955437-.90799765 7.7604183 3.33941356 1.8627665 7.58682477 2.128876 11.22554127 2.128876s7.9870163-.2594568 11.5618367-2.1122442c1.3451817-.6918847 1.9706911-4.3941331-.3093918-7.7837029-.2286809-1.4602759-.1345182-11.1000925-.0403555-12.8896789z" transform="matrix(.70710678 -.70710678 .70710678 .70710678 .244512 27.210305)"/><g transform="translate(415.874 20.6)"><path d="m54.9179914 39.0125284c-4.026412 2.1391575-14.3986762 3.6679421-26.5629772 3.6679421-12.1643011 0-22.53656529-1.5230802-26.5629773-3.6679421-1.15688458.6160774-1.7920369 1.2834945-1.7920369 1.9794337v10.4048621c0 3.1203178 12.6973753 5.6473758 28.3550142 5.6473758 15.6576388 0 28.3550141-2.527058 28.3550141-5.6473758v-10.4048621c0-.6959392-.6351523-1.3633563-1.7920369-1.9794337zm-26.5629772-39.0125284c-15.6576389 0-28.3550142 2.52705806-28.3550142 5.6473758v10.4048621c0 3.1146133 12.6973753 5.6245581 28.3550142 5.6245581 15.6576388 0 28.3550141-2.527058 28.3550141-5.6473758v-10.3820444c0-3.12031774-12.6973753-5.6473758-28.3550141-5.6473758z"/><path d="m54.9179914 21.3402352c-4.026412 2.144862-14.3986762 3.6679421-26.5629772 3.6679421-12.1643011 0-22.53656529-1.5230801-26.5629773-3.6679421-1.15688458.6160774-1.7920369 1.2834945-1.7920369 1.9794338v10.4048621c0 3.1203177 12.6973753 5.6359669 28.3550142 5.6359669 15.6576388 0 28.3550141-2.527058 28.3550141-5.6473758v-10.3934532c0-.6959393-.6351523-1.3633564-1.7920369-1.9794338z"/></g></g><path d="m726.203418 79.2280556h3.938615c1.304772 0 2.3625 1.0577273 2.3625 2.3625v.0286833c0 1.3047728-1.057728 2.3625-2.3625 2.3625h-12.603065c-1.304772 0-2.3625-1.0577272-2.3625-2.3625v-.0286833c0-1.3047727 1.057728-2.3625 2.3625-2.3625h3.938615v-7.9228055h4.725835zm-11.815007-64.9670056h18.904179c1.304772 0 2.3625 1.0577273 2.3625 2.3625v13.4831111h-23.629179v-13.4831111c0-1.3047727 1.057727-2.3625 2.3625-2.3625zm-2.3625 38.0294667h23.629179v13.4831111c0 1.3047727-1.057728 2.3625-2.3625 2.3625h-18.904179c-1.304773 0-2.3625-1.0577273-2.3625-2.3625zm0-19.0147333h23.629179v15.8456111h-23.629179z"/><g transform="translate(967.221 15.846)"><path d="m45.2892587 34.8603445h20.872441v-4.7536834h-20.872441zm-26.7104158-34.86034611 45.2203607-.00007821c1.3047727-.00000214 2.3625017 1.0577234 2.3625039 2.36249612l-.0000039 61.8266504c0 1.3047727-1.0577273 2.3625-2.3625 2.3625h-61.4367036c-1.30477272 0-2.3625-1.0577273-2.3625-2.3625v-45.5146654c0-.6241694.24700405-1.2229761.68706002-1.6656251l16.21634678-16.31190296c.4434461-.44605912 1.0464583-.69687382 1.6754361-.69687485zm6.2317945 19.41087521c-3.0450082 0-5.513475 2.4830126-5.513475 5.5459639v15.0533306c0 3.0629513 2.4684668 5.5459639 5.513475 5.5459639h14.9651464c3.0450081 0 5.5134749-2.4830126 5.5134749-5.5459639v-15.0533306c0-3.0629513-2.4684668-5.5459639-5.5134749-5.5459639z"/><path d="m24.8106374 24.164557c-.4350012 0-.7876393.354716-.7876393.7922805v15.0533306c0 .4375645.3526381.7922805.7876393.7922805h14.9651464c.4350011 0 .7876392-.354716.7876392-.7922805v-15.0533306c0-.4375645-.3526381-.7922805-.7876392-.7922805z"/></g></g><g transform="translate(1123.174 20.6)"><path d="m48.8336355 9.50736667h-25.204457l2.4477825-7.84828304c.3078087-.9869216 1.2215431-1.65908363 2.2553518-1.65908363h15.7981884c1.0338087 0 1.9475431.67216203 2.2553518 1.65908363z" fill="#fafbfc"/><path d="m2.3625 12.6764889h67.737814c1.3047727 0 2.3625 1.0577273 2.3625 2.3625v39.6427111c0 1.3047728-1.0577273 2.3625-2.3625 2.3625h-67.737814c-1.30477272 0-2.3625-1.0577272-2.3625-2.3625v-39.6427111c0-1.3047727 1.05772728-2.3625 2.3625-2.3625zm33.868907 33.2757834c6.0900163 0 11.0269499-4.9660253 11.0269499-11.0919278 0-6.1259026-4.9369336-11.0919278-11.0269499-11.0919278s-11.02695 4.9660252-11.02695 11.0919278c0 6.1259025 4.9369337 11.0919278 11.02695 11.0919278z" fill="#ebecf0"/></g><g fill="#ebecf0"><g transform="translate(1279.126 14.261)"><path d="m3.15 1.10921212h66.162814c1.7396969 0 3.15 1.41030304 3.15 3.15v60.25156668c0 1.739697-1.4103031 3.15-3.15 3.15h-66.162814c-1.73969696 0-3.15-1.410303-3.15-3.15v-60.25156668c0-1.73969696 1.41030304-3.15 3.15-3.15zm45.9276669 6.22769156c-.4965765-.30357626-1.067551-.46363879-1.6495693-.46242728l-21.0883344.04389677c-.5795918.00120646-1.1476147.16229909-1.641547.46554657l-16.92601845 10.39165286c-.93122022.5717184-1.49962421 1.585201-1.50188934 2.6779168l-.05893529 28.4308268c-.00227917 1.0994914.56889771 2.1206093 1.50698089 2.6940956l16.86079219 10.3076503c.4965764.3035763 1.067551.4636388 1.6495692.4624273l21.0883344-.0438968c.5795918-.0012064 1.1476147-.162299 1.641547-.4655465l16.9260185-10.3916528c.9312202-.5717185 1.4996242-1.585201 1.5018893-2.6779169l.0589353-28.4308267c.0022792-1.0994915-.5688977-2.1206094-1.5069809-2.6940957z"/><path d="m21.9104395 22.1838556h28.641935c.7907713 0 1.4318181.6410468 1.4318181 1.4318182v22.4893414c0 .7907713-.6410468 1.4318182-1.4318181 1.4318182h-28.641935c-.7907713 0-1.4318182-.6410469-1.4318182-1.4318182v-22.4893414c0-.7907714.6410469-1.4318182 1.4318182-1.4318182zm14.3209675 19.0147333c3.4800093 0 6.3011142-2.8377287 6.3011142-6.3382444 0-3.5005158-2.8211049-6.3382445-6.3011142-6.3382445s-6.3011143 2.8377287-6.3011143 6.3382445c0 3.5005157 2.821105 6.3382444 6.3011143 6.3382444z"/><ellipse cx="28.095" cy="14.261" rx="3.151" ry="3.169"/><ellipse cx="12.603" cy="25.353" rx="3.151" ry="3.169"/><ellipse cx="12.603" cy="44.368" rx="3.151" ry="3.169"/><ellipse cx="59.861" cy="25.353" rx="3.151" ry="3.169"/><ellipse cx="59.861" cy="44.368" rx="3.151" ry="3.169"/><ellipse cx="28.095" cy="53.875" rx="3.151" ry="3.169"/><ellipse cx="45.423" cy="14.261" rx="3.151" ry="3.169"/><ellipse cx="45.423" cy="53.875" rx="3.151" ry="3.169"/></g><path d="m63.0111426 58.6287612v10.3139889c0 1.3047727-1.0577273 2.3625-2.3625 2.3625h-58.2861426c-1.30477272 0-2.3625-1.0577273-2.3625-2.3625v-10.3139889h8.34917139c.60889393 0 1.1025-.4936061 1.1025-1.1025v-4.1332445c0-.6088939-.49360607-1.1025-1.1025-1.1025h-8.34917139v-20.5992945h8.34917139c.60889393 0 1.1025-.493606 1.1025-1.1025v-4.1332444c0-.6088939-.49360607-1.1025-1.1025-1.1025h-8.34917139v-22.9904778c0-1.30477272 1.05772728-2.3625 2.3625-2.3625h58.2861426c1.3047727 0 2.3625 1.05772728 2.3625 2.3625v22.9904778h-8.3491714c-.6088939 0-1.1025.4936061-1.1025 1.1025v4.1332444c0 .608894.4936061 1.1025 1.1025 1.1025h8.3491714v20.5992945h-8.3491714c-.6088939 0-1.1025.4936061-1.1025 1.1025v4.1332445c0 .6088939.4936061 1.1025 1.1025 1.1025zm-46.155857-33.2757834c-.6088939 0-1.1025.4936061-1.1025 1.1025v4.1332445c0 .6088939.4936061 1.1024999 1.1025 1.1024999h4.0961143c.6088939 0 1.1025-.493606 1.1025-1.1024999v-4.1332445c0-.6088939-.4936061-1.1025-1.1025-1.1025zm0-12.6764889c-.6088939 0-1.1025.4936061-1.1025 1.1025v4.1332445c0 .6088939.4936061 1.1024999 1.1025 1.1024999h4.0961143c.6088939 0 1.1025-.493606 1.1025-1.1024999v-4.1332445c0-.6088939-.4936061-1.1025-1.1025-1.1025zm0 26.9375389c-.6088939 0-1.1025.4936061-1.1025 1.1025v4.1332445c0 .6088939.4936061 1.1025 1.1025 1.1025h4.0961143c.6088939 0 1.1025-.4936061 1.1025-1.1025v-4.1332445c0-.6088939-.4936061-1.1025-1.1025-1.1025zm12.6022285-14.26105c-.6088939 0-1.1024999.4936061-1.1024999 1.1025v4.1332445c0 .6088939.493606 1.1024999 1.1024999 1.1024999h4.0961143c.608894 0 1.1025-.493606 1.1025-1.1024999v-4.1332445c0-.6088939-.493606-1.1025-1.1025-1.1025zm0-12.6764889c-.6088939 0-1.1024999.4936061-1.1024999 1.1025v4.1332445c0 .6088939.493606 1.1024999 1.1024999 1.1024999h4.0961143c.608894 0 1.1025-.493606 1.1025-1.1024999v-4.1332445c0-.6088939-.493606-1.1025-1.1025-1.1025zm0 26.9375389c-.6088939 0-1.1024999.4936061-1.1024999 1.1025v4.1332445c0 .6088939.493606 1.1025 1.1024999 1.1025h4.0961143c.608894 0 1.1025-.4936061 1.1025-1.1025v-4.1332445c0-.6088939-.493606-1.1025-1.1025-1.1025zm12.6022286-14.26105c-.608894 0-1.1025.4936061-1.1025 1.1025v4.1332445c0 .6088939.493606 1.1024999 1.1025 1.1024999h4.0961143c.6088939 0 1.1024999-.493606 1.1024999-1.1024999v-4.1332445c0-.6088939-.493606-1.1025-1.1024999-1.1025zm0-12.6764889c-.608894 0-1.1025.4936061-1.1025 1.1025v4.1332445c0 .6088939.493606 1.1024999 1.1025 1.1024999h4.0961143c.6088939 0 1.1024999-.493606 1.1024999-1.1024999v-4.1332445c0-.6088939-.493606-1.1025-1.1024999-1.1025zm0 26.9375389c-.608894 0-1.1025.4936061-1.1025 1.1025v4.1332445c0 .6088939.493606 1.1025 1.1025 1.1025h4.0961143c.6088939 0 1.1024999-.4936061 1.1024999-1.1025v-4.1332445c0-.6088939-.493606-1.1025-1.1024999-1.1025zm-25.2044571 12.6764889c-.6088939 0-1.1025.4936061-1.1025 1.1025v4.1332445c0 .6088939.4936061 1.1025 1.1025 1.1025h4.0961143c.6088939 0 1.1025-.4936061 1.1025-1.1025v-4.1332445c0-.6088939-.4936061-1.1025-1.1025-1.1025zm12.6022285 0c-.6088939 0-1.1024999.4936061-1.1024999 1.1025v4.1332445c0 .6088939.493606 1.1025 1.1024999 1.1025h4.0961143c.608894 0 1.1025-.4936061 1.1025-1.1025v-4.1332445c0-.6088939-.493606-1.1025-1.1025-1.1025zm12.6022286 0c-.608894 0-1.1025.4936061-1.1025 1.1025v4.1332445c0 .6088939.493606 1.1025 1.1025 1.1025h4.0961143c.6088939 0 1.1024999-.4936061 1.1024999-1.1025v-4.1332445c0-.6088939-.493606-1.1025-1.1024999-1.1025zm-12.9170893 22.1838556h4.7258357v13.4826933c0 1.3050034-1.0579143 2.3629178-2.3629178 2.3629178s-2.3629179-1.0579144-2.3629179-2.3629178zm13.3898678 0h4.7258357v13.4826933c0 1.3050034-1.0579143 2.3629178-2.3629178 2.3629178s-2.3629179-1.0579144-2.3629179-2.3629178zm-26.7797356 0h4.7258357v13.4826933c0 1.3050034-1.0579143 2.3629178-2.3629178 2.3629178s-2.3629179-1.0579144-2.3629179-2.3629178z" transform="translate(1435.079 3.17)"/></g></g></g></svg>