<svg width="161" height="46" viewBox="0 0 161 46" fill="none" xmlns="http://www.w3.org/2000/svg">
<path d="M69.9134 34.0119V12.1987H77.2014L77.8031 8.30347H57.6777V12.1987H65.1663V33.947H69.9134V34.0119ZM92.5127 34.3365C98.4634 34.3365 101.673 31.7397 101.673 25.6372V8.36839H96.8587V25.5722C96.8587 28.4937 96.257 30.5711 92.1784 30.5711H91.1086C87.0301 30.5711 86.3614 28.4937 86.3614 25.5722V8.36839H81.6142V25.6372C81.6142 31.7397 84.8905 34.3365 90.7743 34.3365H92.5127ZM125.342 34.0119V30.1816H113.039V8.36839H108.292V34.0119H125.342ZM135.237 34.0119V8.36839H130.49V34.0119H135.237ZM147.005 34.0119V23.9492H152.287C158.171 23.9492 160.578 22.0016 160.578 17.2625V15.3149C160.578 9.92647 158.372 8.30347 152.087 8.30347H142.258V33.947H147.005V34.0119ZM155.764 17.1975C155.764 19.4697 155.162 20.1839 151.752 20.1839H147.005V12.1338H151.819C155.296 12.1338 155.831 12.9128 155.831 15.3798V17.1975H155.764Z" fill="#212E44"/>
<path d="M39.8928 11.4846V28.4289L22.5088 45.3731V28.4289L39.8928 11.4846Z" fill="#FFD700"/>
<path d="M18.0288 28.4289V45.3731L0.578125 28.4289V11.4846L18.0288 28.4289Z" fill="#FFD700"/>
<path d="M32.6045 12.5881L20.3019 24.5986L7.93262 12.5881L20.3019 0.643066L32.6045 12.5881Z" fill="#FFD700"/>
</svg>
