<svg xmlns="http://www.w3.org/2000/svg" width="537" height="394" viewBox="0 0 537 394">
  <g fill="none">
    <rect width="537" height="393.345" fill="#282A29"/>
    <g fill="#F9F9FA" transform="translate(88 145)">
      <path d="M156.550704,76.9435124 L156.550704,26.9504664 L172.966882,26.9504664 L174.322346,18.0231368 L128.989597,18.0231368 L128.989597,26.9504664 L145.857597,26.9504664 L145.857597,76.7947235 L156.550704,76.7947235 L156.550704,76.9435124 Z M207.455918,77.6874565 C220.859953,77.6874565 228.089096,71.7359034 228.089096,57.7497537 L228.089096,18.1719256 L217.245382,18.1719256 L217.245382,57.6009648 C217.245382,64.2964621 215.889917,69.0577045 206.702882,69.0577045 L204.293168,69.0577045 C195.106132,69.0577045 193.600061,64.2964621 193.600061,57.6009648 L193.600061,18.1719256 L182.906953,18.1719256 L182.906953,57.7497537 C182.906953,71.7359034 190.286703,77.6874565 203.540132,77.6874565 L207.455918,77.6874565 Z M281.404024,76.9435124 L281.404024,68.1649716 L253.69231,68.1649716 L253.69231,18.1719256 L242.999203,18.1719256 L242.999203,76.9435124 L281.404024,76.9435124 Z M303.693881,76.9435124 L303.693881,18.1719256 L293.000774,18.1719256 L293.000774,76.9435124 L303.693881,76.9435124 Z M330.200738,76.9435124 L330.200738,53.8812442 L342.098702,53.8812442 C355.352131,53.8812442 360.773988,49.4175793 360.773988,38.555995 L360.773988,34.0923301 C360.773988,21.7428575 355.803952,18.0231368 341.646881,18.0231368 L319.507631,18.0231368 L319.507631,76.7947235 L330.200738,76.7947235 L330.200738,76.9435124 Z M349.930273,38.4072061 C349.930273,43.6148151 348.574809,45.2514922 340.893845,45.2514922 L330.200738,45.2514922 L330.200738,26.8016776 L341.044452,26.8016776 C348.876023,26.8016776 350.080881,28.5871435 350.080881,34.241119 L350.080881,38.4072061 L349.930273,38.4072061 Z"/>
      <polygon points="88.928 25.314 88.928 64.148 49.77 102.982 49.77 64.148"/>
      <polygon points="39.68 64.148 39.68 102.982 .371 64.148 .371 25.314"/>
      <polygon points="72.512 27.843 44.8 55.369 16.938 27.843 44.8 .466"/>
    </g>
  </g>
</svg>
