<svg xmlns="http://www.w3.org/2000/svg" width="537" height="394" viewBox="0 0 537 394">
  <g fill="none" fill-rule="evenodd">
    <rect width="537" height="393.345" fill="#F9F9FA" fill-rule="nonzero"/>
    <g transform="translate(87 144)">
      <path fill="#212E44" fill-rule="nonzero" d="M158.468534,77.1491256 L158.468534,27.790779 L174.959483,27.790779 L176.321121,18.9767886 L130.781897,18.9767886 L130.781897,27.790779 L147.726724,27.790779 L147.726724,77.0022258 L158.468534,77.0022258 L158.468534,77.1491256 Z M209.605603,77.8836248 C223.07069,77.8836248 230.332759,72.0076312 230.332759,58.1990461 L230.332759,19.1236884 L219.439655,19.1236884 L219.439655,58.0521463 C219.439655,64.6626391 218.078017,69.363434 208.849138,69.363434 L206.428448,69.363434 C197.199569,69.363434 195.686638,64.6626391 195.686638,58.0521463 L195.686638,19.1236884 L184.944828,19.1236884 L184.944828,58.1990461 C184.944828,72.0076312 192.35819,77.8836248 205.671983,77.8836248 L209.605603,77.8836248 Z M283.890517,77.1491256 L283.890517,68.482035 L256.052586,68.482035 L256.052586,19.1236884 L245.310776,19.1236884 L245.310776,77.1491256 L283.890517,77.1491256 Z M306.281897,77.1491256 L306.281897,19.1236884 L295.540086,19.1236884 L295.540086,77.1491256 L306.281897,77.1491256 Z M332.909483,77.1491256 L332.909483,54.3796502 L344.861638,54.3796502 C358.175431,54.3796502 363.621983,49.972655 363.621983,39.2489666 L363.621983,34.8419714 C363.621983,22.6492846 358.62931,18.9767886 344.407759,18.9767886 L322.167672,18.9767886 L322.167672,77.0022258 L332.909483,77.0022258 L332.909483,77.1491256 Z M352.728879,39.1020668 C352.728879,44.2435612 351.367241,45.8594595 343.651293,45.8594595 L332.909483,45.8594595 L332.909483,27.6438792 L343.802586,27.6438792 C351.669828,27.6438792 352.880172,29.4066773 352.880172,34.9888712 L352.880172,39.1020668 L352.728879,39.1020668 Z"/>
      <polygon fill="#FFD700" fill-rule="nonzero" points="90.538 26.175 90.538 64.516 51.202 102.857 51.202 64.516"/>
      <polygon fill="#FFD700" fill-rule="nonzero" points="41.065 64.516 41.065 102.857 1.578 64.516 1.578 26.175"/>
      <polygon fill="#FFD700" fill-rule="nonzero" points="74.047 28.672 46.209 55.849 18.22 28.672 46.209 1.643"/>
    </g>
  </g>
</svg>
