<svg height="394" viewBox="0 0 537 394" width="537" xmlns="http://www.w3.org/2000/svg"><g fill="none"><path d="m0 0h537v393.345h-537z" fill="#f9f9fa"/><g transform="translate(87 144)"><path d="m158.468534 77.1491256v-49.3583466h16.490949l1.361638-8.8139904h-45.539224v8.8139904h16.944827v49.2114468h10.74181zm51.137069.7344992c13.465087 0 20.727156-5.8759936 20.727156-19.6845787v-39.0753577h-10.893104v38.9284579c0 6.6104928-1.361638 11.3112877-10.590517 11.3112877h-2.42069c-9.228879 0-10.74181-4.7007949-10.74181-11.3112877v-38.9284579h-10.74181v39.0753577c0 13.8085851 7.413362 19.6845787 20.727155 19.6845787zm74.284914-.7344992v-8.6670906h-27.837931v-49.3583466h-10.74181v58.0254372zm22.39138 0v-58.0254372h-10.741811v58.0254372zm26.627586 0v-22.7694754h11.952155c13.313793 0 18.760345-4.4069952 18.760345-15.1306836v-4.4069952c0-12.1926868-4.992673-15.8651828-19.214224-15.8651828h-22.240087v58.0254372h10.741811zm19.819396-38.0470588c0 5.1414944-1.361638 6.7573927-9.077586 6.7573927h-10.74181v-18.2155803h10.893103c7.867242 0 9.077586 1.7627981 9.077586 7.344992v4.1131956z" fill="#212e44"/><g fill="#ffd700"><path d="m90.538 26.175v38.341l-39.336 38.341v-38.341z"/><path d="m41.065 64.516v38.341l-39.487-38.341v-38.341z"/><path d="m74.047 28.672-27.838 27.177-27.989-27.177 27.989-27.029z"/></g></g></g></svg>