<svg fill="none" height="150" viewBox="0 0 286 150" width="286" xmlns="http://www.w3.org/2000/svg"><path d="m0 0h286v150h-286z" fill="#ffd700"/><path clip-rule="evenodd" d="m102.312 65.738-10.5979 10.3466-10.6558-10.3466 10.6558-10.2902zm-12.5565 28.243v-14.5968l-15.0331-14.5968v14.5968zm18.8355-14.5968v-14.5968l-14.976 14.5968v14.5968zm25.861-13.9816v18.7353h-4.089v-18.7353h-6.451v-3.3556h17.337l-.518 3.3556zm27.36 11.5767c0 5.2571-2.765 7.4941-7.891 7.4941h-1.498c-5.068 0-7.891-2.237-7.891-7.4941v-14.8764h4.09v14.8205c0 2.5167.576 4.3063 4.089 4.3063h.922c3.513 0 4.032-1.7896 4.032-4.3063v-14.8205h4.147zm20.39 3.9149v3.2996h-14.688v-22.0909h4.09v18.7913zm8.525-18.7913v22.0909h-4.09v-22.0909zm10.137 13.4223v8.6127h-4.09v-22.0909h8.468c5.414 0 7.315 1.3982 7.315 6.04v1.6778c0 4.0827-2.074 5.7604-7.143 5.7604zm4.09-3.2437c2.937 0 3.455-.6152 3.455-2.5726h.058v-1.5659c0-2.1252-.461-2.7963-3.456-2.7963h-4.147v6.9348z" fill="#212e44" fill-rule="evenodd"/></svg>