<svg xmlns="http://www.w3.org/2000/svg" width="537" height="394" viewBox="0 0 537 394">
  <g fill="none">
    <rect width="537" height="393.345" fill="#282726"/>
    <g fill="#F9F9FA" transform="translate(118 154)">
      <path d="M130.531196,64.2440977 L130.531196,22.5023312 L144.218924,22.5023312 L145.349103,15.0484443 L107.550883,15.0484443 L107.550883,22.5023312 L121.615337,22.5023312 L121.615337,64.1198663 L130.531196,64.1198663 L130.531196,64.2440977 Z M172.97571,64.8652549 C184.151928,64.8652549 190.179551,59.895997 190.179551,48.2182409 L190.179551,15.1726758 L181.138116,15.1726758 L181.138116,48.0940095 C181.138116,53.6844246 180.007937,57.659831 172.347832,57.659831 L170.338624,57.659831 C162.67852,57.659831 161.422765,53.6844246 161.422765,48.0940095 L161.422765,15.1726758 L152.506906,15.1726758 L152.506906,48.2182409 C152.506906,59.895997 158.660105,64.8652549 169.710747,64.8652549 L172.97571,64.8652549 Z M234.633272,64.2440977 L234.633272,56.9144423 L211.527383,56.9144423 L211.527383,15.1726758 L202.611524,15.1726758 L202.611524,64.2440977 L234.633272,64.2440977 Z M253.218444,64.2440977 L253.218444,15.1726758 L244.302584,15.1726758 L244.302584,64.2440977 L253.218444,64.2440977 Z M275.319729,64.2440977 L275.319729,44.9882233 L285.240192,44.9882233 C296.290835,44.9882233 300.811552,41.2612798 300.811552,32.1923841 L300.811552,28.4654407 C300.811552,18.1542305 296.667561,15.0484443 284.863466,15.0484443 L266.40387,15.0484443 L266.40387,64.1198663 L275.319729,64.1198663 L275.319729,64.2440977 Z M291.770117,32.0681527 C291.770117,36.4162534 290.639938,37.7827993 284.235588,37.7827993 L275.319729,37.7827993 L275.319729,22.3780997 L284.361164,22.3780997 C290.891089,22.3780997 291.895693,23.8688771 291.895693,28.5896721 L291.895693,32.0681527 L291.770117,32.0681527 Z"/>
      <polygon points="74.148 21.136 74.148 53.56 41.498 85.985 41.498 53.56"/>
      <polygon points="33.085 53.56 33.085 85.985 .309 53.56 .309 21.136"/>
      <polygon points="60.46 23.248 37.354 46.231 14.123 23.248 37.354 .389"/>
    </g>
  </g>
</svg>
