<svg xmlns="http://www.w3.org/2000/svg" width="537" height="394" viewBox="0 0 537 394">
  <g fill="none" fill-rule="evenodd">
    <rect width="537" height="393.345" fill="#F9F9FA" fill-rule="nonzero"/>
    <g transform="translate(117 153)">
      <path fill="#212E44" fill-rule="nonzero" d="M131.531196,65.4280566 L131.531196,23.5685972 L145.218924,23.5685972 L146.349103,16.0936937 L108.550883,16.0936937 L108.550883,23.5685972 L122.615337,23.5685972 L122.615337,65.3034749 L131.531196,65.3034749 L131.531196,65.4280566 Z M173.97571,66.0509653 C185.151928,66.0509653 191.179551,61.0676963 191.179551,49.3570142 L191.179551,16.2182754 L182.138116,16.2182754 L182.138116,49.2324324 C182.138116,54.83861 181.007937,58.8252252 173.347832,58.8252252 L171.338624,58.8252252 C163.67852,58.8252252 162.422765,54.83861 162.422765,49.2324324 L162.422765,16.2182754 L153.506906,16.2182754 L153.506906,49.3570142 C153.506906,61.0676963 159.660105,66.0509653 170.710747,66.0509653 L173.97571,66.0509653 Z M235.633272,65.4280566 L235.633272,58.0777349 L212.527383,58.0777349 L212.527383,16.2182754 L203.611524,16.2182754 L203.611524,65.4280566 L235.633272,65.4280566 Z M254.218444,65.4280566 L254.218444,16.2182754 L245.302584,16.2182754 L245.302584,65.4280566 L254.218444,65.4280566 Z M276.319729,65.4280566 L276.319729,46.1178893 L286.240192,46.1178893 C297.290835,46.1178893 301.811552,42.3804376 301.811552,33.2859717 L301.811552,29.5485199 C301.811552,19.2082368 297.667561,16.0936937 285.863466,16.0936937 L267.40387,16.0936937 L267.40387,65.3034749 L276.319729,65.3034749 L276.319729,65.4280566 Z M292.770117,33.16139 C292.770117,37.5217503 291.639938,38.8921493 285.235588,38.8921493 L276.319729,38.8921493 L276.319729,23.4440154 L285.361164,23.4440154 C291.891089,23.4440154 292.895693,24.9389961 292.895693,29.6731017 L292.895693,33.16139 L292.770117,33.16139 Z"/>
      <polygon fill="#FFD700" fill-rule="nonzero" points="75.148 22.198 75.148 54.714 42.498 87.23 42.498 54.714"/>
      <polygon fill="#FFD700" fill-rule="nonzero" points="34.085 54.714 34.085 87.23 1.309 54.714 1.309 22.198"/>
      <polygon fill="#FFD700" fill-rule="nonzero" points="61.46 24.316 38.354 47.364 15.123 24.316 38.354 1.393"/>
    </g>
  </g>
</svg>
