<svg height="394" viewBox="0 0 537 394" width="537" xmlns="http://www.w3.org/2000/svg"><g fill="none"><path d="m0 0h537v393.345h-537z" fill="#282a29"/><g fill="#f9f9fa" transform="translate(88 145)"><path d="m156.550704 76.9435124v-49.993046h16.416178l1.355464-8.9273296h-45.332749v8.9273296h16.868v49.8442571h10.693107zm50.905214.7439441c13.404035 0 20.633178-5.9515531 20.633178-19.9377028v-39.5778281h-10.843714v39.4290392c0 6.6954973-1.355465 11.4567397-10.5425 11.4567397h-2.409714c-9.187036 0-10.693107-4.7612424-10.693107-11.4567397v-39.4290392h-10.693108v39.5778281c0 13.9861497 7.37975 19.9377028 20.633179 19.9377028zm73.948106-.7439441v-8.7785408h-27.711714v-49.993046h-10.693107v58.7715868zm22.289857 0v-58.7715868h-10.693107v58.7715868zm26.506857 0v-23.0622682h11.897964c13.253429 0 18.675286-4.4636649 18.675286-15.3252492v-4.4636649c0-12.3494726-4.970036-16.0691933-19.127107-16.0691933h-22.13925v58.7715867h10.693107zm19.729535-38.5363063c0 5.207609-1.355464 6.8442861-9.036428 6.8442861h-10.693107v-18.4498146h10.843714c7.831571 0 9.036429 1.7854659 9.036429 7.4394414v4.1660871z"/><path d="m88.928 25.314v38.834l-39.158 38.834v-38.834z"/><path d="m39.68 64.148v38.834l-39.309-38.834v-38.834z"/><path d="m72.512 27.843-27.712 27.526-27.862-27.526 27.862-27.377z"/></g></g></svg>