<?xml version="1.0" encoding="UTF-8"?>
<svg width="411px" height="119px" viewBox="0 0 411 119" version="1.1" xmlns="http://www.w3.org/2000/svg" xmlns:xlink="http://www.w3.org/1999/xlink">
    <!-- Generator: Sketch 48.2 (47327) - http://www.bohemiancoding.com/sketch -->
    <title>tulip-logo</title>
    <desc>Created with Sketch.</desc>
    <defs></defs>
    <g id="tulip_01" stroke="none" stroke-width="1" fill="none" fill-rule="evenodd" transform="translate(-194.000000, -174.000000)">
        <g id="tulip-logo" transform="translate(194.000000, 115.000000)" fill="#FFFFFF" fill-rule="nonzero">
            <g transform="translate(0.000000, 59.000000)">
                <path d="M178.1401,88.2421713 L178.1401,30.8332381 L196.772055,30.8332381 L198.285309,20.6355987 L146.740057,20.6355987 L146.740057,30.8332381 L165.939482,30.8332381 L165.939482,88.2421713 L178.1401,88.2421713 Z M236.02211,89.0919745 C251.249239,89.0919745 259.477563,82.2935482 259.477563,66.2417084 L259.477563,20.6355987 L247.276945,20.6355987 L247.276945,66.0528631 C247.276945,73.7955154 245.669111,79.2720255 235.265481,79.2720255 L232.522706,79.2720255 C222.119078,79.2720255 220.416665,73.7955154 220.416665,66.0528631 L220.416665,20.6355987 L208.216047,20.6355987 L208.216047,66.2417084 C208.216047,82.2935482 216.538949,89.0919745 231.766079,89.0919745 L236.02211,89.0919745 Z M320.291503,88.2421713 L320.291503,78.1389544 L288.702303,78.1389544 L288.702303,20.6355987 L276.501684,20.6355987 L276.501684,88.2421713 L320.291503,88.2421713 Z M345.638527,88.2421713 L345.638527,20.6355987 L333.437908,20.6355987 L333.437908,88.2421713 L345.638527,88.2421713 Z M375.809051,88.2421713 L375.809051,61.7094242 L389.333768,61.7094242 C404.371741,61.7094242 410.613918,56.6106044 410.613918,44.1468229 L410.613918,39.0480032 C410.613918,24.8846151 405.03379,20.6355987 388.766298,20.6355987 L363.608432,20.6355987 L363.608432,88.2421713 L375.809051,88.2421713 Z M398.318722,43.9579777 C398.318722,50.0010234 396.805466,51.7950524 388.104249,51.7950524 L375.809051,51.7950524 L375.809051,30.5499703 L388.104249,30.5499703 C396.994623,30.5499703 398.318722,32.6272672 398.318722,39.0480032 L398.318722,43.9579777 Z" id="TULIP-Copy-3"></path>
                <polygon id="Shape-Copy-5" points="101.219272 29.0025846 101.219272 73.6087854 56.539442 118.214986 56.539442 73.6087854"></polygon>
                <polygon id="Shape-Copy-9" points="45.089129 73.6087854 45.089129 118.214986 0.409299412 73.6087854 0.409299412 29.0025846"></polygon>
                <polygon id="Shape-Copy-10" points="82.4974196 31.913478 50.8733077 63.4501209 19.2846092 31.913478 50.908721 0.365050185"></polygon>
            </g>
        </g>
    </g>
</svg>