<svg xmlns="http://www.w3.org/2000/svg" xmlns:xlink="http://www.w3.org/1999/xlink" width="386" height="398" viewBox="0 0 386 398">
  <defs>
    <rect id="a" width="14" height="14" x="18" y="67" rx="3"/>
  </defs>
  <g fill="none" fill-rule="evenodd">
    <rect width="385" height="398" fill="#FCFCFC"/>
    <text fill="#2B2D31" font-family="SpaceMono-Bold, Space Mono" font-size="20" font-weight="bold" letter-spacing="3">
      <tspan x="19" y="32">TYPOGRAPH</tspan> <tspan x="156.16" y="32">Y</tspan>
    </text>
    <path stroke="#2B2D31" stroke-linecap="square" stroke-linejoin="round" stroke-width="2" d="M22.5,46.5 L384.965171,46.5"/>
    <path stroke="#E9ECEF" stroke-linecap="square" stroke-linejoin="round" d="M53 186L384.500377 186M53 288L384.500377 288"/>
    <g transform="translate(53 71)">
      <rect width="14" height="14" y="88" fill="#222E43" rx="3"/>
      <rect width="14" height="14" x="18" y="88" fill="#6B7688" rx="3"/>
      <rect width="14" height="14" x="36" y="88" fill="#3F8BE8" rx="3"/>
      <text fill="#222E43" font-family="DINOT-Medium, DIN OT" font-size="30" font-weight="400">
        <tspan x="0" y="31">DIN Medium</tspan>
      </text>
      <text fill="#76797D" font-family="Karla-Regular, Karla" font-size="14">
        <tspan x="0" y="60">Major Headings, Secondary Headings</tspan> <tspan x="0" y="77">38px, 32px, 20px, 16px</tspan>
      </text>
    </g>
    <g transform="translate(53 295)">
      <rect width="14" height="14" y="64" fill="#182338" rx="3"/>
      <rect width="14" height="14" x="18" y="64" fill="#48556B" rx="3"/>
      <rect width="14" height="14" x="36" y="64" fill="#696F78" rx="3"/>
      <text fill="#76797D" font-family="DINOT, DIN OT" font-size="14">
        <tspan x="0" y="15">DIN Regular</tspan>
      </text>
      <text fill="#76797D" font-family="Karla-Regular, Karla" font-size="14">
        <tspan x="0" y="36">Body, Captions, Quotes</tspan> <tspan x="0" y="53">20px, 18px, 16px, 14px</tspan>
      </text>
    </g>
    <g transform="translate(53 194)">
      <rect width="14" height="14" y="67" fill="#48556B" rx="3"/>
      <use fill="#FCFCFC" xlink:href="#a"/>
      <rect width="13" height="13" x="18.5" y="67.5" stroke="#2F3234" rx="3"/>
      <text fill="#2F3234" font-family="Geogrotesque-SemiBold, Geogrotesque" font-size="20" font-weight="500" letter-spacing="2.27">
        <tspan x="0" y="19">GEOGROTESQUE SEMIBOLD</tspan>
      </text>
      <text fill="#76797D" font-family="Karla-Regular, Karla" font-size="14">
        <tspan x="0" y="39">Tertiary Headings, Buttons</tspan> <tspan x="0" y="56">18px, 14px</tspan>
      </text>
    </g>
  </g>
</svg>
