<svg fill="none" height="33" viewBox="0 0 160 33" width="160" xmlns="http://www.w3.org/2000/svg"><path clip-rule="evenodd" d="m86.7588 10.3203 8.3086-1.50487v-1.32446l-8.3086 2.39673zm28.2762 9.7566c-.064-.0627-.131-.1233-.199-.1816-.378-.3223-.812-.5747-1.283-.7432.595-.3198 1.087-.8018 1.42-1.3901.387-.6643.59-1.4197.59-2.1888-.002-.5056-.091-1.007-.262-1.4829-.165-.479-.413-.9253-.732-1.3188-.138-.1663-.29-.3203-.453-.4607-.218-.187-.456-.3501-.711-.4858-.473-.2474-1-.3733-1.534-.3667h-8.468v15.8688h7.648c.291.0008.582-.0158.87-.0498.374-.0439.745-.1169 1.108-.2182.587-.1655 1.142-.4321 1.638-.7881.187-.1355.36-.2871.518-.4526.247-.2588.458-.552.624-.8716.283-.5572.425-1.1751.415-1.8003.032-.9465-.253-1.8765-.808-2.6428-.117-.1516-.245-.2942-.381-.4268zm-3.252 4.2571c-.227.0979-.473.1465-.721.1423h-4.37v-3.8305h4.507c.091-.001.181.0065.27.0219.066.0117.132.0279.197.0484.065.0212.13.0471.193.0776.208.1011.394.2424.547.4158.155.1877.277.4006.361.6294.052.144.088.2927.109.4438.015.103.022.207.021.3113.002.2515-.046.5007-.142.7331-.089.2251-.221.4312-.387.6075-.166.1662-.366.2949-.585.3774zm0-6.8455c-.318.3223-.755.4986-1.207.4871h-3.889v-3.6719h4.025c.417-.0044.815.1712 1.093.4817.12.1367.218.2891.293.4514.125.2739.183.5772.166.8836.021.2531-.012.5048-.095.7392-.045.1287-.106.2522-.18.3677-.054.0842-.115.1643-.184.2393zm15.902 3.8523c.278-.1296.541-.2866.784-.468.475-.3525.877-.7971 1.182-1.3103.517-.8523.786-1.8323.776-2.8291-.001-.6626-.131-1.3186-.382-1.9316-.253-.6131-.61-1.1778-1.054-1.669-.456-.5054-1.003-.9194-1.612-1.2202-.638-.3101-1.339-.4692-2.048-.4653h-7.02v15.8689h3.278v-5.2366h2.764l3.277 5.2258h3.753zm-6.069-6.9714h3.523c.249.0032.494.0632.716.175.244.1172.46.2849.634.4927.192.2234.344.479.448.7551.042.1192.077.241.103.3643.042.1965.062.3972.061.5986.001.1685-.013.3367-.04.5025-.024.1506-.061.299-.108.4443-.043.136-.098.2676-.163.3936-.068.1289-.146.2517-.236.3669-.083.1169-.18.2231-.288.3157-.08.0683-.166.1294-.258.1823-.217.1199-.462.1819-.71.1807h-3.655zm24.67 2.0959c-.35-.947-.867-1.8237-1.525-2.5883-.66-.7596-1.462-1.3838-2.36-1.8387-.953-.4743-2.005-.7163-3.069-.7058-.505-.0039-1.007.0471-1.498.1511-.522.1109-1.032.282-1.518.511-.237.1123-.469.2366-.693.3723-.192.1167-.38.2417-.561.3748-.415.3037-.798.6489-1.144 1.0312-1.401 1.5313-2.181 3.5318-2.185 5.6089.008 1.0147.192 2.0203.546 2.9712.347.9463.866 1.8201 1.53 2.5774.666.7534 1.473 1.3689 2.376 1.8113.955.4612 2.004.6951 3.065.6841 1.045.008 2.079-.2183 3.026-.6621.904-.4265 1.715-1.0271 2.387-1.7676.681-.7495 1.22-1.6174 1.59-2.5608.372-.9668.558-1.9956.546-3.0315.004-1.0022-.17-1.9973-.513-2.9385zm-6.987 7.989c-.62.0101-1.232-.1347-1.781-.4213-.515-.2779-.967-.66-1.328-1.1216-.078-.1052-.152-.2132-.222-.3235-.26-.4102-.464-.8533-.608-1.3181-.191-.6187-.286-1.2625-.284-1.9099 0-.2964.021-.5921.062-.8848.047-.3301.119-.6563.216-.9756.17-.5933.448-1.1499.82-1.6416.114-.1518.238-.2956.371-.4302.279-.2824.597-.5249.946-.719.184-.0988.375-.1814.571-.247.389-.1294.797-.1927 1.209-.1853.608-.0103 1.208.1308 1.749.4104.509.2673.956.6403 1.311 1.0944.375.4937.662 1.0491.846 1.6417.201.6184.302 1.2648.301 1.9152.001.6292-.094 1.2552-.285 1.855-.059.2007-.13.3975-.212.5894-.158.3713-.358.7243-.596 1.0522-.346.4746-.789.8701-1.3 1.1599-.301.1675-.622.2908-.955.3672-.272.0625-.55.0938-.831.0925zm20.348-3.6169c-.242-.5112-.597-.9602-1.038-1.3132-.494-.387-1.047-.6919-1.638-.9031-.634-.2351-1.333-.4595-2.087-.6621l-.687-.1778c-.304-.08-.595-.1591-.854-.238-.378-.103-.744-.2461-1.092-.4267-.248-.1304-.462-.3179-.623-.5474-.149-.2105-.222-.4649-.208-.7222-.026-.4607.179-.9043.547-1.1821.533-.3272 1.157-.4785 1.781-.4321.159.0007.319.0083.478.0227.292.0263.581.0754.865.1469.423.1065.836.2474 1.235.4212.338.1423.663.3125.972.509.195.1126.378.2444.547.3941l.131.1367 1.535-2.7305-.104-.0713c-.763-.5061-1.583-.9211-2.442-1.2365-.985-.3633-2.026-.5486-3.075-.5472-.765-.0046-1.525.106-2.257.3282-.675.2058-1.305.538-1.857.9794-.537.4234-.967.9668-1.256 1.587-.314.6862-.469 1.4343-.454 2.1889-.015.5611.083 1.1197.29 1.6416.196.4427.489.8355.857 1.1492.422.3586.896.6519 1.404.8699.637.2722 1.292.4973 1.962.6731.319.0864.638.1745.958.2649.227.0639.453.1289.68.1948.431.1208.849.28 1.251.4761.289.1301.549.3159.765.5471.172.228.26.508.251.7934 0 .9851-.77 1.461-2.359 1.461-.581.0009-1.159-.0708-1.721-.2134-.092-.0239-.183-.0493-.274-.0759-.088-.0264-.177-.054-.265-.0828-.339-.1106-.672-.2405-.996-.3884-.169-.0681-.335-.1404-.5-.2168-.234-.1092-.465-.2266-.691-.3523-.245-.1414-.475-.3064-.688-.4924l-.132-.137-1.48 2.8894.099.071c.949.6668 1.998 1.1785 3.107 1.5159 1.134.3547 2.314.5391 3.502.5471.749.0044 1.496-.082 2.224-.2571.677-.153 1.32-.4314 1.895-.8208.549-.3901.997-.906 1.306-1.5048.336-.6795.503-1.4307.486-2.1888.024-.6474-.095-1.2922-.35-1.8879zm-111.7832-.6948 4.5615-8.7117h3.4526v15.8743h-3.3051v-9.8931l-3.7911 7.2559h-1.8139l-3.7906-7.2559v9.8931h-3.3051v-15.8743h3.4741zm15.334-8.7117h2.644l6.227 15.8689h-3.5068l-1.4204-3.8906h-5.2715l-1.4204 3.8906h-3.5068zm-.7212 9.5762h4.0151l-1.9775-5.7403zm7.8662-9.5762v2.9385h4.9765v12.9358h3.3052v-12.9358h4.9546v-2.9385zm17.8799 9.1548v3.781h7.7836v2.9385h-11.0888v-15.8743h10.8872v2.9385h-7.582v3.4748h6.5551v2.7415z" fill="#fff" fill-rule="evenodd"/><path clip-rule="evenodd" d="m33.9288 28.9306v.3557c0 .0189.0007.0372.0013.0547.0012.0334.0023.0644-.0013.0931l-.1366.0711-.3168.1532-.3878.1861c-.2349.1039-.4698.2079-.7047.3009-.634.2561-1.2836.4718-1.9448.6457-.782.2069-1.578.3568-2.3817.4487-.155.0161-.2747.0256-.4006.0356-.1316.0105-.2699.0215-.4625.041-.3769.0384-.732.0384-1.0925.0384-2.9347.004-5.8208-.7499-8.3798-2.1889-.2568-.1422-.508-.2954-.7539-.4487-.2458.1533-.4971.3065-.7484.4487-2.2585 1.281-4.7786 2.0295-7.36913 2.1889h-.85765-.15841c-1.45605.0046-2.90658-.1793-4.31553-.5472-.66815-.1833-1.32484-.4063-1.96657-.6676-.24036-.0931-.47526-.197-.710155-.301l-.387851-.186-.316837-.1587-.136567-.0712v-.1532h.0327762c0-.0403-.0042922-.0776-.0085626-.1147-.0084756-.0735-.01686499-.1464.0085626-.241.0382389-.1422.0382389-.2845.0382389-.4268.0273134-.2572.0546269-.5144.0928659-.7715.043701-.3284.098328-.6512.163881-.9686.223438-1.1024.554616-2.1801.988748-3.2176l.11472-.1203c.11471-.2627.23489-.5254.36053-.7825.33891-.6783.72023-1.3344 1.14171-1.9645 1.22437-1.8101 2.78167-3.37 4.58866-4.5965.5277-.3567 1.07481-.6837 1.63881-.9795-.03827-.6378-.03827-1.2774 0-1.9152.07808-1.0895.26102-2.1688.54627-3.22304.2833-1.05168.66559-2.07406 1.14169-3.0534.0084-.01683.0189-.03367.0294-.05051.0235-.03788.0471-.07577.0471-.11365.1311-.25718.2677-.51437.4097-.76061.3648-.65575.7755-1.28478 1.2291-1.88238.6662-.88565 1.4163-1.70478 2.2397-2.446.2458-.22435.4916-.43776.7648-.651172.2021-.158689.4097-.317378.6227-.465123.1147-.087552.2349-.169633.3496-.246241l.3005-.1969935.1256-.0820805.1366.0875525.2895.2134095c.1202.076608.2349.158689.3551.246241.2076.147745.4152.306434.6173.465127.2567.20246.5135.41587.7538.62928.8384.73966 1.6015 1.56084 2.278 2.45147.01.01334.02.02617.0298.0388.0224.02883.0441.05662.063.08706.1749.22982.3387.46512.4972.70589.4285.6201.8136 1.26918 1.1526 1.94257.4776.98059.8599 2.00493 1.1417 3.05887.2857 1.05413.4687 2.13353.5463 3.22303.0355.6379.0355 1.2773 0 1.9152.5633.297 1.1103.624 1.6388.9795 1.8037 1.2286 3.3589 2.7882 4.5832 4.5965.0109.0164.0224.0328.034.0493.023.0328.0461.0656.0643.0985.1584.2407.3114.487.4589.7332.3823.6455.7199 1.3165 1.0106 2.0082.4429 1.0437.7815 2.1289 1.0106 3.2395.0655.3174.1201.6457.1693.9685.0084.0556.0177.1115.027.1675.0327.1978.0659.3982.0659.5986.0382.1423.0382.3065.0382.4268zm-25.06307-4.1094 2.73137-1.5924.0164.0219c1.1843 1.9298 2.7405 3.604 4.5777 4.9248-2.2222 1.344-4.7349 2.1323-7.32547 2.2983zm1.11426-10.1542-.02172.009h.02185c-.00004-.003-.00009-.006-.00013-.009zm0 0 .39891-.1661c1.0276-.4377 2.0963-.7714 3.1902-.9959.9846-.1982 1.9842-.3117 2.9881-.3393v-3.17374l-4.8891-2.82904c-1.1481 2.33217-1.72665 4.90408-1.68811 7.50408zm6.55541-5.67095-4.4904-2.59921c1.1205-1.98781 2.6514-3.71339 4.4904-5.06163zm-7.30913 7.46935c.265 2.1102.92283 4.1519 1.93923 6.0192l-4.84538 2.7962-3.82389-2.2216c1.46574-2.9644 3.79798-5.4114 6.68634-7.0152.00443.0577.01246.1155.02044.1728.01168.084.02326.1673.02326.2486zm-8.281446 11.929c.171436-1.5662.572716-3.0984 1.190866-4.5472l3.32678 1.9316zm7.046876-3.0753v5.1875l-.15842.0055c-2.2231-.003-4.42151-.4669-6.4569-1.3625zm22.4134-4.0712-4.8891 2.8291-2.7477-1.565c.4807-.886.8829-1.8125 1.2018-2.7689.3538-1.0672.6009-2.167.7375-3.2832l.0491-.4323c2.2705 1.2653 4.2069 3.055 5.6484 5.2203zm2.5894 7.152-6.6208-3.8304 4.4903-2.5938c1.1632 1.963 1.8898 4.1542 2.1305 6.4242zm-6.894 2.1067c-2.9405-.0017-5.8247-.8077-8.3415-2.3311.7152-.4996 1.3893-1.0559 2.0157-1.6635.9944-.9824 1.8624-2.0853 2.5839-3.2832l4.8345 2.7962v4.4433c-.3769.0383-.732.0383-1.0926.0383zm1.9338-.1204v-3.8632l4.5286 2.6211c-1.4402.6351-2.9662 1.0536-4.5286 1.2421zm-10.6358-23.81973v-5.23126c1.277.93118 2.4091 2.04683 3.3595 3.31058zm6.5771 8.10413-.3988-.1697c-1.0187-.4363-2.0782-.7699-3.1629-.9959-.9865-.1978-1.9879-.3113-2.9936-.3393v-5.59238l3.8239-2.22164c.9855 1.47708 1.7236 3.10547 2.1851 4.82082.3917 1.4663.5756 2.9805.5463 4.4981zm-6.488 1.4716c.1808.0084.3608.0167.5391.0167.4862.0274.9833.0767 1.4968.1423l1.4967 2.5992c-.1857.4597-.3987.9193-.6227 1.368-.1411.3036-.2871.5571-.443.8276-.0071.0123-.0142.0246-.0213.037l-.0711.1314c-.0286.0399-.0542.082-.0764.1258-.1639.2846-.3387.5582-.519.8318-.2731.4213-.5681.8317-.874 1.2312h-2.9827c-.3059-.3995-.6009-.8099-.8794-1.2312-.0627-.102-.1254-.2012-.1875-.2996-.1113-.1761-.2209-.3496-.326-.5322l-.0765-.1313c-.0269-.0401-.0506-.0822-.071-.1259-.1639-.2845-.3169-.5745-.4644-.8646-.2294-.4487-.437-.9083-.6282-1.368l1.5023-2.5992c.0568-.0076.1136-.0153.1706-.023.436-.0593.8768-.1193 1.3261-.1193.3223-.0328.6446-.0328.9724-.0328h.3005c.1464.0025.2928.0093.4387.0161z" fill="#fff" fill-rule="evenodd"/><path d="m14.9733 24.3122h-4.1462c.2622.3995.5463.788.8194 1.1601.1912.2463.3824.487.5791.7223.4704.5569.9701 1.0885 1.4968 1.5924.8986-.6028 1.7479-1.2762 2.5401-2.0137-.4541-.4649-.8844-.9525-1.2892-1.4611zm-.9396-1.2585c-.1802-.2627-.355-.5472-.5462-.8099-.1147-.1806-.224-.3666-.3278-.5472s-.213-.3721-.3168-.5472h-3.70374c.18573.4323.38239.8646.59543 1.2914.15296.301.31681.5965.48071.8919.0148.0207.0276.0427.0383.0657.0159.0219.0288.0458.0382.0712h4.0205zm8.5492-6.0904c-.0929.3174-.1858.6348-.2896.9467s-.213.6128-.3332.9193l.8303 1.4172.4971.8646.7484 1.3242c.2185-.4268.4152-.8591.6009-1.2914.1202-.2845.2295-.5472.3387-.8645.2509-.6878.4625-1.3894.6337-2.1013-.973-.4891-1.9854-.8955-3.0263-1.2148zm-.2896 4.1697-.4971-.8865-.2567-.4377c-.0656.1477-.1311.29-.2021.4377-.1366.29-.2841.5801-.4316.8646-.1038.1861-.2076.3721-.3168.5472-.1093.1751-.2185.3721-.3278.5472l.6938 1.2093.4971.8591.6719 1.1601c.284-.3721.5463-.7606.8194-1.1601.1803-.279.3605-.5472.5463-.8591.0148-.0225.0276-.0463.0382-.0711l.0437-.0657zm-7.9154-9.0945c-.3059.0383-.6118.0821-.9123.1368-.7208.1277-1.4339.2958-2.1359.5034.0661 1.0838.2233 2.1602.4698 3.2176.3223-.0821.6446-.1533.9614-.2189.3169-.0657.6446-.1259.9615-.1751l.8303-1.4392.4971-.8646.7484-1.2914c-.5026.0329-.9505.0767-1.4203.1314zm3.5944-.1259c-.3332 0-.6719-.0273-1.0106-.0273h-.1529l-1.2619 2.1888-.4971.8645-.2513.4378.4971-.0547c.3223-.0274.6392-.0438.9615-.0547h1.2891l.6938-1.2039.4971-.8646.6555-1.16c-.4698-.0602-.945-.0985-1.4203-.1259z" fill="#3c7074"/><path d="m27.3684 13.9099c0-.1368 0-.2791 0-.4159l-.3551-.2188c-.2895-.1752-.579-.3393-.874-.498-.898-.483-1.8333-.8929-2.7969-1.2257-.2768-.0985-.5609-.1916-.8522-.2791-.4753-.1368-.956-.2627-1.4422-.3666l-.2731.4815-.4589.7934-1.0925 1.8879-.4971.8646-.2294.394.4807.0437c.3605.0329.7156.0821 1.0925.1368l.5463.9686.7975 1.3844c.1257-.3721.2459-.7497.3497-1.1272.0764-.2736.1529-.5472.213-.8318.2786.0712.5463.1478.8303.2299.6969.2129 1.3824.4613 2.054.7442.3168.1313.6337.2736.9451.4268l.7866.4049.4479.2462.0656-.3721c.0491-.3064.0983-.6128.1311-.9247 0-.1259.0328-.2517.0437-.3776.0328-.3229.0601-.6457.0765-.9686v-.3885c.0163-.3392.0163-.6949.0109-1.0123zm-15.5578 4.9194.5463-.9686.7975-1.3789c-.3878.0766-.7702.1587-1.1471.2572-.2786.0711-.5463.1477-.8249.2298-.0819-.2736-.1529-.5472-.2185-.8372-.168-.709-.2957-1.427-.3824-2.1506-.0437-.3392-.0765-.684-.1038-1.0232-.0273-.3393-.0382-.6019-.0437-.9029 0-.1642 0-.3283 0-.498l-.355.1314c-.29503.1094-.57909.2243-.86862.3447l-.34961.1532c-.29498.1368-.58451.2736-.86857.4214l-.34961.186c-.29499.1587-.58451.3229-.86857.498l-.35507.2188v.3995 1.0178c.03057 1.0162.14385 2.0283.33868 3.026.05463.301.12018.5965.1912.8975.11471.476.24582.9466.39877 1.4172h5.0912c-.0655-.1477-.1365-.29-.2021-.4378-.1584-.3283-.295-.6785-.4261-1.0013zm10.1934 8.1642-.4588-.7989-1.0926-1.8824-.4971-.8591-.2294-.3994c-.0874.1368-.1803.2681-.2786.3994-.2076.2901-.4261.5801-.6501.8591h-2.7313c.2567.2955.5462.5472.7866.8537.2404.3064.4097.4104.6227.6074l-.2949.2955-.3278.3173c-.7775.7333-1.6123 1.403-2.4965 2.0028-.2512.1696-.5025.3393-.7593.498l-.4206.2517.2895.2408c.2404.2024.4862.3939.732.58.1038.0766.2021.1532.3114.2243.2567.1916.5463.3721.7921.5472l.3223.208c.284.1751.5736.3447.8686.5089l.3496.186.3496-.186c.295-.1642.59-.3393.8795-.5144.8599-.5375 1.6779-1.1393 2.4473-1.8003.2349-.2025.4588-.4049.6828-.6183.3551-.3393.6992-.6895 1.0325-1.0561z" fill="#3c7074"/><g fill="#fff"><path d="m25.6038 18.1673c-.172.7045-.3836 1.3987-.6336 2.0794-.1093.29-.2186.58-.3387.8646-.1858.4323-.3824.8646-.6009 1.2914l-.743-1.2914-.4971-.8646-.8303-1.4173c.1202-.3064.2294-.6128.3332-.9193.1038-.3064.1967-.6293.2896-.9466-.2786-.0821-.5463-.1587-.8304-.2299-.1038.3776-.2239.7552-.3496 1.1273-.1256.3721-.2567.6949-.3988 1.0397-.1857.4596-.3987.9193-.6227 1.368-.1475.29-.3005.58-.4643.8646l-.0711.1313c-.0286.0399-.0542.082-.0764.1258-.1639.2846-.3387.5472-.519.8318-.2731.4213-.5463.8317-.874 1.2312h-2.9827c.2295.29.4644.58.7047.8591h2.7314c.224-.2791.4425-.5472.65-.8591.0984-.1313.1912-.2627.2786-.3995l.2295.3995.4971.8591 1.0925 1.8824.4589.7989.2731.4706c-.3332.3666-.6774.7168-1.0324 1.0561-.224.2134-.448.4159-.6829.6183-.7693.6611-1.5874 1.2629-2.4473 1.8003-.2895.1751-.5845.3503-.8794.5144l-.3497.1861-.3496-.1861-.0655-.0383h.0327.0274l.0601-.0328.2622-.1532c.284-.1642.5462-.3393.8467-.5199l.3168-.2134c.2622-.1806.5463-.3666.7812-.5472l.3004-.2298c.2185-.1697.437-.3502.6501-.5472-.2222-.1314-.4461-.2682-.6719-.4104-.2258.186-.4552.3684-.6883.5472l-.3278.2462c-.2567.1861-.5463.3666-.7866.5472l-.3551.2244c-.2786.1696-.5463.3392-.8467.4979l-.3496.1916-.0546-.0329-.3223-.2079-.082-.0821h.0328.0382l.3169-.186c.2731-.1587.5462-.3284.8139-.5035l.3496-.2353c.2568-.1751.5135-.3611.7593-.5472l.3278-.2517c.2185-.1696.4316-.3447.6337-.5472-.2076-.1423-.4152-.29-.6228-.4432l-.6664.5472-.3551.2626c-.2458.1806-.5026.3612-.7593.5472-.1257.0821-.2513.1642-.3824.2408-.2677.1696-.5463.3338-.8139.4925l-.3824.2079c-.017-.0097-.0318-.0227-.0437-.0383-.1093-.0711-.2076-.1477-.3114-.2243l-.0546-.0438.3987-.2353c.2677-.1587.5463-.3283.7867-.498l.3769-.2517.732-.5472.3551-.279c.2076-.1697.4206-.3448.6227-.5473-.1966-.1586-.3933-.3173-.5845-.4815-.2076.1806-.4261.3612-.6446.5472l-.3714.2846c-.2459.1805-.4917.3611-.743.5472-.1256.093-.2622.1805-.3933.2626-.2567.1642-.5463.3283-.7866.4816l-.4043.2298-.0437-.0383-.2895-.2408.4206-.2517c.2568-.1587.5081-.3283.7594-.498.8841-.5998 1.7189-1.2695 2.4964-2.0027l.3278-.3174.295-.2955c-.2113-.197-.4188-.3995-.6228-.6074-.2039.2079-.4115.4104-.6227.6074-.7922.7375-1.6416 1.4109-2.5402 2.0137-.2513.1642-.5026.3229-.7593.4761l-.437.2572c-.2622.1477-.5463.2955-.8085.4323.224.2188.4479.4268.6774.6347l.2622.2244c.2349.2079.4807.4104.7265.6019l.295.1642c.2622.1969.5463.3885.7921.5745l.2841.1861c.284.1897.5735.3721.8685.5472l.3059.1805c.3169.1806.6392.3448.9615.5089.3223-.1641.6446-.3283.9559-.5089l.306-.1805c.2949-.1751.5899-.3557.8795-.5472.823-.5434 1.6062-1.145 2.3434-1.8003.2295-.208.4535-.4159.6774-.6348l.0546-.0547c.2149-.2079.4225-.4214.6228-.6402.2076-.2244.4097-.4487.6009-.6786l-.4589-.8044-.284-.4924c.4982-.6282.9579-1.286 1.3766-1.97l.0819-.1368.2131-.3611.2075-.3612c.0222-.0491.0478-.0966.0765-.1423.3787-.7102.7179-1.441 1.0161-2.1888.1147-.2845.2185-.5472.3223-.8646 0-.0766.0491-.1586.0765-.2352.1638-.4816.3059-.9686.426-1.4556-.2349-.1478-.4971-.2846-.7593-.4159zm-3.4797 7.3052-.6719-1.1601-.4971-.8591-.6938-1.2093c.1093-.1806.224-.3666.3278-.5472s.213-.3721.3168-.5472c.1475-.2846.295-.5472.4316-.8646.071-.1478.1365-.29.2021-.4378l.2567.4378.4971.8646 1.2619 2.1888-.0437.0657c-.0106.0248-.0234.0486-.0382.0711-.1694.29-.3496.58-.5463.8591-.2458.3776-.5299.7661-.803 1.1382z"/><path d="m28.2259 14.085c0-.3612 0-.7168-.0383-1.0944-.295-.197-.6009-.3885-.9068-.5472l-.3223-.1861c-.295-.1641-.5954-.3283-.8959-.4815-.3987-.197-.803-.3885-1.2127-.5472-.5026-.2134-1.016-.4049-1.5295-.58-.2896-.0931-.5791-.1861-.8741-.2682-.295-.082-.6391-.1696-.9559-.2462l-.4808-.104-.4097-.07659-.4588.79349-.2841.4979c-.7872-.1189-1.5806-.192-2.3763-.2189h-1.1744c-.801.0226-1.5999.0921-2.3927.208-.3005.0437-.6064.093-.9068.1532l-.2458.0492c-.4917.0985-.9833.2189-1.4695.3557 0 .301 0 .5965.0382.892.7021-.2077 1.4152-.3757 2.136-.5035.3004-.0547.6063-.0985.9122-.1368.4698-.0602.9396-.1039 1.4203-.1313l-.7484 1.2914-.4971.8646-.8303 1.4391c-.3168.0493-.6391.1095-.9614.1751-.3223.0657-.6392.1368-.9615.2189.0656.2791.1421.5472.2185.8372.377-.0985.7594-.1805 1.1472-.2572.3879-.0766.7265-.1313 1.0925-.1805.4917-.0657.9888-.1149 1.4968-.1423.3223 0 .6446-.0274.9724-.0328h.3004c.3278 0 .6556 0 .9779.0328.5025 0 .9996.0766 1.4967.1423l1.4968 2.5992c.142-.3447.2731-.6895.3988-1.0397l-.7976-1.3844-.5462-.9686c-.3551-.0547-.7102-.1039-1.0926-.1368l-.4698-.0492.2295-.394.4971-.8646 1.0925-1.8878.448-.788.2731-.4816c.4862.104.9669.2299 1.4421.3667.2914.0875.5754.1806.8522.279.9636.3329 1.8989.7428 2.7969 1.2258.295.1587.5845.3228.8741.4979l.355.2189v.4159.0766l-.0382-.0328-.0601-.0383-.2622-.1533c-.2841-.1586-.5791-.3173-.874-.4705l-.366-.1587c-.2841-.1368-.5791-.2736-.8741-.3995l-.3441-.1477c-.2622-.104-.5463-.208-.7866-.301v.788c.2731.1039.5462.2079.8139.3228l.3769.1642c.2895.1313.5736.2681.8577.4159l.3714.1915c.2895.1532.5791.3174.8577.487l.355.2189v.0602.3885.0766l-.0655-.0438h-.0382l-.3169-.186c-.2731-.1533-.5463-.3065-.8412-.4487-.1202-.0657-.2513-.1259-.3824-.1916-.2786-.1313-.5463-.2626-.8467-.383l-.3824-.1587-.814-.3064c0 .2517-.0437.5089-.0765.7661.2677.0985.5463.2024.7976.3119l.4042.1751c.2841.1258.5463.2572.8413.394.1366.0656.2677.1368.3988.2079.2786.1477.5462.301.8303.4651.1311.0766.2622.1532.3879.2353.0027.02.0027.0402 0 .0602 0 .1259-.0274.2517-.0437.3776.0027.0236.0027.0475 0 .0711l-.4644-.2736c-.2731-.1477-.5462-.2955-.8248-.4323l-.3988-.1696c-.2732-.1259-.5463-.2517-.8249-.3666l-.4152-.1806c-.2567-.0985-.508-.1915-.7647-.2791-.0383.2517-.0765.498-.1202.7442.2567.093.5463.1915.7757.2955l.437.1806c.2731.1204.5463.2462.8194.3775l.4261.2134c.2731.1423.5463.2901.8139.4433l.4097.2462v.0547l-.0655.3721-.4479-.2462-.7867-.4049c-.3113-.1532-.6282-.2955-.945-.4268-.6716-.2829-1.3572-.5313-2.054-.7442-.2731-.0821-.5463-.1587-.8303-.2299-.0601.2791-.1366.5472-.2131.8318.2786.0711.5463.1477.8304.2298 1.0387.3161 2.0492.7188 3.0208 1.2039.2622.1313.5463.2681.7812.4104l.4534.2571c.2567.1533.5135.3119.7648.4816.071-.2955.142-.591.2021-.892.0273-.1149.0492-.2243.071-.3392.0546-.3119.1093-.6184.153-.9303 0-.1149 0-.2298.0437-.3447.0382-.3283.071-.6512.0983-.9795 0-.1149 0-.2353 0-.3502 0-.3393.0328-.6785.0328-1.0233zm-9.5051-.881-.4971.8646-.6938 1.2038h-1.2892c-.3223 0-.6391.0274-.9614.0548l-.4807.0437.2512-.4377.4971-.8646 1.2619-2.1888h.153c.3387 0 .6774 0 1.0106.0273.4752.0274.9505.0657 1.4203.1259z"/><path d="m16.0987 24.3122c-.2404-.2791-.4753-.5472-.7047-.8591-.3059-.3995-.6009-.8099-.8795-1.2312-.1748-.2736-.3496-.5472-.5135-.8318l-.0765-.1313c-.0268-.04-.0506-.0821-.071-.1258-.1639-.2846-.3168-.5472-.4643-.8646-.2294-.4487-.437-.9084-.6282-1.368l1.5022-2.5992c-.3641.0474-.7283.1076-1.0925.1805l-.7976 1.379-.5462.9685c.1311.3393.2676.6731.4151 1.0014.0656.1478.1366.29.2022.4378h-5.10767c-.15295-.4706-.28406-.9412-.39877-1.4173-.07102-.3009-.13657-.5964-.1912-.8974-.19483-.9978-.30811-2.0098-.33868-3.026 0-.3393 0-.6786 0-1.0178 0-.1314 0-.2682 0-.3995l.35507-.2189.06555-.0383v.0712.0711.2845c0 .3284 0 .6622.03278.996v.383c0 .3174.05463.6402.09286.9576l.04917.3721c.03824.2791.0874.5472.1311.8318.22944-.1314.46433-.2572.69377-.3776-.04917-.2846-.09287-.5801-.12565-.8701 0-.1313-.03277-.2736-.04916-.4104-.03278-.3119-.05463-.6347-.07101-.9466 0-.1423 0-.2846 0-.4214 0-.3283 0-.6621 0-.9849 0-.1368 0-.2682 0-.405l.04916-.0273.34961-.1861.06555-.0328c-.00267.0145-.00267.0293 0 .0438v.4323c0 .3228 0 .6457.03278.963v.4214c.02731.3119.05463.6238.09287.9247 0 .1368.03277.2737.05462.4159.03824.2736.08194.5472.13111.8099l.69922-.3174c-.04916-.2791-.09286-.5472-.12564-.8427 0-.1477-.03824-.2955-.05463-.4432-.03277-.3065-.05462-.6184-.07647-.9248 0-.1477 0-.301 0-.4487 0-.3174 0-.6402 0-.9576 0-.1423 0-.29 0-.4378l.04916-.0273.34961-.1532h.06555v.0218.4652c0 .3064.00001.6183.03278.9302l.03278.4487c.02731.301.06009.6074.09833.9029 0 .1477.03823.2955.06009.4432.0437.2736.09286.5472.14203.8044l.74843-.2626c-.0492-.2682-.0929-.5472-.1311-.8208l-.0656-.4706c-.0328-.301-.0601-.602-.0819-.8974 0-.1587 0-.3229-.0274-.4761 0-.3064 0-.6184 0-.9248v-.4706h.0547l.355-.1313v.4979c0 .301 0 .602.0437.9029.0437.301.0601.684.1038 1.0233.0867.7235.2144 1.4415.3824 2.1505.0656.2846.1366.5472.2185.8372.2732-.082.5463-.1587.8249-.2298-.0765-.2791-.153-.5472-.2185-.8372-.2465-1.0574-.4037-2.1337-.4698-3.2176 0-.2955-.0328-.591-.0382-.8919v-.5089c0-.3064 0-.6074.0327-.9138l-.874.2681-.3278.1149c-.29494.104-.58992.2134-.88491.3338l-.31684.1313c-.30044.1259-.60089.2627-.89042.405l-.32229.1532c-.30592.1477-.60636.3119-.90135.476-.10379.0657-.21304.1259-.3223.1861-.30591.186-.60636.3721-.90134.5472 0 .3611-.03824.7223-.03824 1.0944v.3612c0 .3447 0 .6894.03277 1.0287 0 .4432.06556.8865.12018 1.3242.06556.5472.15842 1.0944.26768 1.6416.06009.301.1311.602.20758.9029.07648.301.16934.6293.26221.9412l.14749.4706.13657.394h1.43669c.29586.7488.63512 1.4796 1.01606 2.1888.02872.0456.05427.0932.07648.1423l.20758.3611c.06555.1204.14203.2408.21304.3612l.08194.1368c.42742.6628.89252 1.3004 1.39302 1.9097.1857.2408.3824.4761.5845.7059.3551.4159.732.8154 1.1198 1.1984l.0765.0711c.2568-.1532.508-.3119.7593-.476-.5267-.5039-1.0263-1.0355-1.4968-1.5924-.1966-.2353-.3878-.4761-.579-.7223-.2841-.3721-.5463-.7606-.8194-1.1601h4.1462c.4048.5085.8351.9962 1.2892 1.4611.2148-.197.4224-.3995.6227-.6074-.2676-.2572-.5299-.5199-.7866-.8318zm-2.2889-.8591h-3.5179c-.0095-.0254-.0223-.0493-.0383-.0711-.0107-.0231-.0235-.045-.0382-.0657-.1639-.2955-.32779-.591-.48074-.8919-.21305-.4269-.40971-.8591-.59544-1.2914h3.72558c.1038.186.2076.3721.3168.5472.1093.1751.2131.3721.3278.5472.1693.2736.3441.5472.5462.8098l.2786.3995z"/></g></svg>