<svg width="160" height="33" viewBox="0 0 160 33" fill="none" xmlns="http://www.w3.org/2000/svg">
<path fill-rule="evenodd" clip-rule="evenodd" d="M86.7588 10.3203L95.0674 8.81543V7.49097L86.7588 9.8877V10.3203ZM115.035 20.0769C114.971 20.0142 114.904 19.9536 114.836 19.8953C114.458 19.573 114.024 19.3206 113.553 19.1521C114.148 18.8323 114.64 18.3503 114.973 17.762C115.36 17.0977 115.563 16.3423 115.563 15.5732C115.561 15.0676 115.472 14.5662 115.301 14.0903C115.136 13.6113 114.888 13.165 114.569 12.7715C114.431 12.6052 114.279 12.4512 114.116 12.3108C113.898 12.1238 113.66 11.9607 113.405 11.825C112.932 11.5776 112.405 11.4517 111.871 11.4583H103.403V27.3271H111.051C111.342 27.3279 111.633 27.3113 111.921 27.2773C112.295 27.2334 112.666 27.1604 113.029 27.0591C113.616 26.8936 114.171 26.627 114.667 26.271C114.854 26.1355 115.027 25.9839 115.185 25.8184C115.432 25.5596 115.643 25.2664 115.809 24.9468C116.092 24.3896 116.234 23.7717 116.224 23.1465C116.256 22.2 115.971 21.27 115.416 20.5037C115.299 20.3521 115.171 20.2095 115.035 20.0769ZM111.783 24.334C111.556 24.4319 111.31 24.4805 111.062 24.4763H106.692V20.6458H111.199C111.29 20.6448 111.38 20.6523 111.469 20.6677C111.535 20.6794 111.601 20.6956 111.666 20.7161C111.731 20.7373 111.796 20.7632 111.859 20.7937C112.067 20.8948 112.253 21.0361 112.406 21.2095C112.561 21.3972 112.683 21.6101 112.767 21.8389C112.819 21.9829 112.855 22.1316 112.876 22.2827C112.891 22.3857 112.898 22.4897 112.897 22.594C112.899 22.8455 112.851 23.0947 112.755 23.3271C112.666 23.5522 112.534 23.7583 112.368 23.9346C112.202 24.1008 112.002 24.2295 111.783 24.312V24.334ZM111.783 17.4885C111.465 17.8108 111.028 17.9871 110.576 17.9756H106.687V14.3037H110.712C111.129 14.2993 111.527 14.4749 111.805 14.7854C111.925 14.9221 112.023 15.0745 112.098 15.2368C112.223 15.5107 112.281 15.814 112.264 16.1204C112.285 16.3735 112.252 16.6252 112.169 16.8596C112.124 16.9883 112.063 17.1118 111.989 17.2273C111.935 17.3115 111.874 17.3916 111.805 17.4666L111.783 17.4885ZM127.685 21.3408C127.963 21.2112 128.226 21.0542 128.469 20.8728C128.944 20.5203 129.346 20.0757 129.651 19.5625C130.168 18.7102 130.437 17.7302 130.427 16.7334C130.426 16.0708 130.296 15.4148 130.045 14.8018C129.792 14.1887 129.435 13.624 128.991 13.1328C128.535 12.6274 127.988 12.2134 127.379 11.9126C126.741 11.6025 126.04 11.4434 125.331 11.4473H118.311V27.3162H121.589V22.0796H124.353L127.63 27.3054H131.383L127.685 21.3408ZM121.616 14.3694H125.139C125.388 14.3726 125.633 14.4326 125.855 14.5444C126.099 14.6616 126.315 14.8293 126.489 15.0371C126.681 15.2605 126.833 15.5161 126.937 15.7922C126.979 15.9114 127.014 16.0332 127.04 16.1565C127.082 16.353 127.102 16.5537 127.101 16.7551C127.102 16.9236 127.088 17.0918 127.061 17.2576C127.037 17.4082 127 17.5566 126.953 17.7019C126.91 17.8379 126.855 17.9695 126.79 18.0955C126.722 18.2244 126.644 18.3472 126.554 18.4624C126.471 18.5793 126.374 18.6855 126.266 18.7781C126.186 18.8464 126.1 18.9075 126.008 18.9604C125.791 19.0803 125.546 19.1423 125.298 19.1411H121.643L121.616 14.3694ZM146.286 16.4653C145.936 15.5183 145.419 14.6416 144.761 13.877C144.101 13.1174 143.299 12.4932 142.401 12.0383C141.448 11.564 140.396 11.322 139.332 11.3325C138.827 11.3286 138.325 11.3796 137.834 11.4836C137.312 11.5945 136.802 11.7656 136.316 11.9946C136.079 12.1069 135.847 12.2312 135.623 12.3669C135.431 12.4836 135.243 12.6086 135.062 12.7417C134.647 13.0454 134.264 13.3906 133.918 13.7729C132.517 15.3042 131.737 17.3047 131.733 19.3818C131.741 20.3965 131.925 21.4021 132.279 22.353C132.626 23.2993 133.145 24.1731 133.809 24.9304C134.475 25.6838 135.282 26.2993 136.185 26.7417C137.14 27.2029 138.189 27.4368 139.25 27.4258C140.295 27.4338 141.329 27.2075 142.276 26.7637C143.18 26.3372 143.991 25.7366 144.663 24.9961C145.344 24.2466 145.883 23.3787 146.253 22.4353C146.625 21.4685 146.811 20.4397 146.799 19.4038C146.803 18.4016 146.629 17.4065 146.286 16.4653ZM139.299 24.4543C138.679 24.4644 138.067 24.3196 137.518 24.033C137.003 23.7551 136.551 23.373 136.19 22.9114C136.112 22.8062 136.038 22.6982 135.968 22.5879C135.708 22.1777 135.504 21.7346 135.36 21.2698C135.169 20.6511 135.074 20.0073 135.076 19.3599C135.076 19.0635 135.097 18.7678 135.138 18.4751C135.185 18.145 135.257 17.8188 135.354 17.4995C135.524 16.9062 135.802 16.3496 136.174 15.8579C136.288 15.7061 136.412 15.5623 136.545 15.4277C136.824 15.1453 137.142 14.9028 137.491 14.7087C137.675 14.6099 137.866 14.5273 138.062 14.4617C138.451 14.3323 138.859 14.269 139.271 14.2764C139.879 14.2661 140.479 14.4072 141.02 14.6868C141.529 14.9541 141.976 15.3271 142.331 15.7812C142.706 16.2749 142.993 16.8303 143.177 17.4229C143.378 18.0413 143.479 18.6877 143.478 19.3381C143.479 19.9673 143.384 20.5933 143.193 21.1931C143.134 21.3938 143.063 21.5906 142.981 21.7825C142.823 22.1538 142.623 22.5068 142.385 22.8347C142.039 23.3093 141.596 23.7048 141.085 23.9946C140.784 24.1621 140.463 24.2854 140.13 24.3618C139.858 24.4243 139.58 24.4556 139.299 24.4543ZM159.647 20.8374C159.405 20.3262 159.05 19.8772 158.609 19.5242C158.115 19.1372 157.562 18.8323 156.971 18.6211C156.337 18.386 155.638 18.1616 154.884 17.959L154.197 17.7812C153.893 17.7012 153.602 17.6221 153.343 17.5432C152.965 17.4402 152.599 17.2971 152.251 17.1165C152.003 16.9861 151.789 16.7986 151.628 16.5691C151.479 16.3586 151.406 16.1042 151.42 15.8469C151.394 15.3862 151.599 14.9426 151.967 14.6648C152.5 14.3376 153.124 14.1863 153.748 14.2327C153.907 14.2334 154.067 14.241 154.226 14.2554C154.518 14.2817 154.807 14.3308 155.091 14.4023C155.514 14.5088 155.927 14.6497 156.326 14.8235C156.664 14.9658 156.989 15.136 157.298 15.3325C157.493 15.4451 157.676 15.5769 157.845 15.7266L157.976 15.8633L159.511 13.1328L159.407 13.0615C158.644 12.5554 157.824 12.1404 156.965 11.825C155.98 11.4617 154.939 11.2764 153.89 11.2778C153.125 11.2732 152.365 11.3838 151.633 11.606C150.958 11.8118 150.328 12.144 149.776 12.5854C149.239 13.0088 148.809 13.5522 148.52 14.1724C148.206 14.8586 148.051 15.6067 148.066 16.3613C148.051 16.9224 148.149 17.481 148.356 18.0029C148.552 18.4456 148.845 18.8384 149.213 19.1521C149.635 19.5107 150.109 19.804 150.617 20.022C151.254 20.2942 151.909 20.5193 152.579 20.6951C152.898 20.7815 153.217 20.8696 153.537 20.96C153.764 21.0239 153.99 21.0889 154.217 21.1548C154.648 21.2756 155.066 21.4348 155.468 21.6309C155.757 21.761 156.017 21.9468 156.233 22.178C156.405 22.406 156.493 22.686 156.484 22.9714C156.484 23.9565 155.714 24.4324 154.125 24.4324C153.544 24.4333 152.966 24.3616 152.404 24.219C152.312 24.1951 152.221 24.1697 152.13 24.1431C152.042 24.1167 151.953 24.0891 151.865 24.0603C151.526 23.9497 151.193 23.8198 150.869 23.6719C150.7 23.6038 150.534 23.5315 150.369 23.4551C150.135 23.3459 149.904 23.2285 149.678 23.1028C149.433 22.9614 149.203 22.7964 148.99 22.6104L148.858 22.4734L147.378 25.3628L147.477 25.4338C148.426 26.1006 149.475 26.6123 150.584 26.9497C151.718 27.3044 152.898 27.4888 154.086 27.4968C154.835 27.5012 155.582 27.4148 156.31 27.2397C156.987 27.0867 157.63 26.8083 158.205 26.4189C158.754 26.0288 159.202 25.5129 159.511 24.9141C159.847 24.2346 160.014 23.4834 159.997 22.7253C160.021 22.0779 159.902 21.4331 159.647 20.8374ZM47.8638 20.1426L52.4253 11.4309H55.8779V27.3052H52.5728V17.4121L48.7817 24.668H46.9678L43.1772 17.4121V27.3052H39.8721V11.4309H43.3462L47.8638 20.1426ZM63.1978 11.4309H65.8418L72.0688 27.2998H68.562L67.1416 23.4092H61.8701L60.4497 27.2998H56.9429L63.1978 11.4309ZM62.4766 21.0071H66.4917L64.5142 15.2668L62.4766 21.0071ZM70.3428 11.4309V14.3694H75.3193V27.3052H78.6245V14.3694H83.5791V11.4309H70.3428ZM88.2227 20.5857V24.3667H96.0063V27.3052H84.9175V11.4309H95.8047V14.3694H88.2227V17.8442H94.7778V20.5857H88.2227Z" fill="white"/>
<path fill-rule="evenodd" clip-rule="evenodd" d="M33.9288 28.9306V29.2863C33.9288 29.3052 33.9295 29.3235 33.9301 29.341C33.9313 29.3744 33.9324 29.4054 33.9288 29.4341L33.7922 29.5052L33.4754 29.6584L33.0876 29.8445C32.8527 29.9484 32.6178 30.0524 32.3829 30.1454C31.7489 30.4015 31.0993 30.6172 30.4381 30.7911C29.6561 30.998 28.8601 31.1479 28.0564 31.2398C27.9014 31.2559 27.7817 31.2654 27.6558 31.2754C27.5242 31.2859 27.3859 31.2969 27.1933 31.3164C26.8164 31.3548 26.4613 31.3548 26.1008 31.3548C23.1661 31.3588 20.28 30.6049 17.721 29.1659C17.4642 29.0237 17.213 28.8705 16.9671 28.7172C16.7213 28.8705 16.47 29.0237 16.2187 29.1659C13.9602 30.4469 11.4401 31.1954 8.84957 31.3548H7.99192H7.83351C6.37746 31.3594 4.92693 31.1755 3.51798 30.8076C2.84983 30.6243 2.19314 30.4013 1.55141 30.14C1.31105 30.0469 1.07615 29.943 0.841255 29.839L0.453404 29.653L0.136567 29.4943L0 29.4231V29.2699H0.0327762C0.0327762 29.2296 0.028484 29.1923 0.0242136 29.1552C0.015738 29.0817 0.00734861 29.0088 0.0327762 28.9142C0.0710151 28.772 0.0710151 28.6297 0.0710151 28.4874C0.0983285 28.2302 0.125642 27.973 0.163881 27.7159C0.207582 27.3875 0.262209 27.0647 0.327762 26.7473C0.5512 25.6449 0.882378 24.5672 1.31651 23.5297L1.43123 23.4094C1.54594 23.1467 1.66612 22.884 1.79176 22.6269C2.13067 21.9486 2.51199 21.2925 2.93347 20.6624C4.15784 18.8523 5.71514 17.2924 7.52213 16.0659C8.04983 15.7092 8.59694 15.3822 9.16094 15.0864C9.12267 14.4486 9.12267 13.809 9.16094 13.1712C9.23902 12.0817 9.42196 11.0024 9.70721 9.94816C9.99051 8.89648 10.3728 7.8741 10.8489 6.89476C10.8573 6.87793 10.8678 6.86109 10.8783 6.84425C10.9018 6.80637 10.9254 6.76848 10.9254 6.7306C11.0565 6.47342 11.1931 6.21623 11.3351 5.96999C11.6999 5.31424 12.1106 4.68521 12.5642 4.08761C13.2304 3.20196 13.9805 2.38283 14.8039 1.64161C15.0497 1.41726 15.2955 1.20385 15.5687 0.990438C15.7708 0.831749 15.9784 0.67306 16.1914 0.525315C16.3061 0.437763 16.4263 0.355682 16.541 0.279074L16.8415 0.0820805L16.9671 0L17.1037 0.0875525L17.3932 0.300962C17.5134 0.37757 17.6281 0.459651 17.7483 0.547203C17.9559 0.694948 18.1635 0.853637 18.3656 1.01233C18.6223 1.21479 18.8791 1.4282 19.1194 1.64161C19.9578 2.38127 20.7209 3.20245 21.3974 4.09308C21.4074 4.10642 21.4174 4.11925 21.4272 4.13188C21.4496 4.16071 21.4713 4.1885 21.4902 4.21894C21.6651 4.44876 21.8289 4.68406 21.9874 4.92483C22.4159 5.54493 22.801 6.19401 23.14 6.8674C23.6176 7.84799 23.9999 8.87233 24.2817 9.92627C24.5674 10.9804 24.7504 12.0598 24.828 13.1493C24.8635 13.7872 24.8635 14.4266 24.828 15.0645C25.3913 15.3615 25.9383 15.6885 26.4668 16.044C28.2705 17.2726 29.8257 18.8322 31.05 20.6405C31.0609 20.6569 31.0724 20.6733 31.084 20.6898C31.107 20.7226 31.1301 20.7554 31.1483 20.7883C31.3067 21.029 31.4597 21.2753 31.6072 21.5215C31.9895 22.167 32.3271 22.838 32.6178 23.5297C33.0607 24.5734 33.3993 25.6586 33.6284 26.7692C33.6939 27.0866 33.7485 27.4149 33.7977 27.7377C33.8061 27.7933 33.8154 27.8492 33.8247 27.9052C33.8574 28.103 33.8906 28.3034 33.8906 28.5038C33.9288 28.6461 33.9288 28.8103 33.9288 28.9306ZM8.86573 24.8212L11.5971 23.2288L11.6135 23.2507C12.7978 25.1805 14.354 26.8547 16.1912 28.1755C13.969 29.5195 11.4563 30.3078 8.86573 30.4738V24.8212ZM9.97999 14.667L9.95827 14.676H9.98012C9.98008 14.673 9.98003 14.67 9.97999 14.667ZM9.97999 14.667L10.3789 14.5009C11.4065 14.0632 12.4752 13.7295 13.5691 13.505C14.5537 13.3068 15.5533 13.1933 16.5572 13.1657V9.99196L11.6681 7.16292C10.52 9.49509 9.94145 12.067 9.97999 14.667ZM16.5354 8.99605L12.045 6.39684C13.1655 4.40903 14.6964 2.68345 16.5354 1.33521V8.99605ZM9.22627 16.4654C9.49127 18.5756 10.1491 20.6173 11.1655 22.4846L6.32012 25.2808L2.49623 23.0592C3.96197 20.0948 6.29421 17.6478 9.18257 16.044C9.187 16.1017 9.19503 16.1595 9.20301 16.2168C9.21469 16.3008 9.22627 16.3841 9.22627 16.4654ZM0.944824 28.3944C1.11626 26.8282 1.51754 25.296 2.13569 23.8472L5.46247 25.7788L0.944824 28.3944ZM7.9917 25.3191V30.5066L7.83328 30.5121C5.61018 30.5091 3.41177 30.0452 1.37638 29.1496L7.9917 25.3191ZM30.4051 21.2479L25.516 24.077L22.7683 22.512C23.249 21.626 23.6512 20.6995 23.9701 19.7431C24.3239 18.6759 24.571 17.5761 24.7076 16.4599L24.7567 16.0276C27.0272 17.2929 28.9636 19.0826 30.4051 21.2479ZM32.9945 28.3999L26.3737 24.5695L30.864 21.9757C32.0272 23.9387 32.7538 26.1299 32.9945 28.3999ZM26.1005 30.5066C23.16 30.5049 20.2758 29.6989 17.759 28.1755C18.4742 27.6759 19.1483 27.1196 19.7747 26.512C20.7691 25.5296 21.6371 24.4267 22.3586 23.2288L27.1931 26.025V30.4683C26.8162 30.5066 26.4611 30.5066 26.1005 30.5066ZM28.0343 30.3862V26.523L32.5629 29.1441C31.1227 29.7792 29.5967 30.1977 28.0343 30.3862ZM17.3985 6.56647V1.33521C18.6755 2.26639 19.8076 3.38204 20.758 4.64579L17.3985 6.56647ZM23.9756 14.6706L23.5768 14.5009C22.5581 14.0646 21.4986 13.731 20.4139 13.505C19.4274 13.3072 18.426 13.1937 17.4203 13.1657V7.57332L21.2442 5.35168C22.2297 6.82876 22.9678 8.45715 23.4293 10.1725C23.821 11.6388 24.0049 13.153 23.9756 14.6706ZM17.4876 16.1422C17.6684 16.1506 17.8484 16.1589 18.0267 16.1589C18.5129 16.1863 19.01 16.2356 19.5235 16.3012L21.0202 18.9004C20.8345 19.3601 20.6215 19.8197 20.3975 20.2684C20.2564 20.572 20.1104 20.8255 19.9545 21.096C19.9474 21.1083 19.9403 21.1206 19.9332 21.133L19.8621 21.2644C19.8335 21.3043 19.8079 21.3464 19.7857 21.3902C19.6218 21.6748 19.447 21.9484 19.2667 22.222C18.9936 22.6433 18.6986 23.0537 18.3927 23.4532H15.41C15.1041 23.0537 14.8091 22.6433 14.5306 22.222C14.4679 22.12 14.4052 22.0208 14.3431 21.9224C14.2318 21.7463 14.1222 21.5728 14.0171 21.3902L13.9406 21.2589C13.9137 21.2188 13.89 21.1767 13.8696 21.133C13.7057 20.8485 13.5527 20.5585 13.4052 20.2684C13.1758 19.8197 12.9682 19.3601 12.777 18.9004L14.2793 16.3012C14.3361 16.2936 14.3929 16.2859 14.4499 16.2782C14.8859 16.2189 15.3267 16.1589 15.776 16.1589C16.0983 16.1261 16.4206 16.1261 16.7484 16.1261H17.0489C17.1953 16.1286 17.3417 16.1354 17.4876 16.1422Z" fill="white"/>
<path d="M14.9733 24.3122H10.8271C11.0893 24.7117 11.3734 25.1002 11.6465 25.4723C11.8377 25.7186 12.0289 25.9593 12.2256 26.1946C12.696 26.7515 13.1957 27.2831 13.7224 27.787C14.621 27.1842 15.4703 26.5108 16.2625 25.7733C15.8084 25.3084 15.3781 24.8208 14.9733 24.3122V24.3122ZM14.0337 23.0537C13.8535 22.791 13.6787 22.5065 13.4875 22.2438C13.3728 22.0632 13.2635 21.8772 13.1597 21.6966C13.0559 21.516 12.9467 21.3245 12.8429 21.1494H9.13916C9.32489 21.5817 9.52155 22.014 9.73459 22.4408C9.88755 22.7418 10.0514 23.0373 10.2153 23.3327C10.2301 23.3534 10.2429 23.3754 10.2536 23.3984C10.2695 23.4203 10.2824 23.4442 10.2918 23.4696H14.3123L14.0337 23.0537ZM22.5829 16.9633C22.49 17.2807 22.3971 17.5981 22.2933 17.91C22.1895 18.2219 22.0803 18.5228 21.9601 18.8293L22.7904 20.2465L23.2875 21.1111L24.0359 22.4353C24.2544 22.0085 24.4511 21.5762 24.6368 21.1439C24.757 20.8594 24.8663 20.5967 24.9755 20.2794C25.2264 19.5916 25.438 18.89 25.6092 18.1781C24.6362 17.689 23.6238 17.2826 22.5829 16.9633V16.9633ZM22.2933 21.133L21.7962 20.2465L21.5395 19.8088C21.4739 19.9565 21.4084 20.0988 21.3374 20.2465C21.2008 20.5365 21.0533 20.8266 20.9058 21.1111C20.802 21.2972 20.6982 21.4832 20.589 21.6583C20.4797 21.8334 20.3705 22.0304 20.2612 22.2055L20.955 23.4148L21.4521 24.2739L22.124 25.434C22.408 25.0619 22.6703 24.6734 22.9434 24.2739C23.1237 23.9949 23.3039 23.7267 23.4897 23.4148C23.5045 23.3923 23.5173 23.3685 23.5279 23.3437L23.5716 23.278L22.2933 21.133ZM14.3779 12.0385C14.072 12.0768 13.7661 12.1206 13.4656 12.1753C12.7448 12.303 12.0317 12.4711 11.3297 12.6787C11.3958 13.7625 11.553 14.8389 11.7995 15.8963C12.1218 15.8142 12.4441 15.743 12.7609 15.6774C13.0778 15.6117 13.4055 15.5515 13.7224 15.5023L14.5527 14.0631L15.0498 13.1985L15.7982 11.9071C15.2956 11.94 14.8477 11.9838 14.3779 12.0385V12.0385ZM17.9723 11.9126C17.6391 11.9126 17.3004 11.8853 16.9617 11.8853H16.8088L15.5469 14.0741L15.0498 14.9386L14.7985 15.3764L15.2956 15.3217C15.6179 15.2943 15.9348 15.2779 16.2571 15.267H17.5462L18.24 14.0631L18.7371 13.1985L19.3926 12.0385C18.9228 11.9783 18.4476 11.94 17.9723 11.9126Z" fill="#3C7074"/>
<path d="M27.3684 13.9099C27.3684 13.7731 27.3684 13.6308 27.3684 13.494L27.0133 13.2752C26.7238 13.1 26.4343 12.9359 26.1393 12.7772C25.2413 12.2942 24.306 11.8843 23.3424 11.5515C23.0656 11.453 22.7815 11.3599 22.4902 11.2724C22.0149 11.1356 21.5342 11.0097 21.048 10.9058L20.7749 11.3873L20.316 12.1807L19.2235 14.0686L18.7264 14.9332L18.497 15.3272L18.9777 15.3709C19.3382 15.4038 19.6933 15.453 20.0702 15.5077L20.6165 16.4763L21.414 17.8607C21.5397 17.4886 21.6599 17.111 21.7637 16.7335C21.8401 16.4599 21.9166 16.1863 21.9767 15.9017C22.2553 15.9729 22.523 16.0495 22.807 16.1316C23.5039 16.3445 24.1894 16.5929 24.861 16.8758C25.1778 17.0071 25.4947 17.1494 25.8061 17.3026L26.5927 17.7075L27.0406 17.9537L27.1062 17.5816C27.1553 17.2752 27.2045 16.9688 27.2373 16.6569C27.2373 16.531 27.2701 16.4052 27.281 16.2793C27.3138 15.9564 27.3411 15.6336 27.3575 15.3107V14.9222C27.3738 14.583 27.3738 14.2273 27.3684 13.9099ZM11.8106 18.8293L12.3569 17.8607L13.1544 16.4818C12.7666 16.5584 12.3842 16.6405 12.0073 16.739C11.7287 16.8101 11.461 16.8867 11.1824 16.9688C11.1005 16.6952 11.0295 16.4216 10.9639 16.1316C10.7959 15.4226 10.6682 14.7046 10.5815 13.981C10.5378 13.6418 10.505 13.297 10.4777 12.9578C10.4504 12.6185 10.4395 12.3559 10.434 12.0549C10.434 11.8907 10.434 11.7266 10.434 11.5569L10.079 11.6883C9.78397 11.7977 9.49991 11.9126 9.21038 12.033L8.86077 12.1862C8.56579 12.323 8.27626 12.4598 7.9922 12.6076L7.64259 12.7936C7.3476 12.9523 7.05808 13.1165 6.77402 13.2916L6.41895 13.5104V13.9099V14.9277C6.44952 15.9439 6.5628 16.956 6.75763 17.9537C6.81226 18.2547 6.87781 18.5502 6.94883 18.8512C7.06354 19.3272 7.19465 19.7978 7.3476 20.2684H12.4388C12.3733 20.1207 12.3023 19.9784 12.2367 19.8306C12.0783 19.5023 11.9417 19.1521 11.8106 18.8293V18.8293ZM22.004 26.9935L21.5452 26.1946L20.4526 24.3122L19.9555 23.4531L19.7261 23.0537C19.6387 23.1905 19.5458 23.3218 19.4475 23.4531C19.2399 23.7432 19.0214 24.0332 18.7974 24.3122H16.0661C16.3228 24.6077 16.6123 24.8594 16.8527 25.1659C17.0931 25.4723 17.2624 25.5763 17.4754 25.7733L17.1805 26.0688L16.8527 26.3861C16.0752 27.1194 15.2404 27.7891 14.3562 28.3889C14.105 28.5585 13.8537 28.7282 13.5969 28.8869L13.1763 29.1386L13.4658 29.3794C13.7062 29.5818 13.952 29.7733 14.1978 29.9594C14.3016 30.036 14.3999 30.1126 14.5092 30.1837C14.7659 30.3753 15.0555 30.5558 15.3013 30.7309L15.6236 30.9389C15.9076 31.114 16.1972 31.2836 16.4922 31.4478L16.8418 31.6338L17.1914 31.4478C17.4864 31.2836 17.7814 31.1085 18.0709 30.9334C18.9308 30.3959 19.7488 29.7941 20.5182 29.1331C20.7531 28.9306 20.977 28.7282 21.201 28.5148C21.5561 28.1755 21.9002 27.8253 22.2335 27.4587L22.004 26.9935Z" fill="#3C7074"/>
<path d="M25.6038 18.1673C25.4318 18.8718 25.2202 19.566 24.9702 20.2467C24.8609 20.5367 24.7516 20.8267 24.6315 21.1113C24.4457 21.5436 24.2491 21.9759 24.0306 22.4027L23.2876 21.1113L22.7905 20.2467L21.9602 18.8294C22.0804 18.523 22.1896 18.2166 22.2934 17.9101C22.3972 17.6037 22.4901 17.2808 22.583 16.9635C22.3044 16.8814 22.0367 16.8048 21.7526 16.7336C21.6488 17.1112 21.5287 17.4888 21.403 17.8609C21.2774 18.233 21.1463 18.5558 21.0042 18.9006C20.8185 19.3602 20.6055 19.8199 20.3815 20.2686C20.234 20.5586 20.081 20.8486 19.9172 21.1332L19.8461 21.2645C19.8175 21.3044 19.7919 21.3465 19.7697 21.3903C19.6058 21.6749 19.431 21.9375 19.2507 22.2221C18.9776 22.6434 18.7044 23.0538 18.3767 23.4533H15.394C15.6235 23.7433 15.8584 24.0333 16.0987 24.3124H18.8301C19.0541 24.0333 19.2726 23.7652 19.4801 23.4533C19.5785 23.322 19.6713 23.1906 19.7587 23.0538L19.9882 23.4533L20.4853 24.3124L21.5778 26.1948L22.0367 26.9937L22.3098 27.4643C21.9766 27.8309 21.6324 28.1811 21.2774 28.5204C21.0534 28.7338 20.8294 28.9363 20.5945 29.1387C19.8252 29.7998 19.0071 30.4016 18.1472 30.939C17.8577 31.1141 17.5627 31.2893 17.2678 31.4534L16.9181 31.6395L16.5685 31.4534L16.503 31.4151H16.5357H16.5631L16.6232 31.3823L16.8854 31.2291C17.1694 31.0649 17.4316 30.8898 17.7321 30.7092L18.0489 30.4958C18.3111 30.3152 18.5952 30.1292 18.8301 29.9486L19.1305 29.7188C19.349 29.5491 19.5675 29.3686 19.7806 29.1716C19.5584 29.0402 19.3345 28.9034 19.1087 28.7612C18.8829 28.9472 18.6535 29.1296 18.4204 29.3084L18.0926 29.5546C17.8359 29.7407 17.5463 29.9212 17.306 30.1018L16.9509 30.3262C16.6723 30.4958 16.4046 30.6654 16.1042 30.8241L15.7546 31.0157L15.7 30.9828L15.3777 30.7749L15.2957 30.6928H15.3285H15.3667L15.6836 30.5068C15.9567 30.3481 16.2298 30.1784 16.4975 30.0033L16.8471 29.768C17.1039 29.5929 17.3606 29.4069 17.6064 29.2208L17.9342 28.9691C18.1527 28.7995 18.3658 28.6244 18.5679 28.4219C18.3603 28.2796 18.1527 28.1319 17.9451 27.9787L17.2787 28.5259L16.9236 28.7885C16.6778 28.9691 16.421 29.1497 16.1643 29.3357C16.0386 29.4178 15.913 29.4999 15.7819 29.5765C15.5142 29.7461 15.2356 29.9103 14.968 30.069L14.5856 30.2769C14.5686 30.2672 14.5538 30.2542 14.5419 30.2386C14.4326 30.1675 14.3343 30.0909 14.2305 30.0143L14.1759 29.9705L14.5746 29.7352C14.8423 29.5765 15.1209 29.4069 15.3613 29.2372L15.7382 28.9855L16.4702 28.4383L16.8253 28.1593C17.0329 27.9896 17.2459 27.8145 17.448 27.612C17.2514 27.4534 17.0547 27.2947 16.8635 27.1305C16.6559 27.3111 16.4374 27.4917 16.2189 27.6777L15.8475 27.9623C15.6016 28.1428 15.3558 28.3234 15.1045 28.5095C14.9789 28.6025 14.8423 28.69 14.7112 28.7721C14.4545 28.9363 14.1649 29.1004 13.9246 29.2537L13.5203 29.4835L13.4766 29.4452L13.1871 29.2044L13.6077 28.9527C13.8645 28.794 14.1158 28.6244 14.3671 28.4547C15.2512 27.8549 16.086 27.1852 16.8635 26.452L17.1913 26.1346L17.4863 25.8391C17.275 25.6421 17.0675 25.4396 16.8635 25.2317C16.6596 25.4396 16.452 25.6421 16.2408 25.8391C15.4486 26.5766 14.5992 27.25 13.7006 27.8528C13.4493 28.017 13.198 28.1757 12.9413 28.3289L12.5043 28.5861C12.2421 28.7338 11.958 28.8816 11.6958 29.0184C11.9198 29.2372 12.1437 29.4452 12.3732 29.6531L12.6354 29.8775C12.8703 30.0854 13.1161 30.2879 13.3619 30.4794L13.6569 30.6436C13.9191 30.8405 14.2032 31.0321 14.449 31.2181L14.7331 31.4042C15.0171 31.5939 15.3066 31.7763 15.6016 31.9514L15.9075 32.1319C16.2244 32.3125 16.5467 32.4767 16.869 32.6408C17.1913 32.4767 17.5136 32.3125 17.8249 32.1319L18.1309 31.9514C18.4258 31.7763 18.7208 31.5957 19.0104 31.4042C19.8334 30.8608 20.6166 30.2592 21.3538 29.6039C21.5833 29.3959 21.8073 29.188 22.0312 28.9691L22.0858 28.9144C22.3007 28.7065 22.5083 28.493 22.7086 28.2742C22.9162 28.0498 23.1183 27.8255 23.3095 27.5956L22.8506 26.7912L22.5666 26.2988C23.0648 25.6706 23.5245 25.0128 23.9432 24.3288L24.0251 24.192L24.2382 23.8309L24.4457 23.4697C24.4679 23.4206 24.4935 23.3731 24.5222 23.3274C24.9009 22.6172 25.2401 21.8864 25.5383 21.1386C25.653 20.8541 25.7568 20.5914 25.8606 20.274C25.8606 20.1974 25.9097 20.1154 25.9371 20.0388C26.1009 19.5572 26.243 19.0702 26.3631 18.5832C26.1282 18.4354 25.866 18.2986 25.6038 18.1673ZM22.1241 25.4725L21.4522 24.3124L20.9551 23.4533L20.2613 22.244C20.3706 22.0634 20.4853 21.8774 20.5891 21.6968C20.6929 21.5162 20.8021 21.3247 20.9059 21.1496C21.0534 20.865 21.2009 20.6024 21.3375 20.285C21.4085 20.1372 21.474 19.995 21.5396 19.8472L21.7963 20.285L22.2934 21.1496L23.5553 23.3384L23.5116 23.4041C23.501 23.4289 23.4882 23.4527 23.4734 23.4752C23.304 23.7652 23.1238 24.0552 22.9271 24.3343C22.6813 24.7119 22.3972 25.1004 22.1241 25.4725Z" fill="white"/>
<path d="M28.2259 14.085C28.2259 13.7238 28.2259 13.3682 28.1876 12.9906C27.8926 12.7936 27.5867 12.6021 27.2808 12.4434L26.9585 12.2573C26.6635 12.0932 26.3631 11.929 26.0626 11.7758C25.6639 11.5788 25.2596 11.3873 24.8499 11.2286C24.3473 11.0152 23.8339 10.8237 23.3204 10.6486C23.0308 10.5555 22.7413 10.4625 22.4463 10.3804C22.1513 10.2984 21.8072 10.2108 21.4904 10.1342L21.0096 10.0302L20.5999 9.95361L20.1411 10.7471L19.857 11.245C19.0698 11.1261 18.2764 11.053 17.4807 11.0261H16.3063C15.5053 11.0487 14.7064 11.1182 13.9136 11.2341C13.6131 11.2778 13.3072 11.3271 13.0068 11.3873L12.761 11.4365C12.2693 11.535 11.7777 11.6554 11.2915 11.7922C11.2915 12.0932 11.2915 12.3887 11.3297 12.6842C12.0318 12.4765 12.7449 12.3085 13.4657 12.1807C13.7661 12.126 14.072 12.0822 14.3779 12.0439C14.8477 11.9837 15.3175 11.94 15.7982 11.9126L15.0498 13.204L14.5527 14.0686L13.7224 15.5077C13.4056 15.557 13.0833 15.6172 12.761 15.6828C12.4387 15.7485 12.1218 15.8196 11.7995 15.9017C11.8651 16.1808 11.9416 16.4489 12.018 16.7389C12.395 16.6404 12.7774 16.5584 13.1652 16.4817C13.5531 16.4051 13.8917 16.3504 14.2577 16.3012C14.7494 16.2355 15.2465 16.1863 15.7545 16.1589C16.0768 16.1589 16.3991 16.1315 16.7269 16.1261H17.0273C17.3551 16.1261 17.6829 16.1261 18.0052 16.1589C18.5077 16.1589 19.0048 16.2355 19.5019 16.3012L20.9987 18.9004C21.1407 18.5557 21.2718 18.2109 21.3975 17.8607L20.5999 16.4763L20.0537 15.5077C19.6986 15.453 19.3435 15.4038 18.9611 15.3709L18.4913 15.3217L18.7208 14.9277L19.2179 14.0631L20.3104 12.1753L20.7584 11.3873L21.0315 10.9057C21.5177 11.0097 21.9984 11.1356 22.4736 11.2724C22.765 11.3599 23.049 11.453 23.3258 11.5514C24.2894 11.8843 25.2247 12.2942 26.1227 12.7772C26.4177 12.9359 26.7072 13.1 26.9968 13.2751L27.3518 13.494V13.9099V13.9865L27.3136 13.9537L27.2535 13.9154L26.9913 13.7621C26.7072 13.6035 26.4122 13.4448 26.1173 13.2916L25.7513 13.1329C25.4672 12.9961 25.1722 12.8593 24.8772 12.7334L24.5331 12.5857C24.2709 12.4817 23.9868 12.3777 23.7465 12.2847V13.0727C24.0196 13.1766 24.2927 13.2806 24.5604 13.3955L24.9373 13.5597C25.2268 13.691 25.5109 13.8278 25.795 13.9756L26.1664 14.1671C26.4559 14.3203 26.7455 14.4845 27.0241 14.6541L27.3791 14.873V14.9332V15.3217V15.3983L27.3136 15.3545H27.2754L26.9585 15.1685C26.6854 15.0152 26.4122 14.862 26.1173 14.7198C25.9971 14.6541 25.866 14.5939 25.7349 14.5282C25.4563 14.3969 25.1886 14.2656 24.8882 14.1452L24.5058 13.9865L23.6918 13.6801C23.6918 13.9318 23.6481 14.189 23.6153 14.4462C23.883 14.5447 24.1616 14.6486 24.4129 14.7581L24.8171 14.9332C25.1012 15.059 25.3634 15.1904 25.6584 15.3272C25.795 15.3928 25.9261 15.464 26.0572 15.5351C26.3358 15.6828 26.6034 15.8361 26.8875 16.0002C27.0186 16.0768 27.1497 16.1534 27.2754 16.2355C27.2781 16.2555 27.2781 16.2757 27.2754 16.2957C27.2754 16.4216 27.248 16.5474 27.2317 16.6733C27.2344 16.6969 27.2344 16.7208 27.2317 16.7444L26.7673 16.4708C26.4942 16.3231 26.2211 16.1753 25.9425 16.0385L25.5437 15.8689C25.2705 15.743 24.9974 15.6172 24.7188 15.5023L24.3036 15.3217C24.0469 15.2232 23.7956 15.1302 23.5389 15.0426C23.5006 15.2943 23.4624 15.5406 23.4187 15.7868C23.6754 15.8798 23.965 15.9783 24.1944 16.0823L24.6314 16.2629C24.9045 16.3833 25.1777 16.5091 25.4508 16.6404L25.8769 16.8538C26.15 16.9961 26.4232 17.1439 26.6908 17.2971L27.1005 17.5433V17.598L27.035 17.9701L26.5871 17.7239L25.8004 17.319C25.4891 17.1658 25.1722 17.0235 24.8554 16.8922C24.1838 16.6093 23.4982 16.3609 22.8014 16.148C22.5283 16.0659 22.2551 15.9893 21.9711 15.9181C21.911 16.1972 21.8345 16.4653 21.758 16.7499C22.0366 16.821 22.3043 16.8976 22.5884 16.9797C23.6271 17.2958 24.6376 17.6985 25.6092 18.1836C25.8714 18.3149 26.1555 18.4517 26.3904 18.594L26.8438 18.8511C27.1005 19.0044 27.3573 19.163 27.6086 19.3327C27.6796 19.0372 27.7506 18.7417 27.8107 18.4407C27.838 18.3258 27.8599 18.2164 27.8817 18.1015C27.9363 17.7896 27.991 17.4831 28.0347 17.1712C28.0347 17.0563 28.0347 16.9414 28.0784 16.8265C28.1166 16.4982 28.1494 16.1753 28.1767 15.847C28.1767 15.7321 28.1767 15.6117 28.1767 15.4968C28.1767 15.1575 28.2095 14.8183 28.2095 14.4735L28.2259 14.085ZM18.7208 13.204L18.2237 14.0686L17.5299 15.2724H16.2407C15.9184 15.2724 15.6016 15.2998 15.2793 15.3272L14.7986 15.3709L15.0498 14.9332L15.5469 14.0686L16.8088 11.8798H16.9618C17.3005 11.8798 17.6392 11.8798 17.9724 11.9071C18.4476 11.9345 18.9229 11.9728 19.3927 12.033L18.7208 13.204Z" fill="white"/>
<path d="M16.0987 24.3122C15.8583 24.0331 15.6234 23.765 15.394 23.4531C15.0881 23.0536 14.7931 22.6432 14.5145 22.2219C14.3397 21.9483 14.1649 21.6747 14.001 21.3901L13.9245 21.2588C13.8977 21.2188 13.8739 21.1767 13.8535 21.133C13.6896 20.8484 13.5367 20.5858 13.3892 20.2684C13.1598 19.8197 12.9522 19.36 12.761 18.9004L14.2632 16.3012C13.8991 16.3486 13.5349 16.4088 13.1707 16.4817L12.3731 17.8607L11.8269 18.8292C11.958 19.1685 12.0945 19.5023 12.242 19.8306C12.3076 19.9784 12.3786 20.1206 12.4442 20.2684H7.33653C7.18358 19.7978 7.05247 19.3272 6.93776 18.8511C6.86674 18.5502 6.80119 18.2547 6.74656 17.9537C6.55173 16.9559 6.43845 15.9439 6.40788 14.9277C6.40788 14.5884 6.40788 14.2491 6.40788 13.9099C6.40788 13.7785 6.40788 13.6417 6.40788 13.5104L6.76295 13.2915L6.8285 13.2532V13.3244V13.3955V13.68C6.8285 14.0084 6.8285 14.3422 6.86128 14.676V15.059C6.86128 15.3764 6.91591 15.6992 6.95414 16.0166L7.00331 16.3887C7.04155 16.6678 7.09071 16.9359 7.13441 17.2205C7.36385 17.0891 7.59874 16.9633 7.82818 16.8429C7.77901 16.5583 7.73531 16.2628 7.70253 15.9728C7.70253 15.8415 7.66976 15.6992 7.65337 15.5624C7.62059 15.2505 7.59874 14.9277 7.58236 14.6158C7.58236 14.4735 7.58236 14.3312 7.58236 14.1944C7.58236 13.8661 7.58236 13.5323 7.58236 13.2095C7.58236 13.0727 7.58236 12.9413 7.58236 12.8045L7.63152 12.7772L7.98113 12.5911L8.04668 12.5583C8.04401 12.5728 8.04401 12.5876 8.04668 12.6021V13.0344C8.04668 13.3572 8.04668 13.6801 8.07946 13.9974V14.4188C8.10677 14.7307 8.13409 15.0426 8.17233 15.3435C8.17233 15.4803 8.2051 15.6172 8.22695 15.7594C8.26519 16.033 8.30889 16.3066 8.35806 16.5693L9.05728 16.2519C9.00812 15.9728 8.96442 15.7047 8.93164 15.4092C8.93164 15.2615 8.8934 15.1137 8.87701 14.966C8.84424 14.6595 8.82239 14.3476 8.80054 14.0412C8.80054 13.8935 8.80054 13.7402 8.80054 13.5925C8.80054 13.2751 8.80054 12.9523 8.80054 12.6349C8.80054 12.4926 8.80054 12.3449 8.80054 12.1971L8.8497 12.1698L9.19931 12.0166H9.26486V12.0384V12.5036C9.26486 12.81 9.26487 13.1219 9.29764 13.4338L9.33042 13.8825C9.35773 14.1835 9.39051 14.4899 9.42875 14.7854C9.42875 14.9331 9.46698 15.0809 9.48884 15.2286C9.53254 15.5022 9.5817 15.7758 9.63087 16.033L10.3793 15.7704C10.3301 15.5022 10.2864 15.2232 10.2482 14.9496L10.1826 14.479C10.1498 14.178 10.1225 13.877 10.1007 13.5816C10.1007 13.4229 10.1007 13.2587 10.0733 13.1055C10.0733 12.7991 10.0733 12.4871 10.0733 12.1807V11.7101H10.128L10.483 11.5788V12.0767C10.483 12.3777 10.483 12.6787 10.5267 12.9796C10.5704 13.2806 10.5868 13.6636 10.6305 14.0029C10.7172 14.7264 10.8449 15.4444 11.0129 16.1534C11.0785 16.438 11.1495 16.7006 11.2314 16.9906C11.5046 16.9086 11.7777 16.8319 12.0563 16.7608C11.9798 16.4817 11.9033 16.2136 11.8378 15.9236C11.5913 14.8662 11.4341 13.7899 11.368 12.706C11.368 12.4105 11.3352 12.115 11.3298 11.8141V11.3052C11.3298 10.9988 11.3298 10.6978 11.3625 10.3914L10.4885 10.6595L10.1607 10.7744C9.86576 10.8784 9.57078 10.9878 9.27579 11.1082L8.95895 11.2395C8.65851 11.3654 8.35806 11.5022 8.06853 11.6445L7.74624 11.7977C7.44032 11.9454 7.13988 12.1096 6.84489 12.2737C6.7411 12.3394 6.63185 12.3996 6.52259 12.4598C6.21668 12.6458 5.91623 12.8319 5.62125 13.007C5.62125 13.3681 5.58301 13.7293 5.58301 14.1014V14.4626C5.58301 14.8073 5.58301 15.152 5.61578 15.4913C5.61578 15.9345 5.68134 16.3778 5.73596 16.8155C5.80152 17.3627 5.89438 17.9099 6.00364 18.4571C6.06373 18.7581 6.13474 19.0591 6.21122 19.36C6.2877 19.661 6.38056 19.9893 6.47343 20.3012L6.62092 20.7718L6.75749 21.1658H8.19418C8.49004 21.9146 8.8293 22.6454 9.21024 23.3546C9.23896 23.4002 9.26451 23.4478 9.28672 23.4969L9.4943 23.858C9.55985 23.9784 9.63633 24.0988 9.70734 24.2192L9.78928 24.356C10.2167 25.0188 10.6818 25.6564 11.1823 26.2657C11.368 26.5065 11.5647 26.7418 11.7668 26.9716C12.1219 27.3875 12.4988 27.787 12.8866 28.17L12.9631 28.2411C13.2199 28.0879 13.4711 27.9292 13.7224 27.7651C13.1957 27.2612 12.6961 26.7296 12.2256 26.1727C12.029 25.9374 11.8378 25.6966 11.6466 25.4504C11.3625 25.0783 11.1003 24.6898 10.8272 24.2903H14.9734C15.3782 24.7988 15.8085 25.2865 16.2626 25.7514C16.4774 25.5544 16.685 25.3519 16.8853 25.144C16.6177 24.8868 16.3554 24.6241 16.0987 24.3122ZM13.8098 23.4531H10.2919C10.2824 23.4277 10.2696 23.4038 10.2536 23.382C10.2429 23.3589 10.2301 23.337 10.2154 23.3163C10.0515 23.0208 9.88761 22.7253 9.73466 22.4244C9.52161 21.9975 9.32495 21.5653 9.13922 21.133H12.8648C12.9686 21.319 13.0724 21.5051 13.1816 21.6802C13.2909 21.8553 13.3947 22.0523 13.5094 22.2274C13.6787 22.501 13.8535 22.7746 14.0556 23.0372L14.3342 23.4367L13.8098 23.4531Z" fill="white"/>
</svg>
