<svg fill="none" height="33" viewBox="0 0 160 33" width="160" xmlns="http://www.w3.org/2000/svg"><g fill="#282726"><path d="m52.4255 11.4309-4.5617 8.7116-4.5177-8.7116h-3.474v15.8744h3.3049v-9.8932l3.7909 7.2559h1.8136l3.7913-7.2559v9.8932h3.305v-15.8744z"/><path d="m65.8416 11.4309h-2.6439l-6.2548 15.8689h3.507l1.4203-3.8906h5.2715l1.4203 3.8906h3.5071zm.6501 9.5761h-4.0151l2.0376-5.7402z"/><path d="m70.3428 11.4309v2.9385h4.9765v12.9359h3.305v-12.9359h4.9548v-2.9385z"/><path d="m88.2225 24.3668v-3.781h6.5553v-2.7415h-6.5553v-3.4749h7.5821v-2.9385h-10.8871v15.8744h11.0891v-2.9385z"/><path d="m115.416 20.5036c-.48-.6193-1.126-1.0882-1.863-1.3516.595-.3198 1.087-.8017 1.42-1.3899.387-.6645.59-1.4198.59-2.1888-.002-.5057-.091-1.0072-.262-1.483-.165-.4789-.413-.9253-.732-1.3187-.323-.388-.718-.7094-1.163-.9467-.474-.2473-1.001-.3732-1.536-.3666h-8.467v15.8689h7.648c.668.0018 1.334-.0884 1.978-.2681.587-.1656 1.142-.4323 1.638-.788.478-.3473.869-.8005 1.142-1.3242.283-.5572.426-1.1753.415-1.8003.032-.9466-.253-1.8766-.808-2.643zm-3.633 3.8304c-.228.0979-.473.1464-.721.1423h-4.37v-3.8305h4.507c.228-.0023.455.0482.661.1478.207.1011.393.2425.546.4159.155.1878.277.4005.36.6293.088.242.132.4976.131.7551.003.2515-.046.5008-.142.7332-.09.2252-.221.4312-.387.6074-.166.1663-.365.2951-.585.3776zm0-6.8455c-.318.3223-.755.4985-1.207.487h-3.89v-3.6717h4.026c.417-.0044.815.1711 1.093.4815.322.3674.487.847.459 1.3352.042.4933-.125.9816-.459 1.3461zm15.902 3.8523c.819-.3815 1.504-1.0012 1.967-1.7784.516-.8522.785-1.8321.775-2.8291-.001-.6625-.131-1.3185-.382-1.9316-.253-.6129-.61-1.1776-1.054-1.669-.456-.5052-1.003-.9193-1.612-1.2202-.638-.31-1.339-.4691-2.048-.4651l-7.02-.0001v15.869h3.278v-5.2368h2.764l3.277 5.2258h3.753zm-6.069-6.9714h3.523c.249.0032.494.0631.716.1751.244.117.46.285.634.4925.192.2234.344.479.448.7552.11.3089.166.6349.163.963.003.3215-.047.6412-.147.9467-.087.275-.222.5324-.399.7606-.144.2033-.33.3731-.546.498-.218.1197-.462.1819-.71.1805h-3.655zm24.669 2.0958c-.349-.9469-.865-1.8235-1.524-2.5883-.661-.7595-1.462-1.3838-2.359-1.8386-.954-.4744-2.006-.7163-3.071-.7059-1.041-.0082-2.072.2181-3.015.6622-.908.4293-1.723 1.0336-2.398 1.7784-1.401 1.5312-2.181 3.5317-2.185 5.6088.008 1.0148.192 2.0204.546 2.9713.347.9462.866 1.82 1.53 2.5773.666.7535 1.473 1.3688 2.376 1.8113.955.4611 2.004.6951 3.065.684 1.045.0082 2.079-.2181 3.026-.6621.904-.4265 1.715-1.0271 2.387-1.7675.681-.7495 1.22-1.6174 1.59-2.5609.372-.9667.557-1.9955.546-3.0315.004-1.0022-.17-1.9971-.514-2.9385zm-6.986 7.9892c-.62.01-1.232-.1348-1.781-.4214-.515-.278-.967-.6599-1.328-1.1217-.367-.4964-.648-1.0514-.83-1.6416-.19-.6186-.286-1.2625-.284-1.9098 0-.6306.094-1.2576.279-1.8605.169-.5932.447-1.1498.819-1.6416.354-.4712.802-.8627 1.317-1.1491.546-.2944 1.16-.4432 1.78-.4323.608-.0102 1.209.1308 1.748.4104.51.2672.957.6403 1.311 1.0944.376.4936.663 1.0492.847 1.6416.201.6185.302 1.2649.301 1.9152.001.6294-.094 1.2552-.284 1.8551-.175.5892-.448 1.1443-.809 1.6416-.346.4747-.789.8702-1.3 1.16-.546.3042-1.161.4625-1.786.4597zm20.348-3.617c-.242-.5111-.597-.9603-1.038-1.3133-.494-.387-1.047-.6918-1.638-.9029-.634-.2353-1.333-.4597-2.087-.6621-.547-.1423-1.093-.2791-1.541-.4159-.378-.1029-.744-.246-1.092-.4268-.248-.1303-.462-.3179-.623-.5472-.148-.2105-.222-.465-.208-.7223-.026-.4608.179-.9044.547-1.182.533-.3273 1.156-.4786 1.781-.4323.453.0022.904.0591 1.343.1697.423.1064.836.2473 1.235.4213.338.1421.663.3124.972.5089.195.1125.378.2445.547.394l.131.1368 1.535-2.7306-.104-.0711c-.763-.5062-1.583-.9212-2.442-1.2367-.985-.3633-2.026-.5485-3.075-.5472-.765-.0046-1.525.1061-2.257.3283-.675.2057-1.305.5381-1.857.9795-.537.4233-.967.9669-1.256 1.5869-.314.6862-.469 1.4344-.454 2.1888-.015.5612.083 1.1197.29 1.6417.196.4428.489.8356.857 1.1491.422.3586.896.6519 1.404.87.637.2723 1.292.4972 1.962.6731.546.1477 1.092.301 1.638.4596.431.1208.849.2802 1.251.4761.289.1301.549.3161.765.5472.172.2281.26.508.251.7935 0 .9849-.77 1.461-2.36 1.461-.58.0009-1.158-.0708-1.72-.2134-.527-.1382-1.04-.3213-1.535-.5472-.409-.1651-.806-.3552-1.191-.5691-.245-.1415-.475-.3064-.688-.4925l-.132-.1368-1.48 2.8892.098.0712c.95.6668 1.999 1.1784 3.109 1.5157 1.133.3548 2.313.5392 3.501.5472.749.0044 1.495-.082 2.224-.2572.677-.1528 1.32-.4312 1.895-.8208.549-.3899.997-.9059 1.306-1.5048.336-.6794.503-1.4305.486-2.1888.024-.6474-.095-1.2922-.35-1.8878z"/><path d="m95.0674 8.81534-8.3086 1.50496v-.43258l8.3086-2.39675z"/><path d="m33.9288 29.2863c0-.1204 0-.2353 0-.3557 0-.1203 0-.2845-.0382-.4268 0-.2572-.0547-.5143-.0929-.7661-.0492-.3228-.1038-.6511-.1693-.9685-.2291-1.1106-.5677-2.1958-1.0106-3.2395-.2907-.6917-.6283-1.3627-1.0106-2.0082-.1475-.2462-.3005-.4925-.4589-.7332-.0273-.0493-.0656-.0985-.0983-.1478-1.2243-1.8083-2.7795-3.3679-4.5832-4.5965-.5285-.3555-1.0755-.6825-1.6388-.9795.0355-.6379.0355-1.2773 0-1.9152-.0776-1.0895-.2606-2.1689-.5463-3.22303-.2818-1.05394-.6641-2.07828-1.1417-3.05887-.339-.67339-.7241-1.32247-1.1526-1.94257-.1585-.24077-.3223-.47607-.4972-.70589-.0273-.04378-.06-.08208-.0928-.12586-.6765-.89063-1.4396-1.71181-2.278-2.45147-.2403-.21341-.4971-.42682-.7538-.62928-.2021-.158693-.4097-.317382-.6173-.465127-.1202-.087552-.2349-.169633-.3551-.246241l-.2895-.2134095-.1366-.0875525-.1256.0820805-.3005.1969935c-.1147.076608-.2349.158689-.3496.246241-.213.147745-.4206.306434-.6227.465123-.2732.213412-.519.426822-.7648.651172-.8234.74122-1.5735 1.56035-2.2397 2.446-.4536.5976-.8643 1.22663-1.2291 1.88238-.142.24624-.2786.50343-.4097.76061 0 .05472-.0492.10944-.0765.16416-.4761.97934-.85839 2.00172-1.14169 3.0534-.28525 1.05424-.46819 2.13354-.54627 3.22304-.03827.6378-.03827 1.2774 0 1.9152-.564.2958-1.11111.6228-1.63881.9795-1.80699 1.2265-3.36429 2.7864-4.58866 4.5965-.42148.6301-.8028 1.2862-1.14171 1.9645-.12564.2571-.24582.5198-.36053.7825l-.11472.1203c-.434132 1.0375-.76531 2.1152-.988748 3.2176-.065553.3174-.12018.6402-.163881.9686-.038239.2571-.0655525.5143-.0928659.7715 0 .1423 0 .2846-.0382389.4268-.0382389.1423 0 .2353 0 .3557h-.0327762v.1532l.136567.0712.316837.1587.387851.186c.234895.104.469795.2079.710155.301.64173.2613 1.29842.4843 1.96657.6675 1.40895.368 2.85948.5519 4.31553.5473h.15841.85765c2.59053-.1594 5.11063-.9079 7.36913-2.1889.2513-.1422.5026-.2954.7484-.4487.2459.1533.4971.3065.7539.4487 2.559 1.439 5.4451 2.1929 8.3798 2.1889.3605 0 .7156 0 1.0925-.0384.3769-.0383.5463-.0437.8631-.0766.8037-.0919 1.5997-.2418 2.3817-.4487.6612-.1739 1.3108-.3896 1.9448-.6457.2349-.093.4698-.197.7047-.3009l.3878-.1861.3168-.1532.1366-.0711c.0055-.0438 0-.0931 0-.1478z"/></g><path d="m11.5971 23.2288-2.73137 1.5924v5.6526c2.59057-.166 5.10327-.9543 7.32547-2.2983-1.8372-1.3208-3.3934-2.995-4.5777-4.9248zm-1.63883-8.5528.42063-.1751c1.0276-.4377 2.0963-.7714 3.1902-.9959.9846-.1982 1.9842-.3117 2.9881-.3393v-3.17374l-4.8891-2.82904c-1.1494 2.33487-1.72799 4.91008-1.68798 7.51308zm2.08673-8.27916 4.4904 2.59921v-7.66084c-1.839 1.34824-3.3699 3.07382-4.4904 5.06163zm-.8795 16.08776c-1.0164-1.8673-1.67423-3.909-1.93923-6.0192 0-.1368-.03277-.2791-.0437-.4214-2.88836 1.6038-5.2206 4.0508-6.68634 7.0152l3.82389 2.2216zm-9.02981 1.3626c-.61815 1.4488-1.01943 2.981-1.190866 4.5472l4.517646-2.6156zm5.85601 6.6594v-5.1875l-6.61532 3.8305c2.03539.8956 4.2338 1.3595 6.4569 1.3625zm17.5243-6.4296 4.8891-2.8291c-1.4415-2.1653-3.3779-3.955-5.6484-5.2203l-.0491.4323c-.1366 1.1162-.3837 2.216-.7375 3.2832-.3189.9564-.7211 1.8829-1.2018 2.7689zm.8577.4925 6.6208 3.8304c-.2407-2.27-.9673-4.4612-2.1305-6.4242zm-8.6147 3.606c2.5168 1.5234 5.401 2.3294 8.3415 2.3311.3606 0 .7157 0 1.0926-.0383v-4.4433l-4.8345-2.7962c-.7215 1.1979-1.5895 2.3008-2.5839 3.2832-.6264.6076-1.3005 1.1639-2.0157 1.6635zm10.2753-1.6525v3.8632c1.5624-.1885 3.0884-.607 4.5286-1.2421zm-10.6358-25.18779v5.23126l3.3595-1.92068c-.9504-1.26375-2.0825-2.3794-3.3595-3.31058zm6.1783 13.16569.3988.1697c.0293-1.5176-.1546-3.0318-.5463-4.4981-.4615-1.71535-1.1996-3.34374-2.1851-4.82082l-3.8239 2.22164v5.59238c1.0057.028 2.0071.1415 2.9936.3393 1.0847.226 2.1442.5596 3.1629.9959zm-5.5501 1.658c-.3223 0-.6501-.0273-.9778-.0328h-.3005c-.3278 0-.6501 0-.9724.0328-.508 0-1.0051.0767-1.4967.1423l-1.5023 2.5992c.1912.4597.3988.9193.6282 1.368.1475.2901.3005.5801.4644.8646.0204.0437.0441.0858.071.1259l.0765.1313c.1638.2846.3386.5472.5134.8318.2786.4213.5736.8317.8795 1.2312h2.9827c.3059-.3995.6009-.8099.874-1.2312.1803-.2736.3551-.5472.519-.8318.0222-.0438.0478-.0859.0764-.1258l.0711-.1314c.1638-.2845.3168-.5472.4643-.8646.224-.4487.437-.9083.6227-1.368l-1.4967-2.5992c-.5135-.0656-1.0106-.1149-1.4968-.1423z" fill="#f9f9fa"/><path d="m14.9733 24.3122h-4.1462c.2622.3995.5463.788.8194 1.1601.1912.2463.3824.487.5791.7223.4704.5569.9701 1.0885 1.4968 1.5924.8986-.6028 1.7479-1.2762 2.5401-2.0137-.4541-.4649-.8844-.9525-1.2892-1.4611zm-.9396-1.2585c-.1802-.2627-.355-.5472-.5462-.8099-.1147-.1806-.224-.3666-.3278-.5472s-.213-.3721-.3168-.5472h-3.70374c.18573.4323.38239.8646.59543 1.2914.15296.301.31681.5965.48071.8919.0148.0207.0276.0427.0383.0657.0159.0219.0288.0458.0382.0712h4.0205zm8.5492-6.0904c-.0929.3174-.1858.6348-.2896.9467s-.213.6128-.3332.9193l.8303 1.4172.4971.8646.7484 1.3242c.2185-.4268.4152-.8591.6009-1.2914.1202-.2845.2295-.5472.3387-.8645.2509-.6878.4625-1.3894.6337-2.1013-.973-.4891-1.9854-.8955-3.0263-1.2148zm-.2896 4.1697-.4971-.8865-.2567-.4377c-.0656.1477-.1311.29-.2021.4377-.1366.29-.2841.5801-.4316.8646-.1038.1861-.2076.3721-.3168.5472-.1093.1751-.2185.3721-.3278.5472l.6938 1.2093.4971.8591.6719 1.1601c.284-.3721.5463-.7606.8194-1.1601.1803-.279.3605-.5472.5463-.8591.0148-.0225.0276-.0463.0382-.0711l.0437-.0657zm-7.9154-9.0945c-.3059.0383-.6118.0821-.9123.1368-.7208.1277-1.4339.2958-2.1359.5034.0661 1.0838.2233 2.1602.4698 3.2176.3223-.0821.6446-.1533.9614-.2189.3169-.0657.6446-.1259.9615-.1751l.8303-1.4392.4971-.8646.7484-1.2914c-.5026.0329-.9505.0767-1.4203.1314zm3.5944-.1259c-.3332 0-.6719-.0273-1.0106-.0273h-.1529l-1.2619 2.1888-.4971.8645-.2513.4378.4971-.0547c.3223-.0274.6392-.0438.9615-.0547h1.2891l.6938-1.2039.4971-.8646.6555-1.16c-.4698-.0602-.945-.0985-1.4203-.1259z" fill="#fff"/><path d="m27.3684 13.9099c0-.1368 0-.2791 0-.4159l-.3551-.2188c-.2895-.1752-.579-.3393-.874-.498-.898-.483-1.8333-.8929-2.7969-1.2257-.2768-.0985-.5609-.1916-.8522-.2791-.4753-.1368-.956-.2627-1.4422-.3666l-.2731.4815-.4589.7934-1.0925 1.8879-.4971.8646-.2294.394.4807.0437c.3605.0329.7156.0821 1.0925.1368l.5463.9686.7975 1.3844c.1257-.3721.2459-.7497.3497-1.1272.0764-.2736.1529-.5472.213-.8318.2786.0712.5463.1478.8303.2299.6969.2129 1.3824.4613 2.054.7442.3168.1313.6337.2736.9451.4268l.7866.4049.4479.2462.0656-.3721c.0491-.3064.0983-.6128.1311-.9247 0-.1259.0328-.2517.0437-.3776.0328-.3229.0601-.6457.0765-.9686v-.3885c.0163-.3392.0163-.6949.0109-1.0123zm-15.5578 4.9194.5463-.9686.7975-1.3789c-.3878.0766-.7702.1587-1.1471.2572-.2786.0711-.5463.1477-.8249.2298-.0819-.2736-.1529-.5472-.2185-.8372-.168-.709-.2957-1.427-.3824-2.1506-.0437-.3392-.0765-.684-.1038-1.0232-.0273-.3393-.0382-.6019-.0437-.9029 0-.1642 0-.3283 0-.498l-.355.1314c-.29503.1094-.57909.2243-.86862.3447l-.34961.1532c-.29498.1368-.58451.2736-.86857.4214l-.34961.186c-.29499.1587-.58451.3229-.86857.498l-.35507.2188v.3995 1.0178c.03057 1.0162.14385 2.0283.33868 3.026.05463.301.12018.5965.1912.8975.11471.476.24582.9466.39877 1.4172h5.0912c-.0655-.1477-.1365-.29-.2021-.4378-.1584-.3283-.295-.6785-.4261-1.0013zm10.1934 8.1642-.4588-.7989-1.0926-1.8824-.4971-.8591-.2294-.3994c-.0874.1368-.1803.2681-.2786.3994-.2076.2901-.4261.5801-.6501.8591h-2.7313c.2567.2955.5462.5472.7866.8537.2404.3064.4097.4104.6227.6074l-.2949.2955-.3278.3173c-.7775.7333-1.6123 1.403-2.4965 2.0028-.2512.1696-.5025.3393-.7593.498l-.4206.2517.2895.2408c.2404.2024.4862.3939.732.58.1038.0766.2021.1532.3114.2243.2567.1916.5463.3721.7921.5472l.3223.208c.284.1751.5736.3447.8686.5089l.3496.186.3496-.186c.295-.1642.59-.3393.8795-.5144.8599-.5375 1.6779-1.1393 2.4473-1.8003.2349-.2025.4588-.4049.6828-.6183.3551-.3393.6992-.6895 1.0325-1.0561z" fill="#f9f9fa"/><path d="m25.6038 18.1673c-.172.7045-.3836 1.3987-.6336 2.0794-.1093.29-.2186.58-.3387.8646-.1858.4323-.3824.8646-.6009 1.2914l-.743-1.2914-.4971-.8646-.8303-1.4173c.1202-.3064.2294-.6128.3332-.9193.1038-.3064.1967-.6293.2896-.9466-.2786-.0821-.5463-.1587-.8304-.2299-.1038.3776-.2239.7552-.3496 1.1273-.1256.3721-.2567.6949-.3988 1.0397-.1857.4596-.3987.9193-.6227 1.368-.1475.29-.3005.58-.4643.8646l-.0711.1313c-.0286.0399-.0542.082-.0764.1258-.1639.2846-.3387.5472-.519.8318-.2731.4213-.5463.8317-.874 1.2312h-2.9827c.2295.29.4644.58.7047.8591h2.7314c.224-.2791.4425-.5472.65-.8591.0984-.1313.1912-.2627.2786-.3995l.2295.3995.4971.8591 1.0925 1.8824.4589.7989.2731.4706c-.3332.3666-.6774.7168-1.0324 1.0561-.224.2134-.448.4159-.6829.6183-.7693.6611-1.5874 1.2629-2.4473 1.8003-.2895.1751-.5845.3503-.8794.5144l-.3497.1861-.3496-.1861-.0655-.0383h.0327.0274l.0601-.0328.2622-.1532c.284-.1642.5462-.3393.8467-.5199l.3168-.2134c.2622-.1806.5463-.3666.7812-.5472l.3004-.2298c.2185-.1697.437-.3502.6501-.5472-.2222-.1314-.4461-.2682-.6719-.4104-.2258.186-.4552.3684-.6883.5472l-.3278.2462c-.2567.1861-.5463.3666-.7866.5472l-.3551.2244c-.2786.1696-.5463.3392-.8467.4979l-.3496.1916-.0546-.0329-.3223-.2079-.082-.0821h.0328.0382l.3169-.186c.2731-.1587.5462-.3284.8139-.5035l.3496-.2353c.2568-.1751.5135-.3611.7593-.5472l.3278-.2517c.2185-.1696.4316-.3447.6337-.5472-.2076-.1423-.4152-.29-.6228-.4432l-.6664.5472-.3551.2626c-.2458.1806-.5026.3612-.7593.5472-.1257.0821-.2513.1642-.3824.2408-.2677.1696-.5463.3338-.8139.4925l-.3824.2079c-.017-.0097-.0318-.0227-.0437-.0383-.1093-.0711-.2076-.1477-.3114-.2243l-.0546-.0438.3987-.2353c.2677-.1587.5463-.3283.7867-.498l.3769-.2517.732-.5472.3551-.279c.2076-.1697.4206-.3448.6227-.5473-.1966-.1586-.3933-.3173-.5845-.4815-.2076.1806-.4261.3612-.6446.5472l-.3714.2846c-.2459.1805-.4917.3611-.743.5472-.1256.093-.2622.1805-.3933.2626-.2567.1642-.5463.3283-.7866.4816l-.4043.2298-.0437-.0383-.2895-.2408.4206-.2517c.2568-.1587.5081-.3283.7594-.498.8841-.5998 1.7189-1.2695 2.4964-2.0027l.3278-.3174.295-.2955c-.2113-.197-.4188-.3995-.6228-.6074-.2039.2079-.4115.4104-.6227.6074-.7922.7375-1.6416 1.4109-2.5402 2.0137-.2513.1642-.5026.3229-.7593.4761l-.437.2572c-.2622.1477-.5463.2955-.8085.4323.224.2188.4479.4268.6774.6347l.2622.2244c.2349.2079.4807.4104.7265.6019l.295.1642c.2622.1969.5463.3885.7921.5745l.2841.1861c.284.1897.5735.3721.8685.5472l.3059.1805c.3169.1806.6392.3448.9615.5089.3223-.1641.6446-.3283.9559-.5089l.306-.1805c.2949-.1751.5899-.3557.8795-.5472.823-.5434 1.6062-1.145 2.3434-1.8003.2295-.208.4535-.4159.6774-.6348l.0546-.0547c.2149-.2079.4225-.4214.6228-.6402.2076-.2244.4097-.4487.6009-.6786l-.4589-.8044-.284-.4924c.4982-.6282.9579-1.286 1.3766-1.97l.0819-.1368.2131-.3611.2075-.3612c.0222-.0491.0478-.0966.0765-.1423.3787-.7102.7179-1.441 1.0161-2.1888.1147-.2845.2185-.5472.3223-.8646 0-.0766.0491-.1586.0765-.2352.1638-.4816.3059-.9686.426-1.4556-.2349-.1478-.4971-.2846-.7593-.4159zm-3.4797 7.3052-.6719-1.1601-.4971-.8591-.6938-1.2093c.1093-.1806.224-.3666.3278-.5472s.213-.3721.3168-.5472c.1475-.2846.295-.5472.4316-.8646.071-.1478.1365-.29.2021-.4378l.2567.4378.4971.8646 1.2619 2.1888-.0437.0657c-.0106.0248-.0234.0486-.0382.0711-.1694.29-.3496.58-.5463.8591-.2458.3776-.5299.7661-.803 1.1382z" fill="#282726"/><path d="m28.2259 14.085c0-.3612 0-.7168-.0383-1.0944-.295-.197-.6009-.3885-.9068-.5472l-.3223-.1861c-.295-.1641-.5954-.3283-.8959-.4815-.3987-.197-.803-.3885-1.2127-.5472-.5026-.2134-1.016-.4049-1.5295-.58-.2896-.0931-.5791-.1861-.8741-.2682-.295-.082-.6391-.1696-.9559-.2462l-.4808-.104-.4097-.07659-.4588.79349-.2841.4979c-.7872-.1189-1.5806-.192-2.3763-.2189h-1.1744c-.801.0226-1.5999.0921-2.3927.208-.3005.0437-.6064.093-.9068.1532l-.2458.0492c-.4917.0985-.9833.2189-1.4695.3557 0 .301 0 .5965.0382.892.7021-.2077 1.4152-.3757 2.136-.5035.3004-.0547.6063-.0985.9122-.1368.4698-.0602.9396-.1039 1.4203-.1313l-.7484 1.2914-.4971.8646-.8303 1.4391c-.3168.0493-.6391.1095-.9614.1751-.3223.0657-.6392.1368-.9615.2189.0656.2791.1421.5472.2185.8372.377-.0985.7594-.1805 1.1472-.2572.3879-.0766.7265-.1313 1.0925-.1805.4917-.0657.9888-.1149 1.4968-.1423.3223 0 .6446-.0274.9724-.0328h.3004c.3278 0 .6556 0 .9779.0328.5025 0 .9996.0766 1.4967.1423l1.4968 2.5992c.142-.3447.2731-.6895.3988-1.0397l-.7976-1.3844-.5462-.9686c-.3551-.0547-.7102-.1039-1.0926-.1368l-.4698-.0492.2295-.394.4971-.8646 1.0925-1.8878.448-.788.2731-.4816c.4862.104.9669.2299 1.4421.3667.2914.0875.5754.1806.8522.279.9636.3329 1.8989.7428 2.7969 1.2258.295.1587.5845.3228.8741.4979l.355.2189v.4159.0766l-.0382-.0328-.0601-.0383-.2622-.1533c-.2841-.1586-.5791-.3173-.874-.4705l-.366-.1587c-.2841-.1368-.5791-.2736-.8741-.3995l-.3441-.1477c-.2622-.104-.5463-.208-.7866-.301v.788c.2731.1039.5462.2079.8139.3228l.3769.1642c.2895.1313.5736.2681.8577.4159l.3714.1915c.2895.1532.5791.3174.8577.487l.355.2189v.0602.3885.0766l-.0655-.0438h-.0382l-.3169-.186c-.2731-.1533-.5463-.3065-.8412-.4487-.1202-.0657-.2513-.1259-.3824-.1916-.2786-.1313-.5463-.2626-.8467-.383l-.3824-.1587-.814-.3064c0 .2517-.0437.5089-.0765.7661.2677.0985.5463.2024.7976.3119l.4042.1751c.2841.1258.5463.2572.8413.394.1366.0656.2677.1368.3988.2079.2786.1477.5462.301.8303.4651.1311.0766.2622.1532.3879.2353.0027.02.0027.0402 0 .0602 0 .1259-.0274.2517-.0437.3776.0027.0236.0027.0475 0 .0711l-.4644-.2736c-.2731-.1477-.5462-.2955-.8248-.4323l-.3988-.1696c-.2732-.1259-.5463-.2517-.8249-.3666l-.4152-.1806c-.2567-.0985-.508-.1915-.7647-.2791-.0383.2517-.0765.498-.1202.7442.2567.093.5463.1915.7757.2955l.437.1806c.2731.1204.5463.2462.8194.3775l.4261.2134c.2731.1423.5463.2901.8139.4433l.4097.2462v.0547l-.0655.3721-.4479-.2462-.7867-.4049c-.3113-.1532-.6282-.2955-.945-.4268-.6716-.2829-1.3572-.5313-2.054-.7442-.2731-.0821-.5463-.1587-.8303-.2299-.0601.2791-.1366.5472-.2131.8318.2786.0711.5463.1477.8304.2298 1.0387.3161 2.0492.7188 3.0208 1.2039.2622.1313.5463.2681.7812.4104l.4534.2571c.2567.1533.5135.3119.7648.4816.071-.2955.142-.591.2021-.892.0273-.1149.0492-.2243.071-.3392.0546-.3119.1093-.6184.153-.9303 0-.1149 0-.2298.0437-.3447.0382-.3283.071-.6512.0983-.9795 0-.1149 0-.2353 0-.3502 0-.3393.0328-.6785.0328-1.0233zm-9.5051-.881-.4971.8646-.6938 1.2038h-1.2892c-.3223 0-.6391.0274-.9614.0548l-.4807.0437.2512-.4377.4971-.8646 1.2619-2.1888h.153c.3387 0 .6774 0 1.0106.0273.4752.0274.9505.0657 1.4203.1259z" fill="#282726"/><path d="m16.0987 24.3122c-.2404-.2791-.4753-.5472-.7047-.8591-.3059-.3995-.6009-.8099-.8795-1.2312-.1748-.2736-.3496-.5472-.5135-.8318l-.0765-.1313c-.0268-.04-.0506-.0821-.071-.1258-.1639-.2846-.3168-.5472-.4643-.8646-.2294-.4487-.437-.9084-.6282-1.368l1.5022-2.5992c-.3641.0474-.7283.1076-1.0925.1805l-.7976 1.379-.5462.9685c.1311.3393.2676.6731.4151 1.0014.0656.1478.1366.29.2022.4378h-5.10767c-.15295-.4706-.28406-.9412-.39877-1.4173-.07102-.3009-.13657-.5964-.1912-.8974-.19483-.9978-.30811-2.0098-.33868-3.026 0-.3393 0-.6786 0-1.0178 0-.1314 0-.2682 0-.3995l.35507-.2189.06555-.0383v.0712.0711.2845c0 .3284 0 .6622.03278.996v.383c0 .3174.05463.6402.09286.9576l.04917.3721c.03824.2791.0874.5472.1311.8318.22944-.1314.46433-.2572.69377-.3776-.04917-.2846-.09287-.5801-.12565-.8701 0-.1313-.03277-.2736-.04916-.4104-.03278-.3119-.05463-.6347-.07101-.9466 0-.1423 0-.2846 0-.4214 0-.3283 0-.6621 0-.9849 0-.1368 0-.2682 0-.405l.04916-.0273.34961-.1861.06555-.0328c-.00267.0145-.00267.0293 0 .0438v.4323c0 .3228 0 .6457.03278.963v.4214c.02731.3119.05463.6238.09287.9247 0 .1368.03277.2737.05462.4159.03824.2736.08194.5472.13111.8099l.69922-.3174c-.04916-.2791-.09286-.5472-.12564-.8427 0-.1477-.03824-.2955-.05463-.4432-.03277-.3065-.05462-.6184-.07647-.9248 0-.1477 0-.301 0-.4487 0-.3174 0-.6402 0-.9576 0-.1423 0-.29 0-.4378l.04916-.0273.34961-.1532h.06555v.0218.4652c0 .3064.00001.6183.03278.9302l.03278.4487c.02731.301.06009.6074.09833.9029 0 .1477.03823.2955.06009.4432.0437.2736.09286.5472.14203.8044l.74843-.2626c-.0492-.2682-.0929-.5472-.1311-.8208l-.0656-.4706c-.0328-.301-.0601-.602-.0819-.8974 0-.1587 0-.3229-.0274-.4761 0-.3064 0-.6184 0-.9248v-.4706h.0547l.355-.1313v.4979c0 .301 0 .602.0437.9029.0437.301.0601.684.1038 1.0233.0867.7235.2144 1.4415.3824 2.1505.0656.2846.1366.5472.2185.8372.2732-.082.5463-.1587.8249-.2298-.0765-.2791-.153-.5472-.2185-.8372-.2465-1.0574-.4037-2.1337-.4698-3.2176 0-.2955-.0328-.591-.0382-.8919v-.5089c0-.3064 0-.6074.0327-.9138l-.874.2681-.3278.1149c-.29494.104-.58992.2134-.88491.3338l-.31684.1313c-.30044.1259-.60089.2627-.89042.405l-.32229.1532c-.30592.1477-.60636.3119-.90135.476-.10379.0657-.21304.1259-.3223.1861-.30591.186-.60636.3721-.90134.5472 0 .3611-.03824.7223-.03824 1.0944v.3612c0 .3447 0 .6894.03277 1.0287 0 .4432.06556.8865.12018 1.3242.06556.5472.15842 1.0944.26768 1.6416.06009.301.1311.602.20758.9029.07648.301.16934.6293.26221.9412l.14749.4706.13657.394h1.43669c.29586.7488.63512 1.4796 1.01606 2.1888.02872.0456.05427.0932.07648.1423l.20758.3611c.06555.1204.14203.2408.21304.3612l.08194.1368c.42742.6628.89252 1.3004 1.39302 1.9097.1857.2408.3824.4761.5845.7059.3551.4159.732.8154 1.1198 1.1984l.0765.0711c.2568-.1532.508-.3119.7593-.476-.5267-.5039-1.0263-1.0355-1.4968-1.5924-.1966-.2353-.3878-.4761-.579-.7223-.2841-.3721-.5463-.7606-.8194-1.1601h4.1462c.4048.5085.8351.9962 1.2892 1.4611.2148-.197.4224-.3995.6227-.6074-.2676-.2572-.5299-.5199-.7866-.8318zm-2.2889-.8591h-3.5179c-.0095-.0254-.0223-.0493-.0383-.0711-.0107-.0231-.0235-.045-.0382-.0657-.1639-.2955-.32779-.591-.48074-.8919-.21305-.4269-.40971-.8591-.59544-1.2914h3.72558c.1038.186.2076.3721.3168.5472.1093.1751.2131.3721.3278.5472.1693.2736.3441.5472.5462.8098l.2786.3995z" fill="#282726"/></svg>