<svg fill="none" height="29" viewBox="0 0 30 29" width="30" xmlns="http://www.w3.org/2000/svg"><path d="m29.9979 25.8932c0-.1064 0-.208 0-.3144 0-.1065 0-.2516-.0339-.3774 0-.2274-.0483-.4548-.0821-.6773-.0434-.2855-.0917-.5757-.1497-.8564-.2025-.9819-.5018-1.9413-.8935-2.8641-.257-.6116-.5555-1.2048-.8935-1.7755-.1304-.2178-.2656-.4355-.4057-.6483-.0242-.0436-.058-.0871-.0869-.1307-1.0825-1.5988-2.4575-2.9777-4.0522-4.0639-.4673-.3144-.9509-.6035-1.449-.866.0314-.564.0314-1.1294 0-1.6934-.0686-.9632-.2303-1.91759-.483-2.84958-.2491-.93183-.5871-1.83749-1.0094-2.70447-.2997-.59537-.6402-1.16925-1.0191-1.7175-.14-.21288-.2849-.42091-.4395-.62411-.0241-.03871-.0531-.07257-.0821-.11128-.5981-.78744-1.2727-1.51348-2.014-2.16744-.2125-.18869-.4395-.37737-.6665-.556381-.1787-.140303-.3623-.280607-.5458-.411234-.1063-.077409-.2077-.14998-.3139-.217712l-.256-.1886842-.1208-.0774088-.111.0725708-.2657.1741702c-.1014.067732-.2077.140303-.3091.217712-.1884.130627-.3719.270931-.5506.411234-.2415.188683-.4588.377373-.6762.575733-.728.65534-1.3911 1.37957-1.9802 2.1626-.401.52837-.7641 1.08452-1.0867 1.66429-.12555.21772-.2463.4451-.36221.67249 0 .04838-.04347.09676-.06762.14514-.42095.86587-.75894 1.7698-1.00943 2.69964-.2522.93208-.41394 1.88642-.48297 2.84962-.03384.5639-.03384 1.1294 0 1.6933-.49866.2615-.98239.5506-1.44894.866-1.59764 1.0844-2.97451 2.4636-4.05703 4.064-.37264.5571-.70979 1.1372-1.00943 1.7368-.11108.2274-.21734.4597-.31876.6919l-.10143.1064c-.383833.9173-.676641 1.8701-.874192 2.8448-.057958.2806-.106256.566-.144894.8563-.033809.2274-.0579577.4548-.0821067.6822 0 .1258 0 .2516-.0338085.3774-.03380859.1257 0 .208 0 .3144h-.0289788v.1355l.120745.0629.280128.1403.342915.1645c.207681.0919.415362.1838.627872.2661.56739.2311 1.14799.4282 1.73873.5902 1.24571.3254 2.52819.488 3.81554.4838h.14006.75828c2.29033-.1409 4.51853-.8027 6.51543-1.9352.2221-.1258.4443-.2612.6616-.3967.2174.1355.4396.2709.6666.3967 2.2625 1.2723 4.8142 1.9388 7.4089 1.9352.3187 0 .6327 0 .9659-.0338.3333-.0339.483-.0387.7631-.0678.7106-.0812 1.4143-.2138 2.1058-.3967.5846-.1538 1.1589-.3445 1.7194-.5709.2077-.0822.4154-.1741.6231-.2661l.3429-.1645.2801-.1354.1208-.0629c.0048-.0387 0-.0823 0-.1307z" fill="#282726"/><path d="m10.254 20.5375-2.41486 1.4079v4.9977c2.29046-.1467 4.51196-.8437 6.47676-2.032-1.6244-1.1678-3.0003-2.648-4.0474-4.3542zm-1.4489-7.5619.37189-.1548c.90851-.387 1.85341-.682 2.82061-.8805.8705-.1752 1.7543-.2756 2.6419-.3v-2.80602l-4.3227-2.50127c-1.01622 2.06435-1.52776 4.34119-1.49238 6.64259zm1.845-7.31992 3.9701 2.29807v-6.77327c-1.626 1.19204-2.9794 2.7177-3.9701 4.4752zm-.77762 14.22382c-.8987-1.6509-1.48028-3.4561-1.71457-5.3218 0-.121-.02898-.2467-.03864-.3725-2.55372 1.418-4.61575 3.5814-5.91167 6.2023l3.38086 1.9643zm-7.98365 1.2047c-.54653 1.281-.901316 2.6357-1.052892 4.0204l3.994242-2.3125zm5.17754 5.8879v-4.5864l-5.84888 3.3866c1.79958.7918 3.74328 1.202 5.70882 1.2047zm15.49403-5.6847 4.3226-2.5013c-1.2745-1.9144-2.9865-3.4967-4.994-4.6155l-.0435.3823c-.1207.9868-.3391 1.9592-.652 2.9028-.282.8456-.6375 1.6647-1.0625 2.448zm.7582.4354 5.8537 3.3867c-.2127-2.007-.8552-3.9443-1.8836-5.6799zm-7.6166 3.1883c2.2252 1.3469 4.7753 2.0595 7.3751 2.061.3188 0 .6327 0 .966-.0338v-3.9285l-4.2744-2.4723c-.6379 1.0591-1.4053 2.0343-2.2845 2.9029-.5539.5371-1.1498 1.0289-1.7822 1.4707zm9.0849-1.4611v3.4157c1.3813-.1667 2.7305-.5367 4.0039-1.0982zm-9.4036-22.26952v4.62518l2.9703-1.69816c-.8403-1.11733-1.8413-2.10372-2.9703-2.92702zm5.4625 11.64032.3526.15c.0259-1.3417-.1367-2.6805-.483-3.97687-.4081-1.51665-1.0606-2.95637-1.9319-4.26232l-3.3809 1.96425v4.94444c.8891.0247 1.7746.1251 2.6467.3.959.1998 1.8958.4948 2.7965.8805zm-4.9071 1.466c-.285 0-.5747-.0242-.8645-.0291h-.2657c-.2898 0-.5747 0-.8597.0291-.4491 0-.8887.0677-1.3233.1258l-1.3282 2.298c.169.4064.3525.8128.5554 1.2095.1304.2565.2656.5129.4105.7644.0181.0387.0391.0759.0628.1113l.0676.1161c.1449.2516.2995.4838.454.7354.2464.3726.5072.7354.7776 1.0886h2.6371c.2705-.3532.5313-.716.7728-1.0886.1594-.2419.3139-.4838.4588-.7354.0197-.0387.0423-.0759.0676-.1112l.0628-.1162c.1449-.2515.2801-.4838.4105-.7644.1981-.3967.3864-.8031.5506-1.2095l-1.3233-2.298c-.454-.0581-.8935-.1016-1.3234-.1258z" fill="#f9f9fa"/><path d="m13.2383 21.4955h-3.66581c.23183.3531.48301.6966.72451 1.0256.169.2177.338.4306.5119.6386.416.4924.8577.9624 1.3234 1.4079.7945-.533 1.5454-1.1283 2.2458-1.7804-.4015-.411-.7819-.8421-1.1398-1.2917zm-.8307-1.1128c-.1594-.2322-.314-.4838-.483-.716-.1014-.1597-.198-.3242-.2898-.4838-.0918-.1597-.1884-.329-.2801-.4838h-3.27462c.16421.3822.33808.7644.52645 1.1417.13523.2661.28012.5274.42502.7886.01304.0183.02435.0377.03381.0581.01409.0193.02546.0405.0338.0629h3.55474zm7.5586-5.3847c-.0821.2806-.1642.5612-.256.8369-.0917.2758-.1883.5419-.2946.8128l.7341 1.2531.4395.7644.6617 1.1708c.1932-.3774.3671-.7596.5313-1.1418.1063-.2516.2029-.4838.2995-.7644.2218-.6081.4088-1.2284.5602-1.8578-.8603-.4324-1.7553-.7917-2.6757-1.074zm-.256 3.6865-.4395-.7837-.227-.3871c-.0579.1307-.1159.2565-.1787.3871-.1207.2564-.2511.5128-.3815.7644-.0918.1645-.1836.329-.2802.4838s-.1932.329-.2898.4838l.6134 1.0692.4395.7596.5941 1.0257c.2511-.329.483-.6725.7245-1.0257.1594-.2468.3187-.4838.4829-.7596.0132-.0199.0245-.041.0339-.0629l.0386-.058zm-6.9983-8.0408c-.2705.0339-.541.0726-.8066.121-.6373.1129-1.2678.2615-1.8885.4451.0585.9582.1974 1.9098.4154 2.8447.2849-.0725.5699-.1354.85-.1935.2802-.058.5699-.1113.8501-.1548l.7341-1.2724.4395-.7644.6617-1.1418c-.4443.029-.8404.0677-1.2557.1161zm3.178-.1113c-.2947 0-.5941-.0242-.8936-.0242h-.1352l-1.1157 1.9353-.4395.7644-.2222.387.4396-.0484c.2849-.0242.565-.0387.85-.0483h1.1398l.6134-1.0644.4395-.7644.5796-1.0257c-.4154-.0532-.8356-.0871-1.2557-.1113z" fill="#fff"/><path d="m24.1961 12.2982c0-.1209 0-.2467 0-.3677l-.3139-.1935c-.256-.1548-.512-.2999-.7728-.4402-.794-.4271-1.6209-.7895-2.4729-1.0838-.2447-.087-.4958-.1693-.7534-.2467-.4202-.12095-.8452-.23223-1.2751-.32415l-.2415.42575-.4057.7015-.9659 1.6691-.4395.7645-.2029.3483.425.0387c.3188.029.6327.0726.966.121l.483.8563.7051 1.224c.1111-.329.2174-.6628.3091-.9966.0676-.2419.1353-.4838.1884-.7354.2463.0629.483.1306.7341.2032.6161.1883 1.2222.4079 1.816.658.2801.1161.5603.2419.8356.3773l.6955.358.396.2178.058-.329c.0434-.271.0869-.5419.1159-.8177 0-.1112.029-.2225.0386-.3338.029-.2854.0531-.5709.0676-.8563v-.3435c.0145-.3.0145-.6145.0097-.8951zm-13.7553 4.3494.483-.8563.7052-1.2192c-.343.0678-.681.1403-1.0143.2274-.2463.0629-.483.1306-.72929.2032-.07245-.2419-.13523-.4838-.19319-.7402-.14855-.6269-.26143-1.2617-.33809-1.9014-.03864-.2999-.06761-.6047-.09176-.9047-.02415-.2999-.03381-.5322-.03864-.7983 0-.1451 0-.2902 0-.4402l-.31394.1161c-.26081.0968-.51196.1984-.76794.3048l-.3091.1355c-.26081.1209-.51679.2419-.76794.3725l-.30911.1645c-.26081.1403-.51679.2854-.76794.4402l-.31393.1936v.3531.8999c.02703.8985.12718 1.7933.29945 2.6755.04829.2661.10625.5273.16904.7934.10142.4209.21734.837.35257 1.2531h4.50141c-.058-.1307-.1208-.2565-.1787-.3871-.1401-.2903-.2608-.5999-.3768-.8854zm9.0124 7.2184-.4057-.7063-.9659-1.6643-.4395-.7596-.2029-.3532c-.0773.121-.1594.2371-.2463.3532-.1835.2564-.3767.5128-.5748.7596h-2.4149c.227.2612.483.4838.6955.7547s.3623.3629.5506.537l-.2608.2613-.2898.2806c-.6874.6483-1.4255 1.2404-2.2072 1.7707-.2221.15-.4443.3-.6713.4403l-.3719.2225.256.2129c.2125.179.4298.3483.6472.5128.0917.0678.1787.1355.2753.1984.227.1693.4829.329.7003.4838l.2849.1839c.2512.1548.5072.3047.768.4499l.3091.1645.3091-.1645c.2608-.1452.5216-.3.7776-.4548.7602-.4752 1.4835-1.0073 2.1637-1.5917.2077-.179.4057-.358.6038-.5467.3139-.3.6182-.6096.9128-.9337z" fill="#f9f9fa"/><g fill="#282726"><path d="m22.6365 16.0624c-.1521.6229-.3391 1.2366-.5603 1.8384-.0966.2564-.1931.5129-.2994.7644-.1642.3822-.3381.7645-.5313 1.1418l-.6568-1.1418-.4395-.7644-.7342-1.253c.1063-.271.2029-.5419.2946-.8128.0918-.271.1739-.5564.256-.837-.2463-.0726-.483-.1403-.7341-.2032-.0918.3338-.198.6677-.3091.9966-.1111.329-.227.6145-.3526.9193-.1642.4064-.3526.8128-.5506 1.2095-.1304.2564-.2656.5128-.4105.7644l-.0628.1161c-.0253.0353-.048.0725-.0676.1113-.1449.2516-.2995.4838-.4589.7354-.2414.3725-.4829.7353-.7727 1.0885h-2.6371c.2029.2564.4105.5129.6231.7596h2.4149c.198-.2467.3912-.4838.5747-.7596.0869-.1161.169-.2322.2463-.3532l.2029.3532.4395.7596.9659 1.6643.4057.7063.2415.4161c-.2946.3242-.5989.6338-.9128.9338-.198.1886-.396.3677-.6037.5467-.6802.5844-1.4035 1.1165-2.1638 1.5917-.2559.1548-.5168.3096-.7776.4548l-.3091.1644-.3091-.1644-.0579-.0339h.0289.0242l.0531-.029.2318-.1355c.2512-.1451.483-.3.7487-.4596l.2801-.1887c.2318-.1597.483-.3242.6907-.4838l.2656-.2032c.1932-.15.3864-.3096.5747-.4838-.1964-.1161-.3944-.2371-.594-.3629-.1997.1645-.4025.3258-.6086.4838l-.2898.2178c-.227.1644-.4829.3241-.6955.4838l-.3139.1983c-.2463.15-.483.3-.7486.4403l-.3091.1693-.0483-.029-.285-.1839-.0724-.0725h.029.0338l.2801-.1645c.2415-.1403.483-.2903.7196-.4451l.3091-.2081c.227-.1548.454-.3193.6714-.4838l.2898-.2225c.1932-.15.3815-.3048.5602-.4838-.1835-.1258-.367-.2564-.5506-.3919l-.5892.4838-.3139.2322c-.2174.1597-.4444.3193-.6714.4838-.1111.0726-.2222.1452-.3381.2129-.2366.15-.4829.2951-.7196.4354l-.3381.1839c-.015-.0086-.0281-.0201-.0386-.0339-.0966-.0629-.1836-.1306-.2753-.1984l-.0483-.0387.3525-.208c.2367-.1403.483-.2903.6955-.4403l.3333-.2225.6472-.4838.3139-.2468c.1836-.1499.3719-.3047.5506-.4838-.1739-.1403-.3477-.2806-.5168-.4257-.1835.1597-.3767.3193-.5699.4838l-.3284.2516c-.2174.1596-.4347.3193-.6569.4838-.111.0822-.2318.1596-.3477.2322-.227.1452-.483.2903-.6955.4258l-.3574.2032-.0386-.0339-.256-.2129.3719-.2225c.227-.1403.4491-.2903.6713-.4403.7817-.5303 1.5198-1.1224 2.2072-1.7707l.2898-.2806.2608-.2613c-.1867-.1742-.3703-.3532-.5506-.537-.1803.1838-.3638.3628-.5506.537-.7004.6521-1.4513 1.2474-2.2458 1.7804-.2222.1452-.4444.2855-.6714.4209l-.3863.2274c-.2319.1306-.483.2613-.7149.3822.1981.1935.3961.3774.5989.5612l.2319.1984c.2077.1838.425.3629.6423.5322l.2608.1451c.2319.1742.483.3435.7004.508l.2511.1645c.2512.1677.5071.329.7679.4838l.2705.1597c.2801.1596.5651.3048.8501.4499.2849-.1451.5699-.2903.8452-.4499l.2704-.1597c.2609-.1548.5217-.3145.7776-.4838.7277-.4804 1.4202-1.0123 2.072-1.5917.2029-.1839.4009-.3677.5989-.5612l.0483-.0484c.19-.1838.3735-.3725.5506-.5661.1835-.1983.3622-.3967.5313-.5999l-.4057-.7112-.2512-.4354c.4405-.5554.847-1.137 1.2171-1.7417l.0725-.1209.1884-.3193.1835-.3194c.0196-.0434.0422-.0854.0676-.1257.3348-.628.6347-1.2741.8983-1.9353.1015-.2515.1932-.4838.285-.7644 0-.0677.0435-.1403.0676-.208.1449-.4258.2705-.8564.3767-1.2869-.2076-.1307-.4395-.2516-.6713-.3677zm-3.0766 6.4588-.594-1.0257-.4396-.7596-.6133-1.0692c.0966-.1596.198-.3241.2897-.4838.0918-.1596.1884-.329.2802-.4838.1304-.2516.2608-.4838.3815-.7644.0628-.1306.1208-.2564.1787-.387l.227.387.4395.7644 1.1157 1.9352-.0386.0581c-.0094.0219-.0207.043-.0338.0629-.1497.2564-.3091.5128-.483.7596-.2173.3338-.4685.6773-.71 1.0063z"/><path d="m24.9548 12.4532c0-.3193 0-.6338-.0338-.9676-.2608-.1742-.5313-.3435-.8018-.4838l-.2849-.1645c-.2608-.1451-.5265-.2903-.7921-.4258-.3526-.1741-.71-.3435-1.0722-.48376-.4444-.18868-.8984-.35801-1.3524-.51283-.2559-.08225-.5119-.1645-.7727-.23707s-.5651-.14998-.8453-.21771l-.425-.09192-.3622-.06773-.4057.70151-.2512.44027c-.696-.10515-1.3975-.16976-2.1009-.19353h-1.0384c-.7081.02-1.4145.08139-2.1155.18385-.2656.0387-.5361.08222-.8017.13542l-.2174.0436c-.4346.0871-.8693.1935-1.29918.3145 0 .2661 0 .5273.03378.7886.6207-.1836 1.2512-.3322 1.8885-.4451.2656-.0484.5361-.0871.8066-.121.4153-.0532.8307-.0919 1.2557-.1161l-.6617 1.1418-.4395.7644-.7341 1.2724c-.2801.0435-.5651.0968-.8501.1548-.2849.0581-.565.121-.85.1935.0579.2468.1256.4838.1932.7403.3332-.0871.6713-.1597 1.0142-.2274.343-.0678.6424-.1161.966-.1597.4347-.058.8742-.1016 1.3234-.1258.2849 0 .5699-.0242.8597-.029h.2656c.2898 0 .5796 0 .8645.029.4444 0 .8839.0678 1.3234.1258l1.3234 2.2981c.1255-.3048.2415-.6096.3525-.9192l-.7051-1.2241-.483-.8563c-.3139-.0484-.6279-.0919-.9659-.121l-.4154-.0435.2028-.3483.4396-.7644.9659-1.6692.3961-.6967.2414-.4257c.4299.09192.8549.20319 1.2751.32415.2576.07745.5088.15965.7535.24675.8519.2943 1.6788.6567 2.4728 1.0837.2608.1403.5168.2855.7728.4403l.3139.1935v.3677.0677l-.0338-.029-.0531-.0339-.2318-.1354c-.2512-.1403-.512-.2806-.7728-.4161l-.3236-.1403c-.2512-.121-.512-.2419-.7728-.3532l-.3043-.1306c-.2318-.0919-.4829-.1839-.6954-.2661v.6967c.2414.0919.4829.1838.7196.2854l.3332.1452c.256.1161.5072.237.7583.3676l.3285.1694c.2559.1354.5119.2806.7582.4306l.314.1935v.0532.3435.0677l-.058-.0387h-.0338l-.2801-.1645c-.2415-.1354-.483-.2709-.7438-.3967-.1063-.058-.2222-.1113-.3381-.1693-.2463-.1161-.483-.2322-.7486-.3387l-.3381-.1403-.7196-.2709c0 .2225-.0387.4499-.0677.6773.2367.0871.483.179.7052.2758l.3574.1548c.2511.1113.483.2274.7438.3483.1207.0581.2366.121.3526.1839.2463.1306.4829.2661.7341.4112.1159.0678.2318.1355.3429.2081.0024.0176.0024.0355 0 .0532 0 .1113-.0241.2225-.0386.3338.0024.0209.0024.042 0 .0629l-.4106-.2419c-.2415-.1306-.4829-.2613-.7293-.3822l-.3525-.15c-.2415-.1113-.483-.2225-.7293-.3241l-.3671-.1597c-.227-.0871-.4492-.1693-.6762-.2467-.0338.2225-.0676.4402-.1062.6579.227.0823.4829.1694.6858.2613l.3864.1596c.2415.1065.483.2178.7244.3339l.3768.1887c.2415.1257.483.2564.7196.3918l.3622.2178v.0483l-.0579.329-.3961-.2177-.6954-.358c-.2753-.1355-.5555-.2613-.8356-.3774-.5938-.2501-1.1999-.4697-1.816-.658-.2415-.0725-.483-.1403-.7341-.2031-.0532.2467-.1208.4838-.1884.7353.2463.0629.483.1307.7341.2032.9184.2795 1.8119.6355 2.6709 1.0644.2318.1161.483.2371.6907.3629l.4008.2273c.227.1355.454.2758.6762.4258.0628-.2613.1256-.5225.1787-.7886.0242-.1016.0435-.1984.0628-.3.0483-.2757.0966-.5467.1352-.8224 0-.1016 0-.2032.0387-.3048.0338-.2903.0628-.5758.0869-.866 0-.1016 0-.2081 0-.3097 0-.2999.029-.5999.029-.9047zm-8.4039-.7789-.4395.7644-.6134 1.0644h-1.1398c-.2849 0-.5651.0242-.85.0483l-.4251.0387.2222-.387.4395-.7644 1.1157-1.9352h.1352c.2995 0 .5989 0 .8936.0242.4202.0241.8403.058 1.2557.1112z"/><path d="m14.2329 21.4955c-.2125-.2467-.4202-.4838-.623-.7596-.2705-.3532-.5313-.716-.7776-1.0885-.1546-.2419-.3091-.4838-.454-.7354l-.0677-.1161c-.0237-.0354-.0447-.0726-.0627-.1113-.1449-.2516-.2802-.4838-.4106-.7644-.2028-.3967-.3864-.8031-.5554-1.2095l1.3282-2.2981c-.322.0419-.644.0951-.966.1597l-.7051 1.2191-.483.8564c.1159.2999.2367.5951.3671.8853.0579.1307.1207.2565.1787.3871h-4.51589c-.13523-.4161-.25115-.8322-.35257-1.2531-.06279-.2661-.12075-.5273-.16905-.7934-.17226-.8822-.27241-1.777-.29944-2.6755 0-.2999 0-.5999 0-.8998 0-.1161 0-.2371 0-.3532l.31393-.1935.05796-.0339v.0629.0629.2516c0 .2903 0 .5854.02898.8805v.3387c0 .2806.0483.566.08211.8466l.04346.329c.03381.2467.07728.4838.11592.7354.20285-.1161.41053-.2274.61338-.3338-.04347-.2516-.0821-.5129-.11108-.7693 0-.1161-.02898-.2419-.04347-.3628-.02898-.2758-.0483-.5613-.06279-.837 0-.1258 0-.2516 0-.3726 0-.2902 0-.5854 0-.8708 0-.121 0-.2371 0-.358l.04347-.0242.30911-.1645.05795-.029c-.00236.0128-.00236.0259 0 .0387v.3822c0 .2854 0 .5709.02898.8515v.3725c.02415.2758.0483.5515.08211.8176 0 .121.02898.2419.0483.3677.03381.2419.07244.4838.11591.7161l.61822-.2806c-.04347-.2468-.08211-.4839-.11109-.7451 0-.1306-.03381-.2613-.0483-.3919-.02898-.2709-.0483-.5467-.06761-.8176 0-.1306 0-.2661 0-.3967 0-.2806 0-.5661 0-.8467 0-.1258 0-.2564 0-.387l.04346-.0242.30911-.1355h.05796v.0194.4112c0 .2709 0 .5467.02898.8225l.02898.3967c.02414.2661.05312.537.08693.7983 0 .1306.03381.2612.05313.3918.03864.2419.08211.4838.12557.7112l.66169-.2322c-.04347-.2371-.08211-.4838-.11592-.7257l-.05796-.4161c-.02898-.2661-.05312-.5322-.07244-.7934 0-.1403 0-.2855-.02415-.4209 0-.271 0-.5467 0-.8177v-.416h.0483l.31393-.1161v.4402c0 .2661 0 .5322.03864.7983s.05313.6048.09177.9047c.07666.6397.18953 1.2745.33808 1.9014.05796.2515.12075.4838.19319.7402.24145-.0726.48295-.1403.72935-.2032-.0677-.2467-.1353-.4838-.1932-.7402-.218-.9349-.3569-1.8865-.4154-2.8448 0-.2613-.029-.5225-.0338-.7886v-.44995c0-.27093 0-.53702.029-.80795l-.7728.23706-.28979.1016c-.2608.09193-.52161.18869-.78242.29513l-.28013.11611c-.26564.1113-.53128.2322-.78726.358l-.28495.1355c-.27047.1306-.53611.2757-.79692.4209-.09177.058-.18836.1113-.28496.1645-.27047.1645-.53611.329-.79691.4838 0 .3193-.03381.6386-.03381.9676v.3193c0 .3048 0 .6096.02898.9096 0 .3918.05795.7837.10625 1.1708.05796.4838.14007.9676.23666 1.4514.05313.2661.11592.5322.18353.7983.06762.2661.14973.5563.23183.8321l.13041.4161.12074.3483h1.27024c.26158.6621.56154 1.3082.89834 1.9352.02539.0404.04798.0824.06762.1258l.18353.3193c.05796.1065.12557.2129.18836.3194l.07245.1209c.37786.586.78907 1.1498 1.2316 1.6885.16421.2129.33811.4209.51681.6241.3139.3677.6472.7209.9901 1.0595l.0676.0629c.227-.1354.4492-.2757.6713-.4209-.4656-.4455-.9074-.9155-1.3233-1.4079-.1739-.208-.3429-.4209-.512-.6386-.2511-.329-.48296-.6725-.72445-1.0257h3.66585c.3579.4497.7383.8808 1.1398 1.2918.19-.1742.3735-.3532.5506-.537-.2367-.2274-.4685-.4596-.6955-.7354zm-2.0237-.7596h-3.11037c-.00834-.0224-.01972-.0436-.03381-.0629-.00945-.0203-.02077-.0398-.03381-.058-.14489-.2613-.28978-.5225-.42502-.7886-.18836-.3774-.36223-.7596-.52645-1.1418h3.29396c.0917.1645.1835.329.2801.4838s.1884.329.2898.4838c.1497.2419.3043.4838.483.716l.2463.3532z"/></g></svg>