<svg width="160" height="33" viewBox="0 0 160 33" fill="none" xmlns="http://www.w3.org/2000/svg">
<path d="M52.4255 11.4309L47.8638 20.1425L43.3461 11.4309H39.8721V27.3053H43.177V17.4121L46.9679 24.668H48.7815L52.5728 17.4121V27.3053H55.8778V11.4309H52.4255Z" fill="#009DDC"/>
<path d="M65.8416 11.4309H63.1977L56.9429 27.2998H60.4499L61.8702 23.4092H67.1417L68.562 27.2998H72.0691L65.8416 11.4309ZM66.4917 21.007H62.4766L64.5142 15.2668L66.4917 21.007Z" fill="#009DDC"/>
<path d="M70.3428 11.4309V14.3694H75.3193V27.3053H78.6243V14.3694H83.5791V11.4309H70.3428Z" fill="#009DDC"/>
<path d="M88.2225 24.3668V20.5858H94.7778V17.8443H88.2225V14.3694H95.8046V11.4309H84.9175V27.3053H96.0066V24.3668H88.2225Z" fill="#009DDC"/>
<path d="M115.416 20.5036C114.936 19.8843 114.29 19.4154 113.553 19.152C114.148 18.8322 114.64 18.3503 114.973 17.7621C115.36 17.0976 115.563 16.3423 115.563 15.5733C115.561 15.0676 115.472 14.5661 115.301 14.0903C115.136 13.6114 114.888 13.165 114.569 12.7716C114.246 12.3836 113.851 12.0622 113.406 11.8249C112.932 11.5776 112.405 11.4517 111.87 11.4583H103.403V27.3272L111.051 27.3272C111.719 27.329 112.385 27.2388 113.029 27.0591C113.616 26.8935 114.171 26.6268 114.667 26.2711C115.145 25.9238 115.536 25.4706 115.809 24.9469C116.092 24.3897 116.235 23.7716 116.224 23.1466C116.256 22.2 115.971 21.27 115.416 20.5036ZM111.783 24.334C111.555 24.4319 111.31 24.4804 111.062 24.4763H106.692V20.6458H111.199C111.427 20.6435 111.654 20.694 111.86 20.7936C112.067 20.8947 112.253 21.0361 112.406 21.2095C112.561 21.3973 112.683 21.61 112.766 21.8388C112.854 22.0808 112.898 22.3364 112.897 22.5939C112.9 22.8454 112.851 23.0947 112.755 23.3271C112.665 23.5523 112.534 23.7583 112.368 23.9345C112.202 24.1008 112.003 24.2296 111.783 24.3121V24.334ZM111.783 17.4885C111.465 17.8108 111.028 17.987 110.576 17.9755H106.686V14.3038H110.712C111.129 14.2994 111.527 14.4749 111.805 14.7853C112.127 15.1527 112.292 15.6323 112.264 16.1205C112.306 16.6138 112.139 17.1021 111.805 17.4666L111.783 17.4885ZM127.685 21.3408C128.504 20.9593 129.189 20.3396 129.652 19.5624C130.168 18.7102 130.437 17.7303 130.427 16.7333C130.426 16.0708 130.296 15.4148 130.045 14.8017C129.792 14.1888 129.435 13.6241 128.991 13.1327C128.535 12.6275 127.988 12.2134 127.379 11.9125C126.741 11.6025 126.04 11.4434 125.331 11.4474L118.311 11.4473V27.3163H121.589V22.0795H124.353L127.63 27.3053H131.383L127.685 21.3408ZM121.616 14.3694H125.139C125.388 14.3726 125.633 14.4325 125.855 14.5445C126.099 14.6615 126.315 14.8295 126.489 15.037C126.681 15.2604 126.833 15.516 126.937 15.7922C127.047 16.1011 127.103 16.4271 127.1 16.7552C127.103 17.0767 127.053 17.3964 126.953 17.7019C126.866 17.9769 126.731 18.2343 126.554 18.4625C126.41 18.6658 126.224 18.8356 126.008 18.9605C125.79 19.0802 125.546 19.1424 125.298 19.141H121.643L121.616 14.3694ZM146.285 16.4652C145.936 15.5183 145.42 14.6417 144.761 13.8769C144.1 13.1174 143.299 12.4931 142.402 12.0383C141.448 11.5639 140.396 11.322 139.331 11.3324C138.29 11.3242 137.259 11.5505 136.316 11.9946C135.408 12.4239 134.593 13.0282 133.918 13.773C132.517 15.3042 131.737 17.3047 131.733 19.3818C131.741 20.3966 131.925 21.4022 132.279 22.3531C132.626 23.2993 133.145 24.1731 133.809 24.9304C134.475 25.6839 135.282 26.2992 136.185 26.7417C137.14 27.2028 138.189 27.4368 139.25 27.4257C140.295 27.4339 141.329 27.2076 142.276 26.7636C143.18 26.3371 143.991 25.7365 144.663 24.9961C145.344 24.2466 145.883 23.3787 146.253 22.4352C146.625 21.4685 146.81 20.4397 146.799 19.4037C146.803 18.4015 146.629 17.4066 146.285 16.4652V16.4652ZM139.299 24.4544C138.679 24.4644 138.067 24.3196 137.518 24.033C137.003 23.755 136.551 23.3731 136.19 22.9113C135.823 22.4149 135.542 21.8599 135.36 21.2697C135.17 20.6511 135.074 20.0072 135.076 19.3599C135.076 18.7293 135.17 18.1023 135.355 17.4994C135.524 16.9062 135.802 16.3496 136.174 15.8578C136.528 15.3866 136.976 14.9951 137.491 14.7087C138.037 14.4143 138.651 14.2655 139.271 14.2764C139.879 14.2662 140.48 14.4072 141.019 14.6868C141.529 14.954 141.976 15.3271 142.33 15.7812C142.706 16.2748 142.993 16.8304 143.177 17.4228C143.378 18.0413 143.479 18.6877 143.478 19.338C143.479 19.9674 143.384 20.5932 143.194 21.1931C143.019 21.7823 142.746 22.3374 142.385 22.8347C142.039 23.3094 141.596 23.7049 141.085 23.9947C140.539 24.2989 139.924 24.4572 139.299 24.4544V24.4544ZM159.647 20.8374C159.405 20.3263 159.05 19.8771 158.609 19.5241C158.115 19.1371 157.562 18.8323 156.971 18.6212C156.337 18.3859 155.638 18.1615 154.884 17.9591C154.337 17.8168 153.791 17.68 153.343 17.5432C152.965 17.4403 152.599 17.2972 152.251 17.1164C152.003 16.9861 151.789 16.7985 151.628 16.5692C151.48 16.3587 151.406 16.1042 151.42 15.8469C151.394 15.3861 151.599 14.9425 151.967 14.6649C152.5 14.3376 153.123 14.1863 153.748 14.2326C154.201 14.2348 154.652 14.2917 155.091 14.4023C155.514 14.5087 155.927 14.6496 156.326 14.8236C156.664 14.9657 156.989 15.136 157.298 15.3325C157.493 15.445 157.676 15.577 157.845 15.7265L157.976 15.8633L159.511 13.1327L159.407 13.0616C158.644 12.5554 157.824 12.1404 156.965 11.8249C155.98 11.4616 154.939 11.2764 153.89 11.2777C153.125 11.2731 152.365 11.3838 151.633 11.606C150.958 11.8117 150.328 12.1441 149.776 12.5855C149.239 13.0088 148.809 13.5524 148.52 14.1724C148.206 14.8586 148.051 15.6068 148.066 16.3612C148.051 16.9224 148.149 17.4809 148.356 18.0029C148.552 18.4457 148.845 18.8385 149.213 19.152C149.635 19.5106 150.109 19.8039 150.617 20.022C151.254 20.2943 151.909 20.5192 152.579 20.6951C153.125 20.8428 153.671 20.9961 154.217 21.1547C154.648 21.2755 155.066 21.4349 155.468 21.6308C155.757 21.7609 156.017 21.9469 156.233 22.178C156.405 22.4061 156.493 22.686 156.484 22.9715C156.484 23.9564 155.714 24.4325 154.124 24.4325C153.544 24.4334 152.966 24.3617 152.404 24.2191C151.877 24.0809 151.364 23.8978 150.869 23.6719C150.46 23.5068 150.063 23.3167 149.678 23.1028C149.433 22.9613 149.203 22.7964 148.99 22.6103L148.858 22.4735L147.378 25.3627L147.476 25.4339C148.426 26.1007 149.475 26.6123 150.585 26.9496C151.718 27.3044 152.898 27.4888 154.086 27.4968C154.835 27.5012 155.581 27.4148 156.31 27.2396C156.987 27.0868 157.63 26.8084 158.205 26.4188C158.754 26.0289 159.202 25.5129 159.511 24.914C159.847 24.2346 160.014 23.4835 159.997 22.7252C160.021 22.0778 159.902 21.433 159.647 20.8374V20.8374Z" fill="#009DDC"/>
<path d="M95.0674 8.81534L86.7588 10.3203V9.88772L95.0674 7.49097V8.81534Z" fill="#00B194"/>
<path d="M33.9288 29.2863C33.9288 29.1659 33.9288 29.051 33.9288 28.9306C33.9288 28.8103 33.9288 28.6461 33.8906 28.5038C33.8906 28.2466 33.8359 27.9895 33.7977 27.7377C33.7485 27.4149 33.6939 27.0866 33.6284 26.7692C33.3993 25.6586 33.0607 24.5734 32.6178 23.5297C32.3271 22.838 31.9895 22.167 31.6072 21.5215C31.4597 21.2753 31.3067 21.029 31.1483 20.7883C31.121 20.739 31.0827 20.6898 31.05 20.6405C29.8257 18.8322 28.2705 17.2726 26.4668 16.044C25.9383 15.6885 25.3913 15.3615 24.828 15.0645C24.8635 14.4266 24.8635 13.7872 24.828 13.1493C24.7504 12.0598 24.5674 10.9804 24.2817 9.92627C23.9999 8.87233 23.6176 7.84799 23.14 6.8674C22.801 6.19401 22.4159 5.54493 21.9874 4.92483C21.8289 4.68406 21.6651 4.44876 21.4902 4.21894C21.4629 4.17516 21.4302 4.13686 21.3974 4.09308C20.7209 3.20245 19.9578 2.38127 19.1194 1.64161C18.8791 1.4282 18.6223 1.21479 18.3656 1.01233C18.1635 0.853637 17.9559 0.694948 17.7483 0.547203C17.6281 0.459651 17.5134 0.37757 17.3932 0.300962L17.1037 0.0875525L16.9671 0L16.8415 0.0820805L16.541 0.279074C16.4263 0.355682 16.3061 0.437763 16.1914 0.525315C15.9784 0.67306 15.7708 0.831749 15.5687 0.990438C15.2955 1.20385 15.0497 1.41726 14.8039 1.64161C13.9805 2.38283 13.2304 3.20196 12.5642 4.08761C12.1106 4.68521 11.6999 5.31424 11.3351 5.96999C11.1931 6.21623 11.0565 6.47342 10.9254 6.7306C10.9254 6.78532 10.8762 6.84004 10.8489 6.89476C10.3728 7.8741 9.99051 8.89648 9.70721 9.94816C9.42196 11.0024 9.23902 12.0817 9.16094 13.1712C9.12267 13.809 9.12267 14.4486 9.16094 15.0864C8.59694 15.3822 8.04983 15.7092 7.52213 16.0659C5.71514 17.2924 4.15784 18.8523 2.93347 20.6624C2.51199 21.2925 2.13067 21.9486 1.79176 22.6269C1.66612 22.884 1.54594 23.1467 1.43123 23.4094L1.31651 23.5297C0.882378 24.5672 0.5512 25.6449 0.327762 26.7473C0.262209 27.0647 0.207582 27.3875 0.163881 27.7159C0.125642 27.973 0.0983285 28.2302 0.0710151 28.4874C0.0710151 28.6297 0.0710151 28.772 0.0327762 28.9142C-0.0054627 29.0565 0.0327762 29.1495 0.0327762 29.2699H0V29.4231L0.136567 29.4943L0.453404 29.653L0.841255 29.839C1.07615 29.943 1.31105 30.0469 1.55141 30.14C2.19314 30.4013 2.84983 30.6243 3.51798 30.8075C4.92693 31.1755 6.37746 31.3594 7.83351 31.3548H7.99192H8.84957C11.4401 31.1954 13.9602 30.4469 16.2187 29.1659C16.47 29.0237 16.7213 28.8705 16.9671 28.7172C17.213 28.8705 17.4642 29.0237 17.721 29.1659C20.28 30.6049 23.1661 31.3588 26.1008 31.3548C26.4613 31.3548 26.8164 31.3548 27.1933 31.3164C27.5702 31.2781 27.7396 31.2727 28.0564 31.2398C28.8601 31.1479 29.6561 30.998 30.4381 30.7911C31.0993 30.6172 31.7489 30.4015 32.3829 30.1454C32.6178 30.0524 32.8527 29.9484 33.0876 29.8445L33.4754 29.6584L33.7922 29.5052L33.9288 29.4341C33.9343 29.3903 33.9288 29.341 33.9288 29.2863V29.2863Z" fill="#73C167"/>
<path d="M11.5971 23.2288L8.86573 24.8212V30.4738C11.4563 30.3078 13.969 29.5195 16.1912 28.1755C14.354 26.8547 12.7978 25.1805 11.6135 23.2507L11.5971 23.2288ZM9.95827 14.676L10.3789 14.5009C11.4065 14.0632 12.4752 13.7295 13.5691 13.505C14.5537 13.3068 15.5533 13.1933 16.5572 13.1657V9.99196L11.6681 7.16292C10.5187 9.49779 9.94011 12.073 9.98012 14.676H9.95827ZM12.045 6.39684L16.5354 8.99605V1.33521C14.6964 2.68345 13.1655 4.40903 12.045 6.39684V6.39684ZM11.1655 22.4846C10.1491 20.6173 9.49127 18.5756 9.22627 16.4654C9.22627 16.3286 9.1935 16.1863 9.18257 16.044C6.29421 17.6478 3.96197 20.0948 2.49623 23.0592L6.32012 25.2808L11.1655 22.4846ZM2.13569 23.8472C1.51754 25.296 1.11626 26.8282 0.944824 28.3944L5.46247 25.7788L2.13569 23.8472ZM7.9917 30.5066V25.3191L1.37638 29.1496C3.41177 30.0452 5.61018 30.5091 7.83328 30.5121L7.9917 30.5066ZM25.516 24.077L30.4051 21.2479C28.9636 19.0826 27.0272 17.2929 24.7567 16.0276L24.7076 16.4599C24.571 17.5761 24.3239 18.6759 23.9701 19.7431C23.6512 20.6995 23.249 21.626 22.7683 22.512L25.516 24.077ZM26.3737 24.5695L32.9945 28.3999C32.7538 26.1299 32.0272 23.9387 30.864 21.9757L26.3737 24.5695ZM17.759 28.1755C20.2758 29.6989 23.16 30.5049 26.1005 30.5066C26.4611 30.5066 26.8162 30.5066 27.1931 30.4683V26.025L22.3586 23.2288C21.6371 24.4267 20.7691 25.5296 19.7747 26.512C19.1483 27.1196 18.4742 27.6759 17.759 28.1755V28.1755ZM28.0343 26.523V30.3862C29.5967 30.1977 31.1227 29.7792 32.5629 29.1441L28.0343 26.523ZM17.3985 1.33521V6.56647L20.758 4.64579C19.8076 3.38204 18.6755 2.26639 17.3985 1.33521ZM23.5768 14.5009L23.9756 14.6706C24.0049 13.153 23.821 11.6388 23.4293 10.1725C22.9678 8.45715 22.2297 6.82876 21.2442 5.35168L17.4203 7.57332V13.1657C18.426 13.1937 19.4274 13.3072 20.4139 13.505C21.4986 13.731 22.5581 14.0646 23.5768 14.5009V14.5009ZM18.0267 16.1589C17.7044 16.1589 17.3766 16.1316 17.0489 16.1261H16.7484C16.4206 16.1261 16.0983 16.1261 15.776 16.1589C15.268 16.1589 14.7709 16.2356 14.2793 16.3012L12.777 18.9004C12.9682 19.3601 13.1758 19.8197 13.4052 20.2684C13.5527 20.5585 13.7057 20.8485 13.8696 21.133C13.89 21.1767 13.9137 21.2188 13.9406 21.2589L14.0171 21.3902C14.1809 21.6748 14.3557 21.9374 14.5305 22.222C14.8091 22.6433 15.1041 23.0537 15.41 23.4532H18.3927C18.6986 23.0537 18.9936 22.6433 19.2667 22.222C19.447 21.9484 19.6218 21.6748 19.7857 21.3902C19.8079 21.3464 19.8335 21.3043 19.8621 21.2644L19.9332 21.133C20.097 20.8485 20.25 20.5858 20.3975 20.2684C20.6215 19.8197 20.8345 19.3601 21.0202 18.9004L19.5235 16.3012C19.01 16.2356 18.5129 16.1863 18.0267 16.1589V16.1589Z" fill="#D0E4A6"/>
<path d="M14.9733 24.3122H10.8271C11.0893 24.7117 11.3734 25.1002 11.6465 25.4723C11.8377 25.7186 12.0289 25.9593 12.2256 26.1946C12.696 26.7515 13.1957 27.2831 13.7224 27.787C14.621 27.1842 15.4703 26.5108 16.2625 25.7733C15.8084 25.3084 15.3781 24.8208 14.9733 24.3122V24.3122ZM14.0337 23.0537C13.8535 22.791 13.6787 22.5065 13.4875 22.2438C13.3728 22.0632 13.2635 21.8772 13.1597 21.6966C13.0559 21.516 12.9467 21.3245 12.8429 21.1494H9.13916C9.32489 21.5817 9.52155 22.014 9.73459 22.4408C9.88755 22.7418 10.0514 23.0373 10.2153 23.3327C10.2301 23.3534 10.2429 23.3754 10.2536 23.3984C10.2695 23.4203 10.2824 23.4442 10.2918 23.4696H14.3123L14.0337 23.0537ZM22.5829 16.9633C22.49 17.2807 22.3971 17.5981 22.2933 17.91C22.1895 18.2219 22.0803 18.5228 21.9601 18.8293L22.7904 20.2465L23.2875 21.1111L24.0359 22.4353C24.2544 22.0085 24.4511 21.5762 24.6368 21.1439C24.757 20.8594 24.8663 20.5967 24.9755 20.2794C25.2264 19.5916 25.438 18.89 25.6092 18.1781C24.6362 17.689 23.6238 17.2826 22.5829 16.9633V16.9633ZM22.2933 21.133L21.7962 20.2465L21.5395 19.8088C21.4739 19.9565 21.4084 20.0988 21.3374 20.2465C21.2008 20.5365 21.0533 20.8266 20.9058 21.1111C20.802 21.2972 20.6982 21.4832 20.589 21.6583C20.4797 21.8334 20.3705 22.0304 20.2612 22.2055L20.955 23.4148L21.4521 24.2739L22.124 25.434C22.408 25.0619 22.6703 24.6734 22.9434 24.2739C23.1237 23.9949 23.3039 23.7267 23.4897 23.4148C23.5045 23.3923 23.5173 23.3685 23.5279 23.3437L23.5716 23.278L22.2933 21.133ZM14.3779 12.0385C14.072 12.0768 13.7661 12.1206 13.4656 12.1753C12.7448 12.303 12.0317 12.4711 11.3297 12.6787C11.3958 13.7625 11.553 14.8389 11.7995 15.8963C12.1218 15.8142 12.4441 15.743 12.7609 15.6774C13.0778 15.6117 13.4055 15.5515 13.7224 15.5023L14.5527 14.0631L15.0498 13.1985L15.7982 11.9071C15.2956 11.94 14.8477 11.9838 14.3779 12.0385V12.0385ZM17.9723 11.9126C17.6391 11.9126 17.3004 11.8853 16.9617 11.8853H16.8088L15.5469 14.0741L15.0498 14.9386L14.7985 15.3764L15.2956 15.3217C15.6179 15.2943 15.9348 15.2779 16.2571 15.267H17.5462L18.24 14.0631L18.7371 13.1985L19.3926 12.0385C18.9228 11.9783 18.4476 11.94 17.9723 11.9126Z" fill="white"/>
<path d="M27.3684 13.9099C27.3684 13.7731 27.3684 13.6308 27.3684 13.494L27.0133 13.2752C26.7238 13.1 26.4343 12.9359 26.1393 12.7772C25.2413 12.2942 24.306 11.8843 23.3424 11.5515C23.0656 11.453 22.7815 11.3599 22.4902 11.2724C22.0149 11.1356 21.5342 11.0097 21.048 10.9058L20.7749 11.3873L20.316 12.1807L19.2235 14.0686L18.7264 14.9332L18.497 15.3272L18.9777 15.3709C19.3382 15.4038 19.6933 15.453 20.0702 15.5077L20.6165 16.4763L21.414 17.8607C21.5397 17.4886 21.6599 17.111 21.7637 16.7335C21.8401 16.4599 21.9166 16.1863 21.9767 15.9017C22.2553 15.9729 22.523 16.0495 22.807 16.1316C23.5039 16.3445 24.1894 16.5929 24.861 16.8758C25.1778 17.0071 25.4947 17.1494 25.8061 17.3026L26.5927 17.7075L27.0406 17.9537L27.1062 17.5816C27.1553 17.2752 27.2045 16.9688 27.2373 16.6569C27.2373 16.531 27.2701 16.4052 27.281 16.2793C27.3138 15.9564 27.3411 15.6336 27.3575 15.3107V14.9222C27.3738 14.583 27.3738 14.2273 27.3684 13.9099ZM11.8106 18.8293L12.3569 17.8607L13.1544 16.4818C12.7666 16.5584 12.3842 16.6405 12.0073 16.739C11.7287 16.8101 11.461 16.8867 11.1824 16.9688C11.1005 16.6952 11.0295 16.4216 10.9639 16.1316C10.7959 15.4226 10.6682 14.7046 10.5815 13.981C10.5378 13.6418 10.505 13.297 10.4777 12.9578C10.4504 12.6185 10.4395 12.3559 10.434 12.0549C10.434 11.8907 10.434 11.7266 10.434 11.5569L10.079 11.6883C9.78397 11.7977 9.49991 11.9126 9.21038 12.033L8.86077 12.1862C8.56579 12.323 8.27626 12.4598 7.9922 12.6076L7.64259 12.7936C7.3476 12.9523 7.05808 13.1165 6.77402 13.2916L6.41895 13.5104V13.9099V14.9277C6.44952 15.9439 6.5628 16.956 6.75763 17.9537C6.81226 18.2547 6.87781 18.5502 6.94883 18.8512C7.06354 19.3272 7.19465 19.7978 7.3476 20.2684H12.4388C12.3733 20.1207 12.3023 19.9784 12.2367 19.8306C12.0783 19.5023 11.9417 19.1521 11.8106 18.8293V18.8293ZM22.004 26.9935L21.5452 26.1946L20.4526 24.3122L19.9555 23.4531L19.7261 23.0537C19.6387 23.1905 19.5458 23.3218 19.4475 23.4531C19.2399 23.7432 19.0214 24.0332 18.7974 24.3122H16.0661C16.3228 24.6077 16.6123 24.8594 16.8527 25.1659C17.0931 25.4723 17.2624 25.5763 17.4754 25.7733L17.1805 26.0688L16.8527 26.3861C16.0752 27.1194 15.2404 27.7891 14.3562 28.3889C14.105 28.5585 13.8537 28.7282 13.5969 28.8869L13.1763 29.1386L13.4658 29.3794C13.7062 29.5818 13.952 29.7733 14.1978 29.9594C14.3016 30.036 14.3999 30.1126 14.5092 30.1837C14.7659 30.3753 15.0555 30.5558 15.3013 30.7309L15.6236 30.9389C15.9076 31.114 16.1972 31.2836 16.4922 31.4478L16.8418 31.6338L17.1914 31.4478C17.4864 31.2836 17.7814 31.1085 18.0709 30.9334C18.9308 30.3959 19.7488 29.7941 20.5182 29.1331C20.7531 28.9306 20.977 28.7282 21.201 28.5148C21.5561 28.1755 21.9002 27.8253 22.2335 27.4587L22.004 26.9935Z" fill="white"/>
<path d="M25.6038 18.1673C25.4318 18.8718 25.2202 19.566 24.9702 20.2467C24.8609 20.5367 24.7516 20.8267 24.6315 21.1113C24.4457 21.5436 24.2491 21.9759 24.0306 22.4027L23.2876 21.1113L22.7905 20.2467L21.9602 18.8294C22.0804 18.523 22.1896 18.2166 22.2934 17.9101C22.3972 17.6037 22.4901 17.2808 22.583 16.9635C22.3044 16.8814 22.0367 16.8048 21.7526 16.7336C21.6488 17.1112 21.5287 17.4888 21.403 17.8609C21.2774 18.233 21.1463 18.5558 21.0042 18.9006C20.8185 19.3602 20.6055 19.8199 20.3815 20.2686C20.234 20.5586 20.081 20.8486 19.9172 21.1332L19.8461 21.2645C19.8175 21.3044 19.7919 21.3465 19.7697 21.3903C19.6058 21.6749 19.431 21.9375 19.2507 22.2221C18.9776 22.6434 18.7044 23.0538 18.3767 23.4533H15.394C15.6235 23.7433 15.8584 24.0333 16.0987 24.3124H18.8301C19.0541 24.0333 19.2726 23.7652 19.4801 23.4533C19.5785 23.322 19.6713 23.1906 19.7587 23.0538L19.9882 23.4533L20.4853 24.3124L21.5778 26.1948L22.0367 26.9937L22.3098 27.4643C21.9766 27.8309 21.6324 28.1811 21.2774 28.5204C21.0534 28.7338 20.8294 28.9363 20.5945 29.1387C19.8252 29.7998 19.0071 30.4016 18.1472 30.939C17.8577 31.1141 17.5627 31.2893 17.2678 31.4534L16.9181 31.6395L16.5685 31.4534L16.503 31.4151H16.5357H16.5631L16.6232 31.3823L16.8854 31.2291C17.1694 31.0649 17.4316 30.8898 17.7321 30.7092L18.0489 30.4958C18.3111 30.3152 18.5952 30.1292 18.8301 29.9486L19.1305 29.7188C19.349 29.5491 19.5675 29.3686 19.7806 29.1716C19.5584 29.0402 19.3345 28.9034 19.1087 28.7612C18.8829 28.9472 18.6535 29.1296 18.4204 29.3084L18.0926 29.5546C17.8359 29.7407 17.5463 29.9212 17.306 30.1018L16.9509 30.3262C16.6723 30.4958 16.4046 30.6654 16.1042 30.8241L15.7546 31.0157L15.7 30.9828L15.3777 30.7749L15.2957 30.6928H15.3285H15.3667L15.6836 30.5068C15.9567 30.3481 16.2298 30.1784 16.4975 30.0033L16.8471 29.768C17.1039 29.5929 17.3606 29.4069 17.6064 29.2208L17.9342 28.9691C18.1527 28.7995 18.3658 28.6244 18.5679 28.4219C18.3603 28.2796 18.1527 28.1319 17.9451 27.9787L17.2787 28.5259L16.9236 28.7885C16.6778 28.9691 16.421 29.1497 16.1643 29.3357C16.0386 29.4178 15.913 29.4999 15.7819 29.5765C15.5142 29.7461 15.2356 29.9103 14.968 30.069L14.5856 30.2769C14.5686 30.2672 14.5538 30.2542 14.5419 30.2386C14.4326 30.1675 14.3343 30.0909 14.2305 30.0143L14.1759 29.9705L14.5746 29.7352C14.8423 29.5765 15.1209 29.4069 15.3613 29.2372L15.7382 28.9855L16.4702 28.4383L16.8253 28.1593C17.0329 27.9896 17.2459 27.8145 17.448 27.612C17.2514 27.4534 17.0547 27.2947 16.8635 27.1305C16.6559 27.3111 16.4374 27.4917 16.2189 27.6777L15.8475 27.9623C15.6016 28.1428 15.3558 28.3234 15.1045 28.5095C14.9789 28.6025 14.8423 28.69 14.7112 28.7721C14.4545 28.9363 14.1649 29.1004 13.9246 29.2537L13.5203 29.4835L13.4766 29.4452L13.1871 29.2044L13.6077 28.9527C13.8645 28.794 14.1158 28.6244 14.3671 28.4547C15.2512 27.8549 16.086 27.1852 16.8635 26.452L17.1913 26.1346L17.4863 25.8391C17.275 25.6421 17.0675 25.4396 16.8635 25.2317C16.6596 25.4396 16.452 25.6421 16.2408 25.8391C15.4486 26.5766 14.5992 27.25 13.7006 27.8528C13.4493 28.017 13.198 28.1757 12.9413 28.3289L12.5043 28.5861C12.2421 28.7338 11.958 28.8816 11.6958 29.0184C11.9198 29.2372 12.1437 29.4452 12.3732 29.6531L12.6354 29.8775C12.8703 30.0854 13.1161 30.2879 13.3619 30.4794L13.6569 30.6436C13.9191 30.8405 14.2032 31.0321 14.449 31.2181L14.7331 31.4042C15.0171 31.5939 15.3066 31.7763 15.6016 31.9514L15.9075 32.1319C16.2244 32.3125 16.5467 32.4767 16.869 32.6408C17.1913 32.4767 17.5136 32.3125 17.8249 32.1319L18.1309 31.9514C18.4258 31.7763 18.7208 31.5957 19.0104 31.4042C19.8334 30.8608 20.6166 30.2592 21.3538 29.6039C21.5833 29.3959 21.8073 29.188 22.0312 28.9691L22.0858 28.9144C22.3007 28.7065 22.5083 28.493 22.7086 28.2742C22.9162 28.0498 23.1183 27.8255 23.3095 27.5956L22.8506 26.7912L22.5666 26.2988C23.0648 25.6706 23.5245 25.0128 23.9432 24.3288L24.0251 24.192L24.2382 23.8309L24.4457 23.4697C24.4679 23.4206 24.4935 23.3731 24.5222 23.3274C24.9009 22.6172 25.2401 21.8864 25.5383 21.1386C25.653 20.8541 25.7568 20.5914 25.8606 20.274C25.8606 20.1974 25.9097 20.1154 25.9371 20.0388C26.1009 19.5572 26.243 19.0702 26.3631 18.5832C26.1282 18.4354 25.866 18.2986 25.6038 18.1673V18.1673ZM22.1241 25.4725L21.4522 24.3124L20.9551 23.4533L20.2613 22.244C20.3706 22.0634 20.4853 21.8774 20.5891 21.6968C20.6929 21.5162 20.8021 21.3247 20.9059 21.1496C21.0534 20.865 21.2009 20.6024 21.3375 20.285C21.4085 20.1372 21.474 19.995 21.5396 19.8472L21.7963 20.285L22.2934 21.1496L23.5553 23.3384L23.5116 23.4041C23.501 23.4289 23.4882 23.4527 23.4734 23.4752C23.304 23.7652 23.1238 24.0552 22.9271 24.3343C22.6813 24.7119 22.3972 25.1004 22.1241 25.4725Z" fill="#00B194"/>
<path d="M28.2259 14.085C28.2259 13.7238 28.2259 13.3682 28.1876 12.9906C27.8926 12.7936 27.5867 12.6021 27.2808 12.4434L26.9585 12.2573C26.6635 12.0932 26.3631 11.929 26.0626 11.7758C25.6639 11.5788 25.2596 11.3873 24.8499 11.2286C24.3473 11.0152 23.8339 10.8237 23.3204 10.6486C23.0308 10.5555 22.7413 10.4625 22.4463 10.3804C22.1513 10.2984 21.8072 10.2108 21.4904 10.1342L21.0096 10.0302L20.5999 9.95361L20.1411 10.7471L19.857 11.245C19.0698 11.1261 18.2764 11.053 17.4807 11.0261H16.3063C15.5053 11.0487 14.7064 11.1182 13.9136 11.2341C13.6131 11.2778 13.3072 11.3271 13.0068 11.3873L12.761 11.4365C12.2693 11.535 11.7777 11.6554 11.2915 11.7922C11.2915 12.0932 11.2915 12.3887 11.3297 12.6842C12.0318 12.4765 12.7449 12.3085 13.4657 12.1807C13.7661 12.126 14.072 12.0822 14.3779 12.0439C14.8477 11.9837 15.3175 11.94 15.7982 11.9126L15.0498 13.204L14.5527 14.0686L13.7224 15.5077C13.4056 15.557 13.0833 15.6172 12.761 15.6828C12.4387 15.7485 12.1218 15.8196 11.7995 15.9017C11.8651 16.1808 11.9416 16.4489 12.018 16.7389C12.395 16.6404 12.7774 16.5584 13.1652 16.4817C13.5531 16.4051 13.8917 16.3504 14.2577 16.3012C14.7494 16.2355 15.2465 16.1863 15.7545 16.1589C16.0768 16.1589 16.3991 16.1315 16.7269 16.1261H17.0273C17.3551 16.1261 17.6829 16.1261 18.0052 16.1589C18.5077 16.1589 19.0048 16.2355 19.5019 16.3012L20.9987 18.9004C21.1407 18.5557 21.2718 18.2109 21.3975 17.8607L20.5999 16.4763L20.0537 15.5077C19.6986 15.453 19.3435 15.4038 18.9611 15.3709L18.4913 15.3217L18.7208 14.9277L19.2179 14.0631L20.3104 12.1753L20.7584 11.3873L21.0315 10.9057C21.5177 11.0097 21.9984 11.1356 22.4736 11.2724C22.765 11.3599 23.049 11.453 23.3258 11.5514C24.2894 11.8843 25.2247 12.2942 26.1227 12.7772C26.4177 12.9359 26.7072 13.1 26.9968 13.2751L27.3518 13.494V13.9099V13.9865L27.3136 13.9537L27.2535 13.9154L26.9913 13.7621C26.7072 13.6035 26.4122 13.4448 26.1173 13.2916L25.7513 13.1329C25.4672 12.9961 25.1722 12.8593 24.8772 12.7334L24.5331 12.5857C24.2709 12.4817 23.9868 12.3777 23.7465 12.2847V13.0727C24.0196 13.1766 24.2927 13.2806 24.5604 13.3955L24.9373 13.5597C25.2268 13.691 25.5109 13.8278 25.795 13.9756L26.1664 14.1671C26.4559 14.3203 26.7455 14.4845 27.0241 14.6541L27.3791 14.873V14.9332V15.3217V15.3983L27.3136 15.3545H27.2754L26.9585 15.1685C26.6854 15.0152 26.4122 14.862 26.1173 14.7198C25.9971 14.6541 25.866 14.5939 25.7349 14.5282C25.4563 14.3969 25.1886 14.2656 24.8882 14.1452L24.5058 13.9865L23.6918 13.6801C23.6918 13.9318 23.6481 14.189 23.6153 14.4462C23.883 14.5447 24.1616 14.6486 24.4129 14.7581L24.8171 14.9332C25.1012 15.059 25.3634 15.1904 25.6584 15.3272C25.795 15.3928 25.9261 15.464 26.0572 15.5351C26.3358 15.6828 26.6034 15.8361 26.8875 16.0002C27.0186 16.0768 27.1497 16.1534 27.2754 16.2355C27.2781 16.2555 27.2781 16.2757 27.2754 16.2957C27.2754 16.4216 27.248 16.5474 27.2317 16.6733C27.2344 16.6969 27.2344 16.7208 27.2317 16.7444L26.7673 16.4708C26.4942 16.3231 26.2211 16.1753 25.9425 16.0385L25.5437 15.8689C25.2705 15.743 24.9974 15.6172 24.7188 15.5023L24.3036 15.3217C24.0469 15.2232 23.7956 15.1302 23.5389 15.0426C23.5006 15.2943 23.4624 15.5406 23.4187 15.7868C23.6754 15.8798 23.965 15.9783 24.1944 16.0823L24.6314 16.2629C24.9045 16.3833 25.1777 16.5091 25.4508 16.6404L25.8769 16.8538C26.15 16.9961 26.4232 17.1439 26.6908 17.2971L27.1005 17.5433V17.598L27.035 17.9701L26.5871 17.7239L25.8004 17.319C25.4891 17.1658 25.1722 17.0235 24.8554 16.8922C24.1838 16.6093 23.4982 16.3609 22.8014 16.148C22.5283 16.0659 22.2551 15.9893 21.9711 15.9181C21.911 16.1972 21.8345 16.4653 21.758 16.7499C22.0366 16.821 22.3043 16.8976 22.5884 16.9797C23.6271 17.2958 24.6376 17.6985 25.6092 18.1836C25.8714 18.3149 26.1555 18.4517 26.3904 18.594L26.8438 18.8511C27.1005 19.0044 27.3573 19.163 27.6086 19.3327C27.6796 19.0372 27.7506 18.7417 27.8107 18.4407C27.838 18.3258 27.8599 18.2164 27.8817 18.1015C27.9363 17.7896 27.991 17.4831 28.0347 17.1712C28.0347 17.0563 28.0347 16.9414 28.0784 16.8265C28.1166 16.4982 28.1494 16.1753 28.1767 15.847C28.1767 15.7321 28.1767 15.6117 28.1767 15.4968C28.1767 15.1575 28.2095 14.8183 28.2095 14.4735L28.2259 14.085ZM18.7208 13.204L18.2237 14.0686L17.5299 15.2724H16.2407C15.9184 15.2724 15.6016 15.2998 15.2793 15.3272L14.7986 15.3709L15.0498 14.9332L15.5469 14.0686L16.8088 11.8798H16.9618C17.3005 11.8798 17.6392 11.8798 17.9724 11.9071C18.4476 11.9345 18.9229 11.9728 19.3927 12.033L18.7208 13.204Z" fill="#00B5CC"/>
<path d="M16.0987 24.3122C15.8583 24.0331 15.6234 23.765 15.394 23.4531C15.0881 23.0536 14.7931 22.6432 14.5145 22.2219C14.3397 21.9483 14.1649 21.6747 14.001 21.3901L13.9245 21.2588C13.8977 21.2188 13.8739 21.1767 13.8535 21.133C13.6896 20.8484 13.5367 20.5858 13.3892 20.2684C13.1598 19.8197 12.9522 19.36 12.761 18.9004L14.2632 16.3012C13.8991 16.3486 13.5349 16.4088 13.1707 16.4817L12.3731 17.8607L11.8269 18.8292C11.958 19.1685 12.0945 19.5023 12.242 19.8306C12.3076 19.9784 12.3786 20.1206 12.4442 20.2684H7.33653C7.18358 19.7978 7.05247 19.3272 6.93776 18.8511C6.86674 18.5502 6.80119 18.2547 6.74656 17.9537C6.55173 16.9559 6.43845 15.9439 6.40788 14.9277C6.40788 14.5884 6.40788 14.2491 6.40788 13.9099C6.40788 13.7785 6.40788 13.6417 6.40788 13.5104L6.76295 13.2915L6.8285 13.2532V13.3244V13.3955V13.68C6.8285 14.0084 6.8285 14.3422 6.86128 14.676V15.059C6.86128 15.3764 6.91591 15.6992 6.95414 16.0166L7.00331 16.3887C7.04155 16.6678 7.09071 16.9359 7.13441 17.2205C7.36385 17.0891 7.59874 16.9633 7.82818 16.8429C7.77901 16.5583 7.73531 16.2628 7.70253 15.9728C7.70253 15.8415 7.66976 15.6992 7.65337 15.5624C7.62059 15.2505 7.59874 14.9277 7.58236 14.6158C7.58236 14.4735 7.58236 14.3312 7.58236 14.1944C7.58236 13.8661 7.58236 13.5323 7.58236 13.2095C7.58236 13.0727 7.58236 12.9413 7.58236 12.8045L7.63152 12.7772L7.98113 12.5911L8.04668 12.5583C8.04401 12.5728 8.04401 12.5876 8.04668 12.6021V13.0344C8.04668 13.3572 8.04668 13.6801 8.07946 13.9974V14.4188C8.10677 14.7307 8.13409 15.0426 8.17233 15.3435C8.17233 15.4803 8.2051 15.6172 8.22695 15.7594C8.26519 16.033 8.30889 16.3066 8.35806 16.5693L9.05728 16.2519C9.00812 15.9728 8.96442 15.7047 8.93164 15.4092C8.93164 15.2615 8.8934 15.1137 8.87701 14.966C8.84424 14.6595 8.82239 14.3476 8.80054 14.0412C8.80054 13.8935 8.80054 13.7402 8.80054 13.5925C8.80054 13.2751 8.80054 12.9523 8.80054 12.6349C8.80054 12.4926 8.80054 12.3449 8.80054 12.1971L8.8497 12.1698L9.19931 12.0166H9.26486V12.0384V12.5036C9.26486 12.81 9.26487 13.1219 9.29764 13.4338L9.33042 13.8825C9.35773 14.1835 9.39051 14.4899 9.42875 14.7854C9.42875 14.9331 9.46698 15.0809 9.48884 15.2286C9.53254 15.5022 9.5817 15.7758 9.63087 16.033L10.3793 15.7704C10.3301 15.5022 10.2864 15.2232 10.2482 14.9496L10.1826 14.479C10.1498 14.178 10.1225 13.877 10.1007 13.5816C10.1007 13.4229 10.1007 13.2587 10.0733 13.1055C10.0733 12.7991 10.0733 12.4871 10.0733 12.1807V11.7101H10.128L10.483 11.5788V12.0767C10.483 12.3777 10.483 12.6787 10.5267 12.9796C10.5704 13.2806 10.5868 13.6636 10.6305 14.0029C10.7172 14.7264 10.8449 15.4444 11.0129 16.1534C11.0785 16.438 11.1495 16.7006 11.2314 16.9906C11.5046 16.9086 11.7777 16.8319 12.0563 16.7608C11.9798 16.4817 11.9033 16.2136 11.8378 15.9236C11.5913 14.8662 11.4341 13.7899 11.368 12.706C11.368 12.4105 11.3352 12.115 11.3298 11.8141V11.3052C11.3298 10.9988 11.3298 10.6978 11.3625 10.3914L10.4885 10.6595L10.1607 10.7744C9.86576 10.8784 9.57078 10.9878 9.27579 11.1082L8.95895 11.2395C8.65851 11.3654 8.35806 11.5022 8.06853 11.6445L7.74624 11.7977C7.44032 11.9454 7.13988 12.1096 6.84489 12.2737C6.7411 12.3394 6.63185 12.3996 6.52259 12.4598C6.21668 12.6458 5.91623 12.8319 5.62125 13.007C5.62125 13.3681 5.58301 13.7293 5.58301 14.1014V14.4626C5.58301 14.8073 5.58301 15.152 5.61578 15.4913C5.61578 15.9345 5.68134 16.3778 5.73596 16.8155C5.80152 17.3627 5.89438 17.9099 6.00364 18.4571C6.06373 18.7581 6.13474 19.0591 6.21122 19.36C6.2877 19.661 6.38056 19.9893 6.47343 20.3012L6.62092 20.7718L6.75749 21.1658H8.19418C8.49004 21.9146 8.8293 22.6454 9.21024 23.3546C9.23896 23.4002 9.26451 23.4478 9.28672 23.4969L9.4943 23.858C9.55985 23.9784 9.63633 24.0988 9.70734 24.2192L9.78928 24.356C10.2167 25.0188 10.6818 25.6564 11.1823 26.2657C11.368 26.5065 11.5647 26.7418 11.7668 26.9716C12.1219 27.3875 12.4988 27.787 12.8866 28.17L12.9631 28.2411C13.2199 28.0879 13.4711 27.9292 13.7224 27.7651C13.1957 27.2612 12.6961 26.7296 12.2256 26.1727C12.029 25.9374 11.8378 25.6966 11.6466 25.4504C11.3625 25.0783 11.1003 24.6898 10.8272 24.2903H14.9734C15.3782 24.7988 15.8085 25.2865 16.2626 25.7514C16.4774 25.5544 16.685 25.3519 16.8853 25.144C16.6177 24.8868 16.3554 24.6241 16.0987 24.3122V24.3122ZM13.8098 23.4531H10.2919C10.2824 23.4277 10.2696 23.4038 10.2536 23.382C10.2429 23.3589 10.2301 23.337 10.2154 23.3163C10.0515 23.0208 9.88761 22.7253 9.73466 22.4244C9.52161 21.9975 9.32495 21.5653 9.13922 21.133H12.8648C12.9686 21.319 13.0724 21.5051 13.1816 21.6802C13.2909 21.8553 13.3947 22.0523 13.5094 22.2274C13.6787 22.501 13.8535 22.7746 14.0556 23.0372L14.3342 23.4367L13.8098 23.4531Z" fill="#009DDC"/>
</svg>
