<svg height="394" viewBox="0 0 537 394" width="537" xmlns="http://www.w3.org/2000/svg"><g fill="none"><path d="m0 0h537v393.345h-537z" fill="#282a29"/><g fill="#fff" transform="translate(72 156)"><path d="m128.604 27.865-11.195 21.231-11.08-21.231h-8.517v38.691h8.105v-24.12l9.295 17.694h4.452l9.29-17.694v24.12h8.111v-38.691z"/><path d="m161.505777 27.8649351h-6.497809l-15.339004 38.6909091h8.595897l3.491593-9.4805195h12.927769l3.486375 9.4805195h8.595896zm1.602271 23.3402597h-9.848486l4.994701-13.9948052z"/><path d="m172.549 27.865v7.158h12.203v31.533h8.11v-31.533h12.161v-7.158z"/><path d="m216.411 59.392v-9.221h16.08v-6.675h-16.08v-8.473h18.601v-7.158h-26.712v38.691h27.203v-7.164z"/><path d="m283.111355 49.974026c-1.173915-1.5106445-2.756294-2.6567587-4.561514-3.3038961 1.458144-.7795551 2.664993-1.9537662 3.481155-3.387013.944509-1.6302252 1.441309-3.4791683 1.440478-5.361039-.005888-1.2386409-.219321-2.4676281-.631514-3.6363636-.413305-1.164932-1.02408-2.2507701-1.805817-3.2103896-.791112-.9484398-1.760932-1.7337394-2.85486-2.3116883-1.160564-.6091249-2.456323-.9181578-3.768207-.8987013h-20.761674v38.6910764l18.788845-.0001673c1.638894.0071238 3.270785-.2131779 4.848566-.6545455 1.450853-.4027855 2.81975-1.0550366 4.04482-1.9272727 1.151303-.8296902 2.092938-1.9145505 2.750479-3.1688312.707291-1.354771 1.06594-2.8630031 1.043824-4.3896104.069474-2.3107876-.639683-4.578295-2.014581-6.4415584zm-8.909044 9.2883117c-.561036.236647-1.16521.35515-1.774502.3480519h-10.678327v-9.3506493h11.059323c.56089-.0048999 1.115091.1214386 1.617928.3688311.49737.2537072.936355.6075044 1.289124 1.0389611.381383.4539005.679908.9708082.882031 1.5272727.220331.5881786.331733 1.2112353.328805 1.838961-.000421.6141556-.119124 1.222537-.349681 1.7922078-.223382.546634-.547293 1.0469738-.9551 1.4753247-.402465.4132809-.885552.7403205-1.419601.961039zm.05741-16.6649351c-.784229.7817099-1.854802 1.2113206-2.964462 1.1896104h-9.545777v-8.9246753h9.874582c1.040177-.021874 2.037755.41099 2.729601 1.1844155.788886.8906675 1.190563 2.0564568 1.116893 3.2415585.083991 1.2237321-.355842 2.4257506-1.210837 3.3090909zm38.9451 9.4753247c2.011036-.9315392 3.694705-2.4426768 4.832908-4.3376624 1.262679-2.0780224 1.91872-4.4651052 1.894542-6.8935065-.007182-1.6137582-.324282-3.2112684-.934223-4.7064935-.622759-1.5246039-1.50561-2.9305845-2.609562-4.1558441-1.117854-1.2307834-2.460326-2.2391162-3.956096-2.9714286-1.566025-.7558242-3.285628-1.143287-5.026015-1.1324675l-17.223108-.0002205v38.6911296h8.105299v-12.7532468h6.78486l8.006136 12.7428572h9.206534zm-14.884941-17.0441559h8.63765c.61036.0039614 1.211817.1460753 1.758845.4155844.599937.2897861 1.133052.7001408 1.565737 1.2051948.475663.5456346.848697 1.1720861 1.101235 1.8493507.275571.750383.413459 1.5439403.407091 2.3428571.006821.7819235-.116632 1.5595638-.365338 2.3012987-.210912.6704339-.539585 1.2983345-.970757 1.8545455-.378842.5104561-.865111.9324073-1.424821 1.2363636-.534665.2897743-1.134409.4399053-1.743187.4363637l-8.966455.0000612zm60.515738 5.1064935c-.849349-2.308221-2.107969-4.4459989-3.716016-6.3116883-1.622514-1.8620117-3.593745-3.3917723-5.803666-4.5038961-2.339126-1.1560396-4.919718-1.7452261-7.531195-1.7194805-2.558646-.0218884-5.089566.5284495-7.405936 1.6103896-2.22566 1.0461639-4.222559 2.5183256-5.876733 4.3324675-1.665732 1.8344135-2.978417 3.9580269-3.87259 6.2649351-.923173 2.3615559-1.395755 4.8737703-1.393506 7.4077922.007928 2.4698318.451322 4.9191115 1.31 7.2363637.846287 2.3047611 2.113189 4.4340184 3.736893 6.2805194 1.630804 1.842406 3.612211 3.3449308 5.82976 4.4207793 2.342635 1.1247831 4.914738 1.6954761 7.515538 1.6675324 2.563811.0231628 5.100105-.5271803 7.421594-1.6103896 2.213523-1.0423052 4.201002-2.5052337 5.850637-4.3064935 3.388171-3.7221061 5.261874-8.5669614 5.255658-13.5896104-.007719-2.4521891-.45487-4.8833448-1.320438-7.1792208zm-17.097849 19.4753247c-1.51878.0221099-3.018898-.3350978-4.363187-1.038961-1.266042-.6779785-2.375425-1.6123131-3.256733-2.7428572-.904458-1.194394-1.594834-2.5353202-2.040678-3.9636363-.468371-1.5146169-.705873-3.0905866-.704581-4.6753247.00077-1.538768.231186-3.0688868.683705-4.5402598.429626-1.4266538 1.111872-2.7654355 2.014581-3.9532467.869538-1.150124 1.97192-2.1057897 3.235857-2.8051948 1.342512-.7135005 2.846847-1.0712843 4.368406-1.038961 1.488644-.025961 2.960636.3148922 4.284901.9922077 1.250614.6769373 2.34142 1.612112 3.199323 2.7428572.921071 1.1910181 1.62744 2.5321381 2.087649 3.9636364.972002 2.9843505.988416 6.1955703.046972 9.1896103-.431679 1.4327473-1.102096 2.7831389-1.983267 3.9948052-.851843 1.1582335-1.942672 2.1217678-3.199323 2.8259741-1.343088.7179773-2.849386 1.0793789-4.373625 1.0493506zm49.873944-8.825974c-.59604-1.2395826-1.462619-2.331069-2.536494-3.1948052-1.198285-.937746-2.539002-1.679508-3.971753-2.1974026-1.565737-.5766234-3.277609-1.1220779-5.11996-1.6155844-1.393506-.348052-2.666972-.6857143-3.783865-1.0389611-.914784-.2522231-1.800048-.6004993-2.640876-1.038961-.597777-.3022458-1.120218-.7335148-1.529203-1.2623377-.362479-.5145503-.545782-1.1330526-.521913-1.7610389-.056926-1.1304911.460777-2.2137744 1.377849-2.8831169.934223-.7012987 2.400797-1.038961 4.368406-1.038961 1.112578.0015087 2.220623.1411141 3.298486.4155844 1.037291.2642792 2.051375.6117351 3.032311 1.038961.827753.3443134 1.625512.7561034 2.38514 1.2311688.465874.2780561.901408.6036195 1.299561.9714286l.323586.3324675 3.653387-6.6805194-.250518-.1714286c-1.869141-1.2343245-3.878583-2.2439544-5.986335-3.0077922-2.417474-.8691698-4.971392-1.3019286-7.541634-1.2779221-1.873236-.0114665-3.737756.2546527-5.53227.7896104-1.633036.4957588-3.161263 1.2844805-4.509323 2.3272727-1.332946 1.0291383-2.405375 2.3545331-3.131474 3.8701299-.758489 1.6573779-1.136464 3.4621374-1.106454 5.2831169-.031221 1.3440168.206514 2.6807861.699362 3.9324675.462303 1.116347 1.176638 2.1117566 2.087649 2.9090909 1.047027.877564 2.222746 1.5905699 3.486375 2.1142857 1.562805.6630646 3.170841 1.2150957 4.812032 1.6519481 1.362191.3532467 2.734821.7272727 4.070916 1.1116883 1.052256.2993034 2.077133.6868376 3.063626 1.1584416.720246.3324379 1.360834.814183 1.878884 1.412987.428437.5496595.648364 1.2321184.621076 1.9272727 0 2.4-1.894542 3.5636364-5.788008 3.5636364-1.423697.0030255-2.842166-.1714937-4.222271-.5194806-1.288868-.3221018-2.547765-.753103-3.762988-1.2883117-1.011116-.4580483-1.992484-.9785433-2.938367-1.5584415-.601465-.3413915-1.164809-.745388-1.680557-1.2051948l-.334024-.3324675-3.653387 7.0493506.245299.1714286c2.327921 1.6261696 4.902138 2.8713292 7.62514 3.6883117 2.782374.8572949 5.678041 1.2950492 8.590677 1.2987013 1.836227.005136 3.666723-.2040852 5.453984-.6233767 1.6604-.3743027 3.235823-1.0543924 4.64502-2.0051948 1.343138-.9416382 2.44163-2.188155 3.204542-3.6363636.829743-1.6711774 1.238161-3.5183253 1.18996-5.3818182.044059-1.5550919-.253394-3.101019-.871594-4.5298701z"/><path d="m233.196 21.491-20.371 3.662v-1.059l20.371-5.839z"/><path d="m83.2293625 71.3818182c0-.2909091-.0313147-.5818182-.0521912-.8675325s-.0574103-.6961039-.0887251-1.038961c-.0626295-.6233766-.1356972-1.2467533-.2244223-1.8649351-.1148207-.7948052-.255737-1.5844156-.4175299-2.3688312-.9191193-4.4679203-2.5769761-8.7529976-4.9059761-12.6805194-.3601195-.6025974-.7306773-1.1948052-1.1168924-1.7818182l-.2452988-.3636364c-1.4961849-2.2031586-3.2001186-4.2592254-5.0886454-6.1402597-.7567729-.7532468-1.5657371-1.4701299-2.3694821-2.1662338 0-.0831169 0-.1662338.041753-.2493506.041753-.2805195.0782868-.5558442.1096016-.8363637.0991633-.7896104.1774502-1.5584415.2400797-2.3792208 0-.2857142.041753-.5714285.0574103-.8623376.0469721-.825974.0730678-1.6519481.083506-2.4831169 0-.3012987 0-.6025974 0-.9038961 0-.8727273-.0365339-1.7402597-.0939442-2.5974026-.7306773-.4831169-1.4665737-.9454545-2.2181275-1.387013-.2609562-.1558441-.5219124-.3064935-.7880877-.451948-.7306773-.4121213-1.4665737-.8034632-2.2076892-1.174026-.9811952-.4883117-1.9728287-.9454546-2.9749004-1.3714286-.2713944-.1142857-.5532271-.2181818-.8298406-.3272727-.1826694-.9246753-.3809961-1.8493507-.6262949-2.7532468-.6920231-2.5677947-1.6287559-5.0639669-2.7974502-7.4545454-.8114535-1.6623386-1.7356342-3.2677799-2.7661354-4.8051948-.3914343-.587013-.7933068-1.1636364-1.2160558-1.7298702l-.2296414-.3012987c-1.6495438-2.20131705-3.5169115-4.23227599-5.5740239-6.06233762-.6019389-.52987013-1.2195352-1.04935065-1.8527889-1.55844156-.5219123-.38961039-1.0072908-.77402597-1.523984-1.14285714l-.8715937-.58701299-.7306773-.48311688-.3288047-.20779221-.3131475.1974026-.7306772.48311688c-.2870518.1974026-.5793228.3948052-.8611554.5974026-.5219124.36883117-1.0438247.75324675-1.5239841 1.14285714-.6332536.49177489-1.2491102 1.01125541-1.8475697 1.55844156-2.0586034 1.80475222-3.9311096 3.80949181-5.5896813 5.98441558-1.110202 1.45751694-2.1198096 2.98830234-3.0218725 4.58181814-.3496813.6129871-.678486 1.2311689-.9968526 1.8597403l-.1931075.3948052c-1.1686943 2.3905785-2.1054271 4.8867508-2.7974502 7.4545455-.2296415.851948-.4227491 1.7142857-.5949801 2.5974026l-.4853785.1818181-.7828685.322078c-.7306773.3064935-1.4665737.638961-2.1868128.9818181l-.7828685.3844156c-.7515538.3601732-1.4891899.7463204-2.2129084 1.1584416l-.7880876.4571428c-.7515538.4398269-1.4909296.9004329-2.2181275 1.3818182-.0521913.8779221-.0887251 1.761039-.0939442 2.6389611v.8727272c0 .8415585.0313147 1.6831169.0782868 2.5194806.0626295 1.073593.1617928 2.1471861.29749 3.2207792.0574104.4675324.1304781.9298701.1983267 1.3922078-.6889243.6025974-1.3621912 1.2155844-2.0093625 1.8597402-1.8913393 1.8878868-3.59543547 3.952848-5.08864543 6.1662338-1.04047544 1.5279721-1.9751242 3.1247451-2.7974502 4.7792208-.31314741.6337662-.61063745 1.2727272-.89247011 1.9168831-.05219124.1142857-.10438247.2285714-.15135459.3480519-1.06545268 2.511279-1.87838502 5.1214226-2.42689243 7.7922078-.16179282.7792208-.30270916 1.5584416-.41231075 2.3584416v.0311688c-.0887251.6233766-.16701196 1.2467533-.22964144 1.8805195-.03653386.3480519-.06262948.6909091-.0887251 1.038961-.02609561.348052-.04175299.5766234-.05741036.8675325h-.02087649v.3688312c.10960159.0623376.22442231.1142857.3340239.1714285l.78286853.3896104c.31836653.1558442.63673307.3012987.9550996.4467533.56888446.2597402 1.14820717.5194805 1.72752988.7324675.01366103-.0037622.02809196-.0037622.04175299 0 1.55046729.6133592 3.13643894 1.1337708 4.74940239 1.5584416 3.45575251.9088131 7.01526051 1.3680485 10.58960161 1.3662337h.3862151c.7045817 0 1.4039442-.0311688 2.0876494-.0727272 3.8253314-.2190576 7.602519-.9583908 11.2263347-2.1974026l.6262948.4831168c.6262948.4779221 1.2873838.943723 1.9832669 1.3974026l.6941435.4623377c.6993625.4571429 1.4143824.8987013 2.1346215 1.3194805l.7463346.4311689c.7776494.4363636 1.5657371.8467532 2.3538247 1.2415584.7933068-.3948052 1.5657371-.8051948 2.3486056-1.2415584l.7515538-.4259741c.7306773-.425974 1.4456972-.8727272 2.155498-1.3350649 1.1621248-.7688312 2.2929349-1.582684 3.3924303-2.4415584 4.4825822 1.5769443 9.2016107 2.3849618 13.9559362 2.3896103.8768128 0 1.7536255-.025974 2.6095618-.0831168.7045817-.0415585 1.4039442-.1038961 2.0876494-.187013 1.994951-.2185738 3.9712651-.5814379 5.9132669-1.0857143 1.6200182-.423912 3.2129817-.9443303 4.7702789-1.5584416.5845419-.2285714 1.1586454-.4727272 1.732749-.7324675.3183666-.1454545.6367331-.2909091.9550996-.4467532l.7776494-.3844156c.1096016-.0571429.2244223-.1090909.3340239-.1714286.0365339-.1662338.0313148-.2857143.0260956-.4155844zm-13.6427888-25.6675325c1.8626719 1.8523921 3.5374051 3.8829842 4.9999203 6.0623377l-12.003984 6.8935065-2.6095618-1.4857143c.0591501-.1142857.1217796-.2285714.1878885-.3428572.9325749-1.7209175 1.7655149-3.4935081 2.494741-5.3090909.2766135-.6961039.5219123-1.3974026.7828685-2.1038961.0678486-.1922078.1356972-.3844156.1983267-.5766233.3966534-1.1688312.7411155-2.3532468 1.0438247-3.5428572.3705578.2025974.7411155.4155844 1.1064542.6285714.6315139.374026 1.2578088.7636364 1.8736653 1.1636364.1878885-.7168831.3549004-1.438961.5219124-2.1662338.0313147-.1402597.0574103-.2805194.083506-.425974.464502.374026.8976892.7792208 1.3204382 1.2051948zm-11.8108765 11.1168831-.0991633.1662338c-.0313148.051948-.0574104.1090909-.0939443.161039-.1565737.264935-.3131474.5194805-.4749402.7896103-.2713944.4415585-.5219123.8831169-.8298406 1.3142858-.6436919.9731601-1.3134795 1.9151515-2.0093626 2.825974l-1.4665737-2.5194805-.1774502-.3064935-1.2212749-2.0779221-1.7066534-2.9402598c.2766136-.4415584.5219124-.8883116.8089642-1.3402597.2870518-.451948.5219123-.9090909.7724302-1.3714286.3688181-.6926407.7167597-1.3939394 1.0438247-2.1038961.167012-.3532467.334024-.7116883.5219124-1.0701298l.6158566 1.0701298 1.226494 2.1038961 1.5135458 2.5974026.7672112 1.3246754zm-32.5255777.3116883-.0939442-.1610389-.0939442-.161039c-.0991634-.1766234-.1878885-.3532467-.2870518-.5194805-.3027092-.5194805-.6054183-1.0909091-.8924701-1.6467532-.5219124-1.0389611-1.01251-2.0779221-1.4665737-3.1532468h9.1491235c.2452988.4571429.5219123.9142857.761992 1.3662338.2400797.451948.5219123.9038961.8089641 1.3454545.4175299.6683983.8489775 1.3281385 1.2943427 1.9792208.2244223.3220779.4488446.6441558.6837051.961039h-9.8641434zm4.9633865 2.0779221h6.508247c1.0020717 1.2363637 2.0580744 2.4225108 3.168008 3.5584416-1.1743028 1.0909091-2.406016 2.1090909-3.6533865 3.0753247-.8350598.6337662-1.6857769 1.2467532-2.5573705 1.8285714-1.2878454-1.2245352-2.5074612-2.518241-3.6533865-3.8753247-.4801593-.5714286-.9603187-1.1584416-1.4143824-1.7558441-.7098008-.9142858-1.3778486-1.8597403-2.0198008-2.8311689zm5.3965737-5.0961039c-.4384064-.664935-.8611554-1.3402597-1.268247-2.025974l-.1826694-.3168831-.1826693-.3168831c-.3966534-.6926407-.77417-1.3939394-1.1325498-2.1038961-.5567065-1.0943723-1.0681806-2.2060606-1.5344223-3.335065l3.6533865-6.3324675c1.2108366-.161039 2.4321115-.2805195 3.6533864-.348052.7933068-.0467532 1.5657371-.0727272 2.3903586-.077922h.7411155c.7985259 0 1.5970518.0311688 2.3955777.0727272 1.2317132.0727273 2.4495086.1887446 3.6533865.348052l3.6533864 6.3376623c-.4697211 1.1220779-.9811952 2.2389611-1.565737 3.335065-.3479416.6926407-.7237185 1.3939394-1.1273307 2.1038961l-.1826693.3168831-.1878885.3168831c-.4036122.6926407-.8246215 1.3679654-1.2630279 2.025974-.678486 1.0389611-1.3987251 2.0259741-2.1502788 2.9922078h-7.306773c-.6924037-.9385281-1.3778486-1.9220779-2.0563346-2.9506493zm-7.8286853-23.2467532c1.7151738-.5059744 3.4576474-.915282 5.2191235-1.225974.7411156-.135065 1.4874502-.2493507 2.239004-.3428572 1.1534263-.1454545 2.3068526-.2545454 3.4811554-.3168831l-1.8005976 3.2155844-.0939442.1662338-1.1273307 1.9116883-2.0302391 3.5064935c-.7933067.1194805-1.565737.2597403-2.3590438.4207792-.7933068.161039-1.565737.3428572-2.3590438.5194805-.3496813-1.4701298-.6158566-2.9506493-.8194024-4.4415584-.1513546-1.1012987-.2713944-2.2337662-.3444622-3.3714286zm13.6323506-1.9584416h.1878885 1.0751394c.4697211 0 .9394422.0311689 1.4091634.0571429 1.1621248.0623376 2.3207702.1662337 3.4759362.3116883l-1.6335856 2.9194805-.0626295.1142857-1.1638646 1.9636364-1.7066534 2.9402597h-.5219123-2.0876494c-.1774502 0-.3496813 0-.5219124 0-.7880876 0-1.565737.0675325-2.3642629.1246754l-1.1743028.1038961.6158566-1.0389611 1.2212749-2.0779221 1.2421514-2.1402597 1.1586454-2.0675325.6680478-1.1688311zm15.7043426 22.5454546-1.2212749-2.1038961-2.0354581-3.5064935c.2922709-.7411256.5636653-1.4891775.8141832-2.2441559.2557371-.7636364.4905977-1.5584415.7098008-2.3012987 1.6032117.4855905 3.179802 1.0543332 4.7233068 1.7038961.9081275.3844156 1.8110359.7844156 2.6930677 1.2207792-.4265344 1.736518-.9492452 3.4482235-1.565737 5.1272728-.2609562.6926407-.5375697 1.3939394-.8298406 2.1038961-.4488447 1.038961-.9342231 2.1142857-1.4665737 3.1532467l-1.6335857-2.8207792zm3.4237451-22.0311689c1.2108366.5194806 2.3990571 1.0909091 3.5646613 1.7142857.7202391.3844156 1.4335193.7878788 2.1398407 1.2103897l.8663745.5194805c0 .3376623.0260956.6753247.0260956 1.012987v.1818182l-.125259-.0727273-.0574103-.0363636-.1461355-.0831169-.6471713-.374026c-.6993626-.3948052-1.4196016-.7844156-2.1398407-1.1480519-.2870517-.1454546-.5741035-.2857143-.8507171-.4155845-.6993625-.3376623-1.4196016-.664935-2.1398406-.9714285l-.3288048-.135065-.5219124-.2181818c-.5567065-.221645-1.1203718-.434632-1.690996-.638961l-.2296414-.0883117c0 .638961 0 1.2831169-.0521912 1.9168831l.4905976.1922078c.5219123.1974026 1.0125099.3896104 1.5083267.5974026l.6628287.2909091.2609561.1142857c.7098008.3168831 1.4143825.6545455 2.0876494 1.0025974l.9081275.4727273c.7045817.374026 1.4196016.774026 2.0876494 1.1844156.2922709.1766233.5845419.3532467.8715936.5194805v.1818182c0 .3220779 0 .638961-.0417529.9558441v.1766234l-.1148208-.0675325-.0574103-.0311688-.0887251-.0571429c-.2505179-.1454545-.5219124-.2961039-.7776494-.4415584-.6837052-.3844156-1.3726295-.7584416-2.0876494-1.1064935-.2974901-.1506494-.6106375-.3064935-.929004-.4571429-.6889243-.3272727-1.3882869-.638961-2.0876494-.9350649-.2922709-.1246753-.6001992-.2493506-.9185657-.374026-.4018726-.1610389-.8089642-.3064935-1.2160558-.4571428-.2244223-.0831169-.4488446-.1766234-.6680478-.2545455-.0469721.6181818-.1096016 1.2467533-.1826694 1.8649351.292271.1090909.5845419.2285714.8768128.3428571s.7254582.2753247 1.0751394.4207792c.3496813.1454546.6628287.2753247.9968526.4259741.6837052.3012987 1.3726295.6233766 2.0406773.9558441.3288048.1662338.6628287.3324676.9811952.5194805.6889243.3584416 1.3726295.7428572 2.0406773 1.1324676.3183666.187013.6367331.3792208.9498805.5766234v.1402597c0 .2857143-.0574104.561039-.0939442.8415584v.0883117.1662338h-.0469721l-.0521913-.0311688-.9864143-.561039c-.6628287-.3636364-1.3413147-.7220779-2.0198008-1.038961-.3288048-.161039-.6628287-.3272728-.9968526-.4831169-.6732669-.3116883-1.3569721-.612987-2.0354582-.8935065-.3288047-.1402598-.6732669-.2753247-1.0438247-.4103896-.6210757-.2389611-1.2473705-.4727273-1.8736653-.6857143-.0887251.6077922-.1878884 1.2207792-.29749 1.8181818.6315139.2285714 1.2786852.4675325 1.9101992.7220779.3549004.1402598.7150199.2909091 1.0438247.4415585l.2348605.1038961c.6001992.2597402 1.2003984.5194805 1.7797211.8103896.3496813.1662337.6993626.3428571 1.0438247.5194805.6367331.3272727 1.2839044.6805195 1.9154184 1.038961l.0730677.0415585c.339243.1974026.6837052.3948052 1.01251.5974026.0025282.0467194.0025282.0935403 0 .1402597v.0467533l-.1565738.8623376c-.3601195-.2077922-.7254581-.4051948-1.0907968-.6025974-.636733-.3428571-1.2891235-.6753246-1.9415139-.987013-.761992-.3688311-1.5344223-.7220779-2.3120717-1.038961l-.4697211-.187013c-1.4996282-.612987-3.0236123-1.1532467-4.5719522-1.6207792-.673267-.2025974-1.3465339-.3896104-2.0250199-.561039-.1565738.6805195-.334024 1.3558442-.5219124 2.0311689-.2557371.9194805-.5219123 1.8337662-.8663745 2.7376623l-1.9519522-3.3662338-1.3726295-2.3636363c-.8715936-.135065-1.7536255-.2493507-2.6095617-.3376624l-1.1795219-.1038961.5532271-1.0337662 1.2212749-2.0779221.9864143-1.7090909 1.6857769-2.8987013 1.1168924-1.9272727.6784861-1.174026c1.1899601.2545455 2.3642629.5558442 3.5333466.8987013.6958831.2077922 1.3917663.4311688 2.0876494.6701299.3444621.1194805.6837052.2545454 1.0438247.3792208.7463347.2597402 1.5031076.5350649 2.2598805.877922zm-17.8598407-26.17142854c3.1174143 2.26845082 5.8804204 4.9835716 8.1992431 8.05714284l-8.1992431 4.7168831zm0 15.20519484 9.4309562-5.4233767c2.416597 3.5987865 4.2221491 7.568639 5.3443825 11.7506494.1200398.4467532.2296414.8935065.3340239 1.3454545-.1983267-.0675324-.3914343-.1454545-.589761-.2077922-.7150199-.2337662-1.4248207-.451948-2.1398406-.6545454s-1.5657371-.4155844-2.3486056-.5974026c-.3914343-.0883117-.7880876-.1766234-1.1795219-.2545455s-.6680478-.1350649-1.0020717-.1922078l-1.1221116 1.9324676-.7045816 1.2155844c-1.9438274-.2848012-3.9024841-.4582469-5.8662949-.5194805h-.1565737zm-2.1189641-15.20519484v18.65974024l-11.0123506-6.3376623c2.7468055-4.8414119 6.5014448-9.04260024 11.0123506-12.32207794zm-14.7753387 21.53246754c.6802491-2.5318447 1.6102962-4.990554 2.7765737-7.3402597l12.0039841 6.8935064v2.509091h-.1983267-.3653386c-1.9638378.0607865-3.9225203.2342346-5.8662948.5194805-.7480744.1108225-1.48919.2354978-2.2233467.374026l-.6001992.1246753c-1.2108366.2441558-2.4164541.5194805-3.6064143.8727272 0-.4155844 0-.8363636 0-1.251948 0-.7376623.0260956-1.4753247.0782868-2.212987-.720239.1974026-1.4300398.4155844-2.1398406.6493506l-.1461354.0467533c.0869853-.3948052.1826693-.7896104.2870517-1.1844156zm-10.0729083 11.5948052c0-.825974-.0260956-1.6571429 0-2.4831169 0-.3220779 0-.6493506.0313147-.9766234l.8663745-.5194805.1617928-.0883117c-.0027439.0345782-.0027439.0693179 0 .1038961v.0675325.1662338.7428571c0 .8.0313148 1.6155844.0730678 2.4207792 0 .3168831.041753.6337663.0574103.9402598.0574104.7740259.1356972 1.5584415.2296415 2.3272727.0365338.2909091.0730677.5818182.1148207.8675325v.0467532c.0939442.6701299.2087649 1.3506494.3288048 2.0207792.5532271-.3168831 1.1273306-.6233766 1.690996-.9142857-.1200399-.7012987-.2244223-1.412987-.3079283-2.1246753 0-.0571429 0-.1194805 0-.1818182-.0347942-.2701299-.0661089-.5402597-.0939442-.8103896-.0782869-.7688312-.1409164-1.5584416-.1774502-2.3168831-.0260956-.348052-.0365339-.6909091-.0469721-1.0389611 0-.8-.0365339-1.6103896 0-2.4051948 0-.3220779 0-.6545454 0-.9818181l.0939442-.0831169.8559362-.4415585.1565737-.0779221v.2701299.8883117c0 .7792208 0 1.5584416.0730678 2.3376623 0 .3324676.041753.6805195.0626295 1.0389611.0626294.7532467.1409163 1.5168831.2296414 2.2597402 0 .1714286.0469721.3584416.0730677.5194806.0260956.1610389.041753.3116883.0626295.4675324.0887251.6077922.1878884 1.2103896.29749 1.8025974l.0313148.1818182c.5584462-.264935 1.1325498-.5194805 1.7118725-.7792208 0-.1350649-.0365339-.2701298-.0626295-.4051948-.0887251-.5506493-.1826693-1.1064935-.2505179-1.6571428-.0260956-.187013-.0469721-.3792208-.0678486-.5766234l-.0626295-.5194805c-.0782869-.748052-.1409163-1.5064935-.1878885-2.2545455-.0260956-.3688311-.0417529-.7376623-.0521912-1.0961039-.0313147-.7740259-.041753-1.5584415-.0365338-2.3272727 0-.3584416 0-.7168831 0-1.0701299l.130478-.0623376c.2818327-.1298702.5741036-.2545455.8559363-.374026l.1409163-.0571429v.0883117 1.1272728c0 .7532467.041753 1.5168831.0887251 2.2701298 0 .3636364.0521913.7324676.083506 1.1012987.0626295.7376624.1409163 1.4753247.2348606 2.2025974.0469721.3532468.0991633.7168831.1565737 1.0805195.0991633.6545455.213984 1.3090909.3340239 1.9532468.5793227-.2285715 1.1586454-.4415585 1.7379681-.6493507-.125259-.6597402-.2348606-1.3350649-.3288048-2.0051948-.041753-.3012987-.083506-.5974026-.1200398-.8987013l-.0313148-.2441558c-.0835059-.7272728-.1565737-1.4701299-.2087649-2.1922078-.0313147-.3896104-.0521912-.7792208-.0730677-1.1636364 0-.2181818 0-.4363636 0-.6597403 0-.5194805-.0313148-1.064935-.0313148-1.5948051 0-.3792208 0-.7636364 0-1.1428572l.1304781-.051948.2818327-.0987013.5949801-.2129871v1.2103897c0 .7324675.0574103 1.4597402.1096016 2.1922077.0626294.8311689.1461354 1.6675325.2505179 2.4935065.0365338.3324676.0887251.6597403.1356972.987013.2035458 1.4285715.4697211 2.8519481.803745 4.2597403.1617928.6857143.339243 1.3662338.5219124 2.0467532.6680478-.2025974 1.3413147-.3896104 2.0250199-.5662337.9237848-.2337663 1.8632271-.4467533 2.8131076-.6285715l-1.8684463 3.3922078-1.3674103 2.3636364c.3183665.8207792.6576095 1.6363636 1.0438247 2.4363636.1617928.3584416.3235856.7168831.5219123 1.0701299h-12.5415538c-.3757768-1.1428571-.6993625-2.2961039-.9811952-3.4597403-.172231-.7220779-.3288048-1.4493506-.4697211-2.1766233-.0365339-.187013-.0626295-.3688312-.0939442-.5558442-.1461355-.8-.2713944-1.6-.3705578-2.4103896-.1878884-1.4597403-.3131474-2.9350649-.3653386-4.4103896zm-10.49565739 21.7350649 8.18358569 4.6753247-11.09063749 6.4155844c.41331071-3.8195968 1.3929667-7.5571551 2.9070518-11.0909091zm14.36302789 16.2285715h-.3862151c-5.4558526-.0062041-10.85115575-1.1382545-15.84525901-3.3246754l16.23147411-9.3506493zm-4.0656972-12.7376624-9.39442233-5.412987c2.1178898-4.2709791 4.99473803-8.1252764 8.49151393-11.3766234v.0831169c.1565737.7376623.3235857 1.4701299.5219124 2.1974026s.4123107 1.5584416.6419522 2.2961039c.1200398.3844156.2452988.7636364.3705577 1.1428571.125259.3792208.2192032.6441559.3340239.961039h3.6533865c.7331756 1.8147252 1.5678003 3.5871929 2.4999601 5.3090909l.1878885.3428572.1148207.2025974zm6.1950996 12.6701299v-13.7922078l2.2964143-1.3142857s.0365339.051948.0521913.0831169c1.0314659 1.6627919 2.1553235 3.2670159 3.3663346 4.8051948.4697211.5852814.9498805 1.1619047 1.4404781 1.7298701.8768128 1.0077922 1.7953785 1.9792208 2.745259 2.9142857l.1878884.1818182c-.3496813.212987-.7098008.4155844-1.0699203.6181818-.6471713.3688312-1.31.7220779-1.9780478 1.0389611.5219123.5194805 1.0960159 1.038961 1.6596813 1.5584415l.5219123.4623377c-2.9943993.9353647-6.0904532 1.510881-9.2221912 1.7142857zm22.7188446 1.1272727c-.7045817.4415585-1.4300398.8623377-2.155498 1.2623377l-.8559363.4571428c-.2870517-.1506493-.5741035-.3012987-.8559362-.4571428l-.1617928-.0935065.0835059-.0467533.0574104-.0311688.1513546-.0831169.6419522-.3688311c.6993625-.4051949 1.3987251-.8311689 2.0876494-1.2727273.2661753-.1714286.5219123-.348052.7828685-.5194805.6471713-.4311689 1.2891235-.8883117 1.9154183-1.3558442l.3653387-.2805195.3705577-.2805195c.5219124-.3896103 1.0020717-.8 1.4926694-1.2103896l.0991633-.0831169c-.5532271-.3220779-1.1012351-.6597402-1.6388048-.9974025l-.2922709.2337662c-.4592829.3688312-.929004.7376623-1.4039442 1.0909091-.1513546.1194805-.3131474.2337662-.4749403.3480519l-.3340239.2493507c-.6262948.4467532-1.2786852.8935065-1.9258565 1.3142857-.2922709.187013-.5793227.374026-.8663745.5506493-.6837052.4207793-1.3830678.8311689-2.0876494 1.2155845-.2766136.1558441-.5636654.3116883-.8507172.4623376l-.1304781-.0779221h-.0313147l-.7828685-.5194805-.1565737-.1142857.0730677-.0415584.0574104-.0311689c.0306808-.0153729.060319-.032726.0887251-.051948l.7776494-.4415585c.6732669-.3948052 1.3465338-.8103896 1.9937051-1.2363636.2818327-.1818182.5688845-.374026.8663745-.5766234.6262949-.425974 1.2525897-.8727272 1.8527889-1.3246753l.1461354-.1090909c.2139841-.1662338.4384064-.3324675.6576096-.5194805.3914343-.3012987.7724303-.612987 1.1482072-.9246754l.4175299-.3480519c-.464502-.3168831-.9342231-.6493506-1.393506-.987013l-.1409164-.1038961c-.5219123.4467533-1.0855776.8831169-1.6335856 1.3038961l-.7515538.5558442-.1200398.0935065c-.6106375.4415584-1.2369323.8727272-1.8632271 1.2883117-.3131474.2025974-.6210757.4051948-.9342231.5974025-.6523905.4103897-1.3308765.8103897-2.0041435 1.1896104l-.9237848.5194806c-.0420347-.0246953-.0821593-.052478-.1200399-.0831169l-.4175298-.3012987-.3444622-.2493507-.1356972-.1038961.0574104-.0311688.9759761-.5662338c.6523904-.3896104 1.2995617-.7948052 1.9310756-1.2103896l.9185658-.6233766c.6106374-.4207792 1.2108366-.8623377 1.7953785-1.3038961.2870518-.2181818.5741036-.4415585.8663745-.6753247.5219123-.4155844 1.0438247-.8363636 1.5292032-1.2675325-.4853785-.3844155-.9655379-.7740259-1.4300399-1.1740259-.5219123.4415584-1.0438247.8727272-1.565737 1.2935065l-.929004.6909091-.0365339.025974c-.5845418.4311688-1.1743028.851948-1.7692828 1.251948-.3183666.2181818-.6523905.4363637-.9759761.6441559-.6262949.4-1.2786853.7948052-1.9310757 1.1740259-.3288048.187013-.6576096.374026-.9864144.5506494l-.1096016-.0883117-.7098008-.5922078c.3444622-.2025974.6889243-.4051948 1.0438247-.612987.631514-.3896104 1.2525897-.7896104 1.8632271-1.2051948.887251-.6025974 1.7536255-1.2363636 2.6095618-1.8909091 1.2212749-.9454545 2.3973174-1.9445887 3.5281275-2.9974026.2713944-.2545454.5219123-.5194805.8089641-.774026.2870518-.2545454.4801594-.477922.7150199-.7168831-.5219123-.4831169-1.0438247-.9766234-1.523984-1.4857143-.6576096-.6701298-1.3047809-1.3610389-1.9258566-2.077922h6.5969721c.5532271-.6926407 1.0890571-1.3852814 1.60749-2.0779221.2296415-.3168831.4592829-.6389611.6837052-.9662338l.5584462.9298701 1.2212749 2.0779221 1.2160558 2.0779221 1.4404781 2.4883117 1.1273307 1.9480519.6732669 1.148052c-.8141833.8865801-1.6579416 1.7419913-2.5312749 2.5662337-.5219123.5194806-1.1064542 1.0389611-1.6753386 1.5064936-.2557371.2181818-.5219124.425974-.7776494.638961-.631514.5194805-1.2682471 1.038961-1.9258566 1.5064935-1.0681806.8311688-2.1694157 1.5982684-3.3037052 2.3012987zm22.2230279-1.1272727c-.8715936.0571428-1.7484064.0883117-2.6095618.0883117-4.0832691-.0029194-8.1414317-.6355314-12.0300796-1.8753247l.4279681-.3688312c.5688845-.5194805 1.1221115-1.038961 1.6649004-1.5584415l.1409163-.135065c.5219124-.5194805 1.0438247-1.038961 1.5239841-1.5584415.4801593-.5194805 1.0020717-1.0961039 1.4822311-1.6571429l-1.1273307-1.9480519-.6993626-1.2c1.2161516-1.5355713 2.3418895-3.1399917 3.3715538-4.8051948l.1565737-.2597403 7.7138646 4.4311688zm2.0876494-.2025974v-9.4337663l11.1115139 6.3844156c-3.5281046 1.5451684-7.2646959 2.5672868-11.0906374 3.0337663zm-4.0239442-14.1974026 11.0071314-6.3272727c2.8441842 4.7876948 4.6238966 10.1267544 5.2191236 15.6571428z"/></g></g></svg>