<svg fill="none" height="150" viewBox="0 0 285 150" width="285" xmlns="http://www.w3.org/2000/svg"><path d="m0 0h284.899v150h-284.899z" fill="#009ddc"/><path clip-rule="evenodd" d="m149.993 68.2048 9.825-1.7797v-1.5662l-9.825 2.8344zm33.889 12.0425c-.567-.7324-1.331-1.287-2.203-1.5984.704-.3782 1.286-.9481 1.68-1.6437.457-.7858.698-1.679.698-2.5885-.003-.598-.108-1.1911-.31-1.7537-.196-.5664-.489-1.0942-.866-1.5595-.382-.4588-.849-.839-1.376-1.1195-.56-.2925-1.184-.4415-1.815-.4336h-10.013v18.7665l9.044-.0001c.79.0022 1.577-.1045 2.338-.3171.695-.1958 1.351-.5111 1.938-.9318.565-.4107 1.027-.9467 1.351-1.566.334-.6589.503-1.3899.49-2.1291.038-1.1193-.299-2.2192-.956-3.1255zm-4.296 4.5298c-.269.1158-.559.1731-.852.1682h-5.168v-4.5298h5.329c.271-.0028.538.057.782.1747.245.1196.465.2868.646.4918.183.2221.327.4738.426.7442.104.2862.156.5886.155.8931.003.2973-.054.5922-.168.8671-.106.2662-.262.5099-.458.7183-.196.1967-.432.3489-.692.4465zm0-8.0955c-.376.3812-.892.5896-1.427.576h-4.6v-4.3422h4.761c.493-.0052.963.2023 1.292.5695.381.4344.576 1.0016.543 1.5789.05.5834-.147 1.1609-.543 1.5919zm18.806 4.5557c.968-.4511 1.779-1.184 2.326-2.1031.61-1.0078.928-2.1666.917-3.3456-.002-.7836-.156-1.5593-.452-2.2843-.299-.7249-.721-1.3926-1.247-1.9737-.539-.5975-1.185-1.0872-1.906-1.4431-.755-.3665-1.584-.5547-2.422-.5501h-8.302v18.7665h3.876v-6.1929h3.269l3.876 6.1799h4.438zm-7.177-8.2442h4.166c.295.0038.584.0746.847.207.288.1384.544.337.749.5824.228.2642.407.5665.53.8931.131.3653.196.7508.194 1.1389.002.3801-.057.7582-.175 1.1195-.103.3252-.263.6297-.471.8995-.171.2404-.391.4412-.646.5889-.258.1416-.547.2151-.84.2135h-4.322zm29.174 2.4784c-.414-1.1198-1.024-2.1565-1.803-3.0609-.781-.8982-1.729-1.6365-2.791-2.1743-1.127-.5611-2.371-.8471-3.63-.8348-1.232-.0097-2.451.2579-3.566.7831-1.074.5077-2.038 1.2223-2.836 2.1031-1.657 1.8108-2.579 4.1765-2.584 6.633.009 1.2.228 2.3892.646 3.5138.41 1.119 1.023 2.1524 1.809 3.0479.788.8911 1.742 1.6188 2.81 2.142 1.13.5453 2.37.8221 3.624.8089 1.236.0097 2.459-.2579 3.579-.783 1.069-.5043 2.028-1.2146 2.823-2.0902.805-.8864 1.443-1.9128 1.88-3.0285.44-1.1432.659-2.3598.646-3.5851.004-1.1851-.201-2.3617-.607-3.475zm-8.263 9.448c-.732.0118-1.456-.1594-2.106-.4983-.609-.3288-1.144-.7805-1.57-1.3266-.434-.587-.766-1.2434-.982-1.9414-.225-.7315-.338-1.4929-.336-2.2584 0-.7458.111-1.4873.33-2.2002.2-.7015.529-1.3598.969-1.9414.418-.5572.949-1.0202 1.557-1.3589.647-.3482 1.372-.5242 2.106-.5113.718-.0121 1.429.1547 2.067.4854.603.316 1.132.7572 1.551 1.2942.444.5837.783 1.2407 1.001 1.9414.237.7314.357 1.4958.355 2.2649.002.7442-.111 1.4843-.336 2.1937-.206.6968-.529 1.3533-.956 1.9414-.409.5614-.934 1.0291-1.537 1.3719-.646.3596-1.374.5468-2.113.5436zm24.064-4.2775c-.286-.6044-.706-1.1356-1.227-1.5531-.585-.4576-1.239-.8181-1.938-1.0677-.75-.2783-1.577-.5436-2.468-.783-.075-.0194-.149-.0387-.223-.058l-.12-.0308v-.0001c-.528-.1367-1.043-.2699-1.479-.403-.447-.1217-.88-.2909-1.292-.5047-.293-.1541-.546-.3759-.736-.6471-.176-.2489-.262-.5499-.246-.8542-.032-.5449.211-1.0695.646-1.3978.631-.3871 1.368-.566 2.106-.5112.536.0025 1.07.0699 1.589.2006.5.1258.988.2925 1.46.4983.4.168.784.3693 1.15.6018.231.133.447.2891.646.4659l.155.1618 1.816-3.2291-.123-.0842c-.902-.5986-1.872-1.0894-2.888-1.4624-1.164-.4297-2.396-.6488-3.637-.6472-.904-.0054-1.803.1255-2.668.3883-.799.2432-1.544.6363-2.196 1.1583-.635.5006-1.144 1.1434-1.486 1.8767-.371.8115-.554 1.6962-.536 2.5885-.019.6636.098 1.3241.342 1.9413.232.5237.578.9882 1.014 1.359.499.4241 1.059.7709 1.661 1.0289.752.3219 1.527.588 2.319.7959.646.1748 1.292.356 1.938.5436.509.1429 1.004.3313 1.479.563.341.1539.649.3738.905.6471.202.2698.307.6008.297.9384 0 1.1648-.911 1.7278-2.791 1.7278-.686.001-1.37-.0838-2.035-.2524-.622-.1635-1.23-.3799-1.815-.6471-.483-.1953-.953-.42-1.409-.673-.289-.1673-.562-.3624-.814-.5824l-.155-.1618-1.75 3.4168.116.0841c1.123.7886 2.364 1.3936 3.676 1.7925 1.341.4195 2.736.6376 4.141.6471.885.0052 1.768-.0969 2.629-.3041.801-.1808 1.561-.51 2.242-.9707.649-.4611 1.178-1.0713 1.544-1.7796.398-.8034.595-1.6917.575-2.5884.028-.7657-.113-1.5282-.414-2.2326zm-132.194-.8219 5.394-10.3023h4.083v18.7729h-3.908v-11.6995l-4.484 8.5808h-2.145l-4.4826-8.5808v11.6995h-3.9085v-18.7729h4.1084zm18.134-10.302h3.126l7.365 18.7664h-4.147l-1.68-4.601h-6.234l-1.68 4.601h-4.147zm-.853 11.3245h4.748l-2.338-6.7882zm9.303-11.3248v3.4751h5.885v15.2978h3.908v-15.2978h5.86v-3.4751zm21.144 10.8265v4.4714h9.205v3.475h-13.114v-18.7729h12.875v3.4751h-8.966v4.1093h7.752v3.2421z" fill="#fff" fill-rule="evenodd"/><path d="m87.5165 90.6338c0-.1424 0-.2783 0-.4206 0-.1424 0-.3365-.0452-.5048 0-.3041-.0646-.6083-.1098-.9059-.0581-.3818-.1227-.7701-.2003-1.1454-.2709-1.3135-.6712-2.5967-1.1951-3.831-.3437-.8181-.743-1.6116-1.1951-2.3749-.1744-.2912-.3553-.5824-.5427-.8672-.0323-.0582-.0775-.1164-.1163-.1747-1.4478-2.1385-3.2869-3.9829-5.42-5.4358-.6249-.4204-1.2719-.8071-1.9381-1.1583.0421-.7544.0421-1.5105 0-2.2649-.0917-1.2885-.308-2.565-.646-3.8116-.3332-1.2463-.7853-2.4577-1.3501-3.6174-.4009-.7963-.8564-1.5639-1.3631-2.2972-.1874-.2848-.3812-.563-.5879-.8348-.0323-.0518-.0711-.0971-.1098-.1489-.8-1.0532-1.7024-2.0243-2.6939-2.899-.2843-.2524-.5879-.5048-.8915-.7442-.239-.1877-.4845-.3754-.73-.5501-.1421-.1035-.2778-.2006-.4199-.2912l-.3424-.2524-.1615-.1035-.1486.0971-.3553.2329c-.1357.0906-.2778.1877-.4134.2912-.252.1748-.4975.3624-.7365.5501-.323.2524-.6137.5047-.9044.7701-.9738.8765-1.8608 1.8452-2.6487 2.8926-.5364.7067-1.0221 1.4506-1.4535 2.2261-.168.2912-.3295.5953-.4845.8995 0 .0647-.0582.1294-.0905.1941-.563 1.1582-1.0151 2.3672-1.3501 3.6109-.3374 1.2467-.5537 2.5232-.6461 3.8116-.0452.7542-.0452 1.5106 0 2.2649-.6669.3497-1.314.7365-1.938 1.1583-2.1369 1.4504-3.9786 3.2952-5.4265 5.4358-.4985.7452-.9494 1.5211-1.3502 2.3232-.1486.3041-.2907.6147-.4264.9253l-.1356.1424c-.5134 1.2269-.9051 2.5014-1.1693 3.8051-.0775.3753-.1421.7571-.1938 1.1454-.0452.3041-.0775.6083-.1098.9124 0 .1683 0 .3365-.0453.5048-.0452.1682 0 .2782 0 .4206h-.0387v.1812l.1615.0841.3747.1877.4586.22c.2778.1229.5556.2459.8399.3559.7589.3091 1.5355.5727 2.3256.7895 1.6662.4351 3.3816.6527 5.1035.6471h.1874 1.0142c3.0635-.1884 6.0439-1.0737 8.7148-2.5885.2971-.1682.5943-.3494.885-.5306.2907.1812.5879.3624.8915.5306 3.0263 1.7018 6.4394 2.5933 9.9099 2.5885.4263 0 .8462 0 1.292-.0453.4457-.0453.646-.0518 1.0207-.0906.9504-.1087 1.8917-.286 2.8166-.5306.7819-.2057 1.5501-.4608 2.2998-.7636.2778-.11.5556-.233.8334-.3559l.4587-.2201.3746-.1811.1615-.0842c.0065-.0517 0-.11 0-.1747z" fill="#fff"/><g fill="#009ddc"><path d="m61.1075 83.4701-3.23 1.8831v6.6847c3.0636-.1962 6.035-1.1285 8.663-2.7179-2.1727-1.5619-4.013-3.5418-5.4136-5.824zm-1.938-10.1145.4974-.2071c1.2152-.5176 2.4791-.9122 3.7727-1.1777 1.1644-.2344 2.3466-.3686 3.5337-.4012v-3.7533l-5.7818-3.3456c-1.3593 2.7612-2.0435 5.8066-1.9962 8.8849zm2.4678-9.7909 5.3102 3.0738v-9.0596c-2.1748 1.5944-3.9851 3.635-5.3102 5.9858zm-1.0401 19.0253c-1.2021-2.2082-1.98-4.6228-2.2934-7.1183 0-.1618-.0387-.33-.0516-.4983-3.4158 1.8967-6.1739 4.7904-7.9073 8.2961l4.5221 2.6273zm-10.6786 1.6113c-.7311 1.7134-1.2056 3.5254-1.4083 5.3776l5.3425-3.0932zm6.9252 7.8755v-6.1347l-7.8232 4.5298c2.407 1.0591 5.0069 1.6078 7.6359 1.6113zm20.7242-7.6037 5.7818-3.3456c-1.7047-2.5607-3.9947-4.6772-6.6798-6.1735l-.0581.5112c-.1615 1.32-.4537 2.6207-.8721 3.8827-.3772 1.1311-.8528 2.2268-1.4213 3.2745zm1.0142.5824 7.8297 4.5299c-.2845-2.6845-1.1439-5.2758-2.5194-7.5972zm-10.1876 4.2645c2.9763 1.8015 6.3872 2.7547 9.8646 2.7568.4264 0 .8463 0 1.2921-.0453v-5.2546l-5.7173-3.3068c-.8532 1.4166-1.8797 2.7209-3.0556 3.8827-.7409.7185-1.538 1.3763-2.3838 1.9672zm12.1515-1.9543v4.5687c1.8476-.2229 3.6522-.7179 5.3555-1.469zm-12.5779-29.7868v6.1864l3.973-2.2714c-1.1239-1.4945-2.4628-2.8138-3.973-3.915zm7.3064 15.5696.4716.2006c.0347-1.7946-.1827-3.5853-.646-5.3193-.5458-2.0286-1.4186-3.9543-2.584-5.7011l-4.5221 2.6273v6.6136c1.1892.033 2.3735.1672 3.5401.4012 1.2828.2672 2.5357.6618 3.7404 1.1777zm-6.5635 1.9608c-.3811 0-.7687-.0323-1.1563-.0388h-.3553c-.3877 0-.7688 0-1.15.0388-.6007 0-1.1886.0906-1.77.1683l-1.7766 3.0738c.2261.5436.4716 1.0871.7429 1.6178.1745.3429.3554.6859.5492 1.0224.0241.0517.0522.1015.0839.1489l.0905.1553c.1938.3365.4005.6471.6072.9836.3295.4983.6784.9836 1.0401 1.456h3.5273c.3617-.4724.7106-.9577 1.0336-1.456.2132-.3236.4199-.6471.6137-.9836.0263-.0519.0565-.1016.0904-.1489l.084-.1553c.1938-.3365.3747-.6471.5491-1.0224.2649-.5307.5168-1.0742.7365-1.6178l-1.7701-3.0738c-.6072-.0777-1.1951-.1359-1.7701-.1683z"/><path d="m65.0999 84.7512h-4.9033c.3101.4724.646.9319.969 1.3719.2262.2912.4523.576.6848.8542.5564.6587 1.1472 1.2872 1.7701 1.8832 1.0627-.713 2.0671-1.5093 3.004-2.3814-.537-.5498-1.0459-1.1265-1.5246-1.7279zm-1.1112-1.4883c-.2132-.3106-.4199-.6471-.646-.9578-.1356-.2135-.2648-.4335-.3876-.6471-.1227-.2135-.2519-.44-.3747-.6471h-4.38c.2197.5112.4522 1.0224.7042 1.5272.1809.3559.3747.7054.5685 1.0548.0174.0244.0326.0504.0452.0777.0189.0258.0341.0541.0452.0841h4.7547zm10.1102-7.2025c-.1099.3754-.2197.7507-.3424 1.1196-.1228.3688-.252.7247-.3941 1.0871l.9819 1.6761.5879 1.0224.8851 1.566c.2584-.5047.4909-1.0159.7106-1.5272.1421-.3365.2713-.6471.4005-1.0224.2967-.8134.5469-1.6431.7494-2.485-1.1507-.5784-2.3479-1.0589-3.5789-1.4366zm-.3424 4.9311-.5879-1.0483-.3036-.5177c-.0776.1747-.1551.3429-.2391.5177-.1615.3429-.3359.6859-.5103 1.0224-.1227.22-.2455.44-.3747.6471s-.2584.4401-.3876.6471l.8204 1.4302.5879 1.0159.7946 1.3719c.3359-.44.646-.8995.969-1.3719.2132-.33.4264-.6471.646-1.0159.0176-.0267.0327-.0548.0453-.0842l.0516-.0776zm-9.3608-10.7551c-.3617.0453-.7235.097-1.0788.1617-.8524.1511-1.6957.3499-2.5259.5954.0781 1.2817.264 2.5546.5555 3.8051.3812-.0971.7623-.1812 1.137-.2589.3747-.0776.7623-.1488 1.137-.2071l.9819-1.7019.5879-1.0224.8851-1.5272c-.5944.0388-1.1241.0906-1.6797.1553zm4.2508-.1489c-.3941 0-.7946-.0323-1.1951-.0323h-.1809l-1.4923 2.5885-.5879 1.0224-.2971.5177.5878-.0647c.3812-.0324.7559-.0518 1.137-.0647h1.5246l.8204-1.4237.5879-1.0224.7752-1.3719c-.5555-.0712-1.1176-.1165-1.6796-.1489z"/><path d="m79.7581 72.4497c0-.1618 0-.3301 0-.4919l-.42-.2588c-.3423-.2071-.6847-.4012-1.0336-.5889-1.062-.5712-2.168-1.0559-3.3076-1.4495-.3273-.1165-.6632-.2265-1.0078-.3301-.562-.1617-1.1305-.3106-1.7054-.4335l-.323.5694-.5427.9384-1.292 2.2325-.5879 1.0225-.2713.4659.5685.0518c.4263.0388.8463.097 1.292.1617l.646 1.1454.9432 1.6373c.1486-.4401.2907-.8866.4134-1.3331.0905-.3236.1809-.6471.252-.9836.3295.0841.646.1747.9819.2718.8241.2518 1.6348.5455 2.429.88.3747.1553.7494.3236 1.1177.5048l.9302.4789.5297.2912.0776-.4401c.0581-.3624.1163-.7248.155-1.0936 0-.1488.0388-.2977.0517-.4465.0388-.3818.0711-.7636.0904-1.1454v-.4595c.0194-.4012.0194-.8218.013-1.1971zm-18.3985 5.8176.646-1.1454.9432-1.6308c-.4587.0906-.9109.1877-1.3567.3042-.3294.0841-.646.1747-.9755.2718-.0969-.3236-.1808-.6472-.2584-.9901-.1987-.8385-.3496-1.6876-.4522-2.5432-.0517-.4012-.0904-.8089-.1227-1.2101s-.0452-.7119-.0517-1.0678c0-.1941 0-.3882 0-.5889l-.4199.1554c-.3489.1294-.6848.2653-1.0272.4076l-.4134.1812c-.3489.1618-.6913.3236-1.0272.4983l-.4134.22c-.3489.1877-.6913.3818-1.0272.5889l-.4199.2589v.4724 1.2036c.0362 1.2018.1701 2.3986.4005 3.5786.0646.3559.1422.7053.2261 1.0612.1357.563.2907 1.1196.4716 1.6761h6.0209c-.0775-.1747-.1615-.343-.239-.5177-.1874-.3883-.3489-.8024-.5039-1.1842zm12.0546 9.655-.5427-.9448-1.292-2.2261-.5879-1.016-.2713-.4724c-.1033.1618-.2132.3171-.3295.4724-.2454.343-.5038.686-.7687 1.016h-3.2301c.3036.3494.646.6471.9303 1.0095.2842.3624.4845.4853.7364.7183l-.3488.3494-.3876.3754c-.9195.8671-1.9067 1.6591-2.9523 2.3684-.2972.2006-.5943.4012-.898.5889l-.4974.2977.3424.2847c.2842.2394.5749.4659.8656.686.1228.0905.2391.1811.3683.2653.3036.2265.646.44.9367.6471l.3811.2459c.336.2071.6784.4077 1.0272.6018l.4135.22.4134-.22c.3489-.1941.6977-.4012 1.0401-.6083 1.0169-.6356 1.9843-1.3473 2.8941-2.129.2778-.2394.5427-.4789.8076-.7312.4199-.4013.8269-.8154 1.2209-1.249z"/></g><g fill="#fff"><path d="m77.6712 77.4845c-.2035.8332-.4537 1.6541-.7494 2.4591-.1292.3429-.2584.6859-.4005 1.0224-.2197.5112-.4523 1.0225-.7107 1.5272l-.8785-1.5272-.5879-1.0224-.982-1.6761c.1422-.3624.2714-.7247.3941-1.0871.1228-.3624.2326-.7442.3424-1.1195-.3295-.0971-.646-.1877-.9819-.2718-.1228.4465-.2649.893-.4135 1.333-.1486.4401-.3036.8219-.4716 1.2296-.2196.5435-.4716 1.0871-.7364 1.6177-.1745.343-.3553.686-.5491 1.0225l-.084.1553c-.0339.0472-.0642.097-.0905.1488-.1938.3365-.4005.6472-.6137.9837-.323.4982-.646.9836-1.0336 1.456h-3.5272c.2713.343.5491.6859.8333 1.016h3.2301c.2648-.3301.5233-.6472.7687-1.016.1163-.1553.2261-.3106.3295-.4724l.2713.4724.5879 1.016 1.292 2.226.5427.9448.323.5566c-.3941.4335-.8011.8477-1.221 1.2489-.2648.2524-.5297.4918-.8075.7312-.9098.7818-1.8772 1.4935-2.8941 2.1291-.3424.207-.6913.4141-1.0401.6083l-.4135.22-.4134-.22-.0775-.0453h.0387.0323l.0711-.0389.3101-.1812c.3359-.1941.646-.4012 1.0013-.6147l.3747-.2524c.3101-.2135.646-.4336.9238-.6471l.3553-.2718c.2584-.2006.5168-.4142.7687-.6471-.2627-.1553-.5275-.3171-.7945-.4854-.2671.2201-.5384.4358-.814.6472l-.3876.2912c-.3037.22-.6461.4335-.9303.6471l-.4199.2653c-.3295.2006-.646.4012-1.0013.5889l-.4135.2265-.0646-.0389-.3811-.2459-.0969-.097h.0387.0453l.3746-.2201c.323-.1876.6461-.3882.9626-.5953l.4134-.2783c.3037-.207.6073-.4271.898-.6471l.3876-.2977c.2584-.2006.5104-.4076.7494-.6471-.2455-.1682-.491-.343-.7365-.5241l-.7881.6471-.4199.3106c-.2907.2135-.5943.4271-.898.6471-.1486.0971-.2971.1941-.4522.2847-.3165.2006-.646.3948-.9625.5825l-.4522.2459c-.0201-.0116-.0377-.027-.0517-.0453-.1292-.0842-.2455-.1748-.3683-.2654l-.0646-.0517.4716-.2783c.3166-.1877.646-.3883.9303-.5889l.4457-.2976.8657-.6472.4199-.33c.2455-.2006.4974-.4077.7365-.6471-.2326-.1877-.4652-.3753-.6913-.5695-.2455.2136-.5039.4271-.7623.6471l-.4393.3365c-.2907.2136-.5814.4271-.8785.6472-.1486.11-.3101.2135-.4652.3106-.3036.1941-.646.3882-.9302.5694l-.4781.2718-.0517-.0453-.3423-.2847.4974-.2977c.3036-.1876.6008-.3882.8979-.5889 1.0456-.7093 2.0329-1.5013 2.9523-2.3684l.3876-.3753.3489-.3495c-.2498-.2329-.4953-.4724-.7365-.7183-.2411.2459-.4866.4854-.7364.7183-.9368.8722-1.9413 1.6685-3.004 2.3814-.2972.1942-.5943.3818-.898.563l-.5168.3042c-.3101.1747-.646.3494-.9561.5112.2649.2588.5298.5047.8011.7506l.3101.2654c.2778.2459.5685.4853.8592.7118l.3488.1941c.3101.233.646.4595.9367.6795l.336.22c.3359.2244.6783.4401 1.0271.6471l.3618.2136c.3747.2135.7558.4077 1.137.6018.3811-.1941.7623-.3883 1.1305-.6018l.3618-.2136c.3488-.207.6977-.4206 1.0401-.6471.9733-.6425 1.8995-1.354 2.7714-2.129.2713-.2459.5362-.4918.801-.7507l.0646-.0647c.2541-.2459.4996-.4983.7365-.7571.2455-.2653.4845-.5306.7106-.8024l-.5427-.9513-.3359-.5824c.5892-.7428 1.1329-1.5208 1.628-2.3296l.0969-.1618.2519-.4271.2455-.4271c.0263-.0581.0565-.1143.0905-.1683.4478-.8399.8489-1.7041 1.2015-2.5884.1357-.3365.2584-.6471.3812-1.0225 0-.0906.0581-.1876.0904-.2782.1938-.5695.3618-1.1454.5039-1.7214-.2778-.1747-.5879-.3365-.8979-.4918zm-4.1152 8.6391-.7945-1.3719-.5879-1.016-.8205-1.4302c.1292-.2135.2649-.4335.3876-.6471.1228-.2135.252-.44.3747-.6471.1745-.3365.3489-.6471.5104-1.0224.084-.1748.1615-.343.239-.5177l.3036.5177.5879 1.0224 1.4923 2.5885-.0517.0776c-.0125.0294-.0277.0575-.0452.0842-.2003.3429-.4134.6859-.646 1.0159-.2907.4466-.6266.906-.9497 1.3461z"/><path d="m80.7721 72.6567c0-.4271 0-.8477-.0453-1.2942-.3488-.233-.7106-.4594-1.0723-.6471l-.3812-.22c-.3488-.1942-.7042-.3883-1.0595-.5695-.4716-.233-.9496-.4595-1.4341-.6471-.5943-.2524-1.2016-.4789-1.8089-.686-.3423-.11-.6847-.22-1.0336-.3171-.3488-.097-.7558-.2006-1.1305-.2912l-.5685-.1229-.4845-.0906-.5427.9383-.3359.5889c-.9309-.1406-1.8692-.2271-2.8101-.2589h-1.389c-.9471.0268-1.8919.1089-2.8295.246-.3553.0517-.7171.11-1.0724.1811l-.2907.0583c-.5814.1165-1.1628.2588-1.7378.4206 0 .3559 0 .7054.0452 1.0548.8302-.2455 1.6735-.4443 2.5259-.5953.3554-.0647.7171-.1165 1.0789-.1618.5556-.0712 1.1111-.123 1.6796-.1553l-.885 1.5272-.5879 1.0224-.9819 1.702c-.3747.0582-.7559.1294-1.137.207-.3812.0777-.7559.1618-1.137.2589.0775.33.168.6471.2584.9901.4458-.1165.898-.2136 1.3566-.3042.4587-.0906.8592-.1553 1.2921-.2135.5814-.0777 1.1693-.1359 1.77-.1683.3812 0 .7623-.0323 1.1499-.0388h.3554c.3876 0 .7752 0 1.1563.0388.5944 0 1.1822.0906 1.7701.1683l1.7701 3.0738c.1679-.4077.323-.8154.4716-1.2295l-.9432-1.6372-.646-1.1454c-.4199-.0648-.8398-.123-1.2921-.1618l-.5555-.0583.2713-.4659.5879-1.0224 1.292-2.2326.5297-.9319.323-.5694c.575.1229 1.1435.2718 1.7055.4336.3446.1035.6805.2135 1.0078.33 1.1395.3936 2.2456.8784 3.3076 1.4495.3488.1877.6912.3818 1.0336.5889l.4199.2589v.4918.0906l-.0452-.0389-.071-.0453-.3101-.1812c-.336-.1876-.6848-.3753-1.0337-.5565l-.4328-.1876c-.3359-.1618-.6848-.3236-1.0336-.4724l-.407-.1748c-.3101-.1229-.646-.2459-.9303-.3559v.9319c.323.1229.6461.2459.9626.3818l.4457.1941c.3424.1553.6784.3171 1.0143.4918l.4393.2265c.3424.1812.6848.3753 1.0142.5759l.4199.2589v.0712.4594.0906l-.0775-.0517h-.0452l-.3747-.2201c-.323-.1812-.646-.3623-.9949-.5306-.1421-.0777-.2971-.1488-.4522-.2265-.3294-.1553-.646-.3106-1.0013-.453l-.4522-.1876-.9626-.3624c0 .2976-.0516.6018-.0904.9059.3165.1165.646.2395.9432.3689l.478.2071c.336.1488.646.3041.9949.4659.1615.0777.3165.1618.4716.2459.3294.1747.646.3559.9819.5501.1551.0906.3101.1812.4587.2782.0032.0236.0032.0476 0 .0712 0 .1488-.0323.2977-.0517.4465.0032.028.0032.0562 0 .0841l-.5491-.3235c-.323-.1747-.646-.3495-.9755-.5112l-.4716-.2006c-.323-.1489-.646-.2977-.9755-.4336l-.4909-.2136c-.3037-.1165-.6008-.2265-.9044-.33-.0453.2977-.0905.5889-.1422.8801.3037.11.646.2265.9174.3494l.5168.2136c.323.1423.646.2912.969.4465l.5039.2524c.323.1682.646.3429.9626.5241l.4845.2912v.0647l-.0776.4401-.5297-.2912-.9302-.4789c-.3683-.1812-.743-.3494-1.1177-.5047-.7942-.3345-1.6049-.6283-2.429-.8801-.323-.0971-.646-.1877-.9819-.2718-.0711.33-.1615.6471-.252.9836.3295.0841.6461.1747.982.2718 1.2284.3738 2.4234.85 3.5724 1.4237.3101.1553.6461.3171.9238.4853l.5362.3041c.3037.1812.6073.3689.9045.5695.0839-.3494.1679-.6989.239-1.0548.0323-.1359.0581-.2653.084-.4012.0646-.3689.1292-.7312.1809-1.1001 0-.1359 0-.2718.0516-.4077.0453-.3883.084-.7701.1163-1.1583 0-.1359 0-.2783 0-.4142 0-.4012.0388-.8024.0388-1.2101zm-11.2407-1.0418-.5879 1.0224-.8204 1.4237h-1.5246c-.3812 0-.7558.0323-1.137.0647l-.5685.0518.2972-.5177.5879-1.0225 1.4923-2.5884h.1808c.4006 0 .8011 0 1.1952.0323.562.0324 1.124.0777 1.6796.1488z"/><path d="m66.4307 84.7515c-.2843-.33-.5621-.6471-.8334-1.016-.3618-.4724-.7106-.9577-1.0401-1.456-.2067-.3235-.4134-.6471-.6072-.9836l-.0905-.1553c-.0318-.0474-.0598-.0971-.084-.1488-.1938-.3365-.3747-.6472-.5491-1.0225-.2713-.5306-.5168-1.0742-.7429-1.6178l1.7765-3.0738c-.4306.0561-.8613.1273-1.292.2136l-.9432 1.6307-.646 1.1454c.1551.4012.3166.7959.491 1.1842.0775.1747.1615.343.239.5177h-6.0402c-.1809-.5565-.3359-1.113-.4716-1.676-.084-.3559-.1615-.7054-.2261-1.0613-.2304-1.18-.3644-2.3768-.4005-3.5786 0-.4012 0-.8024 0-1.2036 0-.1553 0-.3171 0-.4724l.4199-.2589.0775-.0452v.0841.0841.3365c0 .3883 0 .783.0387 1.1778v.4529c0 .3754.0646.7572.1099 1.1325l.0581.44c.0452.3301.1034.6472.1551.9837.2713-.1553.5491-.3042.8204-.4465-.0581-.3366-.1098-.686-.1486-1.029 0-.1553-.0388-.3235-.0581-.4853-.0388-.3689-.0646-.7507-.084-1.1195 0-.1683 0-.3365 0-.4983 0-.3883 0-.783 0-1.1648 0-.1618 0-.3171 0-.4789l.0581-.0323.4135-.2201.0775-.0388c-.0032.0171-.0032.0347 0 .0518v.5112c0 .3818 0 .7636.0388 1.1389v.4983c.0323.3689.0646.7377.1098 1.0936 0 .1618.0387.3236.0646.4919.0452.3235.0969.6471.155.9577l.8269-.3753c-.0581-.3301-.1098-.6472-.1486-.9966 0-.1747-.0452-.3494-.0646-.5242-.0387-.3624-.0646-.7312-.0904-1.0936 0-.1747 0-.3559 0-.5306 0-.3754 0-.7572 0-1.1325 0-.1682 0-.343 0-.5177l.0581-.0323.4135-.1812h.0775v.0258.5501c0 .3624 0 .7312.0388 1.1001l.0387.5306c.0323.356.0711.7183.1163 1.0678 0 .1747.0452.3494.0711.5241.0517.3236.1098.6472.1679.9513l.8851-.3106c-.0582-.3171-.1098-.6471-.1551-.9707l-.0775-.5565c-.0387-.3559-.071-.7118-.0969-1.0613 0-.1876 0-.3818-.0323-.563 0-.3624 0-.7312 0-1.0936v-.5565h.0646l.4199-.1553v.5888c0 .356 0 .7119.0517 1.0678s.0711.8089.1227 1.2101c.1026.8556.2536 1.7047.4523 2.5432.0775.3365.1615.6471.2584.9901.323-.0971.646-.1877.9754-.2718-.0904-.33-.1808-.6471-.2584-.9901-.2915-1.2505-.4773-2.5233-.5555-3.8051 0-.3494-.0388-.6989-.0453-1.0548v-.6018c0-.3624 0-.7183.0388-1.0807l-1.0336.3171-.3876.1359c-.3489.123-.6977.2524-1.0466.3947l-.3747.1554c-.3553.1488-.7106.3106-1.053.4788l-.3811.1812c-.3618.1747-.7171.3689-1.0659.563-.1228.0777-.252.1488-.3812.22-.3617.22-.7171.4401-1.0659.6471 0 .4271-.0452.8542-.0452 1.2943v.4271c0 .4077 0 .8154.0387 1.2166 0 .5241.0776 1.0483.1422 1.566.0775.6471.1873 1.2942.3165 1.9413.0711.356.155.7119.2455 1.0678.0904.3559.2003.7442.3101 1.113l.1744.5566.1615.4659h1.699c.3499.8855.7511 1.7498 1.2016 2.5885.034.0539.0642.1101.0905.1682l.2454.4271c.0776.1424.168.2847.252.4271l.0969.1618c.5054.7838 1.0554 1.5379 1.6473 2.2584.2197.2848.4522.563.6913.8348.4199.4918.8656.9642 1.3243 1.4172l.0904.0841c.3037-.1812.6008-.3688.898-.563-.6229-.5959-1.2137-1.2245-1.7701-1.8831-.2326-.2782-.4587-.563-.6848-.8542-.3359-.44-.646-.8995-.969-1.3719h4.9033c.4787.6014.9875 1.1781 1.5246 1.7278.2541-.2329.4995-.4724.7364-.7183-.3165-.3041-.6266-.6147-.9302-.9836zm-2.7068-1.016h-4.1604c-.0111-.0299-.0264-.0582-.0452-.0841-.0126-.0272-.0278-.0532-.0452-.0776-.1938-.3495-.3876-.6989-.5685-1.0548-.252-.5048-.4845-1.016-.7042-1.5272h4.4058c.1228.22.2455.44.3747.6471s.252.44.3876.6471c.2003.3236.407.6471.6461.9577l.3294.4724z"/></g></svg>