<svg xmlns="http://www.w3.org/2000/svg" width="537" height="394" viewBox="0 0 537 394">
  <g fill="none">
    <rect width="537" height="393.345" fill="#282A29"/>
    <g fill="#FFFFFF" transform="translate(72 156)">
      <polygon points="128.604 27.865 117.409 49.096 106.329 27.865 97.812 27.865 97.812 66.556 105.917 66.556 105.917 42.436 115.212 60.13 119.664 60.13 128.954 42.436 128.954 66.556 137.065 66.556 137.065 27.865"/>
      <path d="M161.505777,27.8649351 L155.007968,27.8649351 L139.668964,66.5558442 L148.264861,66.5558442 L151.756454,57.0753247 L164.684223,57.0753247 L168.170598,66.5558442 L176.766494,66.5558442 L161.505777,27.8649351 Z M163.108048,51.2051948 L153.259562,51.2051948 L158.254263,37.2103896 L163.108048,51.2051948 Z"/>
      <polygon points="172.549 27.865 172.549 35.023 184.752 35.023 184.752 66.556 192.862 66.556 192.862 35.023 205.023 35.023 205.023 27.865"/>
      <polygon points="216.411 59.392 216.411 50.171 232.491 50.171 232.491 43.496 216.411 43.496 216.411 35.023 235.012 35.023 235.012 27.865 208.3 27.865 208.3 66.556 235.503 66.556 235.503 59.392"/>
      <path d="M283.111355 49.974026C281.93744 48.4633815 280.355061 47.3172673 278.549841 46.6701299 280.007985 45.8905748 281.214834 44.7163637 282.030996 43.2831169 282.975505 41.6528917 283.472305 39.8039486 283.471474 37.9220779 283.465586 36.683437 283.252153 35.4544498 282.83996 34.2857143 282.426655 33.1207823 281.81588 32.0349442 281.034143 31.0753247 280.243031 30.1268849 279.273211 29.3415853 278.179283 28.7636364 277.018719 28.1545115 275.72296 27.8454786 274.411076 27.8649351L253.649402 27.8649351 253.649402 66.5560115 272.438247 66.5558442C274.077141 66.562968 275.709032 66.3426663 277.286813 65.9012987 278.737666 65.4985132 280.106563 64.8462621 281.331633 63.974026 282.482936 63.1443358 283.424571 62.0594755 284.082112 60.8051948 284.789403 59.4504238 285.148052 57.9421917 285.125936 56.4155844 285.19541 54.1047968 284.486253 51.8372894 283.111355 49.974026zM274.202311 59.2623377C273.641275 59.4989847 273.037101 59.6174877 272.427809 59.6103896L261.749482 59.6103896 261.749482 50.2597403 272.808805 50.2597403C273.369695 50.2548404 273.923896 50.3811789 274.426733 50.6285714 274.924103 50.8822786 275.363088 51.2360758 275.715857 51.6675325 276.09724 52.121433 276.395765 52.6383407 276.597888 53.1948052 276.818219 53.7829838 276.929621 54.4060405 276.926693 55.0337662 276.926272 55.6479218 276.807569 56.2563032 276.577012 56.825974 276.35363 57.372608 276.029719 57.8729478 275.621912 58.3012987 275.219447 58.7145796 274.73636 59.0416192 274.202311 59.2623377zM274.259721 42.5974026C273.475492 43.3791125 272.404919 43.8087232 271.295259 43.787013L261.749482 43.787013 261.749482 34.8623377 271.624064 34.8623377C272.664241 34.8404637 273.661819 35.2733277 274.353665 36.0467532 275.142551 36.9374207 275.544228 38.10321 275.470558 39.2883117 275.554549 40.5120438 275.114716 41.7140623 274.259721 42.5974026zM313.204821 52.0727273C315.215857 51.1411881 316.899526 49.6300505 318.037729 47.7350649 319.300408 45.6570425 319.956449 43.2699597 319.932271 40.8415584 319.925089 39.2278002 319.607989 37.63029 318.998048 36.1350649 318.375289 34.610461 317.492438 33.2044804 316.388486 31.9792208 315.270632 30.7484374 313.92816 29.7401046 312.43239 29.0077922 310.866365 28.251968 309.146762 27.8645052 307.406375 27.8753247L290.183267 27.8751042 290.183267 66.5662338 298.288566 66.5662338 298.288566 53.812987 305.073426 53.812987 313.079562 66.5558442 322.286096 66.5558442 313.204821 52.0727273zM298.31988 35.0285714L306.95753 35.0285714C307.56789 35.0325328 308.169347 35.1746467 308.716375 35.4441558 309.316312 35.7339419 309.849427 36.1442966 310.282112 36.6493506 310.757775 37.1949852 311.130809 37.8214367 311.383347 38.4987013 311.658918 39.2490843 311.796806 40.0426416 311.790438 40.8415584 311.797259 41.6234819 311.673806 42.4011222 311.4251 43.1428571 311.214188 43.813291 310.885515 44.4411916 310.454343 44.9974026 310.075501 45.5078587 309.589232 45.9298099 309.029522 46.2337662 308.494857 46.5235405 307.895113 46.6736715 307.286335 46.6701299L298.31988 46.6701911 298.31988 35.0285714zM358.835618 40.1350649C357.986269 37.8268439 356.727649 35.689066 355.119602 33.8233766 353.497088 31.9613649 351.525857 30.4316043 349.315936 29.3194805 346.97681 28.1634409 344.396218 27.5742544 341.784741 27.6 339.226095 27.5781116 336.695175 28.1284495 334.378805 29.2103896 332.153145 30.2565535 330.156246 31.7287152 328.502072 33.5428571 326.83634 35.3772706 325.523655 37.500884 324.629482 39.8077922 323.706309 42.1693481 323.233727 44.6815625 323.235976 47.2155844 323.243904 49.6854162 323.687298 52.1346959 324.545976 54.4519481 325.392263 56.7567092 326.659165 58.8859665 328.282869 60.7324675 329.913673 62.5748735 331.89508 64.0773983 334.112629 65.1532468 336.455264 66.2780299 339.027367 66.8487229 341.628167 66.8207792 344.191978 66.843942 346.728272 66.2935989 349.049761 65.2103896 351.263284 64.1680844 353.250763 62.7051559 354.900398 60.9038961 358.288569 57.18179 360.162272 52.3369347 360.156056 47.3142857 360.148337 44.8620966 359.701186 42.4309409 358.835618 40.1350649zM341.737769 59.6103896C340.218989 59.6324995 338.718871 59.2752918 337.374582 58.5714286 336.10854 57.8934501 334.999157 56.9591155 334.117849 55.8285714 333.213391 54.6341774 332.523015 53.2932512 332.077171 51.8649351 331.6088 50.3503182 331.371298 48.7743485 331.37259 47.1896104 331.37336 45.6508424 331.603776 44.1207236 332.056295 42.6493506 332.485921 41.2226968 333.168167 39.8839151 334.070876 38.6961039 334.940414 37.5459799 336.042796 36.5903142 337.306733 35.8909091 338.649245 35.1774086 340.15358 34.8196248 341.675139 34.8519481 343.163783 34.8259871 344.635775 35.1668403 345.96004 35.8441558 347.210654 36.5210931 348.30146 37.4562678 349.159363 38.587013 350.080434 39.7780311 350.786803 41.1191511 351.247012 42.5506494 352.219014 45.5349999 352.235428 48.7462197 351.293984 51.7402597 350.862305 53.173007 350.191888 54.5233986 349.310717 55.7350649 348.458874 56.8932984 347.368045 57.8568327 346.111394 58.561039 344.768306 59.2790163 343.262008 59.6404179 341.737769 59.6103896zM391.611713 50.7844156C391.015673 49.544833 390.149094 48.4533466 389.075219 47.5896104 387.876934 46.6518644 386.536217 45.9101024 385.103466 45.3922078 383.537729 44.8155844 381.825857 44.2701299 379.983506 43.7766234 378.59 43.4285714 377.316534 43.0909091 376.199641 42.7376623 375.284857 42.4854392 374.399593 42.137163 373.558765 41.6987013 372.960988 41.3964555 372.438547 40.9651865 372.029562 40.4363636 371.667083 39.9218133 371.48378 39.303311 371.507649 38.6753247 371.450723 37.5448336 371.968426 36.4615503 372.885498 35.7922078 373.819721 35.0909091 375.286295 34.7532468 377.253904 34.7532468 378.366482 34.7547555 379.474527 34.8943609 380.55239 35.1688312 381.589681 35.4331104 382.603765 35.7805663 383.584701 36.2077922 384.412454 36.5521056 385.210213 36.9638956 385.969841 37.438961 386.435715 37.7170171 386.871249 38.0425805 387.269402 38.4103896L387.592988 38.7428571 391.246375 32.0623377 390.995857 31.8909091C389.126716 30.6565846 387.117274 29.6469547 385.009522 28.8831169 382.592048 28.0139471 380.03813 27.5811883 377.467888 27.6051948 375.594652 27.5937283 373.730132 27.8598475 371.935618 28.3948052 370.302582 28.890564 368.774355 29.6792857 367.426295 30.7220779 366.093349 31.7512162 365.02092 33.076611 364.294821 34.5922078 363.536332 36.2495857 363.158357 38.0543452 363.188367 39.8753247 363.157146 41.2193415 363.394881 42.5561108 363.887729 43.8077922 364.350032 44.9241392 365.064367 45.9195488 365.975378 46.7168831 367.022405 47.5944471 368.198124 48.307453 369.461753 48.8311688 371.024558 49.4942334 372.632594 50.0462645 374.273785 50.4831169 375.635976 50.8363636 377.008606 51.2103896 378.344701 51.5948052 379.396957 51.8941086 380.421834 52.2816428 381.408327 52.7532468 382.128573 53.0856847 382.769161 53.5674298 383.287211 54.1662338 383.715648 54.7158933 383.935575 55.3983522 383.908287 56.0935065 383.908287 58.4935065 382.013745 59.6571429 378.120279 59.6571429 376.696582 59.6601684 375.278113 59.4856492 373.898008 59.1376623 372.60914 58.8155605 371.350243 58.3845593 370.13502 57.8493506 369.123904 57.3913023 368.142536 56.8708073 367.196653 56.2909091 366.595188 55.9495176 366.031844 55.5455211 365.516096 55.0857143L365.182072 54.7532468 361.528685 61.8025974 361.773984 61.974026C364.101905 63.6001956 366.676122 64.8453552 369.399124 65.6623377 372.181498 66.5196326 375.077165 66.9573869 377.989801 66.961039 379.826028 66.966175 381.656524 66.7569538 383.443785 66.3376623 385.104185 65.9633596 386.679608 65.2832699 388.088805 64.3324675 389.431943 63.3908293 390.530435 62.1443125 391.293347 60.6961039 392.12309 59.0249265 392.531508 57.1777786 392.483307 55.3142857 392.527366 53.7591938 392.229913 52.2132667 391.611713 50.7844156z"/>
      <polygon points="233.196 21.491 212.825 25.153 212.825 24.094 233.196 18.255"/>
      <path d="M83.2293625,71.3818182 C83.2293625,71.0909091 83.1980478,70.8 83.1771713,70.5142857 C83.1562948,70.2285714 83.119761,69.8181818 83.0884462,69.4753247 C83.0258167,68.8519481 82.952749,68.2285714 82.8640239,67.6103896 C82.7492032,66.8155844 82.6082869,66.025974 82.446494,65.2415584 C81.5273747,60.7736381 79.8695179,56.4885608 77.5405179,52.561039 C77.1803984,51.9584416 76.8098406,51.3662338 76.4236255,50.7792208 L76.1783267,50.4155844 C74.6821418,48.2124258 72.9782081,46.156359 71.0896813,44.2753247 C70.3329084,43.5220779 69.5239442,42.8051948 68.7201992,42.1090909 C68.7201992,42.025974 68.7201992,41.9428571 68.7619522,41.8597403 C68.8037052,41.5792208 68.840239,41.3038961 68.8715538,41.0233766 C68.9707171,40.2337662 69.049004,39.4649351 69.1116335,38.6441558 C69.1116335,38.3584416 69.1533865,38.0727273 69.1690438,37.7818182 C69.2160159,36.9558442 69.2421116,36.1298701 69.2525498,35.2987013 C69.2525498,34.9974026 69.2525498,34.6961039 69.2525498,34.3948052 C69.2525498,33.5220779 69.2160159,32.6545455 69.1586056,31.7974026 C68.4279283,31.3142857 67.6920319,30.8519481 66.9404781,30.4103896 C66.6795219,30.2545455 66.4185657,30.1038961 66.1523904,29.9584416 C65.4217131,29.5463203 64.6858167,29.1549784 63.9447012,28.7844156 C62.963506,28.2961039 61.9718725,27.838961 60.9698008,27.412987 C60.6984064,27.2987013 60.4165737,27.1948052 60.1399602,27.0857143 C59.9572908,26.161039 59.7589641,25.2363636 59.5136653,24.3324675 C58.8216422,21.7646728 57.8849094,19.2685006 56.7162151,16.8779221 C55.9047616,15.2155835 54.9805809,13.6101422 53.9500797,12.0727273 C53.5586454,11.4857143 53.1567729,10.9090909 52.7340239,10.3428571 L52.5043825,10.0415584 C50.8548387,7.84024135 48.987471,5.80928241 46.9303586,3.97922078 C46.3284197,3.44935065 45.7108234,2.92987013 45.0775697,2.42077922 C44.5556574,2.03116883 44.0702789,1.64675325 43.5535857,1.27792208 L42.681992,0.690909091 L41.9513147,0.207792208 L41.62251,0 L41.3093625,0.197402597 L40.5786853,0.680519481 C40.2916335,0.877922078 39.9993625,1.07532468 39.7175299,1.27792208 C39.1956175,1.64675325 38.6737052,2.03116883 38.1935458,2.42077922 C37.5602922,2.91255411 36.9444356,3.43203463 36.3459761,3.97922078 C34.2873727,5.783973 32.4148665,7.78871259 30.7562948,9.96363636 C29.6460928,11.4211533 28.6364852,12.9519387 27.7344223,14.5454545 C27.384741,15.1584416 27.0559363,15.7766234 26.7375697,16.4051948 L26.5444622,16.8 C25.3757679,19.1905785 24.4390351,21.6867508 23.747012,24.2545455 C23.5173705,25.1064935 23.3242629,25.9688312 23.1520319,26.8519481 L22.6666534,27.0337662 L21.8837849,27.3558442 C21.1531076,27.6623377 20.4172112,27.9948052 19.6969721,28.3376623 L18.9141036,28.7220779 C18.1625498,29.0822511 17.4249137,29.4683983 16.7011952,29.8805195 L15.9131076,30.3376623 C15.1615538,30.7774892 14.422178,31.2380952 13.6949801,31.7194805 C13.6427888,32.5974026 13.606255,33.4805195 13.6010359,34.3584416 C13.6010359,34.6493506 13.6010359,34.9402597 13.6010359,35.2311688 C13.6010359,36.0727273 13.6323506,36.9142857 13.6793227,37.7506494 C13.7419522,38.8242424 13.8411155,39.8978355 13.9768127,40.9714286 C14.0342231,41.438961 14.1072908,41.9012987 14.1751394,42.3636364 C13.4862151,42.9662338 12.8129482,43.5792208 12.1657769,44.2233766 C10.2744376,46.1112634 8.57034143,48.1762246 7.07713147,50.3896104 C6.03665603,51.9175825 5.10200727,53.5143555 4.27968127,55.1688312 C3.96653386,55.8025974 3.66904382,56.4415584 3.38721116,57.0857143 C3.33501992,57.2 3.28282869,57.3142857 3.23585657,57.4337662 C2.17040389,59.9450452 1.35747155,62.5551888 0.808964143,65.225974 C0.647171315,66.0051948 0.50625498,66.7844156 0.396653386,67.5844156 L0.396653386,67.6155844 C0.307928287,68.238961 0.229641434,68.8623377 0.167011952,69.4961039 C0.130478088,69.8441558 0.10438247,70.187013 0.0782868526,70.5350649 C0.0521912351,70.8831169 0.0365338645,71.1116883 0.020876494,71.4025974 L0,71.4025974 L0,71.7714286 C0.109601594,71.8337662 0.224422311,71.8857143 0.334023904,71.9428571 L1.11689243,72.3324675 C1.43525896,72.4883117 1.7536255,72.6337662 2.07199203,72.7792208 C2.64087649,73.038961 3.2201992,73.2987013 3.79952191,73.5116883 C3.81318294,73.5079261 3.82761387,73.5079261 3.8412749,73.5116883 C5.39174219,74.1250475 6.97771384,74.6454591 8.59067729,75.0701299 C12.0464298,75.978943 15.6059378,76.4381784 19.1802789,76.4363636 L19.566494,76.4363636 C20.2710757,76.4363636 20.9704382,76.4051948 21.6541434,76.3636364 C25.4794748,76.1445788 29.2566624,75.4052456 32.8804781,74.1662338 L33.5067729,74.6493506 C34.1330677,75.1272727 34.7941567,75.5930736 35.4900398,76.0467532 L36.1841833,76.5090909 C36.8835458,76.9662338 37.5985657,77.4077922 38.3188048,77.8285714 L39.0651394,78.2597403 C39.8427888,78.6961039 40.6308765,79.1064935 41.4189641,79.5012987 C42.2122709,79.1064935 42.9847012,78.6961039 43.7675697,78.2597403 L44.5191235,77.8337662 C45.2498008,77.4077922 45.9648207,76.961039 46.6746215,76.4987013 C47.8367463,75.7298701 48.9675564,74.9160173 50.0670518,74.0571429 C54.549634,75.6340872 59.2686625,76.4421047 64.022988,76.4467532 C64.8998008,76.4467532 65.7766135,76.4207792 66.6325498,76.3636364 C67.3371315,76.3220779 68.036494,76.2597403 68.7201992,76.1766234 C70.7151502,75.9580496 72.6914643,75.5951855 74.6334661,75.0909091 C76.2534843,74.6669971 77.8464478,74.1465788 79.403745,73.5324675 C79.9882869,73.3038961 80.5623904,73.0597403 81.136494,72.8 C81.4548606,72.6545455 81.7732271,72.5090909 82.0915936,72.3532468 L82.869243,71.9688312 C82.9788446,71.9116883 83.0936653,71.8597403 83.2032669,71.7974026 C83.2398008,71.6311688 83.2345817,71.5116883 83.2293625,71.3818182 Z M69.5865737,45.7142857 C71.4492456,47.5666778 73.1239788,49.5972699 74.586494,51.7766234 L62.58251,58.6701299 L59.9729482,57.1844156 C60.0320983,57.0701299 60.0947278,56.9558442 60.1608367,56.8415584 C61.0934116,55.1206409 61.9263516,53.3480503 62.6555777,51.5324675 C62.9321912,50.8363636 63.17749,50.1350649 63.4384462,49.4285714 C63.5062948,49.2363636 63.5741434,49.0441558 63.6367729,48.8519481 C64.0334263,47.6831169 64.3778884,46.4987013 64.6805976,45.3090909 C65.0511554,45.5116883 65.4217131,45.7246753 65.7870518,45.9376623 C66.4185657,46.3116883 67.0448606,46.7012987 67.6607171,47.1012987 C67.8486056,46.3844156 68.0156175,45.6623377 68.1826295,44.9350649 C68.2139442,44.7948052 68.2400398,44.6545455 68.2661355,44.5090909 C68.7306375,44.8831169 69.1638247,45.2883117 69.5865737,45.7142857 Z M57.7756972,56.8311688 L57.6765339,56.9974026 C57.6452191,57.0493506 57.6191235,57.1064935 57.5825896,57.1584416 C57.4260159,57.4233766 57.2694422,57.6779221 57.1076494,57.9480519 C56.836255,58.3896104 56.5857371,58.8311688 56.2778088,59.2623377 C55.6341169,60.2354978 54.9643293,61.1774892 54.2684462,62.0883117 L52.8018725,59.5688312 L52.6244223,59.2623377 L51.4031474,57.1844156 L49.696494,54.2441558 C49.9731076,53.8025974 50.2184064,53.3558442 50.5054582,52.9038961 C50.79251,52.4519481 51.0273705,51.9948052 51.2778884,51.5324675 C51.6467065,50.8398268 51.9946481,50.1385281 52.3217131,49.4285714 C52.4887251,49.0753247 52.6557371,48.7168831 52.8436255,48.3584416 L53.4594821,49.4285714 L54.6859761,51.5324675 L56.1995219,54.1298701 L56.9667331,55.4545455 L57.7756972,56.8311688 Z M25.2501195,57.1428571 L25.1561753,56.9818182 L25.0622311,56.8207792 C24.9630677,56.6441558 24.8743426,56.4675325 24.7751793,56.3012987 C24.4724701,55.7818182 24.169761,55.2103896 23.8827092,54.6545455 C23.3607968,53.6155844 22.8701992,52.5766234 22.4161355,51.5012987 L31.565259,51.5012987 C31.8105578,51.9584416 32.0871713,52.4155844 32.327251,52.8675325 C32.5673307,53.3194805 32.8491633,53.7714286 33.1362151,54.212987 C33.553745,54.8813853 33.9851926,55.5411255 34.4305578,56.1922078 C34.6549801,56.5142857 34.8794024,56.8363636 35.1142629,57.1532468 L25.2501195,57.1532468 L25.2501195,57.1428571 Z M30.213506,59.2207792 L36.721753,59.2207792 C37.7238247,60.4571429 38.7798274,61.64329 39.889761,62.7792208 C38.7154582,63.8701299 37.483745,64.8883117 36.2363745,65.8545455 C35.4013147,66.4883117 34.5505976,67.1012987 33.679004,67.6831169 C32.3911586,66.4585817 31.1715428,65.1648759 30.0256175,63.8077922 C29.5454582,63.2363636 29.0652988,62.6493506 28.6112351,62.0519481 C27.9014343,61.1376623 27.2333865,60.1922078 26.5914343,59.2207792 L30.213506,59.2207792 Z M35.6100797,54.1246753 C35.1716733,53.4597403 34.7489243,52.7844156 34.3418327,52.0987013 L34.1591633,51.7818182 L33.976494,51.4649351 C33.5798406,50.7722944 33.202324,50.0709957 32.8439442,49.361039 C32.2872377,48.2666667 31.7757636,47.1549784 31.3095219,46.025974 L34.9629084,39.6935065 C36.173745,39.5324675 37.3950199,39.412987 38.6162948,39.3454545 C39.4096016,39.2987013 40.1820319,39.2727273 41.0066534,39.2675325 L41.7477689,39.2675325 C42.5462948,39.2675325 43.3448207,39.2987013 44.1433466,39.3402597 C45.3750598,39.412987 46.5928552,39.5290043 47.7967331,39.6883117 L51.4501195,46.025974 C50.9803984,47.1480519 50.4689243,48.2649351 49.8843825,49.361039 C49.5364409,50.0536797 49.160664,50.7549784 48.7570518,51.4649351 L48.5743825,51.7818182 L48.386494,52.0987013 C47.9828818,52.791342 47.5618725,53.4666667 47.1234661,54.1246753 C46.4449801,55.1636364 45.724741,56.1506494 44.9731873,57.1168831 L37.6664143,57.1168831 C36.9740106,56.178355 36.2885657,55.1948052 35.6100797,54.1662338 L35.6100797,54.1246753 Z M27.7813944,30.8779221 C29.4965682,30.3719477 31.2390418,29.9626401 33.0005179,29.6519481 C33.7416335,29.5168831 34.4879681,29.4025974 35.2395219,29.3090909 C36.3929482,29.1636364 37.5463745,29.0545455 38.7206773,28.9922078 L36.9200797,32.2077922 L36.8261355,32.374026 L35.6988048,34.2857143 L33.6685657,37.7922078 C32.875259,37.9116883 32.1028287,38.0519481 31.3095219,38.212987 C30.5162151,38.374026 29.7437849,38.5558442 28.9504781,38.7324675 C28.6007968,37.2623377 28.3346215,35.7818182 28.1310757,34.2909091 C27.9797211,33.1896104 27.8596813,32.0571429 27.7866135,30.9194805 L27.7813944,30.8779221 Z M41.413745,28.9194805 L41.6016335,28.9194805 L42.6767729,28.9194805 C43.146494,28.9194805 43.6162151,28.9506494 44.0859363,28.9766234 C45.2480611,29.038961 46.4067065,29.1428571 47.5618725,29.2883117 L45.9282869,32.2077922 L45.8656574,32.3220779 L44.7017928,34.2857143 L42.9951394,37.225974 L42.4732271,37.225974 L40.3855777,37.225974 C40.2081275,37.225974 40.0358964,37.225974 39.8636653,37.225974 C39.0755777,37.225974 38.2979283,37.2935065 37.4994024,37.3506494 L36.3250996,37.4545455 L36.9409562,36.4155844 L38.1622311,34.3376623 L39.4043825,32.1974026 L40.5630279,30.1298701 L41.2310757,28.961039 L41.413745,28.9194805 Z M57.1180876,51.4649351 L55.8968127,49.361039 L53.8613546,45.8545455 C54.1536255,45.1134199 54.4250199,44.365368 54.6755378,43.6103896 C54.9312749,42.8467532 55.1661355,42.0519481 55.3853386,41.3090909 C56.9885503,41.7946814 58.5651406,42.3634241 60.1086454,43.012987 C61.0167729,43.3974026 61.9196813,43.7974026 62.8017131,44.2337662 C62.3751787,45.9702842 61.8524679,47.6819897 61.2359761,49.361039 C60.9750199,50.0536797 60.6984064,50.7549784 60.4061355,51.4649351 C59.9572908,52.5038961 59.4719124,53.5792208 58.9395618,54.6181818 L57.3059761,51.7974026 L57.1180876,51.4649351 Z M60.5418327,29.4337662 C61.7526693,29.9532468 62.9408898,30.5246753 64.106494,31.1480519 C64.8267331,31.5324675 65.5400133,31.9359307 66.2463347,32.3584416 L67.1127092,32.8779221 C67.1127092,33.2155844 67.1388048,33.5532468 67.1388048,33.8909091 C67.1388048,33.9532468 67.1388048,34.0103896 67.1388048,34.0727273 L67.0135458,34 L66.9561355,33.9636364 L66.81,33.8805195 L66.1628287,33.5064935 C65.4634661,33.1116883 64.7432271,32.7220779 64.022988,32.3584416 C63.7359363,32.212987 63.4488845,32.0727273 63.1722709,31.9428571 C62.4729084,31.6051948 61.7526693,31.2779221 61.0324303,30.9714286 L60.7036255,30.8363636 L60.1817131,30.6181818 C59.6250066,30.3965368 59.0613413,30.1835498 58.4907171,29.9792208 L58.2610757,29.8909091 C58.2610757,30.5298701 58.2610757,31.174026 58.2088845,31.8077922 L58.6994821,32 C59.2213944,32.1974026 59.711992,32.3896104 60.2078088,32.5974026 L60.8706375,32.8883117 L61.1315936,33.0025974 C61.8413944,33.3194805 62.5459761,33.6571429 63.219243,34.0051948 L64.1273705,34.4779221 C64.8319522,34.8519481 65.5469721,35.2519481 66.2150199,35.6623377 C66.5072908,35.838961 66.7995618,36.0155844 67.0866135,36.1818182 L67.0866135,36.3636364 C67.0866135,36.6857143 67.0866135,37.0025974 67.0448606,37.3194805 C67.0448606,37.3818182 67.0448606,37.438961 67.0448606,37.4961039 L66.9300398,37.4285714 L66.8726295,37.3974026 L66.7839044,37.3402597 C66.5333865,37.1948052 66.261992,37.0441558 66.006255,36.8987013 C65.3225498,36.5142857 64.6336255,36.1402597 63.9186056,35.7922078 C63.6211155,35.6415584 63.3079681,35.4857143 62.9896016,35.3350649 C62.3006773,35.0077922 61.6013147,34.6961039 60.9019522,34.4 C60.6096813,34.2753247 60.301753,34.1506494 59.9833865,34.025974 C59.5815139,33.8649351 59.1744223,33.7194805 58.7673307,33.5688312 C58.5429084,33.4857143 58.3184861,33.3922078 58.0992829,33.3142857 C58.0523108,33.9324675 57.9896813,34.561039 57.9166135,35.1792208 C58.2088845,35.2883117 58.5011554,35.4077922 58.7934263,35.5220779 C59.0856972,35.6363636 59.5188845,35.7974026 59.8685657,35.9428571 C60.218247,36.0883117 60.5313944,36.2181818 60.8654183,36.3688312 C61.5491235,36.6701299 62.2380478,36.9922078 62.9060956,37.3246753 C63.2349004,37.4909091 63.5689243,37.6571429 63.8872908,37.8441558 C64.5762151,38.2025974 65.2599203,38.587013 65.9279681,38.9766234 C66.2463347,39.1636364 66.5647012,39.3558442 66.8778486,39.5532468 L66.8778486,39.6935065 C66.8778486,39.9792208 66.8204382,40.2545455 66.7839044,40.5350649 C66.7839044,40.5662338 66.7839044,40.5922078 66.7839044,40.6233766 C66.7839044,40.6545455 66.7839044,40.7376623 66.7839044,40.7896104 L66.7369323,40.7896104 L66.684741,40.7584416 L65.6983267,40.1974026 C65.035498,39.8337662 64.357012,39.4753247 63.6785259,39.1584416 C63.3497211,38.9974026 63.0156972,38.8311688 62.6816733,38.6753247 C62.0084064,38.3636364 61.3247012,38.0623377 60.6462151,37.7818182 C60.3174104,37.6415584 59.9729482,37.5064935 59.6023904,37.3714286 C58.9813147,37.1324675 58.3550199,36.8987013 57.7287251,36.6857143 C57.64,37.2935065 57.5408367,37.9064935 57.4312351,38.5038961 C58.062749,38.7324675 58.7099203,38.9714286 59.3414343,39.225974 C59.6963347,39.3662338 60.0564542,39.5168831 60.385259,39.6675325 L60.6201195,39.7714286 C61.2203187,40.0311688 61.8205179,40.2909091 62.3998406,40.5818182 C62.7495219,40.7480519 63.0992032,40.9246753 63.4436653,41.1012987 C64.0803984,41.4285714 64.7275697,41.7818182 65.3590837,42.1402597 L65.4321514,42.1818182 C65.7713944,42.3792208 66.1158566,42.5766234 66.4446614,42.7792208 C66.4471896,42.8259402 66.4471896,42.8727611 66.4446614,42.9194805 L66.4446614,42.9662338 L66.2880876,43.8285714 C65.9279681,43.6207792 65.5626295,43.4233766 65.1972908,43.225974 C64.5605578,42.8831169 63.9081673,42.5506494 63.2557769,42.238961 C62.4937849,41.8701299 61.7213546,41.5168831 60.9437052,41.2 L60.4739841,41.012987 C58.9743559,40.4 57.4503718,39.8597403 55.9020319,39.3922078 C55.2287649,39.1896104 54.555498,39.0025974 53.877012,38.8311688 C53.7204382,39.5116883 53.542988,40.187013 53.3550996,40.8623377 C53.0993625,41.7818182 52.8331873,42.6961039 52.4887251,43.6 L50.5367729,40.2337662 L49.1641434,37.8701299 C48.2925498,37.7350649 47.4105179,37.6207792 46.5545817,37.5324675 L45.3750598,37.4285714 L45.9282869,36.3948052 L47.1495618,34.3168831 L48.1359761,32.6077922 L49.821753,29.7090909 L50.9386454,27.7818182 L51.6171315,26.6077922 C52.8070916,26.8623377 53.9813944,27.1636364 55.1504781,27.5064935 C55.8463612,27.7142857 56.5422444,27.9376623 57.2381275,28.1766234 C57.5825896,28.2961039 57.9218327,28.4311688 58.2819522,28.5558442 C59.0282869,28.8155844 59.7850598,29.0909091 60.5418327,29.4337662 Z M42.681992,3.26233766 C45.7994063,5.53078848 48.5624124,8.24590926 50.8812351,11.3194805 L42.681992,16.0363636 L42.681992,3.26233766 Z M42.681992,18.4675325 L52.1129482,13.0441558 C54.5295452,16.6429423 56.3350973,20.6127948 57.4573307,24.7948052 C57.5773705,25.2415584 57.6869721,25.6883117 57.7913546,26.1402597 C57.5930279,26.0727273 57.3999203,25.9948052 57.2015936,25.9324675 C56.4865737,25.6987013 55.7767729,25.4805195 55.061753,25.2779221 C54.3467331,25.0753247 53.4960159,24.8623377 52.7131474,24.6805195 C52.3217131,24.5922078 51.9250598,24.5038961 51.5336255,24.425974 C51.1421912,24.3480519 50.8655777,24.2909091 50.5315538,24.2337662 L49.4094422,26.1662338 L48.7048606,27.3818182 C46.7610332,27.097017 44.8023765,26.9235713 42.8385657,26.8623377 L42.681992,26.8623377 L42.681992,18.4675325 Z M40.5630279,3.26233766 L40.5630279,21.9220779 L29.5506773,15.5844156 C32.2974828,10.7430037 36.0521221,6.54181536 40.5630279,3.26233766 Z M25.7876892,24.7948052 C26.4679383,22.2629605 27.3979854,19.8042512 28.5642629,17.4545455 L40.568247,24.3480519 L40.568247,26.8571429 L40.3699203,26.8571429 L40.0045817,26.8571429 C38.0407439,26.9179294 36.0820614,27.0913775 34.1382869,27.3766234 C33.3902125,27.4874459 32.6490969,27.6121212 31.9149402,27.7506494 L31.314741,27.8753247 C30.1039044,28.1194805 28.8982869,28.3948052 27.7083267,28.7480519 C27.7083267,28.3324675 27.7083267,27.9116883 27.7083267,27.4961039 C27.7083267,26.7584416 27.7344223,26.0207792 27.7866135,25.2831169 C27.0663745,25.4805195 26.3565737,25.6987013 25.6467729,25.9324675 L25.5006375,25.9792208 C25.5876228,25.5844156 25.6833068,25.1896104 25.7876892,24.7948052 Z M15.7147809,36.3896104 C15.7147809,35.5636364 15.6886853,34.7324675 15.7147809,33.9064935 C15.7147809,33.5844156 15.7147809,33.2571429 15.7460956,32.9298701 L16.6124701,32.4103896 L16.7742629,32.3220779 C16.771519,32.3566561 16.771519,32.3913958 16.7742629,32.425974 L16.7742629,32.4935065 C16.7742629,32.5506494 16.7742629,32.6025974 16.7742629,32.6597403 L16.7742629,33.4025974 C16.7742629,34.2025974 16.8055777,35.0181818 16.8473307,35.8233766 C16.8473307,36.1402597 16.8890837,36.4571429 16.904741,36.7636364 C16.9621514,37.5376623 17.0404382,38.3220779 17.1343825,39.0909091 C17.1709163,39.3818182 17.2074502,39.6727273 17.2492032,39.9584416 C17.2492032,39.9584416 17.2492032,39.9896104 17.2492032,40.0051948 C17.3431474,40.6753247 17.4579681,41.3558442 17.578008,42.025974 C18.1312351,41.7090909 18.7053386,41.4025974 19.269004,41.1116883 C19.1489641,40.4103896 19.0445817,39.6987013 18.9610757,38.987013 C18.9610757,38.9298701 18.9610757,38.8675325 18.9610757,38.8051948 C18.9262815,38.5350649 18.8949668,38.2649351 18.8671315,37.9948052 C18.7888446,37.225974 18.7262151,36.4363636 18.6896813,35.6779221 C18.6635857,35.3298701 18.6531474,34.987013 18.6427092,34.638961 C18.6427092,33.838961 18.6061753,33.0285714 18.6427092,32.2337662 C18.6427092,31.9116883 18.6427092,31.5792208 18.6427092,31.2519481 L18.7366534,31.1688312 L19.5925896,30.7272727 L19.7491633,30.6493506 L19.7491633,30.9194805 C19.7491633,31.2034632 19.7491633,31.4995671 19.7491633,31.8077922 C19.7491633,32.587013 19.7491633,33.3662338 19.8222311,34.1454545 C19.8222311,34.4779221 19.8639841,34.825974 19.8848606,35.1844156 C19.94749,35.9376623 20.0257769,36.7012987 20.114502,37.4441558 C20.114502,37.6155844 20.1614741,37.8025974 20.1875697,37.9636364 C20.2136653,38.1246753 20.2293227,38.2753247 20.2501992,38.4311688 C20.3389243,39.038961 20.4380876,39.6415584 20.5476892,40.2337662 L20.579004,40.4155844 C21.1374502,40.1506494 21.7115538,39.8961039 22.2908765,39.6363636 C22.2908765,39.5012987 22.2543426,39.3662338 22.228247,39.2311688 C22.1395219,38.6805195 22.0455777,38.1246753 21.9777291,37.574026 C21.9516335,37.387013 21.930757,37.1948052 21.9098805,36.9974026 L21.847251,36.4779221 C21.7689641,35.7298701 21.7063347,34.9714286 21.6593625,34.2233766 C21.6332669,33.8545455 21.6176096,33.4857143 21.6071713,33.1272727 C21.5758566,32.3532468 21.5654183,31.5688312 21.5706375,30.8 C21.5706375,30.4415584 21.5706375,30.0831169 21.5706375,29.7298701 L21.7011155,29.6675325 C21.9829482,29.5376623 22.2752191,29.412987 22.5570518,29.2935065 L22.6979681,29.2363636 L22.6979681,29.3246753 C22.6979681,29.7038961 22.6979681,30.0831169 22.6979681,30.4519481 C22.6979681,31.2051948 22.7397211,31.9688312 22.7866932,32.7220779 C22.7866932,33.0857143 22.8388845,33.4545455 22.8701992,33.8233766 C22.9328287,34.561039 23.0111155,35.2987013 23.1050598,36.025974 C23.1520319,36.3792208 23.2042231,36.7428571 23.2616335,37.1064935 C23.3607968,37.761039 23.4756175,38.4155844 23.5956574,39.0597403 C24.1749801,38.8311688 24.7543028,38.6181818 25.3336255,38.4103896 C25.2083665,37.7506494 25.0987649,37.0753247 25.0048207,36.4051948 C24.9630677,36.1038961 24.9213147,35.8077922 24.8847809,35.5064935 L24.8534661,35.2623377 C24.7699602,34.5350649 24.6968924,33.7922078 24.6447012,33.0701299 C24.6133865,32.6805195 24.59251,32.2909091 24.5716335,31.9064935 C24.5716335,31.6883117 24.5716335,31.4701299 24.5716335,31.2467532 C24.5716335,30.7272727 24.5403187,30.1818182 24.5403187,29.6519481 C24.5403187,29.2727273 24.5403187,28.8883117 24.5403187,28.5090909 L24.6707968,28.4571429 L24.9526295,28.3584416 L25.5476096,28.1454545 C25.5476096,28.5454545 25.5476096,28.9506494 25.5476096,29.3558442 C25.5476096,30.0883117 25.6050199,30.8155844 25.6572112,31.5480519 C25.7198406,32.3792208 25.8033466,33.2155844 25.9077291,34.0415584 C25.9442629,34.374026 25.9964542,34.7012987 26.0434263,35.0285714 C26.2469721,36.4571429 26.5131474,37.8805195 26.8471713,39.2883117 C27.0089641,39.974026 27.1864143,40.6545455 27.3690837,41.3350649 C28.0371315,41.1324675 28.7103984,40.9454545 29.3941036,40.7688312 C30.3178884,40.5350649 31.2573307,40.3220779 32.2072112,40.1402597 L30.3387649,43.5324675 L28.9713546,45.8961039 C29.2897211,46.7168831 29.6289641,47.5324675 30.0151793,48.3324675 C30.1769721,48.6909091 30.3387649,49.0493506 30.5370916,49.4025974 L17.9955378,49.4025974 C17.619761,48.2597403 17.2961753,47.1064935 17.0143426,45.9428571 C16.8421116,45.2207792 16.6855378,44.4935065 16.5446215,43.7662338 C16.5080876,43.5792208 16.481992,43.3974026 16.4506773,43.2103896 C16.3045418,42.4103896 16.1792829,41.6103896 16.0801195,40.8 C15.8922311,39.3402597 15.7669721,37.8649351 15.7147809,36.3896104 Z M5.21912351,58.1246753 L13.4027092,62.8 L2.31207171,69.2155844 C2.72538242,65.3959876 3.70503841,61.6584293 5.21912351,58.1246753 Z M19.5821514,74.3532468 L19.1959363,74.3532468 C13.7400837,74.3470427 8.34478055,73.2149923 3.35067729,71.0285714 L19.5821514,61.6779221 L19.5821514,74.3532468 Z M15.5164542,61.6155844 L6.12203187,56.2025974 C8.23992167,51.9316183 11.1167699,48.077321 14.6135458,44.825974 L14.6135458,44.9090909 C14.7701195,45.6467532 14.9371315,46.3792208 15.1354582,47.1064935 C15.3337849,47.8337662 15.5477689,48.6649351 15.7774104,49.4025974 C15.8974502,49.787013 16.0227092,50.1662338 16.1479681,50.5454545 C16.2732271,50.9246753 16.3671713,51.1896104 16.481992,51.5064935 L20.1353785,51.5064935 C20.8685541,53.3212187 21.7031788,55.0936864 22.6353386,56.8155844 L22.8232271,57.1584416 L22.9380478,57.361039 L15.5164542,61.6155844 Z M21.7115538,74.2857143 L21.7115538,60.4935065 L24.0079681,59.1792208 C24.0079681,59.1792208 24.044502,59.2311688 24.0601594,59.2623377 C25.0916253,60.9251296 26.2154829,62.5293536 27.426494,64.0675325 C27.8962151,64.6528139 28.3763745,65.2294372 28.8669721,65.7974026 C29.7437849,66.8051948 30.6623506,67.7766234 31.6122311,68.7116883 L31.8001195,68.8935065 C31.4504382,69.1064935 31.0903187,69.3090909 30.7301992,69.5116883 C30.0830279,69.8805195 29.4201992,70.2337662 28.7521514,70.5506494 C29.2740637,71.0701299 29.8481673,71.5896104 30.4118327,72.1090909 L30.933745,72.5714286 C27.9393457,73.5067933 24.8432918,74.0823096 21.7115538,74.2857143 Z M44.4303984,75.412987 C43.7258167,75.8545455 43.0003586,76.2753247 42.2749004,76.6753247 L41.4189641,77.1324675 C41.1319124,76.9818182 40.8448606,76.8311688 40.5630279,76.6753247 L40.4012351,76.5818182 L40.484741,76.5350649 L40.5421514,76.5038961 L40.693506,76.4207792 L41.3354582,76.0519481 C42.0348207,75.6467532 42.7341833,75.2207792 43.4231076,74.7792208 C43.6892829,74.6077922 43.9450199,74.4311688 44.2059761,74.2597403 C44.8531474,73.8285714 45.4950996,73.3714286 46.1213944,72.9038961 L46.4867331,72.6233766 L46.8572908,72.3428571 C47.3792032,71.9532468 47.8593625,71.5428571 48.3499602,71.1324675 L48.4491235,71.0493506 C47.8958964,70.7272727 47.3478884,70.3896104 46.8103187,70.0519481 L46.5180478,70.2857143 C46.0587649,70.6545455 45.5890438,71.0233766 45.1141036,71.3766234 C44.962749,71.4961039 44.8009562,71.6103896 44.6391633,71.7246753 L44.3051394,71.974026 C43.6788446,72.4207792 43.0264542,72.8675325 42.3792829,73.2883117 C42.087012,73.4753247 41.7999602,73.6623377 41.5129084,73.838961 C40.8292032,74.2597403 40.1298406,74.6701299 39.425259,75.0545455 C39.1486454,75.2103896 38.8615936,75.3662338 38.5745418,75.5168831 L38.4440637,75.438961 L38.412749,75.438961 L37.6298805,74.9194805 L37.4733068,74.8051948 L37.5463745,74.7636364 L37.6037849,74.7324675 C37.6344657,74.7170946 37.6641039,74.6997415 37.69251,74.6805195 L38.4701594,74.238961 C39.1434263,73.8441558 39.8166932,73.4285714 40.4638645,73.0025974 C40.7456972,72.8207792 41.032749,72.6285714 41.330239,72.425974 C41.9565339,72 42.5828287,71.5532468 43.1830279,71.1012987 L43.3291633,70.9922078 C43.5431474,70.825974 43.7675697,70.6597403 43.9867729,70.4727273 C44.3782072,70.1714286 44.7592032,69.8597403 45.1349801,69.5480519 L45.55251,69.2 C45.088008,68.8831169 44.6182869,68.5506494 44.159004,68.212987 L44.0180876,68.1090909 C43.4961753,68.5558442 42.93251,68.9922078 42.384502,69.412987 L41.6329482,69.9688312 L41.5129084,70.0623377 C40.9022709,70.5038961 40.2759761,70.9350649 39.6496813,71.3506494 C39.3365339,71.5532468 39.0286056,71.7558442 38.7154582,71.9480519 C38.0630677,72.3584416 37.3845817,72.7584416 36.7113147,73.1376623 L35.7875299,73.6571429 C35.7454952,73.6324476 35.7053706,73.6046649 35.66749,73.574026 L35.2499602,73.2727273 L34.905498,73.0233766 L34.7698008,72.9194805 L34.8272112,72.8883117 L35.8031873,72.3220779 C36.4555777,71.9324675 37.102749,71.5272727 37.7342629,71.1116883 L38.6528287,70.4883117 C39.2634661,70.0675325 39.8636653,69.625974 40.4482072,69.1844156 C40.735259,68.9662338 41.0223108,68.7428571 41.3145817,68.5090909 C41.836494,68.0935065 42.3584064,67.6727273 42.8437849,67.2415584 C42.3584064,66.8571429 41.878247,66.4675325 41.413745,66.0675325 C40.8918327,66.5090909 40.3699203,66.9402597 39.848008,67.361039 L38.919004,68.0519481 L38.8824701,68.0779221 C38.2979283,68.5090909 37.7081673,68.9298701 37.1131873,69.3298701 C36.7948207,69.5480519 36.4607968,69.7662338 36.1372112,69.974026 C35.5109163,70.374026 34.8585259,70.7688312 34.2061355,71.1480519 C33.8773307,71.3350649 33.5485259,71.5220779 33.2197211,71.6987013 L33.1101195,71.6103896 L32.4003187,71.0181818 C32.7447809,70.8155844 33.089243,70.612987 33.4441434,70.4051948 C34.0756574,70.0155844 34.6967331,69.6155844 35.3073705,69.2 C36.1946215,68.5974026 37.060996,67.9636364 37.9169323,67.3090909 C39.1382072,66.3636364 40.3142497,65.3645022 41.4450598,64.3116883 C41.7164542,64.0571429 41.9669721,63.7922078 42.2540239,63.5376623 C42.5410757,63.2831169 42.7341833,63.0597403 42.9690438,62.8207792 C42.4471315,62.3376623 41.9252191,61.8441558 41.4450598,61.3350649 C40.7874502,60.6649351 40.1402789,59.974026 39.5192032,59.2571429 L46.1161753,59.2571429 C46.6694024,58.5645022 47.2052324,57.8718615 47.7236653,57.1792208 C47.9533068,56.8623377 48.1829482,56.5402597 48.4073705,56.212987 L48.9658167,57.1428571 L50.1870916,59.2207792 L51.4031474,61.2987013 L52.8436255,63.787013 L53.9709562,65.7350649 L54.6442231,66.8831169 C53.8300398,67.769697 52.9862815,68.6251082 52.1129482,69.4493506 C51.5910359,69.9688312 51.006494,70.4883117 50.4376096,70.9558442 C50.1818725,71.174026 49.9156972,71.3818182 49.6599602,71.5948052 C49.0284462,72.1142857 48.3917131,72.6337662 47.7341036,73.1012987 C46.665923,73.9324675 45.5646879,74.6995671 44.4303984,75.4025974 L44.4303984,75.412987 Z M66.6534263,74.2857143 C65.7818327,74.3428571 64.9050199,74.374026 64.0438645,74.374026 C59.9605954,74.3711066 55.9024328,73.7384946 52.0137849,72.4987013 L52.441753,72.1298701 C53.0106375,71.6103896 53.5638645,71.0909091 54.1066534,70.5714286 L54.2475697,70.4363636 C54.7694821,69.9168831 55.2913944,69.3974026 55.7715538,68.8779221 C56.2517131,68.3584416 56.7736255,67.7818182 57.2537849,67.2207792 L56.1264542,65.2727273 L55.4270916,64.0727273 C56.6432432,62.537156 57.7689811,60.9327356 58.7986454,59.2675325 L58.9552191,59.0077922 L66.6690837,63.438961 L66.6534263,74.2857143 Z M68.7410757,74.0831169 L68.7410757,64.6493506 L79.8525896,71.0337662 C76.324485,72.5789346 72.5878937,73.601053 68.7619522,74.0675325 L68.7410757,74.0831169 Z M64.7171315,59.8857143 L75.7242629,53.5584416 C78.5684471,58.3461364 80.3481595,63.685196 80.9433865,69.2155844 L64.7171315,59.8857143 Z"/>
    </g>
  </g>
</svg>
