<svg xmlns="http://www.w3.org/2000/svg" width="537" height="394" viewBox="0 0 537 394">
  <g fill="none">
    <rect width="537" height="393.345" fill="#F9F9FA"/>
    <g transform="translate(74 157)">
      <polygon fill="#009DDC" points="127.742 27.853 116.627 49.08 105.619 27.853 97.154 27.853 97.154 66.533 105.207 66.533 105.207 42.427 114.444 60.107 118.863 60.107 128.101 42.427 128.101 66.533 136.154 66.533 136.154 27.853"/>
      <path fill="#009DDC" d="M160.432423,27.8533333 L153.990102,27.8533333 L138.749488,66.52 L147.294881,66.52 L150.755631,57.04 L163.600341,57.04 L167.061092,66.52 L175.606485,66.52 L160.432423,27.8533333 Z M162.016382,51.1866667 L152.233106,51.1866667 L157.197952,37.2 L162.016382,51.1866667 Z"/>
      <polygon fill="#009DDC" points="171.4 27.853 171.4 35.013 183.526 35.013 183.526 66.533 191.579 66.533 191.579 35.013 203.652 35.013 203.652 27.853"/>
      <polygon fill="#009DDC" points="214.966 59.373 214.966 50.16 230.939 50.16 230.939 43.48 214.966 43.48 214.966 35.013 233.441 35.013 233.441 27.853 206.913 27.853 206.913 66.533 233.933 66.533 233.933 59.373"/>
      <path fill="#009DDC" d="M281.225939 49.96C280.057424 48.4511309 278.482549 47.3084353 276.687031 46.6666667 278.136467 45.8874293 279.336252 44.7133282 280.147782 43.28 281.089725 41.6609964 281.585795 39.8205572 281.585324 37.9466667 281.57942 36.7145561 281.36334 35.4925191 280.946416 34.3333333 280.543524 33.1662138 279.939884 32.0787061 279.162799 31.12 278.375522 30.1747205 277.412692 29.3913674 276.327645 28.8133333 275.173657 28.2107402 273.888643 27.9038253 272.587372 27.92L251.955973 27.92 251.955973 66.5867318 270.590785 66.5866667C272.219226 66.5910808 273.840545 66.3712455 275.409215 65.9333333 276.841222 65.5297895 278.192365 64.8801322 279.402389 64.0133333 280.565794 63.167181 281.517936 62.0628153 282.1843 60.7866667 282.873794 59.4290402 283.221099 57.9230039 283.195904 56.4 283.272638 54.0935953 282.579423 51.8274106 281.225939 49.96zM272.374403 59.2933333C271.819758 59.5319125 271.220942 59.6500626 270.617406 59.64L259.968942 59.64 259.968942 50.3066667 270.950171 50.3066667C271.507538 50.3008749 272.058714 50.4240748 272.560751 50.6666667 273.066907 50.9130474 273.519306 51.2574584 273.891809 51.68 274.269224 52.1375815 274.566283 52.6560705 274.770307 53.2133333 274.984002 53.803071 275.092145 54.4259525 275.089761 55.0533333 275.094702 55.6660664 274.977027 56.2735797 274.743686 56.84 274.524477 57.3885233 274.203843 57.8906524 273.798635 58.32 273.39507 58.7252085 272.90939 59.0389394 272.374403 59.24L272.374403 59.2933333zM272.374403 42.6133333C271.599414 43.398672 270.534795 43.8281427 269.432765 43.8L259.955631 43.8 259.955631 34.8533333 269.765529 34.8533333C270.780064 34.8427239 271.750031 35.2702389 272.427645 36.0266667 273.212658 36.9217925 273.614317 38.0905106 273.545734 39.28 273.648067 40.4819391 273.242476 41.6717742 272.427645 42.56L272.374403 42.6133333zM311.121502 52C313.117041 51.0704958 314.786832 49.5604681 315.913311 47.6666667 317.172074 45.5901174 317.826709 43.202617 317.803413 40.7733333 317.799343 39.1588762 317.482928 37.560513 316.871672 36.0666667 316.255393 34.5731089 315.386315 33.1973475 314.30273 32 313.193428 30.7689746 311.860981 29.7600129 310.376109 29.0266667 308.820708 28.2714764 307.113095 27.8837558 305.384642 27.8933333L288.280546 27.8931601 288.280546 66.56 296.266894 66.56 296.266894 53.8 303.002048 53.8 310.988396 66.5333333 320.132765 66.5333333 311.121502 52zM296.333447 35.0133333L304.918771 35.0133333C305.524792 35.0211609 306.121084 35.1670689 306.662457 35.44 307.256687 35.7251042 307.783145 36.1342615 308.206485 36.64 308.67538 37.1843492 309.044852 37.8072057 309.297952 38.48 309.567232 39.2327587 309.702393 40.0270547 309.69727 40.8266667 309.702364 41.6099328 309.581003 42.3888721 309.337884 43.1333333 309.124913 43.8033741 308.796017 44.4306978 308.366212 44.9866667 308.014482 45.482012 307.560536 45.8958083 307.035154 46.2 306.505131 46.4917601 305.909548 46.6432049 305.304778 46.64L296.4 46.64 296.333447 35.0133333zM356.444027 40.12C355.591776 37.8126278 354.334055 35.6767165 352.730375 33.8133333 351.119923 31.9626034 349.167347 30.4413368 346.980205 29.3333333 344.656936 28.177242 342.093675 27.5878719 339.499659 27.6133333 336.960825 27.5933588 334.449915 28.1446984 332.152218 29.2266667 329.939306 30.2727964 327.953741 31.7452603 326.308874 33.56 322.894869 37.2910819 320.995932 42.1654263 320.984642 47.2266667 321.003429 49.6992902 321.453905 52.1495586 322.3157 54.4666667 323.160897 56.7722578 324.424465 58.9013936 326.042662 60.7466667 327.666358 62.5825352 329.633455 64.0818958 331.832765 65.16 334.160736 66.2834922 336.716079 66.853838 339.3 66.8266667 341.84738 66.8465569 344.366933 66.2953167 346.674061 65.2133333 348.876408 64.1742044 350.852918 62.7108088 352.490785 60.9066667 354.150452 59.0802761 355.46312 56.9655718 356.364164 54.6666667 357.271128 52.3111829 357.722831 49.8044676 357.695222 47.28 357.704007 44.838006 357.280382 42.4138024 356.444027 40.12zM339.419795 59.5866667C337.910666 59.6111159 336.419267 59.2582507 335.080546 58.56 333.82541 57.8825782 332.724083 56.9518876 331.846075 55.8266667 330.95108 54.6173067 330.267005 53.2648514 329.822867 51.8266667 329.358839 50.319479 329.125474 48.7505606 329.130717 47.1733333 329.130551 45.6368047 329.359352 44.1088577 329.809556 42.64 330.22278 41.1945994 330.899731 39.8383848 331.806143 38.64 332.667832 37.4918928 333.760723 36.5379531 335.013993 35.84 336.346579 35.1226735 337.840669 34.7599897 339.353242 34.7866667 340.833782 34.7616995 342.297351 35.1053097 343.612628 35.7866667 344.854788 36.4377008 345.943902 37.3468472 346.807167 38.4533333 347.722359 39.6560242 348.420585 41.009739 348.870307 42.4533333 349.359303 43.9602869 349.606404 45.5354409 349.602389 47.12 349.606619 48.6534715 349.373121 50.1783024 348.910239 51.64 348.48509 53.0757114 347.818907 54.4283902 346.940273 55.64 346.09653 56.7967526 345.016624 57.7603299 343.772355 58.4666667 342.441395 59.207727 340.942526 59.5934157 339.419795 59.5866667zM389.001706 50.7733333C388.412446 49.5279943 387.547531 48.4336023 386.472696 47.5733333 385.267897 46.6304371 383.919647 45.8876319 382.479522 45.3733333 380.935495 44.8 379.231741 44.2533333 377.394881 43.76 376.063823 43.4133333 374.732765 43.08 373.641297 42.7466667 372.719498 42.4959106 371.827067 42.1472674 370.979181 41.7066667 370.374918 41.3891417 369.854782 40.9321023 369.461775 40.3733333 369.100035 39.8605069 368.921803 39.2403287 368.955973 38.6133333 368.890577 37.4906972 369.390175 36.4097212 370.287031 35.7333333 371.58763 34.9356744 373.105433 34.5672344 374.62628 34.68 375.730381 34.6851993 376.829812 34.8239824 377.900683 35.0933333 378.92973 35.352657 379.935828 35.6960286 380.908874 36.12 381.731837 36.4662912 382.524372 36.8810767 383.278157 37.36 383.753104 37.6340975 384.199072 37.9557436 384.609215 38.32L384.928669 38.6533333 388.668942 32 388.416041 31.8266667C386.556862 30.5932349 384.560013 29.5819164 382.466212 28.8133333 380.06672 27.9281288 377.529397 27.4766792 374.972355 27.48 373.110238 27.468835 371.257052 27.7385232 369.475085 28.28 367.829235 28.7811786 366.293458 29.5911021 364.949488 30.6666667 363.641293 31.6981076 362.592753 33.0224392 361.888055 34.5333333 361.12413 36.2052798 360.7465 38.0282907 360.783276 39.8666667 360.74577 41.2340839 360.98577 42.5948965 361.488737 43.8666667 361.966057 44.9456624 362.680402 45.9027893 363.578498 46.6666667 364.606653 47.5405333 365.759729 48.2551346 366.999317 48.7866667 368.549853 49.4499595 370.146995 49.9981051 371.777816 50.4266667 373.108874 50.7866667 374.439932 51.16 375.77099 51.5466667 376.819707 51.8409711 377.839861 52.2292031 378.819113 52.7066667 379.521985 53.0236412 380.155306 53.4767863 380.682594 54.04 381.100652 54.5957284 381.316673 55.2778275 381.294881 55.9733333 381.294881 58.3733333 379.418089 59.5333333 375.54471 59.5333333 374.130941 59.5354793 372.722435 59.3607948 371.351877 59.0133333 370.069436 58.6765695 368.818113 58.2304979 367.611604 57.68 366.616938 57.2777267 365.647878 56.8146325 364.709898 56.2933333 364.113433 55.9485964 363.551758 55.5467145 363.032765 55.0933333L362.713311 54.76 359.106143 61.8 359.345734 61.9733333C361.659323 63.598103 364.2157 64.8447234 366.919454 65.6666667 369.682076 66.5310285 372.557358 66.9803573 375.451536 67 377.275955 67.0106457 379.094964 66.8002291 380.868942 66.3733333 382.51949 66.0007767 384.085979 65.3224625 385.487713 64.3733333 386.825328 63.423249 387.916194 62.1659226 388.668942 60.7066667 389.489064 59.0511848 389.895592 57.2209671 389.853584 55.3733333 389.912952 53.7957449 389.621995 52.2246251 389.001706 50.7733333z"/>
      <polygon fill="#00B194" points="231.644 21.48 211.399 25.147 211.399 24.093 231.644 18.253"/>
      <path fill="#73C167" d="M82.6720137,71.36 C82.6720137,71.0666667 82.6720137,70.7866667 82.6720137,70.4933333 C82.6720137,70.2 82.6720137,69.8 82.5788396,69.4533333 C82.5788396,68.8266667 82.4457338,68.2 82.3525597,67.5866667 C82.2327645,66.8 82.0996587,66 81.9399317,65.2266667 C81.3816814,62.520467 80.5568239,59.8764111 79.4774744,57.3333333 C78.7692897,55.6477528 77.9465404,54.012806 77.0150171,52.44 C76.6556314,51.84 76.2829352,51.24 75.8969283,50.6533333 C75.8303754,50.5333333 75.7372014,50.4133333 75.6573379,50.2933333 C72.6741579,45.8871673 68.8848514,42.0868592 64.4897611,39.0933333 C63.2021483,38.2270088 61.8691851,37.4303145 60.496587,36.7066667 C60.5831738,35.1523202 60.5831738,33.5943465 60.496587,32.04 C60.3075834,29.385251 59.8618076,26.7551437 59.165529,24.1866667 C58.4789673,21.6186109 57.5473727,19.1226703 56.3836177,16.7333333 C55.557612,15.0925199 54.6191908,13.5109607 53.5750853,12 C53.1890785,11.4133333 52.7897611,10.84 52.3638225,10.28 C52.2972696,10.1733333 52.2174061,10.08 52.1375427,9.97333333 C50.4892034,7.80318691 48.6299206,5.80226954 46.5870307,4 C46.0013652,3.48 45.3757679,2.96 44.7501706,2.46666667 C44.2576792,2.08 43.7518771,1.69333333 43.2460751,1.33333333 C42.9532423,1.12 42.6737201,0.92 42.3808874,0.733333333 L41.6754266,0.213333333 L41.3426621,0 L41.0365188,0.2 L40.3044369,0.68 C40.0249147,0.866666667 39.7320819,1.06666667 39.4525597,1.28 C38.9334471,1.64 38.4276451,2.02666667 37.9351536,2.41333333 C37.2696246,2.93333333 36.6706485,3.45333333 36.0716724,4 C34.0652866,5.80607375 32.2376927,7.80200292 30.6143345,9.96 C29.5091759,11.4161337 28.5083777,12.9488585 27.6194539,14.5466667 C27.2733788,15.1466667 26.9406143,15.7733333 26.6211604,16.4 C26.6211604,16.5333333 26.5013652,16.6666667 26.4348123,16.8 C25.2746858,19.1862818 24.3432078,21.6774454 23.652901,24.24 C22.9578453,26.8087465 22.5120898,29.4387342 22.321843,32.0933333 C22.2285956,33.6474867 22.2285956,35.2058466 22.321843,36.76 C20.947589,37.480687 19.614467,38.2774761 18.3286689,39.1466667 C13.9256914,42.1351209 10.1311361,45.9361627 7.14778157,50.3466667 C6.12080532,51.8819661 5.1916522,53.4807038 4.36587031,55.1333333 C4.05972696,55.76 3.7668942,56.4 3.48737201,57.04 L3.20784983,57.3333333 C2.15003132,59.8611915 1.34307244,62.4871745 0.798634812,65.1733333 C0.63890785,65.9466667 0.505802048,66.7333333 0.399317406,67.5333333 C0.306143345,68.16 0.239590444,68.7866667 0.173037543,69.4133333 C0.173037543,69.76 0.173037543,70.1066667 0.0798634812,70.4533333 C-0.0133105802,70.8 0.0798634812,71.0266667 0.0798634812,71.32 L0,71.32 C0,71.4533333 0,71.5733333 0,71.6933333 L0.332764505,71.8666667 L1.10477816,72.2533333 L2.04982935,72.7066667 C2.6221843,72.96 3.19453925,73.2133333 3.78020478,73.44 C5.34388609,74.0768548 6.94397783,74.620035 8.57201365,75.0666667 C12.0051099,75.9632635 15.5395326,76.4114235 19.087372,76.4 L19.4733788,76.4 C20.165529,76.4 20.8044369,76.4 21.5631399,76.4 C27.875218,76.0117312 34.0159847,74.1877834 39.5191126,71.0666667 C40.1313993,70.72 40.743686,70.3466667 41.3426621,69.9733333 C41.9416382,70.3466667 42.5539249,70.72 43.1795222,71.0666667 C49.4148827,74.5729475 56.4473084,76.4098307 63.5979522,76.4 C64.4764505,76.4 65.3416382,76.4 66.2600683,76.3066667 C67.1784983,76.2133333 67.5911263,76.2 68.3631399,76.12 C70.3213809,75.8960911 72.2609049,75.5306947 74.1665529,75.0266667 C75.7776074,74.6028141 77.3602886,74.0773208 78.9051195,73.4533333 C79.4774744,73.2266667 80.0498294,72.9733333 80.6221843,72.72 L81.5672355,72.2666667 L82.3392491,71.8933333 L82.6720137,71.72 C82.6853242,71.6133333 82.6720137,71.4933333 82.6720137,71.36 Z"/>
      <path fill="#D0E4A6" d="M28.2583618 56.6L21.6030717 60.48 21.6030717 74.2533333C27.9153912 73.8489672 34.0377368 71.9281762 39.4525597 68.6533333 34.9758438 65.435004 31.1839725 61.3556271 28.2982935 56.6533333L28.2583618 56.6zM24.2651877 35.76L25.2901024 35.3333333C27.7939336 34.2667302 30.3980339 33.4537911 33.0634812 32.9066667 35.4624966 32.4238064 37.8983254 32.1472442 40.3443686 32.08L40.3443686 24.3466667 28.4313993 17.4533333C25.6307148 23.1425511 24.2209367 29.4174189 24.31843 35.76L24.2651877 35.76zM29.3498294 15.5866667L40.2911263 21.92 40.2911263 3.25333333C35.8101769 6.53850518 32.0801268 10.7431211 29.3498294 15.5866667zM27.2068259 54.7866667C24.7300753 50.2367547 23.1272776 45.2618496 22.48157 40.12 22.48157 39.7866667 22.4017065 39.44 22.3750853 39.0933333 15.3372253 43.0012392 9.65439451 48.963529 6.08293515 56.1866667L15.4003413 61.6 27.2068259 54.7866667zM5.20443686 58.1066667C3.69823697 61.6368673 2.72046444 65.3704357 2.30273038 69.1866667L13.3105802 62.8133333 5.20443686 58.1066667zM19.4733788 74.3333333L19.4733788 61.6933333 3.35426621 71.0266667C8.31376782 73.2089151 13.6704937 74.3392914 19.087372 74.3466667L19.4733788 74.3333333zM62.1737201 58.6666667L74.0866894 51.7733333C70.5742587 46.4971365 65.8559446 42.1364343 60.3235495 39.0533333L60.2037543 40.1066667C59.8709763 42.8264045 59.2690389 45.5062553 58.4068259 48.1066667 57.629725 50.4370748 56.649853 52.6946329 55.4784983 54.8533333L62.1737201 58.6666667zM64.2634812 59.8666667L80.3959044 69.2C79.8096034 63.6689481 78.0389466 58.3297059 75.2047782 53.5466667L64.2634812 59.8666667zM43.2726962 68.6533333C49.405118 72.3651479 56.4329564 74.3291144 63.5979522 74.3333333 64.4764505 74.3333333 65.3416382 74.3333333 66.2600683 74.24L66.2600683 63.4133333 54.4802048 56.6C52.7221913 59.5187915 50.6071929 62.2062508 48.1843003 64.6 46.6578087 66.0803576 45.015351 67.4358065 43.2726962 68.6533333zM68.3098976 64.6266667L68.3098976 74.04C72.116736 73.5807179 75.8350003 72.5608279 79.3443686 71.0133333L68.3098976 64.6266667zM42.394198 3.25333333L42.394198 16 50.5802048 11.32C48.2644164 8.24072096 45.5057704 5.52229203 42.394198 3.25333333zM57.4484642 35.3333333L58.4201365 35.7466667C58.4916534 32.0488879 58.043578 28.3594125 57.0890785 24.7866667 55.9645427 20.6068833 54.1661311 16.6391108 51.7648464 13.04L42.4474403 18.4533333 42.4474403 32.08C44.8978299 32.1480385 47.3380124 32.4245895 49.7416382 32.9066667 52.3846236 33.4572971 54.9663027 34.2701965 57.4484642 35.3333333zM43.9249147 39.3733333C43.1395904 39.3733333 42.3409556 39.3066667 41.5423208 39.2933333L40.8102389 39.2933333C40.0116041 39.2933333 39.2262799 39.2933333 38.4409556 39.3733333 37.2030717 39.3733333 35.9918089 39.56 34.7938567 39.72L31.1334471 46.0533333C31.5993174 47.1733333 32.1051195 48.2933333 32.6641638 49.3866667 33.0235495 50.0933333 33.3962457 50.8 33.7955631 51.4933333 33.845261 51.5998726 33.9031128 51.7024008 33.9686007 51.8L34.1549488 52.12C34.5542662 52.8133333 34.9802048 53.4533333 35.4061433 54.1466667 36.0849829 55.1733333 36.8037543 56.1733333 37.5491468 57.1466667L44.8167235 57.1466667C45.562116 56.1733333 46.2808874 55.1733333 46.9464164 54.1466667 47.3856655 53.48 47.8116041 52.8133333 48.2109215 52.12 48.2651289 52.0131612 48.3274272 51.910639 48.3972696 51.8133333L48.5703072 51.4933333C48.9696246 50.8 49.3423208 50.16 49.7017065 49.3866667 50.2474403 48.2933333 50.7665529 47.1733333 51.2191126 46.0533333L47.5720137 39.72C46.3208191 39.56 45.1095563 39.44 43.9249147 39.3733333z"/>
      <path fill="#FFFFFF" d="M36.4843003 59.24L26.38157 59.24C27.0204778 60.2133333 27.712628 61.16 28.378157 62.0666667 28.8440273 62.6666667 29.3098976 63.2533333 29.7890785 63.8266667 30.935432 65.1836901 32.1528422 66.4788431 33.4361775 67.7066667 35.6257119 66.2377887 37.6953557 64.5970772 39.6255973 62.8 38.5191173 61.6672676 37.4706729 60.4790762 36.4843003 59.24zM34.1948805 56.1733333C33.7556314 55.5333333 33.3296928 54.84 32.8638225 54.2 32.5843003 53.76 32.3180887 53.3066667 32.0651877 52.8666667 31.8122867 52.4266667 31.5460751 51.96 31.2931741 51.5333333L22.2686007 51.5333333C22.7211604 52.5866667 23.2003413 53.64 23.7194539 54.68 24.0921502 55.4133333 24.4914676 56.1333333 24.890785 56.8533333 24.9267178 56.9036642 24.9579096 56.9572273 24.983959 57.0133333 25.0227932 57.0665653 25.0541442 57.1248881 25.0771331 57.1866667L34.8737201 57.1866667 34.1948805 56.1733333zM55.0259386 41.3333333C54.7996587 42.1066667 54.5733788 42.88 54.3204778 43.64 54.0675768 44.4 53.8013652 45.1333333 53.5085324 45.88L55.5317406 49.3333333 56.7430034 51.44 58.5665529 54.6666667C59.0989761 53.6266667 59.578157 52.5733333 60.0307167 51.52 60.3235495 50.8266667 60.5897611 50.1866667 60.8559727 49.4133333 61.4672518 47.7374087 61.9827621 46.0279748 62.4 44.2933333 60.0290746 43.1015348 57.5623783 42.1113856 55.0259386 41.3333333zM54.3204778 51.4933333L53.109215 49.3333333 52.4836177 48.2666667C52.3238908 48.6266667 52.1641638 48.9733333 51.9911263 49.3333333 51.6583618 50.04 51.2989761 50.7466667 50.9395904 51.44 50.6866894 51.8933333 50.4337884 52.3466667 50.1675768 52.7733333 49.9013652 53.2 49.6351536 53.68 49.368942 54.1066667L51.0593857 57.0533333 52.2706485 59.1466667 53.9078498 61.9733333C54.6 61.0666667 55.2389078 60.12 55.9044369 59.1466667 56.343686 58.4666667 56.7829352 57.8133333 57.2354949 57.0533333 57.2716317 56.9984429 57.302813 56.9404357 57.3286689 56.88L57.4351536 56.72 54.3204778 51.4933333zM35.0334471 29.3333333C34.2880546 29.4266667 33.5426621 29.5333333 32.8105802 29.6666667 31.0542624 29.9778861 29.3167281 30.3874165 27.6061433 30.8933333 27.7672387 33.5342315 28.1501628 36.1568396 28.7508532 38.7333333 29.5361775 38.5333333 30.3215017 38.36 31.0935154 38.2 31.865529 38.04 32.6641638 37.8933333 33.4361775 37.7733333L35.4593857 34.2666667 36.6706485 32.16 38.494198 29.0133333C37.2696246 29.0933333 36.178157 29.2 35.0334471 29.3333333zM43.7918089 29.0266667C42.9798635 29.0266667 42.1546075 28.96 41.3293515 28.96L40.9566553 28.96 37.8819113 34.2933333 36.6706485 36.4 36.0583618 37.4666667 37.2696246 37.3333333C38.0549488 37.2666667 38.8269625 37.2266667 39.6122867 37.2L42.7535836 37.2 44.4440273 34.2666667 45.6552901 32.16 47.2525597 29.3333333C46.1078498 29.1866667 44.9498294 29.0933333 43.7918089 29.0266667z"/>
      <path fill="#FFFFFF" d="M66.6860068 33.8933333C66.6860068 33.56 66.6860068 33.2133333 66.6860068 32.88L65.8208191 32.3466667C65.1153584 31.92 64.4098976 31.52 63.6911263 31.1333333 61.5030082 29.9564791 59.2239975 28.9577076 56.8761092 28.1466667 56.2017065 27.9066667 55.5095563 27.68 54.7996587 27.4666667 53.6416382 27.1333333 52.4703072 26.8266667 51.2856655 26.5733333L50.6201365 27.7466667 49.5020478 29.68 46.8399317 34.28 45.6286689 36.3866667 45.0696246 37.3466667 46.2409556 37.4533333C47.1194539 37.5333333 47.9846416 37.6533333 48.9030717 37.7866667L50.2341297 40.1466667 52.1774744 43.52C52.4836177 42.6133333 52.7764505 41.6933333 53.0293515 40.7733333 53.2156997 40.1066667 53.4020478 39.44 53.5484642 38.7466667 54.2273038 38.92 54.8795222 39.1066667 55.5716724 39.3066667 57.2696031 39.8255452 58.9400294 40.4307747 60.5764505 41.12 61.3484642 41.44 62.1204778 41.7866667 62.8791809 42.16L64.7959044 43.1466667 65.887372 43.7466667 66.047099 42.84C66.1668942 42.0933333 66.2866894 41.3466667 66.3665529 40.5866667 66.3665529 40.28 66.4464164 39.9733333 66.4730375 39.6666667 66.552901 38.88 66.6194539 38.0933333 66.6593857 37.3066667L66.6593857 36.36C66.6993174 35.5333333 66.6993174 34.6666667 66.6860068 33.8933333zM28.7774744 45.88L30.1085324 43.52 32.0518771 40.16C31.1068259 40.3466667 30.1750853 40.5466667 29.2566553 40.7866667 28.5778157 40.96 27.9255973 41.1466667 27.2467577 41.3466667 27.047099 40.68 26.8740614 40.0133333 26.7143345 39.3066667 26.3049412 37.5790845 25.9938598 35.829599 25.7825939 34.0666667 25.6761092 33.24 25.5962457 32.4 25.5296928 31.5733333 25.4631399 30.7466667 25.4365188 30.1066667 25.4232082 29.3733333 25.4232082 28.9733333 25.4232082 28.5733333 25.4232082 28.16L24.5580205 28.48C23.8392491 28.7466667 23.147099 29.0266667 22.4416382 29.32L21.5897611 29.6933333C20.8709898 30.0266667 20.165529 30.36 19.4733788 30.72L18.6215017 31.1733333C17.9027304 31.56 17.1972696 31.96 16.5051195 32.3866667L15.6399317 32.92C15.6399317 33.24 15.6399317 33.5733333 15.6399317 33.8933333 15.6399317 34.72 15.6399317 35.5466667 15.6399317 36.3733333 15.714442 38.8494984 15.9904423 41.315451 16.4651877 43.7466667 16.5982935 44.48 16.7580205 45.2 16.931058 45.9333333 17.2105802 47.0933333 17.5300341 48.24 17.9027304 49.3866667L30.3081911 49.3866667C30.1484642 49.0266667 29.9754266 48.68 29.8156997 48.32 29.4296928 47.52 29.0969283 46.6666667 28.7774744 45.88zM53.6150171 65.7733333L52.4969283 63.8266667 49.8348123 59.24 48.6235495 57.1466667 48.0645051 56.1733333C47.8515358 56.5066667 47.625256 56.8266667 47.3856655 57.1466667 46.8798635 57.8533333 46.3474403 58.56 45.8017065 59.24L39.1464164 59.24C39.7720137 59.96 40.4774744 60.5733333 41.0631399 61.32 41.6488055 62.0666667 42.0614334 62.32 42.5805461 62.8L41.8617747 63.52 41.0631399 64.2933333C39.1686953 66.079938 37.1345575 67.7118134 34.9802048 69.1733333 34.3679181 69.5866667 33.7556314 70 33.1300341 70.3866667L32.1051195 71 32.8105802 71.5866667C33.3962457 72.08 33.9952218 72.5466667 34.594198 73 34.847099 73.1866667 35.0866894 73.3733333 35.352901 73.5466667 35.9784983 74.0133333 36.683959 74.4533333 37.2829352 74.88L38.0682594 75.3866667C38.7604096 75.8133333 39.4658703 76.2266667 40.1846416 76.6266667L41.0365188 77.08 41.8883959 76.6266667C42.6071672 76.2266667 43.3259386 75.8 44.0313993 75.3733333 46.1266098 74.0637016 48.1200014 72.5973023 49.9945392 70.9866667 50.5668942 70.4933333 51.112628 70 51.6583618 69.48 52.5235495 68.6533333 53.362116 67.8 54.1740614 66.9066667L53.6150171 65.7733333z"/>
      <path fill="#00B194" d="M62.3866894,44.2666667 C61.9675154,45.9832903 61.452021,47.6748654 60.8426621,49.3333333 C60.5764505,50.04 60.3102389,50.7466667 60.0174061,51.44 C59.5648464,52.4933333 59.0856655,53.5466667 58.5532423,54.5866667 L56.7430034,51.44 L55.5317406,49.3333333 L53.5085324,45.88 C53.8013652,45.1333333 54.0675768,44.3866667 54.3204778,43.64 C54.5733788,42.8933333 54.7996587,42.1066667 55.0259386,41.3333333 C54.347099,41.1333333 53.6948805,40.9466667 53.0027304,40.7733333 C52.7498294,41.6933333 52.4569966,42.6133333 52.1508532,43.52 C51.8447099,44.4266667 51.525256,45.2133333 51.1791809,46.0533333 C50.7266212,47.1733333 50.2075085,48.2933333 49.6617747,49.3866667 C49.3023891,50.0933333 48.9296928,50.8 48.5303754,51.4933333 L48.3573379,51.8133333 C48.2874955,51.910639 48.2251972,52.0131612 48.1709898,52.12 C47.7716724,52.8133333 47.3457338,53.4533333 46.9064846,54.1466667 C46.2409556,55.1733333 45.5754266,56.1733333 44.7767918,57.1466667 L37.509215,57.1466667 C38.0682594,57.8533333 38.6406143,58.56 39.2262799,59.24 L45.88157,59.24 C46.4273038,58.56 46.959727,57.9066667 47.465529,57.1466667 C47.7051195,56.8266667 47.9313993,56.5066667 48.1443686,56.1733333 L48.703413,57.1466667 L49.9146758,59.24 L52.5767918,63.8266667 L53.6948805,65.7733333 L54.3604096,66.92 C53.5484642,67.8133333 52.7098976,68.6666667 51.8447099,69.4933333 C51.2989761,70.0133333 50.7532423,70.5066667 50.1808874,71 C48.3063495,72.6106356 46.3129579,74.077035 44.2177474,75.3866667 C43.5122867,75.8133333 42.7935154,76.24 42.074744,76.64 L41.2228669,77.0933333 L40.3709898,76.64 L40.2112628,76.5466667 L40.2911263,76.5466667 L40.3576792,76.5466667 L40.5040956,76.4666667 L41.1430034,76.0933333 C41.8351536,75.6933333 42.4740614,75.2666667 43.2061433,74.8266667 L43.978157,74.3066667 C44.6170648,73.8666667 45.309215,73.4133333 45.88157,72.9733333 L46.6136519,72.4133333 C47.1460751,72 47.6784983,71.56 48.1976109,71.08 C47.656314,70.76 47.1105802,70.4266667 46.5604096,70.08 C46.0102389,70.5333333 45.4511945,70.9777778 44.8832765,71.4133333 L44.0846416,72.0133333 C43.4590444,72.4666667 42.7535836,72.9066667 42.1679181,73.3466667 L41.3027304,73.8933333 C40.6238908,74.3066667 39.9716724,74.72 39.2395904,75.1066667 L38.3877133,75.5733333 L38.2546075,75.4933333 L37.4692833,74.9866667 L37.2696246,74.7866667 L37.3494881,74.7866667 L37.4426621,74.7866667 L38.2146758,74.3333333 C38.8802048,73.9466667 39.5457338,73.5333333 40.1979522,73.1066667 L41.0498294,72.5333333 C41.6754266,72.1066667 42.3010239,71.6533333 42.9,71.2 L43.6986348,70.5866667 C44.231058,70.1733333 44.7501706,69.7466667 45.2426621,69.2533333 C44.7368601,68.9066667 44.231058,68.5466667 43.725256,68.1733333 L42.1013652,69.5066667 L41.2361775,70.1466667 C40.6372014,70.5866667 40.0116041,71.0266667 39.3860068,71.48 C39.0798635,71.68 38.7737201,71.88 38.4542662,72.0666667 C37.8020478,72.48 37.1232082,72.88 36.4709898,73.2666667 L35.5392491,73.7733333 C35.4979306,73.749598 35.4617344,73.7178722 35.4327645,73.68 C35.1665529,73.5066667 34.9269625,73.32 34.6740614,73.1333333 L34.5409556,73.0266667 L35.512628,72.4533333 C36.1648464,72.0666667 36.843686,71.6533333 37.4293515,71.24 L38.3477816,70.6266667 L40.1313993,69.2933333 L40.996587,68.6133333 C41.5023891,68.2 42.0215017,67.7733333 42.5139932,67.28 C42.0348123,66.8933333 41.5556314,66.5066667 41.0897611,66.1066667 C40.583959,66.5466667 40.0515358,66.9866667 39.5191126,67.44 L38.6139932,68.1333333 C38.0150171,68.5733333 37.416041,69.0133333 36.8037543,69.4666667 C36.4976109,69.6933333 36.1648464,69.9066667 35.8453925,70.1066667 C35.2197952,70.5066667 34.5143345,70.9066667 33.9286689,71.28 L32.943686,71.84 L32.8372014,71.7466667 L32.1317406,71.16 L33.1566553,70.5466667 C33.7822526,70.16 34.3945392,69.7466667 35.0068259,69.3333333 C37.1611786,67.8718134 39.1953164,66.239938 41.0897611,64.4533333 L41.8883959,63.68 L42.6071672,62.96 C42.0924915,62.48 41.5866894,61.9866667 41.0897611,61.48 C40.5928328,61.9866667 40.0870307,62.48 39.5723549,62.96 C37.6421134,64.7570772 35.5724696,66.3977887 33.3829352,67.8666667 C32.7706485,68.2666667 32.1583618,68.6533333 31.5327645,69.0266667 L30.4679181,69.6533333 C29.8290102,70.0133333 29.1368601,70.3733333 28.4979522,70.7066667 C29.043686,71.24 29.5894198,71.7466667 30.1484642,72.2533333 L30.787372,72.8 C31.359727,73.3066667 31.9587031,73.8 32.5576792,74.2666667 L33.2764505,74.6666667 C33.9153584,75.1466667 34.6075085,75.6133333 35.2064846,76.0666667 L35.8986348,76.52 C36.590785,76.9822222 37.2962457,77.4266667 38.0150171,77.8533333 L38.7604096,78.2933333 C39.5324232,78.7333333 40.3177474,79.1333333 41.1030717,79.5333333 C41.8883959,79.1333333 42.6737201,78.7333333 43.4324232,78.2933333 L44.1778157,77.8533333 C44.896587,77.4266667 45.6153584,76.9866667 46.3208191,76.52 C48.3262614,75.1961021 50.2345487,73.7301353 52.031058,72.1333333 C52.5901024,71.6266667 53.1358362,71.12 53.68157,70.5866667 L53.8146758,70.4533333 C54.3382253,69.9466667 54.8440273,69.4266667 55.3320819,68.8933333 C55.837884,68.3466667 56.3303754,67.8 56.7962457,67.24 L55.678157,65.28 L54.9860068,64.08 C56.1999956,62.5494396 57.320143,60.9464935 58.340273,59.28 L58.5399317,58.9466667 L59.0590444,58.0666667 L59.5648464,57.1866667 C59.6189576,57.0669696 59.6812205,56.9511409 59.7511945,56.84 C60.6739525,55.1092908 61.50047,53.3287953 62.2269625,51.5066667 C62.5064846,50.8133333 62.7593857,50.1733333 63.0122867,49.4 C63.0122867,49.2133333 63.1320819,49.0133333 63.1986348,48.8266667 C63.5979522,47.6533333 63.9440273,46.4666667 64.2368601,45.28 C63.6645051,44.92 63.0255973,44.5866667 62.3866894,44.2666667 Z M53.9078498,62.0666667 L52.2706485,59.24 L51.0593857,57.1466667 L49.368942,54.2 C49.6351536,53.76 49.9146758,53.3066667 50.1675768,52.8666667 C50.4204778,52.4266667 50.6866894,51.96 50.9395904,51.5333333 C51.2989761,50.84 51.6583618,50.2 51.9911263,49.4266667 C52.1641638,49.0666667 52.3238908,48.72 52.4836177,48.36 L53.109215,49.4266667 L54.3204778,51.5333333 L57.3952218,56.8666667 L57.2887372,57.0266667 C57.2628813,57.0871024 57.2316999,57.1451096 57.1955631,57.2 C56.7829352,57.9066667 56.343686,58.6133333 55.8645051,59.2933333 C55.265529,60.2133333 54.5733788,61.16 53.9078498,62.0666667 Z"/>
      <path fill="#00B5CC" d="M68.7757679,34.32 C68.7757679,33.44 68.7757679,32.5733333 68.6825939,31.6533333 C67.9638225,31.1733333 67.21843,30.7066667 66.4730375,30.32 L65.6877133,29.8666667 C64.968942,29.4666667 64.2368601,29.0666667 63.5047782,28.6933333 C62.5331058,28.2133333 61.5481229,27.7466667 60.5498294,27.36 C59.325256,26.84 58.0740614,26.3733333 56.8228669,25.9466667 C56.1174061,25.72 55.4119454,25.4933333 54.6931741,25.2933333 C53.9744027,25.0933333 53.1358362,24.88 52.3638225,24.6933333 L51.1924915,24.44 L50.194198,24.2533333 L49.0761092,26.1866667 L48.383959,27.4 C46.4658415,27.1102388 44.5325611,26.932162 42.5938567,26.8666667 L39.7320819,26.8666667 C37.7805509,26.9217778 35.8338952,27.0909545 33.9020478,27.3733333 C33.1699659,27.48 32.4245734,27.6 31.6924915,27.7466667 L31.0935154,27.8666667 C29.8955631,28.1066667 28.6976109,28.4 27.5129693,28.7333333 C27.5129693,29.4666667 27.5129693,30.1866667 27.6061433,30.9066667 C29.3167281,30.4007499 31.0542624,29.9912194 32.8105802,29.68 C33.5426621,29.5466667 34.2880546,29.44 35.0334471,29.3466667 C36.178157,29.2 37.3228669,29.0933333 38.494198,29.0266667 L36.6706485,32.1733333 L35.4593857,34.28 L33.4361775,37.7866667 C32.6641638,37.9066667 31.8788396,38.0533333 31.0935154,38.2133333 C30.3081911,38.3733333 29.5361775,38.5466667 28.7508532,38.7466667 C28.9105802,39.4266667 29.0969283,40.08 29.2832765,40.7866667 C30.2017065,40.5466667 31.1334471,40.3466667 32.0784983,40.16 C33.0235495,39.9733333 33.8488055,39.84 34.7406143,39.72 C35.9385666,39.56 37.1498294,39.44 38.3877133,39.3733333 C39.1730375,39.3733333 39.9583618,39.3066667 40.7569966,39.2933333 L41.4890785,39.2933333 C42.2877133,39.2933333 43.0863481,39.2933333 43.8716724,39.3733333 C45.0962457,39.3733333 46.3075085,39.56 47.5187713,39.72 L51.1658703,46.0533333 C51.5119454,45.2133333 51.8313993,44.3733333 52.1375427,43.52 L50.194198,40.1466667 L48.8631399,37.7866667 C47.9979522,37.6533333 47.1327645,37.5333333 46.2010239,37.4533333 L45.056314,37.3333333 L45.6153584,36.3733333 L46.8266212,34.2666667 L49.4887372,29.6666667 L50.5802048,27.7466667 L51.2457338,26.5733333 C52.4303754,26.8266667 53.6017065,27.1333333 54.759727,27.4666667 C55.4696246,27.68 56.1617747,27.9066667 56.8361775,28.1466667 C59.1840657,28.9577076 61.4630765,29.9564791 63.6511945,31.1333333 C64.3699659,31.52 65.0754266,31.92 65.7808874,32.3466667 L66.6460751,32.88 C66.6460751,33.2133333 66.6460751,33.56 66.6460751,33.8933333 L66.6460751,34.08 L66.552901,34 L66.4064846,33.9066667 L65.7675768,33.5333333 C65.0754266,33.1466667 64.3566553,32.76 63.637884,32.3866667 L62.7460751,32 C62.0539249,31.6666667 61.3351536,31.3333333 60.6163823,31.0266667 L59.7778157,30.6666667 C59.1389078,30.4133333 58.4467577,30.16 57.8610922,29.9333333 C57.8610922,30.5733333 57.8610922,31.2133333 57.8610922,31.8533333 C58.5266212,32.1066667 59.1921502,32.36 59.8443686,32.64 L60.7627986,33.04 C61.4682594,33.36 62.1604096,33.6933333 62.8525597,34.0533333 L63.7576792,34.52 C64.4631399,34.8933333 65.1686007,35.2933333 65.8474403,35.7066667 L66.712628,36.24 L66.712628,36.3866667 L66.712628,37.3333333 C66.712628,37.4 66.712628,37.4533333 66.712628,37.52 L66.552901,37.4133333 L66.459727,37.4133333 L65.6877133,36.96 C65.0221843,36.5866667 64.3566553,36.2133333 63.637884,35.8666667 C63.3450512,35.7066667 63.0255973,35.56 62.7061433,35.4 C62.0273038,35.08 61.3750853,34.76 60.6430034,34.4666667 L59.7112628,34.08 L57.7279863,33.3333333 C57.7279863,33.9466667 57.6215017,34.5733333 57.5416382,35.2 C58.1938567,35.44 58.8726962,35.6933333 59.4849829,35.96 L60.4699659,36.3866667 C61.162116,36.6933333 61.8010239,37.0133333 62.5197952,37.3466667 C62.8525597,37.5066667 63.1720137,37.68 63.4914676,37.8533333 C64.1703072,38.2133333 64.8225256,38.5866667 65.5146758,38.9866667 C65.8341297,39.1733333 66.1535836,39.36 66.459727,39.56 C66.4663038,39.6086669 66.4663038,39.6579997 66.459727,39.7066667 C66.459727,40.0133333 66.3931741,40.32 66.3532423,40.6266667 C66.3598413,40.6842554 66.3598413,40.7424113 66.3532423,40.8 L65.221843,40.1333333 C64.556314,39.7733333 63.890785,39.4133333 63.2119454,39.08 L62.240273,38.6666667 C61.574744,38.36 60.909215,38.0533333 60.2303754,37.7733333 L59.2187713,37.3333333 C58.5931741,37.0933333 57.9808874,36.8666667 57.3552901,36.6533333 C57.262116,37.2666667 57.168942,37.8666667 57.0624573,38.4666667 C57.6880546,38.6933333 58.3935154,38.9333333 58.9525597,39.1866667 L60.0174061,39.6266667 C60.6829352,39.92 61.3484642,40.2266667 62.0139932,40.5466667 L63.0522184,41.0666667 C63.7177474,41.4133333 64.3832765,41.7733333 65.0354949,42.1466667 L66.0337884,42.7466667 C66.0337884,42.7466667 66.0337884,42.84 66.0337884,42.88 L65.8740614,43.7866667 L64.7825939,43.1866667 L62.8658703,42.2 C62.1071672,41.8266667 61.3351536,41.48 60.5631399,41.16 C58.9267188,40.4707747 57.2562925,39.8655452 55.5583618,39.3466667 C54.8928328,39.1466667 54.2273038,38.96 53.5351536,38.7866667 C53.3887372,39.4666667 53.2023891,40.12 53.016041,40.8133333 C53.6948805,40.9866667 54.347099,41.1733333 55.0392491,41.3733333 C57.5703082,42.1434755 60.0325034,43.1246851 62.4,44.3066667 C63.0389078,44.6266667 63.731058,44.96 64.303413,45.3066667 L65.4081911,45.9333333 C66.0337884,46.3066667 66.6593857,46.6933333 67.2716724,47.1066667 C67.4447099,46.3866667 67.6177474,45.6666667 67.7641638,44.9333333 C67.8307167,44.6533333 67.883959,44.3866667 67.9372014,44.1066667 C68.0703072,43.3466667 68.203413,42.6 68.3098976,41.84 C68.3098976,41.56 68.3098976,41.28 68.4163823,41 C68.5095563,40.2 68.5894198,39.4133333 68.6559727,38.6133333 C68.6559727,38.3333333 68.6559727,38.04 68.6559727,37.76 C68.6559727,36.9333333 68.7358362,36.1066667 68.7358362,35.2666667 L68.7757679,34.32 Z M45.6153584,32.1733333 L44.4040956,34.28 L42.7136519,37.2133333 L39.5723549,37.2133333 C38.7870307,37.2133333 38.0150171,37.28 37.2296928,37.3466667 L36.0583618,37.4533333 L36.6706485,36.3866667 L37.8819113,34.28 L40.9566553,28.9466667 L41.3293515,28.9466667 C42.1546075,28.9466667 42.9798635,28.9466667 43.7918089,29.0133333 C44.9498294,29.08 46.1078498,29.1733333 47.2525597,29.32 L45.6153584,32.1733333 Z"/>
      <path fill="#009DDC" d="M39.2262799,59.24 C38.6406143,58.56 38.0682594,57.9066667 37.509215,57.1466667 C36.7638225,56.1733333 36.0450512,55.1733333 35.3662116,54.1466667 C34.940273,53.48 34.5143345,52.8133333 34.1150171,52.12 L33.9286689,51.8 C33.863181,51.7024008 33.8053292,51.5998726 33.7556314,51.4933333 C33.356314,50.8 32.9836177,50.16 32.6242321,49.3866667 C32.0651877,48.2933333 31.5593857,47.1733333 31.0935154,46.0533333 L34.7539249,39.72 C33.8665529,39.8355556 32.9791809,39.9822222 32.0918089,40.16 L30.1484642,43.52 L28.8174061,45.88 C29.1368601,46.7066667 29.4696246,47.52 29.8290102,48.32 C29.9887372,48.68 30.1617747,49.0266667 30.3215017,49.3866667 L17.8761092,49.3866667 C17.503413,48.24 17.183959,47.0933333 16.9044369,45.9333333 C16.7313993,45.2 16.5716724,44.48 16.4385666,43.7466667 C15.9638212,41.315451 15.6878209,38.8494984 15.6133106,36.3733333 C15.6133106,35.5466667 15.6133106,34.72 15.6133106,33.8933333 C15.6133106,33.5733333 15.6133106,33.24 15.6133106,32.92 L16.4784983,32.3866667 L16.6382253,32.2933333 L16.6382253,32.4666667 C16.6382253,32.4666667 16.6382253,32.5733333 16.6382253,32.64 L16.6382253,33.3333333 C16.6382253,34.1333333 16.6382253,34.9466667 16.7180887,35.76 C16.7180887,36.08 16.7180887,36.3866667 16.7180887,36.6933333 C16.7180887,37.4666667 16.8511945,38.2533333 16.9443686,39.0266667 L17.0641638,39.9333333 C17.1573379,40.6133333 17.2771331,41.2666667 17.3836177,41.96 C17.9426621,41.64 18.5150171,41.3333333 19.0740614,41.04 C18.9542662,40.3466667 18.8477816,39.6266667 18.7679181,38.92 C18.7679181,38.6 18.6880546,38.2533333 18.6481229,37.92 C18.5682594,37.16 18.5150171,36.3733333 18.4750853,35.6133333 C18.4750853,35.2666667 18.4750853,34.92 18.4750853,34.5866667 C18.4750853,33.7866667 18.4750853,32.9733333 18.4750853,32.1866667 C18.4750853,31.8533333 18.4750853,31.5333333 18.4750853,31.2 L18.5948805,31.1333333 L19.4467577,30.68 L19.6064846,30.6 C19.5999768,30.6352567 19.5999768,30.6714099 19.6064846,30.7066667 L19.6064846,31.76 C19.6064846,32.5466667 19.6064846,33.3333333 19.6863481,34.1066667 C19.6863481,34.44 19.6863481,34.7733333 19.6863481,35.1333333 C19.752901,35.8933333 19.8194539,36.6533333 19.912628,37.3866667 C19.912628,37.72 19.9924915,38.0533333 20.0457338,38.4 C20.1389078,39.0666667 20.2453925,39.7333333 20.3651877,40.3733333 L22.068942,39.6 C21.9491468,38.92 21.8426621,38.2666667 21.7627986,37.5466667 C21.7627986,37.1866667 21.6696246,36.8266667 21.6296928,36.4666667 C21.5498294,35.72 21.496587,34.96 21.4433447,34.2133333 C21.4433447,33.8533333 21.4433447,33.48 21.4433447,33.12 C21.4433447,32.3466667 21.4433447,31.56 21.4433447,30.7866667 C21.4433447,30.44 21.4433447,30.08 21.4433447,29.72 L21.5631399,29.6533333 L22.4150171,29.28 L22.574744,29.28 L22.574744,29.3333333 C22.574744,29.7066667 22.574744,30.0933333 22.574744,30.4666667 C22.574744,31.2133333 22.574744,31.9733333 22.6546075,32.7333333 L22.734471,33.8266667 C22.8010239,34.56 22.8808874,35.3066667 22.9740614,36.0266667 C22.9740614,36.3866667 23.0672355,36.7466667 23.1204778,37.1066667 C23.2269625,37.7733333 23.3467577,38.44 23.4665529,39.0666667 L25.2901024,38.4266667 C25.1703072,37.7733333 25.0638225,37.0933333 24.9706485,36.4266667 L24.8109215,35.28 C24.731058,34.5466667 24.6645051,33.8133333 24.6112628,33.0933333 C24.6112628,32.7066667 24.6112628,32.3066667 24.5447099,31.9333333 C24.5447099,31.1866667 24.5447099,30.4266667 24.5447099,29.68 L24.5447099,28.5333333 L24.6778157,28.5333333 L25.5430034,28.2133333 C25.5430034,28.6266667 25.5430034,29.0266667 25.5430034,29.4266667 C25.5430034,30.16 25.5430034,30.8933333 25.6494881,31.6266667 C25.7559727,32.36 25.7959044,33.2933333 25.9023891,34.12 C26.113655,35.8829323 26.4247364,37.6324178 26.8341297,39.36 C26.9938567,40.0533333 27.1668942,40.6933333 27.3665529,41.4 C28.0320819,41.2 28.6976109,41.0133333 29.3764505,40.84 C29.1901024,40.16 29.0037543,39.5066667 28.8440273,38.8 C28.2433369,36.2235063 27.8604127,33.6008981 27.6993174,30.96 C27.6993174,30.24 27.6194539,29.52 27.6061433,28.7866667 L27.6061433,27.5466667 C27.6061433,26.8 27.6061433,26.0666667 27.6860068,25.32 L25.556314,25.9733333 L24.7576792,26.2533333 C24.0389078,26.5066667 23.3201365,26.7733333 22.6013652,27.0666667 L21.8293515,27.3866667 C21.0972696,27.6933333 20.3651877,28.0266667 19.659727,28.3733333 L18.8744027,28.7466667 C18.1290102,29.1066667 17.3969283,29.5066667 16.678157,29.9066667 C16.425256,30.0666667 16.1590444,30.2133333 15.8928328,30.36 C15.1474403,30.8133333 14.4153584,31.2666667 13.696587,31.6933333 C13.696587,32.5733333 13.603413,33.4533333 13.603413,34.36 C13.603413,34.6533333 13.603413,34.9466667 13.603413,35.24 C13.603413,36.08 13.603413,36.92 13.6832765,37.7466667 C13.6832765,38.8266667 13.8430034,39.9066667 13.9761092,40.9733333 C14.1358362,42.3066667 14.362116,43.64 14.6283276,44.9733333 C14.774744,45.7066667 14.9477816,46.44 15.1341297,47.1733333 C15.3204778,47.9066667 15.5467577,48.7066667 15.7730375,49.4666667 L16.1324232,50.6133333 L16.4651877,51.5733333 L19.9658703,51.5733333 C20.686777,53.3978729 21.5134403,55.1786823 22.4416382,56.9066667 C22.5116123,57.0178076 22.5738752,57.1336363 22.6279863,57.2533333 L23.1337884,58.1333333 C23.2935154,58.4266667 23.4798635,58.72 23.652901,59.0133333 L23.8525597,59.3466667 C24.8939227,60.9617067 26.027195,62.5153857 27.2467577,64 C27.6993174,64.5866667 28.1784983,65.16 28.6709898,65.72 C29.5361775,66.7333333 30.4546075,67.7066667 31.3996587,68.64 L31.5860068,68.8133333 C32.2116041,68.44 32.8238908,68.0533333 33.4361775,67.6533333 C32.1528422,66.4255098 30.935432,65.1303567 29.7890785,63.7733333 C29.3098976,63.2 28.8440273,62.6133333 28.378157,62.0133333 C27.6860068,61.1066667 27.047099,60.16 26.38157,59.1866667 L36.4843003,59.1866667 C37.4706729,60.4257429 38.5191173,61.6139343 39.6255973,62.7466667 C40.1491468,62.2666667 40.6549488,61.7733333 41.1430034,61.2666667 C40.490785,60.64 39.8518771,60 39.2262799,59.24 Z M33.6491468,57.1466667 L25.0771331,57.1466667 C25.0541442,57.0848881 25.0227932,57.0265653 24.983959,56.9733333 C24.9579096,56.9172273 24.9267178,56.8636642 24.890785,56.8133333 C24.4914676,56.0933333 24.0921502,55.3733333 23.7194539,54.64 C23.2003413,53.6 22.7211604,52.5466667 22.2686007,51.4933333 L31.3464164,51.4933333 C31.5993174,51.9466667 31.8522184,52.4 32.11843,52.8266667 C32.3846416,53.2533333 32.6375427,53.7333333 32.9170648,54.16 C33.3296928,54.8266667 33.7556314,55.4933333 34.2481229,56.1333333 L34.9269625,57.1066667 L33.6491468,57.1466667 Z"/>
    </g>
  </g>
</svg>
