<svg xmlns="http://www.w3.org/2000/svg" width="537" height="394" viewBox="0 0 537 394">
  <g fill="none">
    <rect width="537" height="393.345" fill="#282726"/>
    <g fill="#FFFFFF" transform="translate(105 163)">
      <polygon points="107.204 23.337 97.872 41.118 88.636 23.337 81.536 23.337 81.536 55.741 88.292 55.741 88.292 35.54 96.041 50.359 99.752 50.359 107.496 35.54 107.496 55.741 114.257 55.741 114.257 23.337"/>
      <path d="M134.630844,23.3368831 L129.214286,23.3368831 L116.427727,55.7405195 L123.593247,55.7405195 L126.503831,47.8005844 L137.28039,47.8005844 L140.186623,55.7405195 L147.352143,55.7405195 L134.630844,23.3368831 Z M135.966494,42.8843506 L127.756818,42.8843506 L131.92039,31.1637013 L135.966494,42.8843506 Z"/>
      <polygon points="143.837 23.337 143.837 29.332 154.009 29.332 154.009 55.741 160.77 55.741 160.77 29.332 170.907 29.332 170.907 23.337"/>
      <polygon points="180.4 49.741 180.4 42.019 193.804 42.019 193.804 36.428 180.4 36.428 180.4 29.332 195.905 29.332 195.905 23.337 173.639 23.337 173.639 55.741 196.314 55.741 196.314 49.741"/>
      <path d="M236.000974 41.8532468C235.022402 40.588082 233.703334 39.6282114 232.198506 39.0862338 233.414012 38.4333564 234.420039 37.4499546 235.10039 36.2496104 235.88773 34.8842968 236.301861 33.335807 236.301169 31.7597403 236.296261 30.7223785 236.118343 29.6931017 235.77474 28.7142857 235.43021 27.7386552 234.921069 26.8292657 234.269416 26.0255844 233.609946 25.2312661 232.801507 24.5735777 231.88961 24.0895455 230.922167 23.5794034 229.842026 23.3205883 228.748442 23.3368831L211.441558 23.3368831 211.441558 55.7406597 227.103896 55.7405195C228.470074 55.7464857 229.830415 55.561983 231.145649 55.1923377 232.355077 54.8550048 233.496187 54.3087445 234.517403 53.5782468 235.477126 52.8833812 236.262071 51.9748108 236.810195 50.9243506 237.399791 49.78973 237.69876 48.5265856 237.680325 47.2480519 237.738238 45.3127673 237.147086 43.4137299 236.000974 41.8532468zM228.574416 49.6322078C228.106738 49.8303997 227.6031 49.9296459 227.095195 49.9237013L218.193766 49.9237013 218.193766 42.0925325 227.412792 42.0925325C227.880349 42.0884289 228.34233 42.1942373 228.761494 42.4014286 229.1761 42.6139083 229.542036 42.9102134 229.836104 43.2715584 230.154024 43.6517002 230.402874 44.0846103 230.571364 44.5506494 230.75503 45.0432489 230.847895 45.5650589 230.845455 46.0907792 230.845103 46.6051345 230.746153 47.1146539 230.553961 47.5917532 230.36775 48.0495592 230.097739 48.4685937 229.757792 48.8273377 229.422298 49.1734604 229.019598 49.4473561 228.574416 49.6322078zM228.622273 35.6753247C227.968541 36.3300067 227.076114 36.6898057 226.151104 36.6716234L218.193766 36.6716234 218.193766 29.1972078 226.425195 29.1972078C227.292284 29.1788884 228.123863 29.541412 228.700584 30.1891558 229.358198 30.9350898 229.693035 31.9114384 229.631623 32.903961 229.701638 33.9288367 229.334994 34.9355272 228.622273 35.6753247zM261.086818 43.6109091C262.763213 42.8307451 264.166716 41.5651673 265.115519 39.9781169 266.168085 38.2377731 266.71496 36.2385912 266.694805 34.2048052 266.688818 32.8532826 266.424484 31.5153678 265.916039 30.2631169 265.396909 28.9862611 264.660966 27.8087524 263.740714 26.7825974 262.808874 25.7518164 261.689792 24.9073376 260.442922 24.294026 259.137487 23.6610232 257.70403 23.3365231 256.253247 23.3455844L241.896104 23.3453997 241.896104 55.7492208 248.652662 55.7492208 248.652662 45.0683766 254.308506 45.0683766 260.982403 55.7405195 268.656948 55.7405195 261.086818 43.6109091zM248.678766 29.3364286L255.879091 29.3364286C256.387886 29.3397462 256.889259 29.4587666 257.34526 29.6844805 257.845366 29.9271763 258.28977 30.2708484 258.650455 30.6938312 259.046967 31.1508001 259.357927 31.6754533 259.568442 32.2426623 259.798157 32.8711081 259.9131 33.5357123 259.907792 34.2048052 259.913478 34.8596661 259.810567 35.5109398 259.603247 36.1321429 259.427431 36.6936312 259.15345 37.219498 258.794026 37.6853247 258.478224 38.1128317 258.072872 38.4662158 257.606299 38.7207792 257.160603 38.9634652 256.660658 39.0891999 256.153182 39.0862338L248.678766 39.0862851 248.678766 29.3364286zM299.124545 33.6131169C298.41653 31.6799818 297.367347 29.8895927 296.026883 28.3270779 294.674359 26.7676431 293.031146 25.4864686 291.188961 24.5550649 289.239071 23.5868818 287.087895 23.0934381 284.910974 23.115 282.778093 23.0966685 280.668324 23.5575764 278.737403 24.4637013 276.882098 25.3398636 275.217487 26.572799 273.838571 28.0921429 272.450021 29.6284641 271.355771 31.4069903 270.61039 33.339026 269.840834 35.3168291 269.446891 37.4208086 269.448766 39.5430519 269.455375 41.611536 269.824987 43.6628078 270.540779 45.6035065 271.246242 47.5337439 272.302329 49.316997 273.655844 50.8634416 275.015279 52.4064566 276.666975 53.6648211 278.515519 54.5658442 280.468335 55.50785 282.612434 55.9858055 284.780455 55.9624026 286.917641 55.9818014 289.03189 55.5208891 290.967078 54.6137013 292.812266 53.7407707 294.469024 52.5155681 295.844156 51.007013 298.668527 47.8897492 300.230442 43.8321828 300.22526 39.6257143 300.218825 37.5720059 299.846082 35.535913 299.124545 33.6131169zM284.871818 49.9237013C283.605767 49.9422183 282.355272 49.6430569 281.234675 49.0535714 280.179306 48.4857645 279.254527 47.7032592 278.51987 46.7564286 277.765916 45.7561236 277.190421 44.6330979 276.818766 43.4368831 276.428333 42.1683915 276.230352 40.8485168 276.231429 39.5212987 276.232071 38.2325805 276.424145 36.951106 276.801364 35.7188312 277.159499 34.5240085 277.728218 33.4027789 278.480714 32.407987 279.205559 31.4447582 280.124502 30.6443881 281.178117 30.0586364 282.297232 29.4610797 283.551242 29.1614358 284.81961 29.1885065 286.06054 29.1667642 287.287589 29.4522287 288.391494 30.0194805 289.434002 30.5864154 290.343296 31.3696243 291.058442 32.3166234 291.826245 33.3141011 292.415072 34.4372891 292.798701 35.6361688 293.60896 38.1355624 293.622642 40.824959 292.837857 43.3324675 292.478011 44.5323934 291.919152 45.6633463 291.18461 46.6781169 290.474516 47.6481374 289.565203 48.4550974 288.517662 49.0448701 287.398067 49.6461761 286.14242 49.94885 284.871818 49.9237013zM326.446623 42.5319481C325.949765 41.4937976 325.227388 40.5796778 324.332208 39.8562987 323.33332 39.0709364 322.215701 38.4497107 321.021364 38.015974 319.716169 37.5330519 318.289156 37.0762338 316.753377 36.6629221 315.591753 36.3714286 314.530195 36.0886364 313.599156 35.7927922 312.836593 35.5815553 312.09864 35.289874 311.397727 34.9226623 310.899422 34.6695315 310.463916 34.3083437 310.122987 33.8654545 309.820826 33.4345187 309.668024 32.916523 309.687922 32.3905844 309.640468 31.4437982 310.072025 30.5365484 310.836494 29.975974 311.61526 29.3886364 312.837792 29.1058442 314.477987 29.1058442 315.405429 29.1071078 316.329093 29.2240273 317.227597 29.4538961 318.09228 29.6752299 318.937619 29.9662243 319.755325 30.324026 320.445337 30.6123884 321.110348 30.9572626 321.743571 31.3551299 322.131923 31.5880018 322.494983 31.8606612 322.826883 32.1687013L323.096623 32.4471429 326.142078 26.8522078 325.933247 26.7086364C324.375135 25.6748896 322.700069 24.8293246 320.943052 24.1896104 318.927851 23.4616807 316.798911 23.0992452 314.656364 23.1193506 313.094838 23.1097474 311.540579 23.3326223 310.044675 23.7806494 308.683381 24.1958474 307.409455 24.8564017 306.285714 25.7297403 305.174574 26.5916436 304.280599 27.7016617 303.675325 28.970974 303.04305 30.359028 302.727971 31.8705141 302.752987 33.3955844 302.726962 34.5211985 302.925137 35.6407428 303.335974 36.689026 303.721349 37.6239666 304.316817 38.4576221 305.076234 39.1253896 305.949033 39.8603494 306.929109 40.4574919 307.982468 40.8961039 309.285218 41.4514204 310.625673 41.9137466 311.993766 42.2796104 313.129286 42.5754545 314.273506 42.8887013 315.387273 43.2106494 316.264431 43.461316 317.118766 43.7858758 317.941104 44.1808442 318.541499 44.4592609 319.075493 44.8627224 319.507338 45.3642208 319.864482 45.8245607 320.047812 46.39612 320.025065 46.9783117 320.025065 48.9883117 318.445779 49.9628571 315.200195 49.9628571 314.013405 49.965391 312.830972 49.8192312 311.680519 49.5277922 310.606122 49.2580319 309.556708 48.8970684 308.543701 48.4488312 307.700838 48.0652156 306.882771 47.6293011 306.094286 47.1436364 305.592906 46.857721 305.123303 46.5193739 304.693377 46.1342857L304.414935 45.8558442 301.369481 51.7596753 301.573961 51.9032468C303.514511 53.2651638 305.660372 54.3079849 307.93026 54.9922078 310.249641 55.7101923 312.663462 56.0768116 315.091429 56.0798701 316.622103 56.0841715 318.148001 55.9089488 319.637857 55.5577922 321.021963 55.2443136 322.335232 54.6747385 323.509935 53.8784416 324.629572 53.0898196 325.545272 52.0458617 326.181234 50.832987 326.872906 49.4333759 327.213363 47.8863896 327.173182 46.3257143 327.209909 45.0233248 326.961954 43.7286109 326.446623 42.5319481z"/>
      <polygon points="194.391 17.999 177.411 21.066 177.411 20.178 194.391 15.288"/>
      <path d="M69.3798052,59.7822727 C69.3798052,59.5386364 69.3537013,59.295 69.3362987,59.0557143 C69.3188961,58.8164286 69.2884416,58.4727273 69.2623377,58.1855844 C69.2101299,57.6635065 69.1492208,57.1414286 69.0752597,56.6237013 C68.9795455,55.9580519 68.8620779,55.2967532 68.7272078,54.6398052 C67.9610321,50.8979219 66.5790464,47.3091697 64.6375974,44.0198701 C64.3374026,43.5151948 64.0285065,43.0192208 63.7065584,42.5275974 L63.5020779,42.2230519 C62.2548616,40.3779066 60.8344664,38.6559506 59.2601948,37.0805844 C58.6293506,36.4497403 57.955,35.8493506 57.285,35.2663636 C57.285,35.1967532 57.285,35.1271429 57.3198052,35.0575325 C57.3546104,34.8225974 57.3850649,34.592013 57.4111688,34.3570779 C57.4938312,33.6957792 57.5590909,33.0518831 57.6112987,32.3644805 C57.6112987,32.1251948 57.6461039,31.8859091 57.6591558,31.6422727 C57.6983117,30.9505195 57.7200649,30.2587662 57.7287662,29.5626623 C57.7287662,29.3103247 57.7287662,29.057987 57.7287662,28.8056494 C57.7287662,28.0747403 57.6983117,27.3481818 57.6504545,26.6303247 C57.0413636,26.2257143 56.4279221,25.8385065 55.8014286,25.4687013 C55.5838961,25.3381818 55.3663636,25.212013 55.1444805,25.0901948 C54.5353896,24.7450433 53.9219481,24.4172944 53.3041558,24.1069481 C52.4862338,23.697987 51.6596104,23.3151299 50.8242857,22.9583766 C50.5980519,22.8626623 50.3631169,22.7756494 50.1325325,22.6842857 C49.9802597,21.9098701 49.8149351,21.1354545 49.6104545,20.3784416 C49.0335857,18.2279135 48.2527273,16.1373692 47.2785065,14.1352597 C46.6020807,12.7430512 45.8316858,11.3984941 44.9726623,10.1109091 C44.6463636,9.61928571 44.3113636,9.13636364 43.958961,8.66214286 L43.7675325,8.40980519 C42.3924766,6.56620213 40.8358431,4.86527401 39.121039,3.3325974 C38.6192641,2.88883117 38.1044372,2.45376623 37.5765584,2.0274026 C37.1414935,1.7011039 36.7368831,1.37915584 36.3061688,1.07025974 L35.5796104,0.578636364 L34.9705195,0.174025974 L34.6964286,0 L34.4353896,0.165324675 L33.8262987,0.569935065 C33.587013,0.73525974 33.3433766,0.900584416 33.1084416,1.07025974 C32.6733766,1.37915584 32.2383117,1.7011039 31.8380519,2.0274026 C31.3101732,2.43926407 30.7967965,2.874329 30.2979221,3.3325974 C28.5818751,4.84407738 27.0209582,6.52304679 25.6383766,8.34454545 C24.7129148,9.56521588 23.8713082,10.8472487 23.1193506,12.1818182 C22.8278571,12.6951948 22.5537662,13.2129221 22.2883766,13.7393506 L22.1274026,14.07 C21.1531818,16.0721095 20.3723234,18.1626538 19.7954545,20.3131818 C19.604026,21.0266883 19.4430519,21.7488961 19.2994805,22.4885065 L18.8948701,22.6407792 L18.2422727,22.9105195 C17.6331818,23.1672078 17.0197403,23.4456494 16.4193506,23.7327922 L15.7667532,24.0547403 C15.1402597,24.3563853 14.525368,24.6797835 13.9220779,25.0249351 L13.2651299,25.4077922 C12.6386364,25.7761472 12.0222944,26.1619048 11.4161039,26.5650649 C11.3725974,27.3003247 11.3421429,28.0399351 11.3377922,28.7751948 C11.3377922,29.0188312 11.3377922,29.2624675 11.3377922,29.5061039 C11.3377922,30.2109091 11.3638961,30.9157143 11.4030519,31.6161688 C11.4552597,32.515303 11.5379221,33.4144372 11.651039,34.3135714 C11.6988961,34.7051299 11.7598052,35.0923377 11.8163636,35.4795455 C11.2420779,35.9842208 10.6808442,36.4975974 10.1413636,37.0370779 C8.56474759,38.6181831 7.14421691,40.3475881 5.89948052,42.2012987 C5.03214258,43.4809754 4.25302152,44.8182727 3.56753247,46.2038961 C3.30649351,46.7346753 3.05850649,47.2698052 2.82357143,47.8092857 C2.78006494,47.905 2.73655844,48.0007143 2.6974026,48.1007792 C1.80924369,50.2039753 1.13158516,52.3899706 0.674350649,54.6267532 C0.539480519,55.2793506 0.422012987,55.9319481 0.330649351,56.6019481 L0.330649351,56.6280519 C0.256688312,57.1501299 0.191428571,57.6722078 0.139220779,58.202987 C0.108766234,58.4944805 0.087012987,58.7816234 0.0652597403,59.0731169 C0.0435064935,59.3646104 0.0304545455,59.556039 0.0174025974,59.7996753 L0,59.7996753 L0,60.1085714 C0.0913636364,60.1607792 0.187077922,60.2042857 0.278441558,60.2521429 L0.931038961,60.5784416 C1.19642857,60.708961 1.46181818,60.8307792 1.72720779,60.9525974 C2.20142857,61.1701299 2.68435065,61.3876623 3.16727273,61.566039 C3.17866053,61.5628881 3.19069012,61.5628881 3.20207792,61.566039 C4.49454389,62.0797273 5.81660621,62.515572 7.16116883,62.8712338 C10.0418762,63.6323647 13.0090739,64.0169744 15.9886364,64.0154545 L16.3105844,64.0154545 C16.8979221,64.0154545 17.4809091,63.9893506 18.0508442,63.9545455 C21.2396316,63.7710847 24.3882865,63.1518932 27.4090909,62.1142208 L27.9311688,62.5188312 C28.4532468,62.9190909 29.004329,63.3091991 29.5844156,63.6891558 L30.1630519,64.0763636 C30.746039,64.4592208 31.3420779,64.829026 31.9424675,65.1814286 L32.5646104,65.5425325 C33.2128571,65.907987 33.8698052,66.2516883 34.5267532,66.5823377 C35.1880519,66.2516883 35.8319481,65.907987 36.4845455,65.5425325 L37.111039,65.1857792 C37.7201299,64.829026 38.3161688,64.4548701 38.9078571,64.0676623 C39.8766017,63.4237662 40.8192424,62.7421645 41.7357792,62.0228571 C45.4724494,63.3435481 49.4062207,64.0202627 53.3694156,64.0241558 C54.1003247,64.0241558 54.8312338,64.0024026 55.5447403,63.9545455 C56.1320779,63.9197403 56.7150649,63.8675325 57.285,63.7979221 C58.9479866,63.6148666 60.5954374,63.3109679 62.2142857,62.8886364 C63.5647291,62.5336101 64.8926198,62.0977597 66.1907792,61.5834416 C66.6780519,61.392013 67.1566234,61.1875325 67.6351948,60.97 C67.9005844,60.8481818 68.165974,60.7263636 68.4313636,60.5958442 L69.0796104,60.2738961 C69.170974,60.226039 69.2666883,60.1825325 69.3580519,60.1303247 C69.3885065,59.9911039 69.3841558,59.891039 69.3798052,59.7822727 Z M58.0072078,38.2857143 C59.5599268,39.8370927 60.9559806,41.5377135 62.1751299,43.3629221 L52.1686364,49.1362338 L49.9933117,47.8919481 C50.042619,47.7962338 50.0948268,47.7005195 50.1499351,47.6048052 C50.9273274,46.1635367 51.6216643,44.6789921 52.2295455,43.1584416 C52.4601299,42.5754545 52.6646104,41.9881169 52.8821429,41.3964286 C52.9387013,41.2354545 52.9952597,41.0744805 53.0474675,40.9135065 C53.3781169,39.9346104 53.6652597,38.9426623 53.9175974,37.9463636 C54.2264935,38.116039 54.5353896,38.2944156 54.8399351,38.4727922 C55.3663636,38.786039 55.8884416,39.1123377 56.4018182,39.4473377 C56.5584416,38.8469481 56.6976623,38.2422078 56.8368831,37.6331169 C56.862987,37.5156494 56.8847403,37.3981818 56.9064935,37.2763636 C57.2937013,37.5896104 57.6548052,37.928961 58.0072078,38.2857143 Z M48.1616883,47.5961039 L48.079026,47.7353247 C48.0529221,47.7788312 48.0311688,47.8266883 48.0007143,47.8701948 C47.8701948,48.0920779 47.7396753,48.3052597 47.6048052,48.5314935 C47.3785714,48.9012987 47.1697403,49.2711039 46.9130519,49.6322078 C46.3764719,50.4472294 45.8181385,51.2361472 45.2380519,51.998961 L44.0155195,49.8888961 L43.8675974,49.6322078 L42.8495455,47.8919481 L41.4268831,45.4294805 C41.6574675,45.0596753 41.8619481,44.6855195 42.1012338,44.307013 C42.3405195,43.9285065 42.5362987,43.5456494 42.7451299,43.1584416 C43.0525758,42.578355 43.342619,41.9910173 43.6152597,41.3964286 C43.7544805,41.1005844 43.8937013,40.8003896 44.0503247,40.5001948 L44.5637013,41.3964286 L45.5861039,43.1584416 L46.8477922,45.3337662 L47.4873377,46.4431818 L48.1616883,47.5961039 Z M21.0484416,47.8571429 L20.9701299,47.7222727 L20.8918182,47.5874026 C20.8091558,47.4394805 20.7351948,47.2915584 20.6525325,47.1523377 C20.4001948,46.7172727 20.1478571,46.2387013 19.9085714,45.7731818 C19.4735065,44.9030519 19.0645455,44.0329221 18.686039,43.1323377 L26.3127273,43.1323377 C26.5172078,43.5151948 26.7477922,43.8980519 26.9479221,44.2765584 C27.1480519,44.6550649 27.382987,45.0335714 27.6222727,45.4033766 C27.9703247,45.9631602 28.3299784,46.5156926 28.7012338,47.060974 C28.8883117,47.3307143 29.0753896,47.6004545 29.2711688,47.8658442 L21.0484416,47.8658442 L21.0484416,47.8571429 Z M25.1859091,49.5974026 L30.6111688,49.5974026 C31.4464935,50.6328571 32.3267749,51.6262554 33.252013,52.5775974 C32.2731169,53.4912338 31.2463636,54.343961 30.2065584,55.1531818 C29.5104545,55.683961 28.8012987,56.1973377 28.0747403,56.6846104 C27.0011953,55.6590622 25.9845264,54.5755836 25.0292857,53.439026 C24.629026,52.9604545 24.2287662,52.4688312 23.8502597,51.9685065 C23.2585714,51.2027922 22.7016883,50.410974 22.1665584,49.5974026 L25.1859091,49.5974026 Z M29.6844805,45.3294156 C29.319026,44.7725325 28.9666234,44.2069481 28.6272727,43.6326623 L28.475,43.3672727 L28.3227273,43.1018831 C27.9920779,42.5217965 27.677381,41.9344589 27.3786364,41.3398701 C26.9145671,40.4233333 26.4882035,39.4922944 26.0995455,38.5467532 L29.145,33.2433117 C30.1543506,33.1084416 31.1724026,33.0083766 32.1904545,32.9518182 C32.8517532,32.9126623 33.4956494,32.8909091 34.1830519,32.8865584 L34.8008442,32.8865584 C35.4664935,32.8865584 36.1321429,32.9126623 36.7977922,32.9474675 C37.8245455,33.0083766 38.839697,33.1055411 39.8432468,33.238961 L42.8887013,38.5467532 C42.4971429,39.4864935 42.0707792,40.4218831 41.5835065,41.3398701 C41.2934632,41.9199567 40.9802165,42.5072944 40.6437662,43.1018831 L40.4914935,43.3672727 L40.3348701,43.6326623 C39.9984199,44.2127489 39.6474675,44.7783333 39.282013,45.3294156 C38.7164286,46.1995455 38.116039,47.0261688 37.4895455,47.8353896 L31.3986364,47.8353896 C30.8214502,47.0493723 30.2500649,46.2256494 29.6844805,45.3642208 L29.6844805,45.3294156 Z M23.1585065,25.8602597 C24.5882714,25.4365062 26.0407934,25.093711 27.5091558,24.8335065 C28.1269481,24.7203896 28.7490909,24.6246753 29.3755844,24.5463636 C30.3370779,24.4245455 31.2985714,24.3331818 32.2774675,24.280974 L30.7764935,26.974026 L30.6981818,27.1132468 L29.7584416,28.7142857 L28.066039,31.650974 C27.4047403,31.751039 26.7608442,31.8685065 26.0995455,32.0033766 C25.4382468,32.1382468 24.7943506,32.2905195 24.1330519,32.4384416 C23.8415584,31.2072078 23.6196753,29.9672727 23.45,28.7186364 C23.3238312,27.7962987 23.2237662,26.8478571 23.1628571,25.8950649 L23.1585065,25.8602597 Z M34.5224026,24.2200649 L34.679026,24.2200649 L35.5752597,24.2200649 C35.9668182,24.2200649 36.3583766,24.2461688 36.7499351,24.2679221 C37.7186797,24.3201299 38.6845238,24.4071429 39.6474675,24.528961 L38.2857143,26.974026 L38.2335065,27.0697403 L37.2633117,28.7142857 L35.8406494,31.1767532 L35.4055844,31.1767532 L33.6653247,31.1767532 C33.5174026,31.1767532 33.3738312,31.1767532 33.2302597,31.1767532 C32.5733117,31.1767532 31.9250649,31.2333117 31.2594156,31.2811688 L30.2805195,31.3681818 L30.7938961,30.4980519 L31.8119481,28.7577922 L32.8474026,26.9653247 L33.8132468,25.2337662 L34.3701299,24.2548701 L34.5224026,24.2200649 Z M47.6135065,43.1018831 L46.5954545,41.3398701 L44.8987013,38.4031818 C45.1423377,37.7824892 45.3685714,37.1559957 45.5774026,36.5237013 C45.7905844,35.8841558 45.9863636,35.2185065 46.1690909,34.5963636 C47.5055245,35.0030457 48.8197665,35.4793676 50.1064286,36.0233766 C50.8634416,36.3453247 51.6161039,36.6803247 52.3513636,37.0457792 C51.9958055,38.5001131 51.560075,39.9336664 51.0461688,41.3398701 C50.8286364,41.9199567 50.5980519,42.5072944 50.3544156,43.1018831 C49.9802597,43.972013 49.5756494,44.8725974 49.1318831,45.7427273 L47.7701299,43.3803247 L47.6135065,43.1018831 Z M50.4675325,24.6507792 C51.4768831,25.0858442 52.467381,25.5644156 53.439026,26.0864935 C54.0394156,26.4084416 54.6340043,26.746342 55.2227922,27.1001948 L55.945,27.5352597 C55.945,27.8180519 55.9667532,28.1008442 55.9667532,28.3836364 C55.9667532,28.4358442 55.9667532,28.4837013 55.9667532,28.5359091 L55.8623377,28.475 L55.8144805,28.4445455 L55.6926623,28.3749351 L55.1531818,28.0616883 C54.5701948,27.731039 53.9698052,27.4047403 53.3694156,27.1001948 C53.1301299,26.9783766 52.8908442,26.8609091 52.6602597,26.7521429 C52.0772727,26.4693506 51.4768831,26.1952597 50.8764935,25.9385714 L50.6024026,25.8254545 L50.1673377,25.6427273 C49.7032684,25.4570996 49.2333983,25.2787229 48.7577273,25.1075974 L48.5662987,25.0336364 C48.5662987,25.5687662 48.5662987,26.1082468 48.5227922,26.639026 L48.9317532,26.8 C49.3668182,26.9653247 49.7757792,27.1262987 50.1890909,27.3003247 L50.7416234,27.543961 L50.9591558,27.6396753 C51.5508442,27.9050649 52.1381818,28.1878571 52.6994156,28.4793506 L53.4564286,28.8752597 C54.0437662,29.1885065 54.6398052,29.5235065 55.1966883,29.8672078 C55.4403247,30.0151299 55.683961,30.1630519 55.9232468,30.3022727 L55.9232468,30.4545455 C55.9232468,30.7242857 55.9232468,30.9896753 55.8884416,31.2550649 C55.8884416,31.3072727 55.8884416,31.3551299 55.8884416,31.402987 L55.7927273,31.3464286 L55.7448701,31.3203247 L55.6709091,31.2724675 C55.4620779,31.1506494 55.2358442,31.0244805 55.0226623,30.9026623 C54.4527273,30.5807143 53.8784416,30.2674675 53.2824026,29.975974 C53.0344156,29.8498052 52.7733766,29.7192857 52.507987,29.5931169 C51.9337013,29.319026 51.3507143,29.057987 50.7677273,28.81 C50.5240909,28.7055844 50.2674026,28.6011688 50.002013,28.4967532 C49.667013,28.3618831 49.3276623,28.2400649 48.9883117,28.1138961 C48.8012338,28.0442857 48.6141558,27.965974 48.4314286,27.9007143 C48.3922727,28.4184416 48.3400649,28.9448701 48.2791558,29.4625974 C48.5227922,29.553961 48.7664286,29.654026 49.0100649,29.7497403 C49.2537013,29.8454545 49.6148052,29.9803247 49.9062987,30.1021429 C50.1977922,30.223961 50.4588312,30.3327273 50.7372727,30.4588961 C51.3072078,30.7112338 51.8814935,30.980974 52.4383766,31.2594156 C52.7124675,31.3986364 52.9909091,31.5378571 53.2562987,31.6944805 C53.8305844,31.9946753 54.4005195,32.3166234 54.9574026,32.6429221 C55.2227922,32.7995455 55.4881818,32.9605195 55.7492208,33.1258442 L55.7492208,33.2433117 C55.7492208,33.4825974 55.7013636,33.7131818 55.6709091,33.9481169 C55.6709091,33.9742208 55.6709091,33.995974 55.6709091,34.0220779 C55.6709091,34.0481818 55.6709091,34.1177922 55.6709091,34.1612987 L55.6317532,34.1612987 L55.5882468,34.1351948 L54.765974,33.6653247 C54.2134416,33.3607792 53.6478571,33.0605844 53.0822727,32.7951948 C52.8081818,32.6603247 52.5297403,32.5211039 52.2512987,32.3905844 C51.6900649,32.1295455 51.1201299,31.8772078 50.5545455,31.6422727 C50.2804545,31.5248052 49.9933117,31.4116883 49.6844156,31.2985714 C49.1666883,31.0984416 48.6446104,30.9026623 48.1225325,30.7242857 C48.0485714,31.2333117 47.9659091,31.7466883 47.8745455,32.247013 C48.400974,32.4384416 48.9404545,32.6385714 49.4668831,32.8517532 C49.7627273,32.9692208 50.0629221,33.0953896 50.337013,33.2215584 L50.5327922,33.3085714 C51.0331169,33.5261039 51.5334416,33.7436364 52.0163636,33.9872727 C52.3078571,34.1264935 52.5993506,34.2744156 52.8864935,34.4223377 C53.4172727,34.6964286 53.9567532,34.9922727 54.4831818,35.2924675 L54.5440909,35.3272727 C54.8268831,35.4925974 55.114026,35.6579221 55.3881169,35.8275974 C55.3902244,35.8667249 55.3902244,35.9059374 55.3881169,35.9450649 L55.3881169,35.9842208 L55.2575974,36.7064286 C54.9574026,36.5324026 54.6528571,36.3670779 54.3483117,36.2017532 C53.8175325,35.9146104 53.2737013,35.6361688 52.7298701,35.3751299 C52.0946753,35.0662338 51.4507792,34.7703896 50.8025325,34.505 L50.410974,34.3483766 C49.1608874,33.835 47.8904978,33.3825325 46.5998052,32.990974 C46.0385714,32.8212987 45.4773377,32.6646753 44.9117532,32.5211039 C44.7812338,33.091039 44.6333117,33.6566234 44.4766883,34.2222078 C44.2635065,34.9922727 44.0416234,35.757987 43.7544805,36.515 L42.1273377,33.6957792 L40.9831169,31.7162338 C40.2565584,31.6031169 39.5212987,31.5074026 38.8077922,31.4334416 L37.8245455,31.3464286 L38.2857143,30.4806494 L39.3037662,28.7403896 L40.126039,27.309026 L41.5312987,24.8813636 L42.4623377,23.2672727 L43.0279221,22.284026 C44.0198701,22.4972078 44.9987662,22.7495455 45.9733117,23.0366883 C46.5533983,23.2107143 47.1334848,23.3977922 47.7135714,23.5979221 C48.0007143,23.697987 48.2835065,23.8111039 48.5837013,23.9155195 C49.2058442,24.1330519 49.8366883,24.3636364 50.4675325,24.6507792 Z M35.5796104,2.73220779 C38.1782798,4.63203535 40.4815153,6.905949 42.4144805,9.48006494 L35.5796104,13.4304545 L35.5796104,2.73220779 Z M35.5796104,15.4665584 L43.4412338,10.9244805 C45.4557034,13.9384642 46.9608076,17.2632157 47.8962987,20.7656494 C47.9963636,21.1398052 48.0877273,21.513961 48.1747403,21.8924675 C48.0094156,21.8359091 47.8484416,21.7706494 47.6831169,21.7184416 C47.0870779,21.5226623 46.4953896,21.3399351 45.8993506,21.1702597 C45.3033117,21.0005844 44.5941558,20.8222078 43.9415584,20.6699351 C43.6152597,20.595974 43.2846104,20.522013 42.9583117,20.4567532 C42.632013,20.3914935 42.4014286,20.3436364 42.122987,20.2957792 L41.1875974,21.9142208 L40.6002597,22.9322727 C38.9798897,22.6937518 37.347158,22.5484909 35.7101299,22.4972078 L35.5796104,22.4972078 L35.5796104,15.4665584 Z M33.8132468,2.73220779 L33.8132468,18.3597403 L24.6333766,13.0519481 C26.9231073,8.9972656 30.0529661,5.47877036 33.8132468,2.73220779 Z M21.4965584,20.7656494 C22.0636125,18.6452294 22.8388976,16.5860604 23.8111039,14.6181818 L33.8175974,20.3914935 L33.8175974,22.4928571 L33.6522727,22.4928571 L33.3477273,22.4928571 C31.7106766,22.5437659 30.0779234,22.6890286 28.4575974,22.9279221 C27.8340043,23.0207359 27.2162121,23.1251515 26.6042208,23.2411688 L26.1038961,23.3455844 C25.0945455,23.5500649 24.0895455,23.7806494 23.0975974,24.0764935 C23.0975974,23.7284416 23.0975974,23.376039 23.0975974,23.027987 C23.0975974,22.4101948 23.1193506,21.7924026 23.1628571,21.1746104 C22.5624675,21.3399351 21.9707792,21.5226623 21.3790909,21.7184416 L21.2572727,21.7575974 C21.3297835,21.4269481 21.4095455,21.0962987 21.4965584,20.7656494 Z M13.0998052,30.4762987 C13.0998052,29.7845455 13.0780519,29.0884416 13.0998052,28.3966883 C13.0998052,28.1269481 13.0998052,27.8528571 13.1259091,27.5787662 L13.8481169,27.1437013 L13.982987,27.0697403 C13.9806997,27.0986995 13.9806997,27.127794 13.982987,27.1567532 L13.982987,27.2133117 C13.982987,27.2611688 13.982987,27.3046753 13.982987,27.3525325 L13.982987,27.9746753 C13.982987,28.6446753 14.0090909,29.3277273 14.0438961,30.0020779 C14.0438961,30.2674675 14.0787013,30.5328571 14.0917532,30.7895455 C14.1396104,31.4377922 14.2048701,32.0947403 14.2831818,32.7386364 C14.3136364,32.9822727 14.3440909,33.2259091 14.3788961,33.4651948 C14.3788961,33.4651948 14.3788961,33.4912987 14.3788961,33.5043506 C14.4572078,34.0655844 14.5529221,34.6355195 14.652987,35.1967532 C15.1141558,34.9313636 15.5927273,34.6746753 16.0625974,34.431039 C15.9625325,33.8437013 15.8755195,33.2476623 15.8059091,32.6516234 C15.8059091,32.6037662 15.8059091,32.5515584 15.8059091,32.4993506 C15.7769048,32.2731169 15.7508009,32.0468831 15.7275974,31.8206494 C15.6623377,31.1767532 15.6101299,30.5154545 15.5796753,29.8802597 C15.5579221,29.5887662 15.5492208,29.3016234 15.5405195,29.0101299 C15.5405195,28.3401299 15.5100649,27.6614286 15.5405195,26.9957792 C15.5405195,26.726039 15.5405195,26.4475974 15.5405195,26.1735065 L15.6188312,26.1038961 L16.3323377,25.7340909 L16.4628571,25.6688312 L16.4628571,25.8950649 C16.4628571,26.1329004 16.4628571,26.3808874 16.4628571,26.639026 C16.4628571,27.2916234 16.4628571,27.9442208 16.5237662,28.5968182 C16.5237662,28.8752597 16.5585714,29.1667532 16.575974,29.4669481 C16.6281818,30.0977922 16.6934416,30.7373377 16.7674026,31.3594805 C16.7674026,31.5030519 16.8065584,31.6596753 16.8283117,31.7945455 C16.8500649,31.9294156 16.8631169,32.0555844 16.8805195,32.1861039 C16.9544805,32.6951299 17.0371429,33.1998052 17.1285065,33.6957792 L17.1546104,33.8480519 C17.6201299,33.6261688 18.0987013,33.412987 18.5816234,33.1954545 C18.5816234,33.0823377 18.5511688,32.9692208 18.5294156,32.8561039 C18.4554545,32.3949351 18.3771429,31.9294156 18.3205844,31.4682468 C18.2988312,31.3116234 18.2814286,31.1506494 18.264026,30.9853247 L18.2118182,30.5502597 C18.1465584,29.9237662 18.0943506,29.2885714 18.0551948,28.6620779 C18.0334416,28.3531818 18.0203896,28.0442857 18.0116883,27.7440909 C17.9855844,27.0958442 17.9768831,26.4388961 17.9812338,25.795 C17.9812338,25.4948052 17.9812338,25.1946104 17.9812338,24.8987662 L18.09,24.8465584 C18.3249351,24.7377922 18.5685714,24.6333766 18.8035065,24.5333117 L18.920974,24.4854545 L18.920974,24.5594156 C18.920974,24.877013 18.920974,25.1946104 18.920974,25.5035065 C18.920974,26.1343506 18.9557792,26.7738961 18.9949351,27.4047403 C18.9949351,27.7092857 19.0384416,28.0181818 19.0645455,28.3270779 C19.1167532,28.9448701 19.182013,29.5626623 19.2603247,30.1717532 C19.2994805,30.4675974 19.342987,30.7721429 19.3908442,31.0766883 C19.4735065,31.6248701 19.5692208,32.1730519 19.6692857,32.7125325 C20.1522078,32.5211039 20.6351299,32.3427273 21.1180519,32.1687013 C21.0136364,31.6161688 20.9222727,31.0505844 20.843961,30.4893506 C20.8091558,30.237013 20.7743506,29.989026 20.7438961,29.7366883 L20.7177922,29.5322078 C20.6481818,28.9231169 20.5872727,28.300974 20.5437662,27.6962338 C20.5176623,27.3699351 20.5002597,27.0436364 20.4828571,26.7216883 C20.4828571,26.538961 20.4828571,26.3562338 20.4828571,26.1691558 C20.4828571,25.7340909 20.4567532,25.2772727 20.4567532,24.8335065 C20.4567532,24.5159091 20.4567532,24.193961 20.4567532,23.8763636 L20.5655195,23.8328571 L20.8004545,23.7501948 L21.2964286,23.5718182 C21.2964286,23.9068182 21.2964286,24.2461688 21.2964286,24.5855195 C21.2964286,25.198961 21.3442857,25.8080519 21.3877922,26.4214935 C21.44,27.1175974 21.5096104,27.8180519 21.5966234,28.5098052 C21.6270779,28.7882468 21.6705844,29.0623377 21.7097403,29.3364286 C21.8794156,30.5328571 22.1012987,31.7249351 22.3797403,32.903961 C22.5146104,33.4782468 22.6625325,34.0481818 22.8148052,34.6181169 C23.3716883,34.4484416 23.9329221,34.2918182 24.5028571,34.1438961 C25.2729221,33.9481169 26.056039,33.7697403 26.8478571,33.6174675 L25.2903247,36.4584416 L24.1504545,38.437987 C24.4158442,39.1253896 24.6986364,39.8084416 25.0205844,40.4784416 C25.1554545,40.7786364 25.2903247,41.0788312 25.4556494,41.3746753 L15.001039,41.3746753 C14.6877922,40.4175325 14.4180519,39.4516883 14.1831169,38.4771429 C14.0395455,37.8724026 13.909026,37.2633117 13.7915584,36.6542208 C13.7611039,36.4975974 13.7393506,36.3453247 13.7132468,36.1887013 C13.5914286,35.5187013 13.487013,34.8487013 13.4043506,34.17 C13.2477273,32.9474675 13.1433117,31.7118831 13.0998052,30.4762987 Z M4.35064935,48.6794156 L11.1724675,52.595 L1.92733766,57.9680519 C2.27187251,54.7691396 3.0885115,51.6389345 4.35064935,48.6794156 Z M16.3236364,62.2708442 L16.0016883,62.2708442 C11.4537022,62.2656483 6.95618987,61.3175561 2.79311688,59.4864286 L16.3236364,51.6552597 L16.3236364,62.2708442 Z M12.9344805,51.6030519 L5.10331169,47.0696753 C6.86877975,43.4927303 9.26691384,40.2647563 12.1818182,37.5417532 L12.1818182,37.6113636 C12.3123377,38.2291558 12.4515584,38.8425974 12.6168831,39.4516883 C12.7822078,40.0607792 12.9605844,40.7568831 13.152013,41.3746753 C13.2520779,41.6966234 13.3564935,42.0142208 13.4609091,42.3318182 C13.5653247,42.6494156 13.6436364,42.8712987 13.7393506,43.1366883 L16.7848052,43.1366883 C17.3959787,44.6565207 18.0917199,46.1409623 18.8687662,47.5830519 L19.0253896,47.8701948 L19.1211039,48.0398701 L12.9344805,51.6030519 Z M18.0987013,62.2142857 L18.0987013,50.6633117 L20.012987,49.5625974 C20.012987,49.5625974 20.0434416,49.6061039 20.0564935,49.6322078 C20.9163211,51.024796 21.8531663,52.3683336 22.8626623,53.6565584 C23.2542208,54.1467316 23.6544805,54.6296537 24.0634416,55.1053247 C24.7943506,55.9493506 25.5600649,56.7629221 26.3518831,57.546039 L26.5085065,57.6983117 C26.217013,57.8766883 25.9168182,58.0463636 25.6166234,58.216039 C25.0771429,58.5249351 24.5246104,58.8207792 23.9677273,59.0861688 C24.4027922,59.5212338 24.8813636,59.9562987 25.3512338,60.3913636 L25.7862987,60.7785714 C23.2901743,61.5619394 20.7093109,62.0439343 18.0987013,62.2142857 Z M37.0370779,63.1583766 C36.4497403,63.5281818 35.845,63.8805844 35.2402597,64.2155844 L34.5267532,64.5984416 C34.2874675,64.4722727 34.0481818,64.3461039 33.8132468,64.2155844 L33.6783766,64.1372727 L33.747987,64.0981169 L33.7958442,64.072013 L33.922013,64.0024026 L34.4571429,63.6935065 C35.0401299,63.3541558 35.6231169,62.9974026 36.1974026,62.6275974 C36.4192857,62.484026 36.6324675,62.3361039 36.85,62.1925325 C37.3894805,61.8314286 37.9246104,61.4485714 38.4466883,61.057013 L38.7512338,60.8220779 L39.0601299,60.5871429 C39.4951948,60.2608442 39.8954545,59.9171429 40.3044156,59.5734416 L40.3870779,59.5038312 C39.9259091,59.2340909 39.4690909,58.9512987 39.020974,58.6685065 L38.7773377,58.8642857 C38.3944805,59.1731818 38.0029221,59.4820779 37.607013,59.7779221 C37.4808442,59.877987 37.345974,59.9737013 37.2111039,60.0694156 L36.9326623,60.2782468 C36.4105844,60.6524026 35.8667532,61.0265584 35.3272727,61.378961 C35.0836364,61.5355844 34.8443506,61.6922078 34.6050649,61.8401299 C34.0351299,62.1925325 33.4521429,62.5362338 32.8648052,62.8581818 C32.6342208,62.9887013 32.3949351,63.1192208 32.1556494,63.2453896 L32.0468831,63.1801299 L32.0207792,63.1801299 L31.3681818,62.7450649 L31.2376623,62.6493506 L31.2985714,62.6145455 L31.3464286,62.5884416 C31.372004,62.5755667 31.3967104,62.5610335 31.4203896,62.5449351 L32.0686364,62.1751299 C32.6298701,61.8444805 33.1911039,61.4964286 33.7305844,61.1396753 C33.9655195,60.9874026 34.2048052,60.8264286 34.4527922,60.6567532 C34.9748701,60.3 35.4969481,59.9258442 35.9972727,59.5473377 L36.1190909,59.455974 C36.2974675,59.3167532 36.4845455,59.1775325 36.6672727,59.0209091 C36.9935714,58.7685714 37.3111688,58.5075325 37.6244156,58.2464935 L37.9724675,57.955 C37.5852597,57.6896104 37.1937013,57.4111688 36.8108442,57.1283766 L36.6933766,57.0413636 C36.2583117,57.4155195 35.7884416,57.780974 35.3316234,58.1333766 L34.7051299,58.5988961 L34.6050649,58.6772078 C34.096039,59.047013 33.573961,59.4081169 33.0518831,59.7561688 C32.7908442,59.9258442 32.5341558,60.0955195 32.2731169,60.2564935 C31.7292857,60.6001948 31.1637013,60.9351948 30.6024675,61.2527922 L29.8324026,61.6878571 C29.7973626,61.6671749 29.7639148,61.6439068 29.7323377,61.6182468 L29.3842857,61.3659091 L29.0971429,61.1570779 L28.984026,61.0700649 L29.0318831,61.043961 L29.8454545,60.5697403 C30.3892857,60.2434416 30.9287662,59.9040909 31.4551948,59.556039 L32.2209091,59.033961 C32.7299351,58.6815584 33.2302597,58.3117532 33.7175325,57.9419481 C33.9568182,57.7592208 34.1961039,57.5721429 34.4397403,57.3763636 C34.8748052,57.0283117 35.3098701,56.6759091 35.7144805,56.3148052 C35.3098701,55.9928571 34.9096104,55.6665584 34.5224026,55.3315584 C34.0873377,55.7013636 33.6522727,56.0624675 33.2172078,56.4148701 L32.4427922,56.9935065 L32.4123377,57.0152597 C31.9250649,57.3763636 31.4334416,57.7287662 30.9374675,58.0637662 C30.6720779,58.2464935 30.3936364,58.4292208 30.1238961,58.6032468 C29.6018182,58.9382468 29.057987,59.2688961 28.5141558,59.5864935 C28.2400649,59.7431169 27.965974,59.8997403 27.6918831,60.0476623 L27.6005195,59.9737013 L27.0088312,59.4777273 C27.295974,59.3080519 27.5831169,59.1383766 27.878961,58.9643506 C28.4053896,58.6380519 28.9231169,58.3030519 29.4321429,57.955 C30.1717532,57.4503247 30.893961,56.9195455 31.6074675,56.3713636 C32.6255195,55.5795455 33.6058658,54.7427706 34.5485065,53.861039 C34.7747403,53.6478571 34.9835714,53.425974 35.2228571,53.2127922 C35.4621429,52.9996104 35.6231169,52.8125325 35.8188961,52.6124026 C35.3838312,52.2077922 34.9487662,51.7944805 34.5485065,51.3681169 C34.0003247,50.8068831 33.4608442,50.2282468 32.9431169,49.6278571 L38.4423377,49.6278571 C38.9035065,49.0477706 39.3501732,48.467684 39.7823377,47.8875974 C39.9737662,47.6222078 40.1651948,47.3524675 40.3522727,47.0783766 L40.8177922,47.8571429 L41.8358442,49.5974026 L42.8495455,51.3376623 L44.0503247,53.4216234 L44.9900649,55.0531169 L45.5512987,56.0146104 C44.8725974,56.7571212 44.1692424,57.4735281 43.4412338,58.1638312 C43.0061688,58.5988961 42.5188961,59.033961 42.0446753,59.4255195 C41.8314935,59.6082468 41.6096104,59.7822727 41.3964286,59.9606494 C40.87,60.3957143 40.3392208,60.8307792 39.791039,61.2223377 C38.9006061,61.9184416 37.982619,62.5608874 37.0370779,63.1496753 L37.0370779,63.1583766 Z M55.5621429,62.2142857 C54.8355844,62.2621429 54.1046753,62.2882468 53.3868182,62.2882468 C49.9830144,62.2858018 46.6001394,61.7559892 43.3585714,60.7176623 L43.7153247,60.4087662 C44.1895455,59.9737013 44.6507143,59.5386364 45.1031818,59.1035714 L45.2206494,58.9904545 C45.6557143,58.5553896 46.0907792,58.1203247 46.491039,57.6852597 C46.8912987,57.2501948 47.3263636,56.7672727 47.7266234,56.2974026 L46.7868831,54.6659091 L46.2038961,53.6609091 C47.2176773,52.3748682 48.1560898,51.0311661 49.0144156,49.6365584 L49.1449351,49.419026 L55.5751948,53.1301299 L55.5621429,62.2142857 Z M57.3024026,62.0446104 L57.3024026,54.1438312 L66.5649351,59.4907792 C63.6239152,60.7848577 60.5091012,61.6408819 57.3198052,62.0315584 L57.3024026,62.0446104 Z M53.9480519,50.1542857 L63.1235714,44.8551948 C65.4944768,48.8648893 66.978041,53.3363517 67.4742208,57.9680519 L53.9480519,50.1542857 Z"/>
    </g>
  </g>
</svg>
