<svg xmlns="http://www.w3.org/2000/svg" width="537" height="394" viewBox="0 0 537 394">
  <g fill="none">
    <rect width="537" height="393.345" fill="#F9F9FA"/>
    <g transform="translate(106 164)">
      <polygon fill="#009DDC" points="106.451 23.172 97.189 40.83 88.016 23.172 80.962 23.172 80.962 55.35 87.672 55.35 87.672 35.295 95.37 50.003 99.053 50.003 106.751 35.295 106.751 55.35 113.462 55.35 113.462 23.172"/>
      <path fill="#009DDC" d="M133.693686,23.1715017 L128.325085,23.1715017 L115.624573,55.3387372 L122.745734,55.3387372 L125.629693,47.4522184 L136.333618,47.4522184 L139.217577,55.3387372 L146.338737,55.3387372 L133.693686,23.1715017 Z M135.013652,42.5827645 L126.860922,42.5827645 L130.998294,30.947099 L135.013652,42.5827645 Z"/>
      <polygon fill="#009DDC" points="142.834 23.172 142.834 29.128 152.939 29.128 152.939 55.35 159.649 55.35 159.649 29.128 169.71 29.128 169.71 23.172"/>
      <polygon fill="#009DDC" points="179.138 49.393 179.138 41.729 192.449 41.729 192.449 36.172 179.138 36.172 179.138 29.128 194.534 29.128 194.534 23.172 172.427 23.172 172.427 55.35 194.945 55.35 194.945 49.393"/>
      <path fill="#009DDC" d="M234.354949 41.5622867C233.381187 40.3070415 232.068791 39.3564201 230.572526 38.8225256 231.780389 38.1742693 232.78021 37.1975213 233.456485 36.0051195 234.241437 34.6582521 234.65483 33.12717 234.654437 31.5682594 234.649516 30.5432528 234.46945 29.5266264 234.122014 28.5622867 233.78627 27.5913468 233.283237 26.6866369 232.635666 25.8890785 231.979601 25.1026898 231.177244 24.4510096 230.273038 23.9701365 229.311381 23.4688325 228.240536 23.2135066 227.156143 23.2269625L209.963311 23.2269625 209.963311 55.3942522 225.492321 55.394198C226.849355 55.3978701 228.200454 55.2149866 229.507679 54.8506826 230.701018 54.5149699 231.826971 53.9745127 232.835324 53.253413 233.804828 52.5494893 234.59828 51.6307551 235.153584 50.5691126 235.728162 49.4396879 236.017583 48.1867993 235.996587 46.9197952 236.060532 45.0010712 235.482853 43.1158066 234.354949 41.5622867zM226.978669 49.3267918C226.516465 49.5252685 226.017452 49.6235589 225.514505 49.6151877L216.640785 49.6151877 216.640785 41.8506826 225.791809 41.8506826C226.256282 41.8458644 226.715595 41.9483557 227.133959 42.1501706 227.555756 42.3551375 227.932755 42.6416569 228.243174 42.9931741 228.557686 43.3738413 228.805236 43.8051781 228.975256 44.2687713 229.153335 44.7593808 229.243454 45.2775629 229.241468 45.7994881 229.245585 46.3092276 229.147522 46.8146248 228.953072 47.2858362 228.770397 47.7421589 228.503203 48.1598857 228.165529 48.5170648 227.829225 48.8541624 227.424492 49.1151586 226.978669 49.2824232L226.978669 49.3267918zM226.978669 35.4505119C226.332845 36.103844 225.445663 36.4611255 224.527304 36.4377133L216.629693 36.4377133 216.629693 28.9948805 224.804608 28.9948805C225.650053 28.9860544 226.458359 29.341709 227.023038 29.9709898 227.677215 30.715655 228.011931 31.6879248 227.954778 32.6774744 228.040056 33.6773811 227.702063 34.6672183 227.023038 35.4061433L226.978669 35.4505119zM259.267918 43.2593857C260.930867 42.4861207 262.32236 41.2299116 263.261092 39.6544369 264.310062 37.9269321 264.855591 35.9407436 264.836177 33.9197952 264.832786 32.5767101 264.569107 31.2470138 264.059727 30.0042662 263.546161 28.7617587 262.821929 27.6172473 261.918942 26.6211604 260.994524 25.5970565 259.884151 24.7576899 258.646758 24.1476109 257.35059 23.5193596 255.927579 23.1968105 254.487201 23.2047782L240.233788 23.2046341 240.233788 55.3720137 246.889078 55.3720137 246.889078 44.7568259 252.501706 44.7568259 259.156997 55.3498294 266.777304 55.3498294 259.267918 43.2593857zM246.944539 29.1279863L254.098976 29.1279863C254.603994 29.1344982 255.100903 29.2558807 255.552048 29.4829352 256.047239 29.7201166 256.485954 30.0604991 256.838737 30.4812287 257.229483 30.9340789 257.537376 31.4522402 257.748294 32.0119454 257.972694 32.6381739 258.085327 33.2989576 258.081058 33.9641638 258.085304 34.6157717 257.984169 35.2637801 257.78157 35.8831058 257.604094 36.4405203 257.330014 36.9623979 256.971843 37.4249147 256.678735 37.836998 256.300447 38.1812399 255.862628 38.4343003 255.420943 38.6770188 254.924624 38.8030075 254.420648 38.8003413L247 38.8003413 246.944539 29.1279863zM297.036689 33.3762799C296.32648 31.4567509 295.278379 29.6798622 293.94198 28.1296928 292.599936 26.5900498 290.972789 25.324491 289.150171 24.4027304 287.214114 23.440965 285.078062 22.9506614 282.916382 22.971843 280.800688 22.955226 278.708263 23.4138916 276.793515 24.3139932 274.949421 25.1842803 273.294784 26.4092396 271.924061 27.918942 269.079058 31.022871 267.49661 35.0778931 267.487201 39.2883959 267.502857 41.3453992 267.878254 43.3838051 268.596416 45.3114334 269.300748 47.2294807 270.353721 49.0007327 271.702218 50.5358362 273.055299 52.0631159 274.694545 53.3104508 276.527304 54.2073379 278.46728 55.1419837 280.596733 55.6164608 282.75 55.5938567 284.872817 55.6104035 286.972444 55.1518206 288.895051 54.2517065 290.73034 53.3872434 292.377431 52.1698282 293.742321 50.668942 295.125377 49.1495471 296.219267 47.3903008 296.970137 45.4778157 297.72594 43.5182623 298.102359 41.4328975 298.079352 39.3327645 298.086672 37.3012422 297.733652 35.2845199 297.036689 33.3762799zM282.849829 49.5708191C281.592222 49.5911587 280.349389 49.2976062 279.233788 48.7167235 278.187841 48.1531687 277.270069 47.3789168 276.538396 46.4428328 275.792566 45.4367526 275.222504 44.3116298 274.852389 43.1151877 274.465699 41.8613413 274.271228 40.5561404 274.275597 39.2440273 274.275459 37.9657718 274.466127 36.6946555 274.841297 35.4726962 275.18565 34.2702512 275.749775 33.142001 276.505119 32.1450512 277.223193 31.1899279 278.133936 30.3963347 279.178328 29.8156997 280.288816 29.2189477 281.533891 28.9172269 282.794369 28.9394198 284.028152 28.9186493 285.247792 29.2045025 286.343857 29.7713311 287.37899 30.3129337 288.286585 31.0692628 289.005973 31.9897611 289.768632 32.9902931 290.350487 34.1164638 290.725256 35.3174061 291.132752 36.5710578 291.33867 37.8814461 291.335324 39.1996587 291.338849 40.4753709 291.144267 41.743895 290.758532 42.9598976 290.404241 44.1542821 289.849089 45.2795908 289.116894 46.2875427 288.413775 47.2498582 287.513853 48.051469 286.476962 48.6390785 285.367829 49.2555749 284.118771 49.5764337 282.849829 49.5708191zM324.168089 42.2389078C323.677038 41.2028963 322.956276 40.2924593 322.06058 39.5767918 321.056581 38.7923858 319.933039 38.1744378 318.732935 37.746587 317.446246 37.2696246 316.026451 36.8148464 314.495734 36.4044369 313.386519 36.116041 312.277304 35.8387372 311.367747 35.5614334 310.599582 35.3528267 309.855889 35.0627864 309.149317 34.6962457 308.645765 34.4320931 308.212318 34.0518769 307.884812 33.5870307 307.583362 33.1604046 307.434836 32.6444714 307.463311 32.1228669 307.408814 31.1889333 307.825146 30.2896571 308.572526 29.7269625 309.656358 29.063381 310.921194 28.7568716 312.188567 28.8506826 313.108651 28.855008 314.024844 28.9704632 314.917235 29.1945392 315.774775 29.4102735 316.61319 29.6959282 317.424061 30.0486348 318.109864 30.3367183 318.77031 30.6817831 319.398464 31.0802048 319.794253 31.3082296 320.165893 31.5758105 320.507679 31.8788396L320.773891 32.1561433 323.890785 26.6211604 323.680034 26.4769625C322.130719 25.4508567 320.466678 24.6095295 318.721843 23.9701365 316.722267 23.2337249 314.607831 22.8581589 312.476962 22.8609215 310.925199 22.8516332 309.380877 23.0759899 307.895904 23.5264505 306.524362 23.9433866 305.244548 24.6171711 304.124573 25.5119454 303.034411 26.3700127 302.160628 27.4717391 301.573379 28.7286689 300.936775 30.11958 300.622084 31.6361634 300.65273 33.165529 300.621475 34.3030988 300.821475 35.4351741 301.240614 36.4931741 301.638381 37.3908028 302.233668 38.1870474 302.982082 38.8225256 303.838878 39.5495051 304.799775 40.1439899 305.832765 40.5861775 307.124877 41.1379782 308.455829 41.5939867 309.814846 41.9505119 310.924061 42.25 312.033276 42.5605802 313.142491 42.8822526 314.016423 43.1270877 314.866551 43.4500623 315.682594 43.8472696 316.268321 44.1109643 316.796088 44.4879408 317.235495 44.9564846 317.583877 45.4188014 317.763894 45.9862473 317.745734 46.5648464 317.745734 48.5614334 316.181741 49.5264505 312.953925 49.5264505 311.775784 49.5282357 310.60203 49.3829138 309.459898 49.0938567 308.391196 48.813699 307.348428 48.442607 306.343003 47.9846416 305.514115 47.649986 304.706565 47.2647327 303.924915 46.831058 303.427861 46.5442675 302.959799 46.2099374 302.527304 45.8327645L302.261092 45.5554608 299.255119 51.412116 299.454778 51.556314C301.382769 52.9079782 303.513084 53.9450557 305.766212 54.6288396 308.068396 55.347912 310.464465 55.7217136 312.87628 55.7380546 314.396629 55.7469109 315.91247 55.5718629 317.390785 55.2167235 318.766242 54.9067895 320.071649 54.3424923 321.239761 53.552901 322.35444 52.7625151 323.263495 51.7165312 323.890785 50.5025597 324.57422 49.1253457 324.912994 47.602767 324.877986 46.0656997 324.92746 44.753286 324.684996 43.4462538 324.168089 42.2389078z"/>
      <polygon fill="#00B194" points="193.037 17.869 176.166 20.92 176.166 20.044 193.037 15.185"/>
      <path fill="#73C167" d="M68.8933447,59.3651877 C68.8933447,59.1211604 68.8933447,58.8882253 68.8933447,58.644198 C68.8933447,58.4001706 68.8933447,58.0674061 68.8156997,57.7790102 C68.8156997,57.2576792 68.7047782,56.7363481 68.6271331,56.2261092 C68.5273038,55.5716724 68.4163823,54.9061433 68.2832765,54.2627986 C67.8180678,52.0114807 67.1306866,49.8118608 66.2312287,47.6962457 C65.6410747,46.2939923 64.9554503,44.9338617 64.1791809,43.6254266 C63.8796928,43.1262799 63.5691126,42.6271331 63.2474403,42.1390785 C63.1919795,42.0392491 63.1143345,41.9394198 63.0477816,41.8395904 C60.5617982,38.1740513 57.4040429,35.0125322 53.7414676,32.5221843 C52.6684569,31.8014791 51.5576542,31.1387002 50.4138225,30.5366894 C50.4859781,29.243611 50.4859781,27.9475152 50.4138225,26.6544369 C50.2563195,24.4459213 49.8848397,22.2579053 49.3046075,20.1211604 C48.7324727,17.9847659 47.9561439,15.9083648 46.9863481,13.9206485 C46.29801,12.5556373 45.5159923,11.2399204 44.6459044,9.98293515 C44.3242321,9.49488055 43.9914676,9.01791809 43.6365188,8.55204778 C43.581058,8.46331058 43.5145051,8.38566553 43.4479522,8.29692833 C42.0743361,6.49155908 40.5249338,4.82697338 38.8225256,3.32764505 C38.334471,2.89505119 37.8131399,2.46245734 37.2918089,2.05204778 C36.8813993,1.73037543 36.4598976,1.40870307 36.0383959,1.10921502 C35.7943686,0.931740614 35.5614334,0.765358362 35.3174061,0.610068259 L34.7295222,0.177474403 L34.4522184,0 L34.197099,0.166382253 L33.5870307,0.565699659 C33.3540956,0.720989761 33.1100683,0.887372014 32.8771331,1.06484642 C32.4445392,1.36433447 32.0230375,1.68600683 31.612628,2.00767918 C31.0580205,2.44027304 30.5588737,2.87286689 30.059727,3.32764505 C28.3877389,4.83013815 26.8647439,6.4905741 25.5119454,8.28583618 C24.5909799,9.4972102 23.7569814,10.7723012 23.0162116,12.1015358 C22.7278157,12.6006826 22.4505119,13.1220137 22.1843003,13.6433447 C22.1843003,13.7542662 22.084471,13.8651877 22.0290102,13.9761092 C21.0622381,15.961284 20.2860065,18.033711 19.7107509,20.165529 C19.1315377,22.3024981 18.7600748,24.4904146 18.6015358,26.6988055 C18.5238297,27.9917231 18.5238297,29.2881403 18.6015358,30.581058 C17.4563242,31.1806056 16.3453892,31.8434635 15.2738908,32.5665529 C11.6047429,35.0526816 8.44261339,38.2148111 5.95648464,41.883959 C5.1006711,43.161192 4.32637683,44.4911998 3.63822526,45.866041 C3.3831058,46.387372 3.1390785,46.9197952 2.90614334,47.4522184 L2.67320819,47.6962457 C1.79169277,49.7991994 1.11922703,51.9837842 0.66552901,54.21843 C0.532423208,54.8617747 0.421501706,55.5162116 0.332764505,56.1817406 C0.255119454,56.7030717 0.199658703,57.2244027 0.144197952,57.7457338 C0.144197952,58.0341297 0.144197952,58.3225256 0.066552901,58.6109215 C-0.0110921502,58.8993174 0.066552901,59.087884 0.066552901,59.3319113 L0,59.3319113 C0,59.4428328 0,59.5426621 0,59.6424915 L0.277303754,59.7866894 L0.920648464,60.1083618 L1.70819113,60.4854949 C2.18515358,60.6962457 2.66211604,60.9069966 3.15017065,61.0955631 C4.45323841,61.6253698 5.78664819,62.0772476 7.14334471,62.4488055 C10.0042583,63.1946944 12.9496105,63.5675238 15.9061433,63.5580205 L16.2278157,63.5580205 C16.8046075,63.5580205 17.3370307,63.5580205 17.9692833,63.5580205 C23.2293483,63.2350153 28.3466539,61.7176526 32.9325939,59.1211604 C33.4428328,58.8327645 33.9530717,58.5221843 34.4522184,58.2116041 C34.9513652,58.5221843 35.4616041,58.8327645 35.9829352,59.1211604 C41.1790689,62.0380749 47.0394237,63.5661987 52.9982935,63.5580205 C53.7303754,63.5580205 54.4513652,63.5580205 55.2167235,63.4803754 C55.9820819,63.4027304 56.3259386,63.3916382 56.9692833,63.3250853 C58.6011508,63.138813 60.2174208,62.8348356 61.8054608,62.415529 C63.1480062,62.0629213 64.4669072,61.6257575 65.7542662,61.1066553 C66.2312287,60.9180887 66.7081911,60.7073379 67.1851536,60.496587 L67.9726962,60.1194539 L68.616041,59.8088737 L68.8933447,59.6646758 C68.9044369,59.5759386 68.8933447,59.4761092 68.8933447,59.3651877 Z"/>
      <path fill="#D0E4A6" d="M23.5486348 47.0861775L18.0025597 50.3139932 18.0025597 61.7721843C23.262826 61.4357876 28.3647807 59.8378599 32.8771331 57.1134812 29.1465365 54.4361168 25.9866438 51.0424373 23.5819113 47.1305461L23.5486348 47.0861775zM20.2209898 29.7491468L21.0750853 29.394198C23.1616114 28.5068788 25.3316949 27.8305856 27.552901 27.3754266 29.5520805 26.9737297 31.5819379 26.7436545 33.6203072 26.6877133L33.6203072 20.2542662 23.6928328 14.5196246C21.358929 19.2525489 20.1841139 24.4726821 20.2653584 29.7491468L20.2209898 29.7491468zM24.4581911 12.9667235L33.5759386 18.2354949 33.5759386 2.70648464C29.8418141 5.4394561 26.733439 8.93732343 24.4581911 12.9667235zM22.6723549 45.5776451C20.6083961 41.792522 19.2727313 37.6538424 18.7346416 33.3762799 18.7346416 33.0989761 18.6680887 32.8105802 18.6459044 32.5221843 12.7810211 35.7732152 8.04532876 40.7333113 5.06911263 46.7423208L12.8336177 51.2457338 22.6723549 45.5776451zM4.33703072 48.3395904C3.08186414 51.2764041 2.2670537 54.3824017 1.91894198 57.5571672L11.0921502 52.2551195 4.33703072 48.3395904zM16.2278157 61.8387372L16.2278157 51.3233788 2.79522184 59.087884C6.92813985 60.903321 11.3920781 61.8436938 15.9061433 61.8498294L16.2278157 61.8387372zM51.8114334 48.8054608L61.7389078 43.0708191C58.8118822 38.6814915 54.8799539 35.0537743 50.2696246 32.4889078L50.1697952 33.3651877C49.8924803 35.6277683 49.3908657 37.8571663 48.6723549 40.0204778 48.0247708 41.9591706 47.2082108 43.8372586 46.2320819 45.6331058L51.8114334 48.8054608zM53.552901 49.8037543L66.996587 57.5682594C66.5080028 52.966915 65.0324555 48.5251393 62.6706485 44.5460751L53.552901 49.8037543zM36.0605802 57.1134812C41.1709317 60.2013816 47.0274637 61.8352275 52.9982935 61.8387372 53.7303754 61.8387372 54.4513652 61.8387372 55.2167235 61.7610922L55.2167235 52.7542662 45.4001706 47.0861775C43.9351594 49.514353 42.1726607 51.7500807 40.1535836 53.7414676 38.8815072 54.9729937 37.5127925 56.1006069 36.0605802 57.1134812zM56.9249147 53.7636519L56.9249147 61.5947099C60.09728 61.212628 63.1958336 60.36417 66.1203072 59.0767918L56.9249147 53.7636519zM35.3284983 2.70648464L35.3284983 13.3105802 42.1501706 9.41723549C40.220347 6.85554858 37.9214753 4.59405693 35.3284983 2.70648464zM47.8737201 29.394198L48.6834471 29.7380546C48.7430445 26.6618308 48.3696484 23.5925147 47.5742321 20.6203072 46.6371189 17.1430983 45.1384426 13.8422637 43.137372 10.8481229L35.3728669 15.3515358 35.3728669 26.6877133C37.4148583 26.7443153 39.4483437 26.9743812 41.4513652 27.3754266 43.653853 27.8335022 45.8052522 28.5097625 47.8737201 29.394198zM36.6040956 32.7551195C35.9496587 32.7551195 35.2841297 32.6996587 34.6186007 32.6885666L34.0085324 32.6885666C33.3430034 32.6885666 32.6885666 32.6885666 32.0341297 32.7551195 31.0025597 32.7551195 29.9931741 32.9104096 28.9948805 33.0435154L25.9445392 38.3122867C26.3327645 39.2440273 26.7542662 40.1757679 27.2201365 41.0853242 27.5196246 41.6732082 27.8302048 42.2610922 28.1629693 42.837884 28.2043841 42.9265152 28.252594 43.0118095 28.3071672 43.0930034L28.4624573 43.359215C28.7952218 43.9360068 29.1501706 44.46843 29.5051195 45.0452218 30.0708191 45.8993174 30.6697952 46.7312287 31.2909556 47.5409556L37.3472696 47.5409556C37.96843 46.7312287 38.5674061 45.8993174 39.1220137 45.0452218 39.4880546 44.4906143 39.8430034 43.9360068 40.1757679 43.359215 40.2209408 43.2703346 40.272856 43.1850452 40.331058 43.1040956L40.475256 42.837884C40.8080205 42.2610922 41.1186007 41.7286689 41.4180887 41.0853242 41.8728669 40.1757679 42.3054608 39.2440273 42.6825939 38.3122867L39.6433447 33.0435154C38.6006826 32.9104096 37.5912969 32.8105802 36.6040956 32.7551195z"/>
      <path fill="#FFFFFF" d="M30.4035836 49.2824232L21.9846416 49.2824232C22.5170648 50.0921502 23.0938567 50.8796928 23.6484642 51.633959 24.0366894 52.1331058 24.4249147 52.6211604 24.8242321 53.0981229 25.7795267 54.2270459 26.7940352 55.3044983 27.8634812 56.3259386 29.6880933 55.1039624 31.4127964 53.739036 33.0213311 52.2440273 32.0992644 51.3016945 31.2255607 50.3132246 30.4035836 49.2824232zM28.4957338 46.7312287C28.1296928 46.1988055 27.774744 45.6220137 27.3865188 45.0895904 27.1535836 44.7235495 26.9317406 44.3464164 26.7209898 43.9803754 26.5102389 43.6143345 26.2883959 43.2261092 26.0776451 42.8711604L18.5571672 42.8711604C18.9343003 43.7474403 19.3336177 44.6237201 19.7662116 45.4889078 20.0767918 46.0989761 20.4095563 46.6979522 20.7423208 47.2969283 20.7722649 47.3387991 20.798258 47.3833589 20.8199659 47.4300341 20.8523276 47.4743184 20.8784535 47.5228378 20.8976109 47.5742321L29.0614334 47.5742321 28.4957338 46.7312287zM45.8549488 34.3856655C45.6663823 35.0290102 45.4778157 35.6723549 45.2670648 36.3046075 45.056314 36.9368601 44.834471 37.5469283 44.5904437 38.1680887L46.2764505 41.0409556 47.2858362 42.7935154 48.8054608 45.4778157C49.2491468 44.612628 49.6484642 43.7363481 50.0255973 42.8600683 50.2696246 42.2832765 50.4914676 41.7508532 50.7133106 41.1075085 51.2227099 39.7132879 51.6523017 38.2911907 52 36.8481229 50.0242288 35.8566523 47.9686486 35.032936 45.8549488 34.3856655zM45.2670648 42.837884L44.2576792 41.0409556 43.7363481 40.1535836C43.6032423 40.4530717 43.4701365 40.7414676 43.3259386 41.0409556 43.0486348 41.6288396 42.7491468 42.2167235 42.4496587 42.7935154 42.2389078 43.1706485 42.028157 43.5477816 41.806314 43.9027304 41.584471 44.2576792 41.362628 44.6569966 41.140785 45.0119454L42.5494881 47.4633106 43.5588737 49.2047782 44.9232082 51.556314C45.5 50.8020478 46.0324232 50.0145051 46.5870307 49.2047782 46.9530717 48.6390785 47.3191126 48.0955631 47.6962457 47.4633106 47.7263597 47.4176466 47.7523442 47.3693898 47.7738908 47.3191126L47.862628 47.1860068 45.2670648 42.837884zM29.1945392 24.4027304C28.5733788 24.4803754 27.9522184 24.5691126 27.3421502 24.6800341 25.878552 24.9389411 24.4306068 25.2796341 23.0051195 25.7005119 23.1393655 27.8975049 23.458469 30.0792821 23.9590444 32.2226962 24.6134812 32.056314 25.2679181 31.912116 25.9112628 31.7790102 26.5546075 31.6459044 27.2201365 31.5238908 27.8634812 31.4240614L29.5494881 28.5068259 30.5588737 26.7542662 32.0784983 24.1365188C31.0580205 24.2030717 30.1484642 24.2918089 29.1945392 24.4027304zM36.4931741 24.1476109C35.8165529 24.1476109 35.1288396 24.0921502 34.4411263 24.0921502L34.1305461 24.0921502 31.5682594 28.5290102 30.5588737 30.28157 30.0486348 31.168942 31.0580205 31.0580205C31.7124573 31.0025597 32.355802 30.9692833 33.0102389 30.947099L35.6279863 30.947099 37.0366894 28.5068259 38.0460751 26.7542662 39.3771331 24.4027304C38.4232082 24.2807167 37.4581911 24.2030717 36.4931741 24.1476109z"/>
      <path fill="#FFFFFF" d="M55.5716724 28.1962457C55.5716724 27.918942 55.5716724 27.6305461 55.5716724 27.3532423L54.8506826 26.9095563C54.2627986 26.5546075 53.6749147 26.221843 53.0759386 25.9001706 51.2525068 24.9211324 49.3533312 24.0902431 47.3967577 23.415529 46.8347554 23.2158703 46.2579636 23.0273038 45.6663823 22.8498294 44.7013652 22.5725256 43.725256 22.3174061 42.7380546 22.1066553L42.1834471 23.0827645 41.2517065 24.6911263 39.0332765 28.5179181 38.0238908 30.2704778 37.5580205 31.0691126 38.5341297 31.1578498C39.2662116 31.2244027 39.9872014 31.3242321 40.7525597 31.4351536L41.8617747 33.3984642 43.4812287 36.2047782C43.7363481 35.4505119 43.9803754 34.6851536 44.1911263 33.9197952 44.3464164 33.3651877 44.5017065 32.8105802 44.6237201 32.2337884 45.1894198 32.3779863 45.7329352 32.5332765 46.309727 32.6996587 47.7246693 33.1313196 49.1166911 33.6348169 50.4803754 34.2081911 51.1237201 34.4744027 51.7670648 34.7627986 52.3993174 35.0733788L53.996587 35.894198 54.9061433 36.3933447 55.0392491 35.6390785C55.1390785 35.0179181 55.2389078 34.3967577 55.3054608 33.7645051 55.3054608 33.5093857 55.3720137 33.2542662 55.394198 32.9991468 55.4607509 32.3447099 55.5162116 31.690273 55.5494881 31.0358362L55.5494881 30.2482935C55.5827645 29.5605802 55.5827645 28.8395904 55.5716724 28.1962457zM23.9812287 38.1680887L25.0904437 36.2047782 26.7098976 33.4095563C25.9223549 33.5648464 25.1459044 33.7312287 24.3805461 33.9308874 23.8148464 34.0750853 23.2713311 34.2303754 22.7056314 34.3967577 22.5392491 33.8421502 22.3950512 33.2875427 22.2619454 32.6996587 21.9207843 31.2624637 21.6615498 29.8070469 21.4854949 28.3404437 21.3967577 27.6527304 21.3302048 26.9539249 21.274744 26.2662116 21.2192833 25.5784983 21.197099 25.0460751 21.1860068 24.4360068 21.1860068 24.1032423 21.1860068 23.7704778 21.1860068 23.4266212L20.4650171 23.6928328C19.866041 23.9146758 19.2892491 24.1476109 18.7013652 24.3916382L17.9914676 24.7022184C17.3924915 24.9795222 16.8046075 25.2568259 16.2278157 25.556314L15.5179181 25.9334471C14.918942 26.2551195 14.331058 26.587884 13.7542662 26.9428328L13.0332765 27.3865188C13.0332765 27.6527304 13.0332765 27.9300341 13.0332765 28.1962457 13.0332765 28.883959 13.0332765 29.5716724 13.0332765 30.2593857 13.0953684 32.3193352 13.3253686 34.370789 13.7209898 36.3933447 13.8319113 37.003413 13.9650171 37.6023891 14.109215 38.2124573 14.3421502 39.1774744 14.6083618 40.1313993 14.918942 41.0853242L25.2568259 41.0853242C25.1237201 40.7858362 24.9795222 40.4974403 24.8464164 40.1979522 24.524744 39.5324232 24.2474403 38.8225256 23.9812287 38.1680887zM44.6791809 54.7175768L43.7474403 53.0981229 41.5290102 49.2824232 40.5196246 47.5409556 40.0537543 46.7312287C39.8762799 47.0085324 39.6877133 47.274744 39.4880546 47.5409556 39.0665529 48.1288396 38.6228669 48.7167235 38.1680887 49.2824232L32.6220137 49.2824232C33.1433447 49.8813993 33.7312287 50.3916382 34.2192833 51.0127986 34.7073379 51.633959 35.0511945 51.8447099 35.4837884 52.2440273L34.8848123 52.8430034 34.2192833 53.4863481C32.6405794 54.9726447 30.9454646 56.3302202 29.1501706 57.5460751 28.6399317 57.8899317 28.1296928 58.2337884 27.6083618 58.5554608L26.7542662 59.0656997 27.3421502 59.5537543C27.8302048 59.9641638 28.3293515 60.3523891 28.8284983 60.7295222 29.0392491 60.8848123 29.2389078 61.0401024 29.4607509 61.1843003 29.9820819 61.5725256 30.5699659 61.9385666 31.0691126 62.2935154L31.7235495 62.7150171C32.3003413 63.0699659 32.8882253 63.4138225 33.4872014 63.746587L34.197099 64.1237201 34.9069966 63.746587C35.5059727 63.4138225 36.1049488 63.0588737 36.6928328 62.7039249 38.4388415 61.6144276 40.1000011 60.3945134 41.662116 59.0546075 42.1390785 58.644198 42.5938567 58.2337884 43.0486348 57.8011945 43.7696246 57.1134812 44.46843 56.4035836 45.1450512 55.6604096L44.6791809 54.7175768z"/>
      <path fill="#00B194" d="M51.9889078,36.8259386 C51.6395962,38.2540171 51.2100175,39.6612575 50.7022184,41.0409556 C50.4803754,41.6288396 50.2585324,42.2167235 50.0145051,42.7935154 C49.637372,43.6697952 49.2380546,44.5460751 48.7943686,45.4112628 L47.2858362,42.7935154 L46.2764505,41.0409556 L44.5904437,38.1680887 C44.834471,37.5469283 45.056314,36.9257679 45.2670648,36.3046075 C45.4778157,35.6834471 45.6663823,35.0290102 45.8549488,34.3856655 C45.2892491,34.2192833 44.7457338,34.0639932 44.168942,33.9197952 C43.9581911,34.6851536 43.7141638,35.4505119 43.4590444,36.2047782 C43.2039249,36.9590444 42.9377133,37.6134812 42.6493174,38.3122867 C42.2721843,39.2440273 41.8395904,40.1757679 41.3848123,41.0853242 C41.0853242,41.6732082 40.774744,42.2610922 40.4419795,42.837884 L40.2977816,43.1040956 C40.2395796,43.1850452 40.1876643,43.2703346 40.1424915,43.359215 C39.809727,43.9360068 39.4547782,44.46843 39.0887372,45.0452218 C38.5341297,45.8993174 37.9795222,46.7312287 37.3139932,47.5409556 L31.2576792,47.5409556 C31.7235495,48.1288396 32.2005119,48.7167235 32.6885666,49.2824232 L38.2346416,49.2824232 C38.6894198,48.7167235 39.1331058,48.1732082 39.5546075,47.5409556 C39.7542662,47.274744 39.9428328,47.0085324 40.1203072,46.7312287 L40.5861775,47.5409556 L41.5955631,49.2824232 L43.8139932,53.0981229 L44.7457338,54.7175768 L45.3003413,55.6715017 C44.6237201,56.4146758 43.9249147,57.1245734 43.2039249,57.8122867 C42.7491468,58.2448805 42.2943686,58.6552901 41.8174061,59.0656997 C40.2552912,60.4056056 38.5941316,61.6255197 36.8481229,62.7150171 C36.2602389,63.0699659 35.6612628,63.4249147 35.0622867,63.7576792 L34.3523891,64.1348123 L33.6424915,63.7576792 L33.5093857,63.6800341 L33.5759386,63.6800341 L33.6313993,63.6800341 L33.753413,63.6134812 L34.2858362,63.302901 C34.862628,62.9701365 35.3950512,62.6151877 36.0051195,62.2491468 L36.6484642,61.8165529 C37.1808874,61.4505119 37.7576792,61.0733788 38.2346416,60.7073379 L38.8447099,60.2414676 C39.2883959,59.8976109 39.7320819,59.53157 40.1646758,59.1322526 C39.713595,58.866041 39.2588168,58.5887372 38.8003413,58.3003413 C38.3418658,58.6774744 37.8759954,59.0472127 37.4027304,59.4095563 L36.7372014,59.9087031 C36.2158703,60.2858362 35.6279863,60.6518771 35.1399317,61.0179181 L34.418942,61.4726962 C33.8532423,61.8165529 33.309727,62.1604096 32.6996587,62.4820819 L31.9897611,62.8703072 L31.8788396,62.8037543 L31.2244027,62.3822526 L31.0580205,62.2158703 L31.1245734,62.2158703 L31.2022184,62.2158703 L31.8455631,61.8387372 C32.4001706,61.5170648 32.9547782,61.1732082 33.4982935,60.8182594 L34.2081911,60.3412969 C34.7295222,59.9863481 35.2508532,59.609215 35.75,59.2320819 L36.415529,58.721843 C36.859215,58.3779863 37.2918089,58.0230375 37.7022184,57.612628 C37.2807167,57.3242321 36.859215,57.024744 36.4377133,56.7141638 L35.084471,57.8233788 L34.3634812,58.355802 C33.8643345,58.721843 33.3430034,59.087884 32.8216724,59.4650171 C32.5665529,59.6313993 32.3114334,59.7977816 32.0452218,59.9530717 C31.5017065,60.2969283 30.9360068,60.6296928 30.3924915,60.9513652 L29.616041,61.3728669 C29.5816089,61.3531212 29.5514453,61.3267281 29.5273038,61.2952218 C29.3054608,61.1510239 29.105802,60.9957338 28.8950512,60.8404437 L28.7841297,60.7517065 L29.5938567,60.274744 C30.137372,59.9530717 30.7030717,59.609215 31.1911263,59.2653584 L31.9564846,58.7551195 L33.4428328,57.6459044 L34.1638225,57.0802048 C34.5853242,56.7363481 35.0179181,56.3813993 35.4283276,55.9709898 C35.0290102,55.6493174 34.6296928,55.3276451 34.2414676,54.9948805 C33.8199659,55.3609215 33.3762799,55.7269625 32.9325939,56.1040956 L32.1783276,56.6808874 C31.6791809,57.0469283 31.1800341,57.4129693 30.6697952,57.7901024 C30.4146758,57.9786689 30.137372,58.1561433 29.8711604,58.3225256 C29.3498294,58.6552901 28.7619454,58.9880546 28.2738908,59.2986348 L27.4530717,59.7645051 L27.3643345,59.6868601 L26.7764505,59.1988055 L27.6305461,58.6885666 C28.1518771,58.3668942 28.662116,58.0230375 29.1723549,57.6791809 C30.9676489,56.463326 32.6627637,55.1057505 34.2414676,53.6194539 L34.9069966,52.9761092 L35.5059727,52.3771331 C35.0770762,51.9778157 34.6555745,51.5674061 34.2414676,51.1459044 C33.8273606,51.5674061 33.4058589,51.9778157 32.9769625,52.3771331 C31.3684278,53.8721419 29.6437247,55.2370682 27.8191126,56.4590444 C27.3088737,56.7918089 26.7986348,57.1134812 26.2773038,57.4240614 L25.3899317,57.9453925 C24.8575085,58.2448805 24.2807167,58.5443686 23.7482935,58.8216724 C24.2030717,59.2653584 24.6578498,59.6868601 25.1237201,60.1083618 L25.6561433,60.5631399 C26.1331058,60.9846416 26.6322526,61.3950512 27.1313993,61.7832765 L27.7303754,62.116041 C28.2627986,62.5153584 28.8395904,62.9035836 29.3387372,63.2807167 L29.915529,63.6578498 C30.4923208,64.0423777 31.0802048,64.412116 31.6791809,64.7670648 L32.3003413,65.1331058 C32.943686,65.4991468 33.5981229,65.8319113 34.2525597,66.1646758 C34.9069966,65.8319113 35.5614334,65.4991468 36.193686,65.1331058 L36.8148464,64.7670648 C37.4138225,64.412116 38.0127986,64.0460751 38.6006826,63.6578498 C40.2718845,62.5564842 41.8621239,61.33693 43.359215,60.0085324 C43.8250853,59.5870307 44.2798635,59.165529 44.7346416,58.721843 L44.8455631,58.6109215 C45.2818544,58.1894198 45.7033561,57.7568259 46.1100683,57.3131399 C46.53157,56.8583618 46.9419795,56.4035836 47.3302048,55.9377133 L46.3984642,54.3071672 L45.8216724,53.3088737 C46.8333296,52.0355833 47.7667859,50.7020744 48.6168942,49.3156997 L48.7832765,49.0383959 L49.2158703,48.306314 L49.637372,47.5742321 C49.6824647,47.4746547 49.7343504,47.3782956 49.7926621,47.2858362 C50.5616271,45.8460397 51.2503917,44.3648255 51.855802,42.8489761 C52.0887372,42.2721843 52.2994881,41.7397611 52.5102389,41.0964164 C52.5102389,40.9411263 52.6100683,40.774744 52.665529,40.6194539 C52.9982935,39.6433447 53.2866894,38.6561433 53.5307167,37.668942 C53.0537543,37.3694539 52.5213311,37.0921502 51.9889078,36.8259386 Z M44.9232082,51.633959 L43.5588737,49.2824232 L42.5494881,47.5409556 L41.140785,45.0895904 C41.362628,44.7235495 41.5955631,44.3464164 41.806314,43.9803754 C42.0170648,43.6143345 42.2389078,43.2261092 42.4496587,42.8711604 C42.7491468,42.2943686 43.0486348,41.7619454 43.3259386,41.1186007 C43.4701365,40.8191126 43.6032423,40.5307167 43.7363481,40.2312287 L44.2576792,41.1186007 L45.2670648,42.8711604 L47.8293515,47.3080205 L47.7406143,47.4411263 C47.7190677,47.4914034 47.6930833,47.5396603 47.6629693,47.5853242 C47.3191126,48.1732082 46.9530717,48.7610922 46.5537543,49.3267918 C46.0546075,50.0921502 45.4778157,50.8796928 44.9232082,51.633959 Z"/>
      <path fill="#00B5CC" d="M57.3131399,28.5511945 C57.3131399,27.8191126 57.3131399,27.0981229 57.2354949,26.3327645 C56.6365188,25.9334471 56.0153584,25.5452218 55.394198,25.2235495 L54.7397611,24.8464164 C54.140785,24.5136519 53.5307167,24.1808874 52.9206485,23.8703072 C52.1109215,23.4709898 51.2901024,23.0827645 50.4581911,22.7610922 C49.4377133,22.3284983 48.3950512,21.940273 47.3523891,21.5853242 C46.7645051,21.3967577 46.1766212,21.2081911 45.5776451,21.0418089 C44.9786689,20.8754266 44.2798635,20.6979522 43.6365188,20.5426621 L42.6604096,20.3319113 L41.8284983,20.1766212 L40.8967577,21.7849829 L40.3199659,22.7943686 C38.7215346,22.553313 37.1104676,22.4051689 35.4948805,22.3506826 L33.1100683,22.3506826 C31.4837924,22.3965302 29.8615793,22.5372701 28.2517065,22.7721843 C27.6416382,22.8609215 27.0204778,22.9607509 26.4104096,23.0827645 L25.9112628,23.1825939 C24.9129693,23.3822526 23.9146758,23.6262799 22.9274744,23.9035836 C22.9274744,24.5136519 22.9274744,25.112628 23.0051195,25.7116041 C24.4306068,25.2907262 25.878552,24.9500332 27.3421502,24.6911263 C27.9522184,24.5802048 28.5733788,24.4914676 29.1945392,24.4138225 C30.1484642,24.2918089 31.1023891,24.2030717 32.0784983,24.1476109 L30.5588737,26.7653584 L29.5494881,28.5179181 L27.8634812,31.4351536 C27.2201365,31.5349829 26.5656997,31.6569966 25.9112628,31.7901024 C25.2568259,31.9232082 24.6134812,32.0674061 23.9590444,32.2337884 C24.0921502,32.7994881 24.2474403,33.3430034 24.4027304,33.9308874 C25.1680887,33.7312287 25.9445392,33.5648464 26.7320819,33.4095563 C27.5196246,33.2542662 28.2073379,33.1433447 28.9505119,33.0435154 C29.9488055,32.9104096 30.9581911,32.8105802 31.9897611,32.7551195 C32.644198,32.7551195 33.2986348,32.6996587 33.9641638,32.6885666 L34.5742321,32.6885666 C35.2397611,32.6885666 35.9052901,32.6885666 36.559727,32.7551195 C37.5802048,32.7551195 38.5895904,32.9104096 39.5989761,33.0435154 L42.6382253,38.3122867 C42.9266212,37.6134812 43.1928328,36.9146758 43.4479522,36.2047782 L41.8284983,33.3984642 L40.7192833,31.4351536 C39.9982935,31.3242321 39.2773038,31.2244027 38.5008532,31.1578498 L37.5469283,31.0580205 L38.0127986,30.2593857 L39.0221843,28.5068259 L41.2406143,24.6800341 L42.1501706,23.0827645 L42.7047782,22.1066553 C43.6919795,22.3174061 44.6680887,22.5725256 45.6331058,22.8498294 C46.2246871,23.0273038 46.801479,23.2158703 47.3634812,23.415529 C49.3200548,24.0902431 51.2192304,24.9211324 53.0426621,25.9001706 C53.6416382,26.221843 54.2295222,26.5546075 54.8174061,26.9095563 L55.5383959,27.3532423 C55.5383959,27.6305461 55.5383959,27.918942 55.5383959,28.1962457 L55.5383959,28.3515358 L55.4607509,28.2849829 L55.3387372,28.2073379 L54.806314,27.8967577 C54.2295222,27.5750853 53.6305461,27.253413 53.03157,26.9428328 L52.2883959,26.6211604 C51.7116041,26.3438567 51.112628,26.0665529 50.5136519,25.8114334 L49.8148464,25.5119454 C49.2824232,25.3011945 48.7056314,25.0904437 48.2175768,24.9018771 C48.2175768,25.4343003 48.2175768,25.9667235 48.2175768,26.4991468 C48.7721843,26.7098976 49.3267918,26.9206485 49.8703072,27.1535836 L50.6356655,27.4863481 C51.2235495,27.7525597 51.8003413,28.0298635 52.3771331,28.3293515 L53.1313993,28.7175768 C53.7192833,29.028157 54.3071672,29.3609215 54.8728669,29.7047782 L55.5938567,30.1484642 L55.5938567,30.2704778 L55.5938567,31.0580205 C55.5938567,31.1134812 55.5938567,31.1578498 55.5938567,31.2133106 L55.4607509,31.1245734 L55.3831058,31.1245734 L54.7397611,30.7474403 C54.1851536,30.4368601 53.6305461,30.1262799 53.03157,29.837884 C52.7875427,29.7047782 52.5213311,29.5827645 52.2551195,29.4496587 C51.6894198,29.1834471 51.1459044,28.9172355 50.5358362,28.6732082 L49.7593857,28.3515358 L48.1066553,27.7303754 C48.1066553,28.2406143 48.0179181,28.7619454 47.9513652,29.2832765 C48.4948805,29.4829352 49.0605802,29.693686 49.5708191,29.915529 L50.3916382,30.2704778 C50.96843,30.5255973 51.5008532,30.7918089 52.0998294,31.0691126 C52.3771331,31.2022184 52.6433447,31.3464164 52.9095563,31.4906143 C53.475256,31.7901024 54.0187713,32.1006826 54.5955631,32.4334471 C54.8617747,32.5887372 55.1279863,32.7440273 55.3831058,32.9104096 C55.3885865,32.9508961 55.3885865,32.9919366 55.3831058,33.0324232 C55.3831058,33.2875427 55.3276451,33.5426621 55.2943686,33.7977816 C55.2998677,33.8456903 55.2998677,33.8940708 55.2943686,33.9419795 L54.3515358,33.387372 C53.7969283,33.087884 53.2423208,32.7883959 52.6766212,32.5110922 L51.8668942,32.1672355 C51.3122867,31.912116 50.7576792,31.6569966 50.1919795,31.4240614 L49.3489761,31.0580205 C48.8276451,30.8583618 48.3174061,30.6697952 47.7960751,30.4923208 C47.71843,31.0025597 47.640785,31.5017065 47.5520478,32.0008532 C48.0733788,32.1894198 48.6612628,32.3890785 49.1271331,32.5998294 L50.0145051,32.9658703 C50.5691126,33.2098976 51.1237201,33.4650171 51.6783276,33.7312287 L52.5435154,34.1638225 C53.0981229,34.4522184 53.6527304,34.7517065 54.1962457,35.0622867 L55.028157,35.5614334 C55.028157,35.5614334 55.028157,35.6390785 55.028157,35.6723549 L54.8950512,36.4266212 L53.9854949,35.9274744 L52.3882253,35.1066553 C51.7559727,34.7960751 51.112628,34.5076792 50.4692833,34.2414676 C49.105599,33.6680933 47.7135771,33.164596 46.2986348,32.7329352 C45.7440273,32.5665529 45.1894198,32.4112628 44.612628,32.2670648 C44.4906143,32.8327645 44.3353242,33.3762799 44.1800341,33.9530717 C44.7457338,34.0972696 45.2892491,34.2525597 45.866041,34.418942 C47.9752569,35.0596319 50.0270862,35.8759112 52,36.859215 C52.5324232,37.1254266 53.109215,37.4027304 53.5861775,37.6911263 L54.5068259,38.2124573 C55.028157,38.5230375 55.5494881,38.8447099 56.059727,39.1885666 C56.2039249,38.5895904 56.3481229,37.9906143 56.4701365,37.3805461 C56.5255973,37.1476109 56.5699659,36.9257679 56.6143345,36.6928328 C56.725256,36.0605802 56.8361775,35.4394198 56.9249147,34.8071672 C56.9249147,34.5742321 56.9249147,34.3412969 57.0136519,34.1083618 C57.0912969,33.4428328 57.1578498,32.7883959 57.2133106,32.1228669 C57.2133106,31.8899317 57.2133106,31.6459044 57.2133106,31.4129693 C57.2133106,30.725256 57.2798635,30.0375427 57.2798635,29.3387372 L57.3131399,28.5511945 Z M38.0127986,26.7653584 L37.003413,28.5179181 L35.5947099,30.9581911 L32.9769625,30.9581911 C32.3225256,30.9581911 31.6791809,31.0136519 31.024744,31.0691126 L30.0486348,31.1578498 L30.5588737,30.2704778 L31.5682594,28.5179181 L34.1305461,24.081058 L34.4411263,24.081058 C35.1288396,24.081058 35.8165529,24.081058 36.4931741,24.1365188 C37.4581911,24.1919795 38.4232082,24.2696246 39.3771331,24.3916382 L38.0127986,26.7653584 Z"/>
      <path fill="#009DDC" d="M32.6885666,49.2824232 C32.2005119,48.7167235 31.7235495,48.1732082 31.2576792,47.5409556 C30.6365188,46.7312287 30.0375427,45.8993174 29.471843,45.0452218 C29.1168942,44.4906143 28.7619454,43.9360068 28.4291809,43.359215 L28.2738908,43.0930034 C28.2193175,43.0118095 28.1711077,42.9265152 28.1296928,42.837884 C27.7969283,42.2610922 27.4863481,41.7286689 27.1868601,41.0853242 C26.7209898,40.1757679 26.2994881,39.2440273 25.9112628,38.3122867 L28.9616041,33.0435154 C28.2221274,33.1396473 27.4826507,33.261661 26.7431741,33.4095563 L25.1237201,36.2047782 L24.0145051,38.1680887 C24.2807167,38.855802 24.5580205,39.5324232 24.8575085,40.1979522 C24.9906143,40.4974403 25.1348123,40.7858362 25.2679181,41.0853242 L14.8967577,41.0853242 C14.5861775,40.1313993 14.3199659,39.1774744 14.0870307,38.2124573 C13.9428328,37.6023891 13.809727,37.003413 13.6988055,36.3933447 C13.3031843,34.370789 13.0731841,32.3193352 13.0110922,30.2593857 C13.0110922,29.5716724 13.0110922,28.883959 13.0110922,28.1962457 C13.0110922,27.9300341 13.0110922,27.6527304 13.0110922,27.3865188 L13.7320819,26.9428328 L13.8651877,26.8651877 L13.8651877,27.0093857 C13.8651877,27.0093857 13.8651877,27.0981229 13.8651877,27.1535836 L13.8651877,27.7303754 C13.8651877,28.3959044 13.8651877,29.0725256 13.9317406,29.7491468 C13.9317406,30.0153584 13.9317406,30.2704778 13.9317406,30.5255973 C13.9317406,31.168942 14.0426621,31.8233788 14.1203072,32.4667235 L14.2201365,33.2209898 C14.2977816,33.7866894 14.3976109,34.3302048 14.4863481,34.9069966 C14.9522184,34.640785 15.4291809,34.3856655 15.8950512,34.1416382 C15.7952218,33.5648464 15.7064846,32.9658703 15.6399317,32.3779863 C15.6399317,32.1117747 15.5733788,31.8233788 15.5401024,31.5460751 C15.4735495,30.9138225 15.4291809,30.2593857 15.3959044,29.6271331 C15.3959044,29.3387372 15.3959044,29.0503413 15.3959044,28.7730375 C15.3959044,28.1075085 15.3959044,27.4308874 15.3959044,26.7764505 C15.3959044,26.4991468 15.3959044,26.2329352 15.3959044,25.9556314 L15.4957338,25.9001706 L16.2056314,25.5230375 L16.3387372,25.4564846 C16.333314,25.4858151 16.333314,25.5158914 16.3387372,25.5452218 L16.3387372,26.4215017 C16.3387372,27.0759386 16.3387372,27.7303754 16.4052901,28.3737201 C16.4052901,28.6510239 16.4052901,28.9283276 16.4052901,29.2278157 C16.4607509,29.8600683 16.5162116,30.4923208 16.5938567,31.1023891 C16.5938567,31.3796928 16.6604096,31.6569966 16.7047782,31.9453925 C16.7824232,32.5 16.8711604,33.0546075 16.9709898,33.5870307 L18.390785,32.943686 C18.2909556,32.3779863 18.2022184,31.834471 18.1356655,31.2354949 C18.1356655,30.9360068 18.0580205,30.6365188 18.024744,30.3370307 C17.9581911,29.7158703 17.9138225,29.0836177 17.8694539,28.4624573 C17.8694539,28.1629693 17.8694539,27.8523891 17.8694539,27.552901 C17.8694539,26.9095563 17.8694539,26.2551195 17.8694539,25.6117747 C17.8694539,25.3233788 17.8694539,25.0238908 17.8694539,24.7244027 L17.9692833,24.668942 L18.6791809,24.3583618 L18.8122867,24.3583618 L18.8122867,24.4027304 C18.8122867,24.7133106 18.8122867,25.0349829 18.8122867,25.3455631 C18.8122867,25.9667235 18.8122867,26.5989761 18.8788396,27.2312287 L18.9453925,28.140785 C19.0008532,28.7508532 19.0674061,29.3720137 19.1450512,29.9709898 C19.1450512,30.2704778 19.2226962,30.5699659 19.2670648,30.8694539 C19.355802,31.4240614 19.4556314,31.9786689 19.5554608,32.5 L21.0750853,31.9675768 C20.975256,31.4240614 20.8865188,30.8583618 20.8088737,30.3037543 L20.6757679,29.3498294 C20.609215,28.7397611 20.5537543,28.1296928 20.5093857,27.5307167 C20.5093857,27.2090444 20.5093857,26.8762799 20.4539249,26.5656997 C20.4539249,25.9445392 20.4539249,25.3122867 20.4539249,24.6911263 L20.4539249,23.7372014 L20.5648464,23.7372014 L21.2858362,23.4709898 C21.2858362,23.8148464 21.2858362,24.1476109 21.2858362,24.4803754 C21.2858362,25.0904437 21.2858362,25.7005119 21.3745734,26.3105802 C21.4633106,26.9206485 21.496587,27.697099 21.5853242,28.3848123 C21.7613792,29.8514155 22.0206137,31.3068323 22.3617747,32.7440273 C22.4948805,33.3208191 22.6390785,33.8532423 22.8054608,34.4411263 C23.3600683,34.274744 23.9146758,34.1194539 24.4803754,33.975256 C24.3250853,33.4095563 24.1697952,32.866041 24.0366894,32.278157 C23.5361141,30.1347429 23.2170106,27.9529656 23.0827645,25.7559727 C23.0827645,25.1569966 23.0162116,24.5580205 23.0051195,23.9479522 L23.0051195,22.9163823 C23.0051195,22.2952218 23.0051195,21.6851536 23.0716724,21.0639932 L21.2969283,21.6075085 L20.6313993,21.8404437 C20.0324232,22.0511945 19.4334471,22.2730375 18.834471,22.5170648 L18.1911263,22.7832765 C17.581058,23.0383959 16.9709898,23.3156997 16.3831058,23.6040956 L15.7286689,23.9146758 C15.1075085,24.2141638 14.4974403,24.5469283 13.8984642,24.8796928 C13.6877133,25.0127986 13.4658703,25.1348123 13.2440273,25.2568259 C12.6228669,25.633959 12.0127986,26.0110922 11.4138225,26.366041 C11.4138225,27.0981229 11.3361775,27.8302048 11.3361775,28.584471 C11.3361775,28.8284983 11.3361775,29.0725256 11.3361775,29.3165529 C11.3361775,30.0153584 11.3361775,30.7141638 11.4027304,31.4018771 C11.4027304,32.3003413 11.5358362,33.1988055 11.6467577,34.0861775 C11.7798635,35.1953925 11.96843,36.3046075 12.190273,37.4138225 C12.3122867,38.0238908 12.4564846,38.633959 12.6117747,39.2440273 C12.7670648,39.8540956 12.9556314,40.5196246 13.144198,41.1518771 L13.443686,42.105802 L13.7209898,42.9044369 L16.6382253,42.9044369 C17.2389808,44.4222919 17.9278669,45.9037673 18.7013652,47.3412969 C18.7596769,47.4337563 18.8115626,47.5301155 18.8566553,47.6296928 L19.278157,48.3617747 C19.4112628,48.605802 19.5665529,48.8498294 19.7107509,49.0938567 L19.8771331,49.3711604 C20.7449356,50.7147304 21.6893292,52.0072534 22.7056314,53.2423208 C23.0827645,53.7303754 23.4820819,54.2073379 23.8924915,54.6732082 C24.6134812,55.5162116 25.3788396,56.3259386 26.1663823,57.1023891 L26.3216724,57.246587 C26.8430034,56.9360068 27.3532423,56.6143345 27.8634812,56.28157 C26.7940352,55.2601297 25.7795267,54.1826773 24.8242321,53.0537543 C24.4249147,52.5767918 24.0366894,52.0887372 23.6484642,51.5895904 C23.0716724,50.8353242 22.5392491,50.0477816 21.9846416,49.2380546 L30.4035836,49.2380546 C31.2255607,50.268856 32.0992644,51.2573259 33.0213311,52.1996587 C33.4576223,51.8003413 33.879124,51.3899317 34.2858362,50.96843 C33.7423208,50.447099 33.2098976,49.9146758 32.6885666,49.2824232 Z M28.0409556,47.5409556 L20.8976109,47.5409556 C20.8784535,47.4895614 20.8523276,47.4410419 20.8199659,47.3967577 C20.798258,47.3500824 20.7722649,47.3055227 20.7423208,47.2636519 C20.4095563,46.6646758 20.0767918,46.0656997 19.7662116,45.4556314 C19.3336177,44.5904437 18.9343003,43.7141638 18.5571672,42.837884 L26.1220137,42.837884 C26.3327645,43.2150171 26.5435154,43.5921502 26.7653584,43.947099 C26.9872014,44.3020478 27.1979522,44.7013652 27.4308874,45.056314 C27.774744,45.6109215 28.1296928,46.165529 28.5401024,46.6979522 L29.105802,47.5076792 L28.0409556,47.5409556 Z"/>
    </g>
  </g>
</svg>
