<svg height="394" viewBox="0 0 537 394" width="537" xmlns="http://www.w3.org/2000/svg"><g fill="none"><path d="m0 0h537v393.345h-537z" fill="#f9f9fa"/><g transform="translate(74 157)"><g fill="#009ddc"><path d="m127.742 27.853-11.115 21.227-11.008-21.227h-8.465v38.68h8.053v-24.106l9.237 17.68h4.419l9.238-17.68v24.106h8.053v-38.68z"/><path d="m160.432423 27.8533333h-6.442321l-15.240614 38.6666667h8.545393l3.46075-9.48h12.84471l3.460751 9.48h8.545393zm1.583959 23.3333334h-9.783276l4.964846-13.9866667z"/><path d="m171.4 27.853v7.16h12.126v31.52h8.053v-31.52h12.073v-7.16z"/><path d="m214.966 59.373v-9.213h15.973v-6.68h-15.973v-8.467h18.475v-7.16h-26.528v38.68h27.02v-7.16z"/><path d="m281.225939 49.96c-1.168515-1.5088691-2.74339-2.6515647-4.538908-3.2933333 1.449436-.7792374 2.649221-1.9533385 3.460751-3.3866667.941943-1.6190036 1.438013-3.4594428 1.437542-5.3333333-.005904-1.2321106-.221984-2.4541476-.638908-3.6133334-.402892-1.1671195-1.006532-2.2546272-1.783617-3.2133333-.787277-.9452795-1.750107-1.7286326-2.835154-2.3066667-1.153988-.6025931-2.439002-.909508-3.740273-.8933333h-20.631399v38.6667318l18.634812-.0000651c1.628441.0044141 3.24976-.2154212 4.81843-.6533334 1.432007-.4035438 2.78315-1.0532011 3.993174-1.92 1.163405-.8461523 2.115547-1.950518 2.781911-3.2266666.689494-1.3576265 1.036799-2.8636628 1.011604-4.3866667.076734-2.3064047-.616481-4.5725894-1.969965-6.44zm-8.851536 9.3333333c-.554645.2385792-1.153461.3567293-1.756997.3466667h-10.648464v-9.3333333h10.981229c.557367-.0057918 1.108543.1174081 1.61058.36.506156.2463807.958555.5907917 1.331058 1.0133333.377415.4575815.674474.9760705.878498 1.5333333.213695.5897377.321838 1.2126192.319454 1.84.004941.6127331-.112734 1.2202464-.346075 1.7866667-.219209.5485233-.539843 1.0506524-.945051 1.48-.403565.4052085-.889245.7189394-1.424232.92zm0-16.68c-.774989.7853387-1.839608 1.2148094-2.941638 1.1866667h-9.477134v-8.9466667h9.809898c1.014535-.0106094 1.984502.4169056 2.662116 1.1733334.785013.8951258 1.186672 2.0638439 1.118089 3.2533333.102333 1.2019391-.303258 2.3917742-1.118089 3.28zm38.747099 9.3866667c1.995539-.9295042 3.66533-2.4395319 4.791809-4.3333333 1.258763-2.0765493 1.913398-4.4640497 1.890102-6.8933334-.00407-1.6144571-.320485-3.2128203-.931741-4.7066666-.616279-1.4935578-1.485357-2.8693192-2.568942-4.0666667-1.109302-1.2310254-2.441749-2.2399871-3.926621-2.9733333-1.555401-.7551903-3.263014-1.1429109-4.991467-1.1333334l-17.104096-.0001732v38.6668399h7.986348v-12.76h6.735154l7.986348 12.7333333h9.144369zm-14.788055-16.9866667h8.585324c.606021.0078276 1.202313.1537356 1.743686.4266667.59423.2851042 1.120688.6942615 1.544028 1.2.468895.5443492.838367 1.1672057 1.091467 1.84.26928.7527587.404441 1.5470547.399318 2.3466667.005094.7832661-.116267 1.5622054-.359386 2.3066666-.212971.6700408-.541867 1.2973645-.971672 1.8533334-.35173.4953453-.805676.9091416-1.331058 1.2133333-.530023.2917601-1.125606.4432049-1.730376.44h-8.904778zm60.11058 5.1066667c-.852251-2.3073722-2.109972-4.4432835-3.713652-6.3066667-1.610452-1.8507299-3.563028-3.3719965-5.75017-4.48-2.323269-1.1560913-4.88653-1.7454614-7.480546-1.72-2.538834-.0199745-5.049744.5313651-7.347441 1.6133334-2.212912 1.0461297-4.198477 2.5185936-5.843344 4.3333333-3.414005 3.7310819-5.312942 8.6054263-5.324232 13.6666667.018787 2.4726235.469263 4.9228919 1.331058 7.24.845197 2.3055911 2.108765 4.4347269 3.726962 6.28 1.623696 1.8358685 3.590793 3.3352291 5.790103 4.4133333 2.327971 1.1234922 4.883314 1.693838 7.467235 1.6666667 2.54738.0198902 5.066933-.53135 7.374061-1.6133334 2.202347-1.0391289 4.178857-2.5025245 5.816724-4.3066666 1.659667-1.8263906 2.972335-3.9410949 3.873379-6.24.906964-2.3554838 1.358667-4.8621991 1.331058-7.3866667.008785-2.441994-.41484-4.8661976-1.251195-7.16zm-17.024232 19.4666667c-1.509129.0244492-3.000528-.328416-4.339249-1.0266667-1.255136-.6774218-2.356463-1.6081124-3.234471-2.7333333-.894995-1.20936-1.57907-2.5618153-2.023208-4-.464028-1.5071877-.697393-3.0761061-.69215-4.6533334-.000166-1.5365286.228635-3.0644756.678839-4.5333333.413224-1.4454006 1.090175-2.8016152 1.996587-4 .861689-1.1481072 1.95458-2.1020469 3.20785-2.8 1.332586-.7173265 2.826676-1.0800103 4.339249-1.0533333 1.48054-.0249672 2.944109.318643 4.259386 1 1.24216.6510341 2.331274 1.5601805 3.194539 2.6666666.915192 1.2026909 1.613418 2.5564057 2.06314 4 .488996 1.5069536.736097 3.0821076.732082 4.6666667.00423 1.5334715-.229268 3.0583024-.69215 4.52-.425149 1.4357114-1.091332 2.7883902-1.969966 4-.843743 1.1567526-1.923649 2.1203299-3.167918 2.8266667-1.33096.7410603-2.829829 1.126749-4.35256 1.12zm49.581911-8.8133334c-.58926-1.245339-1.454175-2.339731-2.52901-3.2-1.204799-.9428962-2.553049-1.6857014-3.993174-2.2-1.544027-.5733333-3.247781-1.12-5.084641-1.6133333-1.331058-.3466667-2.662116-.68-3.753584-1.0133333-.921799-.2507561-1.81423-.5993993-2.662116-1.04-.604263-.317525-1.124399-.7745644-1.517406-1.3333334-.36174-.5128264-.539972-1.1330046-.505802-1.76-.065396-1.1226361.434202-2.2036121 1.331058-2.88 1.300599-.7976589 2.818402-1.1660989 4.339249-1.0533333 1.104101.0051993 2.203532.1439824 3.274403.4133333 1.029047.2593237 2.035145.6026953 3.008191 1.0266667.822963.3462912 1.615498.7610767 2.369283 1.24.474947.2740975.920915.5957436 1.331058.96l.319454.3333333 3.740273-6.6533333-.252901-.1733333c-1.859179-1.2334318-3.856028-2.2447503-5.949829-3.0133334-2.399492-.8852045-4.936815-1.3366541-7.493857-1.3333333-1.862117-.011165-3.715303.2585232-5.49727.8-1.64585.5011786-3.181627 1.3111021-4.525597 2.3866667-1.308195 1.0314409-2.356735 2.3557725-3.061433 3.8666666-.763925 1.6719465-1.141555 3.4949574-1.104779 5.3333334-.037506 1.3674172.202494 2.7282298.705461 4 .47732 1.0789957 1.191665 2.0361226 2.089761 2.8 1.028155.8738666 2.181231 1.5884679 3.420819 2.12 1.550536.6632928 3.147678 1.2114384 4.778499 1.64 1.331058.36 2.662116.7333333 3.993174 1.12 1.048717.2943044 2.068871.6825364 3.048123 1.16.702872.3169745 1.336193.7701196 1.863481 1.3333333.418058.5557284.634079 1.2378275.612287 1.9333333 0 2.4-1.876792 3.56-5.750171 3.56-1.413769.002146-2.822275-.1725385-4.192833-.52-1.282441-.3367638-2.533764-.7828354-3.740273-1.3333333-.994666-.4022733-1.963726-.8653675-2.901706-1.3866667-.596465-.3447369-1.15814-.7466188-1.677133-1.2l-.319454-.3333333-3.607168 7.04.239591.1733333c2.313589 1.6247697 4.869966 2.8713901 7.57372 3.6933334 2.762622.8643618 5.637904 1.3136906 8.532082 1.3333333 1.824419.0106457 3.643428-.1997709 5.417406-.6266667 1.650548-.3725566 3.217037-1.0508708 4.618771-2 1.337615-.9500843 2.428481-2.2074107 3.181229-3.6666666.820122-1.6554819 1.22665-3.4856996 1.184642-5.3333334.059368-1.5775884-.231589-3.1487082-.851878-4.6z"/></g><path d="m231.644 21.48-20.245 3.667v-1.054l20.245-5.84z" fill="#00b194"/><path d="m82.6720137 71.36c0-.2933333 0-.5733333 0-.8666667 0-.2933333 0-.6933333-.0931741-1.04 0-.6266666-.1331058-1.2533333-.2262799-1.8666666-.1197952-.7866667-.252901-1.5866667-.412628-2.36-.5582503-2.7061997-1.3831078-5.3502556-2.4624573-7.8933334-.7081847-1.6855805-1.530934-3.3205273-2.4624573-4.8933333-.3593857-.6-.7320819-1.2-1.1180888-1.7866667-.0665529-.12-.1597269-.24-.2395904-.36-2.98318-4.406166-6.7724865-8.2064741-11.1675768-11.2-1.2876128-.8663245-2.620576-1.6630188-3.9931741-2.3866666.0865868-1.5543465.0865868-3.1123202 0-4.6666667-.1890036-2.654749-.6347794-5.2848563-1.331058-7.8533333-.6865617-2.5680558-1.6181563-5.0639964-2.7819113-7.4533334-.8260057-1.6408134-1.7644269-3.2223726-2.8085324-4.7333333-.3860068-.5866667-.7853242-1.16-1.2112628-1.72-.0665529-.1066667-.1464164-.2-.2262798-.30666667-1.6483393-2.17014642-3.5076221-4.17106379-5.550512-5.97333333-.5856655-.52-1.2112628-1.04-1.8368601-1.53333333-.4924914-.38666667-.9982935-.77333334-1.5040955-1.13333334-.2928328-.21333333-.572355-.41333333-.8651877-.6l-.7054608-.52-.3327645-.21333333-.3061433.2-.7320819.48c-.2795222.18666667-.572355.38666667-.8518772.6-.5191126.36-1.0249146.74666667-1.5174061 1.13333333-.665529.52-1.2645051 1.04-1.8634812 1.58666667-2.0063858 1.80607375-3.8339797 3.80200292-5.4573379 5.96-1.1051586 1.4561337-2.1059568 2.9888585-2.9948806 4.5866667-.3460751.6-.6788396 1.2266666-.9982935 1.8533333 0 .1333333-.1197952.2666667-.1863481.4-1.1601265 2.3862818-2.0916045 4.8774454-2.7819113 7.44-.6950557 2.5687465-1.1408112 5.1987342-1.331058 7.8533333-.0932474 1.5541534-.0932474 3.1125133 0 4.6666667-1.374254.720687-2.707376 1.5174761-3.9931741 2.3866667-4.4029775 2.9884542-8.1975328 6.789496-11.18088733 11.2-1.02697625 1.5352994-1.95612937 3.1340371-2.78191126 4.7866666-.30614335.6266667-.59897611 1.2666667-.8784983 1.9066667l-.27952218.2933333c-1.05781851 2.5278582-1.86477739 5.1538412-2.40921502 7.84-.15972696.7733334-.29283276 1.56-.3993174 2.36-.09317406.6266667-.15972697 1.2533334-.22627987 1.88 0 .3466667 0 .6933334-.09317406 1.04-.09317406.3466667 0 .5733334 0 .8666667h-.07986348v.3733333l.33276451.1733334.77201365.3866666.94505119.4533334c.57235495.2533333 1.1447099.5066666 1.73037543.7333333 1.56368131.6368548 3.16377305 1.180035 4.79180887 1.6266667 3.43309625.8965968 6.96751895 1.3447568 10.51535835 1.3333333h.3860068 2.0897611c6.3120781-.3882688 12.4528448-2.2122166 17.9559727-5.3333333.6122867-.3466667 1.2245734-.72 1.8235495-1.0933334.5989761.3733334 1.2112628.7466667 1.8368601 1.0933334 6.2353605 3.5062808 13.2677862 5.343164 20.41843 5.3333333.8784983 0 1.743686 0 2.6621161-.0933333.91843-.0933334 1.331058-.1066667 2.1030716-.1866667 1.958241-.2239089 3.897765-.5893053 5.803413-1.0933333 1.6110545-.4238526 3.1937357-.9493459 4.7385666-1.5733334.5723549-.2266666 1.1447099-.48 1.7170648-.7333333l.9450512-.4533333.7720136-.3733334.3327646-.1733333c.0133105-.1066667 0-.2266667 0-.36z" fill="#73c167"/><path d="m28.2583618 56.6-6.6552901 3.88v13.7733333c6.3123195-.4043661 12.4346651-2.3251571 17.849488-5.6-4.4767159-3.2183293-8.2685872-7.2977062-11.1542662-12zm-3.9931741-20.84 1.0249147-.4266667c2.5038312-1.0666031 5.1079315-1.8795422 7.7733788-2.4266666 2.3990154-.4828603 4.8348442-.7594225 7.2808874-.8266667v-7.7333333l-11.9129693-6.8933334c-2.8006845 5.6892178-4.2104626 11.9640856-4.1129693 18.3066667zm5.0846417-20.1733333 10.9412969 6.3333333v-18.66666667c-4.4809494 3.28517185-8.2109995 7.48978777-10.9412969 12.33333337zm-2.1430035 39.2c-2.4767506-4.549912-4.0795483-9.5248171-4.7252559-14.6666667 0-.3333333-.0798635-.68-.1064847-1.0266667-7.03786 3.9079059-12.72069079 9.8701957-16.29215015 17.0933334l9.31740615 5.4133333zm-22.00238904 3.32c-1.50619989 3.5302006-2.48397242 7.263769-2.90170648 11.08l11.00784982-6.3733334zm14.26894194 16.2266666v-12.64l-16.11911259 9.3333334c4.95950161 2.1822484 10.31622749 3.3126247 15.73310579 3.32zm42.7003413-15.6666666 11.9129693-6.8933334c-3.5124307-5.2761968-8.2307448-9.636899-13.7631399-12.72l-.1197952 1.0533334c-.332778 2.7197378-.9347154 5.3995886-1.7969284 8-.7771009 2.3304081-1.7569729 4.5879662-2.9283276 6.7466666zm2.0897611 1.2 16.1324232 9.3333333c-.586301-5.5310519-2.3569578-10.8702941-5.1911262-15.6533333zm-20.990785 8.7866666c6.1324218 3.7118146 13.1602602 5.6757811 20.325256 5.68.8784983 0 1.743686 0 2.6621161-.0933333v-10.8266667l-11.7798635-6.8133333c-1.7580135 2.9187915-3.8730119 5.6062508-6.2959045 8-1.5264916 1.4803576-3.1689493 2.8358065-4.9116041 4.0533333zm25.0372014-4.0266666v9.4133333c3.8068384-.4592821 7.5251027-1.4791721 11.034471-3.0266667zm-25.9156996-61.37333337v12.74666667l8.1860068-4.68c-2.3157884-3.07927904-5.0744344-5.79770797-8.1860068-8.06666667zm15.0542662 32.07999997.9716723.4133334c.0715169-3.6977788-.3765585-7.3872542-1.331058-10.96-1.1245358-4.1797834-2.9229474-8.1475559-5.3242321-11.7466667l-9.3174061 5.4133333v13.6266667c2.4503896.0680385 4.8905721.3445895 7.2941979.8266667 2.6429854.5506304 5.2246645 1.3635298 7.706826 2.4266666zm-13.5235495 4.04c-.7853243 0-1.5839591-.0666666-2.3825939-.08h-.7320819c-.7986348 0-1.583959 0-2.3692833.08-1.2378839 0-2.4491467.1866667-3.6470989.3466667l-3.6604096 6.3333333c.4658703 1.12.9716724 2.24 1.5307167 3.3333334.3593857.7066666.7320819 1.4133333 1.1313993 2.1066666.0496979.1065393.1075497.2090675.1730376.3066667l.1863481.32c.3993174.6933333.825256 1.3333333 1.2511945 2.0266667.6788396 1.0266666 1.397611 2.0266666 2.1430035 3h7.2675767c.7453925-.9733334 1.4641639-1.9733334 2.1296929-3 .4392491-.6666667.8651877-1.3333334 1.2645051-2.0266667.0542074-.1068388.1165057-.209361.1863481-.3066667l.1730376-.32c.3993174-.6933333.7720136-1.3333333 1.1313993-2.1066666.5457338-1.0933334 1.0648464-2.2133334 1.5174061-3.3333334l-3.6470989-6.3333333c-1.2511946-.16-2.4624574-.28-3.647099-.3466667z" fill="#d0e4a6"/><path d="m36.4843003 59.24h-10.1027303c.6389078.9733333 1.331058 1.92 1.996587 2.8266667.4658703.6.9317406 1.1866666 1.4109215 1.76 1.1463535 1.3570234 2.3637637 2.6521764 3.647099 3.88 2.1895344-1.468878 4.2591782-3.1095895 6.1894198-4.9066667-1.10648-1.1327324-2.1549244-2.3209238-3.141297-3.56zm-2.2894198-3.0666667c-.4392491-.64-.8651877-1.3333333-1.331058-1.9733333-.2795222-.44-.5457338-.8933333-.7986348-1.3333333s-.5191126-.9066667-.7720136-1.3333334h-9.0245734c.4525597 1.0533334.9317406 2.1066667 1.4508532 3.1466667.3726963.7333333.7720137 1.4533333 1.1713311 2.1733333.0359328.0503309.0671246.103894.093174.16.0388342.053232.0701852.1115548.0931741.1733334h9.796587zm20.8310581-14.84c-.2262799.7733334-.4525598 1.5466667-.7054608 2.3066667s-.5191126 1.4933333-.8119454 2.24l2.0232082 3.4533333 1.2112628 2.1066667 1.8235495 3.2266667c.5324232-1.04 1.0116041-2.0933334 1.4641638-3.1466667.2928328-.6933333.5590444-1.3333333.825256-2.1066667.6112791-1.6759246 1.1267894-3.3853585 1.5440273-5.12-2.3709254-1.1917985-4.8376217-2.1819477-7.3740614-2.96zm-.7054608 10.16-1.2112628-2.16-.6255973-1.0666666c-.1597269.36-.3194539.7066666-.4924914 1.0666666-.3327645.7066667-.6921502 1.4133334-1.0515359 2.1066667-.252901.4533333-.505802.9066667-.7720136 1.3333333-.2662116.4266667-.5324232.9066667-.7986348 1.3333334l1.6904437 2.9466666 1.2112628 2.0933334 1.6372013 2.8266666c.6921502-.9066666 1.331058-1.8533333 1.9965871-2.8266666.4392491-.68.8784983-1.3333334 1.331058-2.0933334.0361368-.0548904.0673181-.1128976.093174-.1733333l.1064847-.16zm-19.2870307-22.16c-.7453925.0933334-1.490785.2-2.2228669.3333334-1.7563178.3112194-3.4938521.7207498-5.2044369 1.2266666.1610954 2.6408982.5440195 5.2635063 1.1447099 7.84.7853243-.2 1.5706485-.3733333 2.3426622-.5333333.7720136-.16 1.5706484-.3066667 2.3426621-.4266667l2.0232082-3.5066666 1.2112628-2.1066667 1.8235495-3.1466667c-1.2245734.08-2.316041.1866667-3.4607509.32zm8.7583618-.3066666c-.8119454 0-1.6372014-.0666667-2.4624574-.0666667h-.3726962l-3.074744 5.3333333-1.2112628 2.1066667-.6122867 1.0666667 1.2112628-.1333334c.7853242-.0666666 1.5573379-.1066666 2.3426621-.1333333h3.1412969l1.6904437-2.9333333 1.2112628-2.1066667 1.5972696-2.8266667c-1.1447099-.1466666-2.3027303-.24-3.4607508-.3066666z" fill="#fff"/><path d="m66.6860068 33.8933333c0-.3333333 0-.68 0-1.0133333l-.8651877-.5333333c-.7054607-.4266667-1.4109215-.8266667-2.1296928-1.2133334-2.1881181-1.1768542-4.4671288-2.1756257-6.8150171-2.9866666-.6744027-.24-1.3665529-.4666667-2.0764505-.68-1.1580205-.3333334-2.3293515-.64-3.5139932-.8933334l-.665529 1.1733334-1.1180887 1.9333333-2.6621161 4.6-1.2112628 2.1066667-.5590443.96 1.171331.1066666c.8784983.08 1.743686.2 2.6621161.3333334l1.331058 2.36 1.9433447 3.3733333c.3061433-.9066667.5989761-1.8266667.8518771-2.7466667.1863482-.6666666.3726963-1.3333333.5191127-2.0266666.6788396.1733333 1.331058.36 2.0232082.56 1.6979307.5188785 3.368357 1.124108 5.0047781 1.8133333.7720137.32 1.5440273.6666667 2.3027304 1.04l1.9167235.9866667 1.0914676.6.159727-.9066667c.1197952-.7466667.2395904-1.4933333.3194539-2.2533333 0-.3066667.0798635-.6133334.1064846-.92.0798635-.7866667.1464164-1.5733334.1863482-2.36v-.9466667c.0399317-.8266667.0399317-1.6933333.0266211-2.4666667zm-37.9085324 11.9866667 1.331058-2.36 1.9433447-3.36c-.9450512.1866667-1.8767918.3866667-2.7952218.6266667-.6788396.1733333-1.331058.36-2.0098976.56-.1996587-.6666667-.3726963-1.3333334-.5324232-2.04-.4093933-1.7275822-.7204747-3.4770677-.9317406-5.24-.1064847-.8266667-.1863482-1.6666667-.2529011-2.4933334-.0665529-.8266666-.093174-1.4666666-.1064846-2.2 0-.4 0-.8 0-1.2133333l-.8651877.32c-.7187714.2666667-1.4109215.5466667-2.1163823.84l-.8518771.3733333c-.7187713.3333334-1.4242321.6666667-2.1163823 1.0266667l-.8518771.4533333c-.7187713.3866667-1.4242321.7866667-2.1163822 1.2133334l-.8651878.5333333v.9733333 2.48c.0745103 2.4761651.3505106 4.9421177.825256 7.3733334.1331058.7333333.2928328 1.4533333.4658703 2.1866666.2795222 1.16.5989761 2.3066667.9716724 3.4533334h12.4054607c-.1597269-.36-.3327645-.7066667-.4924914-1.0666667-.3860069-.8-.7187714-1.6533333-1.0382253-2.44zm24.8375427 19.8933333-1.1180888-1.9466666-2.662116-4.5866667-1.2112628-2.0933333-.5590444-.9733334c-.2129693.3333334-.4392491.6533334-.6788396.9733334-.505802.7066666-1.0382252 1.4133333-1.583959 2.0933333h-6.6552901c.6255973.72 1.331058 1.3333333 1.9167235 2.08.5856656.7466667.9982935 1 1.5174062 1.48l-.7187714.72-.7986348.7733333c-1.8944446 1.7866047-3.9285824 3.4184801-6.0829351 4.88-.6122867.4133334-1.2245734.8266667-1.8501707 1.2133334l-1.0249146.6133333.7054607.5866667c.5856655.4933333 1.1846416.96 1.7836178 1.4133333.252901.1866667.4924914.3733333.758703.5466667.6255973.4666666 1.331058.9066666 1.9300342 1.3333333l.7853242.5066667c.6921502.4266666 1.3976109.84 2.1163822 1.24l.8518772.4533333.8518771-.4533333c.7187713-.4 1.4375427-.8266667 2.1430034-1.2533334 2.0952105-1.3096317 4.0886021-2.776031 5.9631399-4.3866666.572355-.4933334 1.1180888-.9866667 1.6638226-1.5066667.8651877-.8266667 1.7037542-1.68 2.5156996-2.5733333z" fill="#fff"/><path d="m62.3866894 44.2666667c-.419174 1.7166236-.9346684 3.4081987-1.5440273 5.0666666-.2662116.7066667-.5324232 1.4133334-.825256 2.1066667-.4525597 1.0533333-.9317406 2.1066667-1.4641638 3.1466667l-1.8102389-3.1466667-1.2112628-2.1066667-2.0232082-3.4533333c.2928328-.7466667.5590444-1.4933333.8119454-2.24s.4791809-1.5333333.7054608-2.3066667c-.6788396-.2-1.3310581-.3866666-2.0232082-.56-.252901.92-.5457338 1.84-.8518772 2.7466667-.3061433.9066667-.6255972 1.6933333-.9716723 2.5333333-.4525597 1.12-.9716724 2.24-1.5174062 3.3333334-.3593856.7066666-.7320819 1.4133333-1.1313993 2.1066666l-.1730375.32c-.0698424.0973057-.1321407.1998279-.1863481.3066667-.3993174.6933333-.825256 1.3333333-1.2645052 2.0266667-.665529 1.0266666-1.331058 2.0266666-2.1296928 3h-7.2675768c.5590444.7066666 1.1313993 1.4133333 1.7170649 2.0933333h6.6552901c.5457338-.68 1.078157-1.3333333 1.583959-2.0933333.2395905-.32.4658703-.64.6788396-.9733334l.5590444.9733334 1.2112628 2.0933333 2.662116 4.5866667 1.1180887 1.9466666.6655291 1.1466667c-.8119454.8933333-1.650512 1.7466667-2.5156997 2.5733333-.5457338.52-1.0914676 1.0133334-1.6638225 1.5066667-1.8745379 1.6106356-3.8679295 3.077035-5.96314 4.3866667-.7054607.4266666-1.424232.8533333-2.1430034 1.2533333l-.8518771.4533333-.8518771-.4533333-.159727-.0933333h.0798635.0665529l.1464164-.08.6389078-.3733334c.6921502-.4 1.331058-.8266666 2.0631399-1.2666666l.7720137-.52c.6389078-.44 1.331058-.8933334 1.903413-1.3333334l.7320819-.56c.5324232-.4133333 1.0648464-.8533333 1.583959-1.3333333-.5412969-.32-1.0870307-.6533333-1.6372013-1-.5501707.4533333-1.1092151.8977778-1.6771331 1.3333333l-.7986349.6c-.6255972.4533334-1.331058.8933334-1.9167235 1.3333334l-.8651877.5466666c-.6788396.4133334-1.331058.8266667-2.06314 1.2133334l-.8518771.4666666-.1331058-.08-.7853242-.5066666-.1996587-.2h.0798635.093174l.7720137-.4533334c.665529-.3866666 1.331058-.8 1.9832764-1.2266666l.8518772-.5733334c.6255972-.4266666 1.2511945-.88 1.8501706-1.3333333l.7986348-.6133333c.5324232-.4133334 1.0515358-.84 1.5440273-1.3333334-.505802-.3466666-1.0116041-.7066666-1.5174061-1.08l-1.6238908 1.3333334-.8651877.64c-.5989761.44-1.2245734.88-1.8501707 1.3333333-.3061433.2-.6122867.4-.9317406.5866667-.6522184.4133333-1.331058.8133333-1.9832764 1.2l-.9317407.5066666c-.0413185-.0237353-.0775147-.0554611-.1064846-.0933333-.2662116-.1733333-.505802-.36-.7587031-.5466667l-.1331058-.1066666.9716724-.5733334c.6522184-.3866666 1.331058-.8 1.9167235-1.2133333l.9184301-.6133333 1.7836177-1.3333334.8651877-.68c.5058021-.4133333 1.0249147-.84 1.5174062-1.3333333-.4791809-.3866667-.9583618-.7733333-1.4242321-1.1733333-.5058021.44-1.0382253.88-1.5706485 1.3333333l-.9051194.6933333c-.5989761.44-1.1979522.88-1.8102389 1.3333334-.3061434.2266666-.6389079.44-.9583618.64-.6255973.4-1.331058.8-1.9167236 1.1733333l-.9849829.56-.1064846-.0933333-.7054608-.5866667 1.0249147-.6133333c.6255973-.3866667 1.2378839-.8 1.8501706-1.2133334 2.1543527-1.4615199 4.1884905-3.0933953 6.0829352-4.88l.7986348-.7733333.7187713-.72c-.5146757-.48-1.0204778-.9733333-1.5174061-1.48-.4969283.5066667-1.0027304 1-1.5174062 1.48-1.9302415 1.7970772-3.9998853 3.4377887-6.1894197 4.9066667-.6122867.4-1.2245734.7866666-1.8501707 1.16l-1.0648464.6266666c-.6389079.36-1.331058.72-1.9699659 1.0533334.5457338.5333333 1.0914676 1.04 1.650512 1.5466666l.6389078.5466667c.572355.5066667 1.1713311 1 1.7703072 1.4666667l.7187713.4c.6389079.48 1.331058.9466666 1.9300341 1.4l.6921502.4533333c.6921502.4622222 1.3976109.9066667 2.1163823 1.3333333l.7453925.44c.7720136.44 1.5573378.84 2.3426621 1.24.7853242-.4 1.5706484-.8 2.3293515-1.24l.7453925-.44c.7187713-.4266666 1.4375427-.8666666 2.1430034-1.3333333 2.0054423-1.3238979 3.9137296-2.7898647 5.7102389-4.3866667.5590444-.5066666 1.1047782-1.0133333 1.650512-1.5466666l.1331058-.1333334c.5235495-.5066666 1.0293515-1.0266666 1.5174061-1.56.5058021-.5466666.9982935-1.0933333 1.4641638-1.6533333l-1.1180887-1.96-.6921502-1.2c1.2139888-1.5305604 2.3341362-3.1335065 3.3542662-4.8l.1996587-.3333333.5191127-.88.505802-.88c.0541112-.1196971.1163741-.2355258.1863481-.3466667.922758-1.7307092 1.7492755-3.5112047 2.475768-5.3333333.2795221-.6933334.5324232-1.3333334.7853242-2.1066667 0-.1866667.1197952-.3866667.1863481-.5733333.3993174-1.1733334.7453925-2.36 1.0382253-3.5466667-.572355-.36-1.2112628-.6933333-1.8501707-1.0133333zm-8.4788396 17.8-1.6372013-2.8266667-1.2112628-2.0933333-1.6904437-2.9466667c.2662116-.44.5457338-.8933333.7986348-1.3333333s.5191126-.9066667.7720136-1.3333334c.3593857-.6933333.7187714-1.3333333 1.0515359-2.1066666.1730375-.36.3327645-.7066667.4924914-1.0666667l.6255973 1.0666667 1.2112628 2.1066666 3.074744 5.3333334-.1064846.16c-.0258559.0604357-.0570373.1184429-.0931741.1733333-.4126279.7066667-.8518771 1.4133333-1.331058 2.0933333-.5989761.92-1.2911263 1.8666667-1.9566553 2.7733334z" fill="#00b194"/><path d="m68.7757679 34.32c0-.88 0-1.7466667-.093174-2.6666667-.7187714-.48-1.4641639-.9466666-2.2095564-1.3333333l-.7853242-.4533333c-.7187713-.4-1.4508532-.8-2.1829351-1.1733334-.9716724-.48-1.9566553-.9466666-2.9549488-1.3333333-1.2245734-.52-2.475768-.9866667-3.7269625-1.4133333-.7054608-.2266667-1.4109215-.4533334-2.1296928-.6533334-.7187714-.2-1.5573379-.4133333-2.3293516-.6l-1.171331-.2533333-.9982935-.1866667-1.1180888 1.9333334-.6921502 1.2133333c-1.9181175-.2897612-3.8513979-.467838-5.7901023-.5333333h-2.8617748c-1.951531.0551111-3.8981867.2242878-5.8300341.5066666-.7320819.1066667-1.4774744.2266667-2.2095563.3733334l-.5989761.12c-1.1979523.24-2.3959045.5333333-3.5805461.8666666 0 .7333334 0 1.4533334.093174 2.1733334 1.7105848-.5059168 3.4481191-.9154473 5.2044369-1.2266667.7320819-.1333333 1.4774744-.24 2.2228669-.3333333 1.1447099-.1466667 2.2894198-.2533334 3.4607509-.32l-1.8235495 3.1466666-1.2112628 2.1066667-2.0232082 3.5066667c-.7720137.12-1.5573379.2666666-2.3426621.4266666-.7853243.16-1.5573379.3333334-2.3426622.5333334.159727.68.3460751 1.3333333.5324233 2.04.91843-.24 1.8501706-.44 2.7952218-.6266667s1.7703072-.32 2.662116-.44c1.1979523-.16 2.4092151-.28 3.647099-.3466667.7853242 0 1.5706485-.0666666 2.3692833-.08h.7320819c.7986348 0 1.5972696 0 2.3825939.08 1.2245733 0 2.4358361.1866667 3.6470989.3466667l3.647099 6.3333333c.3460751-.84.665529-1.68.9716724-2.5333333l-1.9433447-3.3733333-1.3310581-2.36c-.8651877-.1333334-1.7303754-.2533334-2.662116-.3333334l-1.1447099-.12.5590444-.96 1.2112628-2.1066666 2.662116-4.6 1.0914676-1.92.665529-1.1733334c1.1846416.2533334 2.3559727.56 3.5139932.8933334.7098976.2133333 1.4020477.44 2.0764505.68 2.3478882.8110409 4.626899 1.8098124 6.815017 2.9866666.7187714.3866667 1.4242321.7866667 2.1296929 1.2133334l.8651877.5333333v1.0133333.1866667l-.0931741-.08-.1464164-.0933333-.6389078-.3733334c-.6921502-.3866666-1.4109215-.7733333-2.1296928-1.1466666l-.8918089-.3866667c-.6921502-.3333333-1.4109215-.6666667-2.1296928-.9733333l-.8385666-.36c-.6389079-.2533334-1.331058-.5066667-1.9167235-.7333334v1.92c.665529.2533334 1.331058.5066667 1.9832764.7866667l.91843.4c.7054608.32 1.397611.6533333 2.0897611 1.0133333l.9051195.4666667c.7054607.3733333 1.4109215.7733333 2.0897611 1.1866667l.8651877.5333333v.1466667.9466666.1866667l-.159727-.1066667h-.093174l-.7720137-.4533333c-.665529-.3733333-1.331058-.7466667-2.0498293-1.0933333-.2928328-.16-.6122867-.3066667-.9317407-.4666667-.6788395-.32-1.331058-.64-2.0631399-.9333333l-.9317406-.3866667-1.9832765-.7466667c0 .6133334-.1064846 1.24-.1863481 1.8666667.6522185.24 1.331058.4933333 1.9433447.76l.984983.4266667c.6921501.3066666 1.331058.6266666 2.0498293.96.3327645.16.6522185.3333333.9716724.5066666.6788396.36 1.331058.7333334 2.0232082 1.1333334.3194539.1866666.6389078.3733333.9450512.5733333.0065768.0486669.0065768.0979997 0 .1466667 0 .3066666-.0665529.6133333-.1064847.92.006599.0575887.006599.1157446 0 .1733333l-1.1313993-.6666667c-.665529-.36-1.331058-.72-2.0098976-1.0533333l-.9716724-.4133333c-.665529-.3066667-1.331058-.6133334-2.0098976-.8933334l-1.0116041-.44c-.6255972-.24-1.2378839-.4666666-1.8634812-.68-.0931741.6133334-.1863481 1.2133334-.2928328 1.8133334.6255973.2266666 1.3310581.4666666 1.8901024.72l1.0648464.44c.6655291.2933333 1.3310581.6 1.9965871.92l1.0382252.52c.665529.3466666 1.3310581.7066666 1.9832765 1.08l.9982935.6v.1333333l-.159727.9066667-1.0914675-.6-1.9167236-.9866667c-.7587031-.3733333-1.5307167-.72-2.3027304-1.04-1.6364211-.6892253-3.3068474-1.2944548-5.0047781-1.8133333-.665529-.2-1.331058-.3866667-2.0232082-.56-.1464164.68-.3327645 1.3333333-.5191126 2.0266666.6788395.1733334 1.331058.36 2.0232081.56 2.5310591.7701422 4.9932543 1.7513518 7.3607509 2.9333334.6389078.32 1.331058.6533333 1.903413 1l1.1047781.6266666c.6255973.3733334 1.2511946.76 1.8634813 1.1733334.1730375-.72.346075-1.44.4924914-2.1733334.0665529-.28.1197952-.5466666.1730376-.8266666.1331058-.76.2662116-1.5066667.3726962-2.2666667 0-.28 0-.56.1064847-.84.093174-.8.1730375-1.5866667.2395904-2.3866667 0-.28 0-.5733333 0-.8533333 0-.8266667.0798635-1.6533333.0798635-2.4933333zm-23.1604095-2.1466667-1.2112628 2.1066667-1.6904437 2.9333333h-3.141297c-.7853242 0-1.5573378.0666667-2.3426621.1333334l-1.171331.1066666.6122867-1.0666666 1.2112628-2.1066667 3.074744-5.3333333h.3726962c.825256 0 1.650512 0 2.4624574.0666666 1.1580205.0666667 2.3160409.16 3.4607508.3066667z" fill="#00b5cc"/><path d="m39.2262799 59.24c-.5856656-.68-1.1580205-1.3333333-1.7170649-2.0933333-.7453925-.9733334-1.4641638-1.9733334-2.1430034-3-.4259386-.6666667-.8518771-1.3333334-1.2511945-2.0266667l-.1863482-.32c-.0654879-.0975992-.1233397-.2001274-.1730375-.3066667-.3993174-.6933333-.7720137-1.3333333-1.1313993-2.1066666-.5590444-1.0933334-1.0648464-2.2133334-1.5307167-3.3333334l3.6604095-6.3333333c-.887372.1155556-1.774744.2622222-2.662116.44l-1.9433447 3.36-1.3310581 2.36c.319454.8266667.6522185 1.64 1.0116041 2.44.159727.36.3327645.7066667.4924915 1.0666667h-12.4453925c-.3726962-1.1466667-.6921502-2.2933334-.9716723-3.4533334-.1730376-.7333333-.3327645-1.4533333-.4658703-2.1866666-.4747454-2.4312157-.7507457-4.8971683-.825256-7.3733334 0-.8266666 0-1.6533333 0-2.48 0-.32 0-.6533333 0-.9733333l.8651877-.5333333.159727-.0933334v.1733334.1733333.6933333c0 .8 0 1.6133334.0798634 2.4266667v.9333333c0 .7733334.1331058 1.56.2262799 2.3333334l.1197952.9066666c.0931741.68.2129693 1.3333334.3194539 2.0266667.5590444-.32 1.1313994-.6266667 1.6904437-.92-.1197952-.6933333-.2262798-1.4133333-.3061433-2.12 0-.32-.0798635-.6666667-.1197952-1-.0798635-.76-.1331058-1.5466667-.1730376-2.3066667 0-.3466666 0-.6933333 0-1.0266666 0-.8 0-1.6133334 0-2.4 0-.3333334 0-.6533334 0-.9866667l.1197952-.0666667.8518772-.4533333.1597269-.08c-.0065078.0352567-.0065078.0714099 0 .1066667v1.0533333c0 .7866667 0 1.5733333.0798635 2.3466667v1.0266666c.0665529.76.1331058 1.52.2262799 2.2533334 0 .3333333.0798635.6666666.1331058 1.0133333.093174.6666667.1996587 1.3333333.3194539 1.9733333l1.7037543-.7733333c-.1197952-.68-.2262799-1.3333333-.3061434-2.0533333 0-.36-.093174-.72-.1331058-1.08-.0798634-.7466667-.1331058-1.5066667-.1863481-2.2533334 0-.36 0-.7333333 0-1.0933333 0-.7733333 0-1.56 0-2.3333333 0-.3466667 0-.7066667 0-1.0666667l.1197952-.0666667.8518772-.3733333h.1597269v.0533333 1.1333334c0 .7466666 0 1.5066666.0798635 2.2666666l.0798635 1.0933334c.0665529.7333333.1464164 1.48.2395904 2.2 0 .36.0931741.72.1464164 1.08.1064847.6666666.2262799 1.3333333.3460751 1.96l1.8235495-.64c-.1197952-.6533334-.2262799-1.3333334-.3194539-2l-.159727-1.1466667c-.0798635-.7333333-.1464164-1.4666667-.1996587-2.1866667 0-.3866666 0-.7866666-.0665529-1.16 0-.7466666 0-1.5066666 0-2.2533333v-1.1466667h.1331058l.8651877-.32v1.2133334c0 .7333333 0 1.4666666.1064847 2.2.1064846.7333333.1464163 1.6666666.252901 2.4933333.2112659 1.7629323.5223473 3.5124178.9317406 5.24.159727.6933333.3327645 1.3333333.5324232 2.04.665529-.2 1.331058-.3866667 2.0098976-.56-.1863481-.68-.3726962-1.3333333-.5324232-2.04-.6006904-2.5764937-.9836146-5.1991019-1.1447099-7.84 0-.72-.0798635-1.44-.0931741-2.1733333v-1.24c0-.7466667 0-1.48.0798635-2.2266667l-2.1296928.6533333-.7986348.28c-.7187714.2533334-1.4375427.52-2.156314.8133334l-.7720137.32c-.7320819.3066666-1.4641638.64-2.1696245.9866666l-.7853243.3733334c-.7453925.36-1.4774744.76-2.1962457 1.16-.252901.16-.5191126.3066666-.7853242.4533333-.7453925.4533333-1.4774744.9066667-2.1962458 1.3333333 0 .88-.093174 1.76-.093174 2.6666667v.88c0 .84 0 1.68.0798635 2.5066667 0 1.08.1597269 2.16.2928327 3.2266666.159727 1.3333334.3860068 2.6666667.6522184 4 .1464164.7333334.319454 1.4666667.5058021 2.2.1863481.7333334.412628 1.5333334.6389078 2.2933334l.3593857 1.1466666.3327645.96h3.5006826c.7209067 1.8245396 1.54757 3.605349 2.4757679 5.3333334.0699741.1111409.132237.2269696.1863481.3466666l.5058021.88c.159727.2933334.3460751.5866667.5191126.88l.1996587.3333334c1.041363 1.61504 2.1746353 3.168719 3.394198 4.6533333.4525597.5866667.9317406 1.16 1.4242321 1.72.8651877 1.0133333 1.7836177 1.9866667 2.7286689 2.92l.1863481.1733333c.6255973-.3733333 1.237884-.76 1.8501707-1.16-1.2833353-1.2278235-2.5007455-2.5229766-3.647099-3.88-.4791809-.5733333-.9450512-1.16-1.4109215-1.76-.6921502-.9066666-1.331058-1.8533333-1.996587-2.8266666h10.1027303c.9863726 1.2390762 2.034817 2.4272676 3.141297 3.56.5235495-.48 1.0293515-.9733334 1.5174061-1.48-.6522184-.6266667-1.2911263-1.2666667-1.9167235-2.0266667zm-5.5771331-2.0933333h-8.5720137c-.0229889-.0617786-.0543399-.1201014-.0931741-.1733334-.0260494-.056106-.0572412-.1096691-.093174-.16-.3993174-.72-.7986348-1.44-1.1713311-2.1733333-.5191126-1.04-.9982935-2.0933333-1.4508532-3.1466667h9.0778157c.252901.4533334.505802.9066667.7720136 1.3333334.2662116.4266666.5191127.9066666.7986348 1.3333333.412628.6666667.8385666 1.3333333 1.3310581 1.9733333l.6788396.9733334z" fill="#009ddc"/></g></g></svg>