<svg fill="none" height="552" viewBox="0 0 255 552" width="255" xmlns="http://www.w3.org/2000/svg" xmlns:xlink="http://www.w3.org/1999/xlink"><mask id="a" height="552" maskUnits="userSpaceOnUse" width="255" x="0" y="0"><rect fill="#c4c4c4" height="551.113" rx="25.791" width="254.516" x=".161133" y=".812012"/></mask><rect fill="#fff" height="551.113" rx="25.791" width="254.516" x=".161133" y=".812012"/><g mask="url(#a)"><path d="m.148682 504.042h254.328318v21.703c0 14.233-11.539 25.772-25.772 25.772h-202.7844c-14.2334 0-25.771918-11.539-25.771918-25.772z" fill="#fff"/><path clip-rule="evenodd" d="m.148682 504.042h254.328318v.678h-254.328318z" fill="#f0f2f4" fill-rule="evenodd"/><path d="m87.1291 517.776v5.538h2.3737v-5.538zm4.7475 0v5.538h2.3737v-5.538zm-6.33 9.495h15.0334v-2.374h-15.0334zm11.0774-9.495v5.538h2.3737v-5.538zm-3.5606-7.121-7.5168 3.956v1.582h15.0334v-1.582z" fill="#000"/><path d="m75.8038 533.363v-.627l2.2622-.003v1.981c-.3473.277-.7055.486-1.0746.627-.3692.138-.748.208-1.1366.208-.5245 0-1.0017-.112-1.4316-.336-.4274-.225-.7504-.551-.9689-.976-.2186-.425-.3279-.9-.3279-1.424 0-.52.1081-1.004.3242-1.454.2186-.451.5319-.786.9399-1.005.4079-.218.8779-.328 1.4097-.328.3861 0 .7346.063 1.0454.19.3133.124.5586.297.7359.521.1773.223.312.514.4043.874l-.6375.175c-.0801-.272-.1797-.486-.2987-.641-.119-.156-.2889-.28-.5099-.372-.221-.095-.4663-.142-.7359-.142-.323 0-.6022.05-.8378.149-.2356.097-.4262.226-.5719.386-.1433.161-.255.337-.3351.529-.136.33-.204.688-.204 1.074 0 .476.0813.874.244 1.195.1652.321.4044.559.7177.714.3132.155.6459.233.9981.233.3059 0 .6047-.058.8961-.175.2914-.119.5124-.245.6629-.379v-.994zm2.9798.16c0-.716.1991-1.247.5974-1.592.3327-.286.7382-.429 1.2166-.429.5319 0 .9666.174 1.3041.524.3376.347.5064.828.5064 1.443 0 .497-.0753.89-.2259 1.176-.1481.284-.3655.505-.652.663-.2841.158-.595.237-.9326.237-.5415 0-.9798-.174-1.315-.521-.3327-.347-.499-.848-.499-1.501zm.6739 0c0 .496.108.867.3242 1.115.2161.245.4881.368.8159.368.3255 0 .5962-.124.8124-.372.2161-.247.3242-.625.3242-1.133 0-.478-.1093-.84-.3279-1.085-.2161-.248-.4857-.372-.8087-.372-.3278 0-.5998.123-.8159.368-.2162.245-.3242.616-.3242 1.111zm4.7974 1.935-1.4716-3.869h.6921l.8305 2.317c.0899.25.1725.51.2477.779.0583-.204.1397-.449.2441-.736l.8597-2.36h.6739l-1.4644 3.869zm5.3038-1.246.6776.083c-.1069.396-.3048.704-.5938.922-.289.219-.6581.328-1.1074.328-.5658 0-1.0151-.174-1.3478-.521-.3302-.35-.4954-.839-.4954-1.468 0-.651.1676-1.156.5027-1.515.3351-.36.7698-.539 1.3041-.539.5173 0 .9398.176 1.2677.528.3278.352.4917.847.4917 1.486 0 .039-.0012.097-.0036.175h-2.885c.0242.425.1445.75.3606.976s.4857.339.8087.339c.2404 0 .4456-.063.6156-.19.17-.126.3048-.327.4043-.604zm-2.1528-1.06h2.1601c-.0291-.326-.1117-.57-.2477-.733-.2088-.252-.4796-.378-.8123-.378-.3011 0-.5549.1-.7613.302-.204.202-.317.471-.3388.809zm3.65 2.306v-3.869h.5901v.586c.1506-.274.289-.455.4153-.542.1287-.088.2695-.131.4225-.131.221 0 .4457.07.6739.211l-.2258.608c-.1603-.095-.3206-.142-.4809-.142-.1432 0-.2719.044-.3861.131-.1141.085-.1955.204-.244.357-.0729.233-.1093.488-.1093.765v2.026zm2.4916 0v-3.869h.5901v.55c.2842-.425.6946-.637 1.2313-.637.2331 0 .4468.042.6411.127.1967.083.3436.192.4408.328.0971.136.1651.297.2039.484.0243.122.0365.334.0365.638v2.379h-.6557v-2.354c0-.267-.0255-.466-.0765-.597-.051-.134-.1421-.239-.2732-.317-.1287-.08-.2805-.12-.4554-.12-.2792 0-.5209.088-.7249.266-.2015.177-.3023.513-.3023 1.009v2.113zm6.6775-.478c-.2432.207-.4776.352-.7034.437-.2235.085-.4639.128-.7213.128-.425 0-.7516-.103-.9799-.31-.2283-.209-.3424-.474-.3424-.797 0-.19.0425-.362.1275-.518.0874-.158.2003-.284.3388-.379.1408-.094.2987-.166.4735-.214.1287-.034.323-.067.5829-.099.5294-.063.9191-.138 1.1693-.226.002-.09.004-.147.004-.171 0-.267-.062-.455-.1862-.565-.1675-.148-.4165-.222-.7467-.222-.3084 0-.5367.055-.6849.164-.1457.107-.2537.298-.3242.572l-.6411-.087c.0583-.275.1542-.496.2878-.663.1336-.17.3266-.3.5792-.39.2526-.092.5452-.138.8779-.138.3303 0 .5986.038.8052.116.206.078.358.176.455.295.097.117.165.265.204.445.022.111.033.313.033.604v.875c0 .609.013.995.04 1.158.029.16.085.314.168.463h-.685c-.068-.136-.112-.296-.131-.478zm-.055-1.464c-.238.097-.595.18-1.071.248-.2696.039-.4602.082-.5719.131-.1117.048-.1979.12-.2586.215-.0607.092-.0911.195-.0911.309 0 .175.0656.321.1967.437.1336.117.3279.175.5828.175.2526 0 .4772-.054.6739-.164.1968-.111.3412-.263.4332-.455.071-.148.106-.367.106-.656zm1.683 1.942v-3.869h.59v.55c.284-.425.695-.637 1.231-.637.233 0 .447.042.641.127.197.083.344.192.441.328s.165.297.204.484c.024.122.037.334.037.638v2.379h-.656v-2.354c0-.267-.026-.466-.077-.597-.051-.134-.142-.239-.273-.317-.129-.08-.28-.12-.455-.12-.279 0-.521.088-.725.266-.202.177-.302.513-.302 1.009v2.113zm6.677-1.417.645.083c-.071.445-.252.793-.543 1.046-.289.25-.645.375-1.067.375-.53 0-.956-.172-1.279-.517-.32-.348-.481-.844-.481-1.49 0-.418.069-.783.208-1.097.138-.313.348-.547.63-.703.284-.158.593-.236.925-.236.42 0 .764.106 1.031.32.267.211.439.512.514.903l-.638.099c-.06-.26-.168-.456-.324-.587-.153-.131-.339-.196-.557-.196-.33 0-.599.119-.805.357-.207.235-.31.609-.31 1.122 0 .519.1.897.299 1.132.199.236.459.354.779.354.258 0 .473-.079.645-.237.173-.158.282-.401.328-.728zm3.854.171.678.083c-.107.396-.305.704-.594.922-.289.219-.658.328-1.108.328-.565 0-1.015-.174-1.347-.521-.331-.35-.496-.839-.496-1.468 0-.651.168-1.156.503-1.515.335-.36.77-.539 1.304-.539.517 0 .94.176 1.268.528.327.352.491.847.491 1.486 0 .039-.001.097-.003.175h-2.885c.024.425.144.75.36.976s.486.339.809.339c.24 0 .446-.063.616-.19.17-.126.304-.327.404-.604zm-2.153-1.06h2.16c-.029-.326-.111-.57-.247-.733-.209-.252-.48-.378-.813-.378-.301 0-.555.1-.761.302-.204.202-.317.471-.339.809z" fill="#000"/><g fill="#989898"><path d="m148.713 535.458 2.051-5.341h.762l2.185 5.341h-.805l-.623-1.618h-2.233l-.586 1.618zm1.541-2.193h1.811l-.558-1.479c-.17-.45-.296-.819-.379-1.108-.068.343-.163.683-.287 1.02zm6.462.776.645.083c-.07.445-.251.793-.543 1.046-.289.25-.644.375-1.067.375-.529 0-.956-.172-1.279-.517-.32-.348-.48-.844-.48-1.49 0-.418.069-.783.207-1.097.139-.313.349-.547.63-.703.285-.158.593-.236.926-.236.42 0 .763.106 1.031.32.267.211.438.512.513.903l-.637.099c-.061-.26-.169-.456-.324-.587-.153-.131-.339-.196-.558-.196-.33 0-.598.119-.805.357-.206.235-.309.609-.309 1.122 0 .519.099.897.298 1.132.199.236.459.354.78.354.257 0 .472-.079.645-.237.172-.158.281-.401.327-.728zm2.638.83.094.579c-.184.039-.349.059-.495.059-.238 0-.423-.038-.554-.113-.131-.076-.223-.174-.277-.295-.053-.124-.08-.383-.08-.776v-2.226h-.48v-.51h.48v-.958l.652-.393v1.351h.66v.51h-.66v2.262c0 .187.011.307.033.361.024.053.062.096.113.127.054.032.129.048.226.048.073 0 .169-.009.288-.026zm.648-4v-.754h.656v.754zm0 4.587v-3.869h.656v3.869zm2.732 0-1.471-3.869h.692l.83 2.317c.09.25.173.51.248.779.058-.204.14-.449.244-.736l.86-2.36h.674l-1.465 3.869zm2.659-4.587v-.754h.656v.754zm0 4.587v-3.869h.656v3.869zm3.089-.587.095.579c-.184.039-.35.059-.495.059-.238 0-.423-.038-.554-.113-.131-.076-.223-.174-.277-.295-.053-.124-.08-.383-.08-.776v-2.226h-.481v-.51h.481v-.958l.652-.393v1.351h.659v.51h-.659v2.262c0 .187.011.307.033.361.024.053.062.096.113.127.053.032.128.048.226.048.072 0 .168-.009.287-.026zm.616 2.076-.073-.615c.143.039.268.058.375.058.146 0 .263-.024.35-.073.087-.048.159-.116.215-.204.041-.065.108-.228.2-.488.012-.036.032-.09.059-.16l-1.468-3.876h.706l.805 2.24c.105.284.198.583.281.896.075-.301.165-.595.269-.881l.827-2.255h.656l-1.472 3.934c-.158.425-.28.718-.368.878-.116.216-.25.374-.4.474-.151.102-.331.153-.539.153-.127 0-.268-.027-.423-.081z"/><path d="m35.5801 516.085-1.4387 1.439h3.8365v-3.837l-1.4387 1.439c-2.1197-2.12-5.5534-2.12-7.6731 0-.7529.753-1.2324 1.674-1.4482 2.638h1.4003c.1822-.614.5227-1.194 1.0071-1.679 1.5873-1.587 4.1674-1.587 5.7548 0zm2.4074 4.076h-1.4004c-.1918.614-.5227 1.195-1.007 1.679-1.5874 1.587-4.1675 1.587-5.7548 0l1.4387-1.439h-3.8366v3.837l1.4387-1.439c2.1197 2.12 5.5534 2.12 7.6731 0 .7529-.753 1.2325-1.674 1.4483-2.638z"/><path d="m27.7559 533.585.7066.179c-.1481.58-.4152 1.023-.8014 1.329-.3836.304-.8536.456-1.4097.456-.5755 0-1.0442-.117-1.4061-.35-.3594-.236-.6338-.576-.8232-1.02-.187-.444-.2805-.922-.2805-1.432 0-.556.1056-1.04.3169-1.453.2137-.415.5161-.73.907-.944.3935-.216.8257-.324 1.2968-.324.5343 0 .9836.136 1.3479.408.3642.272.618.655.7613 1.148l-.6958.164c-.1238-.389-.3035-.672-.5391-.849s-.5318-.266-.8888-.266c-.4104 0-.7541.098-1.0309.295-.2744.197-.4675.461-.5792.794-.1117.33-.1676.672-.1676 1.024 0 .454.0656.851.1967 1.191.1336.337.34.59.6193.758.2793.167.5816.251.907.251.3959 0 .731-.114 1.0054-.343.2744-.228.4602-.567.5574-1.016zm1.468 3.362-.0729-.615c.1433.039.2684.058.3752.058.1457 0 .2623-.024.3497-.073.0874-.048.1591-.116.2149-.204.0413-.065.1081-.228.2004-.488.0121-.036.0316-.09.0583-.16l-1.468-3.876h.7066l.8051 2.24c.1044.284.1979.583.2805.896.0753-.301.1651-.595.2695-.881l.8269-2.255h.6557l-1.4716 3.934c-.1579.425-.2805.718-.3679.878-.1166.216-.2502.374-.4007.474-.1506.102-.3303.153-.5392.153-.1263 0-.2671-.027-.4225-.081zm6.2837-2.906.6447.083c-.0704.445-.2513.793-.5427 1.046-.289.25-.6448.375-1.0674.375-.5294 0-.9556-.172-1.2786-.517-.3205-.348-.4808-.844-.4808-1.49 0-.418.0692-.783.2076-1.097.1385-.313.3485-.547.6302-.703.2842-.158.5926-.236.9253-.236.4201 0 .7637.106 1.0309.32.2671.211.4383.512.5136.903l-.6375.099c-.0607-.26-.1688-.456-.3242-.587-.153-.131-.3388-.196-.5573-.196-.3303 0-.5986.119-.8051.357-.2064.235-.3096.609-.3096 1.122 0 .519.0996.897.2987 1.132.1992.236.459.354.7796.354.2574 0 .4723-.079.6447-.237s.2817-.401.3279-.728zm1.1911 1.417v-5.341h.6557v5.341zm4.3239-1.246.6776.083c-.1069.396-.3048.704-.5938.922-.289.219-.6581.328-1.1074.328-.5658 0-1.0151-.174-1.3478-.521-.3302-.35-.4954-.839-.4954-1.468 0-.651.1676-1.156.5027-1.515.3351-.36.7698-.539 1.3041-.539.5173 0 .9398.176 1.2677.528.3278.352.4917.847.4917 1.486 0 .039-.0012.097-.0036.175h-2.885c.0242.425.1445.75.3606.976s.4857.339.8087.339c.2404 0 .4456-.063.6156-.19.17-.126.3048-.327.4043-.604zm-2.1528-1.06h2.1601c-.0291-.326-.1117-.57-.2477-.733-.2088-.252-.4796-.378-.8123-.378-.3011 0-.5549.1-.7613.302-.204.202-.317.471-.3388.809z"/><path d="m225.483 515.402c0 1.97-1.596 3.561-3.56 3.561-1.965 0-3.561-1.591-3.561-3.561 0-1.964 1.596-3.56 3.561-3.56 1.964 0 3.56 1.596 3.56 3.56zm-10.681 9.495c0-2.374 4.747-3.679 7.121-3.679 2.373 0 7.121 1.305 7.121 3.679v1.187h-14.242z"/><path d="m211.916 535.458v-5.341h2.014c.355 0 .626.017.813.051.262.044.482.128.659.252.177.121.319.292.426.513.11.221.164.464.164.729 0 .454-.144.839-.433 1.155-.289.313-.811.469-1.567.469h-1.369v2.172zm.707-2.802h1.38c.457 0 .781-.085.973-.255s.288-.409.288-.717c0-.224-.057-.414-.171-.572-.112-.161-.26-.266-.445-.317-.119-.032-.339-.048-.659-.048h-1.366zm4.178 2.802v-3.869h.59v.586c.151-.274.289-.455.415-.542.129-.088.27-.131.423-.131.221 0 .446.07.674.211l-.226.608c-.16-.095-.321-.142-.481-.142-.143 0-.272.044-.386.131-.114.085-.196.204-.244.357-.073.233-.109.488-.109.765v2.026zm2.248-1.935c0-.716.199-1.247.597-1.592.333-.286.738-.429 1.217-.429.531 0 .966.174 1.304.524.337.347.506.828.506 1.443 0 .497-.075.89-.226 1.176-.148.284-.365.505-.652.663-.284.158-.595.237-.932.237-.542 0-.98-.174-1.315-.521-.333-.347-.499-.848-.499-1.501zm.673 0c0 .496.108.867.325 1.115.216.245.488.368.816.368.325 0 .596-.124.812-.372.216-.247.324-.625.324-1.133 0-.478-.109-.84-.328-1.085-.216-.248-.485-.372-.808-.372-.328 0-.6.123-.816.368-.217.245-.325.616-.325 1.111zm3.88 1.935v-3.359h-.579v-.51h.579v-.412c0-.26.023-.453.069-.579.063-.17.174-.307.332-.411.16-.107.383-.161.67-.161.184 0 .388.022.612.066l-.099.572c-.136-.025-.264-.037-.386-.037-.199 0-.34.043-.422.128-.083.085-.124.244-.124.477v.357h.754v.51h-.754v3.359zm1.923-4.587v-.754h.656v.754zm0 4.587v-3.869h.656v3.869zm1.643 0v-5.341h.656v5.341zm4.324-1.246.678.083c-.107.396-.305.704-.594.922-.289.219-.658.328-1.108.328-.565 0-1.015-.174-1.347-.521-.331-.35-.496-.839-.496-1.468 0-.651.168-1.156.503-1.515.335-.36.77-.539 1.304-.539.517 0 .94.176 1.268.528s.491.847.491 1.486c0 .039-.001.097-.003.175h-2.885c.024.425.144.75.36.976.217.226.486.339.809.339.24 0 .446-.063.616-.19.17-.126.304-.327.404-.604zm-2.153-1.06h2.16c-.029-.326-.111-.57-.247-.733-.209-.252-.48-.378-.813-.378-.301 0-.555.1-.761.302-.204.202-.317.471-.339.809z"/><path d="m169.11 519.677h-2.686l-1.545-3.549c-.161-.325-.47-.555-.792-.596-.349-.041-.712.162-.873.515l-3.102 6.813-2.337-9.319c-.081-.393-.389-.637-.792-.678-.39-.04-.752.204-.914.515l-2.712 6.258h-2.055c-.309 0-.591.285-.591.596v.596c0 .326.282.569.591.569h2.686c.349 0 .671-.203.792-.555l1.934-4.375 2.256 9.197c.041.244.242.515.47.637.162.081.323.122.43.122.39 0 .672-.203.873-.474l3.317-7.288.994 2.276c.161.325.47.515.833.515h3.223c.322 0 .591-.285.591-.596v-.556c0-.338-.269-.623-.591-.623z"/><circle cx="165.631" cy="514.215" r="3.22149" stroke="#fff" stroke-width="1.01731"/></g><path d="m229.835 12.9062h11.303c.812 0 1.47.6579 1.47 1.4695v4.0692c0 .8116-.658 1.4695-1.47 1.4695h-11.303c-.812 0-1.47-.6579-1.47-1.4695v-4.0692c0-.8116.658-1.4695 1.47-1.4695z" opacity=".35" stroke="#2b333f" stroke-width=".678208"/><path d="m243.625 15.0535v2.7128c.546-.2298.901-.7643.901-1.3564 0-.5922-.355-1.1267-.901-1.3564" fill="#2b333f" opacity=".4"/><path d="m229.383 14.8279c0-.4995.405-.9043.904-.9043h10.399c.5 0 .905.4048.905.9043v3.1649c0 .4994-.405.9043-.905.9043h-10.399c-.499 0-.904-.4049-.904-.9043z" fill="#2b333f"/><path clip-rule="evenodd" d="m219.434 14.1097c1.502.0001 2.948.5775 4.037 1.613.082.0799.213.0789.294-.0023l.784-.7912c.041-.0412.064-.097.063-.155 0-.0581-.024-.1136-.065-.1543-2.859-2.7396-7.369-2.7396-10.227 0-.042.0407-.065.0962-.066.1542 0 .0581.023.1139.064.1551l.784.7912c.081.0813.212.0824.294.0023 1.089-1.0356 2.535-1.613 4.038-1.613zm0 2.5746c.825-.0001 1.622.3069 2.234.8611.082.0786.213.0769.294-.0039l.783-.7912c.041-.0415.064-.0978.063-.1563 0-.0585-.024-.1143-.066-.155-1.864-1.7338-4.751-1.7338-6.615 0-.042.0407-.066.0965-.066.155-.001.0586.022.1149.063.1563l.783.7912c.081.0808.211.0825.294.0039.612-.5539 1.408-.8608 2.233-.8611zm1.568 1.7324c.002.0587-.022.1153-.063.1564l-1.355 1.367c-.04.0402-.094.0628-.15.0628-.057 0-.111-.0226-.151-.0628l-1.355-1.367c-.041-.0412-.064-.0978-.063-.1564.001-.0587.026-.1143.07-.1536.865-.7317 2.132-.7317 2.997 0 .044.0394.069.095.07.1536z" fill="#2b333f" fill-rule="evenodd"/><path clip-rule="evenodd" d="m210.167 12.7935h-.678c-.375 0-.678.3036-.678.6782v5.8778c0 .3745.303.6782.678.6782h.678c.375 0 .678-.3037.678-.6782v-5.8778c0-.3746-.303-.6782-.678-.6782zm-3.843 1.5824h.678c.375 0 .678.3037.678.6782v4.2954c0 .3745-.303.6782-.678.6782h-.678c-.375 0-.678-.3037-.678-.6782v-4.2954c0-.3745.303-.6782.678-.6782zm-2.487 1.582h-.678c-.375 0-.678.3037-.678.6782v2.7129c0 .3745.303.6782.678.6782h.678c.375 0 .678-.3037.678-.6782v-2.7129c0-.3745-.303-.6782-.678-.6782zm-3.165 1.3572h-.678c-.375 0-.678.3036-.678.6782v1.3564c0 .3746.303.6782.678.6782h.678c.375 0 .678-.3036.678-.6782v-1.3564c0-.3746-.303-.6782-.678-.6782z" fill="#2b333f" fill-rule="evenodd"/><path clip-rule="evenodd" d="m21.8055 20.6641c-1.361 0-2.4191-.8097-2.6227-2.0018h1.4852c.1391.4719.5861.7699 1.1474.7699.9836 0 1.5797-.9487 1.5499-2.4389h-.0895c-.3278.6755-.9934 1.058-1.8279 1.058-1.3611 0-2.3595-1.0034-2.3595-2.3744 0-1.4902 1.1375-2.5482 2.742-2.5482 1.0332 0 1.8677.452 2.3644 1.2915.3974.6159.6011 1.4405.6011 2.4191 0 2.3843-1.1227 3.8248-2.9904 3.8248zm.0348-3.7706c.7501 0 1.3015-.5315 1.3015-1.2517 0-.7253-.5613-1.2866-1.2965-1.2866s-1.3014.5564-1.3014 1.2717c0 .7351.5464 1.2666 1.2964 1.2666zm5.0669 2.8608c.5365 0 .8793-.3626.8793-.8643s-.3428-.8594-.8793-.8594c-.5315 0-.8792.3577-.8792.8594s.3477.8643.8792.8643zm0-3.6652c.5365 0 .8793-.3626.8793-.8643s-.3428-.8593-.8793-.8593c-.5315 0-.8792.3576-.8792.8593s.3477.8643.8792.8643zm5.6381 4.3907v-1.2518h-3.507v-1.3262c.6458-1.217 1.5797-2.6973 2.8364-4.5899h2.1012v4.6693h.9388v1.2468h-.9388v1.2518zm-2.1607-2.5333v.0795h2.1955v-3.5467h-.0795c-.6556.9786-1.2964 1.982-2.116 3.4672zm7.2227 2.5333h1.5002v-7.1679h-1.4952l-1.8528 1.2766v1.3959l1.7584-1.2121h.0894z" fill="#2b333f" fill-rule="evenodd"/></g><path d="m79.7492 81.313v-2.2903h5.9158v5.4151c-.5749.5563-1.4094 1.0478-2.5036 1.4743-1.0879.4203-2.1913.6305-3.3102.6305-1.4218 0-2.6612-.2967-3.7182-.8901-1.0571-.5997-1.8514-1.4527-2.383-2.5592-.5316-1.1127-.7974-2.3212-.7974-3.6255 0-1.4156.2967-2.6736.8901-3.7739s1.462-1.9441 2.6055-2.5313c.8717-.4513 1.9565-.6769 3.2547-.6769 1.6875 0 3.0042.3554 3.95 1.0663.9519.7047 1.5639 1.6814 1.8359 2.9301l-2.7261.51c-.1916-.6677-.5532-1.1931-1.0848-1.5763-.5255-.3895-1.1838-.5842-1.975-.5842-1.1993 0-2.1543.3802-2.8652 1.1405-.7047.7603-1.0571 1.8885-1.0571 3.3844 0 1.6134.3586 2.825 1.0756 3.6348.7171.8036 1.6567 1.2054 2.8188 1.2054.5749 0 1.1498-.1113 1.7247-.3338.5811-.2287 1.0787-.5038 1.4928-.8253v-1.7246zm7.8352-.0649c0-.8654.2132-1.703.6398-2.5128.4265-.8098 1.0292-1.428 1.8081-1.8545.785-.4265 1.6597-.6398 2.6241-.6398 1.4897 0 2.7106.4853 3.6625 1.4558.952.9643 1.428 2.1851 1.428 3.6625 0 1.4898-.4822 2.7261-1.4465 3.709-.9582.9767-2.1666 1.465-3.6255 1.465-.9025 0-1.7648-.204-2.587-.6119-.816-.408-1.4372-1.0046-1.8637-1.7896-.4266-.7913-.6398-1.7525-.6398-2.8837zm2.6704.1391c0 .9767.2318 1.7246.6954 2.2439.4637.5192 1.0355.7789 1.7154.7789.68 0 1.2487-.2597 1.7061-.7789.4637-.5193.6955-1.2734.6955-2.2625 0-.9643-.2318-1.7061-.6955-2.2254-.4574-.5192-1.0261-.7788-1.7061-.7788-.6799 0-1.2517.2596-1.7154.7788-.4636.5193-.6954 1.2673-.6954 2.244zm12.2492 4.9236-3.969-9.8473h2.735l1.855 5.0257.538 1.6783c.142-.4266.231-.7078.269-.8438.086-.2782.179-.5564.278-.8345l1.873-5.0257h2.679l-3.912 9.8473zm13.565-3.1341 2.596.4358c-.333.952-.862 1.6783-1.585 2.179-.717.4946-1.617.7418-2.698.7418-1.713 0-2.98-.5594-3.802-1.6783-.649-.8963-.974-2.0275-.974-3.3937 0-1.6319.427-2.9084 1.28-3.8294.853-.9273 1.932-1.3909 3.236-1.3909 1.465 0 2.621.4853 3.468 1.4558.847.9643 1.252 2.4448 1.214 4.4414h-6.527c.018.7727.228 1.3754.63 1.8081.402.4266.903.6398 1.502.6398.408 0 .751-.1112 1.03-.3338.278-.2225.488-.581.63-1.0756zm.148-2.6333c-.018-.7542-.213-1.326-.584-1.7154-.371-.3956-.822-.5934-1.353-.5934-.569 0-1.039.207-1.41.6212s-.553.9767-.547 1.6876zm7.214 5.7674h-2.605v-9.8473h2.42v1.4002c.414-.6615.785-1.0973 1.113-1.3074.333-.2102.71-.3153 1.131-.3153.593 0 1.165.1638 1.715.4914l-.806 2.2718c-.439-.2844-.847-.4266-1.224-.4266-.365 0-.674.102-.928.306-.253.1978-.454.5595-.602 1.0849-.143.5254-.214 1.6257-.214 3.301zm13.863 0h-2.606v-5.0256c0-1.0633-.056-1.7494-.167-2.0585-.111-.3153-.294-.5594-.547-.7325-.247-.1731-.547-.2596-.899-.2596-.452 0-.857.1236-1.215.3709-.359.2472-.606.5748-.742.9828-.13.408-.195 1.1622-.195 2.2625v4.46h-2.605v-9.8473h2.42v1.4465c.859-1.1127 1.941-1.669 3.245-1.669.575 0 1.101.1051 1.577.3153.476.2039.834.4667 1.075.7881.247.3215.417.6862.51 1.0941.099.408.149.9922.149 1.7525zm4.599-6.843-2.365-.4265c.266-.952.723-1.6567 1.372-2.1141.65-.4575 1.614-.6862 2.893-.6862 1.163 0 2.028.1391 2.597.4173.568.2719.967.6212 1.196 1.0477.235.4204.352 1.1962.352 2.3274l-.028 3.0413c0 .8655.041 1.5052.121 1.9194.086.408.244.8469.473 1.3167h-2.578c-.068-.1731-.151-.4296-.25-.7696-.044-.1546-.074-.2566-.093-.306-.445.4327-.921.7572-1.428.9736s-1.048.3245-1.623.3245c-1.013 0-1.814-.2751-2.401-.8252-.581-.5502-.872-1.2456-.872-2.0863 0-.5563.133-1.0509.399-1.4836.266-.4389.637-.7727 1.113-1.0014.482-.2349 1.174-.4389 2.077-.612 1.217-.2287 2.061-.442 2.531-.6398v-.2596c0-.5007-.124-.8561-.371-1.0663-.247-.2164-.714-.3245-1.4-.3245-.464 0-.825.0927-1.085.2781-.259.1793-.47.4976-.63.9551zm3.486 2.1141c-.334.1113-.862.2442-1.586.3987-.723.1545-1.196.306-1.418.4543-.34.2411-.51.5471-.51.918 0 .3647.136.68.408.9458s.618.3987 1.038.3987c.47 0 .918-.1545 1.345-.4636.315-.2349.522-.5224.621-.8624.068-.2225.102-.6459.102-1.2703zm14.094 4.7289h-2.605v-5.0256c0-1.0633-.056-1.7494-.167-2.0585-.112-.3153-.294-.5594-.547-.7325-.248-.1731-.548-.2596-.9-.2596-.451 0-.856.1236-1.215.3709-.358.2472-.605.5748-.741.9828-.13.408-.195 1.1622-.195 2.2625v4.46h-2.606v-9.8473h2.42v1.4465c.86-1.1127 1.942-1.669 3.246-1.669.575 0 1.1.1051 1.576.3153.476.2039.835.4667 1.076.7881.247.3215.417.6862.51 1.0941.099.408.148.9922.148 1.7525zm11.238-6.9357-2.568.4636c-.087-.5131-.285-.8994-.594-1.1591-.303-.2596-.698-.3894-1.187-.3894-.649 0-1.168.2256-1.557.6769-.384.445-.575 1.193-.575 2.2439 0 1.1683.195 1.9935.584 2.4757.396.4822.924.7233 1.586.7233.494 0 .899-.1391 1.214-.4173.315-.2844.538-.7696.668-1.4558l2.559.4358c-.266 1.1745-.776 2.0616-1.53 2.6612s-1.765.8994-3.032.8994c-1.44 0-2.59-.4543-3.449-1.363-.853-.9087-1.28-2.1667-1.28-3.7739 0-1.6257.43-2.8899 1.289-3.7924.859-.9087 2.021-1.363 3.486-1.363 1.2 0 2.152.2596 2.856.7789.711.513 1.221 1.2981 1.53 2.3552zm7.687 3.8016 2.596.4358c-.334.952-.862 1.6783-1.585 2.179-.717.4946-1.617.7418-2.699.7418-1.712 0-2.979-.5594-3.801-1.6783-.649-.8963-.974-2.0275-.974-3.3937 0-1.6319.427-2.9084 1.28-3.8294.853-.9273 1.931-1.3909 3.236-1.3909 1.465 0 2.621.4853 3.468 1.4558.847.9643 1.251 2.4448 1.214 4.4414h-6.527c.018.7727.228 1.3754.63 1.8081.402.4266.903.6398 1.502.6398.408 0 .751-.1112 1.029-.3338.279-.2225.489-.581.631-1.0756zm.148-2.6333c-.018-.7542-.213-1.326-.584-1.7154-.371-.3956-.822-.5934-1.354-.5934-.568 0-1.038.207-1.409.6212s-.553.9767-.547 1.6876z" fill="#2b333f"/><rect fill="#eaeaea" height="139.033" rx="4.06925" width="110.548" x="11" y="282.268"/><path d="m40.5072 371.619v-7.767h2.93c.5157 0 .9096.024 1.1816.074.3815.063.7012.185.959.365.2579.177.4645.426.6199.747.159.322.2385.675.2385 1.06 0 .661-.2102 1.221-.6305 1.68-.4204.455-1.1798.683-2.2784.683h-1.9922v3.158zm1.0279-4.074h2.0081c.6641 0 1.1356-.124 1.4147-.371.279-.248.4186-.595.4186-1.044 0-.325-.083-.602-.2491-.832-.1624-.233-.3779-.387-.6464-.461-.1731-.046-.4927-.069-.959-.069h-1.9869zm6.1473 4.074v-5.627h.8583v.853c.219-.399.4204-.662.6041-.789.1872-.127.3921-.191.6146-.191.3214 0 .6482.102.9802.307l-.3285.885c-.2331-.138-.4663-.207-.6994-.207-.2084 0-.3956.064-.5616.191-.1661.124-.2844.297-.355.519-.106.34-.159.71-.159 1.113v2.946zm3.3391-2.813c0-1.042.2896-1.814.8689-2.316.484-.417 1.0739-.625 1.7697-.625.7736 0 1.4059.254 1.8969.763.491.505.7365 1.204.7365 2.098 0 .724-.1095 1.295-.3285 1.712-.2155.413-.5316.734-.9484.964-.4133.23-.8655.344-1.3565.344-.7877 0-1.4253-.252-1.9127-.757-.4839-.506-.7259-1.233-.7259-2.183zm.9802 0c0 .72.1572 1.261.4716 1.621.3144.357.71.535 1.1868.535.4734 0 .8672-.18 1.1816-.54.3144-.361.4716-.91.4716-1.648 0-.696-.159-1.222-.4769-1.579-.3144-.36-.7065-.541-1.1763-.541-.4768 0-.8724.179-1.1868.536-.3144.356-.4716.895-.4716 1.616zm5.485 2.813v-5.627h.8531v.79c.1766-.276.4115-.497.7047-.663.2932-.169.627-.254 1.0014-.254.4168 0 .7577.087 1.0226.26.2685.173.4574.415.5669.725.4451-.657 1.0244-.985 1.738-.985.5581 0 .9872.155 1.2875.466.3002.308.4504.783.4504 1.426v3.862h-.9485v-3.545c0-.381-.0318-.655-.0953-.821-.0601-.169-.1714-.305-.3339-.408-.1624-.102-.3532-.153-.5722-.153-.3956 0-.7241.132-.9855.397-.2614.261-.3921.682-.3921 1.261v3.269h-.9537v-3.656c0-.424-.0777-.742-.2332-.954-.1554-.211-.4097-.317-.7629-.317-.2685 0-.5175.07-.7471.211-.2261.142-.3904.348-.4928.62s-.1537.664-.1537 1.177v2.919zm8.7542-2.813c0-1.042.2896-1.814.869-2.316.4839-.417 1.0738-.625 1.7696-.625.7736 0 1.4059.254 1.8969.763.491.505.7365 1.204.7365 2.098 0 .724-.1095 1.295-.3285 1.712-.2155.413-.5316.734-.9484.964-.4133.23-.8655.344-1.3565.344-.7877 0-1.4252-.252-1.9127-.757-.4839-.506-.7259-1.233-.7259-2.183zm.9802 0c0 .72.1572 1.261.4716 1.621.3144.357.71.535 1.1868.535.4734 0 .8672-.18 1.1816-.54.3144-.361.4716-.91.4716-1.648 0-.696-.159-1.222-.4769-1.579-.3144-.36-.7065-.541-1.1763-.541-.4768 0-.8724.179-1.1868.536-.3144.356-.4716.895-.4716 1.616zm7.5673 1.96.1378.843c-.2685.056-.5087.084-.7206.084-.3462 0-.6146-.054-.8054-.164-.1907-.109-.3249-.252-.4027-.429-.0777-.18-.1165-.556-.1165-1.129v-3.237h-.6994v-.742h.6994v-1.393l.9484-.573v1.966h.959v.742h-.959v3.29c0 .272.0159.447.0477.525.0353.078.0901.139.1642.185.0778.046.1873.069.3286.069.1059 0 .2454-.012.4185-.037zm1.0131-5.818v-1.096h.9537v1.096zm0 6.671v-5.627h.9537v5.627zm2.1258-2.813c0-1.042.2896-1.814.8689-2.316.4839-.417 1.0738-.625 1.7697-.625.7736 0 1.4059.254 1.8969.763.491.505.7365 1.204.7365 2.098 0 .724-.1095 1.295-.3285 1.712-.2155.413-.5317.734-.9485.964-.4133.23-.8654.344-1.3564.344-.7877 0-1.4253-.252-1.9127-.757-.484-.506-.7259-1.233-.7259-2.183zm.9802 0c0 .72.1572 1.261.4715 1.621.3144.357.71.535 1.1869.535.4733 0 .8672-.18 1.1816-.54.3144-.361.4715-.91.4715-1.648 0-.696-.1589-1.222-.4768-1.579-.3144-.36-.7065-.541-1.1763-.541-.4769 0-.8725.179-1.1869.536-.3143.356-.4715.895-.4715 1.616zm5.485 2.813v-5.627h.8583v.8c.4133-.618 1.0103-.927 1.7909-.927.3391 0 .65.062.9326.185.2861.121.4998.279.6411.477s.2402.433.2967.705c.0353.177.053.486.053.927v3.46h-.9537v-3.423c0-.388-.0371-.678-.1113-.869-.0742-.194-.2067-.348-.3974-.461-.1872-.116-.408-.174-.6623-.174-.4062 0-.7577.128-1.0544.386-.2932.258-.4398.747-.4398 1.468v3.073zm-39.5618 9.277 1.0279.259c-.2154.845-.604 1.489-1.1656 1.934-.5581.442-1.2416.663-2.0505.663-.8372 0-1.5189-.17-2.0453-.509-.5228-.343-.9219-.837-1.1974-1.484-.272-.646-.408-1.34-.408-2.082 0-.809.1536-1.514.461-2.114.3108-.604.7506-1.062 1.3193-1.372.5722-.315 1.201-.472 1.8862-.472.7772 0 1.4306.198 1.9605.594.5298.395.899.951 1.1074 1.669l-1.012.238c-.1802-.565-.4416-.977-.7842-1.235-.3426-.257-.7736-.386-1.2928-.386-.597 0-1.0968.143-1.4995.429-.3992.286-.68.671-.8425 1.155-.1625.48-.2437.977-.2437 1.489 0 .66.0954 1.238.2861 1.732.1943.491.4945.859.9008 1.102.4062.244.8459.366 1.3193.366.5757 0 1.0632-.166 1.4624-.498.3991-.332.6693-.825.8106-1.478zm5.9195 2.029c-.3532.3-.6941.512-1.0226.636-.325.123-.6747.185-1.0491.185-.6182 0-1.0933-.15-1.4253-.45-.332-.304-.4981-.691-.4981-1.16 0-.276.0619-.527.1855-.753.1272-.229.2914-.413.4928-.551.2048-.138.4344-.242.6888-.312.1872-.05.4698-.098.8477-.144.7701-.091 1.337-.201 1.7008-.328.0036-.131.0053-.214.0053-.249 0-.389-.09-.662-.2702-.821-.2437-.216-.6058-.324-1.0862-.324-.4486 0-.7806.08-.9961.239-.2119.155-.3691.433-.4716.832l-.9325-.127c.0848-.4.2243-.721.4186-.965.1943-.247.4751-.436.8424-.567.3674-.134.793-.201 1.277-.201.4804 0 .8707.056 1.1709.17.3003.113.5211.256.6624.429.1413.169.2402.385.2967.646.0318.163.0477.456.0477.88v1.271c0 .887.0194 1.449.0582 1.685.0424.233.1237.458.2438.673h-.9961c-.0989-.198-.1625-.429-.1908-.694zm-.0795-2.13c-.3461.141-.8654.261-1.5577.36-.3921.057-.6694.12-.8319.191s-.2879.175-.3762.313c-.0883.134-.1324.284-.1324.45 0 .254.0953.466.2861.636.1943.169.4768.254.8477.254.3674 0 .6941-.079.9803-.238.2861-.163.4962-.383.6305-.663.1024-.215.1536-.533.1536-.953zm2.5179 2.824v-5.627h.8583v.8c.4133-.618 1.0103-.927 1.7909-.927.3391 0 .65.062.9326.185.2861.121.4998.279.6411.477s.2402.433.2967.705c.0353.177.053.486.053.927v3.46h-.9537v-3.423c0-.388-.0371-.678-.1113-.869-.0742-.194-.2067-.348-.3974-.461-.1872-.116-.408-.174-.6623-.174-.4062 0-.7577.128-1.0544.386-.2932.258-.4398.747-.4398 1.468v3.073zm9.7609 0v-.71c-.3568.558-.8813.837-1.5737.837-.4486 0-.8619-.123-1.2398-.371-.3745-.247-.6659-.591-.8743-1.033-.2049-.445-.3073-.955-.3073-1.531 0-.562.0936-1.07.2808-1.526.1872-.459.4681-.811.8425-1.054.3744-.244.793-.366 1.2557-.366.3391 0 .6411.072.9061.217.2649.142.4804.327.6464.557v-2.787h.9484v7.767zm-3.0149-2.808c0 .721.1519 1.259.4557 1.616s.6623.535 1.0756.535c.4168 0 .77-.169 1.0597-.509.2932-.342.4398-.863.4398-1.563 0-.77-.1484-1.335-.4451-1.695s-.6623-.541-1.0968-.541c-.4239 0-.7789.174-1.065.52-.2826.346-.4239.892-.4239 1.637zm5.4797-3.863v-1.096h.9538v1.096zm0 6.671v-5.627h.9538v5.627zm6.1315 0v-.71c-.3568.558-.8814.837-1.5737.837-.4486 0-.8619-.123-1.2398-.371-.3745-.247-.6659-.591-.8743-1.033-.2049-.445-.3073-.955-.3073-1.531 0-.562.0936-1.07.2808-1.526.1872-.459.468-.811.8425-1.054.3744-.244.793-.366 1.2557-.366.3391 0 .6411.072.9061.217.2649.142.4804.327.6464.557v-2.787h.9484v7.767zm-3.0149-2.808c0 .721.1519 1.259.4557 1.616s.6623.535 1.0756.535c.4168 0 .77-.169 1.0597-.509.2932-.342.4397-.863.4397-1.563 0-.77-.1483-1.335-.445-1.695s-.6623-.541-1.0968-.541c-.4239 0-.7789.174-1.065.52-.2826.346-.4239.892-.4239 1.637zm9.1463 2.114c-.3533.3-.6941.512-1.0226.636-.325.123-.6747.185-1.0491.185-.6182 0-1.0933-.15-1.4253-.45-.3321-.304-.4981-.691-.4981-1.16 0-.276.0618-.527.1855-.753.1271-.229.2914-.413.4927-.551.2049-.138.4345-.242.6888-.312.1872-.05.4698-.098.8478-.144.77-.091 1.337-.201 1.7008-.328.0035-.131.0053-.214.0053-.249 0-.389-.0901-.662-.2702-.821-.2438-.216-.6058-.324-1.0862-.324-.4486 0-.7807.08-.9961.239-.212.155-.3692.433-.4716.832l-.9325-.127c.0847-.4.2243-.721.4185-.965.1943-.247.4751-.436.8425-.567.3674-.134.793-.201 1.2769-.201.4804 0 .8708.056 1.171.17.3003.113.521.256.6623.429.1413.169.2402.385.2967.646.0318.163.0477.456.0477.88v1.271c0 .887.0194 1.449.0583 1.685.0424.233.1236.458.2437.673h-.9961c-.0989-.198-.1625-.429-.1907-.694zm-.0795-2.13c-.3462.141-.8654.261-1.5578.36-.3921.057-.6693.12-.8318.191s-.2879.175-.3762.313c-.0883.134-.1325.284-.1325.45 0 .254.0954.466.2861.636.1943.169.4769.254.8478.254.3674 0 .6941-.079.9802-.238.2861-.163.4963-.383.6305-.663.1025-.215.1537-.533.1537-.953zm4.6002 1.971.1377.843c-.2684.056-.5086.084-.7206.084-.3462 0-.6146-.054-.8054-.164-.1907-.109-.3249-.252-.4026-.429-.0778-.18-.1166-.556-.1166-1.129v-3.237h-.6994v-.742h.6994v-1.393l.9484-.573v1.966h.9591v.742h-.9591v3.29c0 .272.0159.447.0477.525.0353.078.0901.139.1643.185.0777.046.1872.069.3285.069.1059 0 .2455-.012.4186-.037zm4.8597-.959.9856.122c-.1555.576-.4434 1.023-.8637 1.34-.4204.318-.9573.477-1.6107.477-.8231 0-1.4766-.252-1.9605-.757-.4804-.509-.7206-1.221-.7206-2.136 0-.946.2437-1.681.7312-2.204s1.1198-.784 1.8969-.784c.7524 0 1.367.256 1.8438.768.4769.512.7153 1.233.7153 2.162 0 .057-.0017.141-.0053.254h-4.1964c.0354.619.2102 1.092.5246 1.42.3144.329.7065.493 1.1763.493.3497 0 .6481-.092.8954-.275.2473-.184.4433-.477.5881-.88zm-3.1314-1.542h3.142c-.0424-.473-.1625-.828-.3603-1.065-.3038-.367-.6976-.551-1.1815-.551-.438 0-.8072.147-1.1074.44-.2967.293-.461.685-.4928 1.176zm5.0082 1.675.9431-.149c.053.378.1996.668.4398.869.2437.201.5828.302 1.0173.302.438 0 .763-.088.9749-.265.2119-.18.3179-.39.3179-.63 0-.216-.0936-.385-.2808-.509-.1307-.085-.4557-.192-.9749-.323-.6994-.177-1.1851-.329-1.4571-.456-.2685-.131-.4733-.309-.6146-.535-.1378-.23-.2067-.482-.2067-.758 0-.25.0565-.482.1696-.694.1165-.215.2737-.394.4715-.535.1484-.109.3497-.201.6041-.275.2578-.078.5333-.117.8265-.117.4416 0 .8284.064 1.1604.191.3356.127.5828.3.7418.519.1589.215.2684.505.3285.869l-.9325.127c-.0424-.29-.1661-.516-.3709-.678-.2014-.163-.4875-.244-.8584-.244-.438 0-.7506.073-.9378.217-.1872.145-.2808.315-.2808.509 0 .124.0388.235.1165.334.0777.102.1996.187.3656.254.0954.036.3762.117.8425.244.6747.18 1.1445.328 1.4094.445.2684.113.4786.279.6305.498s.2278.491.2278.816c0 .318-.0936.618-.2808.901-.1837.279-.4504.496-.8001.651-.3497.152-.7453.228-1.1868.228-.7312 0-1.2893-.152-1.6743-.455-.3815-.304-.6253-.755-.7312-1.351z" fill="#2b333f"/><path d="m57.7629 399.859.8941-.119c.1027.507.2765.873.5216 1.098.2483.222.5497.333.904.333.4206 0 .7749-.146 1.063-.438.2915-.291.4372-.652.4372-1.082 0-.411-.1341-.749-.4024-1.014-.2682-.268-.6093-.402-1.0233-.402-.1688 0-.3791.033-.6308.099l.0993-.785c.0596.007.1077.01.1441.01.3808 0 .7236-.099 1.0282-.298.3047-.198.457-.505.457-.919 0-.328-.1109-.599-.3328-.814-.2219-.216-.5083-.323-.8593-.323-.3477 0-.6375.109-.8693.328-.2318.218-.3808.546-.4471.983l-.8941-.159c.1093-.599.3576-1.063.7451-1.391.3875-.331.8693-.496 1.4455-.496.3974 0 .7633.086 1.0978.258.3344.169.5894.401.7649.695.1789.295.2683.608.2683.939 0 .315-.0845.601-.2533.859-.1689.259-.419.464-.7501.616.4305.1.765.307 1.0034.621.2384.312.3576.702.3576 1.173 0 .635-.2318 1.175-.6954 1.619-.4636.44-1.0498.661-1.7584.661-.6392 0-1.1707-.191-1.5945-.572-.4206-.38-.6607-.874-.7203-1.48zm10.4268 1.063v.859h-4.8133c-.0066-.215.0281-.422.1043-.62.1225-.328.3179-.651.5861-.969.2716-.318.6624-.686 1.1723-1.103.7915-.649 1.3263-1.162 1.6045-1.54.2782-.381.4172-.74.4172-1.078 0-.354-.1275-.652-.3824-.894-.2517-.245-.5812-.367-.9885-.367-.4305 0-.775.129-1.0333.387s-.3891.616-.3924 1.073l-.9189-.094c.0629-.686.2997-1.207.7103-1.565.4106-.361.962-.541 1.6541-.541.6988 0 1.2518.193 1.6591.581.4073.387.611.867.611 1.44 0 .292-.0596.578-.1788.86-.1192.281-.3179.577-.5961.889-.2749.311-.7335.738-1.376 1.281-.5364.451-.8808.757-1.0332.919-.1523.159-.2781.32-.3775.482zm4.4015.859h-.8941v-5.697c-.2153.205-.4984.411-.8494.616-.3478.205-.6607.359-.9389.462v-.864c.5001-.236.9372-.52 1.3114-.855.3742-.334.6391-.659.7948-.973h.5762z" fill="#8d95a1"/><path clip-rule="evenodd" d="m69.7118 318.873h-6.8986c-1.7 0-3.0782-1.384-3.0782-3.084 0-1.703 1.3786-3.083 3.0782-3.083h14.9463c1.3817 0 2.4996 1.117 2.4996 2.494v14.98c0 1.703-1.3818 3.083-3.0786 3.083-1.7003 0-3.0786-1.381-3.0786-3.083v-6.975l-16.5553 16.555c-1.2023 1.202-3.1556 1.198-4.3574-.004-1.2042-1.204-1.2027-3.158-.0035-4.357zm-28.4115-7.161c0-2.761 2.235-5 4.9947-5h39.9577c2.7585 0 4.9948 2.234 4.9948 5v29.958c0 2.761-2.2351 5-4.9948 5h-39.9577c-2.7585 0-4.9947-2.234-4.9947-5z" fill="#000" fill-rule="evenodd"/><rect fill="#eaeaea" height="139.033" rx="4.06925" width="110.548" x="11" y="125.602"/><path d="m60.118 214.952 2.983-7.768h1.1074l3.1791 7.768h-1.171l-.906-2.353h-3.248l-.8531 2.353zm2.2412-3.19h2.6334l-.8107-2.151c-.2473-.653-.4309-1.19-.551-1.611-.0989.498-.2385.993-.4186 1.484zm5.7764 3.19v-7.768h.9538v7.768zm2.4861 0v-7.768h.9537v7.768zm-26.4067 12v-7.768h1.5472l1.8386 5.5c.1695.512.2932.896.3709 1.15.0883-.283.226-.698.4133-1.245l1.8597-5.405h1.3829v7.768h-.9908v-6.501l-2.2571 6.501h-.9273l-2.2465-6.613v6.613zm12.8712-1.812.9855.122c-.1554.575-.4433 1.022-.8637 1.34-.4203.318-.9572.477-1.6107.477-.8231 0-1.4765-.252-1.9605-.758-.4804-.508-.7206-1.22-.7206-2.135 0-.947.2438-1.681.7312-2.204.4875-.523 1.1198-.784 1.8969-.784.7524 0 1.367.256 1.8439.768.4768.512.7153 1.233.7153 2.162 0 .056-.0018.141-.0053.254h-4.1964c.0353.618.2101 1.092.5245 1.42.3144.329.7065.493 1.1763.493.3497 0 .6482-.092.8954-.276.2473-.183.4433-.476.5882-.879zm-3.1315-1.542h3.142c-.0423-.473-.1624-.828-.3602-1.065-.3038-.367-.6977-.551-1.1816-.551-.438 0-.8072.147-1.1074.44-.2967.293-.461.685-.4928 1.176zm5.3897 3.354v-5.627h.853v.789c.1766-.275.4115-.496.7047-.662.2932-.169.627-.254 1.0014-.254.4169 0 .7577.086 1.0227.259.2684.173.4574.415.5669.726.4451-.657 1.0244-.985 1.7379-.985.5581 0 .9873.155 1.2875.466.3003.307.4504.782.4504 1.425v3.863h-.9484v-3.545c0-.381-.0318-.655-.0954-.821-.06-.17-.1713-.306-.3338-.408s-.3532-.154-.5722-.154c-.3957 0-.7242.133-.9856.398-.2614.261-.392.681-.392 1.261v3.269h-.9538v-3.656c0-.424-.0777-.742-.2331-.954s-.4098-.318-.763-.318c-.2685 0-.5175.071-.7471.212-.2261.142-.3903.348-.4927.62-.1025.272-.1537.664-.1537 1.176v2.92zm9.9887 0h-.8849v-7.768h.9538v2.771c.4027-.505.9166-.757 1.5418-.757.3462 0 .673.07.9803.212.3108.137.5651.333.7629.588.2014.251.3586.554.4716.911s.1696.738.1696 1.145c0 .964-.2385 1.709-.7153 2.236-.4769.526-1.0491.789-1.7167.789-.6641 0-1.1851-.277-1.5631-.832zm-.0106-2.856c0 .675.0918 1.162.2755 1.462.3003.491.7065.737 1.2187.737.4168 0 .7771-.18 1.0809-.541.3038-.363.4556-.904.4556-1.621 0-.735-.1466-1.277-.4397-1.627-.2897-.349-.6412-.524-1.0544-.524-.4168 0-.7771.182-1.0809.546-.3038.36-.4557.883-.4557 1.568zm9.0933 1.044.9855.122c-.1554.575-.4433 1.022-.8637 1.34-.4203.318-.9572.477-1.6107.477-.823 0-1.4765-.252-1.9604-.758-.4804-.508-.7206-1.22-.7206-2.135 0-.947.2437-1.681.7312-2.204.4874-.523 1.1197-.784 1.8968-.784.7524 0 1.367.256 1.8439.768s.7153 1.233.7153 2.162c0 .056-.0018.141-.0053.254h-4.1964c.0353.618.2102 1.092.5245 1.42.3144.329.7065.493 1.1763.493.3497 0 .6482-.092.8954-.276.2473-.183.4434-.476.5882-.879zm-3.1314-1.542h3.142c-.0424-.473-.1625-.828-.3603-1.065-.3038-.367-.6977-.551-1.1816-.551-.438 0-.8071.147-1.1074.44-.2967.293-.4609.685-.4927 1.176zm5.379 3.354v-5.627h.8584v.853c.219-.399.4203-.662.604-.79.1872-.127.3921-.19.6146-.19.3215 0 .6482.102.9802.307l-.3285.885c-.2331-.138-.4662-.207-.6994-.207-.2084 0-.3956.064-.5616.191-.166.124-.2844.297-.355.519-.106.339-.159.71-.159 1.113v2.946zm3.3126-1.68.9432-.148c.0529.378.1995.668.4397.869.2438.201.5829.302 1.0173.302.4381 0 .763-.088.975-.265.2119-.18.3179-.39.3179-.631 0-.215-.0936-.385-.2808-.508-.1307-.085-.4557-.193-.975-.323-.6994-.177-1.1851-.329-1.4571-.456-.2684-.131-.4733-.309-.6146-.535-.1377-.23-.2066-.482-.2066-.758 0-.251.0565-.482.1695-.694.1166-.215.2738-.394.4716-.535.1484-.11.3497-.202.604-.276.2579-.077.5334-.116.8266-.116.4415 0 .8283.063 1.1604.19.3355.128.5828.301.7418.52.1589.215.2684.505.3285.869l-.9326.127c-.0424-.29-.166-.516-.3709-.678-.2013-.163-.4874-.244-.8583-.244-.438 0-.7506.072-.9379.217-.1872.145-.2808.315-.2808.509 0 .123.0389.235.1166.334.0777.102.1996.187.3656.254.0954.035.3762.117.8424.244.6747.18 1.1445.328 1.4094.445.2685.113.4787.279.6306.498s.2278.491.2278.816c0 .318-.0936.618-.2808.901-.1837.279-.4504.496-.8001.651-.3497.152-.7453.228-1.1869.228-.7312 0-1.2893-.152-1.6743-.456-.3815-.303-.6252-.754-.7312-1.351z" fill="#2b333f"/><path d="m57.7629 243.193.8941-.119c.1027.506.2765.872.5216 1.097.2483.222.5497.333.904.333.4206 0 .7749-.145 1.063-.437.2915-.291.4372-.652.4372-1.083 0-.41-.1341-.748-.4024-1.013-.2682-.268-.6093-.402-1.0233-.402-.1688 0-.3791.033-.6308.099l.0993-.785c.0596.007.1077.01.1441.01.3808 0 .7236-.099 1.0282-.298.3047-.199.457-.505.457-.919 0-.328-.1109-.599-.3328-.815-.2219-.215-.5083-.323-.8593-.323-.3477 0-.6375.11-.8693.328-.2318.219-.3808.547-.4471.984l-.8941-.159c.1093-.599.3576-1.063.7451-1.391.3875-.331.8693-.497 1.4455-.497.3974 0 .7633.086 1.0978.259.3344.168.5894.4.7649.695.1789.295.2683.608.2683.939 0 .314-.0845.601-.2533.859-.1689.259-.419.464-.7501.616.4305.1.765.306 1.0034.621.2384.311.3576.702.3576 1.172 0 .636-.2318 1.176-.6954 1.62-.4636.44-1.0498.66-1.7584.66-.6392 0-1.1707-.19-1.5945-.571-.4206-.381-.6607-.874-.7203-1.48zm10.4268 1.063v.859h-4.8133c-.0066-.215.0281-.422.1043-.621.1225-.328.3179-.65.5861-.968.2716-.318.6624-.686 1.1723-1.103.7915-.649 1.3263-1.162 1.6045-1.54.2782-.381.4172-.74.4172-1.078 0-.354-.1275-.652-.3824-.894-.2517-.245-.5812-.368-.9885-.368-.4305 0-.775.13-1.0333.388s-.3891.616-.3924 1.073l-.9189-.095c.0629-.685.2997-1.207.7103-1.564.4106-.361.962-.542 1.6541-.542.6988 0 1.2518.194 1.6591.581.4073.388.611.868.611 1.441 0 .291-.0596.578-.1788.859-.1192.282-.3179.578-.5961.89-.2749.311-.7335.738-1.376 1.281-.5364.45-.8808.757-1.0332.919-.1523.159-.2781.32-.3775.482zm4.4015.859h-.8941v-5.697c-.2153.205-.4984.41-.8494.616-.3478.205-.6607.359-.9389.462v-.865c.5001-.235.9372-.52 1.3114-.854.3742-.335.6391-.659.7948-.974h.5762z" fill="#8d95a1"/><path d="m76.6525 167.441c4.3072 0 7.7581-3.477 7.7581-7.784s-3.4509-7.784-7.7581-7.784c-4.3071 0-7.7839 3.477-7.7839 7.784s3.4768 7.784 7.7839 7.784zm-20.7572 0c4.3071 0 7.758-3.477 7.758-7.784s-3.4509-7.784-7.758-7.784c-4.3072 0-7.784 3.477-7.784 7.784s3.4768 7.784 7.784 7.784zm0 5.189c-6.0456 0-18.1626 3.036-18.1626 9.082v6.486h36.3252v-6.486c0-6.046-12.1171-9.082-18.1626-9.082zm20.7572 0c-.7524 0-1.6087.052-2.5168.13 3.0098 2.18 5.1115 5.112 5.1115 8.952v6.486h15.5679v-6.486c0-6.046-12.117-9.082-18.1626-9.082z" fill="#000"/><rect fill="#eaeaea" height="139.033" rx="4.06925" width="110.548" x="133.077" y="282.268"/><path d="m165.669 371.619v-7.767h2.676c.604 0 1.065.037 1.383.111.445.102.825.288 1.139.556.41.346.715.79.917 1.33.205.537.307 1.152.307 1.844 0 .59-.069 1.113-.207 1.568-.137.456-.314.834-.529 1.134-.216.297-.453.532-.71.705-.255.169-.564.298-.928.387-.36.088-.775.132-1.245.132zm1.028-.916h1.659c.512 0 .913-.048 1.202-.144.294-.095.527-.229.7-.402.244-.244.433-.571.567-.98.138-.414.206-.914.206-1.5 0-.812-.134-1.436-.402-1.87-.265-.438-.588-.732-.97-.88-.275-.106-.719-.159-1.33-.159h-1.632zm10.614-.896.986.122c-.156.576-.444 1.023-.864 1.34-.42.318-.957.477-1.611.477-.823 0-1.476-.252-1.96-.757-.481-.509-.721-1.221-.721-2.136 0-.946.244-1.681.731-2.204.488-.523 1.12-.784 1.897-.784.753 0 1.367.256 1.844.768s.716 1.233.716 2.162c0 .057-.002.141-.006.254h-4.196c.035.619.21 1.092.524 1.42.315.329.707.493 1.177.493.349 0 .648-.092.895-.275.247-.184.443-.477.588-.88zm-3.131-1.542h3.142c-.043-.473-.163-.828-.361-1.065-.303-.367-.697-.551-1.181-.551-.438 0-.807.147-1.107.44-.297.293-.461.685-.493 1.176zm5.389 3.354v-5.627h.853v.79c.177-.276.412-.497.705-.663.293-.169.627-.254 1.002-.254.416 0 .757.087 1.022.26.269.173.458.415.567.725.445-.657 1.025-.985 1.738-.985.558 0 .987.155 1.288.466.3.308.45.783.45 1.426v3.862h-.948v-3.545c0-.381-.032-.655-.096-.821-.06-.169-.171-.305-.334-.408-.162-.102-.353-.153-.572-.153-.396 0-.724.132-.985.397-.262.261-.393.682-.393 1.261v3.269h-.953v-3.656c0-.424-.078-.742-.233-.954-.156-.211-.41-.317-.763-.317-.269 0-.518.07-.747.211-.227.142-.391.348-.493.62-.103.272-.154.664-.154 1.177v2.919zm8.755-2.813c0-1.042.289-1.814.869-2.316.483-.417 1.073-.625 1.769-.625.774 0 1.406.254 1.897.763.491.505.737 1.204.737 2.098 0 .724-.11 1.295-.329 1.712-.215.413-.532.734-.948.964-.414.23-.866.344-1.357.344-.787 0-1.425-.252-1.913-.757-.483-.506-.725-1.233-.725-2.183zm.98 0c0 .72.157 1.261.471 1.621.315.357.71.535 1.187.535.474 0 .867-.18 1.182-.54.314-.361.471-.91.471-1.648 0-.696-.159-1.222-.476-1.579-.315-.36-.707-.541-1.177-.541-.477 0-.872.179-1.187.536-.314.356-.471.895-.471 1.616zm7.567 1.96.138.843c-.269.056-.509.084-.721.084-.346 0-.614-.054-.805-.164-.191-.109-.325-.252-.403-.429-.077-.18-.116-.556-.116-1.129v-3.237h-.7v-.742h.7v-1.393l.948-.573v1.966h.959v.742h-.959v3.29c0 .272.016.447.048.525.035.078.09.139.164.185.078.046.187.069.329.069.106 0 .245-.012.418-.037zm1.013-5.818v-1.096h.954v1.096zm0 6.671v-5.627h.954v5.627zm2.126-2.813c0-1.042.29-1.814.869-2.316.484-.417 1.074-.625 1.77-.625.773 0 1.405.254 1.896.763.491.505.737 1.204.737 2.098 0 .724-.11 1.295-.329 1.712-.215.413-.531.734-.948.964-.413.23-.865.344-1.356.344-.788 0-1.426-.252-1.913-.757-.484-.506-.726-1.233-.726-2.183zm.98 0c0 .72.157 1.261.472 1.621.314.357.71.535 1.187.535.473 0 .867-.18 1.181-.54.315-.361.472-.91.472-1.648 0-.696-.159-1.222-.477-1.579-.315-.36-.707-.541-1.176-.541-.477 0-.873.179-1.187.536-.315.356-.472.895-.472 1.616zm5.485 2.813v-5.627h.859v.8c.413-.618 1.01-.927 1.79-.927.34 0 .65.062.933.185.286.121.5.279.641.477s.24.433.297.705c.035.177.053.486.053.927v3.46h-.954v-3.423c0-.388-.037-.678-.111-.869-.074-.194-.207-.348-.398-.461-.187-.116-.408-.174-.662-.174-.406 0-.758.128-1.054.386-.294.258-.44.747-.44 1.468v3.073zm-39.567 9.277 1.028.259c-.215.845-.604 1.489-1.166 1.934-.558.442-1.241.663-2.05.663-.837 0-1.519-.17-2.045-.509-.523-.343-.922-.837-1.198-1.484-.272-.646-.408-1.34-.408-2.082 0-.809.154-1.514.461-2.114.311-.604.751-1.062 1.319-1.372.573-.315 1.201-.472 1.887-.472.777 0 1.43.198 1.96.594.53.395.899.951 1.108 1.669l-1.012.238c-.181-.565-.442-.977-.785-1.235-.342-.257-.773-.386-1.292-.386-.597 0-1.097.143-1.5.429-.399.286-.68.671-.842 1.155-.163.48-.244.977-.244 1.489 0 .66.095 1.238.286 1.732.194.491.495.859.901 1.102.406.244.846.366 1.319.366.576 0 1.063-.166 1.462-.498.4-.332.67-.825.811-1.478zm5.92 2.029c-.354.3-.694.512-1.023.636-.325.123-.675.185-1.049.185-.618 0-1.093-.15-1.425-.45-.332-.304-.498-.691-.498-1.16 0-.276.061-.527.185-.753.127-.229.291-.413.493-.551.205-.138.434-.242.689-.312.187-.05.469-.098.847-.144.77-.091 1.337-.201 1.701-.328.004-.131.005-.214.005-.249 0-.389-.09-.662-.27-.821-.244-.216-.606-.324-1.086-.324-.449 0-.781.08-.996.239-.212.155-.369.433-.472.832l-.932-.127c.085-.4.224-.721.418-.965.195-.247.475-.436.843-.567.367-.134.793-.201 1.277-.201.48 0 .87.056 1.171.17.3.113.521.256.662.429.141.169.24.385.297.646.032.163.047.456.047.88v1.271c0 .887.02 1.449.059 1.685.042.233.123.458.243.673h-.996c-.099-.198-.162-.429-.19-.694zm-.08-2.13c-.346.141-.865.261-1.558.36-.392.057-.669.12-.831.191-.163.071-.288.175-.377.313-.088.134-.132.284-.132.45 0 .254.095.466.286.636.194.169.477.254.848.254.367 0 .694-.079.98-.238.286-.163.496-.383.63-.663.103-.215.154-.533.154-.953zm2.518 2.824v-5.627h.858v.8c.414-.618 1.011-.927 1.791-.927.339 0 .65.062.933.185.286.121.5.279.641.477s.24.433.297.705c.035.177.053.486.053.927v3.46h-.954v-3.423c0-.388-.037-.678-.111-.869-.075-.194-.207-.348-.398-.461-.187-.116-.408-.174-.662-.174-.406 0-.758.128-1.055.386-.293.258-.439.747-.439 1.468v3.073zm9.761 0v-.71c-.357.558-.881.837-1.574.837-.448 0-.862-.123-1.24-.371-.374-.247-.665-.591-.874-1.033-.205-.445-.307-.955-.307-1.531 0-.562.093-1.07.281-1.526.187-.459.468-.811.842-1.054.375-.244.793-.366 1.256-.366.339 0 .641.072.906.217.265.142.48.327.646.557v-2.787h.949v7.767zm-3.015-2.808c0 .721.152 1.259.456 1.616.303.357.662.535 1.075.535.417 0 .77-.169 1.06-.509.293-.342.44-.863.44-1.563 0-.77-.149-1.335-.445-1.695-.297-.36-.663-.541-1.097-.541-.424 0-.779.174-1.065.52-.283.346-.424.892-.424 1.637zm5.48-3.863v-1.096h.953v1.096zm0 6.671v-5.627h.953v5.627zm6.131 0v-.71c-.357.558-.881.837-1.574.837-.448 0-.861-.123-1.239-.371-.375-.247-.666-.591-.875-1.033-.204-.445-.307-.955-.307-1.531 0-.562.094-1.07.281-1.526.187-.459.468-.811.842-1.054.375-.244.793-.366 1.256-.366.339 0 .641.072.906.217.265.142.481.327.647.557v-2.787h.948v7.767zm-3.015-2.808c0 .721.152 1.259.456 1.616s.662.535 1.076.535c.416 0 .77-.169 1.059-.509.293-.342.44-.863.44-1.563 0-.77-.148-1.335-.445-1.695s-.662-.541-1.097-.541c-.424 0-.779.174-1.065.52-.282.346-.424.892-.424 1.637zm9.147 2.114c-.354.3-.695.512-1.023.636-.325.123-.675.185-1.049.185-.618 0-1.093-.15-1.425-.45-.332-.304-.499-.691-.499-1.16 0-.276.062-.527.186-.753.127-.229.291-.413.493-.551.205-.138.434-.242.689-.312.187-.05.469-.098.847-.144.77-.091 1.337-.201 1.701-.328.004-.131.005-.214.005-.249 0-.389-.09-.662-.27-.821-.244-.216-.606-.324-1.086-.324-.449 0-.781.08-.996.239-.212.155-.369.433-.472.832l-.932-.127c.085-.4.224-.721.418-.965.195-.247.475-.436.843-.567.367-.134.793-.201 1.277-.201.48 0 .87.056 1.171.17.3.113.521.256.662.429.141.169.24.385.297.646.032.163.047.456.047.88v1.271c0 .887.02 1.449.059 1.685.042.233.123.458.243.673h-.996c-.099-.198-.162-.429-.19-.694zm-.08-2.13c-.346.141-.865.261-1.558.36-.392.057-.669.12-.832.191-.162.071-.287.175-.376.313-.088.134-.132.284-.132.45 0 .254.095.466.286.636.194.169.477.254.848.254.367 0 .694-.079.98-.238.286-.163.496-.383.63-.663.103-.215.154-.533.154-.953zm4.6 1.971.138.843c-.268.056-.509.084-.721.084-.346 0-.614-.054-.805-.164-.191-.109-.325-.252-.403-.429-.077-.18-.116-.556-.116-1.129v-3.237h-.7v-.742h.7v-1.393l.948-.573v1.966h.959v.742h-.959v3.29c0 .272.016.447.048.525.035.078.09.139.164.185.078.046.187.069.329.069.106 0 .245-.012.418-.037zm4.86-.959.986.122c-.156.576-.444 1.023-.864 1.34-.42.318-.957.477-1.611.477-.823 0-1.476-.252-1.96-.757-.481-.509-.721-1.221-.721-2.136 0-.946.244-1.681.731-2.204.488-.523 1.12-.784 1.897-.784.753 0 1.367.256 1.844.768s.715 1.233.715 2.162c0 .057-.001.141-.005.254h-4.196c.035.619.21 1.092.524 1.42.315.329.707.493 1.176.493.35 0 .649-.092.896-.275.247-.184.443-.477.588-.88zm-3.131-1.542h3.142c-.043-.473-.163-.828-.361-1.065-.303-.367-.697-.551-1.181-.551-.438 0-.807.147-1.108.44-.296.293-.461.685-.492 1.176zm5.008 1.675.943-.149c.053.378.199.668.44.869.243.201.582.302 1.017.302.438 0 .763-.088.975-.265.212-.18.318-.39.318-.63 0-.216-.094-.385-.281-.509-.131-.085-.456-.192-.975-.323-.699-.177-1.185-.329-1.457-.456-.268-.131-.473-.309-.615-.535-.137-.23-.206-.482-.206-.758 0-.25.056-.482.169-.694.117-.215.274-.394.472-.535.148-.109.35-.201.604-.275.258-.078.533-.117.826-.117.442 0 .829.064 1.161.191.335.127.583.3.742.519.159.215.268.505.328.869l-.932.127c-.043-.29-.166-.516-.371-.678-.202-.163-.488-.244-.859-.244-.438 0-.75.073-.938.217-.187.145-.28.315-.28.509 0 .124.039.235.116.334.078.102.2.187.366.254.095.036.376.117.842.244.675.18 1.145.328 1.41.445.268.113.478.279.63.498s.228.491.228.816c0 .318-.094.618-.281.901-.183.279-.45.496-.8.651-.35.152-.745.228-1.187.228-.731 0-1.289-.152-1.674-.455-.382-.304-.625-.755-.731-1.351z" fill="#2b333f"/><path d="m179.84 399.859.894-.119c.103.507.277.873.522 1.098.248.222.55.333.904.333.421 0 .775-.146 1.063-.438.291-.291.437-.652.437-1.082 0-.411-.134-.749-.402-1.014-.268-.268-.61-.402-1.023-.402-.169 0-.38.033-.631.099l.099-.785c.06.007.108.01.144.01.381 0 .724-.099 1.028-.298.305-.198.457-.505.457-.919 0-.328-.111-.599-.332-.814-.222-.216-.509-.323-.86-.323-.348 0-.637.109-.869.328-.232.218-.381.546-.447.983l-.894-.159c.109-.599.357-1.063.745-1.391.387-.331.869-.496 1.445-.496.398 0 .764.086 1.098.258.335.169.59.401.765.695.179.295.268.608.268.939 0 .315-.084.601-.253.859-.169.259-.419.464-.75.616.43.1.765.307 1.003.621.239.312.358.702.358 1.173 0 .635-.232 1.175-.696 1.619-.463.44-1.049.661-1.758.661-.639 0-1.171-.191-1.594-.572-.421-.38-.661-.874-.721-1.48zm10.427 1.063v.859h-4.813c-.007-.215.028-.422.104-.62.123-.328.318-.651.586-.969.272-.318.663-.686 1.173-1.103.791-.649 1.326-1.162 1.604-1.54.278-.381.417-.74.417-1.078 0-.354-.127-.652-.382-.894-.252-.245-.581-.367-.989-.367-.43 0-.775.129-1.033.387s-.389.616-.392 1.073l-.919-.094c.063-.686.299-1.207.71-1.565.411-.361.962-.541 1.654-.541.699 0 1.252.193 1.659.581.408.387.611.867.611 1.44 0 .292-.059.578-.179.86-.119.281-.318.577-.596.889-.275.311-.733.738-1.376 1.281-.536.451-.881.757-1.033.919-.152.159-.278.32-.377.482zm4.402.859h-.895v-5.697c-.215.205-.498.411-.849.616-.348.205-.661.359-.939.462v-.864c.5-.236.937-.52 1.312-.855.374-.334.639-.659.794-.973h.577z" fill="#8d95a1"/><path clip-rule="evenodd" d="m191.789 334.509h-6.899c-1.7 0-3.078 1.384-3.078 3.083 0 1.703 1.379 3.084 3.078 3.084h14.947c1.381 0 2.499-1.117 2.499-2.494v-14.98c0-1.703-1.382-3.083-3.078-3.083-1.701 0-3.079 1.381-3.079 3.083v6.975l-16.555-16.555c-1.203-1.202-3.156-1.198-4.358.003-1.204 1.205-1.202 3.158-.003 4.358zm-28.412 7.161c0 2.761 2.235 5 4.995 5h39.958c2.758 0 4.995-2.234 4.995-5v-29.958c0-2.761-2.235-5-4.995-5h-39.958c-2.758 0-4.995 2.234-4.995 5z" fill="#000" fill-rule="evenodd"/><rect fill="#eaeaea" height="139.033" rx="4.06925" width="110.548" x="133.077" y="125.602"/><path d="m182.195 214.952 2.983-7.768h1.108l3.179 7.768h-1.171l-.906-2.353h-3.248l-.853 2.353zm2.242-3.19h2.633l-.811-2.151c-.247-.653-.431-1.19-.551-1.611-.099.498-.238.993-.418 1.484zm5.776 3.19v-7.768h.954v7.768zm2.486 0v-7.768h.954v7.768zm-35.003 12v-7.768h2.914c.594 0 1.069.08 1.426.239.36.155.641.397.842.726.205.325.307.665.307 1.022 0 .332-.09.645-.27.938s-.452.53-.816.71c.47.138.83.373 1.081.705.254.332.382.724.382 1.176 0 .364-.078.703-.234 1.017-.151.311-.34.551-.566.721-.227.17-.511.298-.854.387-.339.085-.755.127-1.25.127zm1.028-4.504h1.68c.455 0 .782-.03.98-.09.261-.078.457-.207.588-.387.134-.18.201-.406.201-.678 0-.258-.061-.484-.185-.678-.124-.198-.3-.332-.53-.403-.23-.074-.623-.111-1.181-.111h-1.553zm0 3.587h1.934c.332 0 .565-.012.699-.037.237-.042.435-.113.594-.212s.29-.242.392-.429c.102-.191.154-.41.154-.657 0-.29-.075-.54-.223-.752-.148-.216-.355-.366-.62-.451-.261-.088-.639-.132-1.134-.132h-1.796zm6.179.917v-7.768h.954v7.768zm2.152-2.814c0-1.042.29-1.813.869-2.315.484-.417 1.074-.625 1.77-.625.774 0 1.406.254 1.897.763.491.505.736 1.204.736 2.098 0 .724-.109 1.295-.328 1.711-.216.414-.532.735-.949.965-.413.229-.865.344-1.356.344-.788 0-1.425-.252-1.913-.758-.484-.505-.726-1.232-.726-2.183zm.981 0c0 .721.157 1.261.471 1.622.315.357.71.535 1.187.535.473 0 .867-.18 1.182-.541.314-.36.471-.909.471-1.647 0-.696-.159-1.223-.477-1.579-.314-.361-.706-.541-1.176-.541-.477 0-.872.179-1.187.535-.314.357-.471.896-.471 1.616zm9.157.753.937.122c-.102.646-.365 1.153-.789 1.52-.42.364-.938.546-1.553.546-.77 0-1.39-.251-1.859-.752-.467-.505-.7-1.228-.7-2.167 0-.608.101-1.14.302-1.595.202-.456.507-.797.917-1.023.413-.229.862-.344 1.346-.344.611 0 1.111.155 1.499.466.389.307.638.745.747 1.314l-.927.143c-.088-.378-.245-.662-.472-.853-.222-.191-.492-.286-.81-.286-.481 0-.871.173-1.171.519-.3.343-.451.887-.451 1.632 0 .756.145 1.305.435 1.648s.668.514 1.134.514c.374 0 .687-.115.938-.345.25-.229.409-.582.477-1.059zm1.829 2.061v-7.768h.953v4.43l2.257-2.289h1.235l-2.151 2.088 2.368 3.539h-1.176l-1.86-2.877-.673.646v2.231zm5.49 0v-5.627h.853v.789c.177-.275.411-.496.705-.662.293-.169.627-.254 1.001-.254.417 0 .758.086 1.023.259.268.173.457.415.567.726.445-.657 1.024-.985 1.737-.985.559 0 .988.155 1.288.466.3.307.45.782.45 1.425v3.863h-.948v-3.545c0-.381-.032-.655-.095-.821-.06-.17-.172-.306-.334-.408-.163-.102-.353-.154-.572-.154-.396 0-.725.133-.986.398-.261.261-.392.681-.392 1.261v3.269h-.954v-3.656c0-.424-.078-.742-.233-.954s-.41-.318-.763-.318c-.268 0-.517.071-.747.212-.226.142-.39.348-.493.62-.102.272-.153.664-.153 1.176v2.92zm12.781-.694c-.353.3-.694.512-1.023.636-.325.123-.674.185-1.049.185-.618 0-1.093-.15-1.425-.45-.332-.304-.498-.691-.498-1.161 0-.275.062-.526.185-.752.127-.23.292-.413.493-.551.205-.138.435-.242.689-.313.187-.049.47-.097.848-.143.77-.092 1.337-.201 1.7-.328.004-.131.006-.214.006-.249 0-.389-.09-.663-.271-.822-.243-.215-.605-.323-1.086-.323-.448 0-.78.08-.996.239-.212.155-.369.432-.471.832l-.933-.128c.085-.399.224-.72.419-.964.194-.247.475-.436.842-.567.367-.134.793-.201 1.277-.201.48 0 .871.056 1.171.169s.521.256.662.429c.142.17.241.385.297.647.032.162.048.456.048.879v1.272c0 .887.019 1.448.058 1.685.042.233.124.457.244.673h-.996c-.099-.198-.163-.429-.191-.694zm-.08-2.13c-.346.141-.865.261-1.557.36-.392.057-.67.12-.832.191-.163.07-.288.175-.376.312-.089.135-.133.285-.133.451 0 .254.096.466.286.636.195.169.477.254.848.254.367 0 .694-.079.98-.238.286-.163.497-.384.631-.663.102-.215.153-.533.153-.953zm2.524 2.824v-7.768h.953v4.43l2.257-2.289h1.235l-2.151 2.088 2.368 3.539h-1.176l-1.86-2.877-.673.646v2.231zm9.342-1.812.985.122c-.155.575-.443 1.022-.863 1.34-.421.318-.958.477-1.611.477-.823 0-1.477-.252-1.96-.758-.481-.508-.721-1.22-.721-2.135 0-.947.244-1.681.731-2.204.488-.523 1.12-.784 1.897-.784.752 0 1.367.256 1.844.768s.715 1.233.715 2.162c0 .056-.002.141-.005.254h-4.197c.036.618.211 1.092.525 1.42.314.329.706.493 1.176.493.35 0 .648-.092.896-.276.247-.183.443-.476.588-.879zm-3.132-1.542h3.142c-.042-.473-.162-.828-.36-1.065-.304-.367-.697-.551-1.181-.551-.438 0-.808.147-1.108.44-.297.293-.461.685-.493 1.176zm5.379 3.354v-5.627h.859v.853c.219-.399.42-.662.604-.79.187-.127.392-.19.614-.19.322 0 .649.102.981.307l-.329.885c-.233-.138-.466-.207-.699-.207-.209 0-.396.064-.562.191-.166.124-.284.297-.355.519-.106.339-.159.71-.159 1.113v2.946zm3.313-1.68.943-.148c.053.378.2.668.44.869.244.201.583.302 1.017.302.438 0 .763-.088.975-.265.212-.18.318-.39.318-.631 0-.215-.093-.385-.281-.508-.13-.085-.455-.193-.975-.323-.699-.177-1.185-.329-1.457-.456-.268-.131-.473-.309-.614-.535-.138-.23-.207-.482-.207-.758 0-.251.057-.482.17-.694.116-.215.273-.394.471-.535.149-.11.35-.202.604-.276.258-.077.534-.116.827-.116.441 0 .828.063 1.16.19.336.128.583.301.742.52.159.215.268.505.328.869l-.932.127c-.042-.29-.166-.516-.371-.678-.201-.163-.487-.244-.858-.244-.438 0-.751.072-.938.217s-.281.315-.281.509c0 .123.039.235.117.334.077.102.199.187.365.254.096.035.376.117.843.244.674.18 1.144.328 1.409.445.268.113.479.279.631.498.151.219.227.491.227.816 0 .318-.093.618-.28.901-.184.279-.451.496-.801.651-.349.152-.745.228-1.186.228-.732 0-1.29-.152-1.675-.456-.381-.303-.625-.754-.731-1.351z" fill="#2b333f"/><path d="m179.84 243.193.894-.119c.103.506.277.872.522 1.097.248.222.55.333.904.333.421 0 .775-.145 1.063-.437.291-.291.437-.652.437-1.083 0-.41-.134-.748-.402-1.013-.268-.268-.61-.402-1.023-.402-.169 0-.38.033-.631.099l.099-.785c.06.007.108.01.144.01.381 0 .724-.099 1.028-.298.305-.199.457-.505.457-.919 0-.328-.111-.599-.332-.815-.222-.215-.509-.323-.86-.323-.348 0-.637.11-.869.328-.232.219-.381.547-.447.984l-.894-.159c.109-.599.357-1.063.745-1.391.387-.331.869-.497 1.445-.497.398 0 .764.086 1.098.259.335.168.59.4.765.695.179.295.268.608.268.939 0 .314-.084.601-.253.859-.169.259-.419.464-.75.616.43.1.765.306 1.003.621.239.311.358.702.358 1.172 0 .636-.232 1.176-.696 1.62-.463.44-1.049.66-1.758.66-.639 0-1.171-.19-1.594-.571-.421-.381-.661-.874-.721-1.48zm10.427 1.063v.859h-4.813c-.007-.215.028-.422.104-.621.123-.328.318-.65.586-.968.272-.318.663-.686 1.173-1.103.791-.649 1.326-1.162 1.604-1.54.278-.381.417-.74.417-1.078 0-.354-.127-.652-.382-.894-.252-.245-.581-.368-.989-.368-.43 0-.775.13-1.033.388s-.389.616-.392 1.073l-.919-.095c.063-.685.299-1.207.71-1.564.411-.361.962-.542 1.654-.542.699 0 1.252.194 1.659.581.408.388.611.868.611 1.441 0 .291-.059.578-.179.859-.119.282-.318.578-.596.89-.275.311-.733.738-1.376 1.281-.536.45-.881.757-1.033.919-.152.159-.278.32-.377.482zm4.402.859h-.895v-5.697c-.215.205-.498.41-.849.616-.348.205-.661.359-.939.462v-.865c.5-.235.937-.52 1.312-.854.374-.335.639-.659.794-.974h.577z" fill="#8d95a1"/><path clip-rule="evenodd" d="m173.264 158.863 14.936-8.827h.302l14.936 8.827-15.087 8.902zm13.461 29.524-14.877-8.792-.171-.312v-17.594l15.048 8.879zm18.301-26.698v17.647l-.171.31-14.878 8.747v-17.825zm-18.043 30.7c.846.499 1.891.499 2.736 0l17.261-10.182c.843-.497 1.35-1.407 1.35-2.378v-20.364c0-.971-.507-1.88-1.35-2.377l-17.261-10.182c-.845-.499-1.89-.499-2.736 0l-17.261 10.182c-.843.497-1.35 1.406-1.35 2.377v20.364c0 .971.507 1.881 1.35 2.378z" fill="#000" fill-rule="evenodd"/></svg>