<svg width="591" height="110" viewBox="0 0 591 110" fill="none" xmlns="http://www.w3.org/2000/svg">
<g clip-path="url(#clip0_1054_25302)">
<path fill-rule="evenodd" clip-rule="evenodd" d="M234.421 55.8623C227.421 60.3968 220.103 61.3214 211.122 59.3154C204.591 57.8893 197.873 54.9272 191.373 52.0593L186.286 49.8443C176.946 45.8479 169.143 43.2986 161.491 44.0247L161.168 44.0665C144.895 45.9158 137.624 61.7812 137.869 64.7902C141.721 62.2827 146.48 60.4542 150.853 59.958C154.397 59.5505 158.223 59.8065 162.211 60.7102C168.768 62.1416 175.57 65.1506 182.147 68.0552L187.047 70.2023C196.382 74.2143 204.164 76.7427 211.842 76.0479L212.191 76.0061C229.662 74.2665 234.666 55.7004 234.421 55.8623Z" fill="white"/>
<path fill-rule="evenodd" clip-rule="evenodd" d="M50.0331 108.706C40.4739 108.706 31.3993 107.253 22.8043 104.354C14.2145 101.455 6.61501 97.1031 0.00585938 91.2993L16.4766 72.0174C27.1513 80.3706 38.6965 84.5446 51.1017 84.5446C55.063 84.5446 58.0913 83.9282 60.1762 82.6901C62.2611 81.4468 63.2984 79.6863 63.2984 77.4034V77.1056C63.2984 76.0138 63.043 75.0421 62.5374 74.2011C62.0318 73.36 61.0884 72.5398 59.7175 71.7458C58.3415 70.9517 56.5172 70.1838 54.229 69.442C51.9408 68.6949 48.9646 67.9218 45.3056 67.1277C39.6086 65.8374 34.3234 64.4269 29.4395 62.8858C24.5608 61.35 20.3128 59.3648 16.7059 56.9304C13.0938 54.5013 10.248 51.4713 8.16305 47.8511C6.07814 44.2309 5.0409 39.7382 5.0409 34.3784V34.0806C5.0409 29.217 5.97911 24.7505 7.86074 20.681C9.73715 16.6167 12.484 13.0905 16.0961 10.1128C19.703 7.13511 24.05 4.8261 29.1372 3.18576C34.2191 1.55064 39.9631 0.730469 46.3689 0.730469C55.5217 0.730469 63.6841 1.9111 70.8509 4.2619C78.0178 6.61271 84.5018 10.0867 90.2979 14.689L75.5003 35.1829C70.6216 31.8029 65.6126 29.2432 60.4785 27.5036C55.3444 25.764 50.3876 24.8915 45.6079 24.8915C42.048 24.8915 39.3793 25.5393 37.6019 26.8297C35.8193 28.12 34.9332 29.7081 34.9332 31.5887V31.8917C34.9332 33.0828 35.2147 34.1224 35.7724 35.0157C36.3301 35.909 37.2996 36.7292 38.6704 37.471C40.0412 38.2232 41.9229 38.9651 44.3101 39.7069C46.7025 40.4539 49.7256 41.2218 53.3898 42.0159C59.4882 43.301 65.0028 44.816 69.9336 46.5556C74.8696 48.2899 79.0602 50.4004 82.516 52.8818C85.9717 55.3632 88.6195 58.3618 90.449 61.888C92.2785 65.4143 93.1959 69.6039 93.1959 74.4675V74.7652C93.1959 80.1251 92.1534 84.8894 90.0685 89.0529C87.9836 93.2217 85.0595 96.774 81.2963 99.6995C77.5383 102.63 73.014 104.861 67.7236 106.397C62.4383 107.938 56.538 108.706 50.0331 108.706Z" fill="white"/>
<path fill-rule="evenodd" clip-rule="evenodd" d="M99.5332 3.99512H181.996V28.2607H127.56V82.674H179.166L179.114 106.94H99.5332V3.99512Z" fill="white"/>
<path fill-rule="evenodd" clip-rule="evenodd" d="M337.958 108.999C330.625 108.999 323.729 107.672 317.271 105.028C310.813 102.385 305.215 98.6811 300.472 93.9272C295.723 89.1682 291.96 83.5314 289.171 77.0119C286.383 70.4923 284.991 63.4085 284.991 55.7606V55.468C284.991 48.0186 286.357 41.0341 289.093 34.5145C291.835 27.9949 295.603 22.3059 300.393 17.4528C305.189 12.5997 310.891 8.80186 317.49 6.05403C324.094 3.31142 331.307 1.9375 339.136 1.9375C344.416 1.9375 349.206 2.44945 353.512 3.48381C357.817 4.50772 361.757 5.98089 365.323 7.89288C368.898 9.80487 372.125 12.0878 375.007 14.7311C377.895 17.3797 380.459 20.2738 382.716 23.4082L361.294 40.0258C358.354 36.3011 355.127 33.36 351.604 31.2025C348.08 29.0502 343.827 27.9688 338.839 27.9688C335.222 27.9688 331.917 28.6792 328.936 30.1002C325.949 31.5263 323.38 33.4592 321.232 35.9093C319.079 38.3594 317.396 41.2535 316.166 44.5864C314.946 47.9193 314.336 51.4507 314.336 55.1755V55.468C314.336 59.292 314.946 62.8966 316.166 66.2765C317.396 69.6617 319.079 72.5819 321.232 75.0267C323.38 77.482 325.949 79.4149 328.936 80.8358C331.917 82.262 335.222 82.9725 338.839 82.9725C341.482 82.9725 343.905 82.6747 346.105 82.0896C348.299 81.4993 350.306 80.6426 352.12 79.5142C353.929 78.391 355.643 77.0641 357.254 75.5439C358.87 74.0237 360.46 72.3364 362.023 70.4662L383.451 85.7621C381.001 89.095 378.332 92.1876 375.445 95.0295C372.568 97.8714 369.289 100.327 365.62 102.385C361.955 104.443 357.843 106.057 353.293 107.238C348.742 108.413 343.634 108.999 337.958 108.999Z" fill="white"/>
<path fill-rule="evenodd" clip-rule="evenodd" d="M435.412 83.265C439.337 83.265 442.923 82.5284 446.16 81.0605C449.397 79.5873 452.138 77.6022 454.395 75.0999C456.652 72.6028 458.414 69.6826 459.696 66.3496C460.968 63.0219 461.609 59.4905 461.609 55.7606V55.468C461.609 51.7433 460.968 48.2171 459.696 44.8789C458.414 41.5512 456.605 38.6049 454.249 36.0556C451.893 33.5062 449.1 31.4741 445.863 29.9539C442.626 28.4337 439.045 27.6762 435.126 27.6762C431.201 27.6762 427.641 28.4076 424.456 29.8808C421.266 31.3487 418.519 33.3338 416.215 35.8362C413.901 38.3385 412.145 41.2535 410.915 44.5864C409.69 47.9193 409.08 51.4507 409.08 55.1755V55.468C409.08 59.198 409.716 62.7242 410.988 66.0571C412.265 69.39 414.058 72.3364 416.361 74.8805C418.665 77.4298 421.438 79.4672 424.675 80.9873C427.912 82.5075 431.487 83.265 435.412 83.265ZM435.193 108.999C427.271 108.999 419.937 107.604 413.187 104.809C406.437 102.019 400.615 98.2162 395.726 93.4101C390.832 88.6092 386.99 82.9725 384.207 76.4999C381.418 70.0273 380.021 63.116 380.021 55.7606V55.468C380.021 48.1178 381.418 41.1803 384.207 34.6555C386.99 28.1412 390.879 22.4522 395.867 17.5991C400.86 12.746 406.729 8.92201 413.479 6.12716C420.229 3.33231 427.568 1.9375 435.49 1.9375C443.413 1.9375 450.752 3.33231 457.502 6.12716C464.252 8.92201 470.068 12.7251 474.958 17.526C479.852 22.3321 483.688 27.9688 486.477 34.4361C489.265 40.9087 490.662 47.82 490.662 55.1755V55.468C490.662 62.8234 489.265 69.7609 486.477 76.2753C483.688 82.8001 479.8 88.4838 474.812 93.3369C469.824 98.1953 463.955 102.019 457.205 104.809C450.455 107.604 443.121 108.999 435.193 108.999Z" fill="white"/>
<path fill-rule="evenodd" clip-rule="evenodd" d="M542.779 53.4091C547.668 53.4091 551.437 52.3068 554.074 50.1023C556.717 47.8925 558.041 44.9305 558.041 41.2006V40.908C558.041 36.7915 556.665 33.7302 553.933 31.7138C551.186 29.7077 547.423 28.7047 542.633 28.7047H523.994V53.4091H542.779ZM495.535 3.99512H544.098C552.02 3.99512 558.723 4.97723 564.201 6.93624C569.68 8.90047 574.131 11.6431 577.555 15.1693C583.617 21.0515 586.651 29.0495 586.651 39.1423V39.4349C586.651 47.3806 584.748 53.9472 580.928 59.1451C577.112 64.343 571.978 68.3132 565.52 71.0558L590.023 106.94H557.16L536.467 75.7627H523.994V106.94H495.535V3.99512Z" fill="white"/>
<path fill-rule="evenodd" clip-rule="evenodd" d="M579.077 5.20969V9.5195H577.884V5.20969H576.247V4.10742H580.719V5.20969H579.077Z" fill="white"/>
<path fill-rule="evenodd" clip-rule="evenodd" d="M585.467 9.5195V5.98807L583.95 8.30231H583.924L582.412 6.01419V9.5195H581.25V4.10742H582.532L583.95 6.39554L585.373 4.10742H586.65V9.5195H585.467Z" fill="white"/>
<path fill-rule="evenodd" clip-rule="evenodd" d="M266.894 40.6677L262.823 31.0242C261.843 28.6943 260.947 26.5681 260.123 24.6143L259.43 22.9687C257.012 17.2328 255.286 13.1476 254.072 10.2639L254.046 10.2065C252.477 6.48175 251.768 4.79962 251.429 3.99512H218.774C218.436 4.79962 217.727 6.48175 216.158 10.2065L216.137 10.2639C214.917 13.1476 213.197 17.2328 210.774 22.9687L210.08 24.6143C209.257 26.5681 208.36 28.6943 207.38 31.0242L203.31 40.6677L202.799 41.8797C206.609 43.4051 210.435 44.7477 214.193 45.5679C220.02 46.8686 229.767 45.7977 231.758 40.9289L235.104 32.3981L264.324 106.94H294.847L266.894 40.6677Z" fill="white"/>
</g>
<defs>
<clipPath id="clip0_1054_25302">
<rect width="590.98" height="109.05" fill="white"/>
</clipPath>
</defs>
</svg>
