<svg xmlns="http://www.w3.org/2000/svg" width="31" height="22" viewBox="0 0 31 22">
  <g fill="#FFFFFF" fill-opacity=".9" transform="rotate(45 14.707 15.621)">
    <path d="M14.5982565 12.0017197L2.60109774 24.0034411 0 21.4023107 12 9.3999939 21.3989023 0 24 2.60113043 14.5999756 12.0034411 14.5982565 12.0017197zM1.41421493 9.40262869L2.60143248 10.5892464 10.5857825 2.60128581 9.39888809 1.41437647 1.41421493 9.40262869zM.707266611 10.1098939L0 9.40298462.706928093 8.69573682 1.41421493 9.40262869.707266611 10.1098939zM2.601771 12.0034411L0 9.40298462 9.39873408 0 11.9998318 2.60113043 2.601771 12.0034411zM14.6014325 22.5892464L22.5857825 14.6012858 21.3988881 13.4143765 13.4142149 21.4026287 14.6014325 22.5892464zM12.7072666 22.1098939L12 21.4029846 12.7069281 20.6957368 13.4142149 21.4026287 12.7072666 22.1098939zM14.601771 24.0034411L12 21.4029846 21.3987341 12 23.9998318 14.6011304 14.601771 24.0034411z"/>
  </g>
</svg>
