<svg fill="none" height="46" viewBox="0 0 46 46" width="46" xmlns="http://www.w3.org/2000/svg"><path clip-rule="evenodd" d="m33.9773 39.2903c-.2001-1.1846-1.2469-6.9505-3.8245-14.028 6.3426-1.0142 11.836.7248 12.2417.8573-.8736 5.4738-4.0084 10.1931-8.4172 13.1707zm-10.9759 3.3535c-4.755 0-9.1151-1.6903-12.515-4.5029.2596.2109.4409.3434.4409.3434s3.765-8.2107 15.4144-12.2701c.0433-.0162.0893-.027.1326-.0405 2.7642 7.1803 3.903 13.195 4.1951 14.9123-2.3559 1.0007-4.9498 1.5578-7.668 1.5578zm-19.64478-19.6452c0-.2082.01082-.4137.01623-.6193.34891.0081 10.05365.2272 20.16675-2.7991.5626 1.1007 1.1008 2.2231 1.5931 3.34-.2596.0703-.5166.1488-.7736.2353-10.5999 3.4238-15.97702 12.9597-15.97702 12.9597s.00811.0081.00811.0109c-3.12941-3.4807-5.03357-8.0809-5.03357-13.1275zm11.26268-17.76008c.2623.34887 3.8948 5.27368 7.2947 11.31538-9.4315 2.5071-17.61883 2.407-18.13544 2.3989 1.27395-6.085 5.36085-11.12882 10.84074-13.71428zm3.6758-1.30895c0 .0027-.0027.00541-.0027.00541s-.0244.0054-.0596.01081c.0217-.00541.0406-.00811.0623-.01622zm17.6783 4.33253c-.0487.07302-2.8454 4.3325-10.2619 7.11-3.3566-6.16885-7.0459-11.06932-7.3407-11.45876 1.4849-.35969 3.0347-.55441 4.6306-.55441 4.9713 0 9.5126 1.85525 12.972 4.90317zm6.6646 14.5418c-.284-.0622-6.9324-1.4928-13.6807-.6436-.1407-.3354-.2786-.6734-.4247-1.0115-.4084-.9628-.8493-1.9147-1.3064-2.8505 7.7573-3.1669 10.9056-7.7185 10.9435-7.7726 2.7534 3.3454 4.4223 7.6185 4.4683 12.2782zm2.8968-4.4326c-.303-1.4766-.7574-2.9343-1.3443-4.3244-.5734-1.363-1.2902-2.6774-2.1205-3.9052-.8196-1.21701-1.7662-2.3637-2.8049-3.40221-1.0413-1.04121-2.1854-1.98507-3.4053-2.80722-1.2279-.83297-2.5425-1.54424-3.9057-2.12299-1.3902-.58416-2.8454-1.038512-4.3222-1.338706-1.5147-.311011-3.0726-.470574-4.6305-.470574-1.5607 0-3.1186.159563-4.6333.470574-1.4768.300194-2.932.754546-4.3222 1.338706-1.3632.57875-2.6778 1.29002-3.9084 2.12299-1.21717.82215-2.36129 1.76601-3.40263 2.80722-1.03863 1.03851-1.98259 2.1852-2.80484 3.40221-.83037 1.2278-1.54713 2.5422-2.12054 3.9052-.58964 1.3901-1.041336 2.8478-1.34427 4.3244-.308343 1.5118-.46522 3.0696-.46522 4.6273 0 1.5632.156877 3.121.46522 4.6355.302934 1.4766.75463 2.9316 1.34427 4.319.57341 1.363 1.29017 2.6828 2.12054 3.9106.82225 1.217 1.76621 2.3583 2.80484 3.4022 1.04134 1.0385 2.18546 1.9797 3.40263 2.8045 1.2306.8303 2.5452 1.5443 3.9084 2.1203 1.3902.5896 2.8454 1.0385 4.3222 1.3387 1.5147.3137 3.0726.4706 4.6333.4706 1.5579 0 3.1158-.1569 4.6305-.4706 1.4768-.3002 2.932-.7491 4.3222-1.3387 1.3632-.576 2.6778-1.29 3.9057-2.1203 1.2199-.8248 2.364-1.766 3.4053-2.8045 1.0387-1.0439 1.9853-2.1852 2.8049-3.4022.8303-1.2278 1.5471-2.5476 2.1205-3.9106.5869-1.3874 1.0413-2.8424 1.3443-4.319.3083-1.5145.4652-3.0723.4652-4.6355 0-1.5577-.1569-3.1155-.4652-4.6273z" fill="#717070" fill-rule="evenodd"/></svg>