<svg fill="none" height="47" viewBox="0 0 48 47" width="48" xmlns="http://www.w3.org/2000/svg"><path clip-rule="evenodd" d="m23.9985 0c-13.2525 0-23.9985 10.7871-23.9985 24.0966 0 10.6441 6.876 19.6752 16.4145 22.8618 1.2.2214 1.638-.5225 1.638-1.1611 0-.5722-.021-2.0872-.033-4.0977-6.6765 1.4563-8.085-3.2302-8.085-3.2302-1.0905-2.783-2.664-3.5239-2.664-3.5239-2.1795-1.4954.165-1.4653.165-1.4653 2.4075.1702 3.675 2.4833 3.675 2.4833 2.142 3.682 5.6175 2.6188 6.9855 2.0014.2175-1.5571.8385-2.6188 1.524-3.2212-5.3295-.6084-10.932-2.6746-10.932-11.9075 0-2.6309.9345-4.7814 2.4705-6.4666-.2475-.6099-1.071-3.0585.234-6.37614 0 0 2.016-.64756 6.6 2.46974 1.9155-.5346 3.9675-.8012 6.009-.8117 2.0385.0105 4.092.2771 6.009.8117 4.581-3.1173 6.5925-2.46974 6.5925-2.46974 1.3095 3.31764.486 5.76624.2385 6.37614 1.539 1.6852 2.4675 3.8357 2.4675 6.4666 0 9.2555-5.6115 11.2931-10.9575 11.8894.861.744 1.629 2.2138 1.629 4.4621 0 3.2212-.03 5.819-.03 6.6096 0 .6446.432 1.3945 1.65 1.1581 9.5295-3.1926 16.3995-12.2177 16.3995-22.8588 0-13.3095-10.746-24.0966-24.0015-24.0966" fill="#343332" fill-rule="evenodd"/></svg>