<svg fill="none" height="40" viewBox="0 0 44 40" width="44" xmlns="http://www.w3.org/2000/svg"><path clip-rule="evenodd" d="m44 40h-9.7246v-14.0616c0-3.6806-1.5212-6.1933-4.8662-6.1933-2.5585 0-3.9814 1.6956-4.6437 3.3298-.2483.5865-.2095 1.4036-.2095 2.2206v14.7045h-9.6341s.1242-24.9088 0-27.173h9.6341v4.2646c.5691-1.8646 3.6477-4.5258 8.5604-4.5258 6.095 0 10.8836 3.9086 10.8836 12.325zm-38.82079-30.57181h-.06209c-3.10442 0-5.11712-2.07723-5.11712-4.71025 0-2.68426 2.0722-4.71794 5.23871-4.71794 3.16392 0 5.10939 2.02856 5.17149 4.71025 0 2.63303-2.00757 4.71794-5.23099 4.71794zm-4.06938 3.39881h8.57596v27.173h-8.57596z" fill="#343332" fill-rule="evenodd"/></svg>