<svg width="685" height="140" viewBox="0 0 685 140" fill="none" xmlns="http://www.w3.org/2000/svg">
<path fill-rule="evenodd" clip-rule="evenodd" d="M0 14.1506C0 10.7537 2.75372 8 6.1506 8H117.887C121.283 8 124.037 10.7537 124.037 14.1506V54.6989C124.037 58.0958 121.283 60.8495 117.887 60.8495H6.15061C2.75373 60.8495 0 58.0958 0 54.6989V14.1506Z" fill="#267EDC"/>
<path d="M35.6372 41.4014H40.4952C43.4409 41.4014 44.7714 39.9347 44.7714 37.9915C44.7714 36.0298 43.3975 34.922 42.1413 34.854V34.7302C43.3047 34.4332 44.2763 33.641 44.2763 32.0568C44.2763 30.1817 42.9767 28.7274 40.2786 28.7274H35.6372V41.4014ZM37.5495 39.7614V35.7018H40.3776C41.9123 35.7018 42.8715 36.6919 42.8715 37.8987C42.8715 38.9631 42.1475 39.7614 40.3095 39.7614H37.5495ZM37.5495 34.2104V30.355H40.161C41.6772 30.355 42.4012 31.1533 42.4012 32.2053C42.4012 33.4306 41.3987 34.2104 40.1115 34.2104H37.5495ZM52.9123 37.4593C52.9185 39.0745 51.7179 39.8419 50.6783 39.8419C49.5334 39.8419 48.7413 39.0126 48.7413 37.7192V31.8959H46.8909V37.942C46.8909 40.2998 48.1843 41.5251 50.0099 41.5251C51.4395 41.5251 52.411 40.7701 52.8504 39.7552H52.9494V41.4014H54.7688V31.8959H52.9123V37.4593ZM61.6922 31.8959H59.7428V29.6185H57.8925V31.8959H56.5001V33.3811H57.8925V38.9941C57.8863 40.7206 59.2044 41.5561 60.6649 41.5251C61.2528 41.5189 61.6489 41.4076 61.8655 41.3271L61.5313 39.7986C61.4075 39.8233 61.1785 39.879 60.8815 39.879C60.2812 39.879 59.7428 39.681 59.7428 38.6104V33.3811H61.6922V31.8959ZM68.1761 31.8959H66.2268V29.6185H64.3764V31.8959H62.984V33.3811H64.3764V38.9941C64.3702 40.7206 65.6884 41.5561 67.1489 41.5251C67.7368 41.5189 68.1328 41.4076 68.3494 41.3271L68.0152 39.7986C67.8915 39.8233 67.6625 39.879 67.3655 39.879C66.7652 39.879 66.2268 39.681 66.2268 38.6104V33.3811H68.1761V31.8959ZM74.1248 41.5932C76.8044 41.5932 78.5557 39.6315 78.5557 36.6919C78.5557 33.7339 76.8044 31.7721 74.1248 31.7721C71.4452 31.7721 69.6939 33.7339 69.6939 36.6919C69.6939 39.6315 71.4452 41.5932 74.1248 41.5932ZM74.131 40.0399C72.3797 40.0399 71.5628 38.5114 71.5628 36.6858C71.5628 34.8664 72.3797 33.3192 74.131 33.3192C75.87 33.3192 76.6868 34.8664 76.6868 36.6858C76.6868 38.5114 75.87 40.0399 74.131 40.0399ZM82.4715 35.7575C82.4715 34.2413 83.3998 33.3749 84.687 33.3749C85.9432 33.3749 86.7044 34.198 86.7044 35.578V41.4014H88.5548V35.3552C88.5548 33.0036 87.2614 31.7721 85.3182 31.7721C83.8887 31.7721 82.9542 32.4343 82.5148 33.443H82.3972V31.8959H80.6211V41.4014H82.4715V35.7575Z" fill="white"/>
<path fill-rule="evenodd" clip-rule="evenodd" d="M280 14.1506C280 10.7537 282.754 8 286.151 8H397.887C401.283 8 404.037 10.7537 404.037 14.1506V54.6989C404.037 58.0958 401.283 60.8495 397.887 60.8495H286.151C282.754 60.8495 280 58.0958 280 54.6989V14.1506Z" fill="#F0F2F4"/>
<path d="M315.637 41H320.495C323.441 41 324.771 39.5333 324.771 37.5902C324.771 35.6284 323.397 34.5207 322.141 34.4526V34.3288C323.305 34.0318 324.276 33.2397 324.276 31.6554C324.276 29.7803 322.977 28.326 320.279 28.326H315.637V41ZM317.549 39.3601V35.3004H320.378C321.912 35.3004 322.871 36.2906 322.871 37.4973C322.871 38.5617 322.147 39.3601 320.309 39.3601H317.549ZM317.549 33.809V29.9536H320.161C321.677 29.9536 322.401 30.7519 322.401 31.8039C322.401 33.0293 321.399 33.809 320.111 33.809H317.549ZM332.912 37.058C332.918 38.6731 331.718 39.4405 330.678 39.4405C329.533 39.4405 328.741 38.6113 328.741 37.3179V31.4945H326.891V37.5407C326.891 39.8985 328.184 41.1238 330.01 41.1238C331.439 41.1238 332.411 40.3688 332.85 39.3539H332.949V41H334.769V31.4945H332.912V37.058ZM341.692 31.4945H339.743V29.2172H337.892V31.4945H336.5V32.9798H337.892V38.5927C337.886 40.3193 339.204 41.1547 340.665 41.1238C341.253 41.1176 341.649 41.0062 341.865 40.9257L341.531 39.3972C341.407 39.4219 341.178 39.4776 340.881 39.4776C340.281 39.4776 339.743 39.2796 339.743 38.209V32.9798H341.692V31.4945ZM348.176 31.4945H346.227V29.2172H344.376V31.4945H342.984V32.9798H344.376V38.5927C344.37 40.3193 345.688 41.1547 347.149 41.1238C347.737 41.1176 348.133 41.0062 348.349 40.9257L348.015 39.3972C347.891 39.4219 347.662 39.4776 347.365 39.4776C346.765 39.4776 346.227 39.2796 346.227 38.209V32.9798H348.176V31.4945ZM354.125 41.1918C356.804 41.1918 358.556 39.2301 358.556 36.2906C358.556 33.3325 356.804 31.3708 354.125 31.3708C351.445 31.3708 349.694 33.3325 349.694 36.2906C349.694 39.2301 351.445 41.1918 354.125 41.1918ZM354.131 39.6385C352.38 39.6385 351.563 38.11 351.563 36.2844C351.563 34.465 352.38 32.9179 354.131 32.9179C355.87 32.9179 356.687 34.465 356.687 36.2844C356.687 38.11 355.87 39.6385 354.131 39.6385ZM362.471 35.3561C362.471 33.84 363.4 32.9736 364.687 32.9736C365.943 32.9736 366.704 33.7966 366.704 35.1767V41H368.555V34.9539C368.555 32.6023 367.261 31.3708 365.318 31.3708C363.889 31.3708 362.954 32.0329 362.515 33.0416H362.397V31.4945H360.621V41H362.471V35.3561Z" fill="#9CA3AE"/>
<path fill-rule="evenodd" clip-rule="evenodd" d="M0 103.653C0 88.9328 11.9328 77 26.6526 77H97.3845C112.104 77 124.037 88.9328 124.037 103.653C124.037 118.372 112.104 130.305 97.3845 130.305H26.6526C11.9328 130.305 0 118.372 0 103.653Z" fill="#267EDC"/>
<path d="M35.6372 110H40.4951C43.4408 110 44.7713 108.533 44.7713 106.59C44.7713 104.628 43.3975 103.521 42.1412 103.453V103.329C43.3047 103.032 44.2763 102.24 44.2763 100.655C44.2763 98.7803 42.9767 97.326 40.2785 97.326H35.6372V110ZM37.5494 108.36V104.3H40.3775C41.9123 104.3 42.8715 105.291 42.8715 106.497C42.8715 107.562 42.1474 108.36 40.3095 108.36H37.5494ZM37.5494 102.809V98.9536H40.1609C41.6771 98.9536 42.4012 99.7519 42.4012 100.804C42.4012 102.029 41.3986 102.809 40.1114 102.809H37.5494ZM52.9123 106.058C52.9184 107.673 51.7179 108.441 50.6782 108.441C49.5334 108.441 48.7412 107.611 48.7412 106.318V100.495H46.8909V106.541C46.8909 108.898 48.1843 110.124 50.0099 110.124C51.4394 110.124 52.411 109.369 52.8504 108.354H52.9494V110H54.7688V100.495H52.9123V106.058ZM61.6921 100.495H59.7428V98.2172H57.8924V100.495H56.5V101.98H57.8924V107.593C57.8862 109.319 59.2044 110.155 60.6648 110.124C61.2528 110.118 61.6488 110.006 61.8654 109.926L61.5312 108.397C61.4075 108.422 61.1785 108.478 60.8814 108.478C60.2812 108.478 59.7428 108.28 59.7428 107.209V101.98H61.6921V100.495ZM68.1761 100.495H66.2267V98.2172H64.3764V100.495H62.984V101.98H64.3764V107.593C64.3702 109.319 65.6883 110.155 67.1488 110.124C67.7367 110.118 68.1328 110.006 68.3494 109.926L68.0152 108.397C67.8914 108.422 67.6624 108.478 67.3654 108.478C66.7651 108.478 66.2267 108.28 66.2267 107.209V101.98H68.1761V100.495ZM74.1248 110.192C76.8044 110.192 78.5557 108.23 78.5557 105.291C78.5557 102.332 76.8044 100.371 74.1248 100.371C71.4451 100.371 69.6938 102.332 69.6938 105.291C69.6938 108.23 71.4451 110.192 74.1248 110.192ZM74.1309 108.639C72.3796 108.639 71.5627 107.11 71.5627 105.284C71.5627 103.465 72.3796 101.918 74.1309 101.918C75.8699 101.918 76.6868 103.465 76.6868 105.284C76.6868 107.11 75.8699 108.639 74.1309 108.639ZM82.4714 104.356C82.4714 102.84 83.3997 101.974 84.6869 101.974C85.9432 101.974 86.7043 102.797 86.7043 104.177V110H88.5547V103.954C88.5547 101.602 87.2613 100.371 85.3181 100.371C83.8886 100.371 82.9541 101.033 82.5148 102.042H82.3972V100.495H80.6211V110H82.4714V104.356Z" fill="white"/>
<g filter="url(#filter0_d)">
<path fill-rule="evenodd" clip-rule="evenodd" d="M140 14.1506C140 10.7537 142.754 8 146.151 8H257.887C261.283 8 264.037 10.7537 264.037 14.1506V54.6989C264.037 58.0958 261.283 60.8495 257.887 60.8495H146.151C142.754 60.8495 140 58.0958 140 54.6989V14.1506Z" fill="#529BEA"/>
</g>
<path d="M175.637 41H180.495C183.441 41 184.771 39.5333 184.771 37.5902C184.771 35.6284 183.397 34.5207 182.141 34.4526V34.3288C183.305 34.0318 184.276 33.2397 184.276 31.6554C184.276 29.7803 182.977 28.326 180.279 28.326H175.637V41ZM177.549 39.3601V35.3004H180.378C181.912 35.3004 182.871 36.2906 182.871 37.4973C182.871 38.5617 182.147 39.3601 180.309 39.3601H177.549ZM177.549 33.809V29.9536H180.161C181.677 29.9536 182.401 30.7519 182.401 31.8039C182.401 33.0293 181.399 33.809 180.111 33.809H177.549ZM192.912 37.058C192.918 38.6731 191.718 39.4405 190.678 39.4405C189.533 39.4405 188.741 38.6113 188.741 37.3179V31.4945H186.891V37.5407C186.891 39.8985 188.184 41.1238 190.01 41.1238C191.439 41.1238 192.411 40.3688 192.85 39.3539H192.949V41H194.769V31.4945H192.912V37.058ZM201.692 31.4945H199.743V29.2172H197.892V31.4945H196.5V32.9798H197.892V38.5927C197.886 40.3193 199.204 41.1547 200.665 41.1238C201.253 41.1176 201.649 41.0062 201.865 40.9257L201.531 39.3972C201.407 39.4219 201.178 39.4776 200.881 39.4776C200.281 39.4776 199.743 39.2796 199.743 38.209V32.9798H201.692V31.4945ZM208.176 31.4945H206.227V29.2172H204.376V31.4945H202.984V32.9798H204.376V38.5927C204.37 40.3193 205.688 41.1547 207.149 41.1238C207.737 41.1176 208.133 41.0062 208.349 40.9257L208.015 39.3972C207.891 39.4219 207.662 39.4776 207.365 39.4776C206.765 39.4776 206.227 39.2796 206.227 38.209V32.9798H208.176V31.4945ZM214.125 41.1918C216.804 41.1918 218.556 39.2301 218.556 36.2906C218.556 33.3325 216.804 31.3708 214.125 31.3708C211.445 31.3708 209.694 33.3325 209.694 36.2906C209.694 39.2301 211.445 41.1918 214.125 41.1918ZM214.131 39.6385C212.38 39.6385 211.563 38.11 211.563 36.2844C211.563 34.465 212.38 32.9179 214.131 32.9179C215.87 32.9179 216.687 34.465 216.687 36.2844C216.687 38.11 215.87 39.6385 214.131 39.6385ZM222.471 35.3561C222.471 33.84 223.4 32.9736 224.687 32.9736C225.943 32.9736 226.704 33.7966 226.704 35.1767V41H228.555V34.9539C228.555 32.6023 227.261 31.3708 225.318 31.3708C223.889 31.3708 222.954 32.0329 222.515 33.0416H222.397V31.4945H220.621V41H222.471V35.3561Z" fill="white"/>
<g filter="url(#filter1_d)">
<path fill-rule="evenodd" clip-rule="evenodd" d="M140 103.653C140 88.9328 151.933 77 166.653 77H237.385C252.104 77 264.037 88.9328 264.037 103.653C264.037 118.372 252.104 130.305 237.385 130.305H166.653C151.933 130.305 140 118.372 140 103.653Z" fill="#529BEA"/>
</g>
<path d="M175.637 110H180.495C183.441 110 184.771 108.533 184.771 106.59C184.771 104.628 183.397 103.521 182.141 103.453V103.329C183.305 103.032 184.276 102.24 184.276 100.655C184.276 98.7803 182.977 97.326 180.279 97.326H175.637V110ZM177.549 108.36V104.3H180.378C181.912 104.3 182.871 105.291 182.871 106.497C182.871 107.562 182.147 108.36 180.309 108.36H177.549ZM177.549 102.809V98.9536H180.161C181.677 98.9536 182.401 99.7519 182.401 100.804C182.401 102.029 181.399 102.809 180.111 102.809H177.549ZM192.912 106.058C192.918 107.673 191.718 108.441 190.678 108.441C189.533 108.441 188.741 107.611 188.741 106.318V100.495H186.891V106.541C186.891 108.898 188.184 110.124 190.01 110.124C191.439 110.124 192.411 109.369 192.85 108.354H192.949V110H194.769V100.495H192.912V106.058ZM201.692 100.495H199.743V98.2172H197.892V100.495H196.5V101.98H197.892V107.593C197.886 109.319 199.204 110.155 200.665 110.124C201.253 110.118 201.649 110.006 201.865 109.926L201.531 108.397C201.407 108.422 201.178 108.478 200.881 108.478C200.281 108.478 199.743 108.28 199.743 107.209V101.98H201.692V100.495ZM208.176 100.495H206.227V98.2172H204.376V100.495H202.984V101.98H204.376V107.593C204.37 109.319 205.688 110.155 207.149 110.124C207.737 110.118 208.133 110.006 208.349 109.926L208.015 108.397C207.891 108.422 207.662 108.478 207.365 108.478C206.765 108.478 206.227 108.28 206.227 107.209V101.98H208.176V100.495ZM214.125 110.192C216.804 110.192 218.556 108.23 218.556 105.291C218.556 102.332 216.804 100.371 214.125 100.371C211.445 100.371 209.694 102.332 209.694 105.291C209.694 108.23 211.445 110.192 214.125 110.192ZM214.131 108.639C212.38 108.639 211.563 107.11 211.563 105.284C211.563 103.465 212.38 101.918 214.131 101.918C215.87 101.918 216.687 103.465 216.687 105.284C216.687 107.11 215.87 108.639 214.131 108.639ZM222.471 104.356C222.471 102.84 223.4 101.974 224.687 101.974C225.943 101.974 226.704 102.797 226.704 104.177V110H228.555V103.954C228.555 101.602 227.261 100.371 225.318 100.371C223.889 100.371 222.954 101.033 222.515 102.042H222.397V100.495H220.621V110H222.471V104.356Z" fill="white"/>
<path d="M561.281 14.1506C561.281 11.4614 563.461 9.28138 566.151 9.28138H677.887C680.576 9.28138 682.756 11.4614 682.756 14.1506V54.6989C682.756 57.3881 680.576 59.5681 677.887 59.5681H566.151C563.461 59.5681 561.281 57.3881 561.281 54.6989V14.1506Z" fill="#267EDC" stroke="white" stroke-width="2.56275"/>
<path d="M560.769 14.1506C560.769 11.1783 563.178 8.76883 566.151 8.76883H677.887C680.859 8.76883 683.268 11.1783 683.268 14.1506V54.6989C683.268 57.6712 680.859 60.0807 677.887 60.0807H566.151C563.178 60.0807 560.769 57.6712 560.769 54.6989V14.1506Z" stroke="#267EDC" stroke-width="1.53765"/>
<path d="M595.637 41H600.495C603.441 41 604.771 39.5333 604.771 37.5902C604.771 35.6284 603.397 34.5207 602.141 34.4526V34.3288C603.305 34.0318 604.276 33.2397 604.276 31.6554C604.276 29.7803 602.977 28.326 600.279 28.326H595.637V41ZM597.549 39.3601V35.3004H600.378C601.912 35.3004 602.871 36.2906 602.871 37.4973C602.871 38.5617 602.147 39.3601 600.309 39.3601H597.549ZM597.549 33.809V29.9536H600.161C601.677 29.9536 602.401 30.7519 602.401 31.8039C602.401 33.0293 601.399 33.809 600.111 33.809H597.549ZM612.912 37.058C612.918 38.6731 611.718 39.4405 610.678 39.4405C609.533 39.4405 608.741 38.6113 608.741 37.3179V31.4945H606.891V37.5407C606.891 39.8985 608.184 41.1238 610.01 41.1238C611.439 41.1238 612.411 40.3688 612.85 39.3539H612.949V41H614.769V31.4945H612.912V37.058ZM621.692 31.4945H619.743V29.2172H617.892V31.4945H616.5V32.9798H617.892V38.5927C617.886 40.3193 619.204 41.1547 620.665 41.1238C621.253 41.1176 621.649 41.0062 621.865 40.9257L621.531 39.3972C621.407 39.4219 621.178 39.4776 620.881 39.4776C620.281 39.4776 619.743 39.2796 619.743 38.209V32.9798H621.692V31.4945ZM628.176 31.4945H626.227V29.2172H624.376V31.4945H622.984V32.9798H624.376V38.5927C624.37 40.3193 625.688 41.1547 627.149 41.1238C627.737 41.1176 628.133 41.0062 628.349 40.9257L628.015 39.3972C627.891 39.4219 627.662 39.4776 627.365 39.4776C626.765 39.4776 626.227 39.2796 626.227 38.209V32.9798H628.176V31.4945ZM634.125 41.1918C636.804 41.1918 638.556 39.2301 638.556 36.2906C638.556 33.3325 636.804 31.3708 634.125 31.3708C631.445 31.3708 629.694 33.3325 629.694 36.2906C629.694 39.2301 631.445 41.1918 634.125 41.1918ZM634.131 39.6385C632.38 39.6385 631.563 38.11 631.563 36.2844C631.563 34.465 632.38 32.9179 634.131 32.9179C635.87 32.9179 636.687 34.465 636.687 36.2844C636.687 38.11 635.87 39.6385 634.131 39.6385ZM642.471 35.3561C642.471 33.84 643.4 32.9736 644.687 32.9736C645.943 32.9736 646.704 33.7966 646.704 35.1767V41H648.555V34.9539C648.555 32.6023 647.261 31.3708 645.318 31.3708C643.889 31.3708 642.954 32.0329 642.515 33.0416H642.397V31.4945H640.621V41H642.471V35.3561Z" fill="white"/>
<path d="M561.281 103.653C561.281 89.6405 572.64 78.2814 586.653 78.2814H657.385C671.397 78.2814 682.756 89.6405 682.756 103.653C682.756 117.665 671.397 129.024 657.385 129.024H586.653C572.64 129.024 561.281 117.665 561.281 103.653Z" fill="#267EDC" stroke="white" stroke-width="2.56275"/>
<path d="M560.769 103.653C560.769 89.3574 572.357 77.7688 586.653 77.7688H657.385C671.68 77.7688 683.268 89.3574 683.268 103.653C683.268 117.948 671.68 129.536 657.385 129.536H586.653C572.357 129.536 560.769 117.948 560.769 103.653Z" stroke="#267EDC" stroke-width="1.53765"/>
<path d="M595.637 110H600.495C603.441 110 604.771 108.533 604.771 106.59C604.771 104.628 603.397 103.521 602.141 103.453V103.329C603.305 103.032 604.276 102.24 604.276 100.655C604.276 98.7803 602.977 97.326 600.279 97.326H595.637V110ZM597.549 108.36V104.3H600.378C601.912 104.3 602.871 105.291 602.871 106.497C602.871 107.562 602.147 108.36 600.309 108.36H597.549ZM597.549 102.809V98.9536H600.161C601.677 98.9536 602.401 99.7519 602.401 100.804C602.401 102.029 601.399 102.809 600.111 102.809H597.549ZM612.912 106.058C612.918 107.673 611.718 108.441 610.678 108.441C609.533 108.441 608.741 107.611 608.741 106.318V100.495H606.891V106.541C606.891 108.898 608.184 110.124 610.01 110.124C611.439 110.124 612.411 109.369 612.85 108.354H612.949V110H614.769V100.495H612.912V106.058ZM621.692 100.495H619.743V98.2172H617.892V100.495H616.5V101.98H617.892V107.593C617.886 109.319 619.204 110.155 620.665 110.124C621.253 110.118 621.649 110.006 621.865 109.926L621.531 108.397C621.407 108.422 621.178 108.478 620.881 108.478C620.281 108.478 619.743 108.28 619.743 107.209V101.98H621.692V100.495ZM628.176 100.495H626.227V98.2172H624.376V100.495H622.984V101.98H624.376V107.593C624.37 109.319 625.688 110.155 627.149 110.124C627.737 110.118 628.133 110.006 628.349 109.926L628.015 108.397C627.891 108.422 627.662 108.478 627.365 108.478C626.765 108.478 626.227 108.28 626.227 107.209V101.98H628.176V100.495ZM634.125 110.192C636.804 110.192 638.556 108.23 638.556 105.291C638.556 102.332 636.804 100.371 634.125 100.371C631.445 100.371 629.694 102.332 629.694 105.291C629.694 108.23 631.445 110.192 634.125 110.192ZM634.131 108.639C632.38 108.639 631.563 107.11 631.563 105.284C631.563 103.465 632.38 101.918 634.131 101.918C635.87 101.918 636.687 103.465 636.687 105.284C636.687 107.11 635.87 108.639 634.131 108.639ZM642.471 104.356C642.471 102.84 643.4 101.974 644.687 101.974C645.943 101.974 646.704 102.797 646.704 104.177V110H648.555V103.954C648.555 101.602 647.261 100.371 645.318 100.371C643.889 100.371 642.954 101.033 642.515 102.042H642.397V100.495H640.621V110H642.471V104.356Z" fill="white"/>
<path fill-rule="evenodd" clip-rule="evenodd" d="M420 14.1506C420 10.7537 422.754 8 426.151 8H537.887C541.283 8 544.037 10.7537 544.037 14.1506V54.6989C544.037 58.0958 541.283 60.8495 537.887 60.8495H426.151C422.754 60.8495 420 58.0958 420 54.6989V14.1506Z" fill="#256FC7"/>
<path d="M455.637 41H460.495C463.441 41 464.771 39.5333 464.771 37.5902C464.771 35.6284 463.397 34.5207 462.141 34.4526V34.3288C463.305 34.0318 464.276 33.2397 464.276 31.6554C464.276 29.7803 462.977 28.326 460.279 28.326H455.637V41ZM457.549 39.3601V35.3004H460.378C461.912 35.3004 462.871 36.2906 462.871 37.4973C462.871 38.5617 462.147 39.3601 460.309 39.3601H457.549ZM457.549 33.809V29.9536H460.161C461.677 29.9536 462.401 30.7519 462.401 31.8039C462.401 33.0293 461.399 33.809 460.111 33.809H457.549ZM472.912 37.058C472.918 38.6731 471.718 39.4405 470.678 39.4405C469.533 39.4405 468.741 38.6113 468.741 37.3179V31.4945H466.891V37.5407C466.891 39.8985 468.184 41.1238 470.01 41.1238C471.439 41.1238 472.411 40.3688 472.85 39.3539H472.949V41H474.769V31.4945H472.912V37.058ZM481.692 31.4945H479.743V29.2172H477.892V31.4945H476.5V32.9798H477.892V38.5927C477.886 40.3193 479.204 41.1547 480.665 41.1238C481.253 41.1176 481.649 41.0062 481.865 40.9257L481.531 39.3972C481.407 39.4219 481.178 39.4776 480.881 39.4776C480.281 39.4776 479.743 39.2796 479.743 38.209V32.9798H481.692V31.4945ZM488.176 31.4945H486.227V29.2172H484.376V31.4945H482.984V32.9798H484.376V38.5927C484.37 40.3193 485.688 41.1547 487.149 41.1238C487.737 41.1176 488.133 41.0062 488.349 40.9257L488.015 39.3972C487.891 39.4219 487.662 39.4776 487.365 39.4776C486.765 39.4776 486.227 39.2796 486.227 38.209V32.9798H488.176V31.4945ZM494.125 41.1918C496.804 41.1918 498.556 39.2301 498.556 36.2906C498.556 33.3325 496.804 31.3708 494.125 31.3708C491.445 31.3708 489.694 33.3325 489.694 36.2906C489.694 39.2301 491.445 41.1918 494.125 41.1918ZM494.131 39.6385C492.38 39.6385 491.563 38.11 491.563 36.2844C491.563 34.465 492.38 32.9179 494.131 32.9179C495.87 32.9179 496.687 34.465 496.687 36.2844C496.687 38.11 495.87 39.6385 494.131 39.6385ZM502.471 35.3561C502.471 33.84 503.4 32.9736 504.687 32.9736C505.943 32.9736 506.704 33.7966 506.704 35.1767V41H508.555V34.9539C508.555 32.6023 507.261 31.3708 505.318 31.3708C503.889 31.3708 502.954 32.0329 502.515 33.0416H502.397V31.4945H500.621V41H502.471V35.3561Z" fill="white"/>
<path fill-rule="evenodd" clip-rule="evenodd" d="M420 103.653C420 88.9328 431.933 77 446.653 77H517.385C532.104 77 544.037 88.9328 544.037 103.653C544.037 118.372 532.104 130.305 517.385 130.305H446.653C431.933 130.305 420 118.372 420 103.653Z" fill="#256FC7"/>
<path d="M455.637 110H460.495C463.441 110 464.771 108.533 464.771 106.59C464.771 104.628 463.397 103.521 462.141 103.453V103.329C463.305 103.032 464.276 102.24 464.276 100.655C464.276 98.7803 462.977 97.326 460.279 97.326H455.637V110ZM457.549 108.36V104.3H460.378C461.912 104.3 462.871 105.291 462.871 106.497C462.871 107.562 462.147 108.36 460.309 108.36H457.549ZM457.549 102.809V98.9536H460.161C461.677 98.9536 462.401 99.7519 462.401 100.804C462.401 102.029 461.399 102.809 460.111 102.809H457.549ZM472.912 106.058C472.918 107.673 471.718 108.441 470.678 108.441C469.533 108.441 468.741 107.611 468.741 106.318V100.495H466.891V106.541C466.891 108.898 468.184 110.124 470.01 110.124C471.439 110.124 472.411 109.369 472.85 108.354H472.949V110H474.769V100.495H472.912V106.058ZM481.692 100.495H479.743V98.2172H477.892V100.495H476.5V101.98H477.892V107.593C477.886 109.319 479.204 110.155 480.665 110.124C481.253 110.118 481.649 110.006 481.865 109.926L481.531 108.397C481.407 108.422 481.178 108.478 480.881 108.478C480.281 108.478 479.743 108.28 479.743 107.209V101.98H481.692V100.495ZM488.176 100.495H486.227V98.2172H484.376V100.495H482.984V101.98H484.376V107.593C484.37 109.319 485.688 110.155 487.149 110.124C487.737 110.118 488.133 110.006 488.349 109.926L488.015 108.397C487.891 108.422 487.662 108.478 487.365 108.478C486.765 108.478 486.227 108.28 486.227 107.209V101.98H488.176V100.495ZM494.125 110.192C496.804 110.192 498.556 108.23 498.556 105.291C498.556 102.332 496.804 100.371 494.125 100.371C491.445 100.371 489.694 102.332 489.694 105.291C489.694 108.23 491.445 110.192 494.125 110.192ZM494.131 108.639C492.38 108.639 491.563 107.11 491.563 105.284C491.563 103.465 492.38 101.918 494.131 101.918C495.87 101.918 496.687 103.465 496.687 105.284C496.687 107.11 495.87 108.639 494.131 108.639ZM502.471 104.356C502.471 102.84 503.4 101.974 504.687 101.974C505.943 101.974 506.704 102.797 506.704 104.177V110H508.555V103.954C508.555 101.602 507.261 100.371 505.318 100.371C503.889 100.371 502.954 101.033 502.515 102.042H502.397V100.495H500.621V110H502.471V104.356Z" fill="white"/>
<path fill-rule="evenodd" clip-rule="evenodd" d="M280 103.653C280 88.9328 291.933 77 306.653 77H377.385C392.104 77 404.037 88.9328 404.037 103.653C404.037 118.372 392.104 130.305 377.385 130.305H306.653C291.933 130.305 280 118.372 280 103.653Z" fill="#F0F2F4"/>
<path d="M315.637 110H320.495C323.441 110 324.771 108.533 324.771 106.59C324.771 104.628 323.397 103.521 322.141 103.453V103.329C323.305 103.032 324.276 102.24 324.276 100.655C324.276 98.7803 322.977 97.326 320.279 97.326H315.637V110ZM317.549 108.36V104.3H320.378C321.912 104.3 322.871 105.291 322.871 106.497C322.871 107.562 322.147 108.36 320.309 108.36H317.549ZM317.549 102.809V98.9536H320.161C321.677 98.9536 322.401 99.7519 322.401 100.804C322.401 102.029 321.399 102.809 320.111 102.809H317.549ZM332.912 106.058C332.918 107.673 331.718 108.441 330.678 108.441C329.533 108.441 328.741 107.611 328.741 106.318V100.495H326.891V106.541C326.891 108.898 328.184 110.124 330.01 110.124C331.439 110.124 332.411 109.369 332.85 108.354H332.949V110H334.769V100.495H332.912V106.058ZM341.692 100.495H339.743V98.2172H337.892V100.495H336.5V101.98H337.892V107.593C337.886 109.319 339.204 110.155 340.665 110.124C341.253 110.118 341.649 110.006 341.865 109.926L341.531 108.397C341.407 108.422 341.178 108.478 340.881 108.478C340.281 108.478 339.743 108.28 339.743 107.209V101.98H341.692V100.495ZM348.176 100.495H346.227V98.2172H344.376V100.495H342.984V101.98H344.376V107.593C344.37 109.319 345.688 110.155 347.149 110.124C347.737 110.118 348.133 110.006 348.349 109.926L348.015 108.397C347.891 108.422 347.662 108.478 347.365 108.478C346.765 108.478 346.227 108.28 346.227 107.209V101.98H348.176V100.495ZM354.125 110.192C356.804 110.192 358.556 108.23 358.556 105.291C358.556 102.332 356.804 100.371 354.125 100.371C351.445 100.371 349.694 102.332 349.694 105.291C349.694 108.23 351.445 110.192 354.125 110.192ZM354.131 108.639C352.38 108.639 351.563 107.11 351.563 105.284C351.563 103.465 352.38 101.918 354.131 101.918C355.87 101.918 356.687 103.465 356.687 105.284C356.687 107.11 355.87 108.639 354.131 108.639ZM362.471 104.356C362.471 102.84 363.4 101.974 364.687 101.974C365.943 101.974 366.704 102.797 366.704 104.177V110H368.555V103.954C368.555 101.602 367.261 100.371 365.318 100.371C363.889 100.371 362.954 101.033 362.515 102.042H362.397V100.495H360.621V110H362.471V104.356Z" fill="#9CA3AE"/>
<defs>
<filter id="filter0_d" x="131.799" y="0.824298" width="140.439" height="69.2511" filterUnits="userSpaceOnUse" color-interpolation-filters="sRGB">
<feFlood flood-opacity="0" result="BackgroundImageFix"/>
<feColorMatrix in="SourceAlpha" type="matrix" values="0 0 0 0 0 0 0 0 0 0 0 0 0 0 0 0 0 0 127 0"/>
<feOffset dy="1.0251"/>
<feGaussianBlur stdDeviation="4.1004"/>
<feColorMatrix type="matrix" values="0 0 0 0 0.168627 0 0 0 0 0.2 0 0 0 0 0.247059 0 0 0 0.2 0"/>
<feBlend mode="normal" in2="BackgroundImageFix" result="effect1_dropShadow"/>
<feBlend mode="normal" in="SourceGraphic" in2="effect1_dropShadow" result="shape"/>
</filter>
<filter id="filter1_d" x="131.799" y="69.8243" width="140.439" height="69.7068" filterUnits="userSpaceOnUse" color-interpolation-filters="sRGB">
<feFlood flood-opacity="0" result="BackgroundImageFix"/>
<feColorMatrix in="SourceAlpha" type="matrix" values="0 0 0 0 0 0 0 0 0 0 0 0 0 0 0 0 0 0 127 0"/>
<feOffset dy="1.0251"/>
<feGaussianBlur stdDeviation="4.1004"/>
<feColorMatrix type="matrix" values="0 0 0 0 0.168627 0 0 0 0 0.2 0 0 0 0 0.247059 0 0 0 0.2 0"/>
<feBlend mode="normal" in2="BackgroundImageFix" result="effect1_dropShadow"/>
<feBlend mode="normal" in="SourceGraphic" in2="effect1_dropShadow" result="shape"/>
</filter>
</defs>
</svg>
