<svg fill="none" height="154" viewBox="0 0 447 154" width="447" xmlns="http://www.w3.org/2000/svg"><path d="m6 1h435c2.761 0 5 2.23858 5 5v142c0 2.761-2.239 5-5 5h-434.99999c-2.76142 0-5.00001-2.239-5.00001-5v-142c0-2.76142 2.23858-5 5-5z" fill="#fff" stroke="#b4bac4" stroke-width="2"/><g fill="#1f2f47"><path d="m34.0729 27.0909h-2.2958v6.8608h-.0959l-4.7088-6.8608h-2.0242v10.9091h2.3065v-6.8661h.0799l4.7461 6.8661h1.9922z"/><path d="m40.0428 38.2397c2.7006 0 4.2294-2.0135 4.2347-5.6676-.0053-3.6381-1.5341-5.6303-4.2347-5.6303-2.706 0-4.2347 2.0028-4.2347 5.6409-.0107 3.6488 1.5287 5.6517 4.2347 5.657zm0-1.9016c-1.3317 0-2.0508-1.3157-2.0401-3.7554 0-2.4343.7084-3.7606 2.0401-3.7606 1.3157 0 2.0295 1.3263 2.0401 3.7606.0053 2.4397-.7138 3.7554-2.0401 3.7554z"/><path d="m54.8817 32.5561h-5.4759v1.6619h5.4759z"/><path d="m62.648 38h2.2479l2.072-7.1325h.0853l2.0774 7.1325h2.2479l3.1214-10.9091h-2.5195l-1.8058 7.5959h-.0959l-1.9868-7.5959h-2.1573l-1.9922 7.5799h-.0906l-1.8057-7.5799h-2.5196z"/><path d="m77.9609 33.2699c.0054-1.0547.6499-1.6726 1.5767-1.6726.9216 0 1.4649.5913 1.4596 1.598v4.8047h2.2691v-5.2095c.0054-1.9176-1.1239-3.0788-2.8284-3.0788-1.2412 0-2.0721.5859-2.445 1.55h-.0959v-4.1708h-2.2052v10.9091h2.2691z"/><path d="m85.0521 38h2.2692v-8.1818h-2.2692zm1.1399-9.1513c.6605 0 1.2305-.5007 1.2305-1.1505 0-.6446-.57-1.1453-1.2305-1.1453-.6552 0-1.2251.5007-1.2251 1.1453 0 .6498.5699 1.1505 1.2251 1.1505z"/><path d="m93.4909 29.8182h-1.5394v-1.9602h-2.2691v1.9602h-1.1187v1.7045h1.1187v4.2454c-.0107 1.598 1.0813 2.3917 2.7272 2.3278.586-.0266 1.0015-.1438 1.2305-.2131l-.3569-1.6939c-.1119.0267-.3516.0746-.5646.0746-.4528 0-.783-.1705-.7671-.799v-3.9418h1.5394z"/><path d="m98.6605 38.1598c2.0295 0 3.3875-.9854 3.7075-2.5035l-2.093-.1385c-.23.6232-.8208.9481-1.5719.9481-1.1346 0-1.8537-.751-1.8537-1.9709v-.0053h5.5716v-.6232c0-2.7806-1.683-4.1548-3.8457-4.1548-2.4077 0-3.9684 1.7098-3.9684 4.2347 0 2.5941 1.5394 4.2134 4.0536 4.2134zm-1.8111-5.0763c.0426-.9322.7564-1.678 1.7632-1.678.9801 0 1.6624.7032 1.6724 1.678z"/><path d="m113.366 30.2283h2.211c-.032-1.9442-1.63-3.2865-4.059-3.2865-2.392 0-4.144 1.321-4.134 3.3025-.005 1.6087 1.13 2.5302 2.973 2.9723l1.187.2983c1.188.2877 1.849.6286 1.854 1.3637-.005.799-.762 1.3423-1.933 1.3423-1.199 0-2.062-.554-2.136-1.646h-2.232c.058 2.3598 1.747 3.5796 4.394 3.5796 2.664 0 4.23-1.2731 4.235-3.2706-.005-1.8164-1.374-2.7806-3.271-3.2067l-.98-.2344c-.948-.2184-1.742-.5699-1.726-1.353 0-.7031.624-1.2198 1.753-1.2198 1.102 0 1.779.5007 1.864 1.3583z"/><path d="m119.568 38.1545c1.209 0 1.992-.5274 2.392-1.2891h.063v1.1346h2.152v-5.5185c0-1.9495-1.667-2.7698-3.435-2.7698-2.014 0-3.287.9375-3.601 2.4289l2.099.1705c.154-.5433.639-.9428 1.454-.9428.783 0 1.209.3835 1.214 1.0706.006.538-.559.6179-1.981.7564-1.62.1492-3.074.6925-3.074 2.5195 0 1.6194 1.156 2.4397 2.717 2.4397zm.65-1.5661c-.698 0-1.199-.3249-1.199-.9481 0-.6392.528-.9535 1.327-1.0654.495-.0692 1.305-.1864 1.576-.3675v.8682c0 .8576-.708 1.5128-1.704 1.5128z"/><path d="m128.205 33.2699c.005-1.0547.634-1.6726 1.55-1.6726.911 0 1.46.5966 1.454 1.598v4.8047h2.27v-5.2095c0-1.907-1.119-3.0788-2.824-3.0788-1.214 0-2.093.5965-2.461 1.55h-.095v-1.4435h-2.163v8.1818h2.269z"/><path d="m142.943 38v-10.9091h-2.269v4.1016h-.07c-.303-.6659-.958-1.4808-2.327-1.4808-1.796 0-3.314 1.3956-3.314 4.2081 0 2.7379 1.455 4.2134 3.319 4.2134 1.321 0 2.008-.7617 2.322-1.4436h.102v1.3104zm-2.221-4.0909c0 1.4595-.629 2.4183-1.721 2.4183-1.113 0-1.721-.9907-1.721-2.4183 0-1.4169.597-2.3917 1.721-2.3917 1.103 0 1.721.9322 1.721 2.3917z"/><path d="m63.7898 81h1.0142l.3728-2.8239h2.0881l-.3729 2.8239h.9944l.3828-2.8239h1.4865l.1392-.9943h-1.4915l.343-2.5454h1.4667l.1392-1.0341h-1.4666l.3728-2.7841h-1.0142l-.3679 2.7841h-2.088l.3678-2.7841h-1.0142l-.3679 2.7841h-1.5213l-.1392 1.0341h1.5213l-.338 2.5454h-1.5014l-.1393.9943h1.5064zm1.5213-3.8182.338-2.5454h2.0881l-.3381 2.5454z"/><path d="m72.2154 81h1.2329v-4.554h4.4148v-1.0937h-4.4148v-3.4404h4.8722v-1.0937h-6.1051z"/><path d="m80.4322 81h1.2329v-4.554h4.4148v-1.0937h-4.4148v-3.4404h4.8722v-1.0937h-6.1051z"/><path d="m88.649 81h1.2329v-4.554h4.4148v-1.0937h-4.4148v-3.4404h4.8722v-1.0937h-6.1051z"/><path d="m96.8658 81h1.2329v-4.554h4.4143v-1.0937h-4.4143v-3.4404h4.8723v-1.0937h-6.1052z"/><path d="m105.083 81h1.233v-4.554h4.414v-1.0937h-4.414v-3.4404h4.872v-1.0937h-6.105z"/><path d="m113.299 81h1.233v-4.554h4.415v-1.0937h-4.415v-3.4404h4.872v-1.0937h-6.105z"/><path d="m63.054 103h6.4233v-1.094h-4.733v-.079l2.2869-2.4463c1.75-1.8743 2.2671-2.7493 2.2671-3.8779 0-1.571-1.2728-2.8238-3.0625-2.8238-1.7848 0-3.1421 1.2131-3.1421 3.0028h1.1733c0-1.1584.7507-1.929 1.929-1.929 1.1037 0 1.9489.6762 1.9489 1.75 0 .9397-.5519 1.6357-1.7301 2.9233l-3.3608 3.6789z"/><path d="m74.7123 103.139c1.939 0 3.3608-1.432 3.3608-3.3805 0-1.9737-1.3721-3.4204-3.2414-3.4204-.6861 0-1.3523.2436-1.7699.5767h-.0597l.358-3.0029h4.2556v-1.0937h-5.2897l-.6165 5.0114 1.1534.1392c.4226-.3033 1.1435-.5221 1.7699-.5171 1.2976.01 2.2471.9943 2.2471 2.3267 0 1.3076-.9147 2.2666-2.1676 2.2666-1.044 0-1.8743-.671-1.9687-1.59h-1.1932c.0746 1.551 1.4119 2.684 3.1619 2.684z"/><path d="m83.2299 103.139c1.9389 0 3.3608-1.432 3.3608-3.3805 0-1.9737-1.3722-3.4204-3.2415-3.4204-.686 0-1.3522.2436-1.7699.5767h-.0596l.3579-3.0029h4.2557v-1.0937h-5.2898l-.6164 5.0114 1.1534.1392c.4226-.3033 1.1434-.5221 1.7699-.5171 1.2976.01 2.2471.9943 2.2471 2.3267 0 1.3076-.9147 2.2666-2.1676 2.2666-1.044 0-1.8743-.671-1.9687-1.59h-1.1932c.0746 1.551 1.4119 2.684 3.1619 2.684z"/><path d="m89.857 101.608h-1.2727l-.0596.557c-.1442 1.347-.4276 2.689-.5569 3.321h.8949c.2387-.676.7458-2.208.9148-3.341z"/><path d="m95.9485 103h6.4235v-1.094h-4.7332v-.079l2.287-2.4463c1.7502-1.8743 2.2672-2.7493 2.2672-3.8779 0-1.571-1.273-2.8238-3.0627-2.8238-1.7848 0-3.142 1.2131-3.142 3.0028h1.1733c0-1.1584.7507-1.929 1.9289-1.929 1.1035 0 1.9485.6762 1.9485 1.75 0 .9397-.551 1.6357-1.7297 2.9233l-3.3608 3.6789z"/><path d="m107.607 103.139c1.939 0 3.361-1.432 3.361-3.3805 0-1.9737-1.372-3.4204-3.242-3.4204-.686 0-1.352.2436-1.77.5767h-.059l.358-3.0029h4.255v-1.0937h-5.289l-.617 5.0114 1.153.1392c.423-.3033 1.144-.5221 1.77-.5171 1.298.01 2.247.9943 2.247 2.3267 0 1.3076-.914 2.2666-2.167 2.2666-1.044 0-1.874-.671-1.969-1.59h-1.193c.075 1.551 1.412 2.684 3.162 2.684z"/><path d="m116.124 103.139c1.939 0 3.361-1.432 3.361-3.3805 0-1.9737-1.372-3.4204-3.241-3.4204-.686 0-1.353.2436-1.77.5767h-.06l.358-3.0029h4.256v-1.0937h-5.29l-.616 5.0114 1.153.1392c.423-.3033 1.143-.5221 1.77-.5171 1.297.01 2.247.9943 2.247 2.3267 0 1.3076-.915 2.2666-2.168 2.2666-1.044 0-1.874-.671-1.968-1.59h-1.193c.074 1.551 1.411 2.684 3.161 2.684z"/><path d="m122.752 101.608h-1.273l-.06.557c-.144 1.347-.427 2.689-.557 3.321h.895c.239-.676.746-2.208.915-3.341z"/><path d="m128.843 103h6.423v-1.094h-4.733v-.079l2.287-2.4463c1.75-1.8743 2.267-2.7493 2.267-3.8779 0-1.571-1.272-2.8238-3.062-2.8238-1.785 0-3.142 1.2131-3.142 3.0028h1.173c0-1.1584.751-1.929 1.929-1.929 1.104 0 1.949.6762 1.949 1.75 0 .9397-.552 1.6357-1.73 2.9233l-3.361 3.6789z"/><path d="m140.501 103.139c1.939 0 3.361-1.432 3.361-3.3805 0-1.9737-1.372-3.4204-3.241-3.4204-.686 0-1.353.2436-1.77.5767h-.06l.358-3.0029h4.256v-1.0937h-5.29l-.616 5.0114 1.153.1392c.423-.3033 1.143-.5221 1.77-.5171 1.297.01 2.247.9943 2.247 2.3267 0 1.3076-.915 2.2666-2.168 2.2666-1.044 0-1.874-.671-1.968-1.59h-1.194c.075 1.551 1.412 2.684 3.162 2.684z"/><path d="m149.019 103.139c1.939 0 3.361-1.432 3.361-3.3805 0-1.9737-1.372-3.4204-3.242-3.4204-.686 0-1.352.2436-1.77.5767h-.059l.358-3.0029h4.255v-1.0937h-5.289l-.617 5.0114 1.154.1392c.422-.3033 1.143-.5221 1.769-.5171 1.298.01 2.248.9943 2.248 2.3267 0 1.3076-.915 2.2666-2.168 2.2666-1.044 0-1.874-.671-1.969-1.59h-1.193c.075 1.551 1.412 2.684 3.162 2.684z"/><path d="m80.4148 125.139c2.1477 0 3.5-2.008 3.5-5.23 0-3.202-1.3523-5.23-3.5-5.23s-3.5 2.028-3.5 5.23c0 3.222 1.3523 5.23 3.5 5.23zm0-1.094c-1.3821 0-2.2869-1.59-2.2869-4.136 0-2.545.8948-4.156 2.2869-4.156 1.392 0 2.2869 1.611 2.2869 4.156 0 2.546-.9048 4.136-2.2869 4.136z"/><path d="m87.6559 123.608h-1.2727l-.0597.557c-.1441 1.347-.4275 2.689-.5568 3.321h.8949c.2386-.676.7457-2.208.9148-3.341z"/><path d="m97.1082 125.139c2.1477 0 3.4998-2.008 3.4998-5.23 0-3.202-1.3521-5.23-3.4998-5.23-2.1478 0-3.5 2.028-3.5 5.23 0 3.222 1.3522 5.23 3.5 5.23zm0-1.094c-1.3821 0-2.287-1.59-2.287-4.136 0-2.545.8949-4.156 2.287-4.156 1.392 0 2.2869 1.611 2.2869 4.156 0 2.546-.9048 4.136-2.2869 4.136z"/><path d="m104.349 123.608h-1.272l-.06.557c-.144 1.347-.428 2.689-.557 3.321h.895c.239-.676.746-2.208.915-3.341z"/><path d="m113.802 125.139c2.147 0 3.5-2.008 3.5-5.23 0-3.202-1.353-5.23-3.5-5.23-2.148 0-3.5 2.028-3.5 5.23 0 3.222 1.352 5.23 3.5 5.23zm0-1.094c-1.383 0-2.287-1.59-2.287-4.136 0-2.545.894-4.156 2.287-4.156 1.392 0 2.286 1.611 2.286 4.156 0 2.546-.904 4.136-2.286 4.136z"/><path d="m121.043 123.608h-1.273l-.06.557c-.144 1.347-.427 2.689-.557 3.321h.895c.239-.676.746-2.208.915-3.341z"/><path d="m130.495 125.139c2.148 0 3.5-2.008 3.5-5.23 0-3.202-1.352-5.23-3.5-5.23s-3.5 2.028-3.5 5.23c0 3.222 1.352 5.23 3.5 5.23zm0-1.094c-1.382 0-2.287-1.59-2.287-4.136 0-2.545.895-4.156 2.287-4.156s2.287 1.611 2.287 4.156c0 2.546-.905 4.136-2.287 4.136z"/><path d="m24.885 81h2.1527v-4.206h4.37v4.206h2.1478v-10.1818h-2.1478v4.201h-4.37v-4.201h-2.1527z"/><path d="m35.3303 81h6.8807v-1.7749h-4.728v-2.4311h4.3551v-1.7748h-4.3551v-2.4262h4.7081v-1.7748h-6.8608z"/><path d="m45.9211 70.8182h-2.4411l3.1271 5.0909-3.1868 5.0909h2.466l2.088-3.4751h.0796l2.088 3.4751h2.4759l-3.1769-5.0909 3.1073-5.0909h-2.4311l-2.0632 3.4701h-.0796z"/><path d="m55.1583 74.5568c.6463 0 1.1981-.5319 1.2081-1.1932-.01-.6463-.5618-1.1733-1.2081-1.1733-.6513 0-1.1982.5171-1.1932 1.1733-.005.6613.5369 1.1932 1.1932 1.1932zm0 5.1158c.6463 0 1.1981-.532 1.2081-1.1932-.01-.6463-.5618-1.1733-1.2081-1.1733-.6513 0-1.1982.517-1.1932 1.1733-.005.6612.5369 1.1932 1.1932 1.1932z"/><path d="m24.885 103h2.1527v-3.7486h1.6406l1.9439 3.7486h2.3764l-2.1676-4.0966c1.1286-.5121 1.7898-1.5163 1.7898-2.8388 0-1.9985-1.3473-3.2464-3.669-3.2464h-4.0668zm2.1527-5.3643v-3.0576h1.745c1.0341 0 1.6108.5767 1.6108 1.5313 0 .9346-.5618 1.5263-1.6655 1.5263z"/><path d="m33.9756 97.919c0 3.222 1.924 5.22 4.7826 5.22 2.5703 0 4.4297-1.625 4.4297-4.3052v-1.2827h-4.2606v1.6208h2.1278c0 1.2681-1.0192 2.0631-2.2869 2.0631-1.5959 0-2.6101-1.183-2.6101-3.3358 0-2.0981.9993-3.3161 2.5454-3.3161 1.1187 0 1.8843.5717 2.1875 1.5263h2.2025c-.2784-2.0135-2.0881-3.4304-4.39-3.4304-2.6896 0-4.7279 1.9389-4.7279 5.24z"/><path d="m44.8049 103h4.3502c2.2869 0 3.5049-1.193 3.5049-2.814 0-1.5063-1.0788-2.4161-2.2372-2.4708v-.0994c1.059-.2387 1.8395-.9894 1.8395-2.1875 0-1.5263-1.1335-2.6101-3.3807-2.6101h-4.0767zm2.1527-1.76v-2.7045h1.8047c1.0341 0 1.6754.5966 1.6754 1.4368 0 .7657-.522 1.2677-1.7251 1.2677zm0-4.1612v-2.5206h1.6357c.9545 0 1.4964.4922 1.4964 1.228 0 .8054-.6562 1.2926-1.5362 1.2926z"/><path d="m55.3087 96.5568c.6463 0 1.1981-.5319 1.2081-1.1932-.01-.6463-.5618-1.1733-1.2081-1.1733-.6513 0-1.1982.5171-1.1932 1.1733-.005.6613.5369 1.1932 1.1932 1.1932zm0 5.1162c.6463 0 1.1981-.532 1.2081-1.194-.01-.6459-.5618-1.1729-1.2081-1.1729-.6513 0-1.1982.5171-1.1932 1.1729-.005.662.5369 1.194 1.1932 1.194z"/><path d="m33.8687 118.383c-.2834-2.352-2.0632-3.704-4.4197-3.704-2.6897 0-4.7429 1.899-4.7429 5.23 0 3.321 2.0184 5.23 4.7429 5.23 2.61 0 4.186-1.735 4.4197-3.609l-2.1776-.01c-.2038 1.089-1.0589 1.715-2.2073 1.715-1.5462 0-2.5952-1.148-2.5952-3.326 0-2.118 1.0341-3.326 2.6101-3.326 1.1782 0 2.0284.681 2.1924 1.8z"/><path d="m35.4124 114.818v10.182h2.088v-6.652h.0846l2.6349 6.602h1.4219l2.6349-6.577h.0845v6.627h2.0881v-10.182h-2.6548l-2.804 6.841h-.1193l-2.804-6.841z"/><path d="m47.6313 114.818 3.7138 6.583v3.599h2.1427v-3.599l3.7138-6.583h-2.4162l-2.3217 4.385h-.0945l-2.3217-4.385z"/><path d="m58.3811 125h2.1527v-2.893l1.059-1.293 2.789 4.186h2.5753l-3.8231-5.623 3.7784-4.559h-2.5803l-3.664 4.49h-.1343v-4.49h-2.1527z"/><path d="m69.2813 118.557c.6463 0 1.1982-.532 1.2081-1.193-.0099-.647-.5618-1.174-1.2081-1.174-.6512 0-1.1981.517-1.1931 1.174-.005.661.5369 1.193 1.1931 1.193zm0 5.116c.6463 0 1.1982-.532 1.2081-1.194-.0099-.646-.5618-1.173-1.2081-1.173-.6512 0-1.1981.517-1.1931 1.173-.005.662.5369 1.194 1.1931 1.194z"/><path d="m350.979 88 .934-2.6946h3.978l.929 2.6946h1.631l-3.664-10.1818h-1.775l-3.664 10.1818zm1.382-3.9872 1.501-4.3452h.08l1.501 4.3452z"/></g><path d="m335 111c0-1.657 1.343-3 3-3h33c1.657 0 3 1.343 3 3v10c0 1.657-1.343 3-3 3h-33c-1.657 0-3-1.343-3-3z" fill="#000"/><g fill="#fff"><path clip-rule="evenodd" d="m338 107h33c2.209 0 4 1.791 4 4v10c0 2.209-1.791 4-4 4h-33c-2.209 0-4-1.791-4-4v-10c0-2.209 1.791-4 4-4zm0 1c-1.657 0-3 1.343-3 3v10c0 1.657 1.343 3 3 3h33c1.657 0 3-1.343 3-3v-10c0-1.657-1.343-3-3-3z" fill-rule="evenodd"/><path d="m338.707 121h1.712v-3.195h1.81c2.184 0 3.361-1.315 3.356-3.13.005-1.809-1.159-3.13-3.333-3.13h-3.545zm1.712-4.603v-3.42h1.57c1.283 0 1.856.701 1.851 1.698.005 1.016-.568 1.722-1.842 1.722z"/><path d="m347.233 121 .78-2.331h3.555l.785 2.331h1.828l-3.333-9.455h-2.114l-3.329 9.455zm1.242-3.707 1.279-3.809h.074l1.278 3.809z"/><path d="m360.412 114.145h1.648c-.032-1.598-1.394-2.729-3.407-2.729-1.985 0-3.476 1.117-3.471 2.789 0 1.357.964 2.137 2.52 2.539l1.076.277c1.02.258 1.694.577 1.699 1.311-.005.808-.771 1.348-1.888 1.348-1.071 0-1.902-.48-1.972-1.473h-1.685c.07 1.879 1.468 2.936 3.67 2.936 2.267 0 3.583-1.131 3.587-2.797-.004-1.639-1.357-2.387-2.779-2.724l-.886-.222c-.776-.184-1.616-.512-1.607-1.302.005-.711.642-1.232 1.713-1.232 1.02 0 1.694.475 1.782 1.279z"/><path d="m368.854 114.145h1.649c-.033-1.598-1.395-2.729-3.407-2.729-1.986 0-3.477 1.117-3.472 2.789 0 1.357.965 2.137 2.521 2.539l1.075.277c1.02.258 1.694.577 1.699 1.311-.005.808-.771 1.348-1.888 1.348-1.071 0-1.902-.48-1.971-1.473h-1.685c.069 1.879 1.468 2.936 3.67 2.936 2.266 0 3.582-1.131 3.587-2.797-.005-1.639-1.357-2.387-2.779-2.724l-.887-.222c-.775-.184-1.615-.512-1.606-1.302.004-.711.641-1.232 1.712-1.232 1.021 0 1.695.475 1.782 1.279z"/><path d="m400.979 88 .934-2.6946h3.978l.929 2.6946h1.631l-3.664-10.1818h-1.775l-3.664 10.1818zm1.382-3.9872 1.501-4.3452h.08l1.501 4.3452z"/></g><path d="m384 111c0-1.657 1.343-3 3-3h33c1.657 0 3 1.343 3 3v10c0 1.657-1.343 3-3 3h-33c-1.657 0-3-1.343-3-3z" fill="#000"/><path clip-rule="evenodd" d="m387 107h33c2.209 0 4 1.791 4 4v10c0 2.209-1.791 4-4 4h-33c-2.209 0-4-1.791-4-4v-10c0-2.209 1.791-4 4-4zm0 1c-1.657 0-3 1.343-3 3v10c0 1.657 1.343 3 3 3h33c1.657 0 3-1.343 3-3v-10c0-1.657-1.343-3-3-3z" fill="#fff" fill-rule="evenodd"/><path d="m391.045 121h1.713v-4.016h3.929v-1.436h-3.929v-2.567h4.344v-1.436h-6.057z" fill="#fff"/><path d="m398.696 121 .78-2.331h3.555l.785 2.331h1.828l-3.333-9.455h-2.115l-3.328 9.455zm1.242-3.707 1.279-3.809h.074l1.278 3.809z" fill="#fff"/><path d="m408.602 111.545h-1.713v9.455h1.713z" fill="#fff"/><path d="m410.457 121h5.876v-1.436h-4.164v-8.019h-1.712z" fill="#fff"/></svg>