<svg fill="none" height="154" viewBox="0 0 447 154" width="447" xmlns="http://www.w3.org/2000/svg"><path d="m0 6c0-3.31371 2.68629-6 6-6h435c3.314 0 6 2.68629 6 6v142c0 3.314-2.686 6-6 6h-434.99999c-3.31371 0-6.00001-2.686-6.00001-6z" fill="#1f2f47"/><g fill="#fff"><path d="m34.0729 27.0909h-2.2958v6.8608h-.0959l-4.7088-6.8608h-2.0242v10.9091h2.3065v-6.8661h.0799l4.7461 6.8661h1.9922z"/><path d="m39.9842 38.1492c2.4503 0 4.2241-1.3157 4.2347-3.0842-.0106-1.3636-1.0547-2.4769-2.365-2.6953v-.0746c1.1399-.2344 1.9495-1.2251 1.9602-2.4183-.0107-1.6886-1.63-2.935-3.8299-2.935-2.2159 0-3.8352 1.2464-3.8246 2.935-.0106 1.1932.799 2.1839 1.9603 2.4183v.0746c-1.3317.2184-2.3758 1.3317-2.3651 2.6953-.0107 1.7685 1.7578 3.0842 4.2294 3.0842zm0-1.6939c-1.1026 0-1.843-.6446-1.8324-1.5714-.0106-.9428.7671-1.6247 1.8324-1.6247 1.0494 0 1.8217.6819 1.8324 1.6247-.0107.9268-.7458 1.5714-1.8324 1.5714zm0-4.874c-.9268 0-1.5874-.6019-1.5767-1.4648-.0107-.847.6392-1.4382 1.5767-1.4382.9215 0 1.566.5912 1.5767 1.4382-.0107.8629-.6658 1.4648-1.5767 1.4648z"/><path d="m49.9598 38.2397c2.7006 0 4.2294-2.0135 4.2347-5.6676-.0053-3.6381-1.5341-5.6303-4.2347-5.6303-2.706 0-4.2347 2.0028-4.2347 5.641-.0107 3.6487 1.5287 5.6516 4.2347 5.6569zm0-1.9016c-1.3317 0-2.0508-1.3157-2.0401-3.7553 0-2.4344.7084-3.7607 2.0401-3.7607 1.3157 0 2.0295 1.3263 2.0401 3.7607.0053 2.4396-.7138 3.7553-2.0401 3.7553z"/><path d="m59.9793 38.2397c2.7007 0 4.2294-2.0135 4.2347-5.6676-.0053-3.6381-1.534-5.6303-4.2347-5.6303-2.706 0-4.2347 2.0028-4.2347 5.641-.0107 3.6487 1.5287 5.6516 4.2347 5.6569zm0-1.9016c-1.3317 0-2.0508-1.3157-2.0401-3.7553 0-2.4344.7084-3.7607 2.0401-3.7607 1.3157 0 2.0295 1.3263 2.0401 3.7607.0054 2.4396-.7137 3.7553-2.0401 3.7553z"/><path d="m74.8182 32.5561h-5.4759v1.662h5.4759z"/><path d="m80.1289 38h7.3722v-1.9016h-5.0657v-2.6048h4.6662v-1.9016h-4.6662v-2.5994h5.0444v-1.9017h-7.3509z"/><path d="m91.54 27.0909h-2.2691v10.9091h2.2691z"/><path d="m97.1078 38.1598c2.0295 0 3.3882-.9854 3.7072-2.5035l-2.0932-.1385c-.2291.6232-.8203.9481-1.5714.9481-1.1346 0-1.8537-.751-1.8537-1.9709v-.0053h5.5713v-.6232c0-2.7806-1.6828-4.1548-3.8454-4.1548-2.4077 0-3.9684 1.7098-3.9684 4.2347 0 2.5941 1.5394 4.2134 4.0536 4.2134zm-1.8111-5.0763c.0426-.9322.7564-1.6779 1.7631-1.6779.9802 0 1.662.7031 1.6726 1.6779z"/><path d="m107.042 38.1332c1.87 0 3.324-1.4755 3.319-4.2134.005-2.8125-1.513-4.2081-3.314-4.2081-1.369 0-2.024.8149-2.327 1.4808h-.102v-1.3743h-2.237v11.25h2.269v-4.3786h.07c.309.6819.996 1.4436 2.322 1.4436zm-.719-1.8058c-1.092 0-1.715-.9535-1.721-2.4183.006-1.4542.618-2.3917 1.721-2.3917 1.124 0 1.721.9695 1.721 2.3917 0 1.4329-.608 2.4183-1.721 2.4183z"/><path d="m114.143 33.2699c.005-1.0547.649-1.6726 1.576-1.6726.922 0 1.465.5913 1.46 1.598v4.8047h2.269v-5.2095c.005-1.9176-1.124-3.0788-2.829-3.0788-1.241 0-2.072.5859-2.444 1.55h-.096v-4.1708h-2.206v10.9091h2.27z"/><path d="m123.567 38.1545c1.209 0 1.992-.5274 2.392-1.2891h.063v1.1346h2.152v-5.5185c0-1.9495-1.667-2.7698-3.435-2.7698-2.014 0-3.287.9375-3.601 2.4289l2.099.1705c.154-.5433.639-.9428 1.454-.9428.783 0 1.209.3835 1.214 1.0706.006.538-.559.6179-1.981.7564-1.62.1492-3.074.6925-3.074 2.5196 0 1.6193 1.156 2.4396 2.717 2.4396zm.65-1.5661c-.698 0-1.199-.3249-1.199-.9481 0-.6392.528-.9535 1.327-1.0654.495-.0692 1.305-.1864 1.576-.3675v.8683c0 .8575-.708 1.5127-1.704 1.5127z"/><path d="m132.204 33.2699c.005-1.0547.634-1.6726 1.55-1.6726.911 0 1.46.5966 1.454 1.598v4.8047h2.27v-5.2095c0-1.907-1.119-3.0788-2.824-3.0788-1.214 0-2.093.5965-2.461 1.55h-.095v-1.4435h-2.163v8.1818h2.269z"/><path d="m143.618 29.8182h-1.54v-1.9602h-2.269v1.9602h-1.118v1.7045h1.118v4.2454c-.01 1.598 1.082 2.3917 2.728 2.3278.586-.0266 1.001-.1438 1.23-.2131l-.357-1.6939c-.112.0267-.351.0746-.564.0746-.453 0-.783-.1704-.768-.799v-3.9418h1.54z"/><path d="m63.7898 81h1.0142l.3728-2.8239h2.0881l-.3729 2.8239h.9944l.3828-2.8239h1.4865l.1392-.9943h-1.4915l.343-2.5454h1.4667l.1392-1.0341h-1.4666l.3728-2.7841h-1.0142l-.3679 2.7841h-2.088l.3678-2.7841h-1.0142l-.3679 2.7841h-1.5213l-.1392 1.0341h1.5213l-.338 2.5454h-1.5014l-.1393.9943h1.5064zm1.5213-3.8182.338-2.5454h2.0881l-.3381 2.5454z"/><path d="m75.2381 70.8182h-1.0341c-.0646.1044-.7954 1.5114-2.3665 1.5114v1.034c1.1684 0 2.0036-.4772 2.1478-.7556h.0795v8.392h1.1733z"/><path d="m78.3404 81h1.2329v-4.554h4.4148v-1.0937h-4.4148v-3.4404h4.8722v-1.0937h-6.1051z"/><path d="m86.3782 81h6.4233v-1.0937h-4.733v-.0796l2.287-2.446c1.75-1.8743 2.267-2.7493 2.267-3.8779 0-1.571-1.2727-2.8238-3.0625-2.8238-1.7848 0-3.142 1.2131-3.142 3.0028h1.1733c0-1.1584.7507-1.929 1.9289-1.929 1.1037 0 1.9489.6762 1.9489 1.75 0 .9397-.5518 1.6357-1.7301 2.9233l-3.3608 3.679z"/><path d="m95.0337 81h1.233v-4.554h4.4143v-1.0937h-4.4143v-3.4404h4.8723v-1.0937h-6.1053z"/><path d="m102.833 78.9119h4.793v2.0881h1.173v-2.0881h1.392v-1.0937h-1.392v-7h-1.492l-4.474 7.0795zm4.793-1.0937h-3.461v-.0796l3.381-5.3494h.08z"/><path d="m112.372 81h1.293l4.534-9.0284v-1.1534h-6.523v1.0937h5.25v.0796z"/><path d="m66.4944 103.139c1.9737 0 3.4403-1.238 3.4403-2.903 0-1.2928-.7656-2.2324-2.0482-2.4462v-.0796c1.0291-.3132 1.6704-1.1583 1.6704-2.3068 0-1.4417-1.1385-2.7244-3.0227-2.7244-1.76 0-3.2216 1.0838-3.2813 2.6846h1.1932c.0448-1.0142 1.0092-1.6108 2.0682-1.6108 1.1236 0 1.8494.6812 1.8494 1.7103 0 1.0738-.8402 1.7699-2.0483 1.7699h-.8153v1.0937h.8153c1.5462 0 2.4063.7855 2.4063 1.9093 0 1.079-.9397 1.809-2.2472 1.809-1.1782 0-2.1129-.606-2.1875-1.59h-1.2528c.0746 1.6 1.4865 2.684 3.4602 2.684z"/><path d="m75.1698 92.8182h-1.0341c-.0646.1044-.7954 1.5114-2.3664 1.5114v1.034c1.1683 0 2.0035-.4772 2.1477-.7556h.0795v8.392h1.1733z"/><path d="m79.863 101.608h-1.2727l-.0597.557c-.1441 1.347-.4275 2.689-.5568 3.321h.8949c.2386-.676.7457-2.208.9148-3.341z"/><path d="m85.7158 100.912h4.7926v2.088h1.1733v-2.088h1.3921v-1.0938h-1.3921v-7h-1.4914l-4.4745 7.0795zm4.7926-1.0938h-3.4602v-.0796l3.3807-5.3494h.0795z"/><path d="m95.2551 103h1.2926l4.5343-9.0284v-1.1534h-6.523v1.0937h5.25v.0796z"/><path d="m102.955 101.608h-1.273l-.06.557c-.144 1.347-.427 2.689-.556 3.321h.894c.239-.676.746-2.208.915-3.341z"/><path d="m109.364 103h1.293l4.534-9.0284v-1.1534h-6.523v1.0937h5.25v.0796z"/><path d="m120.246 92.8182h-1.034c-.065.1044-.796 1.5114-2.367 1.5114v1.034c1.169 0 2.004-.4772 2.148-.7556h.08v8.392h1.173z"/><path d="m80.2956 114.659c-2.0682-.02-3.4006 1.531-3.4006 3.421 0 1.968 1.4517 3.38 3.2017 3.38 1.054 0 1.9489-.517 2.5057-1.352h.0796c0 2.506-.9745 3.937-2.5455 3.937-1.0739 0-1.7301-.676-1.9489-1.61h-1.213c.2386 1.61 1.4517 2.704 3.1619 2.704 2.2869 0 3.6989-2.028 3.6989-5.648 0-3.758-1.8694-4.812-3.5398-4.832zm0 1.094c1.2727 0 2.2074 1.094 2.2074 2.307s-.9943 2.306-2.2472 2.306c-1.2528 0-2.1676-1.014-2.1676-2.286 0-1.293.9545-2.327 2.2074-2.327z"/><path d="m89.1512 125.139c2.1478 0 3.5-2.008 3.5-5.23 0-3.202-1.3522-5.23-3.5-5.23-2.1477 0-3.5 2.028-3.5 5.23 0 3.222 1.3523 5.23 3.5 5.23zm0-1.094c-1.3821 0-2.2869-1.59-2.2869-4.136 0-2.545.8949-4.156 2.2869-4.156 1.3921 0 2.287 1.611 2.287 4.156 0 2.546-.9049 4.136-2.287 4.136z"/><path d="m95.4975 125.08c.4971 0 .8949-.398.8949-.895 0-.478-.3978-.875-.8949-.875-.4773 0-.8949.378-.8949.875s.3977.895.8949.895z"/><path d="m101.298 125.139c2.058.025 3.401-1.526 3.401-3.42 0-1.969-1.457-3.381-3.202-3.381-1.049 0-1.9489.512-2.5057 1.352h-.0796c.005-2.5.9695-3.937 2.5453-3.937 1.074 0 1.72.676 1.949 1.611h1.213c-.248-1.601-1.452-2.705-3.162-2.705-2.2917 0-3.6987 2.029-3.6987 5.648 0 3.763 1.8693 4.812 3.5397 4.832zm0-1.094c-1.278 0-2.2123-1.088-2.2073-2.306s.9843-2.307 2.2473-2.307c1.248 0 2.167 1.024 2.167 2.287 0 1.292-.959 2.326-2.207 2.326z"/><path d="m110.094 125.139c1.974 0 3.44-1.238 3.44-2.903 0-1.293-.765-2.232-2.048-2.446v-.08c1.029-.313 1.671-1.158 1.671-2.307 0-1.441-1.139-2.724-3.023-2.724-1.76 0-3.222 1.084-3.281 2.685h1.193c.045-1.015 1.009-1.611 2.068-1.611 1.124 0 1.849.681 1.849 1.71 0 1.074-.84 1.77-2.048 1.77h-.815v1.094h.815c1.546 0 2.406.785 2.406 1.909 0 1.079-.939 1.809-2.247 1.809-1.178 0-2.113-.606-2.187-1.59h-1.253c.074 1.6 1.486 2.684 3.46 2.684z"/><path d="m116.859 123.608h-1.273l-.059.557c-.144 1.347-.428 2.689-.557 3.321h.895c.238-.676.746-2.208.915-3.341z"/><path d="m123.269 125h1.292l4.534-9.028v-1.154h-6.522v1.094h5.25v.079z"/><path d="m131.54 125h1.293l4.534-9.028v-1.154h-6.523v1.094h5.25v.079z"/><path d="m138.345 125.08c.497 0 .895-.398.895-.895 0-.478-.398-.875-.895-.875-.477 0-.895.378-.895.875s.398.895.895.895z"/><path d="m144.507 125.139c1.939 0 3.361-1.432 3.361-3.38 0-1.974-1.372-3.421-3.241-3.421-.686 0-1.353.244-1.77.577h-.06l.358-3.003h4.256v-1.094h-5.29l-.616 5.012 1.153.139c.423-.304 1.143-.522 1.77-.517 1.297.01 2.247.994 2.247 2.326 0 1.308-.915 2.267-2.168 2.267-1.044 0-1.874-.671-1.968-1.59h-1.194c.075 1.551 1.412 2.684 3.162 2.684z"/><path d="m150.161 125h1.293l4.534-9.028v-1.154h-6.523v1.094h5.25v.079z"/><path d="m157.861 123.608h-1.273l-.059.557c-.144 1.347-.428 2.689-.557 3.321h.895c.238-.676.746-2.208.915-3.341z"/><path d="m163.714 122.912h4.793v2.088h1.173v-2.088h1.392v-1.094h-1.392v-7h-1.492l-4.474 7.08zm4.793-1.094h-3.461v-.079l3.381-5.35h.08z"/><path d="m176.316 125.139c2.058.025 3.4-1.526 3.4-3.42 0-1.969-1.456-3.381-3.201-3.381-1.049 0-1.949.512-2.506 1.352h-.08c.005-2.5.97-3.937 2.546-3.937 1.074 0 1.72.676 1.949 1.611h1.213c-.249-1.601-1.452-2.705-3.162-2.705-2.292 0-3.699 2.029-3.699 5.648 0 3.763 1.869 4.812 3.54 4.832zm0-1.094c-1.278 0-2.213-1.088-2.208-2.306s.985-2.307 2.247-2.307c1.248 0 2.168 1.024 2.168 2.287 0 1.292-.959 2.326-2.207 2.326z"/><path d="m182.068 125.08c.497 0 .895-.398.895-.895 0-.478-.398-.875-.895-.875-.477 0-.895.378-.895.875s.398.895.895.895z"/><path d="m187.539 114.818h-1.034c-.065.105-.796 1.512-2.367 1.512v1.034c1.169 0 2.004-.478 2.148-.756h.08v8.392h1.173z"/><path d="m193.903 125.139c1.973 0 3.44-1.238 3.44-2.903 0-1.293-.766-2.232-2.048-2.446v-.08c1.029-.313 1.67-1.158 1.67-2.307 0-1.441-1.138-2.724-3.023-2.724-1.76 0-3.221 1.084-3.281 2.685h1.193c.045-1.015 1.01-1.611 2.069-1.611 1.123 0 1.849.681 1.849 1.71 0 1.074-.84 1.77-2.048 1.77h-.816v1.094h.816c1.546 0 2.406.785 2.406 1.909 0 1.079-.94 1.809-2.247 1.809-1.179 0-2.113-.606-2.188-1.59h-1.253c.075 1.6 1.487 2.684 3.461 2.684z"/><path d="m200.668 123.608h-1.273l-.06.557c-.144 1.347-.427 2.689-.556 3.321h.894c.239-.676.746-2.208.915-3.341z"/><path d="m206.521 122.912h4.792v2.088h1.173v-2.088h1.393v-1.094h-1.393v-7h-1.491l-4.474 7.08zm4.792-1.094h-3.46v-.079l3.381-5.35h.079z"/><path d="m218.923 125.139c1.939 0 3.361-1.432 3.361-3.38 0-1.974-1.372-3.421-3.241-3.421-.686 0-1.353.244-1.77.577h-.06l.358-3.003h4.256v-1.094h-5.29l-.616 5.012 1.153.139c.423-.304 1.143-.522 1.77-.517 1.297.01 2.247.994 2.247 2.326 0 1.308-.915 2.267-2.168 2.267-1.044 0-1.874-.671-1.968-1.59h-1.193c.074 1.551 1.411 2.684 3.161 2.684z"/><path d="m224.656 125.08c.497 0 .895-.398.895-.895 0-.478-.398-.875-.895-.875-.478 0-.895.378-.895.875s.398.895.895.895z"/><path d="m230.127 114.818h-1.034c-.065.105-.796 1.512-2.367 1.512v1.034c1.169 0 2.004-.478 2.148-.756h.08v8.392h1.173z"/><path d="m236.232 125.139c1.939 0 3.361-1.432 3.361-3.38 0-1.974-1.372-3.421-3.242-3.421-.686 0-1.352.244-1.77.577h-.059l.358-3.003h4.255v-1.094h-5.289l-.617 5.012 1.154.139c.422-.304 1.143-.522 1.769-.517 1.298.01 2.248.994 2.248 2.326 0 1.308-.915 2.267-2.168 2.267-1.044 0-1.874-.671-1.969-1.59h-1.193c.075 1.551 1.412 2.684 3.162 2.684z"/><path d="m24.885 81h2.1527v-4.206h4.37v4.206h2.1478v-10.1818h-2.1478v4.201h-4.37v-4.201h-2.1527z"/><path d="m35.3303 81h6.8807v-1.7749h-4.728v-2.4311h4.3551v-1.7748h-4.3551v-2.4262h4.7081v-1.7748h-6.8608z"/><path d="m45.9211 70.8182h-2.4411l3.1271 5.0909-3.1868 5.0909h2.466l2.088-3.4751h.0796l2.088 3.4751h2.4759l-3.1769-5.0909 3.1073-5.0909h-2.4311l-2.0632 3.4701h-.0796z"/><path d="m55.1583 74.5568c.6463 0 1.1981-.5319 1.2081-1.1932-.01-.6463-.5618-1.1733-1.2081-1.1733-.6513 0-1.1982.5171-1.1932 1.1733-.005.6613.5369 1.1932 1.1932 1.1932zm0 5.1158c.6463 0 1.1981-.532 1.2081-1.1932-.01-.6463-.5618-1.1733-1.2081-1.1733-.6513 0-1.1982.517-1.1932 1.1733-.005.6612.5369 1.1932 1.1932 1.1932z"/><path d="m24.885 103h2.1527v-3.7486h1.6406l1.9439 3.7486h2.3764l-2.1676-4.0966c1.1286-.5121 1.7898-1.5163 1.7898-2.8388 0-1.9985-1.3473-3.2464-3.669-3.2464h-4.0668zm2.1527-5.3643v-3.0576h1.745c1.0341 0 1.6108.5767 1.6108 1.5313 0 .9346-.5618 1.5263-1.6655 1.5263z"/><path d="m33.9756 97.919c0 3.222 1.924 5.22 4.7826 5.22 2.5703 0 4.4297-1.625 4.4297-4.3052v-1.2827h-4.2606v1.6208h2.1278c0 1.2681-1.0192 2.0631-2.2869 2.0631-1.5959 0-2.6101-1.183-2.6101-3.3358 0-2.0981.9993-3.3161 2.5454-3.3161 1.1187 0 1.8843.5717 2.1875 1.5263h2.2025c-.2784-2.0135-2.0881-3.4304-4.39-3.4304-2.6896 0-4.7279 1.9389-4.7279 5.24z"/><path d="m44.8049 103h4.3502c2.2869 0 3.5049-1.193 3.5049-2.814 0-1.5063-1.0788-2.4161-2.2372-2.4708v-.0994c1.059-.2387 1.8395-.9894 1.8395-2.1875 0-1.5263-1.1335-2.6101-3.3807-2.6101h-4.0767zm2.1527-1.76v-2.7045h1.8047c1.0341 0 1.6754.5966 1.6754 1.4368 0 .7657-.522 1.2677-1.7251 1.2677zm0-4.1612v-2.5206h1.6357c.9545 0 1.4964.4922 1.4964 1.228 0 .8054-.6562 1.2926-1.5362 1.2926z"/><path d="m55.3087 96.5568c.6463 0 1.1981-.5319 1.2081-1.1932-.01-.6463-.5618-1.1733-1.2081-1.1733-.6513 0-1.1982.5171-1.1932 1.1733-.005.6613.5369 1.1932 1.1932 1.1932zm0 5.1162c.6463 0 1.1981-.532 1.2081-1.194-.01-.6459-.5618-1.1729-1.2081-1.1729-.6513 0-1.1982.5171-1.1932 1.1729-.005.662.5369 1.194 1.1932 1.194z"/><path d="m33.8687 118.383c-.2834-2.352-2.0632-3.704-4.4197-3.704-2.6897 0-4.7429 1.899-4.7429 5.23 0 3.321 2.0184 5.23 4.7429 5.23 2.61 0 4.186-1.735 4.4197-3.609l-2.1776-.01c-.2038 1.089-1.0589 1.715-2.2073 1.715-1.5462 0-2.5952-1.148-2.5952-3.326 0-2.118 1.0341-3.326 2.6101-3.326 1.1782 0 2.0284.681 2.1924 1.8z"/><path d="m35.4124 114.818v10.182h2.088v-6.652h.0846l2.6349 6.602h1.4219l2.6349-6.577h.0845v6.627h2.0881v-10.182h-2.6548l-2.804 6.841h-.1193l-2.804-6.841z"/><path d="m47.6313 114.818 3.7138 6.583v3.599h2.1427v-3.599l3.7138-6.583h-2.4162l-2.3217 4.385h-.0945l-2.3217-4.385z"/><path d="m58.3811 125h2.1527v-2.893l1.059-1.293 2.789 4.186h2.5753l-3.8231-5.623 3.7784-4.559h-2.5803l-3.664 4.49h-.1343v-4.49h-2.1527z"/><path d="m69.2813 118.557c.6463 0 1.1982-.532 1.2081-1.193-.0099-.647-.5618-1.174-1.2081-1.174-.6512 0-1.1981.517-1.1931 1.174-.005.661.5369 1.193 1.1931 1.193zm0 5.116c.6463 0 1.1982-.532 1.2081-1.194-.0099-.646-.5618-1.173-1.2081-1.173-.6512 0-1.1981.517-1.1931 1.173-.005.662.5369 1.194 1.1931 1.194z"/></g><path d="m350.979 88 .934-2.6946h3.978l.929 2.6946h1.631l-3.664-10.1818h-1.775l-3.664 10.1818zm1.382-3.9872 1.501-4.3452h.08l1.501 4.3452z" fill="#1f2f47"/><path d="m335 111c0-1.657 1.343-3 3-3h33c1.657 0 3 1.343 3 3v10c0 1.657-1.343 3-3 3h-33c-1.657 0-3-1.343-3-3z" fill="#000"/><g fill="#fff"><path clip-rule="evenodd" d="m338 107h33c2.209 0 4 1.791 4 4v10c0 2.209-1.791 4-4 4h-33c-2.209 0-4-1.791-4-4v-10c0-2.209 1.791-4 4-4zm0 1c-1.657 0-3 1.343-3 3v10c0 1.657 1.343 3 3 3h33c1.657 0 3-1.343 3-3v-10c0-1.657-1.343-3-3-3z" fill-rule="evenodd"/><path d="m342.045 121h1.713v-4.016h3.929v-1.436h-3.929v-2.567h4.344v-1.436h-6.057z"/><path d="m349.696 121 .78-2.331h3.555l.785 2.331h1.828l-3.333-9.455h-2.115l-3.328 9.455zm1.242-3.707 1.279-3.809h.074l1.278 3.809z"/><path d="m359.602 111.545h-1.713v9.455h1.713z"/><path d="m361.457 121h5.876v-1.436h-4.164v-8.019h-1.712z"/><path d="m400.979 88 .934-2.6946h3.978l.929 2.6946h1.631l-3.664-10.1818h-1.775l-3.664 10.1818zm1.382-3.9872 1.501-4.3452h.08l1.501 4.3452z"/></g><path d="m384 111c0-1.657 1.343-3 3-3h33c1.657 0 3 1.343 3 3v10c0 1.657-1.343 3-3 3h-33c-1.657 0-3-1.343-3-3z" fill="#000"/><path clip-rule="evenodd" d="m387 107h33c2.209 0 4 1.791 4 4v10c0 2.209-1.791 4-4 4h-33c-2.209 0-4-1.791-4-4v-10c0-2.209 1.791-4 4-4zm0 1c-1.657 0-3 1.343-3 3v10c0 1.657 1.343 3 3 3h33c1.657 0 3-1.343 3-3v-10c0-1.657-1.343-3-3-3z" fill="#fff" fill-rule="evenodd"/><path d="m387.707 121h1.712v-3.195h1.81c2.184 0 3.361-1.315 3.356-3.13.005-1.809-1.159-3.13-3.333-3.13h-3.545zm1.712-4.603v-3.42h1.57c1.283 0 1.856.701 1.851 1.698.005 1.016-.568 1.722-1.842 1.722z" fill="#fff"/><path d="m396.233 121 .78-2.331h3.555l.785 2.331h1.828l-3.333-9.455h-2.114l-3.329 9.455zm1.242-3.707 1.279-3.809h.074l1.278 3.809z" fill="#fff"/><path d="m409.412 114.145h1.648c-.032-1.598-1.394-2.729-3.407-2.729-1.985 0-3.476 1.117-3.471 2.789 0 1.357.964 2.137 2.52 2.539l1.076.277c1.02.258 1.694.577 1.699 1.311-.005.808-.771 1.348-1.888 1.348-1.071 0-1.902-.48-1.972-1.473h-1.685c.07 1.879 1.468 2.936 3.67 2.936 2.267 0 3.583-1.131 3.587-2.797-.004-1.639-1.357-2.387-2.779-2.724l-.886-.222c-.776-.184-1.616-.512-1.607-1.302.005-.711.642-1.232 1.713-1.232 1.02 0 1.694.475 1.782 1.279z" fill="#fff"/><path d="m417.854 114.145h1.649c-.033-1.598-1.395-2.729-3.407-2.729-1.986 0-3.477 1.117-3.472 2.789 0 1.357.965 2.137 2.521 2.539l1.075.277c1.02.258 1.694.577 1.699 1.311-.005.808-.771 1.348-1.888 1.348-1.071 0-1.902-.48-1.971-1.473h-1.685c.069 1.879 1.468 2.936 3.67 2.936 2.266 0 3.582-1.131 3.587-2.797-.005-1.639-1.357-2.387-2.779-2.724l-.887-.222c-.775-.184-1.615-.512-1.606-1.302.004-.711.641-1.232 1.712-1.232 1.021 0 1.695.475 1.782 1.279z" fill="#fff"/></svg>