<svg width="427" height="331" viewBox="0 0 427 331" fill="none" xmlns="http://www.w3.org/2000/svg">
<path fill-rule="evenodd" clip-rule="evenodd" d="M0 6.1506C0 2.75372 2.75372 0 6.1506 0H117.887C121.283 0 124.037 2.75372 124.037 6.1506V46.6989C124.037 50.0958 121.283 52.8495 117.887 52.8495H6.15061C2.75373 52.8495 0 50.0958 0 46.6989V6.1506Z" fill="#267EDC"/>
<path d="M35.6372 33.4014H40.4952C43.4409 33.4014 44.7714 31.9347 44.7714 29.9915C44.7714 28.0298 43.3975 26.922 42.1413 26.854V26.7302C43.3047 26.4332 44.2763 25.641 44.2763 24.0568C44.2763 22.1817 42.9767 20.7274 40.2786 20.7274H35.6372V33.4014ZM37.5495 31.7614V27.7018H40.3776C41.9123 27.7018 42.8715 28.6919 42.8715 29.8987C42.8715 30.9631 42.1475 31.7614 40.3095 31.7614H37.5495ZM37.5495 26.2104V22.355H40.161C41.6772 22.355 42.4012 23.1533 42.4012 24.2053C42.4012 25.4306 41.3987 26.2104 40.1115 26.2104H37.5495ZM52.9123 29.4593C52.9185 31.0745 51.7179 31.8419 50.6783 31.8419C49.5334 31.8419 48.7413 31.0126 48.7413 29.7192V23.8959H46.8909V29.942C46.8909 32.2998 48.1843 33.5251 50.0099 33.5251C51.4395 33.5251 52.411 32.7701 52.8504 31.7552H52.9494V33.4014H54.7688V23.8959H52.9123V29.4593ZM61.6922 23.8959H59.7428V21.6185H57.8925V23.8959H56.5001V25.3811H57.8925V30.9941C57.8863 32.7206 59.2044 33.5561 60.6649 33.5251C61.2528 33.5189 61.6489 33.4076 61.8655 33.3271L61.5313 31.7986C61.4075 31.8233 61.1785 31.879 60.8815 31.879C60.2812 31.879 59.7428 31.681 59.7428 30.6104V25.3811H61.6922V23.8959ZM68.1761 23.8959H66.2268V21.6185H64.3764V23.8959H62.984V25.3811H64.3764V30.9941C64.3702 32.7206 65.6884 33.5561 67.1489 33.5251C67.7368 33.5189 68.1328 33.4076 68.3494 33.3271L68.0152 31.7986C67.8915 31.8233 67.6625 31.879 67.3655 31.879C66.7652 31.879 66.2268 31.681 66.2268 30.6104V25.3811H68.1761V23.8959ZM74.1248 33.5932C76.8044 33.5932 78.5557 31.6315 78.5557 28.6919C78.5557 25.7339 76.8044 23.7721 74.1248 23.7721C71.4452 23.7721 69.6939 25.7339 69.6939 28.6919C69.6939 31.6315 71.4452 33.5932 74.1248 33.5932ZM74.131 32.0399C72.3797 32.0399 71.5628 30.5114 71.5628 28.6858C71.5628 26.8664 72.3797 25.3192 74.131 25.3192C75.87 25.3192 76.6868 26.8664 76.6868 28.6858C76.6868 30.5114 75.87 32.0399 74.131 32.0399ZM82.4715 27.7575C82.4715 26.2413 83.3998 25.3749 84.687 25.3749C85.9432 25.3749 86.7044 26.198 86.7044 27.578V33.4014H88.5548V27.3552C88.5548 25.0036 87.2614 23.7721 85.3182 23.7721C83.8887 23.7721 82.9542 24.4343 82.5148 25.443H82.3972V23.8959H80.6211V33.4014H82.4715V27.7575Z" fill="white"/>
<path fill-rule="evenodd" clip-rule="evenodd" d="M0 144.762C0 141.365 2.75372 138.611 6.1506 138.611H117.887C121.283 138.611 124.037 141.365 124.037 144.762V185.31C124.037 188.707 121.283 191.461 117.887 191.461H6.15061C2.75373 191.461 0 188.707 0 185.31V144.762Z" fill="#F0F2F4"/>
<path d="M35.6372 171.611H40.4951C43.4408 171.611 44.7713 170.145 44.7713 168.201C44.7713 166.24 43.3975 165.132 42.1412 165.064V164.94C43.3047 164.643 44.2763 163.851 44.2763 162.267C44.2763 160.392 42.9767 158.937 40.2785 158.937H35.6372V171.611ZM37.5494 169.971V165.912H40.3775C41.9123 165.912 42.8715 166.902 42.8715 168.109C42.8715 169.173 42.1474 169.971 40.3095 169.971H37.5494ZM37.5494 164.42V160.565H40.1609C41.6771 160.565 42.4012 161.363 42.4012 162.415C42.4012 163.641 41.3986 164.42 40.1114 164.42H37.5494ZM52.9123 167.669C52.9184 169.284 51.7179 170.052 50.6782 170.052C49.5334 170.052 48.7412 169.223 48.7412 167.929V162.106H46.8909V168.152C46.8909 170.51 48.1843 171.735 50.0099 171.735C51.4394 171.735 52.411 170.98 52.8504 169.965H52.9494V171.611H54.7688V162.106H52.9123V167.669ZM61.6921 162.106H59.7428V159.828H57.8924V162.106H56.5V163.591H57.8924V169.204C57.8862 170.931 59.2044 171.766 60.6648 171.735C61.2528 171.729 61.6488 171.618 61.8654 171.537L61.5312 170.009C61.4075 170.033 61.1785 170.089 60.8814 170.089C60.2812 170.089 59.7428 169.891 59.7428 168.82V163.591H61.6921V162.106ZM68.1761 162.106H66.2267V159.828H64.3764V162.106H62.984V163.591H64.3764V169.204C64.3702 170.931 65.6883 171.766 67.1488 171.735C67.7367 171.729 68.1328 171.618 68.3494 171.537L68.0152 170.009C67.8914 170.033 67.6624 170.089 67.3654 170.089C66.7651 170.089 66.2267 169.891 66.2267 168.82V163.591H68.1761V162.106ZM74.1248 171.803C76.8044 171.803 78.5557 169.841 78.5557 166.902C78.5557 163.944 76.8044 161.982 74.1248 161.982C71.4451 161.982 69.6938 163.944 69.6938 166.902C69.6938 169.841 71.4451 171.803 74.1248 171.803ZM74.1309 170.25C72.3796 170.25 71.5627 168.721 71.5627 166.896C71.5627 165.076 72.3796 163.529 74.1309 163.529C75.8699 163.529 76.6868 165.076 76.6868 166.896C76.6868 168.721 75.8699 170.25 74.1309 170.25ZM82.4714 165.967C82.4714 164.451 83.3997 163.585 84.6869 163.585C85.9432 163.585 86.7043 164.408 86.7043 165.788V171.611H88.5547V165.565C88.5547 163.214 87.2613 161.982 85.3181 161.982C83.8886 161.982 82.9541 162.644 82.5148 163.653H82.3972V162.106H80.6211V171.611H82.4714V165.967Z" fill="#9CA3AE"/>
<path fill-rule="evenodd" clip-rule="evenodd" d="M0 75.4563C0 72.0594 2.75372 69.3057 6.1506 69.3057H117.887C121.283 69.3057 124.037 72.0594 124.037 75.4563V116.005C124.037 119.401 121.283 122.155 117.887 122.155H6.15061C2.75373 122.155 0 119.401 0 116.005V75.4563Z" fill="#529BEA"/>
<path d="M35.6372 102.306H40.4951C43.4408 102.306 44.7713 100.839 44.7713 98.8958C44.7713 96.9341 43.3975 95.8263 42.1412 95.7583V95.6345C43.3047 95.3375 44.2763 94.5453 44.2763 92.9611C44.2763 91.086 42.9767 89.6317 40.2785 89.6317H35.6372V102.306ZM37.5494 100.666V96.6061H40.3775C41.9123 96.6061 42.8715 97.5962 42.8715 98.803C42.8715 99.8674 42.1474 100.666 40.3095 100.666H37.5494ZM37.5494 95.1147V91.2593H40.1609C41.6771 91.2593 42.4012 92.0576 42.4012 93.1096C42.4012 94.3349 41.3986 95.1147 40.1114 95.1147H37.5494ZM52.9123 98.3636C52.9184 99.9788 51.7179 100.746 50.6782 100.746C49.5334 100.746 48.7412 99.9169 48.7412 98.6235V92.8002H46.8909V98.8463C46.8909 101.204 48.1843 102.429 50.0099 102.429C51.4394 102.429 52.411 101.674 52.8504 100.66H52.9494V102.306H54.7688V92.8002H52.9123V98.3636ZM61.6921 92.8002H59.7428V90.5228H57.8924V92.8002H56.5V94.2854H57.8924V99.8984C57.8862 101.625 59.2044 102.46 60.6648 102.429C61.2528 102.423 61.6488 102.312 61.8654 102.231L61.5312 100.703C61.4075 100.728 61.1785 100.783 60.8814 100.783C60.2812 100.783 59.7428 100.585 59.7428 99.5147V94.2854H61.6921V92.8002ZM68.1761 92.8002H66.2267V90.5228H64.3764V92.8002H62.984V94.2854H64.3764V99.8984C64.3702 101.625 65.6883 102.46 67.1488 102.429C67.7367 102.423 68.1328 102.312 68.3494 102.231L68.0152 100.703C67.8914 100.728 67.6624 100.783 67.3654 100.783C66.7651 100.783 66.2267 100.585 66.2267 99.5147V94.2854H68.1761V92.8002ZM74.1248 102.498C76.8044 102.498 78.5557 100.536 78.5557 97.5962C78.5557 94.6382 76.8044 92.6764 74.1248 92.6764C71.4451 92.6764 69.6938 94.6382 69.6938 97.5962C69.6938 100.536 71.4451 102.498 74.1248 102.498ZM74.1309 100.944C72.3796 100.944 71.5627 99.4157 71.5627 97.5901C71.5627 95.7706 72.3796 94.2235 74.1309 94.2235C75.8699 94.2235 76.6868 95.7706 76.6868 97.5901C76.6868 99.4157 75.8699 100.944 74.1309 100.944ZM82.4714 96.6618C82.4714 95.1456 83.3997 94.2792 84.6869 94.2792C85.9432 94.2792 86.7043 95.1023 86.7043 96.4823V102.306H88.5547V96.2595C88.5547 93.9079 87.2613 92.6764 85.3181 92.6764C83.8886 92.6764 82.9541 93.3386 82.5148 94.3473H82.3972V92.8002H80.6211V102.306H82.4714V96.6618Z" fill="white"/>
<path d="M6.1506 278.504H117.887C120.576 278.504 122.756 280.684 122.756 283.373V323.922C122.756 326.611 120.576 328.791 117.887 328.791H6.15061C3.46141 328.791 1.28138 326.611 1.28138 323.922V283.373C1.28138 280.684 3.4614 278.504 6.1506 278.504Z" fill="#267EDC" stroke="white" stroke-width="2.56275"/>
<path d="M6.1506 277.991H117.887C120.859 277.991 123.268 280.401 123.268 283.373V323.922C123.268 326.894 120.859 329.303 117.887 329.303H6.15061C3.17833 329.303 0.768825 326.894 0.768825 323.922V283.373C0.768825 280.401 3.17833 277.991 6.1506 277.991Z" stroke="#267EDC" stroke-width="1.53765"/>
<path d="M35.6372 310.223H40.4951C43.4408 310.223 44.7713 308.756 44.7713 306.813C44.7713 304.851 43.3975 303.743 42.1412 303.675V303.551C43.3047 303.254 44.2763 302.462 44.2763 300.878C44.2763 299.003 42.9767 297.549 40.2785 297.549H35.6372V310.223ZM37.5494 308.583V304.523H40.3775C41.9123 304.523 42.8715 305.513 42.8715 306.72C42.8715 307.784 42.1474 308.583 40.3095 308.583H37.5494ZM37.5494 303.032V299.176H40.1609C41.6771 299.176 42.4012 299.975 42.4012 301.027C42.4012 302.252 41.3986 303.032 40.1114 303.032H37.5494ZM52.9123 306.281C52.9184 307.896 51.7179 308.663 50.6782 308.663C49.5334 308.663 48.7412 307.834 48.7412 306.541V300.717H46.8909V306.763C46.8909 309.121 48.1843 310.346 50.0099 310.346C51.4394 310.346 52.411 309.591 52.8504 308.577H52.9494V310.223H54.7688V300.717H52.9123V306.281ZM61.6921 300.717H59.7428V298.44H57.8924V300.717H56.5V302.202H57.8924V307.815C57.8862 309.542 59.2044 310.377 60.6648 310.346C61.2528 310.34 61.6488 310.229 61.8654 310.148L61.5312 308.62C61.4075 308.645 61.1785 308.7 60.8814 308.7C60.2812 308.7 59.7428 308.502 59.7428 307.432V302.202H61.6921V300.717ZM68.1761 300.717H66.2267V298.44H64.3764V300.717H62.984V302.202H64.3764V307.815C64.3702 309.542 65.6883 310.377 67.1488 310.346C67.7367 310.34 68.1328 310.229 68.3494 310.148L68.0152 308.62C67.8914 308.645 67.6624 308.7 67.3654 308.7C66.7651 308.7 66.2267 308.502 66.2267 307.432V302.202H68.1761V300.717ZM74.1248 310.414C76.8044 310.414 78.5557 308.453 78.5557 305.513C78.5557 302.555 76.8044 300.593 74.1248 300.593C71.4451 300.593 69.6938 302.555 69.6938 305.513C69.6938 308.453 71.4451 310.414 74.1248 310.414ZM74.1309 308.861C72.3796 308.861 71.5627 307.333 71.5627 305.507C71.5627 303.688 72.3796 302.141 74.1309 302.141C75.8699 302.141 76.6868 303.688 76.6868 305.507C76.6868 307.333 75.8699 308.861 74.1309 308.861ZM82.4714 304.579C82.4714 303.063 83.3997 302.196 84.6869 302.196C85.9432 302.196 86.7043 303.019 86.7043 304.399V310.223H88.5547V304.177C88.5547 301.825 87.2613 300.593 85.3181 300.593C83.8886 300.593 82.9541 301.256 82.5148 302.264H82.3972V300.717H80.6211V310.223H82.4714V304.579Z" fill="white"/>
<path fill-rule="evenodd" clip-rule="evenodd" d="M0 214.068C0 210.671 2.75372 207.917 6.1506 207.917H117.887C121.283 207.917 124.037 210.671 124.037 214.068V254.616C124.037 258.013 121.283 260.766 117.887 260.766H6.15061C2.75373 260.766 0 258.013 0 254.616V214.068Z" fill="#256FC7"/>
<path d="M35.6372 240.917H40.4951C43.4408 240.917 44.7713 239.45 44.7713 237.507C44.7713 235.545 43.3975 234.438 42.1412 234.37V234.246C43.3047 233.949 44.2763 233.157 44.2763 231.572C44.2763 229.697 42.9767 228.243 40.2785 228.243H35.6372V240.917ZM37.5494 239.277V235.217H40.3775C41.9123 235.217 42.8715 236.208 42.8715 237.414C42.8715 238.479 42.1474 239.277 40.3095 239.277H37.5494ZM37.5494 233.726V229.871H40.1609C41.6771 229.871 42.4012 230.669 42.4012 231.721C42.4012 232.946 41.3986 233.726 40.1114 233.726H37.5494ZM52.9123 236.975C52.9184 238.59 51.7179 239.357 50.6782 239.357C49.5334 239.357 48.7412 238.528 48.7412 237.235V231.412H46.8909V237.458C46.8909 239.815 48.1843 241.041 50.0099 241.041C51.4394 241.041 52.411 240.286 52.8504 239.271H52.9494V240.917H54.7688V231.412H52.9123V236.975ZM61.6921 231.412H59.7428V229.134H57.8924V231.412H56.5V232.897H57.8924V238.51C57.8862 240.236 59.2044 241.072 60.6648 241.041C61.2528 241.035 61.6488 240.923 61.8654 240.843L61.5312 239.314C61.4075 239.339 61.1785 239.395 60.8814 239.395C60.2812 239.395 59.7428 239.197 59.7428 238.126V232.897H61.6921V231.412ZM68.1761 231.412H66.2267V229.134H64.3764V231.412H62.984V232.897H64.3764V238.51C64.3702 240.236 65.6883 241.072 67.1488 241.041C67.7367 241.035 68.1328 240.923 68.3494 240.843L68.0152 239.314C67.8914 239.339 67.6624 239.395 67.3654 239.395C66.7651 239.395 66.2267 239.197 66.2267 238.126V232.897H68.1761V231.412ZM74.1248 241.109C76.8044 241.109 78.5557 239.147 78.5557 236.208C78.5557 233.249 76.8044 231.288 74.1248 231.288C71.4451 231.288 69.6938 233.249 69.6938 236.208C69.6938 239.147 71.4451 241.109 74.1248 241.109ZM74.1309 239.556C72.3796 239.556 71.5627 238.027 71.5627 236.201C71.5627 234.382 72.3796 232.835 74.1309 232.835C75.8699 232.835 76.6868 234.382 76.6868 236.201C76.6868 238.027 75.8699 239.556 74.1309 239.556ZM82.4714 235.273C82.4714 233.757 83.3997 232.891 84.6869 232.891C85.9432 232.891 86.7043 233.714 86.7043 235.094V240.917H88.5547V234.871C88.5547 232.519 87.2613 231.288 85.3181 231.288C83.8886 231.288 82.9541 231.95 82.5148 232.959H82.3972V231.412H80.6211V240.917H82.4714V235.273Z" fill="white"/>
<path d="M141 3.46745C141 1.55243 142.552 0 144.467 0H423.533C425.448 0 427 1.55243 427 3.46745V95.5325C427 97.4476 425.448 99 423.533 99H144.467C142.552 99 141 97.4476 141 95.5325V3.46745Z" fill="#27A96B"/>
<path d="M159.598 27.605H160.953C160.78 26.3583 159.681 25.4809 158.256 25.4809C156.591 25.4809 155.307 26.6815 155.307 28.7255C155.307 30.7203 156.508 31.9578 158.284 31.9578C159.875 31.9578 161.011 30.9512 161.011 29.2919V28.4977H158.373V29.5013H159.728C159.709 30.2832 159.176 30.7788 158.29 30.7788C157.289 30.7788 156.658 30.0307 156.658 28.7132C156.658 27.4018 157.314 26.6599 158.278 26.6599C158.964 26.6599 159.429 27.0139 159.598 27.605ZM162.225 31.8716H163.601L166.217 26.6722V25.5671H161.794V26.6569H164.838V26.7L162.225 31.8716ZM169.467 32.0101C171.053 32.0101 172.01 30.8034 172.013 28.7255C172.016 26.663 171.047 25.4809 169.467 25.4809C167.885 25.4809 166.925 26.6599 166.922 28.7255C166.915 30.7972 167.879 32.007 169.467 32.0101ZM169.467 30.905C168.744 30.905 168.276 30.1785 168.279 28.7255C168.282 27.2941 168.747 26.5737 169.467 26.5737C170.185 26.5737 170.653 27.2941 170.653 28.7255C170.656 30.1785 170.188 30.905 169.467 30.905ZM177.928 28.1991H175.053V29.2396H177.928V28.1991ZM183.601 25.5671V29.963C183.598 30.5694 183.327 30.8896 182.834 30.8896C182.37 30.8896 182.068 30.6002 182.059 30.0985H180.732C180.726 31.3575 181.625 31.9578 182.767 31.9578C184.044 31.9578 184.915 31.1851 184.918 29.963V25.5671H183.601ZM187.344 31.9609C188.043 31.9609 188.495 31.6561 188.726 31.2159H188.763V31.8716H190.007V28.6824C190.007 27.5557 189.053 27.0817 188 27.0817C186.867 27.0817 186.122 27.6235 185.94 28.4854L187.153 28.5839C187.243 28.2699 187.523 28.039 187.994 28.039C188.44 28.039 188.696 28.2638 188.696 28.6516V28.6701C188.696 28.9749 188.372 29.0149 187.55 29.0949C186.615 29.1811 185.774 29.4951 185.774 30.551C185.774 31.4868 186.442 31.9609 187.344 31.9609ZM187.72 31.0558C187.316 31.0558 187.027 30.868 187.027 30.5079C187.027 30.1385 187.332 29.9568 187.794 29.8922C188.08 29.8522 188.548 29.7845 188.705 29.6798V30.1816C188.705 30.6772 188.295 31.0558 187.72 31.0558ZM192.767 31.9485C193.53 31.9485 193.927 31.5083 194.109 31.1143H194.164V31.8716H195.457V25.5671H194.149V27.9375H194.109C193.933 27.5527 193.555 27.0817 192.764 27.0817C191.726 27.0817 190.849 27.8882 190.849 29.5136C190.849 31.0958 191.689 31.9485 192.767 31.9485ZM193.182 30.905C192.539 30.905 192.188 30.3324 192.188 29.5074C192.188 28.6886 192.533 28.1252 193.182 28.1252C193.819 28.1252 194.177 28.6639 194.177 29.5074C194.177 30.3509 193.813 30.905 193.182 30.905ZM198.69 31.9639C199.86 31.9639 200.648 31.3944 200.833 30.5171L199.62 30.4371C199.487 30.7972 199.149 30.985 198.712 30.985C198.056 30.985 197.64 30.551 197.64 29.846V29.8429H200.86V29.4828C200.86 27.8759 199.888 27.0817 198.638 27.0817C197.246 27.0817 196.344 28.0698 196.344 29.529C196.344 31.0281 197.234 31.9639 198.69 31.9639ZM197.64 29.0303C197.668 28.4916 198.078 28.0606 198.659 28.0606C199.229 28.0606 199.623 28.4669 199.626 29.0303H197.64Z" fill="white"/>
<path d="M179.646 57.2998H180.221L180.488 55.6679H181.358L181.45 55.0932H180.583L180.824 53.6222H181.703L181.795 53.0476H180.919L181.186 51.4156H180.611L180.344 53.0476H178.85L179.117 51.4156H178.543L178.276 53.0476H177.405L177.313 53.6222H178.181L177.939 55.0932H177.06L176.968 55.6679H177.845L177.577 57.2998H178.152L178.419 55.6679H179.913L179.646 57.2998ZM178.514 55.0932L178.755 53.6222H180.249L180.008 55.0932H178.514ZM182.544 57.2998H186.256V56.6677H183.52V56.6217L184.842 55.2082C185.853 54.125 186.152 53.6193 186.152 52.9671C186.152 52.0592 185.417 51.3352 184.382 51.3352C183.351 51.3352 182.567 52.0362 182.567 53.0706H183.245C183.245 52.4011 183.678 51.9558 184.359 51.9558C184.997 51.9558 185.486 52.3465 185.486 52.9671C185.486 53.5102 185.167 53.9124 184.486 54.6565L182.544 56.7826V57.2998ZM187.626 57.2998H188.373L190.993 52.0822V51.4156H187.224V52.0477H190.258V52.0937L187.626 57.2998ZM191.532 57.2998L192.124 55.6334H194.503L195.095 57.2998H195.842L193.681 51.4156H192.946L190.785 57.2998H191.532ZM192.348 55.0013L193.29 52.3465H193.336L194.279 55.0013H192.348ZM198.528 51.3237C197.333 51.3122 196.563 52.2086 196.563 53.3004C196.563 54.4382 197.402 55.2541 198.413 55.2541C199.022 55.2541 199.54 54.9553 199.861 54.4726H199.907C199.907 55.9207 199.344 56.7482 198.436 56.7482C197.816 56.7482 197.436 56.3574 197.31 55.8173H196.609C196.747 56.7482 197.448 57.3803 198.436 57.3803C199.758 57.3803 200.574 56.208 200.574 54.1164C200.574 51.9443 199.494 51.3352 198.528 51.3237ZM198.528 51.9558C199.264 51.9558 199.804 52.5879 199.804 53.2889C199.804 53.99 199.229 54.6221 198.505 54.6221C197.781 54.6221 197.253 54.0359 197.253 53.3004C197.253 52.5534 197.804 51.9558 198.528 51.9558ZM203.657 57.3803C204.847 57.3946 205.623 56.4982 205.623 55.4035C205.623 54.2658 204.781 53.4498 203.772 53.4498C203.166 53.4498 202.646 53.7457 202.324 54.2313H202.278C202.281 52.7861 202.839 51.9558 203.749 51.9558C204.37 51.9558 204.743 52.3465 204.876 52.8867H205.577C205.433 51.9615 204.738 51.3237 203.749 51.3237C202.425 51.3237 201.612 52.4959 201.612 54.5876C201.612 56.7625 202.692 57.3688 203.657 57.3803ZM203.657 56.7482C202.919 56.7482 202.379 56.1189 202.382 55.415C202.385 54.7111 202.951 54.0819 203.68 54.0819C204.402 54.0819 204.933 54.6738 204.933 55.4035C204.933 56.1506 204.379 56.7482 203.657 56.7482ZM206.856 57.2998H208.982C210.373 57.2998 210.947 56.6217 210.947 55.7368C210.947 54.8059 210.304 54.3003 209.764 54.2658V54.2083C210.269 54.0704 210.717 53.7371 210.717 52.9786C210.717 52.1167 210.143 51.4156 208.913 51.4156H206.856V57.2998ZM207.568 56.6677V54.6221H209.017C209.787 54.6221 210.269 55.1392 210.269 55.7368C210.269 56.254 209.913 56.6677 208.982 56.6677H207.568ZM207.568 54.0015V52.0477H208.913C209.695 52.0477 210.039 52.4615 210.039 52.9786C210.039 53.5992 209.534 54.0015 208.89 54.0015H207.568Z" fill="white"/>
<path d="M179.428 70.0941C180.568 70.0941 181.416 69.3787 181.416 68.4162C181.416 67.6692 180.973 67.1262 180.232 67.0026V66.9567C180.827 66.7757 181.197 66.2872 181.197 65.6235C181.197 64.7903 180.54 64.0491 179.451 64.0491C178.434 64.0491 177.589 64.6754 177.554 65.6005H178.244C178.27 65.0144 178.827 64.6697 179.439 64.6697C180.088 64.6697 180.508 65.0633 180.508 65.658C180.508 66.2786 180.022 66.6808 179.324 66.6808H178.853V67.3129H179.324C180.218 67.3129 180.715 67.7669 180.715 68.4162C180.715 69.0397 180.172 69.462 179.416 69.462C178.735 69.462 178.195 69.1115 178.152 68.5426H177.428C177.471 69.4678 178.287 70.0941 179.428 70.0941ZM184.464 64.0376C183.269 64.0261 182.499 64.9225 182.499 66.0143C182.499 67.152 183.338 67.968 184.349 67.968C184.958 67.968 185.476 67.6692 185.797 67.1865H185.843C185.843 68.6346 185.28 69.462 184.372 69.462C183.752 69.462 183.372 69.0713 183.246 68.5311H182.545C182.683 69.462 183.384 70.0941 184.372 70.0941C185.694 70.0941 186.51 68.9219 186.51 66.8302C186.51 64.6582 185.43 64.0491 184.464 64.0376ZM184.464 64.6697C185.2 64.6697 185.74 65.3017 185.74 66.0028C185.74 66.7038 185.165 67.3359 184.441 67.3359C183.717 67.3359 183.189 66.7498 183.189 66.0143C183.189 65.2673 183.74 64.6697 184.464 64.6697ZM188.457 69.2092H187.722L187.687 69.531C187.604 70.3096 187.44 71.0853 187.365 71.4502H187.883C188.02 71.0595 188.313 70.1746 188.411 69.5195L188.457 69.2092ZM194.046 64.1295H193.334L191.863 65.1064V65.8304L193.299 64.8765H193.334V70.0137H194.046V64.1295ZM197.692 70.0941C198.882 70.1085 199.657 69.2121 199.657 68.1174C199.657 66.9797 198.815 66.1637 197.807 66.1637C197.201 66.1637 196.681 66.4596 196.359 66.9452H196.313C196.316 65.5 196.873 64.6697 197.784 64.6697C198.405 64.6697 198.778 65.0604 198.91 65.6005H199.611C199.468 64.6754 198.772 64.0376 197.784 64.0376C196.46 64.0376 195.646 65.2098 195.646 67.3014C195.646 69.4764 196.727 70.0826 197.692 70.0941ZM197.692 69.462C196.954 69.462 196.414 68.8328 196.416 68.1289C196.419 67.425 196.985 66.7958 197.715 66.7958C198.436 66.7958 198.968 67.3876 198.968 68.1174C198.968 68.8644 198.413 69.462 197.692 69.462ZM202.66 64.0376C201.465 64.0261 200.695 64.9225 200.695 66.0143C200.695 67.152 201.534 67.968 202.546 67.968C203.155 67.968 203.672 67.6692 203.994 67.1865H204.04C204.04 68.6346 203.476 69.462 202.569 69.462C201.948 69.462 201.569 69.0713 201.442 68.5311H200.741C200.879 69.462 201.58 70.0941 202.569 70.0941C203.89 70.0941 204.706 68.9219 204.706 66.8302C204.706 64.6582 203.626 64.0491 202.66 64.0376ZM202.66 64.6697C203.396 64.6697 203.936 65.3017 203.936 66.0028C203.936 66.7038 203.361 67.3359 202.637 67.3359C201.913 67.3359 201.385 66.7498 201.385 66.0143C201.385 65.2673 201.936 64.6697 202.66 64.6697ZM206.653 69.2092H205.918L205.883 69.531C205.8 70.3096 205.636 71.0853 205.562 71.4502H206.079C206.217 71.0595 206.51 70.1746 206.607 69.5195L206.653 69.2092ZM212.242 64.1295H211.53L210.059 65.1064V65.8304L211.495 64.8765H211.53V70.0137H212.242V64.1295ZM215.854 70.0941C217.152 70.0941 217.9 68.9937 217.9 67.0716C217.9 65.1638 217.141 64.0491 215.854 64.0491C214.567 64.0491 213.808 65.1638 213.808 67.0716C213.808 68.9937 214.555 70.0941 215.854 70.0941ZM215.854 69.462C214.998 69.462 214.498 68.603 214.498 67.0716C214.498 65.5431 215.003 64.6697 215.854 64.6697C216.704 64.6697 217.21 65.5431 217.21 67.0716C217.21 68.603 216.71 69.462 215.854 69.462ZM219.017 70.0137H219.764L222.384 64.7961V64.1295H218.615V64.7616H221.649V64.8076L219.017 70.0137Z" fill="white"/>
<path d="M185.714 82.728H186.461L189.081 77.5104V76.8439H185.312V77.476H188.346V77.5219L185.714 82.728ZM191.919 82.8085C193.094 82.8085 193.912 82.1218 193.918 81.165C193.912 80.4209 193.415 79.7888 192.78 79.671V79.6365C193.332 79.4929 193.694 78.9527 193.7 78.3264C193.694 77.43 192.941 76.7634 191.919 76.7634C190.884 76.7634 190.131 77.43 190.137 78.3264C190.131 78.9527 190.493 79.4929 191.057 79.6365V79.671C190.41 79.7888 189.913 80.4209 189.919 81.165C189.913 82.1218 190.732 82.8085 191.919 82.8085ZM191.919 82.1764C191.111 82.1764 190.614 81.7627 190.62 81.1306C190.614 80.4669 191.163 79.9928 191.919 79.9928C192.663 79.9928 193.211 80.4669 193.217 81.1306C193.211 81.7627 192.714 82.1764 191.919 82.1764ZM191.919 79.3837C191.275 79.3837 190.821 78.9815 190.827 78.3724C190.821 77.7748 191.258 77.384 191.919 77.384C192.568 77.384 193.005 77.7748 193.01 78.3724C193.005 78.9815 192.551 79.3837 191.919 79.3837ZM195.343 82.774C195.628 82.774 195.86 82.5413 195.86 82.2568C195.86 81.9724 195.628 81.7397 195.343 81.7397C195.059 81.7397 194.826 81.9724 194.826 82.2568C194.826 82.5413 195.059 82.774 195.343 82.774ZM198.833 82.8085C199.973 82.8085 200.821 82.0931 200.821 81.1306C200.821 80.3836 200.378 79.8405 199.637 79.717V79.671C200.232 79.49 200.603 79.0016 200.603 78.3379C200.603 77.5047 199.945 76.7634 198.856 76.7634C197.839 76.7634 196.994 77.3898 196.959 78.3149H197.649C197.675 77.7288 198.232 77.384 198.844 77.384C199.494 77.384 199.913 77.7776 199.913 78.3724C199.913 78.993 199.427 79.3952 198.729 79.3952H198.258V80.0273H198.729C199.623 80.0273 200.12 80.4812 200.12 81.1306C200.12 81.754 199.577 82.1764 198.821 82.1764C198.14 82.1764 197.6 81.8259 197.557 81.257H196.833C196.876 82.1821 197.692 82.8085 198.833 82.8085ZM202.837 81.9236H202.102L202.067 82.2453C201.984 83.024 201.82 83.7997 201.745 84.1646H202.262C202.4 83.7738 202.693 82.8889 202.791 82.2338L202.837 81.9236ZM206.541 82.728H207.288L209.909 77.5104V76.8439H206.139V77.476H209.173V77.5219L206.541 82.728ZM210.991 81.9236H210.256L210.221 82.2453C210.138 83.024 209.974 83.7997 209.899 84.1646H210.416C210.554 83.7738 210.847 82.8889 210.945 82.2338L210.991 81.9236ZM214.695 82.728H215.442L218.063 77.5104V76.8439H214.293V77.476H217.327V77.5219L214.695 82.728ZM220.9 82.8085C222.075 82.8085 222.894 82.1218 222.899 81.165C222.894 80.4209 222.397 79.7888 221.762 79.671V79.6365C222.313 79.4929 222.675 78.9527 222.681 78.3264C222.675 77.43 221.923 76.7634 220.9 76.7634C219.865 76.7634 219.113 77.43 219.118 78.3264C219.113 78.9527 219.475 79.4929 220.038 79.6365V79.671C219.391 79.7888 218.894 80.4209 218.9 81.165C218.894 82.1218 219.713 82.8085 220.9 82.8085ZM220.9 82.1764C220.092 82.1764 219.595 81.7627 219.601 81.1306C219.595 80.4669 220.144 79.9928 220.9 79.9928C221.644 79.9928 222.193 80.4669 222.198 81.1306C222.193 81.7627 221.696 82.1764 220.9 82.1764ZM220.9 79.3837C220.256 79.3837 219.802 78.9815 219.808 78.3724C219.802 77.7748 220.239 77.384 220.9 77.384C221.549 77.384 221.986 77.7748 221.992 78.3724C221.986 78.9815 221.532 79.3837 220.9 79.3837ZM224.325 82.774C224.609 82.774 224.842 82.5413 224.842 82.2568C224.842 81.9724 224.609 81.7397 224.325 81.7397C224.04 81.7397 223.807 81.9724 223.807 82.2568C223.807 82.5413 224.04 82.774 224.325 82.774ZM227.412 76.8439H226.7L225.229 77.8207V78.5448L226.665 77.5909H226.7V82.728H227.412V76.8439ZM231.058 82.8085C232.248 82.8228 233.024 81.9264 233.024 80.8318C233.024 79.694 232.182 78.878 231.173 78.878C230.567 78.878 230.047 79.174 229.725 79.6595H229.679C229.682 78.2143 230.24 77.384 231.15 77.384C231.771 77.384 232.144 77.7748 232.277 78.3149H232.978C232.834 77.3898 232.139 76.7519 231.15 76.7519C229.826 76.7519 229.013 77.9242 229.013 80.0158C229.013 82.1908 230.093 82.797 231.058 82.8085ZM231.058 82.1764C230.32 82.1764 229.78 81.5472 229.783 80.8433C229.786 80.1393 230.352 79.5101 231.081 79.5101C231.803 79.5101 232.334 80.102 232.334 80.8318C232.334 81.5788 231.78 82.1764 231.058 82.1764ZM234.9 81.9236H234.164L234.13 82.2453C234.046 83.024 233.883 83.7997 233.808 84.1646H234.325C234.463 83.7738 234.756 82.8889 234.854 82.2338L234.9 81.9236ZM240.339 82.8085C241.638 82.8085 242.385 81.7081 242.385 79.7859C242.385 77.8782 241.626 76.7634 240.339 76.7634C239.052 76.7634 238.294 77.8782 238.294 79.7859C238.294 81.7081 239.041 82.8085 240.339 82.8085ZM240.339 82.1764C239.483 82.1764 238.983 81.3173 238.983 79.7859C238.983 78.2574 239.489 77.384 240.339 77.384C241.19 77.384 241.695 78.2574 241.695 79.7859C241.695 81.3173 241.196 82.1764 240.339 82.1764ZM243.777 82.774C244.061 82.774 244.294 82.5413 244.294 82.2568C244.294 81.9724 244.061 81.7397 243.777 81.7397C243.493 81.7397 243.26 81.9724 243.26 82.2568C243.26 82.5413 243.493 82.774 243.777 82.774ZM245.499 82.728H249.212V82.0959H246.476V82.05L247.798 80.6364C248.809 79.5532 249.108 79.0476 249.108 78.3954C249.108 77.4874 248.373 76.7634 247.338 76.7634C246.307 76.7634 245.522 77.4645 245.522 78.4988H246.2C246.2 77.8293 246.634 77.384 247.315 77.384C247.953 77.384 248.442 77.7748 248.442 78.3954C248.442 78.9384 248.123 79.3406 247.442 80.0848L245.499 82.2109V82.728Z" fill="white"/>
<path d="M155.381 57.2998H156.625V54.8691H159.151V57.2998H160.392V51.4156H159.151V53.8434H156.625V51.4156H155.381V57.2998ZM161.418 57.2998H165.394V56.2741H162.662V54.8691H165.179V53.8434H162.662V52.4413H165.383V51.4156H161.418V57.2998ZM167.538 51.4156H166.127L167.935 54.3577L166.093 57.2998H167.518L168.725 55.2915H168.771L169.977 57.2998H171.408L169.572 54.3577L171.368 51.4156H169.963L168.771 53.4211H168.725L167.538 51.4156ZM172.848 53.7314C173.215 53.7314 173.534 53.424 173.537 53.0418C173.534 52.6655 173.215 52.358 172.848 52.358C172.468 52.358 172.155 52.6655 172.158 53.0418C172.155 53.424 172.468 53.7314 172.848 53.7314ZM172.848 56.616C173.215 56.616 173.534 56.3086 173.537 55.9265C173.534 55.5501 173.215 55.2426 172.848 55.2426C172.468 55.2426 172.155 55.5501 172.158 55.9265C172.155 56.3086 172.468 56.616 172.848 56.616Z" fill="white"/>
<path d="M155.381 70.0137H156.625V67.9278H157.533L158.648 70.0137H160.021L158.771 67.7267C159.441 67.4394 159.812 66.8561 159.812 66.0516C159.812 64.8823 159.039 64.1295 157.703 64.1295H155.381V70.0137ZM156.625 66.9279V65.1466H157.464C158.182 65.1466 158.53 65.4655 158.53 66.0516C158.53 66.6349 158.182 66.9279 157.47 66.9279H156.625ZM164.592 66.0315H165.857C165.696 64.8679 164.67 64.0491 163.34 64.0491C161.785 64.0491 160.587 65.1696 160.587 67.0773C160.587 68.9391 161.708 70.0941 163.366 70.0941C164.851 70.0941 165.911 69.1546 165.911 67.606V66.8647H163.449V67.8014H164.713C164.696 68.5311 164.199 68.9937 163.371 68.9937C162.438 68.9937 161.849 68.2955 161.849 67.0658C161.849 65.8419 162.461 65.1495 163.36 65.1495C164.001 65.1495 164.434 65.4799 164.592 66.0315ZM166.846 70.0137H169.36C170.681 70.0137 171.385 69.3241 171.385 68.3875C171.385 67.5169 170.762 66.9911 170.092 66.9595V66.9021C170.704 66.7642 171.155 66.3303 171.155 65.6379C171.155 64.7559 170.5 64.1295 169.202 64.1295H166.846V70.0137ZM168.09 68.9966V67.4336H169.133C169.73 67.4336 170.101 67.7784 170.101 68.2639C170.101 68.7064 169.799 68.9966 169.104 68.9966H168.09ZM168.09 66.5918V65.1351H169.035C169.587 65.1351 169.9 65.4195 169.9 65.8448C169.9 66.3102 169.521 66.5918 169.012 66.5918H168.09ZM172.887 66.4452C173.255 66.4452 173.574 66.1378 173.577 65.7557C173.574 65.3793 173.255 65.0719 172.887 65.0719C172.508 65.0719 172.195 65.3793 172.198 65.7557C172.195 66.1378 172.508 66.4452 172.887 66.4452ZM172.887 69.3299C173.255 69.3299 173.574 69.0224 173.577 68.6403C173.574 68.2639 173.255 67.9565 172.887 67.9565C172.508 67.9565 172.195 68.2639 172.198 68.6403C172.195 69.0224 172.508 69.3299 172.887 69.3299Z" fill="white"/>
<path d="M160.573 78.9039C160.409 77.5449 159.381 76.7634 158.019 76.7634C156.464 76.7634 155.278 77.861 155.278 79.7859C155.278 81.7052 156.444 82.8085 158.019 82.8085C159.527 82.8085 160.438 81.8058 160.573 80.7226L159.314 80.7168C159.197 81.3461 158.703 81.7081 158.039 81.7081C157.145 81.7081 156.539 81.0444 156.539 79.7859C156.539 78.562 157.137 77.8638 158.047 77.8638C158.728 77.8638 159.22 78.2574 159.314 78.9039H160.573ZM161.465 76.8439V82.728H162.672V78.8838H162.721L164.243 82.6993H165.065L166.588 78.8981H166.637V82.728H167.843V76.8439H166.309L164.689 80.7973H164.62L162.999 76.8439H161.465ZM168.524 76.8439L170.67 80.6479V82.728H171.905V80.6479L174.051 76.8439H172.658L171.316 79.378H171.259L169.917 76.8439H168.524ZM174.731 82.728H175.975V81.0559L176.587 80.3089L178.199 82.728H179.687L177.478 79.4785L179.661 76.8439H178.17L176.053 79.4383H175.975V76.8439H174.731V82.728ZM181.002 79.1596C181.369 79.1596 181.688 78.8522 181.691 78.4701C181.688 78.0937 181.369 77.7862 181.002 77.7862C180.622 77.7862 180.309 78.0937 180.312 78.4701C180.309 78.8522 180.622 79.1596 181.002 79.1596ZM181.002 82.0442C181.369 82.0442 181.688 81.7368 181.691 81.3547C181.688 80.9783 181.369 80.6709 181.002 80.6709C180.622 80.6709 180.309 80.9783 180.312 81.3547C180.309 81.7368 180.622 82.0442 181.002 82.0442Z" fill="white"/>
<path d="M343.834 56.8442L344.374 55.287H346.672L347.21 56.8442H348.152L346.035 50.9601H345.009L342.891 56.8442H343.834ZM344.632 54.54L345.5 52.0289H345.546L346.414 54.54H344.632Z" fill="#1F2F47"/>
<rect x="334.311" y="67.6266" width="23.1164" height="9.82445" rx="2.02268" fill="black" stroke="white" stroke-width="0.577909"/>
<path d="M336.913 74.9155H337.737V72.9946H338.858C340.125 72.9946 340.752 72.2289 340.752 71.2205C340.752 70.2147 340.13 69.4517 338.86 69.4517H336.913V74.9155ZM337.737 72.2956V70.1587H338.772C339.589 70.1587 339.922 70.6015 339.922 71.2205C339.922 71.8394 339.589 72.2956 338.783 72.2956H337.737ZM341.6 74.9155L342.102 73.4695H344.236L344.735 74.9155H345.61L343.644 69.4517H342.692L340.725 74.9155H341.6ZM342.342 72.7759L343.148 70.4441H343.19L343.996 72.7759H342.342ZM349.335 70.887H350.13C350.106 70.0119 349.333 69.377 348.223 69.377C347.126 69.377 346.286 70.0039 346.286 70.9457C346.286 71.706 346.83 72.1516 347.708 72.389L348.354 72.5651C348.938 72.7198 349.389 72.9119 349.389 73.3975C349.389 73.9311 348.879 74.2832 348.177 74.2832C347.542 74.2832 347.014 74.0004 346.966 73.4055H346.139C346.193 74.3953 346.958 75.0062 348.183 75.0062C349.466 75.0062 350.205 74.3313 350.205 73.4055C350.205 72.421 349.327 72.0395 348.634 71.8688L348.1 71.7301C347.673 71.6207 347.105 71.4206 347.108 70.8977C347.108 70.4334 347.532 70.0893 348.204 70.0893C348.831 70.0893 349.277 70.3828 349.335 70.887ZM354.17 70.887H354.965C354.941 70.0119 354.168 69.377 353.058 69.377C351.961 69.377 351.121 70.0039 351.121 70.9457C351.121 71.706 351.665 72.1516 352.543 72.389L353.188 72.5651C353.773 72.7198 354.224 72.9119 354.224 73.3975C354.224 73.9311 353.714 74.2832 353.012 74.2832C352.377 74.2832 351.849 74.0004 351.801 73.4055H350.974C351.027 74.3953 351.793 75.0062 353.018 75.0062C354.301 75.0062 355.04 74.3313 355.04 73.4055C355.04 72.421 354.162 72.0395 353.469 71.8688L352.935 71.7301C352.508 71.6207 351.94 71.4206 351.943 70.8977C351.943 70.4334 352.367 70.0893 353.039 70.0893C353.666 70.0893 354.112 70.3828 354.17 70.887Z" fill="white"/>
<path d="M372.729 56.8442L373.269 55.287H375.568L376.105 56.8442H377.048L374.93 50.9601H373.904L371.787 56.8442H372.729ZM373.528 54.54L374.396 52.0289H374.442L375.309 54.54H373.528Z" fill="white"/>
<rect x="362.628" y="67.6266" width="23.1164" height="9.82445" rx="2.02268" fill="black" stroke="white" stroke-width="0.577909"/>
<path d="M365.23 74.9155H366.055V72.9946H367.175C368.443 72.9946 369.07 72.2289 369.07 71.2205C369.07 70.2147 368.448 69.4517 367.178 69.4517H365.23V74.9155ZM366.055 72.2956V70.1587H367.09C367.906 70.1587 368.24 70.6015 368.24 71.2205C368.24 71.8394 367.906 72.2956 367.101 72.2956H366.055ZM369.918 74.9155L370.419 73.4695H372.554L373.053 74.9155H373.928L371.962 69.4517H371.009L369.043 74.9155H369.918ZM370.66 72.7759L371.465 70.4441H371.508L372.314 72.7759H370.66ZM377.653 70.887H378.448C378.424 70.0119 377.65 69.377 376.54 69.377C375.444 69.377 374.603 70.0039 374.603 70.9457C374.603 71.706 375.148 72.1516 376.025 72.389L376.671 72.5651C377.255 72.7198 377.706 72.9119 377.706 73.3975C377.706 73.9311 377.197 74.2832 376.495 74.2832C375.86 74.2832 375.332 74.0004 375.284 73.4055H374.457C374.51 74.3953 375.276 75.0062 376.5 75.0062C377.784 75.0062 378.523 74.3313 378.523 73.4055C378.523 72.421 377.645 72.0395 376.951 71.8688L376.418 71.7301C375.991 71.6207 375.422 71.4206 375.425 70.8977C375.425 70.4334 375.849 70.0893 376.522 70.0893C377.149 70.0893 377.594 70.3828 377.653 70.887ZM382.488 70.887H383.283C383.259 70.0119 382.485 69.377 381.375 69.377C380.279 69.377 379.438 70.0039 379.438 70.9457C379.438 71.706 379.983 72.1516 380.86 72.389L381.506 72.5651C382.09 72.7198 382.541 72.9119 382.541 73.3975C382.541 73.9311 382.032 74.2832 381.33 74.2832C380.695 74.2832 380.167 74.0004 380.119 73.4055H379.292C379.345 74.3953 380.111 75.0062 381.335 75.0062C382.618 75.0062 383.357 74.3313 383.357 73.4055C383.357 72.421 382.48 72.0395 381.786 71.8688L381.252 71.7301C380.826 71.6207 380.257 71.4206 380.26 70.8977C380.26 70.4334 380.684 70.0893 381.357 70.0893C381.983 70.0893 382.429 70.3828 382.488 70.887Z" fill="white"/>
<path d="M141 119.467C141 117.552 142.552 116 144.467 116H423.533C425.448 116 427 117.552 427 119.467V211.533C427 213.448 425.448 215 423.533 215H144.467C142.552 215 141 213.448 141 211.533V119.467Z" fill="#F2B46C"/>
<path d="M155.048 141.567L157.348 145.643V147.872H158.672V145.643L160.971 141.567H159.478L158.041 144.282H157.979L156.541 141.567H155.048ZM161.912 147.872H163.288L165.904 142.672V141.567H161.481V142.657H164.525V142.7L161.912 147.872ZM169.154 148.01C170.74 148.01 171.697 146.803 171.7 144.726C171.703 142.663 170.733 141.481 169.154 141.481C167.572 141.481 166.611 142.66 166.608 144.726C166.602 146.797 167.566 148.007 169.154 148.01ZM169.154 146.905C168.431 146.905 167.963 146.178 167.966 144.726C167.969 143.294 168.434 142.574 169.154 142.574C169.871 142.574 170.339 143.294 170.339 144.726C170.342 146.178 169.875 146.905 169.154 146.905ZM177.615 144.199H174.74V145.24H177.615V144.199ZM180.763 141.567V147.872H182.056V143.753H182.109L183.74 147.841H184.621L186.252 143.768H186.304V147.872H187.597V141.567H185.954L184.217 145.803H184.143L182.407 141.567H180.763ZM190.019 147.961C190.718 147.961 191.171 147.656 191.401 147.216H191.438V147.872H192.682V144.682C192.682 143.556 191.728 143.082 190.675 143.082C189.542 143.082 188.797 143.623 188.616 144.485L189.828 144.584C189.918 144.27 190.198 144.039 190.669 144.039C191.115 144.039 191.371 144.264 191.371 144.652V144.67C191.371 144.975 191.047 145.015 190.225 145.095C189.29 145.181 188.449 145.495 188.449 146.551C188.449 147.487 189.117 147.961 190.019 147.961ZM190.395 147.056C189.992 147.056 189.702 146.868 189.702 146.508C189.702 146.138 190.007 145.957 190.469 145.892C190.755 145.852 191.223 145.784 191.38 145.68V146.182C191.38 146.677 190.97 147.056 190.395 147.056ZM195.836 147.964C197.095 147.964 197.886 147.225 197.948 146.138H196.71C196.633 146.643 196.301 146.927 195.851 146.927C195.239 146.927 194.841 146.412 194.841 145.507C194.841 144.615 195.242 144.104 195.851 144.104C196.331 144.104 196.639 144.421 196.71 144.892H197.948C197.892 143.799 197.064 143.082 195.83 143.082C194.395 143.082 193.509 144.076 193.509 145.526C193.509 146.963 194.38 147.964 195.836 147.964ZM200.747 143.537H201.732V142.866C201.732 142.383 201.892 142.004 202.123 141.641L201.545 141.299C201.117 141.647 200.747 142.309 200.747 142.872V143.537ZM204.204 145.138C204.207 144.528 204.571 144.171 205.1 144.171C205.626 144.171 205.944 144.516 205.94 145.095V147.872H207.252V144.861C207.252 143.759 206.605 143.082 205.62 143.082C204.918 143.082 204.411 143.426 204.198 143.977H204.143V143.143H202.893V147.872H204.204V145.138ZM215.879 143.774C215.703 142.318 214.601 141.481 213.142 141.481C211.477 141.481 210.206 142.657 210.206 144.719C210.206 146.776 211.455 147.958 213.142 147.958C214.758 147.958 215.734 146.883 215.879 145.723L214.531 145.717C214.404 146.391 213.875 146.779 213.164 146.779C212.206 146.779 211.557 146.068 211.557 144.719C211.557 143.408 212.197 142.66 213.173 142.66C213.903 142.66 214.429 143.082 214.531 143.774H215.879ZM218.121 145.138C218.125 144.528 218.497 144.171 219.033 144.171C219.565 144.171 219.879 144.513 219.876 145.095V147.872H221.188V144.861C221.191 143.753 220.538 143.082 219.553 143.082C218.836 143.082 218.355 143.42 218.14 143.977H218.085V141.567H216.81V147.872H218.121V145.138ZM224.374 147.964C225.544 147.964 226.332 147.394 226.517 146.517L225.304 146.437C225.172 146.797 224.833 146.985 224.396 146.985C223.74 146.985 223.325 146.551 223.325 145.846V145.843H226.545V145.483C226.545 143.876 225.572 143.082 224.322 143.082C222.931 143.082 222.029 144.07 222.029 145.529C222.029 147.028 222.918 147.964 224.374 147.964ZM223.325 145.03C223.352 144.492 223.762 144.061 224.344 144.061C224.913 144.061 225.307 144.467 225.31 145.03H223.325ZM229.555 147.964C230.725 147.964 231.513 147.394 231.698 146.517L230.485 146.437C230.353 146.797 230.014 146.985 229.577 146.985C228.921 146.985 228.506 146.551 228.506 145.846V145.843H231.725V145.483C231.725 143.876 230.753 143.082 229.503 143.082C228.112 143.082 227.21 144.07 227.21 145.529C227.21 147.028 228.099 147.964 229.555 147.964ZM228.506 145.03C228.533 144.492 228.943 144.061 229.524 144.061C230.094 144.061 230.488 144.467 230.491 145.03H228.506ZM236.515 144.492C236.398 143.62 235.697 143.082 234.502 143.082C233.292 143.082 232.495 143.642 232.498 144.553C232.495 145.261 232.941 145.72 233.865 145.905L234.684 146.068C235.096 146.151 235.284 146.302 235.29 146.539C235.284 146.819 234.979 147.019 234.521 147.019C234.053 147.019 233.742 146.819 233.662 146.434L232.372 146.502C232.495 147.407 233.265 147.964 234.518 147.964C235.743 147.964 236.62 147.339 236.623 146.406C236.62 145.723 236.174 145.313 235.256 145.126L234.401 144.953C233.96 144.858 233.797 144.707 233.8 144.479C233.797 144.196 234.117 144.011 234.524 144.011C234.979 144.011 235.25 144.261 235.315 144.565L236.515 144.492ZM239.604 147.964C240.774 147.964 241.562 147.394 241.746 146.517L240.533 146.437C240.401 146.797 240.062 146.985 239.625 146.985C238.97 146.985 238.554 146.551 238.554 145.846V145.843H241.774V145.483C241.774 143.876 240.801 143.082 239.551 143.082C238.16 143.082 237.258 144.07 237.258 145.529C237.258 147.028 238.148 147.964 239.604 147.964ZM238.554 145.03C238.582 144.492 238.991 144.061 239.573 144.061C240.142 144.061 240.537 144.467 240.54 145.03H238.554Z" fill="#1F2F47"/>
<path d="M179.646 173.3H180.221L180.488 171.668H181.358L181.45 171.093H180.583L180.824 169.622H181.703L181.795 169.048H180.919L181.186 167.416H180.611L180.344 169.048H178.85L179.117 167.416H178.543L178.276 169.048H177.405L177.313 169.622H178.181L177.939 171.093H177.06L176.968 171.668H177.845L177.577 173.3H178.152L178.419 171.668H179.913L179.646 173.3ZM178.514 171.093L178.755 169.622H180.249L180.008 171.093H178.514ZM182.647 173.3H183.36V170.668H185.911V170.036H183.36V168.048H186.175V167.416H182.647V173.3ZM187.292 173.3H191.004V172.668H188.269V172.622L189.591 171.208C190.602 170.125 190.901 169.619 190.901 168.967C190.901 168.059 190.165 167.335 189.131 167.335C188.099 167.335 187.315 168.036 187.315 169.071H187.993C187.993 168.401 188.427 167.956 189.108 167.956C189.746 167.956 190.234 168.347 190.234 168.967C190.234 169.51 189.915 169.912 189.234 170.657L187.292 172.783V173.3ZM192.294 173.3H194.42C195.811 173.3 196.386 172.622 196.386 171.737C196.386 170.806 195.742 170.3 195.202 170.266V170.208C195.707 170.07 196.156 169.737 196.156 168.979C196.156 168.117 195.581 167.416 194.351 167.416H192.294V173.3ZM193.007 172.668V170.622H194.455C195.225 170.622 195.707 171.139 195.707 171.737C195.707 172.254 195.351 172.668 194.42 172.668H193.007ZM193.007 170.001V168.048H194.351C195.133 168.048 195.478 168.461 195.478 168.979C195.478 169.599 194.972 170.001 194.328 170.001H193.007ZM197.315 172.093H200.085V173.3H200.763V172.093H201.567V171.461H200.763V167.416H199.901L197.315 171.507V172.093ZM200.085 171.461H198.085V171.415L200.039 168.324H200.085V171.461ZM204.598 173.38C205.787 173.395 206.563 172.498 206.563 171.404C206.563 170.266 205.721 169.45 204.713 169.45C204.106 169.45 203.586 169.746 203.265 170.231H203.219C203.221 168.786 203.779 167.956 204.69 167.956C205.31 167.956 205.684 168.347 205.816 168.887H206.517C206.373 167.962 205.678 167.324 204.69 167.324C203.365 167.324 202.552 168.496 202.552 170.588C202.552 172.763 203.632 173.369 204.598 173.38ZM204.598 172.748C203.859 172.748 203.319 172.119 203.322 171.415C203.325 170.711 203.891 170.082 204.621 170.082C205.342 170.082 205.873 170.674 205.873 171.404C205.873 172.151 205.319 172.748 204.598 172.748ZM212.531 169.254C212.313 168.048 211.347 167.335 210.164 167.335C208.658 167.335 207.566 168.496 207.566 170.358C207.566 172.22 208.658 173.38 210.164 173.38C211.347 173.38 212.313 172.668 212.531 171.461H211.819C211.646 172.277 210.945 172.714 210.164 172.714C209.095 172.714 208.256 171.886 208.256 170.358C208.256 168.829 209.095 168.002 210.164 168.002C210.945 168.002 211.646 168.438 211.819 169.254H212.531Z" fill="#1F2F47"/>
<path d="M177.439 186.014H181.152V185.382H178.416V185.336L179.738 183.922C180.749 182.839 181.048 182.333 181.048 181.681C181.048 180.773 180.313 180.049 179.278 180.049C178.247 180.049 177.462 180.75 177.462 181.784H178.14C178.14 181.115 178.574 180.67 179.255 180.67C179.893 180.67 180.382 181.06 180.382 181.681C180.382 182.224 180.063 182.626 179.382 183.37L177.439 185.497V186.014ZM182.074 184.807H184.843V186.014H185.522V184.807H186.326V184.175H185.522V180.13H184.66L182.074 184.221V184.807ZM184.843 184.175H182.844V184.129L184.798 181.037H184.843V184.175ZM187.403 186.014H191.115V185.382H188.38V185.336L189.701 183.922C190.713 182.839 191.011 182.333 191.011 181.681C191.011 180.773 190.276 180.049 189.242 180.049C188.21 180.049 187.426 180.75 187.426 181.784H188.104C188.104 181.115 188.538 180.67 189.219 180.67C189.856 180.67 190.345 181.06 190.345 181.681C190.345 182.224 190.026 182.626 189.345 183.37L187.403 185.497V186.014ZM193.324 185.209H192.589L192.554 185.531C192.471 186.31 192.307 187.085 192.232 187.45H192.75C192.888 187.059 193.181 186.175 193.278 185.519L193.324 185.209ZM198.913 180.13H198.201L196.73 181.106V181.83L198.166 180.877H198.201V186.014H198.913V180.13ZM202.49 186.094C203.665 186.094 204.484 185.407 204.49 184.451C204.484 183.707 203.987 183.074 203.352 182.957V182.922C203.904 182.779 204.266 182.238 204.272 181.612C204.266 180.716 203.513 180.049 202.49 180.049C201.456 180.049 200.703 180.716 200.709 181.612C200.703 182.238 201.065 182.779 201.628 182.922V182.957C200.982 183.074 200.485 183.707 200.491 184.451C200.485 185.407 201.304 186.094 202.49 186.094ZM202.49 185.462C201.683 185.462 201.186 185.048 201.192 184.416C201.186 183.753 201.735 183.278 202.49 183.278C203.234 183.278 203.783 183.753 203.789 184.416C203.783 185.048 203.286 185.462 202.49 185.462ZM202.49 182.669C201.847 182.669 201.393 182.267 201.398 181.658C201.393 181.06 201.829 180.67 202.49 180.67C203.14 180.67 203.576 181.06 203.582 181.658C203.576 182.267 203.122 182.669 202.49 182.669ZM207.51 186.094C208.809 186.094 209.556 184.994 209.556 183.072C209.556 181.164 208.797 180.049 207.51 180.049C206.223 180.049 205.465 181.164 205.465 183.072C205.465 184.994 206.212 186.094 207.51 186.094ZM207.51 185.462C206.654 185.462 206.154 184.603 206.154 183.072C206.154 181.543 206.66 180.67 207.51 180.67C208.361 180.67 208.866 181.543 208.866 183.072C208.866 184.603 208.366 185.462 207.51 185.462ZM211.465 185.209H210.73L210.695 185.531C210.612 186.31 210.448 187.085 210.373 187.45H210.891C211.028 187.059 211.321 186.175 211.419 185.519L211.465 185.209ZM217.054 180.13H216.342L214.871 181.106V181.83L216.307 180.877H216.342V186.014H217.054V180.13ZM220.666 186.094C221.964 186.094 222.711 184.994 222.711 183.072C222.711 181.164 221.953 180.049 220.666 180.049C219.378 180.049 218.62 181.164 218.62 183.072C218.62 184.994 219.367 186.094 220.666 186.094ZM220.666 185.462C219.809 185.462 219.309 184.603 219.309 183.072C219.309 181.543 219.815 180.67 220.666 180.67C221.516 180.67 222.022 181.543 222.022 183.072C222.022 184.603 221.522 185.462 220.666 185.462ZM225.688 186.094C226.863 186.094 227.682 185.407 227.688 184.451C227.682 183.707 227.185 183.074 226.55 182.957V182.922C227.101 182.779 227.463 182.238 227.469 181.612C227.463 180.716 226.711 180.049 225.688 180.049C224.654 180.049 223.901 180.716 223.906 181.612C223.901 182.238 224.263 182.779 224.826 182.922V182.957C224.179 183.074 223.682 183.707 223.688 184.451C223.682 185.407 224.501 186.094 225.688 186.094ZM225.688 185.462C224.88 185.462 224.383 185.048 224.389 184.416C224.383 183.753 224.932 183.278 225.688 183.278C226.432 183.278 226.981 183.753 226.986 184.416C226.981 185.048 226.484 185.462 225.688 185.462ZM225.688 182.669C225.044 182.669 224.59 182.267 224.596 181.658C224.59 181.06 225.027 180.67 225.688 180.67C226.337 180.67 226.774 181.06 226.78 181.658C226.774 182.267 226.32 182.669 225.688 182.669Z" fill="#1F2F47"/>
<path d="M187.518 198.808C188.659 198.808 189.507 198.093 189.507 197.131C189.507 196.384 189.064 195.841 188.323 195.717V195.671C188.918 195.49 189.288 195.002 189.288 194.338C189.288 193.505 188.63 192.763 187.541 192.763C186.524 192.763 185.68 193.39 185.645 194.315H186.335C186.36 193.729 186.918 193.384 187.53 193.384C188.179 193.384 188.599 193.778 188.599 194.372C188.599 194.993 188.113 195.395 187.415 195.395H186.944V196.027H187.415C188.308 196.027 188.805 196.481 188.805 197.131C188.805 197.754 188.262 198.176 187.507 198.176C186.826 198.176 186.286 197.826 186.243 197.257H185.519C185.562 198.182 186.378 198.808 187.518 198.808ZM191.006 198.774C191.29 198.774 191.523 198.541 191.523 198.257C191.523 197.972 191.29 197.74 191.006 197.74C190.721 197.74 190.488 197.972 190.488 198.257C190.488 198.541 190.721 198.774 191.006 198.774ZM192.59 197.521H195.36V198.728H196.038V197.521H196.842V196.889H196.038V192.844H195.176L192.59 196.935V197.521ZM195.36 196.889H193.36V196.843L195.314 193.752H195.36V196.889ZM199.792 192.752C198.597 192.74 197.827 193.637 197.827 194.729C197.827 195.866 198.666 196.682 199.677 196.682C200.287 196.682 200.804 196.384 201.125 195.901H201.171C201.171 197.349 200.608 198.176 199.7 198.176C199.08 198.176 198.701 197.786 198.574 197.245H197.873C198.011 198.176 198.712 198.808 199.7 198.808C201.022 198.808 201.838 197.636 201.838 195.545C201.838 193.373 200.758 192.763 199.792 192.752ZM199.792 193.384C200.528 193.384 201.068 194.016 201.068 194.717C201.068 195.418 200.493 196.05 199.769 196.05C199.045 196.05 198.517 195.464 198.517 194.729C198.517 193.982 199.068 193.384 199.792 193.384ZM203.785 197.924H203.05L203.015 198.245C202.932 199.024 202.768 199.8 202.693 200.165H203.211C203.349 199.774 203.642 198.889 203.739 198.234L203.785 197.924ZM209.294 198.808C210.434 198.808 211.282 198.093 211.282 197.131C211.282 196.384 210.839 195.841 210.098 195.717V195.671C210.693 195.49 211.064 195.002 211.064 194.338C211.064 193.505 210.406 192.763 209.317 192.763C208.3 192.763 207.455 193.39 207.42 194.315H208.11C208.136 193.729 208.693 193.384 209.305 193.384C209.955 193.384 210.374 193.778 210.374 194.372C210.374 194.993 209.888 195.395 209.19 195.395H208.719V196.027H209.19C210.084 196.027 210.581 196.481 210.581 197.131C210.581 197.754 210.038 198.176 209.282 198.176C208.601 198.176 208.061 197.826 208.018 197.257H207.294C207.337 198.182 208.153 198.808 209.294 198.808ZM212.457 198.728H216.169V198.096H213.434V198.05L214.756 196.636C215.767 195.553 216.066 195.048 216.066 194.395C216.066 193.487 215.33 192.763 214.296 192.763C213.264 192.763 212.48 193.464 212.48 194.499H213.158C213.158 193.829 213.592 193.384 214.273 193.384C214.911 193.384 215.399 193.775 215.399 194.395C215.399 194.938 215.08 195.341 214.399 196.085L212.457 198.211V198.728ZM217.861 198.774C218.146 198.774 218.379 198.541 218.379 198.257C218.379 197.972 218.146 197.74 217.861 197.74C217.577 197.74 217.344 197.972 217.344 198.257C217.344 198.541 217.577 198.774 217.861 198.774ZM220.949 192.844H220.237L218.766 193.821V194.545L220.202 193.591H220.237V198.728H220.949V192.844ZM224.515 192.752C223.32 192.74 222.55 193.637 222.55 194.729C222.55 195.866 223.389 196.682 224.4 196.682C225.009 196.682 225.526 196.384 225.848 195.901H225.894C225.894 197.349 225.331 198.176 224.423 198.176C223.802 198.176 223.423 197.786 223.297 197.245H222.596C222.734 198.176 223.435 198.808 224.423 198.808C225.745 198.808 226.561 197.636 226.561 195.545C226.561 193.373 225.48 192.763 224.515 192.752ZM224.515 193.384C225.25 193.384 225.791 194.016 225.791 194.717C225.791 195.418 225.216 196.05 224.492 196.05C223.768 196.05 223.239 195.464 223.239 194.729C223.239 193.982 223.791 193.384 224.515 193.384ZM228.508 197.924H227.772L227.738 198.245C227.654 199.024 227.491 199.8 227.416 200.165H227.933C228.071 199.774 228.364 198.889 228.462 198.234L228.508 197.924ZM233.982 198.808C235.171 198.823 235.947 197.926 235.947 196.832C235.947 195.694 235.105 194.878 234.097 194.878C233.491 194.878 232.97 195.174 232.649 195.66H232.603C232.606 194.214 233.163 193.384 234.074 193.384C234.694 193.384 235.068 193.775 235.2 194.315H235.901C235.757 193.39 235.062 192.752 234.074 192.752C232.749 192.752 231.936 193.924 231.936 196.016C231.936 198.191 233.016 198.797 233.982 198.808ZM233.982 198.176C233.243 198.176 232.703 197.547 232.706 196.843C232.709 196.139 233.275 195.51 234.005 195.51C234.726 195.51 235.257 196.102 235.257 196.832C235.257 197.579 234.703 198.176 233.982 198.176ZM238.916 198.808C240.036 198.808 240.858 197.981 240.858 196.855C240.858 195.714 240.065 194.878 238.985 194.878C238.588 194.878 238.203 195.019 237.962 195.211H237.927L238.134 193.476H240.594V192.844H237.537L237.18 195.74L237.847 195.82C238.091 195.645 238.508 195.519 238.87 195.522C239.62 195.527 240.168 196.096 240.168 196.866C240.168 197.622 239.64 198.176 238.916 198.176C238.312 198.176 237.833 197.789 237.778 197.257H237.088C237.131 198.153 237.904 198.808 238.916 198.808ZM242.284 198.774C242.568 198.774 242.801 198.541 242.801 198.257C242.801 197.972 242.568 197.74 242.284 197.74C241.999 197.74 241.767 197.972 241.767 198.257C241.767 198.541 241.999 198.774 242.284 198.774ZM245.372 192.844H244.659L243.188 193.821V194.545L244.625 193.591H244.659V198.728H245.372V192.844ZM246.926 197.521H249.696V198.728H250.374V197.521H251.178V196.889H250.374V192.844H249.512L246.926 196.935V197.521ZM249.696 196.889H247.696V196.843L249.65 193.752H249.696V196.889ZM253.001 197.924H252.266L252.231 198.245C252.148 199.024 251.984 199.8 251.909 200.165H252.427C252.564 199.774 252.858 198.889 252.955 198.234L253.001 197.924ZM258.441 198.808C259.739 198.808 260.486 197.708 260.486 195.786C260.486 193.878 259.728 192.763 258.441 192.763C257.154 192.763 256.395 193.878 256.395 195.786C256.395 197.708 257.142 198.808 258.441 198.808ZM258.441 198.176C257.585 198.176 257.085 197.317 257.085 195.786C257.085 194.257 257.59 193.384 258.441 193.384C259.291 193.384 259.797 194.257 259.797 195.786C259.797 197.317 259.297 198.176 258.441 198.176Z" fill="#1F2F47"/>
<path d="M155.381 173.3H156.625V170.869H159.151V173.3H160.392V167.416H159.151V169.843H156.625V167.416H155.381V173.3ZM161.418 173.3H165.394V172.274H162.662V170.869H165.179V169.843H162.662V168.441H165.383V167.416H161.418V173.3ZM167.538 167.416H166.127L167.935 170.358L166.093 173.3H167.518L168.725 171.291H168.771L169.977 173.3H171.408L169.572 170.358L171.368 167.416H169.963L168.771 169.421H168.725L167.538 167.416ZM172.848 169.731C173.215 169.731 173.534 169.424 173.537 169.042C173.534 168.665 173.215 168.358 172.848 168.358C172.468 168.358 172.155 168.665 172.158 169.042C172.155 169.424 172.468 169.731 172.848 169.731ZM172.848 172.616C173.215 172.616 173.534 172.309 173.537 171.926C173.534 171.55 173.215 171.243 172.848 171.243C172.468 171.243 172.155 171.55 172.158 171.926C172.155 172.309 172.468 172.616 172.848 172.616Z" fill="#1F2F47"/>
<path d="M155.381 186.014H156.625V183.928H157.533L158.648 186.014H160.021L158.771 183.727C159.441 183.439 159.812 182.856 159.812 182.052C159.812 180.882 159.039 180.13 157.703 180.13H155.381V186.014ZM156.625 182.928V181.147H157.464C158.182 181.147 158.53 181.466 158.53 182.052C158.53 182.635 158.182 182.928 157.47 182.928H156.625ZM164.592 182.032H165.857C165.696 180.868 164.67 180.049 163.34 180.049C161.785 180.049 160.587 181.17 160.587 183.077C160.587 184.939 161.708 186.094 163.366 186.094C164.851 186.094 165.911 185.155 165.911 183.606V182.865H163.449V183.801H164.713C164.696 184.531 164.199 184.994 163.371 184.994C162.438 184.994 161.849 184.296 161.849 183.066C161.849 181.842 162.461 181.149 163.36 181.149C164.001 181.149 164.434 181.48 164.592 182.032ZM166.846 186.014H169.36C170.681 186.014 171.385 185.324 171.385 184.387C171.385 183.517 170.762 182.991 170.092 182.96V182.902C170.704 182.764 171.155 182.33 171.155 181.638C171.155 180.756 170.5 180.13 169.202 180.13H166.846V186.014ZM168.09 184.997V183.434H169.133C169.73 183.434 170.101 183.778 170.101 184.264C170.101 184.706 169.799 184.997 169.104 184.997H168.09ZM168.09 182.592V181.135H169.035C169.587 181.135 169.9 181.42 169.9 181.845C169.9 182.31 169.521 182.592 169.012 182.592H168.09ZM172.887 182.445C173.255 182.445 173.574 182.138 173.577 181.756C173.574 181.379 173.255 181.072 172.887 181.072C172.508 181.072 172.195 181.379 172.198 181.756C172.195 182.138 172.508 182.445 172.887 182.445ZM172.887 185.33C173.255 185.33 173.574 185.022 173.577 184.64C173.574 184.264 173.255 183.957 172.887 183.957C172.508 183.957 172.195 184.264 172.198 184.64C172.195 185.022 172.508 185.33 172.887 185.33Z" fill="#1F2F47"/>
<path d="M160.573 194.904C160.409 193.545 159.381 192.763 158.019 192.763C156.464 192.763 155.278 193.861 155.278 195.786C155.278 197.705 156.444 198.808 158.019 198.808C159.527 198.808 160.438 197.806 160.573 196.723L159.314 196.717C159.197 197.346 158.703 197.708 158.039 197.708C157.145 197.708 156.539 197.044 156.539 195.786C156.539 194.562 157.137 193.864 158.047 193.864C158.728 193.864 159.22 194.257 159.314 194.904H160.573ZM161.465 192.844V198.728H162.672V194.884H162.721L164.243 198.699H165.065L166.588 194.898H166.637V198.728H167.843V192.844H166.309L164.689 196.797H164.62L162.999 192.844H161.465ZM168.524 192.844L170.67 196.648V198.728H171.905V196.648L174.051 192.844H172.658L171.316 195.378H171.259L169.917 192.844H168.524ZM174.731 198.728H175.975V197.056L176.587 196.309L178.199 198.728H179.687L177.478 195.479L179.661 192.844H178.17L176.053 195.438H175.975V192.844H174.731V198.728ZM181.002 195.16C181.369 195.16 181.688 194.852 181.691 194.47C181.688 194.094 181.369 193.786 181.002 193.786C180.622 193.786 180.309 194.094 180.312 194.47C180.309 194.852 180.622 195.16 181.002 195.16ZM181.002 198.044C181.369 198.044 181.688 197.737 181.691 197.355C181.688 196.978 181.369 196.671 181.002 196.671C180.622 196.671 180.309 196.978 180.312 197.355C180.309 197.737 180.622 198.044 181.002 198.044Z" fill="#1F2F47"/>
<path d="M343.834 172.844L344.374 171.287H346.672L347.21 172.844H348.152L346.035 166.96H345.009L342.891 172.844H343.834ZM344.632 170.54L345.5 168.029H345.546L346.414 170.54H344.632Z" fill="#1F2F47"/>
<rect x="334.311" y="183.627" width="23.1164" height="9.82445" rx="2.02268" fill="black" stroke="white" stroke-width="0.577909"/>
<path d="M336.913 190.916H337.737V188.995H338.858C340.125 188.995 340.752 188.229 340.752 187.22C340.752 186.215 340.13 185.452 338.86 185.452H336.913V190.916ZM337.737 188.296V186.159H338.772C339.589 186.159 339.922 186.602 339.922 187.22C339.922 187.839 339.589 188.296 338.783 188.296H337.737ZM341.6 190.916L342.102 189.47H344.236L344.735 190.916H345.61L343.644 185.452H342.692L340.725 190.916H341.6ZM342.342 188.776L343.148 186.444H343.19L343.996 188.776H342.342ZM349.335 186.887H350.13C350.106 186.012 349.333 185.377 348.223 185.377C347.126 185.377 346.286 186.004 346.286 186.946C346.286 187.706 346.83 188.152 347.708 188.389L348.354 188.565C348.938 188.72 349.389 188.912 349.389 189.397C349.389 189.931 348.879 190.283 348.177 190.283C347.542 190.283 347.014 190 346.966 189.405H346.139C346.193 190.395 346.958 191.006 348.183 191.006C349.466 191.006 350.205 190.331 350.205 189.405C350.205 188.421 349.327 188.04 348.634 187.869L348.1 187.73C347.673 187.621 347.105 187.421 347.108 186.898C347.108 186.433 347.532 186.089 348.204 186.089C348.831 186.089 349.277 186.383 349.335 186.887ZM354.17 186.887H354.965C354.941 186.012 354.168 185.377 353.058 185.377C351.961 185.377 351.121 186.004 351.121 186.946C351.121 187.706 351.665 188.152 352.543 188.389L353.188 188.565C353.773 188.72 354.224 188.912 354.224 189.397C354.224 189.931 353.714 190.283 353.012 190.283C352.377 190.283 351.849 190 351.801 189.405H350.974C351.027 190.395 351.793 191.006 353.018 191.006C354.301 191.006 355.04 190.331 355.04 189.405C355.04 188.421 354.162 188.04 353.469 187.869L352.935 187.73C352.508 187.621 351.94 187.421 351.943 186.898C351.943 186.433 352.367 186.089 353.039 186.089C353.666 186.089 354.112 186.383 354.17 186.887Z" fill="white"/>
<path d="M372.729 172.844L373.269 171.287H375.568L376.105 172.844H377.048L374.93 166.96H373.904L371.787 172.844H372.729ZM373.528 170.54L374.396 168.029H374.442L375.309 170.54H373.528Z" fill="white"/>
<rect x="362.628" y="183.627" width="23.1164" height="9.82445" rx="2.02268" fill="black" stroke="white" stroke-width="0.577909"/>
<path d="M367.164 190.916H367.988V188.533H370.309V187.826H367.988V186.161H370.552V185.452H367.164V190.916ZM371.345 190.916L371.846 189.47H373.981L374.48 190.916H375.355L373.389 185.452H372.436L370.47 190.916H371.345ZM372.087 188.776L372.892 186.444H372.935L373.741 188.776H372.087ZM376.968 185.452H376.144V190.916H376.968V185.452ZM378.169 190.916H381.469V190.206H378.993V185.452H378.169V190.916Z" fill="white"/>
<path d="M141 235.467C141 233.552 142.552 232 144.467 232H423.533C425.448 232 427 233.552 427 235.467V327.533C427 329.448 425.448 331 423.533 331H144.467C142.552 331 141 329.448 141 327.533V235.467Z" fill="#CC4149"/>
<path d="M155.418 263.872H156.751V261.637H157.724L158.918 263.872H160.389L159.05 261.421C159.768 261.113 160.165 260.488 160.165 259.627C160.165 258.374 159.337 257.567 157.905 257.567H155.418V263.872ZM156.751 260.565V258.657H157.65C158.419 258.657 158.792 258.999 158.792 259.627C158.792 260.251 158.419 260.565 157.656 260.565H156.751ZM161.319 263.872H162.695L165.312 258.672V257.567H160.888V258.657H163.933V258.7L161.319 263.872ZM168.562 264.01C170.147 264.01 171.104 262.803 171.107 260.726C171.11 258.663 170.141 257.481 168.562 257.481C166.979 257.481 166.019 258.66 166.016 260.726C166.01 262.797 166.973 264.007 168.562 264.01ZM168.562 262.905C167.838 262.905 167.37 262.178 167.373 260.726C167.376 259.294 167.841 258.574 168.562 258.574C169.279 258.574 169.747 259.294 169.747 260.726C169.75 262.178 169.282 262.905 168.562 262.905ZM177.022 260.199H174.147V261.24H177.022V260.199ZM182.695 257.567V261.963C182.692 262.569 182.421 262.89 181.929 262.89C181.464 262.89 181.162 262.6 181.153 262.098H179.826C179.82 263.357 180.719 263.958 181.861 263.958C183.138 263.958 184.01 263.185 184.013 261.963V257.567H182.695ZM186.438 263.961C187.137 263.961 187.59 263.656 187.821 263.216H187.857V263.872H189.101V260.682C189.101 259.556 188.147 259.082 187.094 259.082C185.961 259.082 185.216 259.623 185.035 260.485L186.247 260.584C186.337 260.27 186.617 260.039 187.088 260.039C187.534 260.039 187.79 260.264 187.79 260.652V260.67C187.79 260.975 187.467 261.015 186.645 261.095C185.709 261.181 184.868 261.495 184.868 262.551C184.868 263.487 185.536 263.961 186.438 263.961ZM186.814 263.056C186.411 263.056 186.121 262.868 186.121 262.508C186.121 262.138 186.426 261.957 186.888 261.892C187.174 261.852 187.642 261.784 187.799 261.68V262.182C187.799 262.677 187.39 263.056 186.814 263.056ZM194.053 260.492C193.936 259.62 193.234 259.082 192.039 259.082C190.83 259.082 190.032 259.642 190.035 260.553C190.032 261.261 190.479 261.72 191.402 261.905L192.221 262.068C192.634 262.151 192.821 262.302 192.827 262.539C192.821 262.819 192.517 263.019 192.058 263.019C191.59 263.019 191.279 262.819 191.199 262.434L189.909 262.502C190.032 263.407 190.802 263.964 192.055 263.964C193.28 263.964 194.157 263.339 194.16 262.406C194.157 261.723 193.711 261.313 192.794 261.126L191.938 260.953C191.498 260.858 191.334 260.707 191.338 260.479C191.334 260.196 191.655 260.011 192.061 260.011C192.517 260.011 192.787 260.261 192.852 260.565L194.053 260.492ZM194.986 265.645H196.298V263.114H196.338C196.519 263.508 196.916 263.949 197.68 263.949C198.757 263.949 199.598 263.096 199.598 261.514C199.598 259.888 198.72 259.082 197.683 259.082C196.892 259.082 196.513 259.553 196.338 259.937H196.279V259.143H194.986V265.645ZM196.27 261.507C196.27 260.664 196.627 260.125 197.264 260.125C197.914 260.125 198.258 260.689 198.258 261.507C198.258 262.332 197.908 262.905 197.264 262.905C196.633 262.905 196.27 262.351 196.27 261.507ZM202.627 263.964C203.796 263.964 204.584 263.394 204.769 262.517L203.556 262.437C203.424 262.797 203.085 262.985 202.648 262.985C201.992 262.985 201.577 262.551 201.577 261.846V261.843H204.797V261.483C204.797 259.876 203.824 259.082 202.574 259.082C201.183 259.082 200.281 260.07 200.281 261.529C200.281 263.028 201.171 263.964 202.627 263.964ZM201.577 261.03C201.605 260.492 202.014 260.061 202.596 260.061C203.165 260.061 203.559 260.467 203.562 261.03H201.577ZM205.653 263.872H206.964V261.196C206.964 260.615 207.389 260.215 207.968 260.215C208.149 260.215 208.399 260.245 208.522 260.285V259.122C208.405 259.094 208.242 259.076 208.109 259.076C207.58 259.076 207.146 259.383 206.973 259.968H206.924V259.143H205.653V263.872Z" fill="white"/>
<path d="M179.646 289.3H180.221L180.488 287.668H181.358L181.45 287.093H180.583L180.824 285.622H181.703L181.795 285.048H180.919L181.186 283.416H180.611L180.344 285.048H178.85L179.117 283.416H178.543L178.276 285.048H177.405L177.313 285.622H178.181L177.939 287.093H177.06L176.968 287.668H177.845L177.577 289.3H178.152L178.419 287.668H179.913L179.646 289.3ZM178.514 287.093L178.755 285.622H180.249L180.008 287.093H178.514ZM187.382 285.254C187.164 284.048 186.198 283.335 185.014 283.335C183.509 283.335 182.417 284.496 182.417 286.358C182.417 288.22 183.509 289.38 185.014 289.38C186.198 289.38 187.164 288.668 187.382 287.461H186.669C186.497 288.277 185.796 288.714 185.014 288.714C183.946 288.714 183.107 287.886 183.107 286.358C183.107 284.829 183.946 284.002 185.014 284.002C185.796 284.002 186.497 284.438 186.669 285.254H187.382ZM193.268 285.254C193.05 284.048 192.084 283.335 190.901 283.335C189.395 283.335 188.303 284.496 188.303 286.358C188.303 288.22 189.395 289.38 190.901 289.38C192.084 289.38 193.05 288.668 193.268 287.461H192.556C192.383 288.277 191.682 288.714 190.901 288.714C189.832 288.714 188.993 287.886 188.993 286.358C188.993 284.829 189.832 284.002 190.901 284.002C191.682 284.002 192.383 284.438 192.556 285.254H193.268ZM194.178 288.093H196.948V289.3H197.626V288.093H198.43V287.461H197.626V283.416H196.764L194.178 287.507V288.093ZM196.948 287.461H194.948V287.415L196.902 284.324H196.948V287.461ZM201.497 283.416H200.784L199.313 284.393V285.117L200.75 284.163H200.784V289.3H201.497V283.416ZM203.051 288.093H205.821V289.3H206.499V288.093H207.303V287.461H206.499V283.416H205.637L203.051 287.507V288.093ZM205.821 287.461H203.821V287.415L205.775 284.324H205.821V287.461ZM210.253 283.324C209.058 283.312 208.288 284.209 208.288 285.3C208.288 286.438 209.127 287.254 210.138 287.254C210.748 287.254 211.265 286.955 211.587 286.473H211.633C211.633 287.921 211.069 288.748 210.161 288.748C209.541 288.748 209.162 288.357 209.035 287.817H208.334C208.472 288.748 209.173 289.38 210.161 289.38C211.483 289.38 212.299 288.208 212.299 286.116C212.299 283.944 211.219 283.335 210.253 283.324ZM210.253 283.956C210.989 283.956 211.529 284.588 211.529 285.289C211.529 285.99 210.954 286.622 210.23 286.622C209.506 286.622 208.978 286.036 208.978 285.3C208.978 284.553 209.529 283.956 210.253 283.956Z" fill="white"/>
<path d="M177.439 302.014H181.152V301.382H178.416V301.336L179.738 299.922C180.749 298.839 181.048 298.333 181.048 297.681C181.048 296.773 180.313 296.049 179.278 296.049C178.247 296.049 177.462 296.75 177.462 297.784H178.14C178.14 297.115 178.574 296.67 179.255 296.67C179.893 296.67 180.382 297.06 180.382 297.681C180.382 298.224 180.063 298.626 179.382 299.37L177.439 301.497V302.014ZM184.257 302.094C185.556 302.094 186.303 300.994 186.303 299.072C186.303 297.164 185.545 296.049 184.257 296.049C182.97 296.049 182.212 297.164 182.212 299.072C182.212 300.994 182.959 302.094 184.257 302.094ZM184.257 301.462C183.401 301.462 182.901 300.603 182.901 299.072C182.901 297.543 183.407 296.67 184.257 296.67C185.108 296.67 185.613 297.543 185.613 299.072C185.613 300.603 185.114 301.462 184.257 301.462ZM187.257 300.807H190.027V302.014H190.705V300.807H191.509V300.175H190.705V296.13H189.843L187.257 300.221V300.807ZM190.027 300.175H188.027V300.129L189.981 297.037H190.027V300.175ZM193.332 301.209H192.597L192.562 301.531C192.479 302.31 192.315 303.085 192.24 303.45H192.757C192.895 303.059 193.188 302.175 193.286 301.519L193.332 301.209ZM198.806 302.094C199.996 302.108 200.771 301.212 200.771 300.117C200.771 298.98 199.93 298.164 198.921 298.164C198.315 298.164 197.795 298.46 197.473 298.945H197.427C197.43 297.5 197.987 296.67 198.898 296.67C199.519 296.67 199.892 297.06 200.024 297.601H200.725C200.582 296.675 199.886 296.038 198.898 296.038C197.574 296.038 196.76 297.21 196.76 299.301C196.76 301.476 197.841 302.083 198.806 302.094ZM198.806 301.462C198.068 301.462 197.528 300.833 197.53 300.129C197.533 299.425 198.099 298.796 198.829 298.796C199.55 298.796 200.082 299.388 200.082 300.117C200.082 300.864 199.527 301.462 198.806 301.462ZM203.74 302.094C204.861 302.094 205.682 301.267 205.682 300.14C205.682 299 204.889 298.164 203.809 298.164C203.412 298.164 203.027 298.304 202.786 298.497H202.752L202.959 296.762H205.418V296.13H202.361L202.005 299.026L202.671 299.106C202.915 298.931 203.332 298.804 203.694 298.807C204.444 298.813 204.993 299.382 204.993 300.152C204.993 300.908 204.464 301.462 203.74 301.462C203.137 301.462 202.657 301.074 202.602 300.543H201.913C201.956 301.439 202.729 302.094 203.74 302.094ZM207.625 301.209H206.89L206.855 301.531C206.772 302.31 206.608 303.085 206.533 303.45H207.051C207.188 303.059 207.482 302.175 207.579 301.519L207.625 301.209ZM211.329 302.014H212.076L214.697 296.796V296.13H210.927V296.762H213.961V296.808L211.329 302.014ZM217.622 302.094C218.762 302.094 219.61 301.379 219.61 300.416C219.61 299.669 219.167 299.126 218.426 299.003V298.957C219.021 298.776 219.391 298.287 219.391 297.624C219.391 296.79 218.733 296.049 217.645 296.049C216.627 296.049 215.783 296.675 215.748 297.601H216.438C216.464 297.014 217.021 296.67 217.633 296.67C218.282 296.67 218.702 297.063 218.702 297.658C218.702 298.279 218.216 298.681 217.518 298.681H217.047V299.313H217.518C218.412 299.313 218.909 299.767 218.909 300.416C218.909 301.04 218.366 301.462 217.61 301.462C216.929 301.462 216.389 301.112 216.346 300.543H215.622C215.665 301.468 216.481 302.094 217.622 302.094Z" fill="white"/>
<path d="M187.599 308.844H186.886L185.415 309.821V310.545L186.852 309.591H186.886V314.728H187.599V308.844ZM189.153 313.521H191.923V314.728H192.601V313.521H193.405V312.889H192.601V308.844H191.739L189.153 312.935V313.521ZM191.923 312.889H189.923V312.843L191.877 309.752H191.923V312.889ZM194.711 314.774C194.996 314.774 195.228 314.541 195.228 314.257C195.228 313.972 194.996 313.74 194.711 313.74C194.427 313.74 194.194 313.972 194.194 314.257C194.194 314.541 194.427 314.774 194.711 314.774ZM198.154 314.808C199.274 314.808 200.096 313.981 200.096 312.855C200.096 311.714 199.303 310.878 198.223 310.878C197.826 310.878 197.441 311.019 197.2 311.211H197.166L197.372 309.476H199.832V308.844H196.775L196.419 311.74L197.085 311.82C197.329 311.645 197.746 311.519 198.108 311.522C198.858 311.527 199.407 312.096 199.407 312.866C199.407 313.622 198.878 314.176 198.154 314.176C197.551 314.176 197.071 313.789 197.016 313.257H196.327C196.37 314.153 197.143 314.808 198.154 314.808ZM202.039 313.924H201.304L201.269 314.245C201.186 315.024 201.022 315.8 200.947 316.165H201.464C201.602 315.774 201.895 314.889 201.993 314.234L202.039 313.924ZM207.444 314.808C208.619 314.808 209.438 314.122 209.444 313.165C209.438 312.421 208.941 311.789 208.306 311.671V311.637C208.858 311.493 209.22 310.953 209.226 310.326C209.22 309.43 208.467 308.763 207.444 308.763C206.41 308.763 205.657 309.43 205.663 310.326C205.657 310.953 206.019 311.493 206.582 311.637V311.671C205.936 311.789 205.439 312.421 205.444 313.165C205.439 314.122 206.258 314.808 207.444 314.808ZM207.444 314.176C206.637 314.176 206.14 313.763 206.146 313.131C206.14 312.467 206.689 311.993 207.444 311.993C208.188 311.993 208.737 312.467 208.743 313.131C208.737 313.763 208.24 314.176 207.444 314.176ZM207.444 311.384C206.801 311.384 206.347 310.981 206.352 310.372C206.347 309.775 206.783 309.384 207.444 309.384C208.094 309.384 208.53 309.775 208.536 310.372C208.53 310.981 208.076 311.384 207.444 311.384ZM212.43 314.808C213.605 314.808 214.424 314.122 214.429 313.165C214.424 312.421 213.927 311.789 213.292 311.671V311.637C213.843 311.493 214.205 310.953 214.211 310.326C214.205 309.43 213.453 308.763 212.43 308.763C211.395 308.763 210.643 309.43 210.648 310.326C210.643 310.953 211.005 311.493 211.568 311.637V311.671C210.921 311.789 210.424 312.421 210.43 313.165C210.424 314.122 211.243 314.808 212.43 314.808ZM212.43 314.176C211.622 314.176 211.125 313.763 211.131 313.131C211.125 312.467 211.674 311.993 212.43 311.993C213.174 311.993 213.723 312.467 213.728 313.131C213.723 313.763 213.226 314.176 212.43 314.176ZM212.43 311.384C211.786 311.384 211.332 310.981 211.338 310.372C211.332 309.775 211.769 309.384 212.43 309.384C213.079 309.384 213.516 309.775 213.522 310.372C213.516 310.981 213.062 311.384 212.43 311.384ZM215.855 314.774C216.139 314.774 216.372 314.541 216.372 314.257C216.372 313.972 216.139 313.74 215.855 313.74C215.57 313.74 215.337 313.972 215.337 314.257C215.337 314.541 215.57 314.774 215.855 314.774ZM217.642 314.728H218.389L221.01 309.51V308.844H217.24V309.476H220.274V309.522L217.642 314.728ZM223.875 308.752C222.68 308.74 221.91 309.637 221.91 310.729C221.91 311.866 222.749 312.682 223.76 312.682C224.369 312.682 224.886 312.384 225.208 311.901H225.254C225.254 313.349 224.691 314.176 223.783 314.176C223.162 314.176 222.783 313.786 222.657 313.245H221.956C222.094 314.176 222.795 314.808 223.783 314.808C225.105 314.808 225.921 313.636 225.921 311.545C225.921 309.373 224.84 308.763 223.875 308.752ZM223.875 309.384C224.61 309.384 225.151 310.016 225.151 310.717C225.151 311.418 224.576 312.05 223.852 312.05C223.128 312.05 222.599 311.464 222.599 310.729C222.599 309.982 223.151 309.384 223.875 309.384ZM227.868 313.924H227.132L227.098 314.245C227.014 315.024 226.851 315.8 226.776 316.165H227.293C227.431 315.774 227.724 314.889 227.822 314.234L227.868 313.924ZM231.572 314.728H232.319L234.939 309.51V308.844H231.17V309.476H234.204V309.522L231.572 314.728ZM238.079 308.844H237.366L235.895 309.821V310.545L237.332 309.591H237.366V314.728H238.079V308.844ZM239.929 314.774C240.214 314.774 240.446 314.541 240.446 314.257C240.446 313.972 240.214 313.74 239.929 313.74C239.645 313.74 239.412 313.972 239.412 314.257C239.412 314.541 239.645 314.774 239.929 314.774ZM243.017 308.844H242.305L240.833 309.821V310.545L242.27 309.591H242.305V314.728H243.017V308.844ZM246.663 314.808C247.853 314.823 248.628 313.926 248.628 312.832C248.628 311.694 247.786 310.878 246.778 310.878C246.172 310.878 245.652 311.174 245.33 311.66H245.284C245.287 310.214 245.844 309.384 246.755 309.384C247.376 309.384 247.749 309.775 247.881 310.315H248.582C248.439 309.39 247.743 308.752 246.755 308.752C245.431 308.752 244.617 309.924 244.617 312.016C244.617 314.191 245.698 314.797 246.663 314.808ZM246.663 314.176C245.925 314.176 245.385 313.547 245.387 312.843C245.39 312.139 245.956 311.51 246.686 311.51C247.407 311.51 247.939 312.102 247.939 312.832C247.939 313.579 247.384 314.176 246.663 314.176ZM250.504 313.924H249.769L249.734 314.245C249.651 315.024 249.487 315.8 249.413 316.165H249.93C250.068 315.774 250.361 314.889 250.458 314.234L250.504 313.924ZM254.025 314.728H257.737V314.096H255.002V314.05L256.323 312.636C257.335 311.553 257.633 311.048 257.633 310.395C257.633 309.487 256.898 308.763 255.864 308.763C254.832 308.763 254.048 309.464 254.048 310.499H254.726C254.726 309.829 255.16 309.384 255.841 309.384C256.478 309.384 256.967 309.775 256.967 310.395C256.967 310.938 256.648 311.341 255.967 312.085L254.025 314.211V314.728ZM259.429 314.774C259.714 314.774 259.946 314.541 259.946 314.257C259.946 313.972 259.714 313.74 259.429 313.74C259.145 313.74 258.912 313.972 258.912 314.257C258.912 314.541 259.145 314.774 259.429 314.774ZM262.855 314.808C264.03 314.808 264.849 314.122 264.854 313.165C264.849 312.421 264.351 311.789 263.717 311.671V311.637C264.268 311.493 264.63 310.953 264.636 310.326C264.63 309.43 263.877 308.763 262.855 308.763C261.82 308.763 261.067 309.43 261.073 310.326C261.067 310.953 261.43 311.493 261.993 311.637V311.671C261.346 311.789 260.849 312.421 260.855 313.165C260.849 314.122 261.668 314.808 262.855 314.808ZM262.855 314.176C262.047 314.176 261.55 313.763 261.556 313.131C261.55 312.467 262.099 311.993 262.855 311.993C263.599 311.993 264.147 312.467 264.153 313.131C264.147 313.763 263.65 314.176 262.855 314.176ZM262.855 311.384C262.211 311.384 261.757 310.981 261.763 310.372C261.757 309.775 262.194 309.384 262.855 309.384C263.504 309.384 263.941 309.775 263.946 310.372C263.941 310.981 263.487 311.384 262.855 311.384ZM268.024 308.844H267.312L265.84 309.821V310.545L267.277 309.591H267.312V314.728H268.024V308.844Z" fill="white"/>
<path d="M155.381 289.3H156.625V286.869H159.151V289.3H160.392V283.416H159.151V285.843H156.625V283.416H155.381V289.3ZM161.418 289.3H165.394V288.274H162.662V286.869H165.179V285.843H162.662V284.441H165.383V283.416H161.418V289.3ZM167.538 283.416H166.127L167.935 286.358L166.093 289.3H167.518L168.725 287.291H168.771L169.977 289.3H171.408L169.572 286.358L171.368 283.416H169.963L168.771 285.421H168.725L167.538 283.416ZM172.848 285.731C173.215 285.731 173.534 285.424 173.537 285.042C173.534 284.665 173.215 284.358 172.848 284.358C172.468 284.358 172.155 284.665 172.158 285.042C172.155 285.424 172.468 285.731 172.848 285.731ZM172.848 288.616C173.215 288.616 173.534 288.309 173.537 287.926C173.534 287.55 173.215 287.243 172.848 287.243C172.468 287.243 172.155 287.55 172.158 287.926C172.155 288.309 172.468 288.616 172.848 288.616Z" fill="white"/>
<path d="M155.381 302.014H156.625V299.928H157.533L158.648 302.014H160.021L158.771 299.727C159.441 299.439 159.812 298.856 159.812 298.052C159.812 296.882 159.039 296.13 157.703 296.13H155.381V302.014ZM156.625 298.928V297.147H157.464C158.182 297.147 158.53 297.466 158.53 298.052C158.53 298.635 158.182 298.928 157.47 298.928H156.625ZM164.592 298.032H165.857C165.696 296.868 164.67 296.049 163.34 296.049C161.785 296.049 160.587 297.17 160.587 299.077C160.587 300.939 161.708 302.094 163.366 302.094C164.851 302.094 165.911 301.155 165.911 299.606V298.865H163.449V299.801H164.713C164.696 300.531 164.199 300.994 163.371 300.994C162.438 300.994 161.849 300.296 161.849 299.066C161.849 297.842 162.461 297.149 163.36 297.149C164.001 297.149 164.434 297.48 164.592 298.032ZM166.846 302.014H169.36C170.681 302.014 171.385 301.324 171.385 300.387C171.385 299.517 170.762 298.991 170.092 298.96V298.902C170.704 298.764 171.155 298.33 171.155 297.638C171.155 296.756 170.5 296.13 169.202 296.13H166.846V302.014ZM168.09 300.997V299.434H169.133C169.73 299.434 170.101 299.778 170.101 300.264C170.101 300.706 169.799 300.997 169.104 300.997H168.09ZM168.09 298.592V297.135H169.035C169.587 297.135 169.9 297.42 169.9 297.845C169.9 298.31 169.521 298.592 169.012 298.592H168.09ZM172.887 298.445C173.255 298.445 173.574 298.138 173.577 297.756C173.574 297.379 173.255 297.072 172.887 297.072C172.508 297.072 172.195 297.379 172.198 297.756C172.195 298.138 172.508 298.445 172.887 298.445ZM172.887 301.33C173.255 301.33 173.574 301.022 173.577 300.64C173.574 300.264 173.255 299.957 172.887 299.957C172.508 299.957 172.195 300.264 172.198 300.64C172.195 301.022 172.508 301.33 172.887 301.33Z" fill="white"/>
<path d="M160.573 310.904C160.409 309.545 159.381 308.763 158.019 308.763C156.464 308.763 155.278 309.861 155.278 311.786C155.278 313.705 156.444 314.808 158.019 314.808C159.527 314.808 160.438 313.806 160.573 312.723L159.314 312.717C159.197 313.346 158.703 313.708 158.039 313.708C157.145 313.708 156.539 313.044 156.539 311.786C156.539 310.562 157.137 309.864 158.047 309.864C158.728 309.864 159.22 310.257 159.314 310.904H160.573ZM161.465 308.844V314.728H162.672V310.884H162.721L164.243 314.699H165.065L166.588 310.898H166.637V314.728H167.843V308.844H166.309L164.689 312.797H164.62L162.999 308.844H161.465ZM168.524 308.844L170.67 312.648V314.728H171.905V312.648L174.051 308.844H172.658L171.316 311.378H171.259L169.917 308.844H168.524ZM174.731 314.728H175.975V313.056L176.587 312.309L178.199 314.728H179.687L177.478 311.479L179.661 308.844H178.17L176.053 311.438H175.975V308.844H174.731V314.728ZM181.002 311.16C181.369 311.16 181.688 310.852 181.691 310.47C181.688 310.094 181.369 309.786 181.002 309.786C180.622 309.786 180.309 310.094 180.312 310.47C180.309 310.852 180.622 311.16 181.002 311.16ZM181.002 314.044C181.369 314.044 181.688 313.737 181.691 313.355C181.688 312.978 181.369 312.671 181.002 312.671C180.622 312.671 180.309 312.978 180.312 313.355C180.309 313.737 180.622 314.044 181.002 314.044Z" fill="white"/>
<path d="M343.834 288.844L344.374 287.287H346.672L347.21 288.844H348.152L346.035 282.96H345.009L342.891 288.844H343.834ZM344.632 286.54L345.5 284.029H345.546L346.414 286.54H344.632Z" fill="#1F2F47"/>
<rect x="334.311" y="299.627" width="23.1164" height="9.82445" rx="2.02268" fill="black" stroke="white" stroke-width="0.577909"/>
<path d="M338.846 306.916H339.671V304.533H341.992V303.826H339.671V302.161H342.234V301.452H338.846V306.916ZM343.027 306.916L343.529 305.47H345.663L346.162 306.916H347.037L345.071 301.452H344.119L342.152 306.916H343.027ZM343.769 304.776L344.575 302.444H344.617L345.423 304.776H343.769ZM348.651 301.452H347.826V306.916H348.651V301.452ZM349.851 306.916H353.151V306.206H350.676V301.452H349.851V306.916Z" fill="white"/>
<path d="M372.729 288.844L373.269 287.287H375.568L376.105 288.844H377.048L374.93 282.96H373.904L371.787 288.844H372.729ZM373.528 286.54L374.396 284.029H374.442L375.309 286.54H373.528Z" fill="white"/>
<rect x="362.628" y="299.627" width="23.1164" height="9.82445" rx="2.02268" fill="black" stroke="white" stroke-width="0.577909"/>
<path d="M365.23 306.916H366.055V304.995H367.175C368.443 304.995 369.07 304.229 369.07 303.22C369.07 302.215 368.448 301.452 367.178 301.452H365.23V306.916ZM366.055 304.296V302.159H367.09C367.906 302.159 368.24 302.602 368.24 303.22C368.24 303.839 367.906 304.296 367.101 304.296H366.055ZM369.918 306.916L370.419 305.47H372.554L373.053 306.916H373.928L371.962 301.452H371.009L369.043 306.916H369.918ZM370.66 304.776L371.465 302.444H371.508L372.314 304.776H370.66ZM377.653 302.887H378.448C378.424 302.012 377.65 301.377 376.54 301.377C375.444 301.377 374.603 302.004 374.603 302.946C374.603 303.706 375.148 304.152 376.025 304.389L376.671 304.565C377.255 304.72 377.706 304.912 377.706 305.397C377.706 305.931 377.197 306.283 376.495 306.283C375.86 306.283 375.332 306 375.284 305.405H374.457C374.51 306.395 375.276 307.006 376.5 307.006C377.784 307.006 378.523 306.331 378.523 305.405C378.523 304.421 377.645 304.04 376.951 303.869L376.418 303.73C375.991 303.621 375.422 303.421 375.425 302.898C375.425 302.433 375.849 302.089 376.522 302.089C377.149 302.089 377.594 302.383 377.653 302.887ZM382.488 302.887H383.283C383.259 302.012 382.485 301.377 381.375 301.377C380.279 301.377 379.438 302.004 379.438 302.946C379.438 303.706 379.983 304.152 380.86 304.389L381.506 304.565C382.09 304.72 382.541 304.912 382.541 305.397C382.541 305.931 382.032 306.283 381.33 306.283C380.695 306.283 380.167 306 380.119 305.405H379.292C379.345 306.395 380.111 307.006 381.335 307.006C382.618 307.006 383.357 306.331 383.357 305.405C383.357 304.421 382.48 304.04 381.786 303.869L381.252 303.73C380.826 303.621 380.257 303.421 380.26 302.898C380.26 302.433 380.684 302.089 381.357 302.089C381.983 302.089 382.429 302.383 382.488 302.887Z" fill="white"/>
</svg>
