<svg fill="none" height="154" viewBox="0 0 447 154" width="447" xmlns="http://www.w3.org/2000/svg"><path d="m0 6c0-3.31371 2.68629-6 6-6h435c3.314 0 6 2.68629 6 6v142c0 3.314-2.686 6-6 6h-434.99999c-3.31371 0-6.00001-2.686-6.00001-6z" fill="#267edc"/><g fill="#fff"><path d="m24.9482 38h4.6609c2.4503 0 3.7553-1.2784 3.7553-3.0149 0-1.614-1.1559-2.5888-2.397-2.6474v-.1065c1.1346-.2557 1.9709-1.06 1.9709-2.3438 0-1.6353-1.2145-2.7965-3.6222-2.7965h-4.3679zm2.3065-1.8857v-2.8977h1.9336c1.108 0 1.7951.6392 1.7951 1.5394 0 .8203-.5593 1.3583-1.8484 1.3583zm0-4.4584v-2.7007h1.7525c1.0227 0 1.6033.5274 1.6033 1.3157 0 .863-.7031 1.385-1.6459 1.385z"/><path d="m38.9881 38.1491c2.429.0107 4.0856-1.582 4.0803-3.8032.0053-2.0455-1.4223-3.521-3.3559-3.521-1.1985 0-2.2585.5753-2.7485 1.5394h-.0746c.0106-2.1573.7564-3.4783 2.1786-3.4783.8363 0 1.4382.4528 1.614 1.2518h2.2745c-.2184-1.8324-1.7099-3.228-3.8885-3.228-2.6953 0-4.4265 2.1839-4.4371 5.8807.0106 3.995 2.1147 5.348 4.3572 5.3586zm-.0106-1.811c-1.0654 0-1.8537-.8576-1.8537-1.923.0053-1.06.8096-1.9229 1.8696-1.9229 1.0654 0 1.8431.8363 1.8377 1.9176.0054 1.092-.7883 1.9283-1.8536 1.9283z"/><path d="m48.8319 38.2397c2.7006 0 4.2294-2.0135 4.2347-5.6676-.0053-3.6382-1.5341-5.6303-4.2347-5.6303-2.706 0-4.2348 2.0028-4.2348 5.6409-.0106 3.6488 1.5288 5.6517 4.2348 5.657zm0-1.9016c-1.3317 0-2.0508-1.3157-2.0402-3.7554 0-2.4343.7085-3.7606 2.0402-3.7606 1.3156 0 2.0294 1.3263 2.0401 3.7606.0053 2.4397-.7138 3.7554-2.0401 3.7554z"/><path d="m63.6707 32.5561h-5.4758v1.6619h5.4758z"/><path d="m68.566 28.9925h3.3398v9.0075h2.2798v-9.0075h3.3399v-1.9016h-8.9595z"/><path d="m78.1088 38h2.2691v-4.6289c.0054-1.0014.7298-1.6886 1.646-1.6886.3089 0 .5593.0852.7724.1918l.6818-1.875c-.2983-.1811-.6818-.2983-1.1186-.2983-.9216 0-1.6673.5327-1.9656 1.5447h-.0852v-1.4275h-2.1999z"/><path d="m89.7862 34.5163c.0054 1.0973-.7457 1.6726-1.5607 1.6726-.8576 0-1.4116-.6019-1.4169-1.566v-4.8047h-2.2692v5.2095c.0053 1.9123 1.124 3.0788 2.7699 3.0788 1.2305 0 2.1147-.6339 2.4822-1.5927h.0853v1.4862h2.1786v-8.1818h-2.2692z"/><path d="m98.2224 29.8182h-1.5394v-1.9603h-2.2692v1.9603h-1.1186v1.7045h1.1186v4.2454c-.0107 1.598 1.0813 2.3917 2.7273 2.3278.5859-.0267 1.0014-.1439 1.2304-.2131l-.3569-1.6939c-.1118.0266-.3515.0746-.5646.0746-.4528 0-.783-.1705-.767-.799v-3.9418h1.5394z"/><path d="m102.175 33.2699c.005-1.0547.65-1.6726 1.577-1.6726.921 0 1.464.5913 1.459 1.598v4.8047h2.269v-5.2095c.006-1.9176-1.124-3.0789-2.828-3.0789-1.241 0-2.072.586-2.445 1.5501h-.096v-4.1708h-2.2054v10.9091h2.2694z"/><path d="m63.7898 81h1.0142l.3728-2.8239h2.0881l-.3729 2.8239h.9944l.3828-2.8239h1.4865l.1392-.9943h-1.4915l.343-2.5454h1.4667l.1392-1.0341h-1.4666l.3728-2.7841h-1.0142l-.3679 2.7841h-2.088l.3678-2.7841h-1.0142l-.3679 2.7841h-1.5213l-.1392 1.0341h1.5213l-.338 2.5454h-1.5014l-.1393.9943h1.5064zm1.5213-3.8182.338-2.5454h2.0881l-.3381 2.5454z"/><path d="m72.0364 81h6.4233v-1.0938h-4.733v-.0795l2.287-2.446c1.75-1.8743 2.267-2.7493 2.267-3.8779 0-1.571-1.2727-2.8238-3.0625-2.8238-1.7848 0-3.142 1.213-3.142 3.0028h1.1733c0-1.1584.7507-1.929 1.9289-1.929 1.1037 0 1.9489.6762 1.9489 1.75 0 .9397-.5518 1.6357-1.7301 2.9233l-3.3608 3.679z"/><path d="m83.8936 81.1392c2.0583.0249 3.4006-1.5263 3.4006-3.4205 0-1.9687-1.4567-3.3806-3.2017-3.3806-1.049 0-1.9489.512-2.5057 1.3522h-.0795c.005-2.5007.9694-3.9375 2.5454-3.9375 1.0739 0 1.7202.6762 1.9489 1.6108h1.2131c-.2486-1.6008-1.4517-2.7045-3.162-2.7045-2.2919 0-3.6988 2.0284-3.6988 5.6477 0 3.7635 1.8693 4.8125 3.5397 4.8324zm0-1.0937c-1.2777 0-2.2123-1.0888-2.2073-2.3069.0049-1.218.9843-2.3068 2.2471-2.3068 1.2479 0 2.1676 1.0242 2.1676 2.2869 0 1.2927-.9595 2.3268-2.2074 2.3268z"/><path d="m89.5675 81h1.2926l4.5341-9.0284v-1.1534h-6.5228v1.0937h5.25v.0796z"/><path d="m97.4263 81h6.2247v-1.0938h-4.9917v-3.4602h4.5937v-1.0937h-4.5937v-3.4404h4.9117v-1.0937h-6.1447z"/><path d="m108.936 81c3.102 0 4.852-1.929 4.852-5.1108 0-3.1619-1.75-5.071-4.713-5.071h-3.281v10.1818zm-1.91-1.0938v-7.9943h1.969c2.387 0 3.6 1.5114 3.6 3.9773 0 2.4858-1.213 4.017-3.739 4.017z"/><path d="m124.049 74c-.378-2.0881-2.048-3.321-4.096-3.321-2.606 0-4.495 2.0085-4.495 5.2301s1.889 5.2301 4.495 5.2301c2.048 0 3.718-1.233 4.096-3.321h-1.233c-.298 1.4119-1.511 2.1676-2.863 2.1676-1.85 0-3.302-1.4318-3.302-4.0767s1.452-4.0767 3.302-4.0767c1.352 0 2.565.7557 2.863 2.1676z"/><path d="m66.4944 103.139c1.9737 0 3.4403-1.238 3.4403-2.903 0-1.2928-.7656-2.2325-2.0482-2.4462v-.0796c1.0291-.3132 1.6704-1.1584 1.6704-2.3068 0-1.4418-1.1385-2.7244-3.0227-2.7244-1.76 0-3.2216 1.0838-3.2813 2.6846h1.1932c.0448-1.0142 1.0092-1.6108 2.0682-1.6108 1.1236 0 1.8494.6811 1.8494 1.7103 0 1.0738-.8402 1.7699-2.0483 1.7699h-.8153v1.0937h.8153c1.5462 0 2.4063.7855 2.4063 1.9093 0 1.079-.9397 1.809-2.2472 1.809-1.1782 0-2.1129-.606-2.1875-1.59h-1.2528c.0746 1.6 1.4865 2.684 3.4602 2.684z"/><path d="m75.2295 103.139c2.0334 0 3.4503-1.188 3.4602-2.844-.0099-1.2872-.87-2.3809-1.9687-2.5848v-.0596c.9545-.2486 1.5809-1.1833 1.5909-2.2671-.01-1.5511-1.3125-2.7045-3.0824-2.7045-1.7898 0-3.0923 1.1534-3.0824 2.7045-.0099 1.0838.6165 2.0185 1.5909 2.2671v.0596c-1.1186.2039-1.9787 1.2976-1.9687 2.5848-.01 1.656 1.4069 2.844 3.4602 2.844zm0-1.094c-1.397 0-2.2571-.715-2.2472-1.809-.0099-1.1486.9397-1.969 2.2472-1.969 1.2876 0 2.2372.8204 2.2472 1.969-.01 1.094-.8701 1.809-2.2472 1.809zm0-4.8319c-1.1136 0-1.8992-.6961-1.8892-1.75-.01-1.0341.7457-1.7103 1.8892-1.7103 1.1236 0 1.8793.6762 1.8892 1.7103-.0099 1.0539-.7955 1.75-1.8892 1.75z"/><path d="m81.8865 101.608h-1.2728l-.0596.557c-.1442 1.347-.4276 2.689-.5569 3.321h.8949c.2387-.676.7458-2.208.9148-3.341z"/><path d="m91.1796 92.8182h-1.0341c-.0646.1044-.7954 1.5113-2.3665 1.5113v1.0341c1.1684 0 2.0036-.4772 2.1478-.7556h.0795v8.392h1.1733z"/><path d="m94.1029 103h6.4231v-1.094h-4.7328v-.079l2.287-2.4463c1.75-1.8743 2.2668-2.7493 2.2668-3.8779 0-1.571-1.2725-2.8238-3.0623-2.8238-1.7848 0-3.142 1.213-3.142 3.0028h1.1733c0-1.1584.7507-1.929 1.9289-1.929 1.1037 0 1.9489.6762 1.9489 1.75 0 .9397-.5518 1.6357-1.7301 2.9233l-3.3608 3.6789z"/><path d="m105.96 103.139c2.058.025 3.401-1.526 3.401-3.4203 0-1.9687-1.457-3.3806-3.202-3.3806-1.049 0-1.949.512-2.506 1.3522h-.079c.005-2.5007.969-3.9375 2.545-3.9375 1.074 0 1.72.6762 1.949 1.6108h1.213c-.248-1.6008-1.452-2.7045-3.162-2.7045-2.292 0-3.699 2.0284-3.699 5.6477 0 3.7632 1.87 4.8122 3.54 4.8322zm0-1.094c-1.278 0-2.212-1.088-2.207-2.3064.005-1.218.984-2.3068 2.247-2.3068 1.248 0 2.168 1.0242 2.168 2.2869 0 1.2923-.96 2.3263-2.208 2.3263z"/><path d="m112.607 101.608h-1.273l-.059.557c-.144 1.347-.428 2.689-.557 3.321h.895c.238-.676.746-2.208.915-3.341z"/><path d="m118.699 103h6.423v-1.094h-4.733v-.079l2.287-2.4463c1.75-1.8743 2.267-2.7493 2.267-3.8779 0-1.571-1.273-2.8238-3.063-2.8238-1.784 0-3.142 1.213-3.142 3.0028h1.174c0-1.1584.75-1.929 1.929-1.929 1.103 0 1.949.6762 1.949 1.75 0 .9397-.552 1.6357-1.731 2.9233l-3.36 3.6789z"/><path d="m127.175 103h6.423v-1.094h-4.732v-.079l2.286-2.4463c1.75-1.8743 2.267-2.7493 2.267-3.8779 0-1.571-1.272-2.8238-3.062-2.8238-1.785 0-3.142 1.213-3.142 3.0028h1.173c0-1.1584.751-1.929 1.929-1.929 1.104 0 1.949.6762 1.949 1.75 0 .9397-.552 1.6357-1.73 2.9233l-3.361 3.6789z"/><path d="m139.013 103.139c2.147 0 3.5-2.008 3.5-5.2299 0-3.2017-1.353-5.2301-3.5-5.2301-2.148 0-3.5 2.0284-3.5 5.2301 0 3.2219 1.352 5.2299 3.5 5.2299zm0-1.094c-1.383 0-2.287-1.59-2.287-4.1359 0-2.5455.894-4.1563 2.287-4.1563 1.392 0 2.286 1.6108 2.286 4.1563 0 2.5459-.904 4.1359-2.286 4.1359z"/><path d="m77.3723 125h1.2926l4.5341-9.028v-1.154h-6.5227v1.094h5.25v.079z"/><path d="m85.6438 125h1.2926l4.5341-9.028v-1.154h-6.5227v1.094h5.25v.079z"/><path d="m92.4486 125.08c.4972 0 .8949-.398.8949-.895 0-.478-.3977-.875-.8949-.875-.4772 0-.8948.377-.8948.875 0 .497.3977.895.8948.895z"/><path d="m95.7473 125h1.2926l4.5341-9.028v-1.154h-6.5227v1.094h5.2497v.079z"/><path d="m106.589 125.139c2.058.025 3.401-1.526 3.401-3.42 0-1.969-1.457-3.381-3.202-3.381-1.049 0-1.949.512-2.506 1.352h-.079c.005-2.5.969-3.937 2.545-3.937 1.074 0 1.72.676 1.949 1.611h1.213c-.248-1.601-1.452-2.705-3.162-2.705-2.292 0-3.699 2.028-3.699 5.648 0 3.763 1.87 4.812 3.54 4.832zm0-1.094c-1.278 0-2.212-1.088-2.207-2.306s.984-2.307 2.247-2.307c1.248 0 2.167 1.024 2.167 2.287 0 1.292-.959 2.326-2.207 2.326z"/><path d="m113.236 123.608h-1.273l-.059.557c-.144 1.347-.428 2.689-.557 3.321h.895c.238-.676.746-2.208.915-3.341z"/><path d="m119.089 122.912h4.793v2.088h1.173v-2.088h1.392v-1.094h-1.392v-7h-1.492l-4.474 7.08zm4.793-1.094h-3.461v-.079l3.381-5.35h.08z"/><path d="m128.628 125h1.293l4.534-9.028v-1.154h-6.523v1.094h5.25v.079z"/><path d="m135.433 125.08c.497 0 .895-.398.895-.895 0-.478-.398-.875-.895-.875-.477 0-.895.377-.895.875 0 .497.398.895.895.895z"/><path d="m138.732 125h1.292l4.534-9.028v-1.154h-6.522v1.094h5.25v.079z"/><path d="m149.573 125.139c2.059.025 3.401-1.526 3.401-3.42 0-1.969-1.457-3.381-3.202-3.381-1.049 0-1.949.512-2.505 1.352h-.08c.005-2.5.97-3.937 2.546-3.937 1.073 0 1.72.676 1.948 1.611h1.213c-.248-1.601-1.451-2.705-3.161-2.705-2.292 0-3.699 2.028-3.699 5.648 0 3.763 1.869 4.812 3.539 4.832zm0-1.094c-1.277 0-2.212-1.088-2.207-2.306s.984-2.307 2.247-2.307c1.248 0 2.168 1.024 2.168 2.287 0 1.292-.96 2.326-2.208 2.326z"/><path d="m156.22 123.608h-1.272l-.06.557c-.144 1.347-.427 2.689-.557 3.321h.895c.239-.676.746-2.208.915-3.341z"/><path d="m165.673 125.139c2.147 0 3.5-2.008 3.5-5.23 0-3.202-1.353-5.23-3.5-5.23-2.148 0-3.5 2.028-3.5 5.23 0 3.222 1.352 5.23 3.5 5.23zm0-1.094c-1.382 0-2.287-1.59-2.287-4.136 0-2.545.895-4.156 2.287-4.156s2.287 1.611 2.287 4.156c0 2.546-.905 4.136-2.287 4.136z"/><path d="m172.914 123.608h-1.273l-.06.557c-.144 1.347-.427 2.689-.556 3.321h.895c.238-.676.745-2.208.914-3.341z"/><path d="m182.366 125.139c2.148 0 3.5-2.008 3.5-5.23 0-3.202-1.352-5.23-3.5-5.23s-3.5 2.028-3.5 5.23c0 3.222 1.352 5.23 3.5 5.23zm0-1.094c-1.382 0-2.287-1.59-2.287-4.136 0-2.545.895-4.156 2.287-4.156s2.287 1.611 2.287 4.156c0 2.546-.905 4.136-2.287 4.136z"/><path d="m24.885 81h2.1527v-4.206h4.37v4.206h2.1478v-10.1818h-2.1478v4.201h-4.37v-4.201h-2.1527z"/><path d="m35.3303 81h6.8807v-1.7749h-4.728v-2.4311h4.3551v-1.7748h-4.3551v-2.4262h4.7081v-1.7748h-6.8608z"/><path d="m45.9211 70.8182h-2.4411l3.1271 5.0909-3.1868 5.0909h2.466l2.088-3.4751h.0796l2.088 3.4751h2.4759l-3.1769-5.0909 3.1073-5.0909h-2.4311l-2.0632 3.4701h-.0796z"/><path d="m55.1583 74.5568c.6463 0 1.1981-.5319 1.2081-1.1932-.01-.6463-.5618-1.1733-1.2081-1.1733-.6513 0-1.1982.5171-1.1932 1.1733-.005.6613.5369 1.1932 1.1932 1.1932zm0 5.1158c.6463 0 1.1981-.532 1.2081-1.1932-.01-.6463-.5618-1.1733-1.2081-1.1733-.6513 0-1.1982.517-1.1932 1.1733-.005.6612.5369 1.1932 1.1932 1.1932z"/><path d="m24.885 103h2.1527v-3.7486h1.6406l1.9439 3.7486h2.3764l-2.1676-4.0966c1.1286-.5121 1.7898-1.5163 1.7898-2.8388 0-1.9985-1.3473-3.2464-3.669-3.2464h-4.0668zm2.1527-5.3643v-3.0576h1.745c1.0341 0 1.6108.5767 1.6108 1.5313 0 .9346-.5618 1.5263-1.6655 1.5263z"/><path d="m33.9756 97.919c0 3.222 1.924 5.22 4.7826 5.22 2.5703 0 4.4297-1.625 4.4297-4.3052v-1.2827h-4.2606v1.6208h2.1278c0 1.2681-1.0192 2.0631-2.2869 2.0631-1.5959 0-2.6101-1.183-2.6101-3.3358 0-2.0981.9993-3.3161 2.5454-3.3161 1.1187 0 1.8843.5717 2.1875 1.5263h2.2025c-.2784-2.0135-2.0881-3.4304-4.39-3.4304-2.6896 0-4.7279 1.9389-4.7279 5.24z"/><path d="m44.8049 103h4.3502c2.2869 0 3.5049-1.193 3.5049-2.814 0-1.5063-1.0788-2.4161-2.2372-2.4708v-.0994c1.059-.2387 1.8395-.9894 1.8395-2.1875 0-1.5263-1.1335-2.6101-3.3807-2.6101h-4.0767zm2.1527-1.76v-2.7045h1.8047c1.0341 0 1.6754.5966 1.6754 1.4368 0 .7657-.522 1.2677-1.7251 1.2677zm0-4.1612v-2.5206h1.6357c.9545 0 1.4964.4922 1.4964 1.228 0 .8054-.6562 1.2926-1.5362 1.2926z"/><path d="m55.3087 96.5568c.6463 0 1.1981-.5319 1.2081-1.1932-.01-.6463-.5618-1.1733-1.2081-1.1733-.6513 0-1.1982.5171-1.1932 1.1733-.005.6613.5369 1.1932 1.1932 1.1932zm0 5.1162c.6463 0 1.1981-.532 1.2081-1.194-.01-.6459-.5618-1.1729-1.2081-1.1729-.6513 0-1.1982.5171-1.1932 1.1729-.005.662.5369 1.194 1.1932 1.194z"/><path d="m33.8687 118.383c-.2834-2.352-2.0632-3.704-4.4197-3.704-2.6897 0-4.7429 1.899-4.7429 5.23 0 3.321 2.0184 5.23 4.7429 5.23 2.61 0 4.186-1.735 4.4197-3.609l-2.1776-.01c-.2038 1.089-1.0589 1.715-2.2073 1.715-1.5462 0-2.5952-1.148-2.5952-3.326 0-2.118 1.0341-3.326 2.6101-3.326 1.1782 0 2.0284.681 2.1924 1.8z"/><path d="m35.4124 114.818v10.182h2.088v-6.652h.0846l2.6349 6.602h1.4219l2.6349-6.577h.0845v6.627h2.0881v-10.182h-2.6548l-2.804 6.841h-.1193l-2.804-6.841z"/><path d="m47.6313 114.818 3.7138 6.583v3.599h2.1427v-3.599l3.7138-6.583h-2.4162l-2.3217 4.385h-.0945l-2.3217-4.385z"/><path d="m58.3811 125h2.1527v-2.893l1.059-1.293 2.789 4.186h2.5753l-3.8231-5.623 3.7784-4.559h-2.5803l-3.664 4.49h-.1343v-4.49h-2.1527z"/><path d="m69.2813 118.557c.6463 0 1.1982-.532 1.2081-1.193-.0099-.647-.5618-1.174-1.2081-1.174-.6512 0-1.1981.517-1.1931 1.174-.005.661.5369 1.193 1.1931 1.193zm0 5.116c.6463 0 1.1982-.532 1.2081-1.194-.0099-.646-.5618-1.173-1.2081-1.173-.6512 0-1.1981.517-1.1931 1.173-.005.662.5369 1.194 1.1931 1.194z"/></g><path d="m350.979 88 .934-2.6946h3.978l.929 2.6946h1.631l-3.664-10.1818h-1.775l-3.664 10.1818zm1.382-3.9872 1.501-4.3452h.08l1.501 4.3452z" fill="#1f2f47"/><path d="m335 111c0-1.657 1.343-3 3-3h33c1.657 0 3 1.343 3 3v10c0 1.657-1.343 3-3 3h-33c-1.657 0-3-1.343-3-3z" fill="#000"/><path clip-rule="evenodd" d="m338 107h33c2.209 0 4 1.791 4 4v10c0 2.209-1.791 4-4 4h-33c-2.209 0-4-1.791-4-4v-10c0-2.209 1.791-4 4-4zm0 1c-1.657 0-3 1.343-3 3v10c0 1.657 1.343 3 3 3h33c1.657 0 3-1.343 3-3v-10c0-1.657-1.343-3-3-3z" fill="#fff" fill-rule="evenodd"/><path d="m338.707 121h1.712v-3.195h1.81c2.184 0 3.361-1.315 3.356-3.13.005-1.809-1.159-3.13-3.333-3.13h-3.545zm1.712-4.603v-3.42h1.57c1.283 0 1.856.701 1.851 1.698.005 1.016-.568 1.722-1.842 1.722z" fill="#fff"/><path d="m347.233 121 .78-2.331h3.555l.785 2.331h1.828l-3.333-9.455h-2.114l-3.329 9.455zm1.242-3.707 1.279-3.809h.074l1.278 3.809z" fill="#fff"/><path d="m360.412 114.145h1.648c-.032-1.598-1.394-2.729-3.407-2.729-1.985 0-3.476 1.117-3.471 2.789 0 1.357.964 2.137 2.52 2.539l1.076.277c1.02.258 1.694.577 1.699 1.311-.005.808-.771 1.348-1.888 1.348-1.071 0-1.902-.48-1.972-1.473h-1.685c.07 1.879 1.468 2.936 3.67 2.936 2.267 0 3.583-1.131 3.587-2.797-.004-1.639-1.357-2.387-2.779-2.724l-.886-.222c-.776-.184-1.616-.512-1.607-1.302.005-.711.642-1.232 1.713-1.232 1.02 0 1.694.475 1.782 1.279z" fill="#fff"/><path d="m368.854 114.145h1.649c-.033-1.598-1.395-2.729-3.407-2.729-1.986 0-3.477 1.117-3.472 2.789 0 1.357.965 2.137 2.521 2.539l1.075.277c1.02.258 1.694.577 1.699 1.311-.005.808-.771 1.348-1.888 1.348-1.071 0-1.902-.48-1.971-1.473h-1.685c.069 1.879 1.468 2.936 3.67 2.936 2.266 0 3.582-1.131 3.587-2.797-.005-1.639-1.357-2.387-2.779-2.724l-.887-.222c-.775-.184-1.615-.512-1.606-1.302.004-.711.641-1.232 1.712-1.232 1.021 0 1.695.475 1.782 1.279z" fill="#fff"/><path d="m400.979 88 .934-2.6946h3.978l.929 2.6946h1.631l-3.664-10.1818h-1.775l-3.664 10.1818zm1.382-3.9872 1.501-4.3452h.08l1.501 4.3452z" fill="#fff"/><path d="m384 111c0-1.657 1.343-3 3-3h33c1.657 0 3 1.343 3 3v10c0 1.657-1.343 3-3 3h-33c-1.657 0-3-1.343-3-3z" fill="#000"/><path clip-rule="evenodd" d="m387 107h33c2.209 0 4 1.791 4 4v10c0 2.209-1.791 4-4 4h-33c-2.209 0-4-1.791-4-4v-10c0-2.209 1.791-4 4-4zm0 1c-1.657 0-3 1.343-3 3v10c0 1.657 1.343 3 3 3h33c1.657 0 3-1.343 3-3v-10c0-1.657-1.343-3-3-3z" fill="#fff" fill-rule="evenodd"/><path d="m387.707 121h1.712v-3.195h1.81c2.184 0 3.361-1.315 3.356-3.13.005-1.809-1.159-3.13-3.333-3.13h-3.545zm1.712-4.603v-3.42h1.57c1.283 0 1.856.701 1.851 1.698.005 1.016-.568 1.722-1.842 1.722z" fill="#fff"/><path d="m396.233 121 .78-2.331h3.555l.785 2.331h1.828l-3.333-9.455h-2.114l-3.329 9.455zm1.242-3.707 1.279-3.809h.074l1.278 3.809z" fill="#fff"/><path d="m409.412 114.145h1.648c-.032-1.598-1.394-2.729-3.407-2.729-1.985 0-3.476 1.117-3.471 2.789 0 1.357.964 2.137 2.52 2.539l1.076.277c1.02.258 1.694.577 1.699 1.311-.005.808-.771 1.348-1.888 1.348-1.071 0-1.902-.48-1.972-1.473h-1.685c.07 1.879 1.468 2.936 3.67 2.936 2.267 0 3.583-1.131 3.587-2.797-.004-1.639-1.357-2.387-2.779-2.724l-.886-.222c-.776-.184-1.616-.512-1.607-1.302.005-.711.642-1.232 1.713-1.232 1.02 0 1.694.475 1.782 1.279z" fill="#fff"/><path d="m417.854 114.145h1.649c-.033-1.598-1.395-2.729-3.407-2.729-1.986 0-3.477 1.117-3.472 2.789 0 1.357.965 2.137 2.521 2.539l1.075.277c1.02.258 1.694.577 1.699 1.311-.005.808-.771 1.348-1.888 1.348-1.071 0-1.902-.48-1.971-1.473h-1.685c.069 1.879 1.468 2.936 3.67 2.936 2.266 0 3.582-1.131 3.587-2.797-.005-1.639-1.357-2.387-2.779-2.724l-.887-.222c-.775-.184-1.615-.512-1.606-1.302.004-.711.641-1.232 1.712-1.232 1.021 0 1.695.475 1.782 1.279z" fill="#fff"/></svg>