<svg fill="none" height="21" viewBox="0 0 160 21" width="160" xmlns="http://www.w3.org/2000/svg"><path clip-rule="evenodd" d="m84.6988 0c-6.1557 0-9.672 4.34329-9.672 10.4249 0 6.092 3.5076 10.4267 9.658 10.425 4.9872 0 7.6248-2.895 8.21-6.3717l-.2934-.2883h-2.3443l-.2934.2883c-.5852 2.0284-2.0508 3.765-5.2736 3.765-4.3967 0-6.7409-3.185-6.7409-7.8183 0-4.63327 2.3442-7.81824 6.7409-7.81824 2.9294 0 4.6884 1.44662 5.2736 3.47498l.2934.29001h2.3582l.2935-.29001c-.5904-3.47498-3.5216-6.08164-8.21-6.08164zm-69.4597 20.5632h-14.945638l-.293462-.29v-19.694988l.293462-.288286h14.945638l.2935.290013v3.763261l-.2935.29002h-9.6703l-.29346.29001v2.89495l.29346.29001h9.0834l.2934.29001v3.765l-.2934.29h-9.0834l-.29346.29v3.185l.29346.29h9.6703l.2935.29v3.765zm20.5143 0h-2.6376l-.587-.29-5.2753-6.9517h-.2935l-5.2753 6.9517-.5852.29h-2.6377l-.2934-.29v-3.7564l5.2753-6.3871v-.29006l-4.9819-5.49644v-3.764988l.2935-.288286h2.6447l.5851.290013 4.9749 6.079911h.2935l4.9766-6.081638.5922-.288286h2.6377l.2934.290013v3.763261l-4.9836 5.50334v.28316l5.2753 6.3871v3.765zm3.8135 0h4.6832l.2987-.29v-19.693261l-.2917-.290013h-4.6902l-.2917.288286v19.694988zm31.9367 0h-4.6867l-.2934-.29v-9.2683h-.2935l-3.8098 9.2683-.2934.29h-3.8116l-.2917-.29-3.8115-9.2683h-.2917v9.2683l-.2935.29h-4.6901l-.2865-.29v-19.694988l.2865-.288286h5.5688l.2934.290013 5.2754 13.033361h.2934l5.2754-13.033361.3004-.290013h5.5688l.2935.290013v19.693261zm40.7304 0h-2.343l-.293-.29v-8.4l-.294-.2883h-9.6701l-.2934.2883v8.4l-.2935.29h-2.3442l-.2935-.29v-19.694988l.2935-.288286h2.3442l.2935.290013v8.113461l.2934.29001h9.6701l.294-.29001v-8.113461l.293-.290013h2.343l.293.290013v19.693261zm18.463 0h1.758l.293-.2917v-2.0284l-7.032-17.663161-.294-.290013h-2.638l-.293.288286-7.034 17.664888v2.0301l.293.29h1.759l.292-.29 1.759-4.345.587-.29h7.921l.586.29 1.746 4.345zm-6.746-15.92998h.294l3.223 8.11348-.294.2883h-6.154l-.293-.2883zm14.363 15.92998h-2.345l-.291-.29v-19.694988l.291-.288286h2.345l.297.288286v19.694988zm18.757 0h2.636l.293-.29v-19.693261l-.293-.290013h-2.345l-.291.288286v15.059988h-.294l-9.957-15.059988-.593-.288286h-2.638l-.294.288286v19.694988l.294.29h2.344l.294-.29v-15.05996h.3l9.957 15.05996z" fill="#fff" fill-rule="evenodd"/></svg>