<svg fill="none" height="36" viewBox="0 0 39 36" width="39" xmlns="http://www.w3.org/2000/svg"><path clip-rule="evenodd" d="m14.4446 14.47 1.6256 2.8156 10.8537-6.2664.405.11-.7312 4.8916-.1072.4057-7.4635 4.3091.0013.0002-.7244.4182.0012.0021-4.6096 2.6614-.0012-.0022-7.00063 4.0418-.40495-.11.73119-4.8916.10722-.4057 3.63427-2.0982-.0013-.0002.7006-.4045-3.84341-6.6569.10824-.4039 20.46897-11.81778.4063.10685-.7488 4.87115-.101.39979-13.1982 7.61999zm.2432 11.0662 2.9829 5.1664.4039.1082 16.7844-9.6905.115-.4078.7874-4.8935-.4006-.1101-14.8944 8.5993-.404-.1082-.765-1.3252z" fill="#2e2d2c" fill-rule="evenodd"/></svg>