<svg width="5296" height="660" viewBox="0 0 5296 660" fill="none" xmlns="http://www.w3.org/2000/svg">
<rect x="1352" width="1240" height="660" rx="30" fill="#267EDC"/>
<path d="M1467.66 318.886C1465.27 303.955 1453.58 295.227 1438.82 295.227C1420.75 295.227 1407.42 308.761 1407.42 331.091C1407.42 353.42 1420.68 366.955 1438.82 366.955C1454.16 366.955 1465.38 357.341 1467.66 343.534L1457.02 343.5C1455.22 352.432 1447.72 357.341 1438.89 357.341C1426.92 357.341 1417.89 348.17 1417.89 331.091C1417.89 314.148 1426.89 304.841 1438.92 304.841C1447.82 304.841 1455.28 309.852 1457.02 318.886H1467.66ZM1500 367.057C1514.76 367.057 1524.41 356.25 1524.41 340.057C1524.41 323.761 1514.76 312.955 1500 312.955C1485.24 312.955 1475.59 323.761 1475.59 340.057C1475.59 356.25 1485.24 367.057 1500 367.057ZM1500.04 358.5C1490.39 358.5 1485.89 350.08 1485.89 340.023C1485.89 330 1490.39 321.477 1500.04 321.477C1509.62 321.477 1514.12 330 1514.12 340.023C1514.12 350.08 1509.62 358.5 1500.04 358.5ZM1534.29 366H1544.48V333.716C1544.48 326.659 1549.43 321.75 1555.22 321.75C1560.88 321.75 1564.8 325.5 1564.8 331.193V366H1574.96V332.625C1574.96 326.318 1578.81 321.75 1585.46 321.75C1590.85 321.75 1595.28 324.75 1595.28 331.841V366H1605.47V330.886C1605.47 318.92 1598.79 312.955 1589.31 312.955C1581.78 312.955 1576.12 316.568 1573.6 322.159H1573.05C1570.77 316.432 1565.96 312.955 1558.97 312.955C1552.05 312.955 1546.9 316.398 1544.72 322.159H1544.07V313.636H1534.29V366ZM1617.63 385.636H1627.83V357.852H1628.44C1630.28 361.193 1634.03 367.023 1643.58 367.023C1656.26 367.023 1665.46 356.864 1665.46 339.92C1665.46 322.943 1656.12 312.955 1643.47 312.955C1633.76 312.955 1630.25 318.886 1628.44 322.125H1627.59V313.636H1617.63V385.636ZM1627.62 339.818C1627.62 328.875 1632.39 321.614 1641.29 321.614C1650.53 321.614 1655.17 329.42 1655.17 339.818C1655.17 350.318 1650.39 358.33 1641.29 358.33C1632.53 358.33 1627.62 350.83 1627.62 339.818ZM1697.44 367.057C1712.2 367.057 1721.85 356.25 1721.85 340.057C1721.85 323.761 1712.2 312.955 1697.44 312.955C1682.68 312.955 1673.03 323.761 1673.03 340.057C1673.03 356.25 1682.68 367.057 1697.44 367.057ZM1697.47 358.5C1687.83 358.5 1683.33 350.08 1683.33 340.023C1683.33 330 1687.83 321.477 1697.47 321.477C1707.05 321.477 1711.55 330 1711.55 340.023C1711.55 350.08 1707.05 358.5 1697.47 358.5ZM1741.92 334.909C1741.92 326.557 1747.03 321.784 1754.12 321.784C1761.05 321.784 1765.24 326.318 1765.24 333.92V366H1775.43V332.693C1775.43 319.739 1768.31 312.955 1757.6 312.955C1749.73 312.955 1744.58 316.602 1742.16 322.159H1741.51V313.636H1731.73V366H1741.92V334.909ZM1810.17 367.057C1821.59 367.057 1829.67 361.432 1831.99 352.909L1822.34 351.17C1820.5 356.114 1816.07 358.636 1810.27 358.636C1801.55 358.636 1795.68 352.977 1795.41 342.886H1832.64V339.273C1832.64 320.352 1821.32 312.955 1809.45 312.955C1794.86 312.955 1785.25 324.068 1785.25 340.159C1785.25 356.42 1794.73 367.057 1810.17 367.057ZM1795.44 335.25C1795.85 327.818 1801.24 321.375 1809.52 321.375C1817.43 321.375 1822.61 327.239 1822.65 335.25H1795.44ZM1852.64 334.909C1852.64 326.557 1857.75 321.784 1864.84 321.784C1871.76 321.784 1875.96 326.318 1875.96 333.92V366H1886.15V332.693C1886.15 319.739 1879.03 312.955 1868.32 312.955C1860.45 312.955 1855.3 316.602 1852.88 322.159H1852.23V313.636H1842.45V366H1852.64V334.909ZM1922.76 313.636H1912.03V301.091H1901.83V313.636H1894.16V321.818H1901.83V352.739C1901.8 362.25 1909.06 366.852 1917.11 366.682C1920.34 366.648 1922.53 366.034 1923.72 365.591L1921.88 357.17C1921.2 357.307 1919.93 357.614 1918.3 357.614C1914.99 357.614 1912.03 356.523 1912.03 350.625V321.818H1922.76V313.636ZM1970.93 326.42C1968.82 318.273 1962.45 312.955 1951.13 312.955C1939.3 312.955 1930.91 319.193 1930.91 328.466C1930.91 335.898 1935.41 340.841 1945.23 343.023L1954.09 344.966C1959.14 346.091 1961.49 348.341 1961.49 351.614C1961.49 355.67 1957.16 358.841 1950.48 358.841C1944.38 358.841 1940.46 356.216 1939.23 351.068L1929.38 352.568C1931.08 361.841 1938.79 367.057 1950.55 367.057C1963.2 367.057 1971.96 360.341 1971.96 350.864C1971.96 343.466 1967.25 338.898 1957.64 336.682L1949.32 334.773C1943.56 333.409 1941.07 331.466 1941.11 327.92C1941.07 323.898 1945.43 321.034 1951.23 321.034C1957.57 321.034 1960.5 324.545 1961.7 328.057L1970.93 326.42Z" fill="white"/>
<rect x="1402" y="420" width="224" height="72" rx="12" fill="white"/>
<path d="M1480.58 469H1496.86V465.024H1485.33V442.818H1480.58V469ZM1500.77 469H1505.4V449.364H1500.77V469ZM1503.1 446.577C1504.57 446.577 1505.77 445.452 1505.77 444.071C1505.77 442.678 1504.57 441.553 1503.1 441.553C1501.61 441.553 1500.41 442.678 1500.41 444.071C1500.41 445.452 1501.61 446.577 1503.1 446.577ZM1510.36 469H1514.91V465.906H1515.18C1515.91 467.338 1517.43 469.345 1520.8 469.345C1525.43 469.345 1528.9 465.676 1528.9 459.207C1528.9 452.662 1525.33 449.108 1520.79 449.108C1517.33 449.108 1515.88 451.192 1515.18 452.611H1514.99V442.818H1510.36V469ZM1514.9 459.182C1514.9 455.372 1516.53 452.905 1519.51 452.905C1522.59 452.905 1524.18 455.526 1524.18 459.182C1524.18 462.864 1522.57 465.548 1519.51 465.548C1516.56 465.548 1514.9 462.991 1514.9 459.182ZM1532.83 469H1537.46V457.456C1537.46 454.963 1539.34 453.199 1541.88 453.199C1542.66 453.199 1543.63 453.339 1544.03 453.467V449.21C1543.61 449.134 1542.88 449.082 1542.37 449.082C1540.12 449.082 1538.24 450.361 1537.52 452.636H1537.32V449.364H1532.83V469ZM1552.37 469.396C1555.45 469.396 1557.29 467.952 1558.13 466.303H1558.29V469H1562.74V455.858C1562.74 450.668 1558.5 449.108 1554.76 449.108C1550.63 449.108 1547.46 450.949 1546.44 454.528L1550.76 455.142C1551.22 453.8 1552.52 452.649 1554.78 452.649C1556.93 452.649 1558.11 453.749 1558.11 455.679V455.756C1558.11 457.085 1556.71 457.149 1553.25 457.52C1549.44 457.929 1545.8 459.067 1545.8 463.49C1545.8 467.351 1548.62 469.396 1552.37 469.396ZM1553.57 465.996C1551.64 465.996 1550.26 465.114 1550.26 463.413C1550.26 461.636 1551.81 460.895 1553.88 460.601C1555.09 460.435 1557.52 460.128 1558.12 459.642V461.956C1558.12 464.142 1556.36 465.996 1553.57 465.996ZM1567.39 469H1572.02V457.456C1572.02 454.963 1573.9 453.199 1576.44 453.199C1577.22 453.199 1578.19 453.339 1578.59 453.467V449.21C1578.17 449.134 1577.44 449.082 1576.93 449.082C1574.68 449.082 1572.8 450.361 1572.08 452.636H1571.88V449.364H1567.39V469ZM1585.14 476.364C1588.74 476.364 1590.83 474.51 1591.94 471.378L1599.83 449.389L1594.88 449.364L1590.34 464.193H1590.14L1585.61 449.364H1580.7L1587.82 469.409L1587.43 470.47C1586.57 472.707 1585.21 472.861 1583.19 472.273L1582.12 475.878C1582.75 476.134 1583.87 476.364 1585.14 476.364Z" fill="#267EDC"/>
<path d="M1431 442.666C1432.85 442.083 1434.88 441.833 1436.83 441.833C1440.08 441.833 1443.58 442.5 1446 444.333C1448.42 442.5 1451.92 441.833 1455.17 441.833C1458.42 441.833 1461.92 442.5 1464.33 444.333V468.75C1464.33 469.166 1463.92 469.583 1463.5 469.583C1463.33 469.583 1463.25 469.5 1463.08 469.5C1460.83 468.416 1457.58 467.666 1455.17 467.666C1451.92 467.666 1448.42 468.333 1446 470.166C1443.75 468.75 1439.67 467.666 1436.83 467.666C1434.08 467.666 1431.25 468.166 1428.92 469.416C1428.75 469.5 1428.67 469.5 1428.5 469.5C1428.08 469.5 1427.67 469.083 1427.67 468.666V444.333C1428.67 443.583 1429.75 443.083 1431 442.666ZM1431 465.166C1432.83 464.583 1434.83 464.333 1436.83 464.333C1439.67 464.333 1443.75 465.416 1446 466.833V447.666C1443.75 446.25 1439.67 445.166 1436.83 445.166C1434.83 445.166 1432.83 445.416 1431 446V465.166Z" fill="#267EDC"/>
<circle cx="2320" cy="330" r="58" fill="#79B4F2"/>
<circle cx="2320" cy="330" r="90" stroke="white" stroke-width="10"/>
<circle cx="2320" cy="330" r="123" stroke="#79B4F2" stroke-width="10"/>
<circle cx="2320" cy="330" r="154" stroke="#79B4F2" stroke-width="10"/>
<rect x="2704" width="1240" height="660" rx="30" fill="#267EDC"/>
<path d="M2761.67 366H2772.2V341.455H2786.52C2802.72 341.455 2810.73 331.67 2810.73 318.784C2810.73 305.932 2802.78 296.182 2786.56 296.182H2761.67V366ZM2772.2 332.523V305.216H2785.43C2795.86 305.216 2800.12 310.875 2800.12 318.784C2800.12 326.693 2795.86 332.523 2785.57 332.523H2772.2ZM2835.53 367.159C2844.19 367.159 2849.06 362.761 2851.01 358.841H2851.41V366H2861.37V331.227C2861.37 315.989 2849.37 312.955 2841.05 312.955C2831.57 312.955 2822.85 316.773 2819.44 326.318L2829.02 328.5C2830.52 324.784 2834.34 321.205 2841.19 321.205C2847.77 321.205 2851.14 324.648 2851.14 330.58V330.818C2851.14 334.534 2847.32 334.466 2837.91 335.557C2827.99 336.716 2817.84 339.307 2817.84 351.205C2817.84 361.5 2825.57 367.159 2835.53 367.159ZM2837.74 358.977C2831.98 358.977 2827.82 356.386 2827.82 351.341C2827.82 345.886 2832.66 343.943 2838.56 343.159C2841.87 342.716 2849.71 341.83 2851.18 340.364V347.114C2851.18 353.318 2846.23 358.977 2837.74 358.977ZM2897.89 313.636H2887.15V301.091H2876.96V313.636H2869.29V321.818H2876.96V352.739C2876.92 362.25 2884.18 366.852 2892.23 366.682C2895.47 366.648 2897.65 366.034 2898.84 365.591L2897 357.17C2896.32 357.307 2895.06 357.614 2893.42 357.614C2890.12 357.614 2887.15 356.523 2887.15 350.625V321.818H2897.89V313.636ZM2932.11 313.636H2921.37V301.091H2911.18V313.636H2903.51V321.818H2911.18V352.739C2911.14 362.25 2918.4 366.852 2926.45 366.682C2929.69 366.648 2931.87 366.034 2933.06 365.591L2931.22 357.17C2930.54 357.307 2929.28 357.614 2927.64 357.614C2924.34 357.614 2921.37 356.523 2921.37 350.625V321.818H2932.11V313.636ZM2963.89 367.057C2975.31 367.057 2983.39 361.432 2985.71 352.909L2976.06 351.17C2974.22 356.114 2969.79 358.636 2963.99 358.636C2955.26 358.636 2949.4 352.977 2949.13 342.886H2986.36V339.273C2986.36 320.352 2975.04 312.955 2963.17 312.955C2948.58 312.955 2938.97 324.068 2938.97 340.159C2938.97 356.42 2948.45 367.057 2963.89 367.057ZM2949.16 335.25C2949.57 327.818 2954.96 321.375 2963.24 321.375C2971.15 321.375 2976.33 327.239 2976.37 335.25H2949.16ZM2996.16 366H3006.36V334.023C3006.36 327.17 3011.64 322.227 3018.87 322.227C3020.98 322.227 3023.37 322.602 3024.19 322.841V313.091C3023.16 312.955 3021.15 312.852 3019.86 312.852C3013.72 312.852 3008.47 316.33 3006.56 321.955H3006.02V313.636H2996.16V366ZM3041.7 334.909C3041.7 326.557 3046.82 321.784 3053.91 321.784C3060.83 321.784 3065.02 326.318 3065.02 333.92V366H3075.21V332.693C3075.21 319.739 3068.09 312.955 3057.38 312.955C3049.51 312.955 3044.36 316.602 3041.94 322.159H3041.29V313.636H3031.51V366H3041.7V334.909ZM3126.62 326.42C3124.51 318.273 3118.13 312.955 3106.82 312.955C3094.99 312.955 3086.6 319.193 3086.6 328.466C3086.6 335.898 3091.1 340.841 3100.92 343.023L3109.78 344.966C3114.83 346.091 3117.18 348.341 3117.18 351.614C3117.18 355.67 3112.85 358.841 3106.17 358.841C3100.07 358.841 3096.14 356.216 3094.92 351.068L3085.07 352.568C3086.77 361.841 3094.47 367.057 3106.24 367.057C3118.88 367.057 3127.64 360.341 3127.64 350.864C3127.64 343.466 3122.94 338.898 3113.33 336.682L3105.01 334.773C3099.25 333.409 3096.76 331.466 3096.79 327.92C3096.76 323.898 3101.12 321.034 3106.92 321.034C3113.26 321.034 3116.19 324.545 3117.38 328.057L3126.62 326.42Z" fill="white"/>
<rect x="2754" y="420" width="224" height="72" rx="12" fill="white"/>
<path d="M2832.58 469H2848.86V465.024H2837.33V442.818H2832.58V469ZM2852.77 469H2857.4V449.364H2852.77V469ZM2855.1 446.577C2856.57 446.577 2857.77 445.452 2857.77 444.071C2857.77 442.678 2856.57 441.553 2855.1 441.553C2853.61 441.553 2852.41 442.678 2852.41 444.071C2852.41 445.452 2853.61 446.577 2855.1 446.577ZM2862.36 469H2866.91V465.906H2867.18C2867.91 467.338 2869.43 469.345 2872.8 469.345C2877.43 469.345 2880.9 465.676 2880.9 459.207C2880.9 452.662 2877.33 449.108 2872.79 449.108C2869.33 449.108 2867.88 451.192 2867.18 452.611H2866.99V442.818H2862.36V469ZM2866.9 459.182C2866.9 455.372 2868.53 452.905 2871.51 452.905C2874.59 452.905 2876.18 455.526 2876.18 459.182C2876.18 462.864 2874.57 465.548 2871.51 465.548C2868.56 465.548 2866.9 462.991 2866.9 459.182ZM2884.83 469H2889.46V457.456C2889.46 454.963 2891.34 453.199 2893.88 453.199C2894.66 453.199 2895.63 453.339 2896.03 453.467V449.21C2895.61 449.134 2894.88 449.082 2894.37 449.082C2892.12 449.082 2890.24 450.361 2889.52 452.636H2889.32V449.364H2884.83V469ZM2904.37 469.396C2907.45 469.396 2909.29 467.952 2910.13 466.303H2910.29V469H2914.74V455.858C2914.74 450.668 2910.5 449.108 2906.76 449.108C2902.63 449.108 2899.46 450.949 2898.44 454.528L2902.76 455.142C2903.22 453.8 2904.52 452.649 2906.78 452.649C2908.93 452.649 2910.11 453.749 2910.11 455.679V455.756C2910.11 457.085 2908.71 457.149 2905.25 457.52C2901.44 457.929 2897.8 459.067 2897.8 463.49C2897.8 467.351 2900.62 469.396 2904.37 469.396ZM2905.57 465.996C2903.64 465.996 2902.26 465.114 2902.26 463.413C2902.26 461.636 2903.81 460.895 2905.88 460.601C2907.09 460.435 2909.52 460.128 2910.12 459.642V461.956C2910.12 464.142 2908.36 465.996 2905.57 465.996ZM2919.39 469H2924.02V457.456C2924.02 454.963 2925.9 453.199 2928.44 453.199C2929.22 453.199 2930.19 453.339 2930.59 453.467V449.21C2930.17 449.134 2929.44 449.082 2928.93 449.082C2926.68 449.082 2924.8 450.361 2924.08 452.636H2923.88V449.364H2919.39V469ZM2937.14 476.364C2940.74 476.364 2942.83 474.51 2943.94 471.378L2951.83 449.389L2946.88 449.364L2942.34 464.193H2942.14L2937.61 449.364H2932.7L2939.82 469.409L2939.43 470.47C2938.57 472.707 2937.21 472.861 2935.19 472.273L2934.12 475.878C2934.75 476.134 2935.87 476.364 2937.14 476.364Z" fill="#267EDC"/>
<path d="M2783 442.666C2784.85 442.083 2786.88 441.833 2788.83 441.833C2792.08 441.833 2795.58 442.5 2798 444.333C2800.42 442.5 2803.92 441.833 2807.17 441.833C2810.42 441.833 2813.92 442.5 2816.33 444.333V468.75C2816.33 469.166 2815.92 469.583 2815.5 469.583C2815.33 469.583 2815.25 469.5 2815.08 469.5C2812.83 468.416 2809.58 467.666 2807.17 467.666C2803.92 467.666 2800.42 468.333 2798 470.166C2795.75 468.75 2791.67 467.666 2788.83 467.666C2786.08 467.666 2783.25 468.166 2780.92 469.416C2780.75 469.5 2780.67 469.5 2780.5 469.5C2780.08 469.5 2779.67 469.083 2779.67 468.666V444.333C2780.67 443.583 2781.75 443.083 2783 442.666ZM2783 465.166C2784.83 464.583 2786.83 464.333 2788.83 464.333C2791.67 464.333 2795.75 465.416 2798 466.833V447.666C2795.75 446.25 2791.67 445.166 2788.83 445.166C2786.83 445.166 2784.83 445.416 2783 446V465.166Z" fill="#267EDC"/>
<circle cx="3672" cy="330" r="58" fill="#79B4F2"/>
<circle cx="3672" cy="330" r="90" stroke="#79B4F2" stroke-width="10"/>
<circle cx="3672" cy="330" r="123" stroke="white" stroke-width="10"/>
<circle cx="3672" cy="330" r="154" stroke="#79B4F2" stroke-width="10"/>
<rect width="1240" height="660" rx="30" fill="#267EDC"/>
<path d="M57.6705 366H68.2045V335.557H97.8636V326.523H68.2045V305.25H100.966V296.182H57.6705V366ZM129.815 367.057C144.577 367.057 154.224 356.25 154.224 340.057C154.224 323.761 144.577 312.955 129.815 312.955C115.054 312.955 105.406 323.761 105.406 340.057C105.406 356.25 115.054 367.057 129.815 367.057ZM129.849 358.5C120.202 358.5 115.702 350.08 115.702 340.023C115.702 330 120.202 321.477 129.849 321.477C139.429 321.477 143.929 330 143.929 340.023C143.929 350.08 139.429 358.5 129.849 358.5ZM197.273 344.284C197.307 353.182 190.693 357.409 184.966 357.409C178.659 357.409 174.295 352.841 174.295 345.716V313.636H164.102V346.943C164.102 359.932 171.227 366.682 181.284 366.682C189.159 366.682 194.511 362.523 196.932 356.932H197.477V366H207.5V313.636H197.273V344.284ZM229.889 334.909C229.889 326.557 235.003 321.784 242.094 321.784C249.014 321.784 253.207 326.318 253.207 333.92V366H263.401V332.693C263.401 319.739 256.276 312.955 245.571 312.955C237.696 312.955 232.548 316.602 230.128 322.159H229.48V313.636H219.696V366H229.889V334.909ZM295.173 367.023C304.719 367.023 308.469 361.193 310.31 357.852H311.162V366H321.116V296.182H310.923V322.125H310.31C308.469 318.886 304.991 312.955 295.241 312.955C282.594 312.955 273.287 322.943 273.287 339.92C273.287 356.864 282.457 367.023 295.173 367.023ZM297.423 358.33C288.321 358.33 283.582 350.318 283.582 339.818C283.582 329.42 288.219 321.614 297.423 321.614C306.321 321.614 311.094 328.875 311.094 339.818C311.094 350.83 306.219 358.33 297.423 358.33ZM349.403 367.159C358.062 367.159 362.938 362.761 364.881 358.841H365.29V366H375.244V331.227C375.244 315.989 363.244 312.955 354.926 312.955C345.449 312.955 336.722 316.773 333.312 326.318L342.892 328.5C344.392 324.784 348.21 321.205 355.062 321.205C361.642 321.205 365.017 324.648 365.017 330.58V330.818C365.017 334.534 361.199 334.466 351.79 335.557C341.869 336.716 331.71 339.307 331.71 351.205C331.71 361.5 339.449 367.159 349.403 367.159ZM351.619 358.977C345.858 358.977 341.699 356.386 341.699 351.341C341.699 345.886 346.54 343.943 352.438 343.159C355.744 342.716 363.585 341.83 365.051 340.364V347.114C365.051 353.318 360.108 358.977 351.619 358.977ZM411.764 313.636H401.026V301.091H390.832V313.636H383.162V321.818H390.832V352.739C390.798 362.25 398.06 366.852 406.105 366.682C409.344 366.648 411.526 366.034 412.719 365.591L410.878 357.17C410.196 357.307 408.935 357.614 407.298 357.614C403.991 357.614 401.026 356.523 401.026 350.625V321.818H411.764V313.636ZM421.54 366H431.733V313.636H421.54V366ZM426.688 305.557C430.199 305.557 433.131 302.83 433.131 299.489C433.131 296.148 430.199 293.386 426.688 293.386C423.142 293.386 420.244 296.148 420.244 299.489C420.244 302.83 423.142 305.557 426.688 305.557ZM466.003 367.057C480.764 367.057 490.412 356.25 490.412 340.057C490.412 323.761 480.764 312.955 466.003 312.955C451.241 312.955 441.594 323.761 441.594 340.057C441.594 356.25 451.241 367.057 466.003 367.057ZM466.037 358.5C456.389 358.5 451.889 350.08 451.889 340.023C451.889 330 456.389 321.477 466.037 321.477C475.616 321.477 480.116 330 480.116 340.023C480.116 350.08 475.616 358.5 466.037 358.5ZM510.483 334.909C510.483 326.557 515.597 321.784 522.688 321.784C529.608 321.784 533.801 326.318 533.801 333.92V366H543.994V332.693C543.994 319.739 536.869 312.955 526.165 312.955C518.29 312.955 513.142 316.602 510.722 322.159H510.074V313.636H500.29V366H510.483V334.909ZM595.403 326.42C593.29 318.273 586.915 312.955 575.597 312.955C563.767 312.955 555.381 319.193 555.381 328.466C555.381 335.898 559.881 340.841 569.699 343.023L578.562 344.966C583.608 346.091 585.96 348.341 585.96 351.614C585.96 355.67 581.631 358.841 574.949 358.841C568.847 358.841 564.926 356.216 563.699 351.068L553.847 352.568C555.551 361.841 563.256 367.057 575.017 367.057C587.665 367.057 596.426 360.341 596.426 350.864C596.426 343.466 591.722 338.898 582.108 336.682L573.79 334.773C568.028 333.409 565.54 331.466 565.574 327.92C565.54 323.898 569.903 321.034 575.699 321.034C582.04 321.034 584.972 324.545 586.165 328.057L595.403 326.42Z" fill="white"/>
<rect x="50" y="420" width="224" height="72" rx="12" fill="white"/>
<path d="M128.582 469H144.857V465.024H133.325V442.818H128.582V469ZM148.768 469H153.396V449.364H148.768V469ZM151.095 446.577C152.565 446.577 153.767 445.452 153.767 444.071C153.767 442.678 152.565 441.553 151.095 441.553C149.612 441.553 148.411 442.678 148.411 444.071C148.411 445.452 149.612 446.577 151.095 446.577ZM158.36 469H162.911V465.906H163.179C163.908 467.338 165.429 469.345 168.804 469.345C173.432 469.345 176.897 465.676 176.897 459.207C176.897 452.662 173.33 449.108 168.792 449.108C165.327 449.108 163.882 451.192 163.179 452.611H162.988V442.818H158.36V469ZM162.898 459.182C162.898 455.372 164.534 452.905 167.513 452.905C170.594 452.905 172.179 455.526 172.179 459.182C172.179 462.864 170.569 465.548 167.513 465.548C164.56 465.548 162.898 462.991 162.898 459.182ZM180.831 469H185.459V457.456C185.459 454.963 187.338 453.199 189.882 453.199C190.662 453.199 191.634 453.339 192.03 453.467V449.21C191.608 449.134 190.879 449.082 190.368 449.082C188.118 449.082 186.239 450.361 185.523 452.636H185.318V449.364H180.831V469ZM200.368 469.396C203.449 469.396 205.29 467.952 206.134 466.303H206.287V469H210.736V455.858C210.736 450.668 206.505 449.108 202.759 449.108C198.63 449.108 195.459 450.949 194.436 454.528L198.757 455.142C199.218 453.8 200.522 452.649 202.784 452.649C204.932 452.649 206.108 453.749 206.108 455.679V455.756C206.108 457.085 204.715 457.149 201.25 457.52C197.441 457.929 193.797 459.067 193.797 463.49C193.797 467.351 196.623 469.396 200.368 469.396ZM201.57 465.996C199.64 465.996 198.259 465.114 198.259 463.413C198.259 461.636 199.806 460.895 201.877 460.601C203.091 460.435 205.52 460.128 206.121 459.642V461.956C206.121 464.142 204.357 465.996 201.57 465.996ZM215.39 469H220.017V457.456C220.017 454.963 221.897 453.199 224.441 453.199C225.221 453.199 226.192 453.339 226.588 453.467V449.21C226.167 449.134 225.438 449.082 224.926 449.082C222.676 449.082 220.797 450.361 220.081 452.636H219.877V449.364H215.39V469ZM233.137 476.364C236.742 476.364 238.826 474.51 239.938 471.378L247.826 449.389L242.879 449.364L238.34 464.193H238.136L233.61 449.364H228.701L235.822 469.409L235.425 470.47C234.569 472.707 233.214 472.861 231.194 472.273L230.12 475.878C230.746 476.134 231.871 476.364 233.137 476.364Z" fill="#267EDC"/>
<path d="M79 442.666C80.85 442.083 82.8833 441.833 84.8333 441.833C88.0833 441.833 91.5833 442.5 94 444.333C96.4166 442.5 99.9166 441.833 103.167 441.833C106.417 441.833 109.917 442.5 112.333 444.333V468.75C112.333 469.166 111.917 469.583 111.5 469.583C111.333 469.583 111.25 469.5 111.083 469.5C108.833 468.416 105.583 467.666 103.167 467.666C99.9166 467.666 96.4166 468.333 94 470.166C91.75 468.75 87.6666 467.666 84.8333 467.666C82.0833 467.666 79.25 468.166 76.9166 469.416C76.75 469.5 76.6666 469.5 76.5 469.5C76.0833 469.5 75.6666 469.083 75.6666 468.666V444.333C76.6666 443.583 77.75 443.083 79 442.666ZM79 465.166C80.8333 464.583 82.8333 464.333 84.8333 464.333C87.6666 464.333 91.75 465.416 94 466.833V447.666C91.75 446.25 87.6666 445.166 84.8333 445.166C82.8333 445.166 80.8333 445.416 79 446V465.166Z" fill="#267EDC"/>
<circle cx="968" cy="330" r="58" fill="white"/>
<circle cx="968" cy="330" r="90" stroke="#79B4F2" stroke-width="10"/>
<circle cx="968" cy="330" r="123" stroke="#79B4F2" stroke-width="10"/>
<circle cx="968" cy="330" r="154" stroke="#79B4F2" stroke-width="10"/>
<rect x="4056" width="1240" height="660" rx="30" fill="#267EDC"/>
<path d="M4110.23 305.25H4131.98V366H4142.48V305.25H4164.26V296.182H4110.23V305.25ZM4188.86 367.057C4200.28 367.057 4208.36 361.432 4210.68 352.909L4201.03 351.17C4199.19 356.114 4194.76 358.636 4188.96 358.636C4180.23 358.636 4174.37 352.977 4174.1 342.886H4211.32V339.273C4211.32 320.352 4200.01 312.955 4188.14 312.955C4173.55 312.955 4163.94 324.068 4163.94 340.159C4163.94 356.42 4173.41 367.057 4188.86 367.057ZM4174.13 335.25C4174.54 327.818 4179.93 321.375 4188.21 321.375C4196.12 321.375 4201.3 327.239 4201.34 335.25H4174.13ZM4221.13 366H4231.33V333.716C4231.33 326.659 4236.27 321.75 4242.07 321.75C4247.72 321.75 4251.64 325.5 4251.64 331.193V366H4261.8V332.625C4261.8 326.318 4265.66 321.75 4272.3 321.75C4277.69 321.75 4282.12 324.75 4282.12 331.841V366H4292.32V330.886C4292.32 318.92 4285.63 312.955 4276.16 312.955C4268.62 312.955 4262.96 316.568 4260.44 322.159H4259.89C4257.61 316.432 4252.8 312.955 4245.82 312.955C4238.89 312.955 4233.75 316.398 4231.57 322.159H4230.92V313.636H4221.13V366ZM4304.48 385.636H4314.67V357.852H4315.28C4317.12 361.193 4320.88 367.023 4330.42 367.023C4343.1 367.023 4352.31 356.864 4352.31 339.92C4352.31 322.943 4342.97 312.955 4330.32 312.955C4320.6 312.955 4317.09 318.886 4315.28 322.125H4314.43V313.636H4304.48V385.636ZM4314.47 339.818C4314.47 328.875 4319.24 321.614 4328.14 321.614C4337.38 321.614 4342.01 329.42 4342.01 339.818C4342.01 350.318 4337.24 358.33 4328.14 358.33C4319.38 358.33 4314.47 350.83 4314.47 339.818ZM4372.42 296.182H4362.23V366H4372.42V296.182ZM4399.87 367.159C4408.53 367.159 4413.41 362.761 4415.35 358.841H4415.76V366H4425.71V331.227C4425.71 315.989 4413.71 312.955 4405.39 312.955C4395.92 312.955 4387.19 316.773 4383.78 326.318L4393.36 328.5C4394.86 324.784 4398.68 321.205 4405.53 321.205C4412.11 321.205 4415.49 324.648 4415.49 330.58V330.818C4415.49 334.534 4411.67 334.466 4402.26 335.557C4392.34 336.716 4382.18 339.307 4382.18 351.205C4382.18 361.5 4389.92 367.159 4399.87 367.159ZM4402.09 358.977C4396.33 358.977 4392.17 356.386 4392.17 351.341C4392.17 345.886 4397.01 343.943 4402.91 343.159C4406.21 342.716 4414.05 341.83 4415.52 340.364V347.114C4415.52 353.318 4410.58 358.977 4402.09 358.977ZM4462.23 313.636H4451.49V301.091H4441.3V313.636H4433.63V321.818H4441.3V352.739C4441.27 362.25 4448.53 366.852 4456.57 366.682C4459.81 366.648 4461.99 366.034 4463.19 365.591L4461.35 357.17C4460.66 357.307 4459.4 357.614 4457.77 357.614C4454.46 357.614 4451.49 356.523 4451.49 350.625V321.818H4462.23V313.636ZM4494.01 367.057C4505.43 367.057 4513.51 361.432 4515.83 352.909L4506.18 351.17C4504.34 356.114 4499.91 358.636 4494.12 358.636C4485.39 358.636 4479.53 352.977 4479.25 342.886H4516.48V339.273C4516.48 320.352 4505.16 312.955 4493.3 312.955C4478.71 312.955 4469.09 324.068 4469.09 340.159C4469.09 356.42 4478.57 367.057 4494.01 367.057ZM4479.29 335.25C4479.7 327.818 4485.08 321.375 4493.37 321.375C4501.28 321.375 4506.46 327.239 4506.49 335.25H4479.29ZM4565.53 326.42C4563.41 318.273 4557.04 312.955 4545.72 312.955C4533.89 312.955 4525.51 319.193 4525.51 328.466C4525.51 335.898 4530.01 340.841 4539.82 343.023L4548.69 344.966C4553.73 346.091 4556.09 348.341 4556.09 351.614C4556.09 355.67 4551.76 358.841 4545.07 358.841C4538.97 358.841 4535.05 356.216 4533.82 351.068L4523.97 352.568C4525.68 361.841 4533.38 367.057 4545.14 367.057C4557.79 367.057 4566.55 360.341 4566.55 350.864C4566.55 343.466 4561.85 338.898 4552.23 336.682L4543.91 334.773C4538.15 333.409 4535.66 331.466 4535.7 327.92C4535.66 323.898 4540.03 321.034 4545.82 321.034C4552.16 321.034 4555.1 324.545 4556.29 328.057L4565.53 326.42Z" fill="white"/>
<rect x="4106" y="420" width="224" height="72" rx="12" fill="white"/>
<path d="M4184.58 469H4200.86V465.024H4189.33V442.818H4184.58V469ZM4204.77 469H4209.4V449.364H4204.77V469ZM4207.1 446.577C4208.57 446.577 4209.77 445.452 4209.77 444.071C4209.77 442.678 4208.57 441.553 4207.1 441.553C4205.61 441.553 4204.41 442.678 4204.41 444.071C4204.41 445.452 4205.61 446.577 4207.1 446.577ZM4214.36 469H4218.91V465.906H4219.18C4219.91 467.338 4221.43 469.345 4224.8 469.345C4229.43 469.345 4232.9 465.676 4232.9 459.207C4232.9 452.662 4229.33 449.108 4224.79 449.108C4221.33 449.108 4219.88 451.192 4219.18 452.611H4218.99V442.818H4214.36V469ZM4218.9 459.182C4218.9 455.372 4220.53 452.905 4223.51 452.905C4226.59 452.905 4228.18 455.526 4228.18 459.182C4228.18 462.864 4226.57 465.548 4223.51 465.548C4220.56 465.548 4218.9 462.991 4218.9 459.182ZM4236.83 469H4241.46V457.456C4241.46 454.963 4243.34 453.199 4245.88 453.199C4246.66 453.199 4247.63 453.339 4248.03 453.467V449.21C4247.61 449.134 4246.88 449.082 4246.37 449.082C4244.12 449.082 4242.24 450.361 4241.52 452.636H4241.32V449.364H4236.83V469ZM4256.37 469.396C4259.45 469.396 4261.29 467.952 4262.13 466.303H4262.29V469H4266.74V455.858C4266.74 450.668 4262.5 449.108 4258.76 449.108C4254.63 449.108 4251.46 450.949 4250.44 454.528L4254.76 455.142C4255.22 453.8 4256.52 452.649 4258.78 452.649C4260.93 452.649 4262.11 453.749 4262.11 455.679V455.756C4262.11 457.085 4260.71 457.149 4257.25 457.52C4253.44 457.929 4249.8 459.067 4249.8 463.49C4249.8 467.351 4252.62 469.396 4256.37 469.396ZM4257.57 465.996C4255.64 465.996 4254.26 465.114 4254.26 463.413C4254.26 461.636 4255.81 460.895 4257.88 460.601C4259.09 460.435 4261.52 460.128 4262.12 459.642V461.956C4262.12 464.142 4260.36 465.996 4257.57 465.996ZM4271.39 469H4276.02V457.456C4276.02 454.963 4277.9 453.199 4280.44 453.199C4281.22 453.199 4282.19 453.339 4282.59 453.467V449.21C4282.17 449.134 4281.44 449.082 4280.93 449.082C4278.68 449.082 4276.8 450.361 4276.08 452.636H4275.88V449.364H4271.39V469ZM4289.14 476.364C4292.74 476.364 4294.83 474.51 4295.94 471.378L4303.83 449.389L4298.88 449.364L4294.34 464.193H4294.14L4289.61 449.364H4284.7L4291.82 469.409L4291.43 470.47C4290.57 472.707 4289.21 472.861 4287.19 472.273L4286.12 475.878C4286.75 476.134 4287.87 476.364 4289.14 476.364Z" fill="#267EDC"/>
<path d="M4135 442.666C4136.85 442.083 4138.88 441.833 4140.83 441.833C4144.08 441.833 4147.58 442.5 4150 444.333C4152.42 442.5 4155.92 441.833 4159.17 441.833C4162.42 441.833 4165.92 442.5 4168.33 444.333V468.75C4168.33 469.166 4167.92 469.583 4167.5 469.583C4167.33 469.583 4167.25 469.5 4167.08 469.5C4164.83 468.416 4161.58 467.666 4159.17 467.666C4155.92 467.666 4152.42 468.333 4150 470.166C4147.75 468.75 4143.67 467.666 4140.83 467.666C4138.08 467.666 4135.25 468.166 4132.92 469.416C4132.75 469.5 4132.67 469.5 4132.5 469.5C4132.08 469.5 4131.67 469.083 4131.67 468.666V444.333C4132.67 443.583 4133.75 443.083 4135 442.666ZM4135 465.166C4136.83 464.583 4138.83 464.333 4140.83 464.333C4143.67 464.333 4147.75 465.416 4150 466.833V447.666C4147.75 446.25 4143.67 445.166 4140.83 445.166C4138.83 445.166 4136.83 445.416 4135 446V465.166Z" fill="#267EDC"/>
<circle cx="5024" cy="330" r="58" fill="#79B4F2"/>
<circle cx="5024" cy="330" r="90" stroke="#79B4F2" stroke-width="10"/>
<circle cx="5024" cy="330" r="123" stroke="#79B4F2" stroke-width="10"/>
<circle cx="5024" cy="330" r="154" stroke="white" stroke-width="10"/>
</svg>
