<svg fill="none" height="660" viewBox="0 0 2592 660" width="2592" xmlns="http://www.w3.org/2000/svg"><rect fill="#267edc" height="660" rx="30" width="1240" x="1352"/><path d="m1518.65 319.739c-2.15-15.512-14.08-24.512-29.56-24.512-18.24 0-31.98 13.296-31.98 35.864 0 22.534 13.57 35.864 31.98 35.864 16.6 0 27.61-10.739 29.56-24.069l-12.75-.068c-1.6 8.182-8.29 12.784-16.64 12.784-11.32 0-19.43-8.488-19.43-24.511 0-15.75 8.05-24.511 19.47-24.511 8.48 0 15.13 4.806 16.6 13.159zm33.88 47.284c15.34 0 25.09-10.807 25.09-27 0-16.228-9.75-27.068-25.09-27.068-15.35 0-25.1 10.84-25.1 27.068 0 16.193 9.75 27 25.1 27zm.06-9.887c-8.48 0-12.64-7.568-12.64-17.147 0-9.58 4.16-17.25 12.64-17.25 8.36 0 12.52 7.67 12.52 17.25 0 9.579-4.16 17.147-12.52 17.147zm35.5 8.864h12.34v-31.841c0-6.443 4.3-10.807 9.62-10.807 5.21 0 8.79 3.512 8.79 8.898v33.75h12.1v-32.659c0-5.898 3.51-9.989 9.48-9.989 4.98 0 8.93 2.932 8.93 9.409v33.239h12.38v-35.148c0-11.693-6.75-17.897-16.37-17.897-7.6 0-13.39 3.75-15.71 9.579h-.55c-2.01-5.932-7.09-9.579-14.15-9.579-7.02 0-12.27 3.613-14.45 9.579h-.61v-8.898h-11.8zm86.16 19.636h12.34v-27.886h.51c1.94 3.818 6 9.17 15 9.17 12.34 0 21.58-9.784 21.58-27.034 0-17.454-9.51-26.931-21.61-26.931-9.24 0-13.1 5.556-14.97 9.34h-.72v-8.659h-12.13zm12.1-45.818c0-10.159 4.36-16.738 12.31-16.738 8.21 0 12.44 6.988 12.44 16.738 0 9.818-4.3 16.977-12.44 16.977-7.88 0-12.31-6.818-12.31-16.977zm70.74 27.205c15.34 0 25.09-10.807 25.09-27 0-16.228-9.75-27.068-25.09-27.068s-25.09 10.84-25.09 27.068c0 16.193 9.75 27 25.09 27zm.07-9.887c-8.49 0-12.65-7.568-12.65-17.147 0-9.58 4.16-17.25 12.65-17.25 8.35 0 12.51 7.67 12.51 17.25 0 9.579-4.16 17.147-12.51 17.147zm47.83-21.818c0-7.568 4.57-11.932 11.08-11.932 6.38 0 10.2 4.194 10.2 11.182v31.432h12.34v-33.341c.03-12.545-7.13-19.704-17.93-19.704-7.84 0-13.23 3.75-15.62 9.579h-.61v-8.898h-11.8v52.364h12.34zm69.35 31.705c12.2 0 20.59-5.966 22.77-15.068l-11.52-1.296c-1.68 4.432-5.77 6.75-11.08 6.75-7.98 0-13.27-5.25-13.37-14.216h36.48v-3.784c0-18.375-11.05-26.454-23.93-26.454-15 0-24.79 11.011-24.79 27.17 0 16.432 9.65 26.898 25.44 26.898zm-13.16-32.148c.37-6.682 5.31-12.307 12.68-12.307 7.09 0 11.86 5.182 11.93 12.307zm59.22.443c0-7.568 4.57-11.932 11.08-11.932 6.38 0 10.19 4.194 10.19 11.182v31.432h12.34v-33.341c.04-12.545-7.12-19.704-17.93-19.704-7.84 0-13.22 3.75-15.61 9.579h-.61v-8.898h-11.8v52.364h12.34zm72.31-21.682h-10.33v-12.545h-12.34v12.545h-7.43v9.546h7.43v29.113c-.07 9.853 7.09 14.694 16.36 14.421 3.51-.102 5.93-.784 7.26-1.227l-2.08-9.648c-.68.17-2.08.477-3.61.477-3.1 0-5.59-1.091-5.59-6.068v-27.068h10.33zm50.95 13.841c-1.7-8.863-8.79-14.522-21.06-14.522-12.62 0-21.21 6.204-21.17 15.886-.04 7.636 4.67 12.682 14.72 14.761l8.94 1.875c4.8 1.057 7.05 3 7.05 5.966 0 3.58-3.88 6.273-9.75 6.273-5.66 0-9.34-2.455-10.4-7.159l-12.03 1.159c1.53 9.614 9.61 15.307 22.47 15.307 13.09 0 22.33-6.784 22.36-16.705-.03-7.466-4.84-12.034-14.73-14.182l-8.93-1.909c-5.32-1.193-7.43-3.034-7.4-6.068-.03-3.545 3.89-6 9.04-6 5.69 0 8.69 3.102 9.64 6.546z" fill="#fff"/><rect fill="#fff" height="72" rx="12" width="224" x="1452" y="420"/><path d="m1530.58 469h16.28v-3.976h-11.53v-22.206h-4.75zm20.19 0h4.63v-19.636h-4.63zm2.33-22.423c1.47 0 2.67-1.125 2.67-2.506 0-1.393-1.2-2.518-2.67-2.518-1.49 0-2.69 1.125-2.69 2.518 0 1.381 1.2 2.506 2.69 2.506zm7.26 22.423h4.55v-3.094h.27c.73 1.432 2.25 3.439 5.62 3.439 4.63 0 8.1-3.669 8.1-10.138 0-6.545-3.57-10.099-8.11-10.099-3.46 0-4.91 2.084-5.61 3.503h-.19v-9.793h-4.63zm4.54-9.818c0-3.81 1.63-6.277 4.61-6.277 3.08 0 4.67 2.621 4.67 6.277 0 3.682-1.61 6.366-4.67 6.366-2.95 0-4.61-2.557-4.61-6.366zm17.93 9.818h4.63v-11.544c0-2.493 1.88-4.257 4.42-4.257.78 0 1.75.14 2.15.268v-4.257c-.42-.076-1.15-.128-1.66-.128-2.25 0-4.13 1.279-4.85 3.554h-.2v-3.272h-4.49zm19.54.396c3.08 0 4.92-1.444 5.76-3.093h.16v2.697h4.45v-13.142c0-5.19-4.24-6.75-7.98-6.75-4.13 0-7.3 1.841-8.32 5.42l4.32.614c.46-1.342 1.76-2.493 4.02-2.493 2.15 0 3.33 1.1 3.33 3.03v.077c0 1.329-1.4 1.393-4.86 1.764-3.81.409-7.45 1.547-7.45 5.97 0 3.861 2.82 5.906 6.57 5.906zm1.2-3.4c-1.93 0-3.31-.882-3.31-2.583 0-1.777 1.55-2.518 3.62-2.812 1.21-.166 3.64-.473 4.24-.959v2.314c0 2.186-1.76 4.04-4.55 4.04zm13.82 3.004h4.63v-11.544c0-2.493 1.88-4.257 4.42-4.257.78 0 1.75.14 2.15.268v-4.257c-.42-.076-1.15-.128-1.66-.128-2.25 0-4.13 1.279-4.85 3.554h-.2v-3.272h-4.49zm17.75 7.364c3.6 0 5.69-1.854 6.8-4.986l7.89-21.989-4.95-.025-4.54 14.829h-.2l-4.53-14.829h-4.91l7.12 20.045-.39 1.061c-.86 2.237-2.22 2.391-4.24 1.803l-1.07 3.605c.63.256 1.75.486 3.02.486z" fill="#267edc"/><path d="m1481 442.666c1.85-.583 3.88-.833 5.83-.833 3.25 0 6.75.667 9.17 2.5 2.42-1.833 5.92-2.5 9.17-2.5s6.75.667 9.16 2.5v24.417c0 .416-.41.833-.83.833-.17 0-.25-.083-.42-.083-2.25-1.084-5.5-1.834-7.91-1.834-3.25 0-6.75.667-9.17 2.5-2.25-1.416-6.33-2.5-9.17-2.5-2.75 0-5.58.5-7.91 1.75-.17.084-.25.084-.42.084-.42 0-.83-.417-.83-.834v-24.333c1-.75 2.08-1.25 3.33-1.667zm0 22.5c1.83-.583 3.83-.833 5.83-.833 2.84 0 6.92 1.083 9.17 2.5v-19.167c-2.25-1.416-6.33-2.5-9.17-2.5-2 0-4 .25-5.83.834z" fill="#267edc"/><circle cx="2320" cy="330" fill="#79b4f2" r="58"/><g stroke-width="10"><circle cx="2320" cy="330" r="90" stroke="#fff"/><circle cx="2320" cy="330" r="123" stroke="#79b4f2"/><circle cx="2320" cy="330" r="154" stroke="#79b4f2"/></g><rect fill="#267edc" height="660" rx="30" width="1240"/><path d="m106.886 366h12.648v-29.659h29.011v-10.602h-29.011v-18.955h32.08v-10.602h-44.728zm74.702 1.023c15.341 0 25.091-10.807 25.091-27 0-16.228-9.75-27.068-25.091-27.068s-25.091 10.84-25.091 27.068c0 16.193 9.75 27 25.091 27zm.068-9.887c-8.488 0-12.647-7.568-12.647-17.147 0-9.58 4.159-17.25 12.647-17.25 8.353 0 12.512 7.67 12.512 17.25 0 9.579-4.159 17.147-12.512 17.147zm68.872-13.159c0 7.978-5.693 11.932-11.147 11.932-5.932 0-9.887-4.193-9.887-10.841v-31.432h-12.341v33.341c0 12.58 7.159 19.705 17.455 19.705 7.841 0 13.364-4.125 15.75-9.989h.545v9.307h11.966v-52.364h-12.341zm37.373-8.659c0-7.568 4.568-11.932 11.079-11.932 6.375 0 10.193 4.194 10.193 11.182v31.432h12.341v-33.341c.034-12.545-7.125-19.704-17.932-19.704-7.841 0-13.227 3.75-15.613 9.579h-.614v-8.898h-11.795v52.364h12.341zm65.59 31.602c9 0 13.057-5.352 15-9.17h.75v8.25h12.137v-69.818h-12.375v26.113h-.512c-1.875-3.784-5.727-9.34-14.965-9.34-12.103 0-21.614 9.477-21.614 26.931 0 17.25 9.239 27.034 21.579 27.034zm3.444-10.125c-8.148 0-12.444-7.159-12.444-16.977 0-9.75 4.228-16.738 12.444-16.738 7.943 0 12.306 6.579 12.306 16.738s-4.431 16.977-12.306 16.977zm52.662 10.262c8.215 0 13.125-3.852 15.375-8.25h.409v7.193h11.863v-35.045c0-13.841-11.284-18-21.272-18-11.012 0-19.466 4.909-22.194 14.454l11.523 1.636c1.227-3.579 4.705-6.647 10.739-6.647 5.727 0 8.863 2.932 8.863 8.079v.205c0 3.545-3.715 3.716-12.954 4.704-10.159 1.091-19.875 4.125-19.875 15.921 0 10.295 7.534 15.75 17.523 15.75zm3.204-9.068c-5.148 0-8.829-2.353-8.829-6.887 0-4.738 4.125-6.716 9.647-7.5 3.239-.443 9.716-1.261 11.319-2.557v6.171c0 5.829-4.705 10.773-12.137 10.773zm63-44.353h-10.329v-12.545h-12.341v12.545h-7.432v9.546h7.432v29.113c-.069 9.853 7.091 14.694 16.363 14.421 3.512-.102 5.932-.784 7.262-1.227l-2.08-9.648c-.682.17-2.079.477-3.614.477-3.102 0-5.59-1.091-5.59-6.068v-27.068h10.329zm10.321 52.364h12.341v-52.364h-12.341zm6.205-59.795c3.92 0 7.125-3 7.125-6.682 0-3.716-3.205-6.716-7.125-6.716-3.955 0-7.159 3-7.159 6.716 0 3.682 3.204 6.682 7.159 6.682zm41.667 60.818c15.341 0 25.091-10.807 25.091-27 0-16.228-9.75-27.068-25.091-27.068s-25.091 10.84-25.091 27.068c0 16.193 9.75 27 25.091 27zm.068-9.887c-8.488 0-12.647-7.568-12.647-17.147 0-9.58 4.159-17.25 12.647-17.25 8.353 0 12.512 7.67 12.512 17.25 0 9.579-4.159 17.147-12.512 17.147zm47.839-21.818c0-7.568 4.568-11.932 11.079-11.932 6.375 0 10.193 4.194 10.193 11.182v31.432h12.341v-33.341c.034-12.545-7.125-19.704-17.932-19.704-7.841 0-13.227 3.75-15.613 9.579h-.614v-8.898h-11.795v52.364h12.341zm87.545-7.841c-1.705-8.863-8.795-14.522-21.068-14.522-12.614 0-21.205 6.204-21.171 15.886-.034 7.636 4.671 12.682 14.728 14.761l8.931 1.875c4.807 1.057 7.057 3 7.057 5.966 0 3.58-3.886 6.273-9.75 6.273-5.659 0-9.341-2.455-10.397-7.159l-12.035 1.159c1.535 9.614 9.614 15.307 22.466 15.307 13.091 0 22.33-6.784 22.364-16.705-.034-7.466-4.841-12.034-14.727-14.182l-8.932-1.909c-5.318-1.193-7.432-3.034-7.398-6.068-.034-3.545 3.887-6 9.034-6 5.693 0 8.693 3.102 9.648 6.546z" fill="#fff"/><rect fill="#fff" height="72" rx="12" width="224" x="100" y="420"/><path d="m178.582 469h16.275v-3.976h-11.532v-22.206h-4.743zm20.186 0h4.628v-19.636h-4.628zm2.327-22.423c1.47 0 2.672-1.125 2.672-2.506 0-1.393-1.202-2.518-2.672-2.518-1.483 0-2.684 1.125-2.684 2.518 0 1.381 1.201 2.506 2.684 2.506zm7.265 22.423h4.551v-3.094h.268c.729 1.432 2.25 3.439 5.625 3.439 4.628 0 8.093-3.669 8.093-10.138 0-6.545-3.567-10.099-8.105-10.099-3.465 0-4.91 2.084-5.613 3.503h-.191v-9.793h-4.628zm4.538-9.818c0-3.81 1.636-6.277 4.615-6.277 3.081 0 4.666 2.621 4.666 6.277 0 3.682-1.61 6.366-4.666 6.366-2.953 0-4.615-2.557-4.615-6.366zm17.933 9.818h4.628v-11.544c0-2.493 1.879-4.257 4.423-4.257.78 0 1.752.14 2.148.268v-4.257c-.422-.076-1.151-.128-1.662-.128-2.25 0-4.129 1.279-4.845 3.554h-.205v-3.272h-4.487zm19.537.396c3.081 0 4.922-1.444 5.766-3.093h.153v2.697h4.449v-13.142c0-5.19-4.231-6.75-7.977-6.75-4.129 0-7.3 1.841-8.323 5.42l4.321.614c.461-1.342 1.765-2.493 4.027-2.493 2.148 0 3.324 1.1 3.324 3.03v.077c0 1.329-1.393 1.393-4.858 1.764-3.809.409-7.453 1.547-7.453 5.97 0 3.861 2.826 5.906 6.571 5.906zm1.202-3.4c-1.93 0-3.311-.882-3.311-2.583 0-1.777 1.547-2.518 3.618-2.812 1.214-.166 3.643-.473 4.244-.959v2.314c0 2.186-1.764 4.04-4.551 4.04zm13.82 3.004h4.627v-11.544c0-2.493 1.88-4.257 4.424-4.257.78 0 1.751.14 2.147.268v-4.257c-.421-.076-1.15-.128-1.662-.128-2.25 0-4.129 1.279-4.845 3.554h-.204v-3.272h-4.487zm17.747 7.364c3.605 0 5.689-1.854 6.801-4.986l7.888-21.989-4.947-.025-4.539 14.829h-.204l-4.526-14.829h-4.909l7.121 20.045-.397 1.061c-.856 2.237-2.211 2.391-4.231 1.803l-1.074 3.605c.626.256 1.751.486 3.017.486z" fill="#267edc"/><path d="m129 442.666c1.85-.583 3.883-.833 5.833-.833 3.25 0 6.75.667 9.167 2.5 2.417-1.833 5.917-2.5 9.167-2.5s6.75.667 9.166 2.5v24.417c0 .416-.416.833-.833.833-.167 0-.25-.083-.417-.083-2.25-1.084-5.5-1.834-7.916-1.834-3.25 0-6.75.667-9.167 2.5-2.25-1.416-6.333-2.5-9.167-2.5-2.75 0-5.583.5-7.916 1.75-.167.084-.25.084-.417.084-.417 0-.833-.417-.833-.834v-24.333c1-.75 2.083-1.25 3.333-1.667zm0 22.5c1.833-.583 3.833-.833 5.833-.833 2.834 0 6.917 1.083 9.167 2.5v-19.167c-2.25-1.416-6.333-2.5-9.167-2.5-2 0-4 .25-5.833.834z" fill="#267edc"/><circle cx="968" cy="330" fill="#fff" r="58"/><circle cx="968" cy="330" r="90" stroke="#79b4f2" stroke-width="10"/><circle cx="968" cy="330" r="123" stroke="#79b4f2" stroke-width="10"/><circle cx="968" cy="330" r="154" stroke="#79b4f2" stroke-width="10"/></svg>