<svg fill="none" height="660" viewBox="0 0 2592 660" width="2592" xmlns="http://www.w3.org/2000/svg"><rect fill="#267edc" height="660" rx="30" width="1240"/><path d="m106.886 366h12.648v-23.591h13.364c16.125 0 24.784-9.682 24.784-23.114 0-13.329-8.557-23.113-24.614-23.113h-26.182zm12.648-33.989v-25.261h11.591c9.477 0 13.67 5.114 13.67 12.545 0 7.432-4.193 12.716-13.602 12.716zm62.719 35.046c8.216 0 13.125-3.852 15.375-8.25h.409v7.193h11.864v-35.045c0-13.841-11.285-18-21.273-18-11.012 0-19.466 4.909-22.193 14.454l11.522 1.636c1.228-3.579 4.705-6.647 10.739-6.647 5.727 0 8.864 2.932 8.864 8.079v.205c0 3.545-3.716 3.716-12.955 4.704-10.159 1.091-19.875 4.125-19.875 15.921 0 10.295 7.534 15.75 17.523 15.75zm3.204-9.068c-5.147 0-8.829-2.353-8.829-6.887 0-4.738 4.125-6.716 9.648-7.5 3.238-.443 9.715-1.261 11.318-2.557v6.171c0 5.829-4.705 10.773-12.137 10.773zm63-44.353h-10.329v-12.545h-12.341v12.545h-7.432v9.546h7.432v29.113c-.068 9.853 7.091 14.694 16.364 14.421 3.511-.102 5.931-.784 7.261-1.227l-2.08-9.648c-.681.17-2.079.477-3.613.477-3.103 0-5.591-1.091-5.591-6.068v-27.068h10.329zm36.469 0h-10.329v-12.545h-12.341v12.545h-7.432v9.546h7.432v29.113c-.068 9.853 7.091 14.694 16.363 14.421 3.512-.102 5.932-.784 7.262-1.227l-2.08-9.648c-.682.17-2.079.477-3.613.477-3.103 0-5.591-1.091-5.591-6.068v-27.068h10.329zm32.94 53.387c12.205 0 20.591-5.966 22.773-15.068l-11.523-1.296c-1.67 4.432-5.761 6.75-11.079 6.75-7.977 0-13.261-5.25-13.364-14.216h36.478v-3.784c0-18.375-11.046-26.454-23.932-26.454-15 0-24.784 11.011-24.784 27.17 0 16.432 9.647 26.898 25.431 26.898zm-13.159-32.148c.375-6.682 5.319-12.307 12.682-12.307 7.091 0 11.864 5.182 11.932 12.307zm46.884 31.125h12.341v-30.784c0-6.648 5.011-11.352 11.795-11.352 2.08 0 4.671.375 5.728.716v-11.353c-1.125-.204-3.069-.341-4.432-.341-6 0-11.012 3.409-12.921 9.478h-.545v-8.728h-11.966zm50.403-30.682c0-7.568 4.568-11.932 11.08-11.932 6.375 0 10.193 4.194 10.193 11.182v31.432h12.341v-33.341c.034-12.545-7.125-19.704-17.932-19.704-7.841 0-13.227 3.75-15.614 9.579h-.613v-8.898h-11.796v52.364h12.341zm87.546-7.841c-1.705-8.863-8.796-14.522-21.068-14.522-12.614 0-21.205 6.204-21.171 15.886-.034 7.636 4.671 12.682 14.727 14.761l8.932 1.875c4.807 1.057 7.057 3 7.057 5.966 0 3.58-3.886 6.273-9.75 6.273-5.659 0-9.341-2.455-10.398-7.159l-12.034 1.159c1.534 9.614 9.614 15.307 22.466 15.307 13.091 0 22.33-6.784 22.364-16.705-.034-7.466-4.841-12.034-14.727-14.182l-8.932-1.909c-5.318-1.193-7.432-3.034-7.398-6.068-.034-3.545 3.886-6 9.034-6 5.693 0 8.693 3.102 9.648 6.546z" fill="#fff"/><rect fill="#fff" height="72" rx="12" width="224" x="100" y="420"/><path d="m178.582 469h16.275v-3.976h-11.532v-22.206h-4.743zm20.186 0h4.628v-19.636h-4.628zm2.327-22.423c1.47 0 2.672-1.125 2.672-2.506 0-1.393-1.202-2.518-2.672-2.518-1.483 0-2.684 1.125-2.684 2.518 0 1.381 1.201 2.506 2.684 2.506zm7.265 22.423h4.551v-3.094h.268c.729 1.432 2.25 3.439 5.625 3.439 4.628 0 8.093-3.669 8.093-10.138 0-6.545-3.567-10.099-8.105-10.099-3.465 0-4.91 2.084-5.613 3.503h-.191v-9.793h-4.628zm4.538-9.818c0-3.81 1.636-6.277 4.615-6.277 3.081 0 4.666 2.621 4.666 6.277 0 3.682-1.61 6.366-4.666 6.366-2.953 0-4.615-2.557-4.615-6.366zm17.933 9.818h4.628v-11.544c0-2.493 1.879-4.257 4.423-4.257.78 0 1.752.14 2.148.268v-4.257c-.422-.076-1.151-.128-1.662-.128-2.25 0-4.129 1.279-4.845 3.554h-.205v-3.272h-4.487zm19.537.396c3.081 0 4.922-1.444 5.766-3.093h.153v2.697h4.449v-13.142c0-5.19-4.231-6.75-7.977-6.75-4.129 0-7.3 1.841-8.323 5.42l4.321.614c.461-1.342 1.765-2.493 4.027-2.493 2.148 0 3.324 1.1 3.324 3.03v.077c0 1.329-1.393 1.393-4.858 1.764-3.809.409-7.453 1.547-7.453 5.97 0 3.861 2.826 5.906 6.571 5.906zm1.202-3.4c-1.93 0-3.311-.882-3.311-2.583 0-1.777 1.547-2.518 3.618-2.812 1.214-.166 3.643-.473 4.244-.959v2.314c0 2.186-1.764 4.04-4.551 4.04zm13.82 3.004h4.627v-11.544c0-2.493 1.88-4.257 4.424-4.257.78 0 1.751.14 2.147.268v-4.257c-.421-.076-1.15-.128-1.662-.128-2.25 0-4.129 1.279-4.845 3.554h-.204v-3.272h-4.487zm17.747 7.364c3.605 0 5.689-1.854 6.801-4.986l7.888-21.989-4.947-.025-4.539 14.829h-.204l-4.526-14.829h-4.909l7.121 20.045-.397 1.061c-.856 2.237-2.211 2.391-4.231 1.803l-1.074 3.605c.626.256 1.751.486 3.017.486z" fill="#267edc"/><path d="m129 442.666c1.85-.583 3.883-.833 5.833-.833 3.25 0 6.75.667 9.167 2.5 2.417-1.833 5.917-2.5 9.167-2.5s6.75.667 9.166 2.5v24.417c0 .416-.416.833-.833.833-.167 0-.25-.083-.417-.083-2.25-1.084-5.5-1.834-7.916-1.834-3.25 0-6.75.667-9.167 2.5-2.25-1.416-6.333-2.5-9.167-2.5-2.75 0-5.583.5-7.916 1.75-.167.084-.25.084-.417.084-.417 0-.833-.417-.833-.834v-24.333c1-.75 2.083-1.25 3.333-1.667zm0 22.5c1.833-.583 3.833-.833 5.833-.833 2.834 0 6.917 1.083 9.167 2.5v-19.167c-2.25-1.416-6.333-2.5-9.167-2.5-2 0-4 .25-5.833.834z" fill="#267edc"/><circle cx="968" cy="330" fill="#79b4f2" r="58"/><g stroke-width="10"><circle cx="968" cy="330" r="90" stroke="#79b4f2"/><circle cx="968" cy="330" r="123" stroke="#fff"/><circle cx="968" cy="330" r="154" stroke="#79b4f2"/></g><rect fill="#267edc" height="660" rx="30" width="1240" x="1352"/><path d="m1455.82 306.784h21.58v59.216h12.54v-59.216h21.58v-10.602h-55.7zm81.48 60.239c12.21 0 20.59-5.966 22.78-15.068l-11.53-1.296c-1.67 4.432-5.76 6.75-11.08 6.75-7.97 0-13.26-5.25-13.36-14.216h36.48v-3.784c0-18.375-11.05-26.454-23.93-26.454-15 0-24.79 11.011-24.79 27.17 0 16.432 9.65 26.898 25.43 26.898zm-13.16-32.148c.38-6.682 5.32-12.307 12.69-12.307 7.09 0 11.86 5.182 11.93 12.307zm46.89 31.125h12.34v-31.841c0-6.443 4.29-10.807 9.61-10.807 5.22 0 8.8 3.512 8.8 8.898v33.75h12.1v-32.659c0-5.898 3.51-9.989 9.48-9.989 4.98 0 8.93 2.932 8.93 9.409v33.239h12.37v-35.148c0-11.693-6.75-17.897-16.36-17.897-7.6 0-13.4 3.75-15.71 9.579h-.55c-2.01-5.932-7.09-9.579-14.15-9.579-7.02 0-12.27 3.613-14.45 9.579h-.62v-8.898h-11.79zm86.15 19.636h12.35v-27.886h.51c1.94 3.818 6 9.17 15 9.17 12.34 0 21.58-9.784 21.58-27.034 0-17.454-9.51-26.931-21.62-26.931-9.24 0-13.09 5.556-14.96 9.34h-.72v-8.659h-12.14zm12.11-45.818c0-10.159 4.36-16.738 12.3-16.738 8.22 0 12.45 6.988 12.45 16.738 0 9.818-4.3 16.977-12.45 16.977-7.87 0-12.3-6.818-12.3-16.977zm60.24-43.636h-12.35v69.818h12.35zm27.75 70.875c8.22 0 13.13-3.852 15.38-8.25h.41v7.193h11.86v-35.045c0-13.841-11.28-18-21.27-18-11.01 0-19.47 4.909-22.19 14.454l11.52 1.636c1.23-3.579 4.7-6.647 10.74-6.647 5.72 0 8.86 2.932 8.86 8.079v.205c0 3.545-3.71 3.716-12.95 4.704-10.16 1.091-19.88 4.125-19.88 15.921 0 10.295 7.54 15.75 17.52 15.75zm3.21-9.068c-5.15 0-8.83-2.353-8.83-6.887 0-4.738 4.12-6.716 9.65-7.5 3.24-.443 9.71-1.261 11.31-2.557v6.171c0 5.829-4.7 10.773-12.13 10.773zm63-44.353h-10.33v-12.545h-12.34v12.545h-7.43v9.546h7.43v29.113c-.07 9.853 7.09 14.694 16.36 14.421 3.51-.102 5.93-.784 7.26-1.227l-2.08-9.648c-.68.17-2.08.477-3.61.477-3.1 0-5.59-1.091-5.59-6.068v-27.068h10.33zm32.94 53.387c12.2 0 20.59-5.966 22.77-15.068l-11.52-1.296c-1.67 4.432-5.76 6.75-11.08 6.75-7.98 0-13.26-5.25-13.36-14.216h36.47v-3.784c0-18.375-11.04-26.454-23.93-26.454-15 0-24.78 11.011-24.78 27.17 0 16.432 9.64 26.898 25.43 26.898zm-13.16-32.148c.37-6.682 5.32-12.307 12.68-12.307 7.09 0 11.87 5.182 11.93 12.307zm88.27-7.398c-1.7-8.863-8.8-14.522-21.07-14.522-12.61 0-21.2 6.204-21.17 15.886-.03 7.636 4.67 12.682 14.73 14.761l8.93 1.875c4.81 1.057 7.06 3 7.06 5.966 0 3.58-3.89 6.273-9.75 6.273-5.66 0-9.34-2.455-10.4-7.159l-12.03 1.159c1.53 9.614 9.61 15.307 22.46 15.307 13.09 0 22.33-6.784 22.36-16.705-.03-7.466-4.84-12.034-14.72-14.182l-8.93-1.909c-5.32-1.193-7.44-3.034-7.4-6.068-.04-3.545 3.88-6 9.03-6 5.7 0 8.7 3.102 9.65 6.546z" fill="#fff"/><rect fill="#fff" height="72" rx="12" width="224" x="1452" y="420"/><path d="m1530.58 469h16.28v-3.976h-11.53v-22.206h-4.75zm20.19 0h4.63v-19.636h-4.63zm2.33-22.423c1.47 0 2.67-1.125 2.67-2.506 0-1.393-1.2-2.518-2.67-2.518-1.49 0-2.69 1.125-2.69 2.518 0 1.381 1.2 2.506 2.69 2.506zm7.26 22.423h4.55v-3.094h.27c.73 1.432 2.25 3.439 5.62 3.439 4.63 0 8.1-3.669 8.1-10.138 0-6.545-3.57-10.099-8.11-10.099-3.46 0-4.91 2.084-5.61 3.503h-.19v-9.793h-4.63zm4.54-9.818c0-3.81 1.63-6.277 4.61-6.277 3.08 0 4.67 2.621 4.67 6.277 0 3.682-1.61 6.366-4.67 6.366-2.95 0-4.61-2.557-4.61-6.366zm17.93 9.818h4.63v-11.544c0-2.493 1.88-4.257 4.42-4.257.78 0 1.75.14 2.15.268v-4.257c-.42-.076-1.15-.128-1.66-.128-2.25 0-4.13 1.279-4.85 3.554h-.2v-3.272h-4.49zm19.54.396c3.08 0 4.92-1.444 5.76-3.093h.16v2.697h4.45v-13.142c0-5.19-4.24-6.75-7.98-6.75-4.13 0-7.3 1.841-8.32 5.42l4.32.614c.46-1.342 1.76-2.493 4.02-2.493 2.15 0 3.33 1.1 3.33 3.03v.077c0 1.329-1.4 1.393-4.86 1.764-3.81.409-7.45 1.547-7.45 5.97 0 3.861 2.82 5.906 6.57 5.906zm1.2-3.4c-1.93 0-3.31-.882-3.31-2.583 0-1.777 1.55-2.518 3.62-2.812 1.21-.166 3.64-.473 4.24-.959v2.314c0 2.186-1.76 4.04-4.55 4.04zm13.82 3.004h4.63v-11.544c0-2.493 1.88-4.257 4.42-4.257.78 0 1.75.14 2.15.268v-4.257c-.42-.076-1.15-.128-1.66-.128-2.25 0-4.13 1.279-4.85 3.554h-.2v-3.272h-4.49zm17.75 7.364c3.6 0 5.69-1.854 6.8-4.986l7.89-21.989-4.95-.025-4.54 14.829h-.2l-4.53-14.829h-4.91l7.12 20.045-.39 1.061c-.86 2.237-2.22 2.391-4.24 1.803l-1.07 3.605c.63.256 1.75.486 3.02.486z" fill="#267edc"/><path d="m1481 442.666c1.85-.583 3.88-.833 5.83-.833 3.25 0 6.75.667 9.17 2.5 2.42-1.833 5.92-2.5 9.17-2.5s6.75.667 9.16 2.5v24.417c0 .416-.41.833-.83.833-.17 0-.25-.083-.42-.083-2.25-1.084-5.5-1.834-7.91-1.834-3.25 0-6.75.667-9.17 2.5-2.25-1.416-6.33-2.5-9.17-2.5-2.75 0-5.58.5-7.91 1.75-.17.084-.25.084-.42.084-.42 0-.83-.417-.83-.834v-24.333c1-.75 2.08-1.25 3.33-1.667zm0 22.5c1.83-.583 3.83-.833 5.83-.833 2.84 0 6.92 1.083 9.17 2.5v-19.167c-2.25-1.416-6.33-2.5-9.17-2.5-2 0-4 .25-5.83.834z" fill="#267edc"/><circle cx="2320" cy="330" fill="#79b4f2" r="58"/><g stroke-width="10"><circle cx="2320" cy="330" r="90" stroke="#79b4f2"/><circle cx="2320" cy="330" r="123" stroke="#79b4f2"/><circle cx="2320" cy="330" r="154" stroke="#fff"/></g></svg>