<svg fill="none" height="138" viewBox="0 0 263 138" width="263" xmlns="http://www.w3.org/2000/svg"><path clip-rule="evenodd" d="m137.756 56c-7.541 0-11.848 5.4161-11.848 13 0 7.5968 4.297 13.0022 11.831 13 6.109 0 9.341-3.61 10.057-7.9455l-.359-.3595h-2.872l-.359.3595c-.717 2.5294-2.512 4.695-6.46 4.695-5.386 0-8.258-3.9717-8.258-9.7495s2.872-9.7495 8.258-9.7495c3.588 0 5.743 1.804 6.46 4.3334l.359.3616h2.889l.359-.3616c-.723-4.3334-4.313-7.5839-10.057-7.5839zm-85.0881 25.6426h-18.3084l-.3595-.3616v-24.5599l.3595-.3595h18.3084l.3595.3617v4.6928l-.3595.3617h-11.8461l-.3595.3616v3.6101l.3595.3616h11.1271l.3595.3617v4.6949l-.3595.3617h-11.1271l-.3595.3616v3.9717l.3595.3617h11.8461l.3595.3616v4.695zm25.1303 0h-3.2312l-.719-.3616-6.4623-8.6688h-.3595l-6.4622 8.6688-.7169.3616h-3.2311l-.3595-.3616v-4.6842l6.4623-7.9649v-.3617l-6.1028-6.8541v-4.695l.3595-.3595h3.2397l.7168.3617 6.0942 7.5817h.3595l6.0964-7.5839.7254-.3595h3.2312l.3595.3617v4.6928l-6.105 6.8627v.3531l6.4623 7.9649v4.695zm4.671 0h5.7369l.3659-.3616v-24.5577l-.3573-.3617h-5.7455l-.3573.3595v24.5599zm39.1228 0h-5.741l-.36-.3616v-11.5577h-.359l-4.667 11.5577-.36.3616h-4.669l-.357-.3616-4.669-11.5577h-.358v11.5577l-.3591.3616h-5.7455l-.3509-.3616v-24.5599l.3509-.3595h6.8216l.36.3617 6.462 16.2527h.359l6.463-16.2527.368-.3617h6.822l.359.3617v24.5577zm49.894 0h-2.869l-.36-.3616v-10.4749l-.359-.3595h-11.846l-.36.3595v10.4749l-.359.3616h-2.872l-.36-.3616v-24.5599l.36-.3595h2.872l.359.3617v10.1176l.36.3616h11.846l.359-.3616v-10.1176l.36-.3617h2.869l.36.3617v24.5577zm22.618 0h2.153l.36-.3638v-2.5293l-8.615-22.0262-.36-.3617h-3.231l-.36.3595-8.617 22.0284v2.5315l.36.3616h2.155l.357-.3616 2.155-5.4183.719-.3616h9.704l.717.3616 2.14 5.4183zm-8.264-19.8648h.36l3.948 10.1175-.36.3595h-7.538l-.36-.3595zm17.594 19.8648h-2.872l-.357-.3616v-24.5599l.357-.3595h2.872l.364.3595v24.5599zm22.977 0h3.229l.36-.3616v-24.5577l-.36-.3617h-2.871l-.358.3595v18.78h-.359l-12.197-18.78-.728-.3595h-3.231l-.359.3595v24.5599l.359.3616h2.872l.359-.3616v-18.7799h.368l12.197 18.7799z" fill="#267edc" fill-rule="evenodd"/></svg>