<svg fill="none" height="394" viewBox="0 0 537 394" width="537" xmlns="http://www.w3.org/2000/svg"><path d="m0 0h537v393.345h-537z" fill="#282a29"/><path clip-rule="evenodd" d="m280.692 171c-15.603 0-24.516 11.009-24.516 26.425 0 15.442 8.89 26.429 24.481 26.425 12.641 0 19.327-7.338 20.81-16.151l-.744-.731h-5.942l-.744.731c-1.483 5.142-5.198 9.544-13.367 9.544-11.145 0-17.087-8.074-17.087-19.818s5.942-19.818 17.087-19.818c7.425 0 11.884 3.667 13.367 8.809l.744.735h5.978l.744-.735c-1.497-8.809-8.927-15.416-20.811-15.416zm-176.064 52.124h-37.8841l-.7439-.736v-49.922l.7439-.731h37.8841l.744.735v9.539l-.744.735h-24.5123l-.7439.736v7.338l.7439.735h23.0243l.744.735v9.543l-.744.735h-23.0243l-.7439.736v8.073l.7439.735h24.5123l.744.735v9.543zm51.998 0h-6.686l-1.488-.736-13.371-17.621h-.744l-13.372 17.621-1.483.736h-6.686l-.744-.736v-9.521l13.372-16.19v-.735l-12.628-13.933v-9.543l.744-.731h6.703l1.484.735 12.61 15.412h.744l12.614-15.416 1.501-.731h6.686l.744.735v9.539l-12.632 13.95v.718l13.372 16.19v9.543zm9.668 0h11.871l.757-.736v-49.918l-.739-.735h-11.889l-.739.731v49.922zm80.953 0h-11.88l-.744-.736v-23.493h-.744l-9.657 23.493-.744.736h-9.661l-.739-.736-9.662-23.493h-.739v23.493l-.744.736h-11.889l-.726-.736v-49.922l.726-.731h14.116l.744.735 13.372 33.037h.744l13.371-33.037.762-.735h14.116l.744.735v49.918zm103.24 0h-5.937l-.744-.736v-21.292l-.744-.731h-24.512l-.744.731v21.292l-.744.736h-5.942l-.744-.736v-49.922l.744-.731h5.942l.744.735v20.566l.744.735h24.512l.744-.735v-20.566l.744-.735h5.937l.744.735v49.918zm46.804 0h4.454l.744-.74v-5.141l-17.826-44.773-.744-.735h-6.686l-.744.731-17.831 44.777v5.145l.744.736h4.459l.74-.736 4.458-11.013 1.488-.735h20.08l1.483.735 4.428 11.013zm-17.1-40.38h.744l8.169 20.566-.744.731h-15.599l-.744-.731zm36.404 40.38h-5.942l-.739-.736v-49.922l.739-.731h5.942l.753.731v49.922zm47.544 0h6.681l.744-.736v-49.918l-.744-.735h-5.942l-.739.731v38.174h-.744l-25.238-38.174-1.506-.731h-6.686l-.744.731v49.922l.744.736h5.942l.744-.736v-38.173h.762l25.238 38.173z" fill="#fff" fill-rule="evenodd"/></svg>