<svg fill="none" height="900" viewBox="0 0 1440 900" width="1440" xmlns="http://www.w3.org/2000/svg"><path d="m0 0h1440v900h-1440z" fill="#fff"/><path clip-rule="evenodd" d="m725.874 49c-7.695 0-12.09 5.4258-12.09 13.0233 0 7.6103 4.384 13.0254 12.072 13.0232 6.234 0 9.531-3.6165 10.263-7.9597l-.367-.3602h-2.93l-.367.3602c-.732 2.5339-2.564 4.7034-6.592 4.7034-5.496 0-8.426-3.9788-8.426-9.7669 0-5.7882 2.93-9.7669 8.426-9.7669 3.662 0 5.86 1.8071 6.592 4.341l.367.3623h2.947l.367-.3623c-.738-4.341-4.402-7.5974-10.262-7.5974zm-86.825 25.6885h-18.682l-.367-.3623v-24.6038l.367-.3601h18.682l.367.3623v4.7012l-.367.3623h-12.088l-.367.3623v3.6165l.367.3623h11.354l.367.3623v4.7034l-.367.3623h-11.354l-.367.3623v3.9787l.367.3623h12.088l.367.3623v4.7034zm25.643 0h-3.297l-.734-.3623-6.594-8.6843h-.367l-6.594 8.6843-.731.3623h-3.297l-.367-.3623v-4.6926l6.594-7.9791v-.3623l-6.227-6.8664v-4.7034l.366-.3601h3.306l.732.3623 6.218 7.5953h.367l6.221-7.5975.74-.3601h3.297l.367.3623v4.7012l-6.23 6.875v.3537l6.595 7.9791v4.7034zm4.766 0h5.854l.374-.3623v-24.6016l-.365-.3623h-5.863l-.364.3601v24.6038zm39.921 0h-5.858l-.367-.3623v-11.5784h-.366l-4.763 11.5784-.367.3623h-4.764l-.365-.3623-4.764-11.5784h-.365v11.5784l-.366.3623h-5.863l-.358-.3623v-24.6038l.358-.3601h6.961l.367.3623 6.594 16.2817h.367l6.594-16.2817.375-.3623h6.961l.367.3623v24.6016zm50.913 0h-2.928l-.367-.3623v-10.4936l-.367-.3602h-12.088l-.366.3602v10.4936l-.367.3623h-2.93l-.367-.3623v-24.6038l.367-.3601h2.93l.367.3623v10.1357l.366.3623h12.088l.367-.3623v-10.1357l.367-.3623h2.928l.367.3623v24.6016zm23.08 0h2.196l.367-.3644v-2.534l-8.79-22.0655-.367-.3623h-3.297l-.367.3601-8.793 22.0677v2.5361l.367.3623h2.198l.365-.3623 2.199-5.428.734-.3622h9.902l.731.3622 2.184 5.428zm-8.433-19.9004h.367l4.029 10.1357-.367.3601h-7.693l-.367-.3601zm17.953 19.9004h-2.93l-.365-.3623v-24.6038l.365-.3601h2.93l.371.3601v24.6038zm23.446 0h3.295l.367-.3623v-24.6016l-.367-.3623h-2.93l-.365.3601v18.8136h-.367l-12.446-18.8136-.742-.3601h-3.297l-.367.3601v24.6038l.367.3623h2.93l.367-.3623v-18.8135h.376l12.446 18.8135z" fill="#0667d0" fill-rule="evenodd"/><path d="m645.186 90.3153h4.116v11.6847h1.585v-11.6847h4.117v-1.4062h-9.818zm14.625 11.8897c2.659 0 4.449-2.02 4.449-5.063 0-3.0681-1.79-5.088-4.449-5.088s-4.449 2.0199-4.449 5.088c0 3.043 1.79 5.063 4.449 5.063zm0-1.356c-2.02 0-2.941-1.7382-2.941-3.707 0-1.9687.921-3.7329 2.941-3.7329s2.94 1.7642 2.94 3.7329c0 1.9688-.92 3.707-2.94 3.707zm6.751 1.151h1.509v-3.6754l1.055-.978 3.675 4.6534h1.918l-4.456-5.625 4.149-4.1932h-1.867l-4.295 4.3722h-.179v-7.6449h-1.509zm13.504.205c1.994 0 3.451-.998 3.911-2.4806l-1.457-.4091c-.383 1.0227-1.272 1.5337-2.454 1.5337-1.771 0-2.992-1.1437-3.062-3.2467h7.127v-.6392c0-3.6563-2.173-4.9091-4.219-4.9091-2.659 0-4.423 2.0966-4.423 5.1136 0 3.0174 1.738 5.0374 4.577 5.0374zm-3.062-5.9067c.102-1.5277 1.182-2.8892 2.908-2.8892 1.636 0 2.685 1.2273 2.685 2.8892zm10.93-.2045c0-1.7131 1.061-2.6847 2.506-2.6847 1.4 0 2.25.9141 2.25 2.4545v6.1364h1.508v-6.2386c0-2.5057-1.336-3.7074-3.324-3.7074-1.482 0-2.403.6648-2.863 1.6619h-.128v-1.5341h-1.457v9.8182h1.508zm14.825-7.1847h-1.662l4.807 13.0909h1.636l4.807-13.0909h-1.662l-3.886 11.0199h-.154zm14.625 13.2959c1.994 0 3.452-.998 3.912-2.4806l-1.458-.4091c-.383 1.0227-1.272 1.5337-2.454 1.5337-1.771 0-2.992-1.1437-3.062-3.2467h7.127v-.6392c0-3.6563-2.173-4.9091-4.219-4.9091-2.659 0-4.423 2.0966-4.423 5.1136 0 3.0174 1.739 5.0374 4.577 5.0374zm-3.062-5.9067c.102-1.5277 1.183-2.8892 2.908-2.8892 1.637 0 2.685 1.2273 2.685 2.8892zm9.422 5.7017h1.508v-6.2131c0-1.3231 1.049-2.3011 2.481-2.3011.377 0 .658.0703.869.179l.511-1.2784c-.307-.2174-.709-.358-1.253-.358-1.188 0-2.205.6648-2.556 1.6364h-.103v-1.483h-1.457zm6.908 0h1.509v-9.8182h-1.509zm.767-11.429c.588 0 1.074-.4602 1.074-1.0227s-.486-1.0227-1.074-1.0227-1.074.4602-1.074 1.0227.486 1.0227 1.074 1.0227zm7.877 1.6108h-2.199v-.9971c0-.9716.409-1.483 1.406-1.483.435 0 .691.1023.844.1534l.435-1.304c-.231-.1022-.691-.2556-1.432-.2556-1.406 0-2.762.8437-2.762 2.5312v1.3551h-1.585v1.2784h1.585v8.5398h1.509v-8.5398h2.199zm2.114 9.8182h1.509v-9.8182h-1.509zm.767-11.429c.588 0 1.074-.4602 1.074-1.0227s-.486-1.0227-1.074-1.0227-1.074.4602-1.074 1.0227.486 1.0227 1.074 1.0227zm7.493 11.634c2.173 0 3.605-1.33 3.861-3.0686h-1.509c-.281 1.0736-1.176 1.7126-2.352 1.7126-1.79 0-2.94-1.4825-2.94-3.7581 0-2.2244 1.176-3.6818 2.94-3.6818 1.33 0 2.122.8182 2.352 1.7131h1.509c-.256-1.841-1.815-3.0682-3.886-3.0682-2.66 0-4.424 2.0966-4.424 5.088 0 2.94 1.688 5.063 4.449 5.063zm8.955.025c1.713 0 2.608-.92 2.915-1.56h.077v1.33h1.508v-6.4688c0-3.1193-2.377-3.4772-3.63-3.4772-1.483 0-3.171.5113-3.938 2.3011l1.432.5114c.332-.7159 1.119-1.483 2.557-1.483 1.387 0 2.071.7351 2.071 1.9943v.0512c0 .7287-.742.6648-2.531.8949-1.822.2365-3.81.6392-3.81 2.8892 0 1.9179 1.483 3.0169 3.349 3.0169zm.23-1.355c-1.201 0-2.071-.537-2.071-1.5852 0-1.1506 1.049-1.5086 2.225-1.662.639-.0767 2.352-.2556 2.608-.5625v1.3807c0 1.2273-.972 2.429-2.762 2.429zm11.294-8.6932h-2.097v-2.3523h-1.508v2.3523h-1.483v1.2784h1.483v6.1364c0 1.7134 1.38 2.5314 2.659 2.5314.562 0 .92-.102 1.125-.179l-.307-1.355c-.128.025-.333.076-.665.076-.665 0-1.304-.204-1.304-1.4825v-5.7273h2.097zm2.374 9.8182h1.509v-9.8182h-1.509zm.767-11.429c.588 0 1.074-.4602 1.074-1.0227s-.486-1.0227-1.074-1.0227-1.074.4602-1.074 1.0227.486 1.0227 1.074 1.0227zm7.493 11.634c2.659 0 4.449-2.02 4.449-5.063 0-3.0681-1.79-5.088-4.449-5.088s-4.448 2.0199-4.448 5.088c0 3.043 1.789 5.063 4.448 5.063zm0-1.356c-2.02 0-2.94-1.7382-2.94-3.707 0-1.9687.92-3.7329 2.94-3.7329s2.941 1.7642 2.941 3.7329c0 1.9688-.921 3.707-2.941 3.707zm8.261-4.7552c0-1.7131 1.061-2.6847 2.505-2.6847 1.4 0 2.25.9141 2.25 2.4545v6.1364h1.509v-6.2386c0-2.5057-1.336-3.7074-3.324-3.7074-1.483 0-2.404.6648-2.864 1.6619h-.128v-1.5341h-1.457v9.8182h1.509z" fill="#515762"/><path d="m670.305 192.159c2.568 0 4.045-2.176 4.045-5.977 0-3.773-1.5-5.977-4.045-5.977-2.546 0-4.046 2.204-4.046 5.977 0 3.801 1.478 5.977 4.046 5.977zm0-1.25c-1.693 0-2.682-1.699-2.682-4.727 0-3.023 1-4.75 2.682-4.75s2.682 1.727 2.682 4.75c0 3.028-.989 4.727-2.682 4.727zm7.227-7.636h-1.545l2.772 4.363-2.772 4.364h1.545l2.091-3.386 2.091 3.386h1.545l-2.818-4.364 2.818-4.363h-1.545l-2.091 3.568zm11.345 8.886c2.324 0 3.943-1.358 3.955-3.25-.012-1.471-.995-2.721-2.25-2.954v-.069c1.091-.284 1.806-1.352 1.818-2.591-.012-1.772-1.5-3.09-3.523-3.09-2.045 0-3.534 1.318-3.523 3.09-.011 1.239.705 2.307 1.819 2.591v.069c-1.279.233-2.262 1.483-2.25 2.954-.012 1.892 1.608 3.25 3.954 3.25zm0-1.25c-1.596 0-2.579-.818-2.568-2.068-.011-1.313 1.074-2.25 2.568-2.25 1.472 0 2.557.937 2.568 2.25-.011 1.25-.994 2.068-2.568 2.068zm0-5.523c-1.273 0-2.17-.795-2.159-2-.011-1.181.852-1.954 2.159-1.954 1.284 0 2.148.773 2.159 1.954-.011 1.205-.909 2-2.159 2zm9.769 6.773c2.216 0 3.841-1.636 3.841-3.864 0-2.255-1.569-3.909-3.705-3.909-.784 0-1.545.279-2.023.659h-.068l.409-3.431h4.864v-1.25h-6.046l-.704 5.727 1.318.159c.483-.347 1.307-.597 2.023-.591 1.483.011 2.568 1.136 2.568 2.659 0 1.494-1.046 2.591-2.477 2.591-1.194 0-2.142-.767-2.25-1.818h-1.364c.085 1.773 1.614 3.068 3.614 3.068zm9.734 0c2.216 0 3.841-1.636 3.841-3.864 0-2.255-1.568-3.909-3.705-3.909-.784 0-1.545.279-2.022.659h-.069l.41-3.431h4.863v-1.25h-6.045l-.705 5.727 1.318.159c.483-.347 1.307-.597 2.023-.591 1.483.011 2.568 1.136 2.568 2.659 0 1.494-1.045 2.591-2.477 2.591-1.193 0-2.142-.767-2.25-1.818h-1.364c.086 1.773 1.614 3.068 3.614 3.068zm6.303-.159h1.409v-5.205h5.045v-1.25h-5.045v-3.931h5.568v-1.25h-6.977zm9.639.091c.562 0 1.022-.46 1.022-1.023 0-.562-.46-1.023-1.022-1.023-.563 0-1.023.461-1.023 1.023 0 .563.46 1.023 1.023 1.023zm4.406 0c.562 0 1.023-.46 1.023-1.023 0-.562-.461-1.023-1.023-1.023-.563 0-1.023.461-1.023 1.023 0 .563.46 1.023 1.023 1.023zm4.406 0c.563 0 1.023-.46 1.023-1.023 0-.562-.46-1.023-1.023-1.023-.562 0-1.022.461-1.022 1.023 0 .563.46 1.023 1.022 1.023zm6.774.068c2.324 0 3.944-1.358 3.955-3.25-.011-1.471-.994-2.721-2.25-2.954v-.069c1.091-.284 1.807-1.352 1.818-2.591-.011-1.772-1.5-3.09-3.523-3.09-2.045 0-3.534 1.318-3.522 3.09-.012 1.239.704 2.307 1.818 2.591v.069c-1.279.233-2.262 1.483-2.25 2.954-.012 1.892 1.608 3.25 3.954 3.25zm0-1.25c-1.596 0-2.579-.818-2.568-2.068-.011-1.313 1.074-2.25 2.568-2.25 1.472 0 2.557.937 2.569 2.25-.012 1.25-.995 2.068-2.569 2.068zm0-5.523c-1.272 0-2.17-.795-2.159-2-.011-1.181.853-1.954 2.159-1.954 1.284 0 2.148.773 2.159 1.954-.011 1.205-.909 2-2.159 2zm6.132 6.614h7.341v-1.25h-5.409v-.091l2.614-2.795c2-2.142 2.591-3.142 2.591-4.432 0-1.796-1.455-3.227-3.5-3.227-2.04 0-3.591 1.386-3.591 3.431h1.341c0-1.324.858-2.204 2.204-2.204 1.262 0 2.228.773 2.228 2 0 1.074-.631 1.869-1.978 3.341l-3.841 4.204zm13.393-11.795c-2.364-.029-3.887 1.75-3.887 3.886 0 2.25 1.659 3.864 3.659 3.864 1.205 0 2.228-.591 2.864-1.546h.091c0 2.864-1.114 4.5-2.909 4.5-1.228 0-1.978-.773-2.228-1.841h-1.386c.273 1.841 1.659 3.091 3.614 3.091 2.613 0 4.227-2.318 4.227-6.454 0-4.273-2.136-5.478-4.045-5.5zm0 1.25c1.454 0 2.522 1.25 2.522 2.613 0 1.387-1.136 2.637-2.568 2.637s-2.477-1.16-2.477-2.614c0-1.455 1.091-2.636 2.523-2.636zm10.211 10.704c2.256 0 3.932-1.415 3.932-3.318 0-1.477-.875-2.551-2.341-2.796v-.09c1.176-.358 1.909-1.324 1.909-2.637 0-1.648-1.301-3.113-3.454-3.113-2.012 0-3.682 1.238-3.75 3.068h1.363c.051-1.159 1.154-1.841 2.364-1.841 1.284 0 2.114.778 2.114 1.954 0 1.228-.961 2.023-2.341 2.023h-.932v1.25h.932c1.767 0 2.75.898 2.75 2.182 0 1.233-1.074 2.068-2.569 2.068-1.346 0-2.414-.693-2.5-1.818h-1.431c.085 1.829 1.698 3.068 3.954 3.068z" fill="#9aa2af"/><path d="m686.886 150.364h-1.477l4.273 11.636h1.454l4.273-11.636h-1.477l-3.455 9.795h-.136zm13 11.818c1.773 0 3.069-.887 3.478-2.205l-1.296-.363c-.341.909-1.13 1.363-2.182 1.363-1.574 0-2.659-1.017-2.721-2.886h6.335v-.568c0-3.25-1.932-4.364-3.75-4.364-2.364 0-3.932 1.864-3.932 4.546 0 2.681 1.546 4.477 4.068 4.477zm-2.721-5.25c.091-1.358 1.051-2.568 2.585-2.568 1.455 0 2.386 1.091 2.386 2.568zm8.375 5.068h1.341v-5.523c0-1.182.931-2.045 2.204-2.045.358 0 .727.068.818.091v-1.364c-.153-.011-.505-.023-.704-.023-1.046 0-1.955.591-2.273 1.455h-.091v-1.318h-1.295zm5.953 0h1.341v-8.727h-1.341zm.682-10.182c.522 0 .954-.409.954-.909s-.432-.909-.954-.909c-.523 0-.955.409-.955.909s.432.909.955.909zm7.001 1.455h-1.954v-.887c0-.863.363-1.318 1.25-1.318.386 0 .613.091.75.137l.386-1.16c-.205-.09-.614-.227-1.273-.227-1.25 0-2.454.75-2.454 2.25v1.205h-1.409v1.136h1.409v7.591h1.341v-7.591h1.954zm2.743 12c1.21 0 2.063-.642 2.568-2l3.716-9.978-1.466-.022-2.409 6.954h-.091l-2.409-6.954h-1.454l3.227 8.772-.25.682c-.489 1.33-1.091 1.455-2.068 1.205l-.341 1.182c.136.068.522.159.977.159zm14.854-3.273h1.454l2.568-9.273h.091l2.569 9.273h1.454l3.182-11.636h-1.432l-2.432 9.477h-.113l-2.478-9.477h-1.591l-2.477 9.477h-.113l-2.432-9.477h-1.432zm14.647.205c1.523 0 2.319-.819 2.591-1.387h.069v1.182h1.34v-5.75c0-2.773-2.113-3.091-3.227-3.091-1.318 0-2.818.455-3.5 2.046l1.273.454c.295-.636.994-1.318 2.273-1.318 1.233 0 1.841.653 1.841 1.773v.045c0 .648-.66.591-2.25.796-1.62.21-3.387.568-3.387 2.568 0 1.704 1.318 2.682 2.977 2.682zm.205-1.205c-1.068 0-1.841-.477-1.841-1.409 0-1.023.932-1.341 1.977-1.477.569-.069 2.091-.228 2.319-.5v1.227c0 1.091-.864 2.159-2.455 2.159zm7.584-10.636h-1.341v11.636h1.341zm3.797 0h-1.341v11.636h1.341zm6.115 11.818c1.772 0 3.068-.887 3.477-2.205l-1.295-.363c-.341.909-1.131 1.363-2.182 1.363-1.574 0-2.659-1.017-2.722-2.886h6.335v-.568c0-3.25-1.931-4.364-3.75-4.364-2.363 0-3.931 1.864-3.931 4.546 0 2.681 1.545 4.477 4.068 4.477zm-2.722-5.25c.091-1.358 1.051-2.568 2.585-2.568 1.455 0 2.387 1.091 2.387 2.568zm12.171-3.659h-1.864v-2.091h-1.341v2.091h-1.318v1.136h1.318v5.455c0 1.522 1.227 2.25 2.364 2.25.5 0 .818-.091 1-.159l-.273-1.205c-.114.023-.295.068-.591.068-.591 0-1.159-.182-1.159-1.318v-5.091h1.864z" fill="#626b76"/><path d="m666.25 158.822-3.822-3.822-1.302 1.292 5.124 5.125 11-11-1.292-1.293z" fill="#267edc"/><path d="m1170.76 185.614c.52-.432 1.16-.728 2.23-.728 1.2 0 2.43.728 2.43 2.5 0 1.591-1.21 2.569-2.53 2.569-1.18 0-2-.614-2.22-1.864h-1.37c.21 2.136 1.66 3.068 3.5 3.068 2.5 0 3.96-1.568 3.96-3.795 0-2.273-1.5-3.75-3.77-3.75-.8 0-1.6.341-2.03.681h-.07l.48-3.59h4.87v-1.341h-6.14l-.68 5.954zm10.91.136h.66c1.41 0 2.43.705 2.43 2.091 0 1.409-1.05 2.114-2.34 2.114-1.3 0-2.02-.705-2.02-1.864h-1.46c0 2 1.46 3.068 3.5 3.068 2.07 0 3.8-1.227 3.8-3.318 0-1.029-.43-2.273-1.97-2.796 1.23-.596 1.72-1.789 1.72-2.613 0-2.114-1.48-3.227-3.5-3.227-2.23 0-3.44 1.363-3.44 3.068h1.35c0-1.137.81-1.955 2.06-1.955s2.14.796 2.14 2.091c0 1.114-.82 2.046-2.27 2.046h-.66zm13.73-6.386h-7.28v1.318h5.91l-4.81 10.318h1.54l4.64-10.182zm13.79 10.386h-5.71v-3.955h5.02v-1.25h-5.02v-3.931h5.62v-1.25h-7.03v11.636h7.12zm3.13-10.386h-1.66l3.75 5.818-3.75 5.818h1.66l3-4.75h.09l3 4.75h1.66l-3.66-5.818 3.66-5.818h-1.66l-3 4.841h-.09zm18.55 3.636c-.43-2.386-2.34-3.795-4.68-3.795-2.97 0-5.13 2.295-5.13 5.977s2.16 5.977 5.13 5.977c2.34 0 4.25-1.409 4.68-3.795h-1.4c-.35 1.613-1.73 2.477-3.28 2.477-2.11 0-3.77-1.636-3.77-4.659s1.66-4.659 3.77-4.659c1.55 0 2.93.863 3.28 2.477z" fill="#9aa2af"/><path d="m1167.94 154.148c-.39-2.489-2.34-3.943-4.8-3.943-3.02 0-5.24 2.255-5.24 5.977 0 3.721 2.21 5.977 5.24 5.977 2.55 0 4.42-1.602 4.8-3.903l-1.77-.006c-.3 1.489-1.55 2.307-3.02 2.307-2 0-3.5-1.529-3.5-4.375 0-2.824 1.5-4.375 3.5-4.375 1.49 0 2.73.835 3.02 2.341zm3.67 2.67c0-1.392.88-2.187 2.09-2.187 1.17 0 1.87.744 1.87 2.022v5.347h1.7v-5.551c0-2.176-1.2-3.29-2.99-3.29-1.36 0-2.18.591-2.59 1.534h-.11v-4.329h-1.67v11.636h1.7zm11.68 5.358c1.91 0 3.25-.937 3.64-2.358l-1.61-.29c-.3.824-1.04 1.245-2.01 1.245-1.45 0-2.43-.943-2.48-2.625h6.21v-.603c0-3.153-1.89-4.386-3.87-4.386-2.43 0-4.03 1.852-4.03 4.534 0 2.71 1.58 4.483 4.15 4.483zm-2.45-5.301c.07-1.239.97-2.313 2.35-2.313 1.31 0 2.18.978 2.18 2.313zm11.76 5.301c2.06 0 3.4-1.238 3.58-2.937h-1.65c-.21.943-.95 1.5-1.92 1.5-1.44 0-2.36-1.199-2.36-3.103 0-1.869.94-3.045 2.36-3.045 1.08 0 1.74.682 1.92 1.5h1.65c-.18-1.761-1.61-2.932-3.6-2.932-2.46 0-4.05 1.852-4.05 4.517 0 2.631 1.54 4.5 4.07 4.5zm5.4-.176h1.7v-3.097l.85-.846 2.96 3.943h2.09l-3.77-4.983 3.53-3.744h-2.03l-3.48 3.693h-.15v-6.602h-1.7zm13.28 0h4.46c2.7 0 3.92-1.347 3.92-3.131 0-1.801-1.26-2.818-2.41-2.88v-.114c1.07-.273 1.96-1 1.96-2.455 0-1.721-1.19-3.056-3.67-3.056h-4.26zm1.75-1.506v-3.727h2.6c1.41 0 2.29.909 2.29 2.017 0 .977-.66 1.71-2.35 1.71zm0-5.096v-3.54h2.4c1.39 0 2.06.733 2.06 1.699 0 1.125-.92 1.841-2.1 1.841zm11.12 6.795c1.44 0 2.26-.733 2.58-1.386h.07v1.193h1.66v-5.795c0-2.54-2-3.046-3.39-3.046-1.58 0-3.03.636-3.6 2.227l1.6.364c.25-.619.88-1.216 2.02-1.216 1.1 0 1.66.574 1.66 1.563v.039c0 .62-.63.608-2.2.79-1.66.193-3.35.625-3.35 2.608 0 1.716 1.29 2.659 2.95 2.659zm.37-1.363c-.96 0-1.65-.432-1.65-1.273 0-.909.8-1.233 1.79-1.364.55-.074 1.85-.221 2.1-.466v1.125c0 1.034-.83 1.978-2.24 1.978zm7.9-10.466h-1.7v11.636h1.7zm4.82 11.829c1.45 0 2.26-.733 2.58-1.386h.07v1.193h1.66v-5.795c0-2.54-2-3.046-3.39-3.046-1.57 0-3.03.636-3.6 2.227l1.6.364c.25-.619.89-1.216 2.03-1.216 1.09 0 1.66.574 1.66 1.563v.039c0 .62-.64.608-2.21.79-1.65.193-3.34.625-3.34 2.608 0 1.716 1.29 2.659 2.94 2.659zm.37-1.363c-.96 0-1.65-.432-1.65-1.273 0-.909.81-1.233 1.79-1.364.55-.074 1.86-.221 2.1-.466v1.125c0 1.034-.82 1.978-2.24 1.978zm7.9-4.012c0-1.392.86-2.187 2.04-2.187 1.15 0 1.85.755 1.85 2.022v5.347h1.7v-5.551c0-2.159-1.19-3.29-2.97-3.29-1.32 0-2.17.608-2.58 1.534h-.11v-1.42h-1.63v8.727h1.7zm11.54 5.358c2.07 0 3.4-1.238 3.59-2.937h-1.66c-.21.943-.94 1.5-1.92 1.5-1.43 0-2.36-1.199-2.36-3.103 0-1.869.94-3.045 2.36-3.045 1.08 0 1.74.682 1.92 1.5h1.66c-.18-1.761-1.62-2.932-3.6-2.932-2.46 0-4.06 1.852-4.06 4.517 0 2.631 1.54 4.5 4.07 4.5zm9.17 0c1.9 0 3.25-.937 3.63-2.358l-1.61-.29c-.3.824-1.04 1.245-2.01 1.245-1.45 0-2.43-.943-2.47-2.625h6.2v-.603c0-3.153-1.89-4.386-3.86-4.386-2.44 0-4.04 1.852-4.04 4.534 0 2.71 1.58 4.483 4.16 4.483zm-2.46-5.301c.07-1.239.97-2.313 2.35-2.313 1.32 0 2.18.978 2.19 2.313z" fill="#267edc"/><path d="m1138.25 158.822-3.82-3.822-1.3 1.292 5.12 5.125 11-11-1.29-1.293z" fill="#267edc"/><path d="m358.586 272h-2.859l4.156 16h3.148l2.938-10.898h.125l2.937 10.898h3.149l4.164-16h-2.867l-2.891 11.5h-.141l-2.976-11.5h-2.867l-2.985 11.477h-.133zm25.195 16h2.922v-8.055c0-3.047-2.328-4.101-4.711-4.101-2.555 0-4.531 1.195-5.086 3.406l2.852.414c.219-.812 1.039-1.453 2.156-1.453 1.055 0 1.734.601 1.734 1.672v.179c0 .633-1.093.672-2.156.79-3.039.281-4.828 1.445-4.828 3.765s1.774 3.625 3.906 3.625c1.688 0 2.657-.828 3.071-1.594h.14zm-.133-4c0 1.047-1.015 1.945-2.351 1.945-1 0-1.68-.508-1.68-1.367 0-1.039.727-1.523 2.164-1.687.547-.071 1.641-.227 1.867-.477zm8.709-12h-3.031v16h3.031zm5.565 0h-3.031v16h3.031zm7.994 16.227c3.117 0 4.68-1.766 5.117-3.415l-2.719-.734c-.32.891-.976 1.664-2.421 1.664-1.727 0-2.664-1.078-2.86-2.859h8.125v-1.274c0-3.851-2.32-5.765-5.367-5.765-3.594 0-5.687 2.648-5.687 6.312 0 3.75 2.21 6.071 5.812 6.071zm-.148-9.922c1.593 0 2.515 1.078 2.515 2.492h-5.164c.32-1.578 1.258-2.492 2.649-2.492zm13.328-2.305h-2.094v-2.562h-3.031v2.562h-1.492v2.25h1.492v6.539c0 2.109 1.578 3.367 3.398 3.367 1.11 0 1.867-.211 2.094-.304l-.477-2.336c-.203.054-.492.093-.773.093-.664 0-1.211-.164-1.211-1.281v-6.078h2.094zm18.777 9.406h-7.312v-4.117h6.273v-2.586h-6.273v-4.109h7.273v-2.594h-10.359v16h10.398zm5.389-13.406h-3.516l4.82 8-4.906 8h3.555l3.32-5.656h.125l3.32 5.656h3.555l-4.859-8 4.773-8h-3.515l-3.274 5.68h-.125zm24.174 5.023c-.782-3.343-3.383-5.242-6.586-5.242-4.071 0-7.063 3.071-7.063 8.242 0 5.149 2.992 8.196 7.063 8.196 3.203 0 5.781-1.875 6.57-5.18l-3.024-.336c-.468 1.813-1.843 2.727-3.546 2.727-2.305 0-3.977-1.68-3.977-5.407 0-3.734 1.672-5.453 3.977-5.453 1.703 0 3.117.93 3.586 2.789zm8.322-5.023v16h2.992v-1.422h.18c.406.828 1.351 1.633 2.945 1.633 2.68 0 4.773-2.195 4.773-6.203 0-4.055-2.179-6.164-4.781-6.164-1.601 0-2.531.82-2.937 1.64h-.141v-5.484zm8.008 10c0 2.242-.914 3.742-2.696 3.742-1.859 0-2.562-1.64-2.562-3.742 0-2.117.719-3.695 2.562-3.695 1.789 0 2.696 1.461 2.696 3.695zm11.734 6h2.922v-8.055c0-3.047-2.328-4.101-4.711-4.101-2.555 0-4.531 1.195-5.086 3.406l2.852.414c.218-.812 1.039-1.453 2.156-1.453 1.055 0 1.734.601 1.734 1.672v.179c0 .633-1.094.672-2.156.79-3.039.281-4.828 1.445-4.828 3.765s1.773 3.625 3.906 3.625c1.688 0 2.656-.828 3.07-1.594h.141zm-.133-4c0 1.047-1.015 1.945-2.351 1.945-1 0-1.68-.508-1.68-1.367 0-1.039.727-1.523 2.164-1.687.547-.071 1.641-.227 1.867-.477zm8.709-12h-3.031v16h3.031zm9.299 16h2.922v-8.055c0-3.047-2.328-4.101-4.711-4.101-2.555 0-4.531 1.195-5.086 3.406l2.852.414c.218-.812 1.039-1.453 2.156-1.453 1.055 0 1.734.601 1.734 1.672v.179c0 .633-1.094.672-2.156.79-3.039.281-4.828 1.445-4.828 3.765s1.773 3.625 3.906 3.625c1.688 0 2.656-.828 3.07-1.594h.141zm-.133-4c0 1.047-1.015 1.945-2.351 1.945-1 0-1.68-.508-1.68-1.367 0-1.039.727-1.523 2.164-1.687.547-.071 1.641-.227 1.867-.477zm8.709-2.602c0-1.867.852-3.054 2.203-3.054 1.149 0 2.008.812 2.008 2.242v7.414h3.039v-7.539c0-3.336-1.883-4.617-3.984-4.617-1.516 0-2.68.695-3.328 1.679h-.125v-1.523h-2.844v12h3.031zm20.026-1.57c-.438-2.422-2.407-3.984-5.133-3.984-3.438 0-5.578 2.539-5.578 6.156 0 3.648 2.117 6.227 5.586 6.227 2.703 0 4.625-1.563 5.101-3.852l-2.836-.406c-.304 1.078-1.062 1.773-2.265 1.773-1.805 0-2.68-1.492-2.68-3.742 0-2.227.891-3.695 2.68-3.695 1.328 0 2.023.812 2.304 1.945zm7.519 8.399c3.117 0 4.68-1.766 5.117-3.415l-2.718-.734c-.321.891-.977 1.664-2.422 1.664-1.727 0-2.664-1.078-2.86-2.859h8.125v-1.274c0-3.851-2.32-5.765-5.367-5.765-3.594 0-5.687 2.648-5.687 6.312 0 3.75 2.211 6.071 5.812 6.071zm-.148-9.922c1.593 0 2.515 1.078 2.515 2.492h-5.164c.321-1.578 1.258-2.492 2.649-2.492z" fill="#2b333f"/><path d="m355 312h40v4h-40z" fill="#267edc"/><path d="m361 448.5h723.5v234h-723.5c-3.038 0-5.5-2.462-5.5-5.5v-223c0-3.038 2.462-5.5 5.5-5.5z" fill="#f7f8f9" stroke="#cfd2d7"/><path d="m649.868 544.69c2.663-2.379 6.179-4.261 12.251-4.261 7.493 0 13.779 4.581 13.779 14.524 0 8.736-5.824 14.844-13.601 14.844-7.102 0-11.186-4.404-12.287-11.328h-10.831c.852 13.245 10.014 20.525 22.763 20.525 16.015 0 24.645-10.511 24.645-24.076 0-14.169-9.304-23.544-22.799-23.544-5.255 0-9.836 2.166-12.074 4.225h-.39l2.592-20.277h29.723v-10.049h-39.24l-4.261 37.18zm94.842-39.417h-46.911v9.978h35.405l-28.409 62.749h11.861l28.054-63.743zm26.758 40.944h5.291c8.132 0 13.743 3.658 13.743 11.861 0 7.529-5.611 11.719-13.104 11.719-7.209 0-11.648-4.084-11.648-10.476h-11.221c0 13.139 10.298 19.673 22.763 19.673 13.565 0 24.502-7.67 24.502-20.845 0-7.102-3.409-14.133-12.429-17.187 7.529-3.623 11.009-10.76 11.009-16.478 0-13.21-9.517-20.206-22.869-20.206-13.566 0-22.195 8.097-22.195 19.212h10.76c0-6.143 4.794-10.405 11.506-10.405 7.208 0 11.896 4.581 11.896 11.435 0 6.534-4.474 11.861-12.713 11.861h-5.291z" fill="#34b47e"/><path d="m710.98 607.438h-7.131v-4.944h6.278v-1.562h-6.278v-4.915h7.017v-1.562h-8.778v14.545h8.892zm4.413-12.983h-2.074l4.688 7.272-4.688 7.273h2.074l3.75-5.938h.114l3.75 5.938h2.073l-4.573-7.273 4.573-7.272h-2.073l-3.75 6.051h-.114zm23.696 4.545c-.54-2.983-2.926-4.744-5.852-4.744-3.722 0-6.421 2.869-6.421 7.471 0 4.603 2.699 7.472 6.421 7.472 2.926 0 5.312-1.761 5.852-4.744h-1.761c-.427 2.017-2.159 3.096-4.091 3.096-2.642 0-4.716-2.045-4.716-5.824 0-3.778 2.074-5.824 4.716-5.824 1.932 0 3.664 1.08 4.091 3.097z" fill="#626b76"/><path d="m356.894 425.818h-1.521l2.724 10.182h1.616l2.068-7.562h.08l2.068 7.562h1.616l2.719-10.182h-1.516l-1.999 7.835h-.089l-2.044-7.835h-1.595l-2.039 7.83h-.094zm16.392 10.182h1.501v-5.076c0-2.197-1.68-2.66-2.908-2.66-1.378 0-2.665.572-3.147 1.969l1.446.333c.199-.537.771-1.044 1.71-1.044.801 0 1.363.393 1.363 1.382v.065c0 .452-.816.447-1.691.552-1.665.179-3.012.711-3.012 2.316 0 1.487 1.138 2.327 2.545 2.327 1.213 0 1.869-.626 2.123-1.114h.07zm-.035-2.665c0 .826-.706 1.586-1.845 1.586-.795 0-1.357-.373-1.357-1.059 0-.79.651-1.079 1.566-1.193.428-.055 1.462-.174 1.636-.373zm4.98-7.517h-1.531v10.182h1.531zm3.336 0h-1.531v10.182h1.531zm5.215 10.336c1.755 0 2.829-.944 3.147-2.043l-1.412-.388c-.253.686-.81 1.129-1.74 1.129-1.253 0-1.993-.786-2.113-2.198h5.365v-.641c0-2.66-1.586-3.749-3.346-3.749-2.168 0-3.52 1.656-3.52 3.997 0 2.367 1.377 3.893 3.619 3.893zm-.104-6.592c1.153 0 1.859.825 1.859 1.934h-3.838c.204-1.228.935-1.934 1.979-1.934zm8.383-1.198h-1.491v-1.631h-1.532v1.631h-1.059v1.252h1.059v4.43c0 1.342 1.044 2.053 2.113 2.053.567 0 .94-.104 1.094-.164l-.273-1.257c-.11.024-.284.059-.503.059-.472 0-.899-.134-.899-.994v-4.127h1.491zm9.444 7.636c2.361 0 3.43-1.153 3.43-2.724 0-1.517-1.004-2.417-2.028-2.506v-.095c.949-.243 1.695-.85 1.695-2.127 0-1.537-1.059-2.73-3.296-2.73h-3.639v10.182zm-2.262-8.83h2.048c1.278 0 1.78.677 1.78 1.482 0 .974-.741 1.566-1.855 1.566h-1.973zm4.171 6.006c0 .84-.552 1.472-1.969 1.472h-2.202v-3.192h2.267c1.213 0 1.904.79 1.904 1.72zm7.6 2.824h1.501v-5.076c0-2.197-1.68-2.66-2.908-2.66-1.377 0-2.665.572-3.147 1.969l1.447.333c.199-.537.77-1.044 1.71-1.044.8 0 1.362.393 1.362 1.382v.065c0 .452-.815.447-1.69.552-1.666.179-3.013.711-3.013 2.316 0 1.487 1.139 2.327 2.546 2.327 1.213 0 1.869-.626 2.122-1.114h.07zm-.035-2.665c0 .826-.706 1.586-1.844 1.586-.796 0-1.357-.373-1.357-1.059 0-.79.651-1.079 1.566-1.193.427-.055 1.461-.174 1.635-.373zm4.981-7.517h-1.532v10.182h1.532zm6.333 10.182h1.502v-5.076c0-2.197-1.681-2.66-2.909-2.66-1.377 0-2.664.572-3.147 1.969l1.447.333c.199-.537.771-1.044 1.71-1.044.801 0 1.363.393 1.363 1.382v.065c0 .452-.816.447-1.691.552-1.665.179-3.013.711-3.013 2.316 0 1.487 1.139 2.327 2.546 2.327 1.213 0 1.869-.626 2.123-1.114h.069zm-.034-2.665c0 .826-.706 1.586-1.845 1.586-.795 0-1.357-.373-1.357-1.059 0-.79.651-1.079 1.566-1.193.427-.055 1.462-.174 1.636-.373zm4.98-1.705c0-1.318.83-2.014 1.7-2.014.86 0 1.487.617 1.487 1.636v4.748h1.526v-4.827c0-2.034-1.109-2.909-2.496-2.909-1.064 0-1.814.532-2.197 1.238h-.08v-1.138h-1.471v7.636h1.531zm12.885-.91c-.239-1.481-1.472-2.456-3.137-2.456-2.128 0-3.49 1.626-3.49 3.918 0 2.331 1.337 3.972 3.505 3.972 1.7 0 2.863-1.014 3.117-2.421l-1.477-.119c-.203.765-.795 1.238-1.64 1.238-1.278 0-2.014-1.059-2.014-2.67 0-1.586.746-2.62 2.014-2.62.944 0 1.476.576 1.655 1.287zm4.853 5.434c1.755 0 2.829-.944 3.147-2.043l-1.411-.388c-.254.686-.811 1.129-1.741 1.129-1.252 0-1.993-.786-2.112-2.198h5.364v-.641c0-2.66-1.586-3.749-3.346-3.749-2.168 0-3.52 1.656-3.52 3.997 0 2.367 1.377 3.893 3.619 3.893zm-.104-6.592c1.153 0 1.859.825 1.859 1.934h-3.838c.204-1.228.935-1.934 1.979-1.934z" fill="#2b333f"/><path d="m564.412 647h6.443v-1.322h-4.907v-3.118h4.514v-1.317h-4.514v-3.102h4.847v-1.323h-6.383zm9.802-10.182h-1.486v10.182h1.486zm2 10.182h1.487v-7.636h-1.487zm.751-8.815c.512 0 .939-.397.939-.885 0-.487-.427-.889-.939-.889-.517 0-.94.402-.94.889 0 .488.423.885.94.885zm5.937 11.838c1.944 0 3.445-.89 3.445-2.854v-7.805h-1.456v1.238h-.11c-.263-.473-.79-1.338-2.212-1.338-1.844 0-3.202 1.457-3.202 3.888 0 2.436 1.387 3.734 3.192 3.734 1.402 0 1.944-.791 2.212-1.278h.095v1.501c0 1.199-.82 1.716-1.949 1.716-1.238 0-1.72-.622-1.984-1.059l-1.277.527c.402.934 1.422 1.73 3.246 1.73zm-.015-4.37c-1.327 0-2.018-1.019-2.018-2.521 0-1.467.676-2.605 2.018-2.605 1.298 0 1.994 1.059 1.994 2.605 0 1.576-.711 2.521-1.994 2.521zm5.454 1.347h1.487v-7.636h-1.487zm.751-8.815c.512 0 .939-.397.939-.885 0-.487-.427-.889-.939-.889-.517 0-.94.402-.94.889 0 .488.423.885.94.885zm2.855 8.815h1.451v-1.188h.125c.268.487.815 1.337 2.207 1.337 1.85 0 3.192-1.481 3.192-3.952 0-2.476-1.362-3.933-3.207-3.933-1.417 0-1.929.865-2.192 1.338h-.09v-3.784h-1.486zm1.456-3.818c0-1.596.696-2.655 1.994-2.655 1.347 0 2.023 1.138 2.023 2.655 0 1.531-.696 2.699-2.023 2.699-1.278 0-1.994-1.093-1.994-2.699zm8.675-6.364h-1.487v10.182h1.487zm5.291 10.336c1.665 0 2.843-.82 3.181-2.063l-1.407-.254c-.268.721-.914 1.089-1.759 1.089-1.273 0-2.128-.825-2.168-2.297h5.429v-.527c0-2.759-1.651-3.838-3.381-3.838-2.128 0-3.53 1.621-3.53 3.968 0 2.371 1.382 3.922 3.635 3.922zm-2.148-4.638c.06-1.084.845-2.024 2.053-2.024 1.154 0 1.909.855 1.914 2.024zm14.343-3.152h-1.566v-1.83h-1.487v1.83h-1.118v1.193h1.118v4.509c-.005 1.387 1.054 2.058 2.228 2.033.472-.005.79-.094.964-.159l-.268-1.228c-.1.02-.284.065-.522.065-.483 0-.915-.159-.915-1.019v-4.201h1.566zm4.779 7.79c2.153 0 3.56-1.576 3.56-3.937 0-2.377-1.407-3.953-3.56-3.953s-3.56 1.576-3.56 3.953c0 2.361 1.407 3.937 3.56 3.937zm.005-1.248c-1.407 0-2.063-1.228-2.063-2.694 0-1.462.656-2.705 2.063-2.705 1.397 0 2.053 1.243 2.053 2.705 0 1.466-.656 2.694-2.053 2.694zm8.919 3.958h1.486v-4.052h.09c.268.487.815 1.337 2.207 1.337 1.85 0 3.192-1.481 3.192-3.952 0-2.476-1.362-3.933-3.207-3.933-1.417 0-1.929.865-2.192 1.338h-.124v-1.238h-1.452zm1.457-6.682c0-1.596.696-2.655 1.993-2.655 1.347 0 2.024 1.138 2.024 2.655 0 1.531-.696 2.699-2.024 2.699-1.278 0-1.993-1.093-1.993-2.699zm9.406 3.987c1.263 0 1.974-.641 2.257-1.213h.06v1.044h1.451v-5.071c0-2.222-1.75-2.665-2.963-2.665-1.382 0-2.655.557-3.152 1.949l1.397.318c.219-.542.776-1.064 1.775-1.064.96 0 1.452.502 1.452 1.368v.034c0 .542-.557.532-1.929.691-1.447.169-2.928.547-2.928 2.282 0 1.502 1.128 2.327 2.58 2.327zm.323-1.193c-.84 0-1.447-.378-1.447-1.114 0-.795.706-1.079 1.566-1.193.483-.065 1.626-.194 1.84-.408v.985c0 .905-.721 1.73-1.959 1.73zm5.425 1.024h1.487v-4.663c0-1 .77-1.721 1.824-1.721.309 0 .657.055.776.09v-1.422c-.149-.02-.443-.035-.632-.035-.894 0-1.66.507-1.938 1.328h-.08v-1.213h-1.437zm9.389-7.636h-1.566v-1.83h-1.487v1.83h-1.118v1.193h1.118v4.509c-.004 1.387 1.054 2.058 2.228 2.033.472-.005.79-.094.964-.159l-.268-1.228c-.1.02-.284.065-.522.065-.482 0-.915-.159-.915-1.019v-4.201h1.566zm1.644 7.636h1.487v-7.636h-1.487zm.751-8.815c.512 0 .94-.397.94-.885 0-.487-.428-.889-.94-.889-.517 0-.94.402-.94.889 0 .488.423.885.94.885zm5.952 8.969c1.805 0 2.973-1.084 3.137-2.57h-1.446c-.189.825-.831 1.312-1.681 1.312-1.258 0-2.068-1.049-2.068-2.714 0-1.636.825-2.665 2.068-2.665.945 0 1.522.597 1.681 1.313h1.446c-.159-1.542-1.416-2.566-3.152-2.566-2.152 0-3.544 1.621-3.544 3.953 0 2.301 1.342 3.937 3.559 3.937zm4.727-.154h1.487v-7.636h-1.487zm.751-8.815c.512 0 .939-.397.939-.885 0-.487-.427-.889-.939-.889-.517 0-.94.402-.94.889 0 .488.423.885.94.885zm2.735 11.679h1.487v-4.052h.089c.269.487.816 1.337 2.208 1.337 1.849 0 3.192-1.481 3.192-3.952 0-2.476-1.363-3.933-3.207-3.933-1.417 0-1.929.865-2.193 1.338h-.124v-1.238h-1.452zm1.457-6.682c0-1.596.696-2.655 1.994-2.655 1.347 0 2.023 1.138 2.023 2.655 0 1.531-.696 2.699-2.023 2.699-1.278 0-1.994-1.093-1.994-2.699zm9.406 3.987c1.263 0 1.974-.641 2.257-1.213h.06v1.044h1.452v-5.071c0-2.222-1.75-2.665-2.963-2.665-1.382 0-2.655.557-3.152 1.949l1.397.318c.219-.542.775-1.064 1.775-1.064.959 0 1.451.502 1.451 1.368v.034c0 .542-.556.532-1.929.691-1.446.169-2.928.547-2.928 2.282 0 1.502 1.129 2.327 2.58 2.327zm.323-1.193c-.84 0-1.446-.378-1.446-1.114 0-.795.706-1.079 1.566-1.193.482-.065 1.626-.194 1.839-.408v.985c0 .905-.721 1.73-1.959 1.73zm8.99-6.612h-1.566v-1.83h-1.486v1.83h-1.119v1.193h1.119v4.509c-.005 1.387 1.054 2.058 2.227 2.033.472-.005.791-.094.965-.159l-.269-1.228c-.099.02-.283.065-.522.065-.482 0-.915-.159-.915-1.019v-4.201h1.566zm4.854 7.79c1.665 0 2.844-.82 3.182-2.063l-1.407-.254c-.269.721-.915 1.089-1.76 1.089-1.273 0-2.128-.825-2.168-2.297h5.429v-.527c0-2.759-1.65-3.838-3.381-3.838-2.127 0-3.529 1.621-3.529 3.968 0 2.371 1.382 3.922 3.634 3.922zm-2.148-4.638c.06-1.084.845-2.024 2.053-2.024 1.154 0 1.91.855 1.914 2.024zm10.779 4.484h1.486v-7.636h-1.486zm.75-8.815c.512 0 .94-.397.94-.885 0-.487-.428-.889-.94-.889-.517 0-.939.402-.939.889 0 .488.422.885.939.885zm4.222 4.281c0-1.218.746-1.914 1.78-1.914 1.009 0 1.621.661 1.621 1.77v4.678h1.486v-4.857c0-1.889-1.039-2.879-2.6-2.879-1.148 0-1.899.532-2.252 1.343h-.094v-1.243h-1.427v7.636h1.486zm10.705 4.534h6.444v-1.322h-4.907v-3.118h4.514v-1.317h-4.514v-3.102h4.847v-1.323h-6.384zm9.49-7.636h-1.631l2.347 3.818-2.377 3.818h1.631l1.715-2.854 1.721 2.854h1.625l-2.401-3.818 2.381-3.818h-1.625l-1.701 2.973zm6.538 7.636h1.486v-7.636h-1.486zm.75-8.815c.512 0 .94-.397.94-.885 0-.487-.428-.889-.94-.889-.517 0-.939.402-.939.889 0 .488.422.885.939.885zm2.736 8.815h1.486v-4.708c0-1.029.721-1.745 1.567-1.745.825 0 1.397.547 1.397 1.377v5.076h1.481v-4.867c0-.92.562-1.586 1.531-1.586.786 0 1.432.437 1.432 1.471v4.982h1.487v-5.121c0-1.745-.975-2.615-2.357-2.615-1.099 0-1.924.527-2.292 1.343h-.079c-.333-.836-1.034-1.343-2.054-1.343-1.009 0-1.76.502-2.078 1.343h-.094v-1.243h-1.427zm15.59.154c1.804 0 2.973-1.084 3.137-2.57h-1.447c-.189.825-.83 1.312-1.68 1.312-1.258 0-2.069-1.049-2.069-2.714 0-1.636.826-2.665 2.069-2.665.944 0 1.521.597 1.68 1.313h1.447c-.159-1.542-1.417-2.566-3.152-2.566-2.153 0-3.545 1.621-3.545 3.953 0 2.301 1.342 3.937 3.56 3.937zm6.213-4.688c0-1.218.77-1.914 1.829-1.914 1.025 0 1.636.651 1.636 1.77v4.678h1.487v-4.857c0-1.904-1.044-2.879-2.615-2.879-1.189 0-1.905.517-2.263 1.343h-.094v-3.789h-1.467v10.182h1.487zm9.158 4.703c1.262 0 1.973-.641 2.257-1.213h.059v1.044h1.452v-5.071c0-2.222-1.75-2.665-2.963-2.665-1.382 0-2.655.557-3.152 1.949l1.397.318c.219-.542.776-1.064 1.775-1.064.959 0 1.452.502 1.452 1.368v.034c0 .542-.557.532-1.929.691-1.447.169-2.929.547-2.929 2.282 0 1.502 1.129 2.327 2.581 2.327zm.323-1.193c-.84 0-1.447-.378-1.447-1.114 0-.795.706-1.079 1.566-1.193.482-.065 1.626-.194 1.84-.408v.985c0 .905-.721 1.73-1.959 1.73zm5.425 1.024h1.486v-7.636h-1.486zm.751-8.815c.512 0 .939-.397.939-.885 0-.487-.427-.889-.939-.889-.517 0-.94.402-.94.889 0 .488.423.885.94.885zm4.222 4.281c0-1.218.746-1.914 1.78-1.914 1.009 0 1.62.661 1.62 1.77v4.678h1.487v-4.857c0-1.889-1.039-2.879-2.6-2.879-1.149 0-1.899.532-2.252 1.343h-.095v-1.243h-1.427v7.636h1.487zm17.595-2.431h1.576c-.343-1.984-2.038-3.356-4.235-3.356-2.635 0-4.559 1.984-4.559 5.235 0 3.222 1.869 5.225 4.628 5.225 2.471 0 4.236-1.621 4.236-4.191v-1.158h-4.002v1.268h2.516c-.035 1.64-1.119 2.679-2.75 2.679-1.794 0-3.102-1.357-3.102-3.833 0-2.466 1.317-3.823 3.043-3.823 1.352 0 2.267.746 2.649 1.954zm6.694 7.119c2.152 0 3.559-1.576 3.559-3.937 0-2.377-1.407-3.953-3.559-3.953-2.153 0-3.56 1.576-3.56 3.953 0 2.361 1.407 3.937 3.56 3.937zm.004-1.248c-1.406 0-2.063-1.228-2.063-2.694 0-1.462.657-2.705 2.063-2.705 1.397 0 2.054 1.243 2.054 2.705 0 1.466-.657 2.694-2.054 2.694zm11.474-6.542h-1.596l-1.929 5.876h-.08l-1.934-5.876h-1.596l2.775 7.636h1.59zm4.414 7.79c1.666 0 2.844-.82 3.182-2.063l-1.407-.254c-.268.721-.914 1.089-1.76 1.089-1.272 0-2.127-.825-2.167-2.297h5.429v-.527c0-2.759-1.651-3.838-3.381-3.838-2.128 0-3.53 1.621-3.53 3.968 0 2.371 1.382 3.922 3.634 3.922zm-2.147-4.638c.059-1.084.845-2.024 2.053-2.024 1.153 0 1.909.855 1.914 2.024zm7.073 4.484h1.487v-4.663c0-1 .77-1.721 1.824-1.721.308 0 .656.055.776.09v-1.422c-.149-.02-.443-.035-.632-.035-.895 0-1.66.507-1.939 1.328h-.079v-1.213h-1.437zm6.86-4.534c0-1.218.745-1.914 1.779-1.914 1.01 0 1.621.661 1.621 1.77v4.678h1.487v-4.857c0-1.889-1.039-2.879-2.6-2.879-1.149 0-1.9.532-2.253 1.343h-.094v-1.243h-1.427v7.636h1.487zm9.103 4.703c1.262 0 1.973-.641 2.257-1.213h.059v1.044h1.452v-5.071c0-2.222-1.75-2.665-2.963-2.665-1.382 0-2.655.557-3.152 1.949l1.397.318c.219-.542.776-1.064 1.775-1.064.959 0 1.452.502 1.452 1.368v.034c0 .542-.557.532-1.929.691-1.447.169-2.929.547-2.929 2.282 0 1.502 1.129 2.327 2.581 2.327zm.323-1.193c-.84 0-1.447-.378-1.447-1.114 0-.795.706-1.079 1.566-1.193.482-.065 1.626-.194 1.84-.408v.985c0 .905-.721 1.73-1.959 1.73zm6.911-3.51c0-1.218.746-1.914 1.78-1.914 1.01 0 1.621.661 1.621 1.77v4.678h1.487v-4.857c0-1.889-1.04-2.879-2.601-2.879-1.148 0-1.899.532-2.252 1.343h-.094v-1.243h-1.427v7.636h1.486zm10.098 4.688c1.804 0 2.973-1.084 3.137-2.57h-1.447c-.189.825-.83 1.312-1.68 1.312-1.258 0-2.068-1.049-2.068-2.714 0-1.636.825-2.665 2.068-2.665.944 0 1.521.597 1.68 1.313h1.447c-.159-1.542-1.417-2.566-3.152-2.566-2.153 0-3.545 1.621-3.545 3.953 0 2.301 1.342 3.937 3.56 3.937zm8.018 0c1.665 0 2.843-.82 3.182-2.063l-1.407-.254c-.269.721-.915 1.089-1.76 1.089-1.273 0-2.128-.825-2.168-2.297h5.429v-.527c0-2.759-1.651-3.838-3.381-3.838-2.128 0-3.53 1.621-3.53 3.968 0 2.371 1.383 3.922 3.635 3.922zm-2.148-4.638c.06-1.084.845-2.024 2.053-2.024 1.154 0 1.909.855 1.914 2.024z" fill="#34b47e"/><path d="m356.886 350 1.171-3.295h4.704l1.171 3.295h1.477l-4.273-11.636h-1.454l-4.273 11.636zm1.614-4.545 1.864-5.25h.091l1.863 5.25zm11.835 4.727c1.682 0 2.25-1.046 2.546-1.523h.159v1.341h1.295v-11.636h-1.341v4.295h-.113c-.296-.454-.819-1.5-2.523-1.5-2.205 0-3.727 1.75-3.727 4.5 0 2.773 1.522 4.523 3.704 4.523zm.182-1.205c-1.682 0-2.545-1.477-2.545-3.341 0-1.841.84-3.272 2.545-3.272 1.636 0 2.5 1.318 2.5 3.272 0 1.978-.886 3.341-2.5 3.341zm9.756 1.205c1.682 0 2.25-1.046 2.545-1.523h.159v1.341h1.296v-11.636h-1.341v4.295h-.114c-.295-.454-.818-1.5-2.523-1.5-2.204 0-3.727 1.75-3.727 4.5 0 2.773 1.523 4.523 3.705 4.523zm.182-1.205c-1.682 0-2.546-1.477-2.546-3.341 0-1.841.841-3.272 2.546-3.272 1.636 0 2.5 1.318 2.5 3.272 0 1.978-.887 3.341-2.5 3.341zm6.46 1.023h1.341v-5.523c0-1.182.932-2.045 2.204-2.045.358 0 .728.068.818.091v-1.364c-.153-.011-.505-.023-.704-.023-1.046 0-1.955.591-2.273 1.455h-.091v-1.318h-1.295zm9.346.182c1.773 0 3.069-.887 3.478-2.205l-1.296-.363c-.341.909-1.131 1.363-2.182 1.363-1.573 0-2.659-1.017-2.721-2.886h6.335v-.568c0-3.25-1.932-4.364-3.75-4.364-2.364 0-3.932 1.864-3.932 4.546 0 2.681 1.546 4.477 4.068 4.477zm-2.721-5.25c.091-1.358 1.051-2.568 2.585-2.568 1.455 0 2.386 1.091 2.386 2.568zm14.557-1.705c-.421-1.238-1.364-2.068-3.091-2.068-1.841 0-3.205 1.046-3.205 2.523 0 1.204.716 2.011 2.318 2.386l1.455.341c.881.205 1.295.625 1.295 1.227 0 .75-.795 1.364-2.045 1.364-1.097 0-1.784-.472-2.023-1.409l-1.273.318c.313 1.483 1.534 2.273 3.319 2.273 2.028 0 3.409-1.108 3.409-2.614 0-1.216-.762-1.983-2.318-2.363l-1.296-.319c-1.034-.255-1.5-.602-1.5-1.272 0-.75.796-1.296 1.864-1.296 1.17 0 1.653.648 1.886 1.25zm8.359 0c-.42-1.238-1.364-2.068-3.091-2.068-1.841 0-3.204 1.046-3.204 2.523 0 1.204.715 2.011 2.318 2.386l1.454.341c.881.205 1.296.625 1.296 1.227 0 .75-.796 1.364-2.046 1.364-1.096 0-1.784-.472-2.022-1.409l-1.273.318c.312 1.483 1.534 2.273 3.318 2.273 2.028 0 3.409-1.108 3.409-2.614 0-1.216-.761-1.983-2.318-2.363l-1.296-.319c-1.034-.255-1.5-.602-1.5-1.272 0-.75.796-1.296 1.864-1.296 1.171 0 1.653.648 1.886 1.25zm431.597 1.523c0-1.523.971-2.386 2.295-2.386 1.261 0 2.023.795 2.023 2.181v5.455h1.341v-5.545c0-2.245-1.194-3.296-2.978-3.296-1.375 0-2.159.574-2.568 1.477h-.113v-4.272h-1.341v11.636h1.341zm10.68 5.455c1.523 0 2.318-.819 2.591-1.387h.068v1.182h1.341v-5.75c0-2.773-2.114-3.091-3.227-3.091-1.318 0-2.818.455-3.5 2.046l1.272.454c.296-.636.995-1.318 2.273-1.318 1.233 0 1.841.653 1.841 1.773v.045c0 .648-.659.591-2.25.796-1.619.21-3.386.568-3.386 2.568 0 1.704 1.318 2.682 2.977 2.682zm.205-1.205c-1.069 0-1.841-.477-1.841-1.409 0-1.023.931-1.341 1.977-1.477.568-.069 2.091-.228 2.318-.5v1.227c0 1.091-.864 2.159-2.454 2.159zm12.424-5.773c-.42-1.238-1.363-2.068-3.091-2.068-1.841 0-3.204 1.046-3.204 2.523 0 1.204.716 2.011 2.318 2.386l1.454.341c.881.205 1.296.625 1.296 1.227 0 .75-.796 1.364-2.046 1.364-1.096 0-1.784-.472-2.022-1.409l-1.273.318c.313 1.483 1.534 2.273 3.318 2.273 2.029 0 3.409-1.108 3.409-2.614 0-1.216-.761-1.983-2.318-2.363l-1.295-.319c-1.034-.255-1.5-.602-1.5-1.272 0-.75.795-1.296 1.863-1.296 1.171 0 1.654.648 1.887 1.25zm6.86 6.773h1.295v-1.341h.159c.296.477.864 1.523 2.546 1.523 2.181 0 3.704-1.75 3.704-4.523 0-2.75-1.523-4.5-3.727-4.5-1.705 0-2.227 1.046-2.523 1.5h-.114v-4.295h-1.34zm1.318-4.364c0-1.954.863-3.272 2.5-3.272 1.704 0 2.545 1.431 2.545 3.272 0 1.864-.863 3.341-2.545 3.341-1.614 0-2.5-1.363-2.5-3.341zm12.096 4.546c1.773 0 3.069-.887 3.478-2.205l-1.296-.363c-.341.909-1.13 1.363-2.182 1.363-1.574 0-2.659-1.017-2.721-2.886h6.335v-.568c0-3.25-1.932-4.364-3.75-4.364-2.364 0-3.932 1.864-3.932 4.546 0 2.681 1.546 4.477 4.068 4.477zm-2.721-5.25c.091-1.358 1.051-2.568 2.585-2.568 1.455 0 2.386 1.091 2.386 2.568zm12.034 5.25c1.773 0 3.068-.887 3.477-2.205l-1.295-.363c-.341.909-1.131 1.363-2.182 1.363-1.574 0-2.659-1.017-2.722-2.886h6.335v-.568c0-3.25-1.931-4.364-3.75-4.364-2.363 0-3.931 1.864-3.931 4.546 0 2.681 1.545 4.477 4.068 4.477zm-2.722-5.25c.091-1.358 1.051-2.568 2.585-2.568 1.455 0 2.387 1.091 2.387 2.568zm9.716-.182c0-1.523.943-2.386 2.227-2.386 1.245 0 2 .812 2 2.181v5.455h1.341v-5.545c0-2.228-1.187-3.296-2.954-3.296-1.318 0-2.137.591-2.546 1.477h-.113v-1.363h-1.296v8.727h1.341zm12.519 8.523h1.341v-4.614h.113c.296.477.864 1.523 2.546 1.523 2.181 0 3.704-1.75 3.704-4.523 0-2.75-1.523-4.5-3.727-4.5-1.705 0-2.227 1.046-2.523 1.5h-.159v-1.386h-1.295zm1.318-7.637c0-1.954.863-3.272 2.5-3.272 1.704 0 2.545 1.431 2.545 3.272 0 1.864-.863 3.341-2.545 3.341-1.614 0-2.5-1.363-2.5-3.341zm11 4.569c1.523 0 2.318-.819 2.591-1.387h.068v1.182h1.341v-5.75c0-2.773-2.114-3.091-3.227-3.091-1.319 0-2.819.455-3.5 2.046l1.272.454c.296-.636.995-1.318 2.273-1.318 1.233 0 1.841.653 1.841 1.773v.045c0 .648-.659.591-2.25.796-1.619.21-3.386.568-3.386 2.568 0 1.704 1.318 2.682 2.977 2.682zm.204-1.205c-1.068 0-1.841-.477-1.841-1.409 0-1.023.932-1.341 1.978-1.477.568-.069 2.091-.228 2.318-.5v1.227c0 1.091-.864 2.159-2.455 2.159zm6.243 1h1.341v-8.727h-1.341zm.682-10.182c.523 0 .955-.409.955-.909s-.432-.909-.955-.909-.954.409-.954.909.431.909.954.909zm3.115 10.182h1.341v-5.523c0-1.182.932-2.045 2.205-2.045.358 0 .727.068.818.091v-1.364c-.154-.011-.506-.023-.705-.023-1.045 0-1.954.591-2.272 1.455h-.091v-1.318h-1.296zm9.347.182c1.772 0 3.068-.887 3.477-2.205l-1.295-.363c-.341.909-1.131 1.363-2.182 1.363-1.574 0-2.659-1.017-2.722-2.886h6.335v-.568c0-3.25-1.931-4.364-3.75-4.364-2.363 0-3.931 1.864-3.931 4.546 0 2.681 1.545 4.477 4.068 4.477zm-2.722-5.25c.091-1.358 1.051-2.568 2.585-2.568 1.455 0 2.387 1.091 2.387 2.568zm11.671 5.25c1.681 0 2.25-1.046 2.545-1.523h.159v1.341h1.296v-11.636h-1.341v4.295h-.114c-.295-.454-.818-1.5-2.523-1.5-2.204 0-3.727 1.75-3.727 4.5 0 2.773 1.523 4.523 3.705 4.523zm.181-1.205c-1.681 0-2.545-1.477-2.545-3.341 0-1.841.841-3.272 2.545-3.272 1.637 0 2.5 1.318 2.5 3.272 0 1.978-.886 3.341-2.5 3.341zm12.938 1.023h1.318l1.909-6.705h.137l1.909 6.705h1.318l2.659-8.727h-1.409l-1.887 6.659h-.09l-1.841-6.659h-1.432l-1.864 6.682h-.091l-1.886-6.682h-1.409zm11.023 0h1.341v-8.727h-1.341zm.681-10.182c.523 0 .955-.409.955-.909s-.432-.909-.955-.909c-.522 0-.954.409-.954.909s.432.909.954.909zm6.911 1.455h-1.864v-2.091h-1.341v2.091h-1.318v1.136h1.318v5.455c0 1.522 1.228 2.25 2.364 2.25.5 0 .818-.091 1-.159l-.273-1.205c-.113.023-.295.068-.591.068-.59 0-1.159-.182-1.159-1.318v-5.091h1.864zm3.545 3.477c0-1.523.972-2.386 2.296-2.386 1.265 0 2.025.795 2.025 2.181v5.455h1.34v-5.545c0-2.245-1.19-3.296-2.979-3.296-1.375 0-2.159.574-2.568 1.477h-.114v-4.272h-1.34v11.636h1.34z" fill="#626b76"/><path d="m427.412 350.256c2.926 0 4.693-2.228 4.699-6.063.005-3.807-1.784-5.988-4.699-5.988-2.921 0-4.693 2.176-4.699 5.988-.011 3.824 1.767 6.057 4.699 6.063zm0-2.04c-1.335 0-2.199-1.341-2.193-4.023.005-2.642.863-3.971 2.193-3.971 1.324 0 2.187 1.329 2.187 3.971.006 2.682-.858 4.023-2.187 4.023zm8.499-6.943h-2.5l2.5 4.363-2.591 4.364h2.5l1.693-3.017 1.721 3.017h2.472l-2.597-4.364 2.529-4.363h-2.483l-1.642 3.051zm11.482 8.886c2.625 0 4.512-1.403 4.518-3.29-.006-1.454-1.125-2.642-2.523-2.875v-.079c1.216-.25 2.085-1.301 2.091-2.58-.006-1.801-1.733-3.13-4.086-3.13-2.357 0-4.085 1.329-4.079 3.13-.006 1.273.852 2.33 2.091 2.58v.079c-1.421.233-2.529 1.421-2.523 2.875-.006 1.887 1.886 3.29 4.511 3.29zm0-1.807c-1.17 0-1.954-.693-1.954-1.676 0-1.006.824-1.733 1.954-1.733 1.125 0 1.955.727 1.955 1.733 0 .989-.79 1.676-1.955 1.676zm0-5.199c-.982 0-1.681-.642-1.681-1.562 0-.909.687-1.534 1.681-1.534.989 0 1.682.631 1.682 1.534 0 .92-.704 1.562-1.682 1.562zm10.488 7.006c2.591 0 4.352-1.687 4.346-4.04.006-2.227-1.551-3.829-3.647-3.829-1.023 0-1.904.426-2.313 1h-.068l.301-2.915h5.085v-2.011h-7.113l-.552 6.136 2.188.392c.358-.483 1.051-.784 1.739-.784 1.17.006 2.011.852 2.011 2.074 0 1.21-.824 2.045-1.977 2.045-.978 0-1.767-.613-1.824-1.517h-2.387c.046 2.012 1.802 3.449 4.211 3.449zm10.312 0c2.591 0 4.352-1.687 4.347-4.04.005-2.227-1.551-3.829-3.648-3.829-1.023 0-1.903.426-2.312 1h-.069l.301-2.915h5.086v-2.011h-7.114l-.551 6.136 2.187.392c.358-.483 1.052-.784 1.739-.784 1.171.006 2.011.852 2.011 2.074 0 1.21-.823 2.045-1.977 2.045-.977 0-1.767-.613-1.824-1.517h-2.386c.045 2.012 1.801 3.449 4.21 3.449zm6.131-.159h2.46v-4.807h4.733v-2.028h-4.733v-2.773h5.244v-2.028h-7.704zm14.354-11.636h-2.313l-2.881 1.824v2.181l2.665-1.67h.068v9.301h2.461zm4.839 11.636.864-2.653h4.199l.863 2.653h2.637l-4.012-11.636h-3.17l-4.017 11.636zm1.489-4.574 1.432-4.403h.09l1.432 4.403zm12 4.744c2.159 0 3.613-1.051 3.954-2.67l-2.238-.148c-.245.665-.87 1.012-1.677 1.012-1.21 0-1.977-.802-1.977-2.103v-.005h5.943v-.665c0-2.966-1.795-4.432-4.102-4.432-2.568 0-4.233 1.824-4.233 4.517 0 2.767 1.642 4.494 4.33 4.494zm-1.938-5.414c.051-.995.807-1.79 1.881-1.79 1.051 0 1.778.75 1.784 1.79zm7.523 5.244h2.42v-8.727h-2.42zm1.216-9.852c.721 0 1.312-.551 1.312-1.228 0-.67-.591-1.221-1.312-1.221-.716 0-1.307.551-1.307 1.221 0 .677.591 1.228 1.307 1.228zm2.944 7.807h5.586v2.045h2.352v-2.045h1.443v-1.972h-1.443v-7.619h-3.08l-4.858 7.653zm5.631-1.972h-3.153v-.091l3.062-4.847h.091zm5.389 4.017h8.296v-2.011h-4.887v-.08l1.699-1.665c2.392-2.182 3.034-3.272 3.034-4.596 0-2.017-1.647-3.443-4.142-3.443-2.443 0-4.119 1.46-4.113 3.744h2.335c-.006-1.114.699-1.796 1.761-1.796 1.023 0 1.784.637 1.784 1.659 0 .927-.568 1.563-1.625 2.58l-4.142 3.835zm14.641.256c2.926 0 4.693-2.228 4.699-6.063.005-3.807-1.784-5.988-4.699-5.988-2.921 0-4.693 2.176-4.699 5.988-.011 3.824 1.767 6.057 4.699 6.063zm0-2.04c-1.335 0-2.199-1.341-2.193-4.023.005-2.642.863-3.971 2.193-3.971 1.324 0 2.187 1.329 2.187 3.971.006 2.682-.858 4.023-2.187 4.023zm10.754 1.943c2.614 0 4.483-1.437 4.477-3.426.006-1.449-.914-2.483-2.625-2.699v-.091c1.302-.233 2.199-1.153 2.194-2.46.005-1.835-1.603-3.278-4.012-3.278-2.386 0-4.182 1.397-4.216 3.409h2.358c.029-.887.841-1.461 1.847-1.461.994 0 1.659.603 1.653 1.478.006.914-.772 1.534-1.892 1.534h-1.085v1.807h1.085c1.318 0 2.142.659 2.137 1.596.005.926-.79 1.563-1.915 1.563-1.085 0-1.898-.569-1.943-1.421h-2.478c.04 2.034 1.858 3.449 4.415 3.449zm11.308-11.795h-2.312l-2.881 1.824v2.181l2.665-1.67h.068v9.301h2.46zm7.482 2.909h-1.733v-.585c0-.591.239-.938.949-.938.29 0 .585.062.778.125l.426-1.818c-.301-.091-.965-.239-1.71-.239-1.642 0-2.863.926-2.863 2.824v.631h-1.233v1.818h1.233v6.909h2.42v-6.909h1.733zm5.666-3.068c-2.602-.012-4.358 1.693-4.346 4.034.005 2.17 1.511 3.744 3.573 3.744 1.279 0 2.415-.619 2.932-1.642h.08c-.006 2.307-.807 3.71-2.324 3.71-.892 0-1.534-.489-1.722-1.335h-2.426c.227 1.96 1.818 3.443 4.148 3.443 2.881 0 4.739-2.329 4.733-6.278-.006-4.216-2.256-5.665-4.648-5.676zm.017 1.931c1.131 0 1.966.921 1.977 2.029.006 1.113-.875 2.034-2 2.034-1.136 0-1.948-.887-1.954-2.029-.011-1.136.835-2.034 1.977-2.034zm10.637 10.023c2.613 0 4.483-1.437 4.477-3.426.006-1.449-.915-2.483-2.625-2.699v-.091c1.301-.233 2.199-1.153 2.193-2.46.006-1.835-1.602-3.278-4.011-3.278-2.387 0-4.182 1.397-4.216 3.409h2.358c.028-.887.841-1.461 1.846-1.461.995 0 1.659.603 1.654 1.478.005.914-.773 1.534-1.892 1.534h-1.086v1.807h1.086c1.318 0 2.142.659 2.136 1.596.006.926-.79 1.563-1.915 1.563-1.085 0-1.897-.569-1.943-1.421h-2.477c.04 2.034 1.858 3.449 4.415 3.449zm6.313-.159h7.864v-2.028h-5.403v-2.779h4.977v-2.028h-4.977v-2.773h5.38v-2.028h-7.841zm11.803 0 .864-2.653h4.199l.863 2.653h2.637l-4.012-11.636h-3.17l-4.017 11.636zm1.489-4.574 1.431-4.403h.091l1.432 4.403zm8.474 4.574h7.864v-2.028h-5.404v-2.779h4.978v-2.028h-4.978v-2.773h5.381v-2.028h-7.841zm10.189 0h2.54l4.829-9.597v-2.039h-8.164v2.011h5.619v.08zm13.091.159c2.614 0 4.483-1.437 4.477-3.426.006-1.449-.915-2.483-2.625-2.699v-.091c1.301-.233 2.199-1.153 2.193-2.46.006-1.835-1.602-3.278-4.011-3.278-2.386 0-4.182 1.397-4.216 3.409h2.358c.028-.887.841-1.461 1.847-1.461.994 0 1.659.603 1.653 1.478.006.914-.773 1.534-1.892 1.534h-1.085v1.807h1.085c1.318 0 2.142.659 2.136 1.596.006.926-.789 1.563-1.914 1.563-1.086 0-1.898-.569-1.944-1.421h-2.477c.04 2.034 1.858 3.449 4.415 3.449zm10.808.097c2.926 0 4.693-2.228 4.699-6.063.006-3.807-1.784-5.988-4.699-5.988-2.92 0-4.693 2.176-4.699 5.988-.011 3.824 1.767 6.057 4.699 6.063zm0-2.04c-1.335 0-2.199-1.341-2.193-4.023.006-2.642.864-3.971 2.193-3.971 1.324 0 2.188 1.329 2.188 3.971.005 2.682-.858 4.023-2.188 4.023zm10.703 1.943c2.591 0 4.353-1.687 4.347-4.04.006-2.227-1.551-3.829-3.648-3.829-1.023 0-1.903.426-2.312 1h-.069l.302-2.915h5.085v-2.011h-7.114l-.551 6.136 2.188.392c.358-.483 1.051-.784 1.738-.784 1.171.006 2.012.852 2.012 2.074 0 1.21-.824 2.045-1.978 2.045-.977 0-1.767-.613-1.824-1.517h-2.386c.046 2.012 1.801 3.449 4.21 3.449zm10.625.097c2.926 0 4.693-2.228 4.699-6.063.006-3.807-1.784-5.988-4.699-5.988-2.92 0-4.693 2.176-4.699 5.988-.011 3.824 1.767 6.057 4.699 6.063zm0-2.04c-1.335 0-2.199-1.341-2.193-4.023.006-2.642.864-3.971 2.193-3.971 1.324 0 2.188 1.329 2.188 3.971.005 2.682-.858 4.023-2.188 4.023zm10.794 1.943c2.625 0 4.512-1.403 4.517-3.29-.005-1.454-1.125-2.642-2.522-2.875v-.079c1.216-.25 2.085-1.301 2.091-2.58-.006-1.801-1.733-3.13-4.086-3.13-2.358 0-4.085 1.329-4.079 3.13-.006 1.273.852 2.33 2.091 2.58v.079c-1.421.233-2.529 1.421-2.523 2.875-.006 1.887 1.886 3.29 4.511 3.29zm0-1.807c-1.17 0-1.954-.693-1.954-1.676 0-1.006.824-1.733 1.954-1.733 1.125 0 1.955.727 1.955 1.733 0 .989-.79 1.676-1.955 1.676zm0-5.199c-.983 0-1.681-.642-1.681-1.562 0-.909.687-1.534 1.681-1.534.989 0 1.682.631 1.682 1.534 0 .92-.704 1.562-1.682 1.562zm6.698 6.847h2.54l4.829-9.597v-2.039h-8.165v2.011h5.62v.08zm7.942-2.045h5.585v2.045h2.352v-2.045h1.443v-1.972h-1.443v-7.619h-3.08l-4.857 7.653zm5.63-1.972h-3.153v-.091l3.062-4.847h.091zm7.833-1.028c.005-1.125.676-1.785 1.653-1.785.972 0 1.557.637 1.551 1.705v5.125h2.421v-5.557c0-2.034-1.194-3.284-3.012-3.284-1.295 0-2.233.636-2.625 1.653h-.102v-1.539h-2.307v8.727h2.421zm7.51 5.045h8.295v-2.011h-4.886v-.08l1.699-1.665c2.392-2.182 3.034-3.272 3.034-4.596 0-2.017-1.648-3.443-4.142-3.443-2.444 0-4.12 1.46-4.114 3.744h2.335c-.006-1.114.699-1.796 1.762-1.796 1.022 0 1.784.637 1.784 1.659 0 .927-.569 1.563-1.625 2.58l-4.142 3.835zm10.146 0h4.971c2.614 0 4.006-1.364 4.006-3.216 0-1.722-1.233-2.761-2.557-2.824v-.113c1.211-.273 2.103-1.131 2.103-2.5 0-1.745-1.296-2.983-3.864-2.983h-4.659zm2.46-2.011v-3.091h2.063c1.181 0 1.914.682 1.914 1.642 0 .875-.596 1.449-1.971 1.449zm0-4.756v-2.881h1.869c1.091 0 1.711.563 1.711 1.404 0 .92-.75 1.477-1.756 1.477zm7.874 4.722h5.585v2.045h2.352v-2.045h1.443v-1.972h-1.443v-7.619h-3.079l-4.858 7.653zm5.63-1.972h-3.153v-.091l3.062-4.847h.091zm5.213 1.972h5.586v2.045h2.352v-2.045h1.443v-1.972h-1.443v-7.619h-3.08l-4.858 7.653zm5.631-1.972h-3.153v-.091l3.062-4.847h.091zm5.457 4.017h4.972c2.614 0 4.006-1.364 4.006-3.216 0-1.722-1.233-2.761-2.557-2.824v-.113c1.21-.273 2.102-1.131 2.102-2.5 0-1.745-1.295-2.983-3.863-2.983h-4.66zm2.461-2.011v-3.091h2.062c1.182 0 1.915.682 1.915 1.642 0 .875-.597 1.449-1.972 1.449zm0-4.756v-2.881h1.869c1.091 0 1.71.563 1.71 1.404 0 .92-.75 1.477-1.755 1.477zm12.351 6.926c2.613 0 4.483-1.437 4.477-3.426.006-1.449-.915-2.483-2.625-2.699v-.091c1.301-.233 2.199-1.153 2.193-2.46.006-1.835-1.602-3.278-4.011-3.278-2.387 0-4.182 1.397-4.216 3.409h2.358c.028-.887.841-1.461 1.846-1.461.995 0 1.659.603 1.654 1.478.005.914-.773 1.534-1.892 1.534h-1.086v1.807h1.086c1.318 0 2.142.659 2.136 1.596.006.926-.79 1.563-1.915 1.563-1.085 0-1.897-.569-1.943-1.421h-2.477c.04 2.034 1.858 3.449 4.415 3.449zm6.268-.159h2.42v-2.773l.654-.744 2.381 3.517h2.835l-3.404-4.949 3.239-3.778h-2.778l-2.796 3.312h-.131v-6.221h-2.42zm12.93.17c2.16 0 3.614-1.051 3.955-2.67l-2.239-.148c-.244.665-.869 1.012-1.676 1.012-1.21 0-1.977-.802-1.977-2.103v-.005h5.943v-.665c0-2.966-1.795-4.432-4.102-4.432-2.568 0-4.233 1.824-4.233 4.517 0 2.767 1.642 4.494 4.329 4.494zm-1.937-5.414c.051-.995.807-1.79 1.881-1.79 1.051 0 1.778.75 1.784 1.79zm11.841 5.403c2.625 0 4.511-1.403 4.517-3.29-.006-1.454-1.125-2.642-2.523-2.875v-.079c1.216-.25 2.085-1.301 2.091-2.58-.006-1.801-1.733-3.13-4.085-3.13-2.358 0-4.085 1.329-4.08 3.13-.005 1.273.853 2.33 2.091 2.58v.079c-1.42.233-2.528 1.421-2.523 2.875-.005 1.887 1.887 3.29 4.512 3.29zm0-1.807c-1.171 0-1.955-.693-1.955-1.676 0-1.006.824-1.733 1.955-1.733 1.125 0 1.954.727 1.954 1.733 0 .989-.789 1.676-1.954 1.676zm0-5.199c-.983 0-1.682-.642-1.682-1.562 0-.909.688-1.534 1.682-1.534.988 0 1.682.631 1.682 1.534 0 .92-.705 1.562-1.682 1.562zm6.237 6.847h8.296v-2.011h-4.887v-.08l1.699-1.665c2.392-2.182 3.034-3.272 3.034-4.596 0-2.017-1.648-3.443-4.142-3.443-2.443 0-4.119 1.46-4.114 3.744h2.336c-.006-1.114.699-1.796 1.761-1.796 1.023 0 1.784.637 1.784 1.659 0 .927-.568 1.563-1.625 2.58l-4.142 3.835zm14.288-11.795c-2.602-.012-4.358 1.693-4.346 4.034.006 2.17 1.511 3.744 3.574 3.744 1.278 0 2.414-.619 2.932-1.642h.079c-.006 2.307-.807 3.71-2.324 3.71-.892 0-1.534-.489-1.721-1.335h-2.427c.228 1.96 1.819 3.443 4.148 3.443 2.881 0 4.739-2.329 4.733-6.278-.006-4.216-2.256-5.665-4.648-5.676zm.017 1.931c1.131 0 1.966.921 1.978 2.029.005 1.113-.875 2.034-2 2.034-1.137 0-1.949-.887-1.955-2.029-.011-1.136.835-2.034 1.977-2.034zm10.637 10.023c2.613 0 4.483-1.437 4.477-3.426.006-1.449-.915-2.483-2.625-2.699v-.091c1.301-.233 2.199-1.153 2.193-2.46.006-1.835-1.602-3.278-4.011-3.278-2.386 0-4.182 1.397-4.216 3.409h2.358c.028-.887.841-1.461 1.847-1.461.994 0 1.659.603 1.653 1.478.006.914-.773 1.534-1.892 1.534h-1.085v1.807h1.085c1.318 0 2.142.659 2.136 1.596.006.926-.79 1.563-1.914 1.563-1.086 0-1.898-.569-1.944-1.421h-2.477c.04 2.034 1.858 3.449 4.415 3.449zm-479.716 18.841h2.42v-5.239c0-.966.614-1.608 1.421-1.608.795 0 1.329.546 1.329 1.404v5.443h2.347v-5.33c0-.903.517-1.517 1.398-1.517.772 0 1.352.483 1.352 1.455v5.392h2.415v-5.869c0-1.892-1.125-2.972-2.75-2.972-1.279 0-2.273.653-2.631 1.653h-.091c-.278-1.011-1.17-1.653-2.369-1.653-1.176 0-2.068.625-2.432 1.653h-.102v-1.539h-2.307zm18.571.17c2.159 0 3.614-1.051 3.954-2.67l-2.238-.148c-.244.665-.869 1.012-1.676 1.012-1.211 0-1.978-.802-1.978-2.103v-.005h5.944v-.665c0-2.966-1.796-4.432-4.103-4.432-2.568 0-4.233 1.824-4.233 4.517 0 2.767 1.642 4.494 4.33 4.494zm-1.938-5.414c.052-.995.807-1.79 1.881-1.79 1.051 0 1.779.75 1.784 1.79zm15.142 8.596c1.62 0 3.205-.38 3.915-.784l-.562-1.648c-.608.25-1.915.58-3.222.58-3.704 0-5.716-1.966-5.727-5.557.011-3.25 1.864-5.699 5.642-5.699 2.733 0 5.273 1.307 5.267 4.875.006 2.222-.403 3.233-1.188 3.233-.392 0-.63-.295-.636-.824v-5.545h-1.778v.636h-.08c-.193-.5-1.398-.971-2.676-.778-1.517.221-3.153 1.466-3.165 4.102.012 2.676 1.534 4.046 3.33 4.142 1.29.074 2.449-.466 2.716-1.153h.068c.125.784.648 1.318 1.966 1.221 2.454-.136 3.392-2.113 3.386-4.903.006-4.04-2.665-6.835-7.182-6.835-4.886 0-7.687 3.028-7.693 7.596.006 4.642 2.784 7.341 7.619 7.341zm-.261-5.136c-1.483 0-1.983-1.136-1.989-2.341.006-1.295.716-2.142 1.978-2.142 1.437 0 1.869.761 1.875 2.125.017 1.545-.472 2.358-1.864 2.358zm13.104 1.954c2.159 0 3.613-1.051 3.954-2.67l-2.238-.148c-.245.665-.87 1.012-1.676 1.012-1.211 0-1.978-.802-1.978-2.103v-.005h5.943v-.665c0-2.966-1.795-4.432-4.102-4.432-2.568 0-4.233 1.824-4.233 4.517 0 2.767 1.642 4.494 4.33 4.494zm-1.938-5.414c.051-.995.807-1.79 1.881-1.79 1.051 0 1.778.75 1.784 1.79zm9.405-3.483h-2.5l2.5 4.363-2.591 4.364h2.5l1.693-3.017 1.722 3.017h2.472l-2.597-4.364 2.528-4.363h-2.483l-1.642 3.051zm7.165 8.727h2.42v-8.727h-2.42zm1.216-9.852c.721 0 1.312-.551 1.312-1.228 0-.67-.591-1.221-1.312-1.221-.716 0-1.307.551-1.307 1.221 0 .677.591 1.228 1.307 1.228zm3.143 9.852h2.421v-5.239c0-.966.613-1.608 1.42-1.608.796 0 1.33.546 1.33 1.404v5.443h2.346v-5.33c0-.903.517-1.517 1.398-1.517.773 0 1.352.483 1.352 1.455v5.392h2.415v-5.869c0-1.892-1.125-2.972-2.75-2.972-1.278 0-2.273.653-2.631 1.653h-.09c-.279-1.011-1.171-1.653-2.37-1.653-1.176 0-2.068.625-2.432 1.653h-.102v-1.539h-2.307zm18.537.17c2.324 0 3.784-1.363 3.898-3.369h-2.284c-.142.932-.756 1.455-1.585 1.455-1.131 0-1.864-.949-1.864-2.62 0-1.647.739-2.591 1.864-2.591.886 0 1.454.586 1.585 1.455h2.284c-.102-2.017-1.631-3.341-3.909-3.341-2.648 0-4.284 1.835-4.284 4.511 0 2.654 1.608 4.5 4.295 4.5zm7.868-5.215c.006-1.125.693-1.785 1.682-1.785.983 0 1.562.631 1.557 1.705v5.125h2.42v-5.557c.006-2.045-1.199-3.284-3.017-3.284-1.324 0-2.21.625-2.608 1.653h-.102v-4.448h-2.352v11.636h2.42zm10.053 5.21c1.289 0 2.125-.563 2.551-1.375h.068v1.21h2.295v-5.886c0-2.08-1.761-2.955-3.704-2.955-2.091 0-3.466 1-3.801 2.591l2.238.182c.165-.58.682-1.006 1.552-1.006.823 0 1.295.415 1.295 1.131v.034c0 .562-.597.636-2.114.784-1.727.159-3.278.739-3.278 2.687 0 1.728 1.233 2.603 2.898 2.603zm.693-1.671c-.744 0-1.279-.346-1.279-1.011 0-.682.563-1.017 1.415-1.136.529-.074 1.392-.199 1.682-.392v.926c0 .914-.756 1.613-1.818 1.613zm6.099 1.506h2.421v-8.727h-2.421zm1.216-9.852c.722 0 1.313-.551 1.313-1.228 0-.67-.591-1.221-1.313-1.221-.716 0-1.307.551-1.307 1.221 0 .677.591 1.228 1.307 1.228zm5.564 4.807c.006-1.125.676-1.785 1.654-1.785.971 0 1.556.637 1.551 1.705v5.125h2.42v-5.557c0-2.034-1.193-3.284-3.011-3.284-1.296 0-2.233.636-2.625 1.653h-.103v-1.539h-2.306v8.727h2.42zm8.948 5.193c.727 0 1.358-.608 1.363-1.364-.005-.744-.636-1.352-1.363-1.352-.75 0-1.37.608-1.364 1.352-.006.756.614 1.364 1.364 1.364zm7.294.022c2.323 0 3.784-1.363 3.897-3.369h-2.284c-.142.932-.755 1.455-1.585 1.455-1.131 0-1.864-.949-1.864-2.62 0-1.647.739-2.591 1.864-2.591.886 0 1.455.586 1.585 1.455h2.284c-.102-2.017-1.63-3.341-3.909-3.341-2.647 0-4.284 1.835-4.284 4.511 0 2.654 1.608 4.5 4.296 4.5zm9.39 0c2.648 0 4.296-1.812 4.296-4.5 0-2.704-1.648-4.511-4.296-4.511s-4.295 1.807-4.295 4.511c0 2.688 1.647 4.5 4.295 4.5zm.012-1.875c-1.222 0-1.847-1.119-1.847-2.642 0-1.522.625-2.647 1.847-2.647 1.198 0 1.823 1.125 1.823 2.647 0 1.523-.625 2.642-1.823 2.642zm5.858 1.705h2.42v-5.239c0-.966.614-1.608 1.42-1.608.796 0 1.33.546 1.33 1.404v5.443h2.347v-5.33c0-.903.517-1.517 1.397-1.517.773 0 1.353.483 1.353 1.455v5.392h2.414v-5.869c0-1.892-1.125-2.972-2.75-2.972-1.278 0-2.272.653-2.63 1.653h-.091c-.279-1.011-1.171-1.653-2.37-1.653-1.176 0-2.068.625-2.431 1.653h-.103v-1.539h-2.306z" fill="#515762"/><g fill="#626b76"><path d="m591.777 831.159c2.909 0 5.26-2.351 5.25-5.25-.01-2.898-2.341-5.25-5.25-5.25-2.888 0-5.24 2.352-5.25 5.25-.01 2.899 2.362 5.25 5.25 5.25zm0-1.153c-2.262 0-4.106-1.845-4.096-4.092.01-2.262 1.844-4.102 4.096-4.102 2.263 0 4.087 1.83 4.097 4.102.01 2.257-1.825 4.092-4.097 4.092zm-2.903-4.097c0 1.631 1.322 2.953 2.953 2.953 1.412 0 2.496-.994 2.685-2.317h-1.203c-.14.682-.716 1.164-1.482 1.164-.994 0-1.8-.806-1.8-1.8s.806-1.8 1.8-1.8c.766 0 1.447.483 1.581 1.164h1.203c-.189-1.323-1.372-2.317-2.784-2.317-1.631 0-2.953 1.322-2.953 2.953zm14.302 5.091h6.423v-1.094h-4.733v-.079l2.287-2.446c1.75-1.875 2.267-2.75 2.267-3.878 0-1.571-1.272-2.824-3.062-2.824-1.785 0-3.142 1.213-3.142 3.003h1.173c0-1.159.751-1.929 1.929-1.929 1.104 0 1.949.676 1.949 1.75 0 .939-.552 1.635-1.73 2.923l-3.361 3.679zm11.798.139c2.247 0 3.539-1.904 3.539-5.23 0-3.301-1.312-5.23-3.539-5.23-2.228 0-3.54 1.929-3.54 5.23 0 3.326 1.292 5.23 3.54 5.23zm0-1.094c-1.482 0-2.347-1.486-2.347-4.136 0-2.645.875-4.156 2.347-4.156 1.471 0 2.346 1.511 2.346 4.156 0 2.65-.865 4.136-2.346 4.136zm9.008-9.227h-1.233l-2.545 1.691v1.252l2.486-1.65h.059v8.889h1.233zm6.17-.139c-2.068-.025-3.401 1.531-3.401 3.401 0 1.968 1.452 3.38 3.202 3.38 1.054 0 1.949-.517 2.506-1.352h.079c0 2.506-.974 3.937-2.545 3.937-1.074 0-1.73-.676-1.949-1.61h-1.213c.239 1.61 1.452 2.704 3.162 2.704 2.287 0 3.699-2.028 3.699-5.648 0-3.738-1.87-4.792-3.54-4.812zm0 1.094c1.273 0 2.207 1.093 2.207 2.287 0 1.213-.994 2.306-2.247 2.306s-2.167-1.014-2.167-2.286c0-1.273.954-2.307 2.207-2.307zm9.611 9.227h6.225v-1.094h-4.992v-3.46h4.594v-1.094h-4.594v-3.44h4.912v-1.094h-6.145zm8.964-10.182h-1.452l3.282 5.091-3.282 5.091h1.452l2.625-4.156h.08l2.625 4.156h1.451l-3.201-5.091 3.201-5.091h-1.451l-2.625 4.236h-.08zm9.619 0h-1.233v10.182h1.233zm2.472 0v10.182h1.153v-7.736h.1l3.182 7.736h1.113l3.182-7.736h.099v7.736h1.154v-10.182h-1.472l-3.46 8.452h-.119l-3.46-8.452zm20.648 3.182c-.378-2.088-2.048-3.321-4.096-3.321-2.606 0-4.495 2.009-4.495 5.23 0 3.222 1.889 5.23 4.495 5.23 2.048 0 3.718-1.233 4.096-3.321h-1.233c-.298 1.412-1.511 2.168-2.863 2.168-1.85 0-3.302-1.432-3.302-4.077s1.452-4.077 3.302-4.077c1.352 0 2.565.756 2.863 2.168zm1.993 7h1.232v-4.554h5.429v4.554h1.233v-10.182h-1.233v4.534h-5.429v-4.534h-1.232zm10.78 0 1.025-2.884h4.116l1.024 2.884h1.293l-3.739-10.182h-1.273l-3.738 10.182zm1.412-3.977 1.631-4.594h.08l1.63 4.594zm8.865-6.205h-1.233v10.182h1.233zm10.546 0h-1.213v8.014h-.1l-5.568-8.014h-1.193v10.182h1.233v-7.994h.099l5.549 7.994h1.193zm4.058 8.79h-1.273l-.06.557c-.144 1.347-.427 2.689-.556 3.321h.894c.239-.676.746-2.208.915-3.341zm6.688 1.392 1.024-2.884h4.116l1.025 2.884h1.292l-3.738-10.182h-1.273l-3.739 10.182zm1.412-3.977 1.63-4.594h.08l1.631 4.594zm8.645-6.205h-1.173v10.182h1.173zm3.323 0h-1.174v10.182h1.174zm6.245 10.182h1.233v-3.977h2.227c.09 0 .174 0 .259-.005l2.148 3.982h1.431l-2.301-4.206c1.297-.442 1.904-1.501 1.904-2.854 0-1.799-1.074-3.122-3.461-3.122h-3.44zm1.233-5.091v-3.997h2.168c1.65 0 2.287.805 2.287 2.028s-.637 1.969-2.267 1.969zm7.563 5.091h1.173v-7.636h-1.173zm.597-8.909c.457 0 .835-.358.835-.796 0-.437-.378-.795-.835-.795-.458 0-.835.358-.835.795 0 .438.377.796.835.796zm5.808 11.932c1.829 0 3.301-.835 3.301-2.804v-7.855h-1.134v1.213h-.119c-.258-.398-.736-1.313-2.227-1.313-1.929 0-3.262 1.531-3.262 3.878 0 2.386 1.392 3.739 3.242 3.739 1.491 0 1.969-.875 2.227-1.293h.1v1.551c0 1.273-.895 1.85-2.128 1.85-1.387 0-1.875-.731-2.188-1.154l-.934.656c.477.801 1.417 1.532 3.122 1.532zm-.04-4.196c-1.472 0-2.227-1.114-2.227-2.705 0-1.551.736-2.804 2.227-2.804 1.432 0 2.188 1.154 2.188 2.804 0 1.69-.776 2.705-2.188 2.705zm6.662-3.421c0-1.332.85-2.088 2.008-2.088 1.104 0 1.77.696 1.77 1.909v4.773h1.174v-4.852c0-1.964-1.044-2.884-2.605-2.884-1.204 0-1.89.502-2.248 1.293h-.099v-3.739h-1.173v10.182h1.173zm10.419-3.042h-1.631v-1.83h-1.173v1.83h-1.153v.994h1.153v4.773c0 1.332 1.074 1.968 2.068 1.968.438 0 .716-.079.875-.139l-.238-1.054c-.1.02-.259.06-.517.06-.517 0-1.015-.159-1.015-1.154v-4.454h1.631zm7.037 1.71c-.367-1.084-1.193-1.81-2.704-1.81-1.611 0-2.804.915-2.804 2.208 0 1.054.626 1.76 2.028 2.088l1.273.298c.771.179 1.134.547 1.134 1.074 0 .656-.696 1.193-1.79 1.193-.96 0-1.561-.413-1.77-1.233l-1.114.278c.274 1.298 1.343 1.989 2.904 1.989 1.775 0 2.983-.969 2.983-2.287 0-1.064-.667-1.735-2.029-2.068l-1.133-.278c-.905-.224-1.313-.527-1.313-1.114 0-.656.696-1.134 1.631-1.134 1.024 0 1.447.567 1.65 1.094zm6.002 5.926h1.233v-3.977h2.228c.089 0 .174 0 .258-.005l2.148 3.982h1.432l-2.302-4.206c1.297-.442 1.904-1.501 1.904-2.854 0-1.799-1.074-3.122-3.46-3.122h-3.441zm1.233-5.091v-3.997h2.168c1.651 0 2.287.805 2.287 2.028s-.636 1.969-2.267 1.969zm10.683 5.25c1.551 0 2.685-.775 3.043-1.929l-1.134-.318c-.298.795-.989 1.193-1.909 1.193-1.377 0-2.327-.89-2.381-2.525h5.543v-.498c0-2.843-1.69-3.818-3.281-3.818-2.068 0-3.441 1.631-3.441 3.977 0 2.347 1.353 3.918 3.56 3.918zm-2.381-4.594c.079-1.188.919-2.247 2.262-2.247 1.272 0 2.088.955 2.088 2.247zm12.737-1.491c-.368-1.084-1.193-1.81-2.705-1.81-1.61 0-2.804.915-2.804 2.208 0 1.054.627 1.76 2.029 2.088l1.272.298c.771.179 1.134.547 1.134 1.074 0 .656-.696 1.193-1.79 1.193-.959 0-1.561-.413-1.77-1.233l-1.113.278c.273 1.298 1.342 1.989 2.903 1.989 1.775 0 2.983-.969 2.983-2.287 0-1.064-.666-1.735-2.028-2.068l-1.134-.278c-.905-.224-1.312-.527-1.312-1.114 0-.656.696-1.134 1.63-1.134 1.024 0 1.447.567 1.651 1.094zm5.107 6.085c1.551 0 2.685-.775 3.043-1.929l-1.134-.318c-.298.795-.989 1.193-1.909 1.193-1.377 0-2.327-.89-2.381-2.525h5.543v-.498c0-2.843-1.69-3.818-3.281-3.818-2.069 0-3.441 1.631-3.441 3.977 0 2.347 1.353 3.918 3.56 3.918zm-2.381-4.594c.079-1.188.919-2.247 2.262-2.247 1.272 0 2.088.955 2.088 2.247zm7.328 4.435h1.173v-4.832c0-1.034.815-1.79 1.929-1.79.313 0 .636.06.716.079v-1.193c-.134-.01-.443-.02-.617-.02-.914 0-1.71.517-1.988 1.273h-.08v-1.153h-1.133zm11.685-7.636h-1.272l-2.108 6.085h-.08l-2.108-6.085h-1.273l2.824 7.636h1.194zm4.477 7.795c1.551 0 2.685-.775 3.043-1.929l-1.134-.318c-.298.795-.989 1.193-1.909 1.193-1.377 0-2.326-.89-2.381-2.525h5.543v-.498c0-2.843-1.69-3.818-3.281-3.818-2.068 0-3.44 1.631-3.44 3.977 0 2.347 1.352 3.918 3.559 3.918zm-2.381-4.594c.079-1.188.92-2.247 2.262-2.247 1.273 0 2.088.955 2.088 2.247zm10.212 4.594c1.471 0 1.968-.915 2.227-1.332h.139v1.173h1.134v-10.182h-1.174v3.759h-.099c-.259-.398-.716-1.313-2.208-1.313-1.929 0-3.261 1.531-3.261 3.938 0 2.426 1.332 3.957 3.242 3.957zm.159-1.054c-1.472 0-2.228-1.293-2.228-2.923 0-1.611.736-2.864 2.228-2.864 1.431 0 2.187 1.154 2.187 2.864 0 1.73-.775 2.923-2.187 2.923zm6.507.975c.493 0 .895-.403.895-.895 0-.493-.402-.895-.895-.895-.492 0-.894.402-.894.895 0 .492.402.895.894.895z"/><path d="m692.672 858.493h1.481c-.044-1.631-1.486-2.814-3.554-2.814-2.044 0-3.61 1.168-3.61 2.923 0 1.417 1.015 2.247 2.65 2.69l1.203.328c1.089.288 1.929.646 1.929 1.551 0 .994-.949 1.651-2.257 1.651-1.183 0-2.167-.527-2.257-1.636h-1.541c.099 1.845 1.526 2.983 3.808 2.983 2.391 0 3.769-1.258 3.769-2.983 0-1.834-1.636-2.545-2.929-2.864l-.994-.258c-.795-.204-1.854-.577-1.849-1.551 0-.865.79-1.507 2.043-1.507 1.168 0 1.998.547 2.108 1.487zm8.174 4.34c.005 1.298-.959 1.914-1.794 1.914-.92 0-1.556-.666-1.556-1.705v-4.678h-1.487v4.857c0 1.894 1.039 2.878 2.506 2.878 1.148 0 1.929-.606 2.282-1.421h.079v1.322h1.462v-7.636h-1.492zm3.489 6.031h1.487v-4.052h.089c.269.487.816 1.337 2.208 1.337 1.849 0 3.191-1.481 3.191-3.952 0-2.476-1.362-3.933-3.206-3.933-1.417 0-1.929.865-2.193 1.338h-.124v-1.238h-1.452zm1.457-6.682c0-1.596.696-2.655 1.994-2.655 1.347 0 2.023 1.138 2.023 2.655 0 1.531-.696 2.699-2.023 2.699-1.278 0-1.994-1.093-1.994-2.699zm7.184 6.682h1.486v-4.052h.09c.268.487.815 1.337 2.207 1.337 1.85 0 3.192-1.481 3.192-3.952 0-2.476-1.362-3.933-3.207-3.933-1.417 0-1.929.865-2.192 1.338h-.124v-1.238h-1.452zm1.457-6.682c0-1.596.696-2.655 1.993-2.655 1.347 0 2.024 1.138 2.024 2.655 0 1.531-.696 2.699-2.024 2.699-1.278 0-1.993-1.093-1.993-2.699zm10.4 3.972c2.153 0 3.56-1.576 3.56-3.937 0-2.377-1.407-3.953-3.56-3.953s-3.56 1.576-3.56 3.953c0 2.361 1.407 3.937 3.56 3.937zm.005-1.248c-1.407 0-2.063-1.228-2.063-2.694 0-1.462.656-2.705 2.063-2.705 1.397 0 2.053 1.243 2.053 2.705 0 1.466-.656 2.694-2.053 2.694zm5.214 1.094h1.487v-4.663c0-.995.77-1.716 1.799-1.716.289 0 .512.06.691.15l.478-1.243c-.254-.169-.582-.279-1-.279-.905 0-1.66.507-1.939 1.328h-.079v-1.213h-1.437zm9.621-7.636h-1.566v-1.83h-1.486v1.83h-1.119v1.193h1.119v4.504c-.005 1.382 1.054 2.053 2.227 2.033.472-.005.79-.094.964-.159l-.268-1.228c-.099.02-.283.065-.522.065-.482 0-.915-.159-.915-1.019v-4.196h1.566z"/><path d="m574.119 867h1.536v-4.44h5.076v4.44h1.541v-10.182h-1.541v4.425h-5.076v-4.425h-1.536zm13.562.154c1.666 0 2.844-.82 3.182-2.063l-1.407-.254c-.268.721-.915 1.089-1.76 1.089-1.273 0-2.128-.825-2.168-2.297h5.429v-.527c0-2.759-1.65-3.838-3.38-3.838-2.128 0-3.53 1.621-3.53 3.968 0 2.371 1.382 3.922 3.634 3.922zm-2.148-4.638c.06-1.084.846-2.024 2.054-2.024 1.153 0 1.909.855 1.914 2.024zm8.56-5.698h-1.486v10.182h1.486zm2 13.046h1.487v-4.052h.089c.269.487.815 1.337 2.207 1.337 1.85 0 3.192-1.481 3.192-3.952 0-2.476-1.362-3.933-3.206-3.933-1.417 0-1.929.865-2.193 1.338h-.124v-1.238h-1.452zm1.457-6.682c0-1.596.696-2.655 1.993-2.655 1.348 0 2.024 1.138 2.024 2.655 0 1.531-.696 2.699-2.024 2.699-1.277 0-1.993-1.093-1.993-2.699zm19.465-3.053c-.348-2.177-2.054-3.45-4.206-3.45-2.635 0-4.579 1.974-4.579 5.23s1.934 5.23 4.579 5.23c2.237 0 3.873-1.402 4.206-3.415l-1.551-.005c-.264 1.302-1.358 2.018-2.645 2.018-1.745 0-3.063-1.337-3.063-3.828 0-2.471 1.313-3.828 3.068-3.828 1.297 0 2.386.731 2.64 2.048zm5.01 7.025c1.665 0 2.844-.82 3.182-2.063l-1.407-.254c-.269.721-.915 1.089-1.76 1.089-1.273 0-2.128-.825-2.168-2.297h5.429v-.527c0-2.759-1.65-3.838-3.381-3.838-2.127 0-3.529 1.621-3.529 3.968 0 2.371 1.382 3.922 3.634 3.922zm-2.148-4.638c.06-1.084.845-2.024 2.053-2.024 1.154 0 1.909.855 1.914 2.024zm8.56-.05c0-1.218.746-1.914 1.78-1.914 1.009 0 1.621.661 1.621 1.77v4.678h1.486v-4.857c0-1.889-1.039-2.879-2.6-2.879-1.149 0-1.899.532-2.252 1.343h-.095v-1.243h-1.427v7.636h1.487zm10.445-3.102h-1.566v-1.83h-1.486v1.83h-1.119v1.193h1.119v4.509c-.005 1.387 1.054 2.058 2.227 2.033.472-.005.79-.094.964-.159l-.268-1.228c-.099.02-.283.065-.522.065-.482 0-.915-.159-.915-1.019v-4.201h1.566zm4.854 7.79c1.665 0 2.844-.82 3.182-2.063l-1.407-.254c-.269.721-.915 1.089-1.76 1.089-1.273 0-2.128-.825-2.168-2.297h5.429v-.527c0-2.759-1.65-3.838-3.381-3.838-2.127 0-3.529 1.621-3.529 3.968 0 2.371 1.382 3.922 3.634 3.922zm-2.148-4.638c.06-1.084.845-2.024 2.053-2.024 1.154 0 1.909.855 1.914 2.024zm7.073 4.484h1.487v-4.663c0-1 .771-1.721 1.824-1.721.309 0 .657.055.776.09v-1.422c-.149-.02-.442-.035-.631-.035-.895 0-1.661.507-1.939 1.328h-.08v-1.213h-1.437z"/><path d="m774.119 867h1.536v-3.58h2.088c2.361 0 3.53-1.426 3.53-3.306 0-1.874-1.159-3.296-3.525-3.296h-3.629zm1.536-4.882v-3.982h1.929c1.521 0 2.143.825 2.143 1.978 0 1.154-.622 2.004-2.123 2.004zm7.299 4.882h1.487v-4.663c0-1 .77-1.721 1.824-1.721.309 0 .657.055.776.09v-1.422c-.149-.02-.442-.035-.631-.035-.895 0-1.661.507-1.939 1.328h-.08v-1.213h-1.437zm5.373 0h1.487v-7.636h-1.487zm.751-8.815c.512 0 .94-.397.94-.885 0-.487-.428-.889-.94-.889-.517 0-.94.402-.94.889 0 .488.423.885.94.885zm9.268 1.179h-1.595l-1.929 5.876h-.08l-1.934-5.876h-1.596l2.774 7.636h1.591zm3.387 7.805c1.263 0 1.974-.641 2.257-1.213h.06v1.044h1.452v-5.071c0-2.222-1.75-2.665-2.963-2.665-1.382 0-2.655.557-3.152 1.949l1.397.318c.218-.542.775-1.064 1.775-1.064.959 0 1.451.502 1.451 1.368v.034c0 .542-.557.532-1.929.691-1.446.169-2.928.547-2.928 2.282 0 1.502 1.129 2.327 2.58 2.327zm.323-1.193c-.84 0-1.446-.378-1.446-1.114 0-.795.706-1.079 1.566-1.193.482-.065 1.625-.194 1.839-.408v.985c0 .905-.721 1.73-1.959 1.73zm8.642 1.178c1.805 0 2.973-1.084 3.137-2.57h-1.446c-.189.825-.831 1.312-1.681 1.312-1.258 0-2.068-1.049-2.068-2.714 0-1.636.825-2.665 2.068-2.665.945 0 1.522.597 1.681 1.313h1.446c-.159-1.542-1.416-2.566-3.152-2.566-2.152 0-3.544 1.621-3.544 3.953 0 2.301 1.342 3.937 3.559 3.937zm5.667 2.71c1.228 0 2.003-.642 2.446-1.845l3.157-8.64-1.606-.015-1.934 5.926h-.08l-1.934-5.926h-1.59l2.794 7.735-.184.508c-.378 1.014-.91 1.098-1.726.875l-.358 1.218c.179.079.567.164 1.015.164zm10.828-2.864h1.536v-3.58h2.088c2.362 0 3.53-1.426 3.53-3.306 0-1.874-1.158-3.296-3.525-3.296h-3.629zm1.536-4.882v-3.982h1.929c1.521 0 2.143.825 2.143 1.978 0 1.154-.622 2.004-2.123 2.004zm10.421 5.036c2.152 0 3.559-1.576 3.559-3.937 0-2.377-1.407-3.953-3.559-3.953-2.153 0-3.56 1.576-3.56 3.953 0 2.361 1.407 3.937 3.56 3.937zm.004-1.248c-1.406 0-2.063-1.228-2.063-2.694 0-1.462.657-2.705 2.063-2.705 1.397 0 2.054 1.243 2.054 2.705 0 1.466-.657 2.694-2.054 2.694zm6.701-9.088h-1.487v10.182h1.487zm2 10.182h1.486v-7.636h-1.486zm.75-8.815c.513 0 .94-.397.94-.885 0-.487-.427-.889-.94-.889-.517 0-.939.402-.939.889 0 .488.422.885.939.885zm5.953 8.969c1.804 0 2.973-1.084 3.137-2.57h-1.447c-.189.825-.83 1.312-1.68 1.312-1.258 0-2.069-1.049-2.069-2.714 0-1.636.826-2.665 2.069-2.665.944 0 1.521.597 1.68 1.313h1.447c-.159-1.542-1.417-2.566-3.152-2.566-2.153 0-3.545 1.621-3.545 3.953 0 2.301 1.342 3.937 3.56 3.937zm5.666 2.71c1.228 0 2.004-.642 2.446-1.845l3.157-8.64-1.606-.015-1.934 5.926h-.079l-1.934-5.926h-1.591l2.794 7.735-.184.508c-.378 1.014-.91 1.098-1.725.875l-.358 1.218c.179.079.567.164 1.014.164z"/></g><path d="m670.5 855v14" stroke="#dfdfe1"/><path d="m757.5 855v14" stroke="#dfdfe1"/><circle cx="720" cy="775" fill="#267edc" r="15"/><path clip-rule="evenodd" d="m716.123 774.095.961 1.665 6.419-3.706.24.065-.433 2.893-.063.24-4.414 2.549-.428.247.001.001-2.726 1.574-.001-.001-4.141 2.391-.239-.065.432-2.894.064-.239 2.149-1.241v-.001l.414-.239-2.273-3.937.064-.239 12.106-6.989.24.063-.443 2.881-.059.236-7.806 4.507zm.143 6.545 1.765 3.055.239.064 9.926-5.731.068-.241.466-2.894-.237-.065-8.809 5.086-.239-.064-.452-.784z" fill="#fff" fill-rule="evenodd"/><path d="m0 210h480v4h-480z" fill="#e0e3e8"/><path d="m960 210h480v4h-480z" fill="#267edc"/><path d="m480 210h480v4h-480z" fill="#dfe3e8"/><path d="m164.197 191h1.699v-5.381c0-1.176.823-1.994 1.789-1.994.944 0 1.597.625 1.597 1.574v5.801h1.693v-5.562c0-1.052.642-1.813 1.75-1.813.898 0 1.637.5 1.637 1.682v5.693h1.698v-5.852c0-1.995-1.113-2.989-2.693-2.989-1.255 0-2.199.602-2.619 1.534h-.091c-.381-.954-1.182-1.534-2.347-1.534-1.153 0-2.011.574-2.375 1.534h-.108v-1.42h-1.63zm17.902.176c1.903 0 3.25-.937 3.636-2.358l-1.608-.29c-.307.824-1.045 1.245-2.011 1.245-1.455 0-2.432-.943-2.478-2.625h6.205v-.603c0-3.153-1.886-4.386-3.864-4.386-2.431 0-4.034 1.852-4.034 4.534 0 2.71 1.58 4.483 4.154 4.483zm-2.455-5.301c.068-1.239.966-2.313 2.347-2.313 1.318 0 2.182.978 2.187 2.313zm15.09 8.29c1.312 0 2.829-.358 3.534-.688l-.398-1.244c-.477.17-1.79.585-3.062.585-3.824 0-5.875-2.108-5.875-5.88 0-3.614 2.028-5.949 5.664-5.949 3.324 0 5.307 2.136 5.301 5.022.006 2.466-.312 3.574-1.346 3.574-.585 0-.909-.477-.909-1.074v-5.272h-1.398v.636h-.074c-.17-.5-1.159-.949-2.346-.807-1.642.193-3.052 1.551-3.052 3.79 0 2.335 1.194 3.898 3.108 3.972 1.296.056 2.137-.546 2.404-1.216h.068c.136.914 1.125 1.318 2.097 1.284 2.426-.046 2.886-2.432 2.886-4.83 0-3.42-2.341-6.398-6.682-6.398-4.551 0-7.227 2.779-7.233 7.256.006 4.608 2.614 7.239 7.313 7.239zm-.523-4.727c-1.483 0-1.994-1.273-2-2.648.006-1.307.739-2.347 2.023-2.347 1.392 0 2.017.614 2.022 2.341.006 1.773-.568 2.654-2.045 2.654zm12.763 1.738c1.903 0 3.25-.937 3.636-2.358l-1.608-.29c-.307.824-1.045 1.245-2.011 1.245-1.455 0-2.432-.943-2.478-2.625h6.205v-.603c0-3.153-1.886-4.386-3.864-4.386-2.431 0-4.034 1.852-4.034 4.534 0 2.71 1.58 4.483 4.154 4.483zm-2.455-5.301c.068-1.239.966-2.313 2.347-2.313 1.318 0 2.182.978 2.187 2.313zm9.222-3.602h-1.864l2.682 4.363-2.716 4.364h1.864l1.96-3.261 1.966 3.261h1.858l-2.745-4.364 2.722-4.363h-1.858l-1.943 3.397zm7.471 8.727h1.699v-8.727h-1.699zm.858-10.074c.586 0 1.074-.454 1.074-1.011s-.488-1.017-1.074-1.017c-.591 0-1.074.46-1.074 1.017s.483 1.011 1.074 1.011zm3.127 10.074h1.699v-5.381c0-1.176.823-1.994 1.789-1.994.944 0 1.597.625 1.597 1.574v5.801h1.693v-5.562c0-1.052.642-1.813 1.75-1.813.898 0 1.637.5 1.637 1.682v5.693h1.698v-5.852c0-1.995-1.113-2.989-2.693-2.989-1.255 0-2.199.602-2.619 1.534h-.091c-.381-.954-1.182-1.534-2.347-1.534-1.153 0-2.011.574-2.375 1.534h-.108v-1.42h-1.63zm17.816.176c2.063 0 3.398-1.238 3.586-2.937h-1.654c-.216.943-.949 1.5-1.92 1.5-1.438 0-2.364-1.199-2.364-3.103 0-1.869.943-3.045 2.364-3.045 1.079 0 1.738.682 1.92 1.5h1.654c-.182-1.761-1.62-2.932-3.603-2.932-2.46 0-4.051 1.852-4.051 4.517 0 2.631 1.534 4.5 4.068 4.5zm7.101-5.358c0-1.392.881-2.187 2.091-2.187 1.171 0 1.87.744 1.87 2.022v5.347h1.698v-5.551c0-2.176-1.193-3.29-2.988-3.29-1.358 0-2.176.591-2.585 1.534h-.108v-4.329h-1.677v11.636h1.699zm10.466 5.375c1.443 0 2.256-.733 2.58-1.386h.068v1.193h1.659v-5.795c0-2.54-2-3.046-3.386-3.046-1.58 0-3.034.636-3.603 2.227l1.597.364c.25-.619.886-1.216 2.028-1.216 1.097 0 1.66.574 1.66 1.563v.039c0 .62-.637.608-2.205.79-1.653.193-3.347.625-3.347 2.608 0 1.716 1.29 2.659 2.949 2.659zm.37-1.363c-.961 0-1.654-.432-1.654-1.273 0-.909.807-1.233 1.79-1.364.551-.074 1.858-.221 2.102-.466v1.125c0 1.034-.824 1.978-2.238 1.978zm6.2 1.17h1.699v-8.727h-1.699zm.858-10.074c.585 0 1.074-.454 1.074-1.011s-.489-1.017-1.074-1.017c-.591 0-1.074.46-1.074 1.017s.483 1.011 1.074 1.011zm4.825 4.892c0-1.392.852-2.187 2.034-2.187 1.154 0 1.852.755 1.852 2.022v5.347h1.699v-5.551c0-2.159-1.187-3.29-2.971-3.29-1.313 0-2.171.608-2.574 1.534h-.108v-1.42h-1.631v8.727h1.699zm8.983 5.29c.619 0 1.136-.506 1.136-1.136 0-.62-.517-1.131-1.136-1.131-.625 0-1.136.511-1.136 1.131 0 .63.511 1.136 1.136 1.136zm7.088.068c2.063 0 3.398-1.238 3.585-2.937h-1.653c-.216.943-.949 1.5-1.921 1.5-1.437 0-2.363-1.199-2.363-3.103 0-1.869.943-3.045 2.363-3.045 1.08 0 1.739.682 1.921 1.5h1.653c-.181-1.761-1.619-2.932-3.602-2.932-2.46 0-4.051 1.852-4.051 4.517 0 2.631 1.534 4.5 4.068 4.5zm9.078 0c2.46 0 4.068-1.801 4.068-4.5 0-2.716-1.608-4.517-4.068-4.517s-4.068 1.801-4.068 4.517c0 2.699 1.608 4.5 4.068 4.5zm.006-1.426c-1.608 0-2.358-1.403-2.358-3.08 0-1.67.75-3.09 2.358-3.09 1.597 0 2.347 1.42 2.347 3.09 0 1.677-.75 3.08-2.347 3.08zm5.959 1.25h1.699v-5.381c0-1.176.823-1.994 1.789-1.994.944 0 1.597.625 1.597 1.574v5.801h1.693v-5.562c0-1.052.642-1.813 1.75-1.813.898 0 1.637.5 1.637 1.682v5.693h1.698v-5.852c0-1.995-1.113-2.989-2.693-2.989-1.255 0-2.199.602-2.619 1.534h-.091c-.381-.954-1.182-1.534-2.347-1.534-1.153 0-2.011.574-2.375 1.534h-.108v-1.42h-1.63z" fill="#9aa2af"/><path d="m212.222 150.364h-1.477l4.273 11.636h1.454l4.273-11.636h-1.477l-3.455 9.795h-.136zm13 11.818c1.773 0 3.068-.887 3.478-2.205l-1.296-.363c-.341.909-1.131 1.363-2.182 1.363-1.574 0-2.659-1.017-2.721-2.886h6.335v-.568c0-3.25-1.932-4.364-3.75-4.364-2.364 0-3.932 1.864-3.932 4.546 0 2.681 1.546 4.477 4.068 4.477zm-2.721-5.25c.091-1.358 1.051-2.568 2.585-2.568 1.454 0 2.386 1.091 2.386 2.568zm8.375 5.068h1.341v-5.523c0-1.182.931-2.045 2.204-2.045.358 0 .727.068.818.091v-1.364c-.153-.011-.505-.023-.704-.023-1.046 0-1.955.591-2.273 1.455h-.091v-1.318h-1.295zm5.953 0h1.341v-8.727h-1.341zm.682-10.182c.522 0 .954-.409.954-.909s-.432-.909-.954-.909c-.523 0-.955.409-.955.909s.432.909.955.909zm7.001 1.455h-1.954v-.887c0-.863.363-1.318 1.25-1.318.386 0 .613.091.75.137l.386-1.16c-.205-.09-.614-.227-1.273-.227-1.25 0-2.454.75-2.454 2.25v1.205h-1.409v1.136h1.409v7.591h1.341v-7.591h1.954zm2.743 12c1.21 0 2.062-.642 2.568-2l3.716-9.978-1.466-.022-2.409 6.954h-.091l-2.409-6.954h-1.454l3.227 8.772-.25.682c-.489 1.33-1.091 1.455-2.068 1.205l-.341 1.182c.136.068.522.159.977.159zm12.74-3.273h7.114v-1.25h-5.705v-3.955h5.25v-1.25h-5.25v-3.931h5.614v-1.25h-7.023zm9.381 0h1.341v-5.455c0-1.278.931-2.181 1.977-2.181 1.017 0 1.727.664 1.727 1.659v5.977h1.364v-5.682c0-1.125.704-1.954 1.932-1.954.954 0 1.772.505 1.772 1.795v5.841h1.341v-5.841c0-2.051-1.102-3-2.659-3-1.25 0-2.165.574-2.613 1.477h-.091c-.432-.931-1.194-1.477-2.341-1.477-1.137 0-1.978.546-2.341 1.477h-.114v-1.363h-1.295zm16.474.205c1.523 0 2.318-.819 2.591-1.387h.068v1.182h1.341v-5.75c0-2.773-2.113-3.091-3.227-3.091-1.318 0-2.818.455-3.5 2.046l1.273.454c.295-.636.994-1.318 2.272-1.318 1.233 0 1.841.653 1.841 1.773v.045c0 .648-.659.591-2.25.796-1.619.21-3.386.568-3.386 2.568 0 1.704 1.318 2.682 2.977 2.682zm.205-1.205c-1.068 0-1.841-.477-1.841-1.409 0-1.023.932-1.341 1.977-1.477.568-.069 2.091-.228 2.318-.5v1.227c0 1.091-.863 2.159-2.454 2.159zm6.243 1h1.34v-8.727h-1.34zm.681-10.182c.523 0 .955-.409.955-.909s-.432-.909-.955-.909c-.522 0-.954.409-.954.909s.432.909.954.909zm4.456-1.454h-1.341v11.636h1.341z" fill="#626b76"/><path d="m191.25 158.822-3.822-3.822-1.302 1.292 5.124 5.125 11-11-1.292-1.293z" fill="#267edc"/></svg>