<svg width="135" height="135" viewBox="0 0 135 135" fill="none" xmlns="http://www.w3.org/2000/svg">
<g clip-path="url(#clip0)">
<mask id="mask0" mask-type="alpha" maskUnits="userSpaceOnUse" x="0" y="0" width="135" height="136">
<path d="M135 0.00488281H0V135.005H135V0.00488281Z" fill="#267EDC"/>
</mask>
<g mask="url(#mask0)">
<path d="M137 -2H-2V137H137V-2Z" fill="#267EDC"/>
<path fill-rule="evenodd" clip-rule="evenodd" d="M13.8324 56.1791L26.8465 78.7202L113.739 28.5527L116.981 29.4334L111.127 68.5949L110.269 71.8429L50.5174 106.341L50.5257 106.342L44.7282 109.689L44.737 109.705L7.83382 131.011L7.825 130.995L-48.2228 163.355L-51.4648 162.474L-45.611 123.312L-44.7526 120.064L-15.657 103.266L-15.6653 103.265L-10.0567 100.026L-40.8259 46.7325L-39.9594 43.4986L123.911 -51.1123L127.164 -50.2568L121.169 -11.2593L120.36 -8.05869L14.6989 52.9452L13.8324 56.1791ZM15.778 144.77L39.6596 186.134L42.8934 187.001L177.266 109.421L178.187 106.155L184.491 66.9792L181.284 66.0973L62.0416 134.942L58.8077 134.076L52.6811 123.464L15.778 144.77Z" fill="white"/>
<path fill-rule="evenodd" clip-rule="evenodd" d="M53.5573 54.5225C53.6794 54.452 53.8355 54.4939 53.9059 54.6159L56.72 59.4913C56.7904 59.6134 56.7486 59.7695 56.6265 59.8399C56.5045 59.9104 56.3484 59.8686 56.278 59.7465L53.4639 54.8711C53.3934 54.749 53.4353 54.593 53.5573 54.5225Z" fill="#CFE6FF"/>
<path fill-rule="evenodd" clip-rule="evenodd" d="M76.7155 92.418C76.8376 92.3476 76.9937 92.3894 77.0641 92.5115L79.8782 97.3869C79.9487 97.5089 79.9068 97.665 79.7847 97.7354C79.6627 97.8059 79.5066 97.7641 79.4362 97.642L76.6221 92.7666C76.5516 92.6445 76.5935 92.4885 76.7155 92.418Z" fill="#CFE6FF"/>
<path fill-rule="evenodd" clip-rule="evenodd" d="M57.7647 61.8927C57.8857 61.8203 58.0424 61.8597 58.1148 61.9806L63.8542 71.5651C63.9266 71.686 63.8873 71.8428 63.7664 71.9152C63.6454 71.9876 63.4887 71.9482 63.4163 71.8273L57.6769 62.2428C57.6045 62.1219 57.6438 61.9651 57.7647 61.8927Z" fill="#9CA3AE"/>
<path fill-rule="evenodd" clip-rule="evenodd" d="M69.3448 80.841C69.4657 80.7686 69.6225 80.8079 69.6949 80.9288L75.4343 90.5134C75.5067 90.6343 75.4674 90.791 75.3464 90.8634C75.2255 90.9358 75.0688 90.8965 74.9964 90.7756L69.257 81.191C69.1846 81.0701 69.2239 80.9134 69.3448 80.841Z" fill="#9CA3AE"/>
<path d="M70.0298 77.4249L69.7389 77.602L69.4864 77.624L67.0276 76.8647L66.9301 76.9238L66.4842 79.4597L66.3497 79.6753L66.0588 79.8524L65.9024 79.8139L65.488 79.1357L65.934 76.6011L65.875 76.5036L63.5726 75.7828L63.1582 75.1046L63.1952 74.948L63.4861 74.7709L63.7386 74.749L66.041 75.4698L66.1384 75.4107L66.5473 73.0313L66.6818 72.8158L66.9727 72.6387L67.1291 72.6771L67.5435 73.3554L67.1346 75.7348L67.1936 75.8322L69.6524 76.5915L70.0668 77.2698L70.0298 77.4249Z" fill="#9CA3AE"/>
<rect x="133" y="133" width="2" height="2" fill="white"/>
</g>
</g>
<defs>
<clipPath id="clip0">
<rect width="135" height="135" fill="white"/>
</clipPath>
</defs>
</svg>
