<svg fill="none" height="135" viewBox="0 0 135 135" width="135" xmlns="http://www.w3.org/2000/svg" xmlns:xlink="http://www.w3.org/1999/xlink"><clipPath id="a"><path d="m0 0h135v135h-135z"/></clipPath><g clip-path="url(#a)"><path d="m135 .00488281h-135v135.00011719h135z" fill="#267edc"/><path clip-rule="evenodd" d="m52.0545 63.7358 3.8673 6.6984 25.8215-14.908.9634.2617-1.7395 11.6374-.2551.9652-17.7561 10.2515.0025.0005-1.7229.9946.0027.0045-10.9664 6.3315-.0026-.0046-16.6555 9.6161-.9634-.2617 1.7396-11.6375.2551-.9652 8.6462-4.9918-.0025-.0005 1.6667-.9622-9.1435-15.8371.2575-.961 48.6967-28.1151.9667.2543-1.7815 11.5887-.2404.9511-31.399 18.1282zm.5781 26.3261 7.0968 12.2921.961.258 39.9316-23.0548.273-.9702 1.874-11.6418-.953-.262-35.4354 20.4582-.961-.2575-1.8206-3.1534z" fill="#fff" fill-rule="evenodd"/><g fill="#cfe6ff"><path d="m15.2609 19.355h-5.085l-.1134-.1134v-.9046l.1134-.2255 2.2603-1.808c1.1302-.9046 1.5825-1.469 1.5825-2.4857 0-.7912-.3389-1.4691-1.3556-1.4691s-1.4691.5644-1.4691 1.4691l-.1134.1134h-.9047l-.1134-.1134c0-1.4691.9047-2.4858 2.5992-2.4858 1.8079 0 2.4857 1.2436 2.4857 2.3737 0 1.4691-.6778 2.2603-1.8079 3.165l-1.6959 1.3556v.1134h3.6159l.1134.1134v.7912z"/><path d="m22.6072 19.3557h-.4523l-.2255-.1135-2.3737-3.1649h-.1134l-2.3737 3.1649-.2255.1135h-.4523l-.1135-.1135v-.7912l2.4872-3.1649v-.1121l-2.3737-2.826v-.7912l.1134-.1134h.4523l.2255.1134 2.2603 2.826h.1134l2.2603-2.826.2254-.1134h.4524l.1134.1134v.7912l-2.3737 2.826v.1135l2.4858 3.1649v.7912z"/><path d="m118.051 19.3554h-5.086l-.113-.1134v-.9046l.113-.2255 2.26-1.808c1.13-.9046 1.583-1.469 1.583-2.4857 0-.7913-.339-1.4691-1.356-1.4691s-1.469.5644-1.469 1.4691l-.113.1134h-.905l-.113-.1134c0-1.4691.904-2.4871 2.599-2.4871 1.808 0 2.486 1.2435 2.486 2.3737 0 1.469-.678 2.2602-1.808 3.1649l-1.696 1.3556v.1134h3.616l.113.1134v.7913z"/><path d="m125.396 19.3557h-.452l-.226-.1134-2.373-3.165h-.114l-2.373 3.165-.226.1134h-.452l-.114-.1134v-.7913l2.488-3.1649v-.1121l-2.374-2.826v-.7912l.113-.1134h.453l.225.1134 2.26 2.826h.114l2.26-2.826.226-.1134h.452l.113.1134v.7912l-2.372 2.826v.1135l2.486 3.1649v.7912z"/><path d="m15.2609 123.709h-5.085l-.1134-.114v-.905l.1134-.225 2.2603-1.808c1.1302-.905 1.5825-1.469 1.5825-2.486 0-.791-.3389-1.469-1.3556-1.469s-1.4691.565-1.4691 1.469l-.1134.114h-.9047l-.1134-.114c0-1.469.9047-2.485 2.5992-2.485 1.8079 0 2.4857 1.243 2.4857 2.373 0 1.469-.6778 2.261-1.8079 3.165l-1.6959 1.356v.113h3.6159l.1134.114v.791z"/><path d="m22.6072 123.71h-.4523l-.2255-.114-2.3737-3.165h-.1134l-2.3737 3.165-.2255.114h-.4523l-.1135-.114v-.791l2.4872-3.165v-.113l-2.3737-2.826v-.792l.1134-.113h.4523l.2255.113 2.2603 2.826h.1134l2.2603-2.826.2254-.113h.4524l.1134.113v.792l-2.3737 2.826v.113l2.4858 3.165v.791z"/><path d="m118.051 123.709h-5.086l-.113-.114v-.905l.113-.225 2.26-1.808c1.13-.905 1.583-1.469 1.583-2.486 0-.791-.339-1.469-1.356-1.469s-1.469.565-1.469 1.469l-.113.114h-.905l-.113-.114c0-1.469.904-2.485 2.599-2.485 1.808 0 2.486 1.243 2.486 2.373 0 1.469-.678 2.261-1.808 3.165l-1.696 1.356v.113h3.616l.113.114v.791z"/><path d="m125.396 123.71h-.452l-.226-.114-2.373-3.165h-.114l-2.373 3.165-.226.114h-.452l-.114-.114v-.791l2.488-3.165v-.113l-2.374-2.826v-.792l.113-.113h.453l.225.113 2.26 2.826h.114l2.26-2.826.226-.113h.452l.113.113v.792l-2.373 2.826v.113l2.485 3.165v.791z"/><g clip-rule="evenodd" fill-rule="evenodd"><path d="m.0253906 31.6927c0-.1409.1142524-.2552.2551904-.2552h134.739419c.141 0 .255.1143.255.2552s-.114.2552-.255.2552h-134.739419c-.140938 0-.2551904-.1143-.2551904-.2552z"/><path d="m32.2591-.25c.141 0 .2552.114252.2552.25519001v134.73980999c0 .141-.1142.255-.2552.255-.1409 0-.2552-.114-.2552-.255v-134.73980999c0-.14093801.1143-.25519001.2552-.25519001z"/><path d="m103.216-.25c.141 0 .255.114252.255.25519001v134.73980999c0 .141-.114.255-.255.255s-.255-.114-.255-.255v-134.73980999c0-.14093801.114-.25519001.255-.25519001z"/><path d="m.0253906 103.112c0-.141.1142524-.256.2551904-.256h134.739419c.141 0 .255.115.255.256s-.114.255-.255.255h-134.739419c-.140938 0-.2551904-.114-.2551904-.255z"/></g></g></g></svg>