<svg width="135" height="135" viewBox="0 0 135 135" fill="none" xmlns="http://www.w3.org/2000/svg">
<mask id="mask0" mask-type="alpha" maskUnits="userSpaceOnUse" x="0" y="0" width="135" height="135">
<path d="M134.74 0.00488281H0V134.745H134.74V0.00488281Z" fill="#267EDC"/>
</mask>
<g mask="url(#mask0)">
<path d="M134.74 0.00488281H0V135.108H134.74V0.00488281Z" fill="#267EDC"/>
<path fill-rule="evenodd" clip-rule="evenodd" d="M13.8331 56.1793L26.8472 78.7204L113.74 28.5529L116.982 29.4336L111.128 68.5951L110.27 71.8431L50.5181 106.341L50.5264 106.342L44.7289 109.689L44.7377 109.705L7.83456 131.011L7.82575 130.995L-48.2221 163.355L-51.4641 162.474L-45.6103 123.312L-44.7519 120.064L-15.6563 103.266L-15.6646 103.265L-10.056 100.026L-40.8252 46.7327L-39.9587 43.4988L123.912 -51.1121L127.165 -50.2566L121.17 -11.2591L120.361 -8.05848L14.6996 52.9454L13.8331 56.1793ZM15.7787 144.77L39.6603 186.134L42.8941 187.001L177.267 109.421L178.188 106.155L184.492 66.9794L181.285 66.0975L62.0423 134.942L58.8084 134.076L52.6818 123.464L15.7787 144.77Z" fill="white"/>
<path fill-rule="evenodd" clip-rule="evenodd" d="M53.5583 54.5225C53.6804 54.452 53.8365 54.4939 53.9069 54.6159L56.721 59.4913C56.7914 59.6134 56.7496 59.7695 56.6275 59.8399C56.5055 59.9104 56.3494 59.8686 56.279 59.7465L53.4649 54.8711C53.3944 54.749 53.4363 54.593 53.5583 54.5225Z" fill="#CFE6FF"/>
<path fill-rule="evenodd" clip-rule="evenodd" d="M76.7165 92.418C76.8386 92.3476 76.9947 92.3894 77.0651 92.5115L79.8792 97.3869C79.9497 97.5089 79.9078 97.665 79.7857 97.7354C79.6637 97.8059 79.5076 97.7641 79.4372 97.642L76.6231 92.7666C76.5526 92.6445 76.5945 92.4885 76.7165 92.418Z" fill="#CFE6FF"/>
<path fill-rule="evenodd" clip-rule="evenodd" d="M57.7647 61.8927C57.8857 61.8203 58.0424 61.8597 58.1148 61.9806L63.8542 71.5651C63.9266 71.686 63.8873 71.8428 63.7664 71.9152C63.6454 71.9876 63.4887 71.9482 63.4163 71.8273L57.6769 62.2428C57.6045 62.1219 57.6438 61.9651 57.7647 61.8927Z" fill="#9CA3AE"/>
<path fill-rule="evenodd" clip-rule="evenodd" d="M69.3448 80.841C69.4657 80.7686 69.6225 80.8079 69.6949 80.9288L75.4343 90.5134C75.5067 90.6343 75.4674 90.791 75.3464 90.8634C75.2255 90.9358 75.0688 90.8965 74.9964 90.7756L69.257 81.191C69.1846 81.0701 69.2239 80.9134 69.3448 80.841Z" fill="#9CA3AE"/>
<path d="M70.0308 77.4249L69.7399 77.602L69.4874 77.624L67.0286 76.8647L66.9311 76.9238L66.4852 79.4597L66.3507 79.6753L66.0598 79.8524L65.9034 79.8139L65.489 79.1357L65.935 76.6011L65.876 76.5036L63.5736 75.7828L63.1592 75.1046L63.1962 74.948L63.4871 74.7709L63.7396 74.749L66.042 75.4698L66.1394 75.4107L66.5483 73.0313L66.6828 72.8158L66.9737 72.6387L67.1301 72.6771L67.5445 73.3554L67.1356 75.7348L67.1946 75.8322L69.6534 76.5915L70.0678 77.2698L70.0308 77.4249Z" fill="#9CA3AE"/>
</g>
</svg>
