<svg fill="none" height="95" viewBox="0 0 143 95" width="143" xmlns="http://www.w3.org/2000/svg"><path d="m.0263672 0v94.9434h142.9736328v-94.9434z" fill="#fff"/><circle cx="71.5131" cy="48.0297" fill="#267edc" r="34.6264"/><path clip-rule="evenodd" d="m62.5623 45.9407 2.2194 3.844 14.8182-8.5553.5529.1502-.9983 6.6784-.1464.5539-10.1897 5.8831.0014.0002-.9887.5708.0015.0026-6.2932 3.6334-.0015-.0026-9.5581 5.5184-.5529-.1502.9983-6.6784.1463-.5539 4.9619-2.8647-.0015-.0002.9565-.5522-5.2472-9.0885.1478-.5515 27.9456-16.1344.5548.1459-1.0223 6.6504-.138.5458-18.019 10.4033zm.3318 15.1078 4.0727 7.0541.5514.1477 22.9153-13.2301.157-.5568 1.0751-6.6809-.547-.1504-20.3349 11.7404-.5515-.1478-1.0448-1.8096z" fill="#fff" fill-rule="evenodd"/></svg>