<svg fill="none" height="89" viewBox="0 0 99 89" width="99" xmlns="http://www.w3.org/2000/svg"><path d="m99 89h-99v-89h99z" fill="#1f2f47"/><path clip-rule="evenodd" d="m34.422 40.981 3.7388 6.4759 24.9635-14.4127.9314.253-1.6817 11.2508-.2466.9331-17.1661 9.9108.0024.0005-1.6656.9616.0025.0044-10.6019 6.121-.0026-.0044-16.102 9.2965-.9314-.253 1.6818-11.2507.2466-.9331 8.3589-4.8261-.0024-.0004 1.6113-.9303-8.8397-15.3108.2489-.9291 47.0787-27.1808.9345.2457-1.7223 11.2037-.2324.9195-30.3557 17.5259zm.5589 25.4514 6.861 11.8836.9291.2489 38.6042-22.2881.2645-.9381 1.811-11.2549-.9214-.2533-34.2572 19.7784-.9291-.2489-1.7601-3.0486z" fill="#fff" fill-rule="evenodd"/></svg>