<svg fill="none" height="218" viewBox="0 0 781 218" width="781" xmlns="http://www.w3.org/2000/svg"><path d="m279 1h490c6.075 0 11 4.92487 11 11v194c0 6.075-4.925 11-11 11h-490z" fill="#f0f2f4" stroke="#b4bac4" stroke-width="2"/><path d="m318.885 77.0001h2.153v-4.206h4.141v-1.7748h-4.141v-2.4261h4.588v-1.7749h-6.741z" fill="#1f2f47"/><path d="m329.949 77.1493c2.317 0 3.759-1.586 3.759-3.9375 0-2.3665-1.442-3.9475-3.759-3.9475-2.322 0-3.758 1.581-3.758 3.9475 0 2.3515 1.436 3.9375 3.758 3.9375zm.01-1.6407c-1.069 0-1.616-.9794-1.616-2.3118 0-1.3323.547-2.3167 1.616-2.3167 1.049 0 1.596.9844 1.596 2.3167 0 1.3324-.547 2.3118-1.596 2.3118z" fill="#1f2f47"/><path d="m337.233 72.5853c.005-.9843.591-1.561 1.446-1.561.85 0 1.363.5568 1.358 1.4914v4.4844h2.117v-4.8622c0-1.7798-1.044-2.8736-2.634-2.8736-1.134 0-1.954.5568-2.297 1.4467h-.09v-1.3473h-2.018v7.6364h2.118z" fill="#1f2f47"/><path d="m347.885 69.3637h-1.436v-1.8295h-2.118v1.8295h-1.044v1.591h1.044v3.9623c-.01 1.4915 1.009 2.2323 2.545 2.1726.547-.0249.935-.1342 1.149-.1989l-.333-1.5809c-.105.0248-.329.0696-.527.0696-.423 0-.731-.1591-.716-.7458v-3.6789h1.436z" fill="#1f2f47"/><path d="m358.886 71.5413c-.189-1.407-1.322-2.277-3.251-2.277-1.954 0-3.242.9048-3.237 2.3764-.005 1.1435.716 1.8843 2.208 2.1826l1.322.2635c.666.1342.97.3778.98.7606-.01.4524-.502.7756-1.243.7756-.756 0-1.258-.3232-1.387-.9446l-2.083.1094c.198 1.4616 1.441 2.3615 3.465 2.3615 1.978 0 3.395-1.0093 3.4-2.5157-.005-1.1037-.725-1.7649-2.207-2.0681l-1.382-.2785c-.711-.1541-.975-.3977-.97-.7656-.005-.4574.512-.7557 1.169-.7557.736 0 1.173.4027 1.277.8949z" fill="#1f2f47"/><path d="m360.394 77.0001h2.118v-7.6364h-2.118zm1.064-8.5412c.616 0 1.148-.4673 1.148-1.0738 0-.6016-.532-1.0689-1.148-1.0689-.612 0-1.144.4673-1.144 1.0689 0 .6065.532 1.0738 1.144 1.0738z" fill="#1f2f47"/><path d="m364.169 77.0001h6.393v-1.6903h-3.614v-.0547l3.51-4.5142v-1.3772h-6.24v1.6904h3.689v.0547l-3.738 4.6285z" fill="#1f2f47"/><path d="m375.488 77.1493c1.894 0 3.162-.9198 3.46-2.3367l-1.954-.1292c-.214.5816-.765.8849-1.466.8849-1.059 0-1.731-.701-1.731-1.8395v-.005h5.201v-.5816c0-2.5952-1.571-3.8779-3.59-3.8779-2.247 0-3.704 1.5959-3.704 3.9524 0 2.4212 1.437 3.9326 3.784 3.9326zm-1.691-4.738c.04-.87.706-1.566 1.646-1.566.915 0 1.551.6562 1.561 1.566z" fill="#1f2f47"/><path d="m381.697 71.7849c.647 0 1.198-.5319 1.208-1.1932-.01-.6463-.561-1.1733-1.208-1.1733-.651 0-1.198.5171-1.193 1.1733-.005.6613.537 1.1932 1.193 1.1932zm0 5.3445c.647 0 1.198-.532 1.208-1.1932-.01-.6463-.561-1.1733-1.208-1.1733-.651 0-1.198.517-1.193 1.1733-.005.6612.537 1.1932 1.193 1.1932z" fill="#1f2f47"/><path d="m392.236 77.1391c1.939 0 3.361-1.4318 3.361-3.3806 0-1.9738-1.373-3.4205-3.242-3.4205-.686 0-1.352.2436-1.77.5767h-.059l.358-3.0028h4.255v-1.0938h-5.29l-.616 5.0114 1.153.1392c.423-.3033 1.144-.522 1.77-.5171 1.298.01 2.247.9944 2.247 2.3267 0 1.3076-.914 2.2671-2.167 2.2671-1.044 0-1.875-.6712-1.969-1.5909h-1.193c.074 1.5511 1.412 2.6846 3.162 2.6846z" fill="#1f2f47"/><path d="m397.333 74.9119h4.793v2.088h1.173v-2.088h1.392v-1.0938h-1.392v-7h-1.492l-4.474 7.0796zm4.793-1.0938h-3.461v-.0795l3.381-5.3495h.08z" fill="#1f2f47"/><path d="m410.074 77.159c1.909 0 3.241-1.5312 3.241-3.9574 0-2.4062-1.332-3.9375-3.261-3.9375-1.492 0-1.949.9148-2.207 1.3125h-.14v-1.213h-1.133v10.5h1.173v-4.037h.1c.258.4177.755 1.3324 2.227 1.3324zm-.159-1.054c-1.412 0-2.188-1.1931-2.188-2.9232 0-1.7103.756-2.8637 2.188-2.8637 1.491 0 2.227 1.2529 2.227 2.8637 0 1.6306-.756 2.9232-2.227 2.9232z" fill="#1f2f47"/><path d="m415.666 69.3636h-1.353l2.427 3.8182-2.427 3.8181h1.353l1.829-2.963 1.83 2.963h1.352l-2.466-3.8181 2.466-3.8182h-1.352l-1.83 3.1221z" fill="#1f2f47"/><path d="m318.885 101h2.153v-4.2059h4.141v-1.7748h-4.141v-2.4261h4.588v-1.7749h-6.741z" fill="#1f2f47"/><path d="m329.949 101.149c2.317 0 3.759-1.5857 3.759-3.9372 0-2.3665-1.442-3.9475-3.759-3.9475-2.322 0-3.758 1.581-3.758 3.9475 0 2.3515 1.436 3.9372 3.758 3.9372zm.01-1.6404c-1.069 0-1.616-.9794-1.616-2.3118 0-1.3323.547-2.3167 1.616-2.3167 1.049 0 1.596.9844 1.596 2.3167 0 1.3324-.547 2.3118-1.596 2.3118z" fill="#1f2f47"/><path d="m337.233 96.5853c.005-.9843.591-1.561 1.446-1.561.85 0 1.363.5568 1.358 1.4914v4.4843h2.117v-4.8621c0-1.7798-1.044-2.8736-2.634-2.8736-1.134 0-1.954.5568-2.297 1.4467h-.09v-1.3473h-2.018v7.6363h2.118z" fill="#1f2f47"/><path d="m347.885 93.3637h-1.436v-1.8295h-2.118v1.8295h-1.044v1.591h1.044v3.9623c-.01 1.491 1.009 2.232 2.545 2.173.547-.025.935-.135 1.149-.199l-.333-1.5812c-.105.0248-.329.0696-.527.0696-.423 0-.731-.1591-.716-.7458v-3.6789h1.436z" fill="#1f2f47"/><path d="m354.039 101h2.237l1.313-4.8024h.094l1.313 4.8024h2.242l2.073-7.6363h-2.138l-1.163 5.1009h-.065l-1.253-5.1009h-2.103l-1.232 5.1307h-.07l-1.183-5.1307h-2.143z" fill="#1f2f47"/><path d="m367.749 101.149c1.895 0 3.162-.919 3.461-2.3364l-1.954-.1292c-.214.5816-.766.8849-1.467.8849-1.059 0-1.73-.701-1.73-1.8395v-.005h5.2v-.5816c0-2.5952-1.571-3.8779-3.589-3.8779-2.247 0-3.704 1.5959-3.704 3.9524 0 2.4212 1.437 3.9323 3.783 3.9323zm-1.69-4.7377c.04-.87.706-1.566 1.646-1.566.914 0 1.551.6562 1.561 1.566z" fill="#1f2f47"/><path d="m372.671 101h2.118v-7.6363h-2.118zm1.064-8.5411c.617 0 1.149-.4673 1.149-1.0738 0-.6016-.532-1.0689-1.149-1.0689-.611 0-1.143.4673-1.143 1.0689 0 .6065.532 1.0738 1.143 1.0738z" fill="#1f2f47"/><path d="m379.663 103.973c2.471 0 3.982-1.278 3.982-3.246v-7.3633h-2.088v1.2827h-.08c-.283-.6214-.905-1.3821-2.182-1.3821-1.676 0-3.093 1.3026-3.093 3.9027 0 2.5405 1.378 3.724 3.098 3.724 1.218 0 1.899-.612 2.177-1.2432h.115v1.0442c.005.994-.841 1.64-1.919 1.64-.965 0-1.552-.507-1.835-.845l-1.402 1.074c.537.766 1.502 1.412 3.227 1.412zm.308-4.6732c-1.039 0-1.606-.8253-1.606-2.1427 0-1.2976.557-2.2074 1.606-2.2074 1.029 0 1.606.87 1.606 2.2074 0 1.3473-.587 2.1427-1.606 2.1427z" fill="#1f2f47"/><path d="m387.463 96.5853c.005-.9843.607-1.561 1.472-1.561.86 0 1.367.5518 1.362 1.4914v4.4843h2.118v-4.8621c.005-1.7898-1.049-2.8736-2.64-2.8736-1.159 0-1.934.5469-2.282 1.4467h-.09v-3.8927h-2.058v10.1817h2.118z" fill="#1f2f47"/><path d="m398.143 93.3637h-1.436v-1.8295h-2.118v1.8295h-1.044v1.591h1.044v3.9623c-.01 1.491 1.009 2.232 2.545 2.173.547-.025.935-.135 1.149-.199l-.334-1.5812c-.104.0248-.328.0696-.527.0696-.422 0-.73-.1591-.715-.7458v-3.6789h1.436z" fill="#1f2f47"/><path d="m400.838 95.7849c.646 0 1.198-.5319 1.208-1.1932-.01-.6463-.562-1.1733-1.208-1.1733-.651 0-1.198.5171-1.193 1.1733-.005.6613.537 1.1932 1.193 1.1932zm0 5.3441c.646 0 1.198-.532 1.208-1.1928-.01-.6463-.562-1.1733-1.208-1.1733-.651 0-1.198.517-1.193 1.1733-.005.6608.537 1.1928 1.193 1.1928z" fill="#1f2f47"/><path d="m411.435 101.139c2.058.025 3.4-1.5262 3.4-3.4203 0-1.9688-1.456-3.3807-3.201-3.3807-1.049 0-1.949.5121-2.506 1.3523h-.08c.005-2.5008.97-3.9375 2.546-3.9375 1.074 0 1.72.6761 1.949 1.6107h1.213c-.249-1.6008-1.452-2.7045-3.162-2.7045-2.292 0-3.699 2.0284-3.699 5.6477 0 3.7633 1.869 4.8123 3.54 4.8323zm0-1.094c-1.278 0-2.213-1.0884-2.208-2.3065.005-1.218.985-2.3068 2.247-2.3068 1.248 0 2.168 1.0242 2.168 2.287 0 1.2926-.959 2.3263-2.207 2.3263z" fill="#1f2f47"/><path d="m420.151 101.139c2.148 0 3.5-2.0084 3.5-5.23 0-3.2017-1.352-5.2301-3.5-5.2301s-3.5 2.0284-3.5 5.2301c0 3.2216 1.352 5.23 3.5 5.23zm0-1.094c-1.382 0-2.287-1.5905-2.287-4.136s.895-4.1562 2.287-4.1562 2.287 1.6107 2.287 4.1562-.905 4.136-2.287 4.136z" fill="#1f2f47"/><path d="m428.983 101.139c2.148 0 3.5-2.0084 3.5-5.23 0-3.2017-1.352-5.2301-3.5-5.2301s-3.5 2.0284-3.5 5.2301c0 3.2216 1.352 5.23 3.5 5.23zm0-1.094c-1.382 0-2.287-1.5905-2.287-4.136s.895-4.1562 2.287-4.1562 2.287 1.6107 2.287 4.1562-.905 4.136-2.287 4.136z" fill="#1f2f47"/><path d="m442.011 90.3408h-1.074l-3.281 12.1902h1.074z" fill="#1f2f47"/><path d="m453.067 93.3635h1.193c-.055-1.5362-1.472-2.6846-3.44-2.6846-1.949 0-3.48 1.1335-3.48 2.8437 0 1.3722.994 2.1875 2.585 2.6449l1.253.358c1.073.2983 2.028.6761 2.028 1.6903 0 1.1137-1.074 1.8492-2.486 1.8492-1.213 0-2.287-.5367-2.386-1.6901h-1.273c.119 1.6701 1.472 2.8041 3.659 2.8041 2.347 0 3.679-1.2927 3.679-2.9433 0-1.9091-1.81-2.5256-2.863-2.804l-1.035-.2784c-.755-.1988-1.968-.5966-1.968-1.6903 0-.9745.895-1.6904 2.247-1.6904 1.233 0 2.167.5867 2.287 1.5909z" fill="#1f2f47"/><path d="m459.469 101.159c1.551 0 2.685-.776 3.043-1.929l-1.134-.3182c-.298.7955-.989 1.1932-1.909 1.1932-1.377 0-2.327-.8899-2.381-2.5255h5.543v-.4972c0-2.8438-1.69-3.8182-3.281-3.8182-2.069 0-3.441 1.6307-3.441 3.9773s1.353 3.9176 3.56 3.9176zm-2.381-4.5937c.079-1.1883.919-2.2472 2.262-2.2472 1.272 0 2.088.9545 2.088 2.2472z" fill="#1f2f47"/><path d="m464.416 101h1.173v-4.7728c0-1.1186.815-1.9091 1.73-1.9091.89 0 1.511.5817 1.511 1.4517v5.2302h1.194v-4.9717c0-.9844.616-1.7102 1.69-1.7102.835 0 1.551.4425 1.551 1.571v5.1109h1.173v-5.1109c0-1.7947-.964-2.625-2.326-2.625-1.094 0-1.894.5021-2.287 1.2926h-.08c-.378-.8153-1.044-1.2926-2.048-1.2926-.994 0-1.73.4773-2.048 1.2926h-.1v-1.1932h-1.133z" fill="#1f2f47"/><path d="m476.584 101h1.173v-7.6365h-1.173zm.596-8.8893c.458 0 .835-.3579.835-.7954s-.377-.7955-.835-.7955c-.457 0-.835.358-.835.7955s.378.7954.835.7954z" fill="#1f2f47"/><path d="m479.906 101h1.133v-1.1734h.14c.258.4174.755 1.3324 2.227 1.3324 1.909 0 3.241-1.5312 3.241-3.9574 0-2.4062-1.332-3.9375-3.261-3.9375-1.491 0-1.949.9148-2.207 1.3125h-.1v-3.7585h-1.173zm1.153-3.8183c0-1.7102.756-2.8636 2.188-2.8636 1.491 0 2.227 1.2528 2.227 2.8636 0 1.6307-.756 2.9233-2.227 2.9233-1.412 0-2.188-1.1932-2.188-2.9233z" fill="#1f2f47"/><path d="m491.539 101.159c2.069 0 3.461-1.571 3.461-3.9375 0-2.3864-1.392-3.9574-3.461-3.9574-2.068 0-3.46 1.571-3.46 3.9574 0 2.3665 1.392 3.9375 3.46 3.9375zm0-1.054c-1.571 0-2.287-1.3522-2.287-2.8835 0-1.5312.716-2.9034 2.287-2.9034s2.287 1.3722 2.287 2.9034c0 1.5313-.716 2.8835-2.287 2.8835z" fill="#1f2f47"/><path d="m497.964 90.8181h-1.173v10.1819h1.173z" fill="#1f2f47"/><path d="m506.496 101v-10.1819h-1.173v3.7585h-.099c-.259-.3977-.716-1.3125-2.208-1.3125-1.929 0-3.261 1.5313-3.261 3.9375 0 2.4262 1.332 3.9574 3.241 3.9574 1.472 0 1.969-.915 2.228-1.3324h.139v1.1734zm-1.153-3.8183c0 1.7301-.776 2.9233-2.187 2.9233-1.472 0-2.228-1.2926-2.228-2.9233 0-1.6108.736-2.8636 2.228-2.8636 1.431 0 2.187 1.1534 2.187 2.8636z" fill="#1f2f47"/><path d="m327.869 118.383c-.284-2.352-2.064-3.704-4.42-3.704-2.69 0-4.743 1.899-4.743 5.23 0 3.321 2.018 5.23 4.743 5.23 2.61 0 4.186-1.735 4.42-3.609l-2.178-.01c-.204 1.089-1.059 1.715-2.207 1.715-1.547 0-2.596-1.148-2.596-3.326 0-2.118 1.035-3.326 2.611-3.326 1.178 0 2.028.681 2.192 1.8z" fill="#1f2f47"/><path d="m331.49 120.585c.005-.984.607-1.561 1.472-1.561.86 0 1.367.552 1.362 1.492v4.484h2.118v-4.862c.005-1.79-1.049-2.874-2.64-2.874-1.158 0-1.934.547-2.282 1.447h-.089v-3.893h-2.059v10.182h2.118z" fill="#1f2f47"/><path d="m340.286 125.144c1.129 0 1.86-.492 2.233-1.203h.059v1.059h2.009v-5.15c0-1.82-1.556-2.586-3.207-2.586-1.879 0-3.067.875-3.361 2.267l1.959.159c.144-.507.597-.88 1.357-.88.731 0 1.129.358 1.134 1 .005.502-.522.576-1.85.706-1.511.139-2.868.646-2.868 2.351 0 1.512 1.079 2.277 2.535 2.277zm.607-1.461c-.651 0-1.119-.304-1.119-.885 0-.597.492-.89 1.238-.995.463-.064 1.218-.174 1.472-.343v.811c0 .8-.661 1.412-1.591 1.412z" fill="#1f2f47"/><path d="m346.23 125h2.118v-4.32c.005-.935.681-1.576 1.536-1.576.288 0 .522.079.721.179l.636-1.75c-.278-.169-.636-.279-1.044-.279-.86 0-1.556.498-1.834 1.442h-.08v-1.332h-2.053z" fill="#1f2f47"/><path d="m354.191 125.144c1.128 0 1.859-.492 2.232-1.203h.06v1.059h2.008v-5.15c0-1.82-1.556-2.586-3.207-2.586-1.879 0-3.067.875-3.36 2.267l1.958.159c.145-.507.597-.88 1.358-.88.73 0 1.128.358 1.133 1 .005.502-.522.576-1.849.706-1.512.139-2.869.646-2.869 2.351 0 1.512 1.079 2.277 2.536 2.277zm.606-1.461c-.651 0-1.118-.304-1.118-.885 0-.597.492-.89 1.238-.995.462-.064 1.218-.174 1.471-.343v.811c0 .8-.661 1.412-1.591 1.412z" fill="#1f2f47"/><path d="m363.609 125.149c2.034 0 3.311-1.193 3.406-2.948h-1.994c-.124.815-.661 1.273-1.387 1.273-.989 0-1.63-.83-1.63-2.292 0-1.442.646-2.267 1.63-2.267.776 0 1.268.512 1.387 1.273h1.994c-.085-1.765-1.422-2.924-3.416-2.924-2.316 0-3.748 1.606-3.748 3.948 0 2.321 1.407 3.937 3.758 3.937z" fill="#1f2f47"/><path d="m372.44 117.364h-1.437v-1.83h-2.118v1.83h-1.044v1.591h1.044v3.962c-.01 1.491 1.01 2.232 2.546 2.173.547-.025.935-.135 1.148-.199l-.333-1.581c-.104.025-.328.069-.527.069-.422 0-.731-.159-.716-.745v-3.679h1.437z" fill="#1f2f47"/><path d="m377.265 125.149c1.894 0 3.162-.919 3.46-2.336l-1.954-.13c-.213.582-.765.885-1.466.885-1.059 0-1.73-.701-1.73-1.839v-.005h5.2v-.582c0-2.595-1.571-3.878-3.589-3.878-2.248 0-3.704 1.596-3.704 3.953 0 2.421 1.436 3.932 3.783 3.932zm-1.69-4.738c.039-.87.706-1.566 1.645-1.566.915 0 1.551.657 1.561 1.566z" fill="#1f2f47"/><path d="m382.187 125h2.118v-4.32c.005-.935.681-1.576 1.536-1.576.288 0 .522.079.721.179l.636-1.75c-.278-.169-.636-.279-1.044-.279-.86 0-1.556.498-1.834 1.442h-.08v-1.332h-2.053z" fill="#1f2f47"/><path d="m397.783 119.541c-.189-1.407-1.323-2.277-3.252-2.277-1.953 0-3.241.905-3.236 2.377-.005 1.143.716 1.884 2.207 2.182l1.323.264c.666.134.969.378.979.76-.01.453-.502.776-1.243.776-.755 0-1.258-.323-1.387-.945l-2.083.11c.199 1.461 1.442 2.361 3.465 2.361 1.979 0 3.396-1.009 3.401-2.515-.005-1.104-.726-1.765-2.208-2.069l-1.382-.278c-.711-.154-.974-.398-.969-.766-.005-.457.512-.755 1.168-.755.736 0 1.173.402 1.278.895z" fill="#1f2f47"/><path d="m403.641 125.124c1.745 0 3.102-1.377 3.097-3.932.005-2.625-1.412-3.928-3.092-3.928-1.278 0-1.89.761-2.173 1.382h-.094v-1.282h-2.089v10.5h2.118v-4.087h.065c.288.636.93 1.347 2.168 1.347zm-.672-1.685c-1.019 0-1.6-.89-1.605-2.257.005-1.357.576-2.232 1.605-2.232 1.049 0 1.606.905 1.606 2.232 0 1.337-.567 2.257-1.606 2.257z" fill="#1f2f47"/><path d="m410.327 125.144c1.129 0 1.86-.492 2.233-1.203h.059v1.059h2.009v-5.15c0-1.82-1.556-2.586-3.207-2.586-1.879 0-3.067.875-3.361 2.267l1.959.159c.144-.507.597-.88 1.357-.88.731 0 1.129.358 1.134 1 .005.502-.522.576-1.85.706-1.511.139-2.868.646-2.868 2.351 0 1.512 1.079 2.277 2.535 2.277zm.607-1.461c-.651 0-1.119-.304-1.119-.885 0-.597.492-.89 1.238-.995.463-.064 1.218-.174 1.472-.343v.811c0 .8-.661 1.412-1.591 1.412z" fill="#1f2f47"/><path d="m419.746 125.149c2.033 0 3.311-1.193 3.406-2.948h-1.994c-.124.815-.661 1.273-1.387 1.273-.989 0-1.631-.83-1.631-2.292 0-1.442.647-2.267 1.631-2.267.775 0 1.268.512 1.387 1.273h1.994c-.085-1.765-1.422-2.924-3.416-2.924-2.317 0-3.748 1.606-3.748 3.948 0 2.321 1.407 3.937 3.758 3.937z" fill="#1f2f47"/><path d="m424.515 125h2.118v-7.636h-2.118zm1.064-8.541c.616 0 1.148-.467 1.148-1.074 0-.602-.532-1.069-1.148-1.069-.612 0-1.143.467-1.143 1.069 0 .607.531 1.074 1.143 1.074z" fill="#1f2f47"/><path d="m430.447 120.585c.005-.984.592-1.561 1.447-1.561.85 0 1.362.557 1.357 1.492v4.484h2.118v-4.862c0-1.78-1.044-2.874-2.635-2.874-1.133 0-1.953.557-2.297 1.447h-.089v-1.347h-2.018v7.636h2.117z" fill="#1f2f47"/><path d="m440.215 127.973c2.471 0 3.983-1.278 3.983-3.246v-7.363h-2.088v1.282h-.08c-.283-.621-.905-1.382-2.183-1.382-1.675 0-3.092 1.303-3.092 3.903 0 2.54 1.377 3.724 3.097 3.724 1.218 0 1.9-.612 2.178-1.243h.114v1.044c.005.994-.84 1.64-1.919 1.64-.964 0-1.551-.507-1.834-.845l-1.402 1.074c.537.766 1.501 1.412 3.226 1.412zm.309-4.673c-1.039 0-1.606-.825-1.606-2.143 0-1.298.557-2.207 1.606-2.207 1.029 0 1.605.87 1.605 2.207 0 1.347-.586 2.143-1.605 2.143z" fill="#1f2f47"/><path d="m447.186 119.785c.646 0 1.198-.532 1.208-1.193-.01-.647-.562-1.174-1.208-1.174-.652 0-1.199.517-1.194 1.174-.005.661.537 1.193 1.194 1.193zm0 5.344c.646 0 1.198-.532 1.208-1.193-.01-.646-.562-1.173-1.208-1.173-.652 0-1.199.517-1.194 1.173-.005.661.537 1.193 1.194 1.193z" fill="#1f2f47"/><path d="m459.449 119.352h-4.455v1.094h4.455z" fill="#1f2f47"/><path d="m464.854 125.139c2.148 0 3.5-2.008 3.5-5.23 0-3.202-1.352-5.23-3.5-5.23-2.147 0-3.5 2.028-3.5 5.23 0 3.222 1.353 5.23 3.5 5.23zm0-1.094c-1.382 0-2.287-1.59-2.287-4.136 0-2.545.895-4.156 2.287-4.156s2.287 1.611 2.287 4.156c0 2.546-.905 4.136-2.287 4.136z" fill="#1f2f47"/><path d="m471.2 125.08c.498 0 .895-.398.895-.895 0-.478-.397-.875-.895-.875-.477 0-.894.377-.894.875 0 .497.397.895.894.895z" fill="#1f2f47"/><path d="m477.143 125.139c1.973 0 3.44-1.238 3.44-2.903 0-1.293-.766-2.232-2.048-2.446v-.08c1.029-.313 1.67-1.158 1.67-2.307 0-1.441-1.138-2.724-3.022-2.724-1.76 0-3.222 1.084-3.282 2.685h1.193c.045-1.015 1.01-1.611 2.069-1.611 1.123 0 1.849.681 1.849 1.71 0 1.074-.84 1.77-2.048 1.77h-.816v1.094h.816c1.546 0 2.406.785 2.406 1.909 0 1.079-.94 1.809-2.247 1.809-1.178 0-2.113-.606-2.188-1.59h-1.252c.074 1.6 1.486 2.684 3.46 2.684z" fill="#1f2f47"/><path d="m485.977 125.139c2.148 0 3.5-2.008 3.5-5.23 0-3.202-1.352-5.23-3.5-5.23-2.147 0-3.5 2.028-3.5 5.23 0 3.222 1.353 5.23 3.5 5.23zm0-1.094c-1.382 0-2.287-1.59-2.287-4.136 0-2.545.895-4.156 2.287-4.156s2.287 1.611 2.287 4.156c0 2.546-.905 4.136-2.287 4.136z" fill="#1f2f47"/><path d="m494.67 125.159c1.551 0 2.685-.775 3.043-1.929l-1.134-.318c-.298.795-.989 1.193-1.909 1.193-1.377 0-2.327-.89-2.381-2.525h5.543v-.498c0-2.843-1.69-3.818-3.281-3.818-2.068 0-3.441 1.631-3.441 3.977 0 2.347 1.353 3.918 3.56 3.918zm-2.381-4.594c.079-1.188.919-2.247 2.262-2.247 1.273 0 2.088.955 2.088 2.247z" fill="#1f2f47"/><path d="m499.617 125h1.173v-4.773c0-1.118.815-1.909 1.73-1.909.89 0 1.512.582 1.512 1.452v5.23h1.193v-4.972c0-.984.616-1.71 1.69-1.71.835 0 1.551.443 1.551 1.571v5.111h1.174v-5.111c0-1.795-.965-2.625-2.327-2.625-1.094 0-1.894.502-2.287 1.293h-.08c-.377-.816-1.044-1.293-2.048-1.293-.994 0-1.73.477-2.048 1.293h-.1v-1.193h-1.133z" fill="#1f2f47"/><path d="m407.375 149c3.102 0 4.852-1.929 4.852-5.111 0-3.162-1.75-5.071-4.713-5.071h-3.281v10.182zm-1.909-1.094v-7.994h1.969c2.386 0 3.599 1.511 3.599 3.977 0 2.486-1.213 4.017-3.739 4.017z" fill="#1f2f47"/><path d="m417.338 149.159c1.551 0 2.685-.776 3.043-1.929l-1.134-.318c-.298.795-.989 1.193-1.909 1.193-1.377 0-2.327-.89-2.381-2.526h5.543v-.497c0-2.843-1.69-3.818-3.281-3.818-2.068 0-3.441 1.631-3.441 3.977 0 2.347 1.353 3.918 3.56 3.918zm-2.381-4.594c.079-1.188.919-2.247 2.262-2.247 1.272 0 2.088.955 2.088 2.247z" fill="#1f2f47"/><path d="m425.685 141.364h-1.71v-.776c0-.756.318-1.153 1.094-1.153.338 0 .537.079.656.119l.338-1.014c-.179-.08-.537-.199-1.113-.199-1.094 0-2.148.656-2.148 1.969v1.054h-1.233v.994h1.233v6.642h1.173v-6.642h1.71z" fill="#1f2f47"/><path d="m429.262 149.179c1.333 0 2.029-.716 2.267-1.213h.06v1.034h1.173v-5.031c0-2.426-1.849-2.705-2.823-2.705-1.154 0-2.466.398-3.063 1.79l1.114.398c.258-.557.87-1.154 1.988-1.154 1.089 0 1.611.582 1.611 1.571 0 .567-.577.537-1.969.716-1.417.184-2.963.497-2.963 2.247 0 1.492 1.154 2.347 2.605 2.347zm.179-1.054c-.934 0-1.61-.418-1.61-1.233 0-.895.815-1.173 1.73-1.293.497-.059 1.829-.199 2.028-.437v1.074c0 .954-.756 1.889-2.148 1.889z" fill="#1f2f47"/><path d="m439.716 145.878c0 1.432-1.093 2.088-1.968 2.088-.975 0-1.671-.716-1.671-1.83v-4.772h-1.173v4.852c0 1.949 1.034 2.883 2.466 2.883 1.153 0 1.909-.616 2.267-1.392h.079v1.293h1.174v-7.636h-1.174z" fill="#1f2f47"/><path d="m444.212 138.818h-1.173v10.182h1.173z" fill="#1f2f47"/><path d="m449.682 141.364h-1.631v-1.83h-1.173v1.83h-1.153v.994h1.153v4.773c0 1.332 1.074 1.968 2.068 1.968.438 0 .716-.079.875-.139l-.238-1.054c-.1.02-.259.06-.518.06-.517 0-1.014-.159-1.014-1.154v-4.454h1.631z" fill="#1f2f47"/><path d="m318.885 149h6.518v-1.775h-4.365v-8.407h-2.153z" fill="#2d323b"/><path d="m326.789 149h2.117v-7.636h-2.117zm1.063-8.541c.617 0 1.149-.467 1.149-1.074 0-.602-.532-1.069-1.149-1.069-.611 0-1.143.467-1.143 1.069 0 .607.532 1.074 1.143 1.074z" fill="#2d323b"/><path d="m332.721 144.585c.005-.984.592-1.561 1.447-1.561.85 0 1.362.557 1.357 1.492v4.484h2.118v-4.862c0-1.78-1.044-2.874-2.635-2.874-1.134 0-1.954.557-2.297 1.447h-.09v-1.347h-2.018v7.636h2.118z" fill="#2d323b"/><path d="m342.812 149.149c1.894 0 3.162-.919 3.46-2.336l-1.954-.13c-.213.582-.765.885-1.466.885-1.059 0-1.73-.701-1.73-1.839v-.005h5.2v-.582c0-2.595-1.571-3.878-3.59-3.878-2.247 0-3.703 1.596-3.703 3.953 0 2.421 1.436 3.932 3.783 3.932zm-1.69-4.738c.039-.87.706-1.566 1.645-1.566.915 0 1.551.657 1.561 1.566z" fill="#2d323b"/><path d="m353.092 144.585c.005-.984.607-1.561 1.472-1.561.86 0 1.367.552 1.362 1.492v4.484h2.118v-4.862c.005-1.79-1.049-2.874-2.64-2.874-1.159 0-1.934.547-2.282 1.447h-.09v-3.893h-2.058v10.182h2.118z" fill="#2d323b"/><path d="m363.21 149.149c1.895 0 3.162-.919 3.461-2.336l-1.954-.13c-.214.582-.766.885-1.467.885-1.059 0-1.73-.701-1.73-1.839v-.005h5.2v-.582c0-2.595-1.571-3.878-3.589-3.878-2.247 0-3.704 1.596-3.704 3.953 0 2.421 1.437 3.932 3.783 3.932zm-1.69-4.738c.04-.87.706-1.566 1.646-1.566.914 0 1.551.657 1.561 1.566z" fill="#2d323b"/><path d="m368.132 149h2.118v-7.636h-2.118zm1.064-8.541c.617 0 1.149-.467 1.149-1.074 0-.602-.532-1.069-1.149-1.069-.611 0-1.143.467-1.143 1.069 0 .607.532 1.074 1.143 1.074z" fill="#2d323b"/><path d="m375.124 151.973c2.47 0 3.982-1.278 3.982-3.246v-7.363h-2.088v1.282h-.08c-.283-.621-.905-1.382-2.182-1.382-1.676 0-3.093 1.303-3.093 3.903 0 2.54 1.377 3.724 3.098 3.724 1.218 0 1.899-.612 2.177-1.243h.115v1.044c.005.994-.841 1.64-1.919 1.64-.965 0-1.552-.507-1.835-.845l-1.402 1.074c.537.766 1.501 1.412 3.227 1.412zm.308-4.673c-1.039 0-1.606-.825-1.606-2.143 0-1.298.557-2.207 1.606-2.207 1.029 0 1.606.87 1.606 2.207 0 1.347-.587 2.143-1.606 2.143z" fill="#2d323b"/><path d="m382.924 144.585c.005-.984.607-1.561 1.472-1.561.86 0 1.367.552 1.362 1.492v4.484h2.118v-4.862c.005-1.79-1.049-2.874-2.64-2.874-1.159 0-1.934.547-2.282 1.447h-.09v-3.893h-2.058v10.182h2.118z" fill="#2d323b"/><path d="m393.604 141.364h-1.437v-1.83h-2.117v1.83h-1.044v1.591h1.044v3.962c-.01 1.491 1.009 2.232 2.545 2.173.547-.025.935-.135 1.148-.199l-.333-1.581c-.104.025-.328.069-.527.069-.422 0-.73-.159-.716-.745v-3.679h1.437z" fill="#2d323b"/><path d="m396.299 143.785c.646 0 1.198-.532 1.208-1.193-.01-.647-.562-1.174-1.208-1.174-.651 0-1.198.517-1.193 1.174-.005.661.537 1.193 1.193 1.193zm0 5.344c.646 0 1.198-.532 1.208-1.193-.01-.646-.562-1.173-1.208-1.173-.651 0-1.198.517-1.193 1.173-.005.661.537 1.193 1.193 1.193z" fill="#2d323b"/><path d="m437.307 162.818h-1.213v8.014h-.1l-5.568-8.014h-1.193v10.182h1.233v-7.994h.099l5.549 7.994h1.193z" fill="#1f2f47"/><path d="m442.717 173.159c2.068 0 3.46-1.571 3.46-3.937 0-2.387-1.392-3.958-3.46-3.958s-3.46 1.571-3.46 3.958c0 2.366 1.392 3.937 3.46 3.937zm0-1.054c-1.571 0-2.287-1.352-2.287-2.883 0-1.532.716-2.904 2.287-2.904s2.287 1.372 2.287 2.904c0 1.531-.716 2.883-2.287 2.883z" fill="#1f2f47"/><path d="m449.142 168.406c0-1.332.825-2.088 1.949-2.088 1.088 0 1.75.711 1.75 1.909v4.773h1.173v-4.852c0-1.949-1.039-2.884-2.585-2.884-1.154 0-1.87.517-2.228 1.293h-.099v-1.193h-1.134v7.636h1.174z" fill="#1f2f47"/><path d="m459.36 173.159c1.551 0 2.684-.776 3.042-1.929l-1.133-.318c-.299.795-.99 1.193-1.909 1.193-1.378 0-2.327-.89-2.382-2.526h5.543v-.497c0-2.843-1.69-3.818-3.281-3.818-2.068 0-3.44 1.631-3.44 3.977 0 2.347 1.352 3.918 3.56 3.918zm-2.382-4.594c.08-1.188.92-2.247 2.262-2.247 1.273 0 2.088.955 2.088 2.247z" fill="#1f2f47"/><g fill="#2d323b"><path d="m318.497 164.593h3.117v8.407h2.128v-8.407h3.117v-1.775h-8.362z"/><path d="m330.589 173.149c1.895 0 3.162-.92 3.461-2.337l-1.954-.129c-.214.582-.766.885-1.467.885-1.059 0-1.73-.701-1.73-1.839v-.005h5.2v-.582c0-2.595-1.571-3.878-3.589-3.878-2.247 0-3.704 1.596-3.704 3.953 0 2.421 1.437 3.932 3.783 3.932zm-1.69-4.738c.04-.87.706-1.566 1.646-1.566.914 0 1.551.656 1.561 1.566z"/><path d="m337.158 165.364h-2.187l2.187 3.818-2.267 3.818h2.188l1.481-2.64 1.506 2.64h2.163l-2.272-3.818 2.212-3.818h-2.172l-1.437 2.669z"/><path d="m347.489 165.364h-1.437v-1.83h-2.118v1.83h-1.044v1.59h1.044v3.963c-.01 1.491 1.01 2.232 2.546 2.172.547-.024.934-.134 1.148-.198l-.333-1.581c-.104.024-.328.069-.527.069-.422 0-.731-.159-.716-.746v-3.679h1.437z"/><path d="m356.198 165.364h-1.437v-1.83h-2.118v1.83h-1.044v1.59h1.044v3.963c-.01 1.491 1.01 2.232 2.546 2.172.547-.024.934-.134 1.148-.198l-.333-1.581c-.104.024-.328.069-.527.069-.422 0-.731-.159-.716-.746v-3.679h1.437z"/><path d="m357.605 173h2.118v-4.32c.005-.935.681-1.576 1.536-1.576.288 0 .522.079.721.179l.636-1.75c-.278-.169-.636-.279-1.044-.279-.86 0-1.556.497-1.834 1.442h-.08v-1.332h-2.053z"/><path d="m365.566 173.144c1.128 0 1.859-.492 2.232-1.203h.06v1.059h2.008v-5.151c0-1.819-1.556-2.585-3.207-2.585-1.879 0-3.067.875-3.36 2.267l1.958.159c.145-.507.597-.88 1.358-.88.731 0 1.128.358 1.133 1 .005.502-.522.576-1.849.706-1.512.139-2.869.646-2.869 2.351 0 1.511 1.079 2.277 2.536 2.277zm.606-1.462c-.651 0-1.118-.303-1.118-.885 0-.596.492-.889 1.238-.994.462-.064 1.218-.174 1.471-.343v.811c0 .8-.661 1.411-1.591 1.411z"/><path d="m373.627 168.585c.005-.984.592-1.561 1.447-1.561.85 0 1.362.557 1.357 1.492v4.484h2.118v-4.862c0-1.78-1.044-2.874-2.635-2.874-1.133 0-1.954.557-2.297 1.447h-.089v-1.347h-2.019v7.636h2.118z"/><path d="m386.572 167.541c-.189-1.407-1.323-2.277-3.251-2.277-1.954 0-3.242.905-3.237 2.377-.005 1.143.716 1.884 2.207 2.182l1.323.264c.666.134.969.377.979.76-.01.453-.502.776-1.243.776-.755 0-1.257-.323-1.387-.945l-2.083.11c.199 1.461 1.442 2.361 3.465 2.361 1.979 0 3.396-1.009 3.401-2.516-.005-1.103-.726-1.764-2.207-2.068l-1.383-.278c-.71-.154-.974-.398-.969-.766-.005-.457.512-.755 1.168-.755.736 0 1.174.402 1.278.894z"/><path d="m392.256 165.364h-1.517v-.513c0-.517.209-.82.831-.82.253 0 .512.055.681.11l.373-1.591c-.264-.08-.846-.209-1.497-.209-1.437 0-2.506.81-2.506 2.471v.552h-1.078v1.59h1.078v6.046h2.118v-6.046h1.517z"/><path d="m396.75 173.149c2.317 0 3.759-1.586 3.759-3.937 0-2.367-1.442-3.948-3.759-3.948-2.322 0-3.758 1.581-3.758 3.948 0 2.351 1.436 3.937 3.758 3.937zm.01-1.641c-1.069 0-1.616-.979-1.616-2.311 0-1.333.547-2.317 1.616-2.317 1.049 0 1.596.984 1.596 2.317 0 1.332-.547 2.311-1.596 2.311z"/><path d="m401.916 173h2.117v-4.32c.005-.935.682-1.576 1.537-1.576.288 0 .522.079.721.179l.636-1.75c-.279-.169-.636-.279-1.044-.279-.86 0-1.556.497-1.835 1.442h-.079v-1.332h-2.053z"/><path d="m407.917 173h2.118v-4.584c0-.845.537-1.407 1.243-1.407.696 0 1.164.477 1.164 1.228v4.763h2.053v-4.663c0-.791.452-1.328 1.223-1.328.676 0 1.183.423 1.183 1.273v4.718h2.113v-5.136c0-1.655-.984-2.6-2.406-2.6-1.119 0-1.989.572-2.302 1.447h-.08c-.243-.885-1.024-1.447-2.073-1.447-1.029 0-1.809.547-2.128 1.447h-.089v-1.347h-2.019z"/><path d="m421.975 167.785c.646 0 1.198-.532 1.208-1.193-.01-.647-.562-1.174-1.208-1.174-.652 0-1.199.517-1.194 1.174-.005.661.537 1.193 1.194 1.193zm0 5.344c.646 0 1.198-.532 1.208-1.193-.01-.646-.562-1.173-1.208-1.173-.652 0-1.199.517-1.194 1.173-.005.661.537 1.193 1.194 1.193z"/><path d="m575.233 76.9999h1.233v-4.554h5.429v4.554h1.233v-10.1818h-1.233v4.5341h-5.429v-4.5341h-1.233z"/><path d="m585.437 76.9999h1.173v-7.6364h-1.173zm.597-8.8892c.457 0 .835-.358.835-.7955s-.378-.7954-.835-.7954c-.458 0-.836.3579-.836.7954s.378.7955.836.7955z"/><path d="m591.802 79.8635c1.77 0 3.341-.8352 3.341-2.804v-7.696h-1.134v1.2131h-.119c-.259-.3977-.736-1.3125-2.227-1.3125-1.929 0-3.262 1.5312-3.262 3.8778 0 2.3864 1.392 3.7387 3.242 3.7387 1.491 0 1.969-.875 2.227-1.2926h.1v1.3522c.019 1.2728-.995 1.8693-2.168 1.8693-1.313 0-1.849-.7556-2.148-1.1335l-.934.6563c.477.8153 1.451 1.5312 3.082 1.5312zm0-4.0369c-1.472 0-2.227-1.1136-2.227-2.7046 0-1.5511.735-2.8039 2.227-2.8039 1.432 0 2.187 1.1534 2.187 2.8039 0 1.6904-.775 2.7046-2.187 2.7046z"/><path d="m598.464 72.4061c0-1.3323.85-2.088 2.008-2.088 1.104 0 1.77.696 1.77 1.9091v4.7727h1.174v-4.8523c0-1.9638-1.044-2.8835-2.606-2.8835-1.203 0-1.889.5021-2.247 1.2926h-.099v-3.7386h-1.173v10.1818h1.173z"/><path d="m608.764 77.159c1.551 0 2.684-.7756 3.042-1.929l-1.133-.3182c-.298.7955-.989 1.1932-1.909 1.1932-1.377 0-2.327-.8899-2.382-2.5256h5.544v-.4971c0-2.8438-1.691-3.8182-3.282-3.8182-2.068 0-3.44 1.6307-3.44 3.9773s1.352 3.9176 3.56 3.9176zm-2.382-4.5938c.08-1.1882.92-2.2471 2.262-2.2471 1.273 0 2.089.9545 2.089 2.2471z"/><path d="m619.12 71.0738c-.368-1.0839-1.194-1.8097-2.705-1.8097-1.611 0-2.804.9148-2.804 2.2074 0 1.054.626 1.7599 2.028 2.088l1.273.2983c.771.179 1.134.5469 1.134 1.0739 0 .6563-.696 1.1932-1.79 1.1932-.96 0-1.561-.4127-1.77-1.233l-1.114.2784c.274 1.2976 1.343 1.9887 2.904 1.9887 1.775 0 2.983-.9695 2.983-2.287 0-1.0639-.666-1.735-2.029-2.0681l-1.133-.2784c-.905-.2238-1.313-.527-1.313-1.1137 0-.6562.696-1.1335 1.631-1.1335 1.024 0 1.447.5668 1.651 1.0937z"/><path d="m624.346 69.3635h-1.631v-1.8295h-1.173v1.8295h-1.153v.9943h1.153v4.7728c0 1.3324 1.074 1.9687 2.068 1.9687.438 0 .716-.0795.875-.1392l-.238-1.054c-.1.0199-.259.0597-.518.0597-.517 0-1.014-.1591-1.014-1.1534v-4.4546h1.631z"/><path d="m631.304 66.8181h-1.174v10.1818h1.174z"/><path d="m636.654 77.159c1.552 0 2.685-.7756 3.043-1.929l-1.134-.3182c-.298.7955-.989 1.1932-1.909 1.1932-1.377 0-2.326-.8899-2.381-2.5256h5.543v-.4971c0-2.8438-1.69-3.8182-3.281-3.8182-2.068 0-3.44 1.6307-3.44 3.9773s1.352 3.9176 3.559 3.9176zm-2.381-4.5938c.08-1.1882.92-2.2471 2.262-2.2471 1.273 0 2.088.9545 2.088 2.2471z"/><path d="m647.845 69.3635h-1.272l-2.108 6.0853h-.08l-2.108-6.0853h-1.272l2.823 7.6364h1.194z"/><path d="m652.322 77.159c1.551 0 2.685-.7756 3.043-1.929l-1.134-.3182c-.298.7955-.989 1.1932-1.909 1.1932-1.377 0-2.326-.8899-2.381-2.5256h5.543v-.4971c0-2.8438-1.69-3.8182-3.281-3.8182-2.068 0-3.44 1.6307-3.44 3.9773s1.352 3.9176 3.559 3.9176zm-2.381-4.5938c.08-1.1882.92-2.2471 2.262-2.2471 1.273 0 2.088.9545 2.088 2.2471z"/><path d="m658.442 66.8181h-1.173v10.1818h1.173z"/><path d="m665.702 72.4061c0-1.3323.85-2.088 2.009-2.088 1.103 0 1.77.696 1.77 1.9091v4.7727h1.173v-4.8523c0-1.9638-1.044-2.8835-2.605-2.8835-1.203 0-1.889.5021-2.247 1.2926h-.1v-3.7386h-1.173v10.1818h1.173z"/><path d="m676.002 77.159c1.551 0 2.685-.7756 3.043-1.929l-1.134-.3182c-.298.7955-.989 1.1932-1.909 1.1932-1.377 0-2.327-.8899-2.381-2.5256h5.543v-.4971c0-2.8438-1.69-3.8182-3.281-3.8182-2.068 0-3.441 1.6307-3.441 3.9773s1.353 3.9176 3.56 3.9176zm-2.381-4.5938c.079-1.1882.919-2.2471 2.262-2.2471 1.272 0 2.088.9545 2.088 2.2471z"/><path d="m683.196 77.1789c1.332 0 2.028-.7159 2.267-1.2131h.06v1.0341h1.173v-5.0313c0-2.4261-1.849-2.7045-2.824-2.7045-1.153 0-2.466.3977-3.062 1.7898l1.113.3977c.259-.5568.87-1.1534 1.989-1.1534 1.089 0 1.611.5817 1.611 1.571 0 .5668-.577.5369-1.969.7159-1.417.184-2.963.4972-2.963 2.2472 0 1.4915 1.153 2.3466 2.605 2.3466zm.179-1.054c-.935 0-1.611-.4176-1.611-1.233 0-.8949.815-1.1733 1.73-1.2926.497-.0596 1.83-.1988 2.029-.4375v1.0739c0 .9545-.756 1.8892-2.148 1.8892z"/><path d="m695.221 76.9999v-10.1818h-1.173v3.7585h-.1c-.258-.3977-.716-1.3125-2.207-1.3125-1.929 0-3.262 1.5312-3.262 3.9375 0 2.4261 1.333 3.9574 3.242 3.9574 1.472 0 1.969-.9148 2.227-1.3324h.139v1.1733zm-1.153-3.8182c0 1.7301-.776 2.9233-2.188 2.9233-1.472 0-2.227-1.2926-2.227-2.9233 0-1.6108.736-2.8636 2.227-2.8636 1.432 0 2.188 1.1534 2.188 2.8636z"/><path d="m697.369 76.9999h1.173v-7.6364h-1.173zm.596-8.8892c.458 0 .836-.358.836-.7955s-.378-.7954-.836-.7954c-.457 0-.835.3579-.835.7954s.378.7955.835.7955z"/><path d="m701.864 72.4061c0-1.3323.826-2.088 1.949-2.088 1.089 0 1.75.7109 1.75 1.9091v4.7727h1.173v-4.8523c0-1.9488-1.039-2.8835-2.585-2.8835-1.153 0-1.869.517-2.227 1.2926h-.1v-1.1932h-1.133v7.6364h1.173z"/><path d="m711.923 79.8635c1.77 0 3.341-.8352 3.341-2.804v-7.696h-1.134v1.2131h-.119c-.258-.3977-.736-1.3125-2.227-1.3125-1.929 0-3.262 1.5312-3.262 3.8778 0 2.3864 1.392 3.7387 3.242 3.7387 1.491 0 1.969-.875 2.227-1.2926h.1v1.3522c.02 1.2728-.995 1.8693-2.168 1.8693-1.312 0-1.849-.7556-2.148-1.1335l-.934.6563c.477.8153 1.451 1.5312 3.082 1.5312zm0-4.0369c-1.472 0-2.227-1.1136-2.227-2.7046 0-1.5511.736-2.8039 2.227-2.8039 1.432 0 2.188 1.1534 2.188 2.8039 0 1.6904-.776 2.7046-2.188 2.7046z"/><path d="m718.267 77.0794c.497 0 .895-.3977.895-.8949 0-.4772-.398-.875-.895-.875-.478 0-.895.3779-.895.875 0 .4972.398.8949.895.8949z"/><path d="m581.915 83.8181v6.7414c0 1.591-1.273 2.466-2.725 2.466-1.451 0-2.724-.875-2.724-2.466v-6.7414h-1.233v6.7414c0 2.287 1.81 3.6194 3.957 3.6194 2.148 0 3.958-1.3324 3.958-3.6194v-6.7414z"/><path d="m590.86 88.0738c-.368-1.0839-1.193-1.8097-2.705-1.8097-1.611 0-2.804.9148-2.804 2.2074 0 1.054.627 1.7599 2.029 2.088l1.272.2983c.771.179 1.134.5469 1.134 1.0739 0 .6563-.696 1.1932-1.79 1.1932-.959 0-1.561-.4127-1.77-1.233l-1.113.2784c.273 1.2976 1.342 1.9887 2.903 1.9887 1.775 0 2.983-.9695 2.983-2.287 0-1.0639-.666-1.735-2.028-2.0681l-1.134-.2784c-.905-.2238-1.312-.527-1.312-1.1137 0-.6562.696-1.1335 1.63-1.1335 1.024 0 1.447.5668 1.651 1.0937z"/><path d="m595.967 94.159c1.551 0 2.685-.7756 3.042-1.929l-1.133-.3182c-.298.7955-.989 1.1932-1.909 1.1932-1.377 0-2.327-.8899-2.382-2.5256h5.544v-.4971c0-2.8438-1.691-3.8182-3.281-3.8182-2.069 0-3.441 1.6307-3.441 3.9773s1.352 3.9176 3.56 3.9176zm-2.382-4.5938c.08-1.1882.92-2.2471 2.263-2.2471 1.272 0 2.088.9545 2.088 2.2471z"/><path d="m610.26 88.0738c-.368-1.0839-1.193-1.8097-2.704-1.8097-1.611 0-2.804.9148-2.804 2.2074 0 1.054.626 1.7599 2.028 2.088l1.273.2983c.77.179 1.133.5469 1.133 1.0739 0 .6563-.696 1.1932-1.789 1.1932-.96 0-1.562-.4127-1.77-1.233l-1.114.2784c.273 1.2976 1.342 1.9887 2.903 1.9887 1.775 0 2.983-.9695 2.983-2.287 0-1.0639-.666-1.735-2.028-2.0681l-1.134-.2784c-.904-.2238-1.312-.527-1.312-1.1137 0-.6562.696-1.1335 1.631-1.1335 1.024 0 1.446.5668 1.65 1.0937z"/><path d="m615.666 94.159c1.909 0 3.241-1.5313 3.241-3.9574 0-2.4063-1.332-3.9375-3.261-3.9375-1.492 0-1.949.9148-2.208 1.3125h-.139v-1.2131h-1.133v10.5h1.173v-4.0369h.099c.259.4176.756 1.3324 2.228 1.3324zm-.16-1.054c-1.411 0-2.187-1.1932-2.187-2.9233 0-1.7102.756-2.8636 2.187-2.8636 1.492 0 2.228 1.2528 2.228 2.8636 0 1.6307-.756 2.9233-2.228 2.9233z"/><path d="m622.944 94.1789c1.332 0 2.028-.7159 2.267-1.2131h.06v1.0341h1.173v-5.0313c0-2.4261-1.849-2.7045-2.824-2.7045-1.153 0-2.466.3977-3.062 1.7898l1.113.3977c.259-.5568.87-1.1534 1.989-1.1534 1.089 0 1.611.5817 1.611 1.571 0 .5668-.577.5369-1.969.7159-1.417.184-2.963.4972-2.963 2.2472 0 1.4915 1.153 2.3466 2.605 2.3466zm.179-1.054c-.935 0-1.611-.4176-1.611-1.233 0-.8949.816-1.1733 1.73-1.2926.497-.0596 1.83-.1988 2.029-.4375v1.0739c0 .9545-.756 1.8892-2.148 1.8892z"/><path d="m628.585 93.9999h1.174v-4.8324c0-1.0291.815-1.7898 1.929-1.7898.293 0 .512.0547.676.1392l.398-.9943c-.239-.169-.552-.2784-.975-.2784-.925 0-1.715.5171-1.988 1.2727h-.08v-1.1534h-1.134z"/><path d="m633.959 93.9999h1.173v-7.6364h-1.173zm.596-8.8892c.458 0 .835-.358.835-.7955s-.377-.7954-.835-.7954c-.457 0-.835.3579-.835.7954s.378.7955.835.7955z"/><path d="m638.454 89.4061c0-1.3323.825-2.088 1.949-2.088 1.089 0 1.75.7109 1.75 1.9091v4.7727h1.173v-4.8523c0-1.9488-1.039-2.8835-2.585-2.8835-1.153 0-1.869.517-2.227 1.2926h-.1v-1.1932h-1.133v7.6364h1.173z"/><path d="m648.513 96.8635c1.77 0 3.341-.8352 3.341-2.804v-7.696h-1.134v1.2131h-.119c-.259-.3977-.736-1.3125-2.227-1.3125-1.929 0-3.262 1.5312-3.262 3.8778 0 2.3864 1.392 3.7387 3.242 3.7387 1.491 0 1.969-.875 2.227-1.2926h.099v1.3522c.02 1.2728-.994 1.8693-2.167 1.8693-1.313 0-1.85-.7556-2.148-1.1335l-.935.6563c.478.8153 1.452 1.5312 3.083 1.5312zm0-4.0369c-1.472 0-2.227-1.1136-2.227-2.7046 0-1.5511.735-2.8039 2.227-2.8039 1.432 0 2.187 1.1534 2.187 2.8039 0 1.6904-.775 2.7046-2.187 2.7046z"/><path d="m655.175 83.8181h-1.173v10.1818h1.173z"/><path d="m658.04 96.963c1.074 0 1.809-.5569 2.247-1.7302l3.281-8.8693h-1.273l-2.108 6.0853h-.079l-2.108-6.0853h-1.273l2.844 7.696-.278.6961c-.438 1.1335-.955 1.2528-1.81 1.0341l-.298 1.0341c.119.0596.457.1392.855.1392z"/><path d="m665.493 94.0794c.497 0 .895-.3977.895-.8949 0-.4772-.398-.875-.895-.875-.477 0-.895.3779-.895.875 0 .4972.398.8949.895.8949z"/><path d="m680.664 83.8181h-1.213v8.0142h-.099l-5.569-8.0142h-1.193v10.1818h1.233v-7.9943h.1l5.548 7.9943h1.193z"/><path d="m686.174 94.159c1.551 0 2.685-.7756 3.043-1.929l-1.134-.3182c-.298.7955-.989 1.1932-1.909 1.1932-1.377 0-2.327-.8899-2.381-2.5256h5.543v-.4971c0-2.8438-1.69-3.8182-3.281-3.8182-2.069 0-3.441 1.6307-3.441 3.9773s1.353 3.9176 3.56 3.9176zm-2.381-4.5938c.079-1.1882.919-2.2471 2.262-2.2471 1.272 0 2.088.9545 2.088 2.2471z"/><path d="m697.365 86.3635h-1.273l-2.108 6.0853h-.079l-2.108-6.0853h-1.273l2.824 7.6364h1.193z"/><path d="m701.842 94.159c1.551 0 2.685-.7756 3.042-1.929l-1.133-.3182c-.298.7955-.989 1.1932-1.909 1.1932-1.377 0-2.327-.8899-2.382-2.5256h5.544v-.4971c0-2.8438-1.691-3.8182-3.281-3.8182-2.069 0-3.441 1.6307-3.441 3.9773s1.352 3.9176 3.56 3.9176zm-2.382-4.5938c.08-1.1882.92-2.2471 2.263-2.2471 1.272 0 2.088.9545 2.088 2.2471z"/><path d="m706.789 93.9999h1.173v-4.8324c0-1.0291.815-1.7898 1.929-1.7898.293 0 .512.0547.676.1392l.398-.9943c-.239-.169-.552-.2784-.975-.2784-.924 0-1.715.5171-1.988 1.2727h-.08v-1.1534h-1.133z"/><path d="m720.912 90.8777c0 1.4318-1.094 2.0881-1.969 2.0881-.975 0-1.671-.7159-1.671-1.8295v-4.7728h-1.173v4.8523c0 1.9489 1.034 2.8835 2.466 2.8835 1.153 0 1.909-.6165 2.267-1.392h.08v1.2926h1.173v-7.6364h-1.173z"/><path d="m729.643 88.0738c-.368-1.0839-1.193-1.8097-2.705-1.8097-1.61 0-2.804.9148-2.804 2.2074 0 1.054.627 1.7599 2.029 2.088l1.273.2983c.77.179 1.133.5469 1.133 1.0739 0 .6563-.696 1.1932-1.79 1.1932-.959 0-1.561-.4127-1.77-1.233l-1.113.2784c.273 1.2976 1.342 1.9887 2.903 1.9887 1.775 0 2.983-.9695 2.983-2.287 0-1.0639-.666-1.735-2.028-2.0681l-1.134-.2784c-.905-.2238-1.312-.527-1.312-1.1137 0-.6562.696-1.1335 1.63-1.1335 1.025 0 1.447.5668 1.651 1.0937z"/><path d="m734.75 94.159c1.551 0 2.685-.7756 3.043-1.929l-1.134-.3182c-.298.7955-.989 1.1932-1.909 1.1932-1.377 0-2.327-.8899-2.381-2.5256h5.543v-.4971c0-2.8438-1.69-3.8182-3.281-3.8182-2.068 0-3.441 1.6307-3.441 3.9773s1.353 3.9176 3.56 3.9176zm-2.381-4.5938c.079-1.1882.919-2.2471 2.262-2.2471 1.272 0 2.088.9545 2.088 2.2471z"/><path d="m578.176 111.159c2.068 0 3.46-1.571 3.46-3.938 0-2.386-1.392-3.957-3.46-3.957s-3.46 1.571-3.46 3.957c0 2.367 1.392 3.938 3.46 3.938zm0-1.054c-1.571 0-2.287-1.352-2.287-2.884 0-1.531.716-2.903 2.287-2.903s2.287 1.372 2.287 2.903c0 1.532-.716 2.884-2.287 2.884z"/><path d="m584.601 106.406c0-1.332.825-2.088 1.948-2.088 1.089 0 1.75.711 1.75 1.909v4.773h1.174v-4.852c0-1.949-1.039-2.884-2.585-2.884-1.154 0-1.87.517-2.228 1.293h-.099v-1.193h-1.134v7.636h1.174z"/><path d="m600.963 105.074c-.368-1.084-1.193-1.81-2.704-1.81-1.611 0-2.804.915-2.804 2.207 0 1.054.626 1.76 2.028 2.089l1.273.298c.771.179 1.133.547 1.133 1.074 0 .656-.696 1.193-1.789 1.193-.96 0-1.561-.413-1.77-1.233l-1.114.278c.274 1.298 1.343 1.989 2.904 1.989 1.774 0 2.983-.969 2.983-2.287 0-1.064-.667-1.735-2.029-2.068l-1.133-.279c-.905-.223-1.313-.527-1.313-1.113 0-.656.696-1.134 1.631-1.134 1.024 0 1.447.567 1.65 1.094z"/><path d="m602.869 111h1.173v-4.773c0-1.118.815-1.909 1.73-1.909.89 0 1.511.582 1.511 1.452v5.23h1.194v-4.972c0-.984.616-1.71 1.69-1.71.835 0 1.551.443 1.551 1.571v5.111h1.173v-5.111c0-1.795-.964-2.625-2.326-2.625-1.094 0-1.894.502-2.287 1.293h-.08c-.378-.816-1.044-1.293-2.048-1.293-.994 0-1.73.477-2.048 1.293h-.1v-1.193h-1.133z"/><path d="m617.284 111.179c1.332 0 2.028-.716 2.267-1.213h.06v1.034h1.173v-5.031c0-2.426-1.85-2.705-2.824-2.705-1.153 0-2.466.398-3.063 1.79l1.114.398c.259-.557.87-1.154 1.989-1.154 1.089 0 1.611.582 1.611 1.571 0 .567-.577.537-1.969.716-1.417.184-2.963.497-2.963 2.247 0 1.492 1.153 2.347 2.605 2.347zm.179-1.054c-.935 0-1.611-.418-1.611-1.233 0-.895.815-1.173 1.73-1.293.497-.059 1.83-.199 2.029-.437v1.074c0 .954-.756 1.889-2.148 1.889z"/><path d="m624.099 100.818h-1.174v10.182h1.174z"/><path d="m627.421 100.818h-1.173v10.182h1.173z"/><path d="m638.916 105.074c-.367-1.084-1.193-1.81-2.704-1.81-1.611 0-2.804.915-2.804 2.207 0 1.054.626 1.76 2.028 2.089l1.273.298c.771.179 1.134.547 1.134 1.074 0 .656-.696 1.193-1.79 1.193-.96 0-1.561-.413-1.77-1.233l-1.114.278c.274 1.298 1.343 1.989 2.904 1.989 1.775 0 2.983-.969 2.983-2.287 0-1.064-.667-1.735-2.029-2.068l-1.133-.279c-.905-.223-1.313-.527-1.313-1.113 0-.656.696-1.134 1.631-1.134 1.024 0 1.447.567 1.65 1.094z"/><path d="m643.924 111.159c1.69 0 2.804-1.034 3.003-2.386h-1.173c-.219.835-.915 1.332-1.83 1.332-1.392 0-2.287-1.153-2.287-2.923 0-1.73.915-2.864 2.287-2.864 1.034 0 1.651.636 1.83 1.332h1.173c-.199-1.431-1.412-2.386-3.023-2.386-2.068 0-3.44 1.631-3.44 3.957 0 2.287 1.312 3.938 3.46 3.938z"/><path d="m648.642 111h1.173v-4.832c0-1.03.816-1.79 1.929-1.79.294 0 .512.054.677.139l.397-.994c-.238-.169-.552-.279-.974-.279-.925 0-1.715.517-1.989 1.273h-.079v-1.153h-1.134z"/><path d="m656.984 111.159c1.552 0 2.685-.776 3.043-1.929l-1.133-.318c-.299.795-.99 1.193-1.91 1.193-1.377 0-2.326-.89-2.381-2.526h5.543v-.497c0-2.843-1.69-3.818-3.281-3.818-2.068 0-3.44 1.631-3.44 3.977 0 2.347 1.352 3.918 3.559 3.918zm-2.381-4.594c.08-1.188.92-2.247 2.262-2.247 1.273 0 2.088.955 2.088 2.247z"/><path d="m665.133 111.159c1.551 0 2.685-.776 3.043-1.929l-1.134-.318c-.298.795-.989 1.193-1.909 1.193-1.377 0-2.327-.89-2.381-2.526h5.543v-.497c0-2.843-1.691-3.818-3.281-3.818-2.069 0-3.441 1.631-3.441 3.977 0 2.347 1.353 3.918 3.56 3.918zm-2.381-4.594c.079-1.188.919-2.247 2.262-2.247 1.272 0 2.088.955 2.088 2.247z"/><path d="m671.253 106.406c0-1.332.825-2.088 1.949-2.088 1.089 0 1.75.711 1.75 1.909v4.773h1.173v-4.852c0-1.949-1.039-2.884-2.585-2.884-1.154 0-1.869.517-2.227 1.293h-.1v-1.193h-1.133v7.636h1.173z"/><path d="m683.678 105.074c-.368-1.084-1.193-1.81-2.704-1.81-1.611 0-2.804.915-2.804 2.207 0 1.054.626 1.76 2.028 2.089l1.273.298c.77.179 1.133.547 1.133 1.074 0 .656-.696 1.193-1.789 1.193-.96 0-1.562-.413-1.77-1.233l-1.114.278c.273 1.298 1.342 1.989 2.903 1.989 1.775 0 2.983-.969 2.983-2.287 0-1.064-.666-1.735-2.028-2.068l-1.134-.279c-.904-.223-1.312-.527-1.312-1.113 0-.656.696-1.134 1.631-1.134 1.024 0 1.446.567 1.65 1.094z"/><path d="m686.439 111.079c.497 0 .895-.397.895-.894 0-.478-.398-.875-.895-.875-.478 0-.895.377-.895.875 0 .497.397.894.895.894z"/></g><path d="m582.219 43.0908v7.191c0 1.5288-1.22 2.3864-2.69 2.3864-1.459 0-2.685-.8576-2.685-2.3864v-7.191h-1.646v7.2177c0 2.4609 1.918 3.8725 4.331 3.8725s4.336-1.4116 4.336-3.8725v-7.2177z" fill="#5d6977"/><path d="m592.608 45.9566h1.587c-.048-1.7472-1.592-3.0149-3.808-3.0149-2.19 0-3.867 1.2517-3.867 3.1321 0 1.5181 1.086 2.4076 2.839 2.8817l1.289.3516c1.166.3089 2.067.6924 2.067 1.6619 0 1.0653-1.018 1.7685-2.419 1.7685-1.268 0-2.322-.5647-2.418-1.7525h-1.651c.106 1.9762 1.635 3.196 4.08 3.196 2.562 0 4.037-1.3477 4.037-3.196 0-1.9656-1.752-2.7273-3.137-3.0682l-1.065-.277c-.853-.2184-1.987-.6179-1.982-1.6619 0-.9269.847-1.614 2.189-1.614 1.252 0 2.142.5859 2.259 1.5927z" fill="#5d6977"/><path d="m597.545 53.9999 1.001-2.8871h4.262l.996 2.8871h1.747l-3.926-10.9091h-1.901l-3.926 10.9091zm1.481-4.272 1.608-4.6556h.086l1.608 4.6556z" fill="#5d6977"/><path d="m606.662 48.5507c0 3.4517 1.998 5.5983 4.949 5.5983 2.652 0 4.549-1.7365 4.549-4.4904v-1.2411h-4.288v1.3583h2.674c0 1.7205-1.241 2.8711-2.93 2.8711-1.923 0-3.319-1.4489-3.319-4.1069 0-2.6367 1.391-4.0962 3.239-4.0962 1.449 0 2.434.799 2.855 2.0934h1.694c-.367-2.1254-2.195-3.5955-4.549-3.5955-2.828 0-4.874 2.1253-4.874 5.609z" fill="#5d6977"/><path d="m618.649 53.9999h6.903v-1.4169h-5.257v-3.3399h4.837v-1.4115h-4.837v-3.3239h5.194v-1.4169h-6.84z" fill="#5d6977"/><path d="m319.198 53.9999h1.646v-3.8352h2.238c2.53 0 3.787-1.5288 3.782-3.5423.005-2.0082-1.242-3.5316-3.777-3.5316h-3.889zm1.646-5.2308v-4.2667h2.067c1.63 0 2.301.8895 2.296 2.12.005 1.2411-.666 2.1467-2.274 2.1467z" fill="#5d6977"/><path d="m329.193 53.9999h1.646v-4.1815h2.365l2.227 4.1815h1.869l-2.418-4.4744c1.326-.5221 2.003-1.6513 2.003-3.0576 0-2.0241-1.337-3.3771-3.628-3.3771h-4.064zm1.646-5.5504v-3.9471h2.317c1.332 0 2.067.7457 2.067 1.9922 0 1.2038-.698 1.9549-2.189 1.9549z" fill="#5d6977"/><path d="m348.781 48.5453c0-3.4889-2.088-5.6036-4.911-5.6036-2.834 0-4.916 2.1147-4.916 5.6036 0 3.4837 2.082 5.6037 4.916 5.6037 2.823 0 4.911-2.1147 4.911-5.6037zm-1.63 0c0 2.6581-1.406 4.1016-3.281 4.1016-1.88 0-3.281-1.4435-3.281-4.1016 0-2.658 1.401-4.1015 3.281-4.1015 1.875 0 3.281 1.4435 3.281 4.1015z" fill="#5d6977"/><path d="m351.233 53.9999h1.646v-3.8352h2.238c2.53 0 3.787-1.5288 3.782-3.5423.005-2.0082-1.242-3.5316-3.777-3.5316h-3.889zm1.646-5.2308v-4.2667h2.067c1.63 0 2.301.8895 2.296 2.12.005 1.2411-.666 2.1467-2.275 2.1467z" fill="#5d6977"/><path d="m361.228 53.9999h6.904v-1.4169h-5.258v-3.3399h4.837v-1.4115h-4.837v-3.3239h5.194v-1.4169h-6.84z" fill="#5d6977"/><path d="m370.666 53.9999h1.646v-4.1815h2.365l2.227 4.1815h1.87l-2.419-4.4744c1.327-.5221 2.003-1.6513 2.003-3.0576 0-2.0241-1.337-3.3771-3.627-3.3771h-4.065zm1.646-5.5504v-3.9471h2.317c1.332 0 2.067.7457 2.067 1.9922 0 1.2038-.698 1.9549-2.189 1.9549z" fill="#5d6977"/><path d="m380.24 44.5077h3.399v9.4922h1.64v-9.4922h3.404v-1.4169h-8.443z" fill="#5d6977"/><path d="m392.595 43.0908h-1.646v10.9091h1.646z" fill="#5d6977"/><path d="m395.392 53.9999h6.903v-1.4169h-5.257v-3.3399h4.836v-1.4115h-4.836v-3.3239h5.193v-1.4169h-6.839z" fill="#5d6977"/><path d="m410.78 45.9566h1.587c-.048-1.7472-1.593-3.0149-3.809-3.0149-2.189 0-3.867 1.2517-3.867 3.1321 0 1.5181 1.087 2.4076 2.839 2.8817l1.289.3516c1.167.3089 2.067.6924 2.067 1.6619 0 1.0653-1.017 1.7685-2.418 1.7685-1.268 0-2.323-.5647-2.418-1.7525h-1.652c.107 1.9762 1.636 3.196 4.081 3.196 2.562 0 4.037-1.3477 4.037-3.196 0-1.9656-1.752-2.7273-3.137-3.0682l-1.066-.277c-.852-.2184-1.986-.6179-1.981-1.6619 0-.9269.847-1.614 2.189-1.614 1.252 0 2.141.5859 2.259 1.5927z" fill="#5d6977"/><path d="m12 1h267v216h-267c-6.07513 0-11-4.925-11-11v-194c0-6.07514 4.92487-11 11-11z" fill="#fff" stroke="#b4bac4" stroke-width="2"/><path d="m42.1477 93.6911v-5.9638h31.3338v5.9638h-12.1385v33.3089h-7.0568v-33.3089z" fill="#1f2f47"/><path d="m87.6835 127.575c-2.9531 0-5.5036-.62-7.6513-1.86-2.1349-1.24-3.7777-2.991-4.9282-5.254-1.1506-2.263-1.7259-4.935-1.7259-8.016 0-3.029.5753-5.689 1.7259-7.977 1.1505-2.301 2.7677-4.091 4.8515-5.3693 2.0966-1.2911 4.5511-1.9367 7.3636-1.9367 2.4162 0 4.6471.5241 6.6925 1.5724 2.0455 1.0355 3.6818 2.6526 4.9091 4.8516 1.2403 2.186 1.8603 5.005 1.8603 8.457v2.128h-20.5187c.0384 2.519.7351 4.481 2.0902 5.887 1.3679 1.407 3.1769 2.11 5.4269 2.11 1.4957 0 2.7869-.32 3.8736-.959 1.0994-.652 1.8856-1.598 2.3586-2.838l6.4814.728c-.6135 2.557-2.0453 4.609-4.2953 6.156-2.2372 1.547-5.0753 2.32-8.5142 2.32zm-7.402-18.083h13.8452c-.0128-2.007-.6392-3.662-1.8793-4.966-1.2273-1.304-2.8381-1.956-4.8324-1.956-2.071 0-3.7521.684-5.0433 2.051-1.2912 1.368-1.9879 2.992-2.0902 4.871z" fill="#1f2f47"/><path d="m111.45 97.5455 5.944 10.8725 6.041-10.8725h7.344l-8.878 14.7275 9.032 14.727h-7.307l-6.232-10.604-6.175 10.604h-7.363l8.974-14.727-8.744-14.7275z" fill="#1f2f47"/><path d="m150.557 97.5455v5.3695h-5.811v15.226c0 1.393.307 2.314.921 2.761.613.435 1.355.652 2.224.652.435 0 .831-.032 1.189-.096.371-.064.652-.121.844-.172l1.169 5.426c-.37.128-.901.269-1.591.422-.678.154-1.509.243-2.493.269-2.608.076-4.801-.563-6.577-1.918-1.765-1.355-2.64-3.42-2.628-6.194v-16.376h-4.18v-5.3695h4.18v-7.0568h6.942v7.0568z" fill="#1f2f47"/><path d="m169.463 127v-39.2727h7.115v16.6257h18.198v-16.6257h7.133v39.2727h-7.133v-16.683h-18.198v16.683z" fill="#1f2f47"/><path d="m224.937 87.7273v39.2727h-7.114v-32.3501h-.23l-9.186 5.8681v-6.5201l9.761-6.2706z" fill="#1f2f47"/></svg>