<svg fill="none" height="167" viewBox="0 0 335 167" width="335" xmlns="http://www.w3.org/2000/svg"><path clip-rule="evenodd" d="m5.4137 2.97456c-.6469 0-1.26731.25698-1.72473.71441-.45743.45742-.71441 1.07783-.71441 1.72473v46.1085h-2.97456v-46.1085c0-1.4358.57037-2.8128 1.58564-3.82806 1.01526-1.01527 2.39226-1.58564 3.82806-1.58564h323.6023c1.436 0 2.813.570371 3.828 1.58564 1.015 1.01526 1.586 2.39225 1.586 3.82806v155.2853c0 1.436-.571 2.813-1.586 3.828-1.015 1.016-2.392 1.586-3.828 1.586h-323.6023c-.71094 0-1.41491-.14-2.07173-.412-.65683-.272-1.25363-.671-1.75633-1.174-.50271-.502-.901482-1.099-1.173547-1.756-.272064-.657-.412093-1.361-.412093-2.072v-10.511h2.97456v10.511c0 .321.06309.638.18567.934.12257.296.30224.565.52874.791.22649.227.49538.406.79131.529.29593.122.61311.186.93342.186h323.6023c.647 0 1.267-.257 1.725-.715.457-.457.714-1.078.714-1.725v-155.2853c0-.6469-.257-1.26731-.714-1.72473-.458-.45743-1.078-.71441-1.725-.71441zm47.8739 80.42964c-1.3653-1.467-3.2825-2.2004-5.7516-2.2004-1.2491 0-2.4037.2542-3.464.7625-1.0457.5083-1.9608 1.2418-2.7451 2.2004v-12.4182h-6.5794v33.4635h6.5794v-16.7752c.7698-1.2781 2.0334-1.9172 3.7908-1.9172 1.2346 0 2.1496.2905 2.7451.8715.61.581.915 1.5831.915 3.0065v14.8144h6.5795v-14.7708c0-3.2244-.6899-5.5701-2.0697-7.037zm-23.9214 16.9498c1.0603-1.6703 1.6631-3.5948 1.8083-5.7734h-6.8191c-.1307 1.8591-.6827 3.2389-1.6558 4.1394-.9586.886-2.4183 1.329-4.379 1.329-1.5106 0-2.7233-.3486-3.6383-1.0458-.9151-.6972-1.5832-1.7502-2.0044-3.159-.4212-1.4234-.6318-3.2607-.6318-5.512v-1.9825c0-3.3406.5156-5.7952 1.5468-7.3638 1.0313-1.5686 2.6144-2.3529 4.7495-2.3529 2.0479 0 3.5293.472 4.4444 1.4161.9295.9296 1.4596 2.3529 1.5904 4.2701h6.8191c-.2034-2.2222-.8206-4.1757-1.8519-5.8605-1.0166-1.6993-2.4545-3.0283-4.3136-3.9869s-4.0886-1.4379-6.6884-1.4379c-2.658 0-4.9819.6245-6.9717 1.8736-1.98979 1.2491-3.52935 3.0356-4.61867 5.3595-1.08932 2.3093-1.63397 5.0181-1.63397 8.1263v1.9389c0 3.1228.52287 5.8388 1.56861 8.1481 1.06027 2.2947 2.58531 4.0667 4.57513 5.3157 1.9898 1.235 4.3427 1.852 7.0588 1.852 2.5417 0 4.7566-.465 6.6448-1.394 1.8881-.93 3.3551-2.23 4.4008-3.9zm49.8036-.9586c0 1.3366.0798 2.4186.2396 3.2466.1598.827.3994 1.561.719 2.2v.37h-6.6013c-.2905-.566-.5011-1.271-.6318-2.113-1.496 1.699-3.464 2.549-5.9041 2.549-1.4815 0-2.8322-.305-4.0522-.915-1.2201-.61-2.1859-1.452-2.8976-2.527-.6972-1.075-1.0458-2.2878-1.0458-3.6385 0-2.4837.9223-4.3936 2.7669-5.7298 1.8446-1.3508 4.5606-2.0262 8.1481-2.0262h2.6797v-1.3289c0-1.0893-.276-1.9317-.8279-2.5272-.5519-.61-1.3798-.9151-2.4836-.9151-1.0022 0-1.7865.2397-2.3529.719-.552.4648-.8279 1.1329-.8279 2.0043h-6.5795c0-1.4088.4139-2.6869 1.2418-3.8344.8424-1.1474 2.0262-2.0551 3.5512-2.7233 1.5396-.6681 3.3115-1.0021 5.3159-1.0021 1.8591 0 3.5076.3122 4.9455.9368 1.4378.6245 2.5635 1.5613 3.3768 2.8104.8134 1.2491 1.2201 2.7742 1.2201 4.5752zm-10.6971 1.2636c.9586 0 1.801-.203 2.5272-.61.7262-.4213 1.2563-.9296 1.5904-1.5251v-3.9433h-2.5054c-1.5251 0-2.6652.334-3.4205 1.0021-.7407.6536-1.1111 1.5106-1.1111 2.5708 0 .7408.2615 1.3435.7843 1.8083.5374.4652 1.2491.6972 2.1351.6972zm28.0608-19.3681c-.3777-.0581-.7335-.0871-1.0676-.0871-1.1183 0-2.1278.2832-3.0283.8496-.8859.5665-1.6194 1.3798-2.2004 2.4401l-.1961-2.854h-6.1873v23.5725h6.5795v-15.2283c.7117-1.5541 2.244-2.3312 4.5969-2.3312.7117 0 1.4887.0581 2.3312.1743l.0871-6.3616c-.2324-.0726-.5374-.1307-.915-.1743zm22.8535 18.1045c0 1.3366.08 2.4186.24 3.2466.16.827.399 1.561.719 2.2v.37h-6.601c-.291-.566-.501-1.271-.632-2.113-1.496 1.699-3.464 2.549-5.904 2.549-1.482 0-2.832-.305-4.052-.915-1.221-.61-2.186-1.452-2.898-2.527-.6972-1.075-1.0458-2.2878-1.0458-3.6385 0-2.4837.9218-4.3936 2.7668-5.7298 1.845-1.3508 4.561-2.0262 8.148-2.0262h2.68v-1.3289c0-1.0893-.276-1.9317-.828-2.5272-.552-.61-1.38-.9151-2.484-.9151-1.002 0-1.786.2397-2.353.719-.552.4648-.827 1.1329-.827 2.0043h-6.5799c0-1.4088.4139-2.6869 1.2419-3.8344.842-1.1474 2.026-2.0551 3.551-2.7233 1.54-.6681 3.312-1.0021 5.316-1.0021 1.859 0 3.508.3122 4.945.9368 1.438.6245 2.564 1.5613 3.377 2.8104.814 1.2491 1.22 2.7742 1.22 4.5752zm-10.697 1.2636c.959 0 1.801-.203 2.527-.61.727-.4213 1.257-.9296 1.591-1.5251v-3.9433h-2.506c-1.525 0-2.665.334-3.42 1.0021-.741.6536-1.111 1.5106-1.111 2.5708 0 .7408.261 1.3435.784 1.8083.538.4652 1.249.6972 2.135.6972zm33.834.784c.872-1.321 1.308-2.8174 1.308-4.4877h-6.166c-.014 1.0457-.363 1.8736-1.046 2.4836-.682.6101-1.59.9151-2.723.9151-1.641 0-2.76-.5883-3.355-1.7647-.581-1.1765-.872-2.8032-.872-4.8802v-.5664c0-2.0334.298-3.6456.894-4.8366.595-1.2055 1.692-1.8082 3.289-1.8082 1.191 0 2.121.3776 2.789 1.1328.668.7553 1.01 1.7139 1.024 2.8758h6.166c0-1.9026-.414-3.5511-1.242-4.9455-.828-1.4088-1.99-2.4836-3.486-3.2243-1.482-.7553-3.188-1.1329-5.12-1.1329-2.353 0-4.35.5156-5.991 1.5468-1.627 1.0312-2.854 2.4473-3.682 4.2483-.813 1.801-1.22 3.849-1.22 6.1438v.5664c0 2.2949.407 4.3428 1.22 6.1438.828 1.8011 2.062 3.2171 3.704 4.2481 1.641 1.031 3.645 1.547 6.013 1.547 1.815 0 3.464-.37 4.945-1.111 1.496-.741 2.68-1.772 3.551-3.094zm15.011-1.198c.712 0 1.322-.051 1.83-.152v4.945c-1.133.407-2.425.61-3.878.61-4.618 0-6.928-2.353-6.928-7.0587v-12.1568h-3.333v-4.793h3.333v-5.8387h6.58v5.8387h3.965v4.793h-3.965v11.3942c0 .9296.181 1.5687.544 1.9172.363.3341.981.5011 1.852.5011zm10.806-4.684h14.902v-2.7887c0-2.3529-.407-4.3936-1.22-6.1219-.813-1.7429-2.004-3.0864-3.573-4.0305s-3.464-1.4161-5.686-1.4161c-2.28 0-4.256.5228-5.926 1.5686-1.67 1.0312-2.948 2.4691-3.834 4.3137s-1.329 3.9433-1.329 6.2962v.8279c0 2.106.472 4.0305 1.416 5.7734.958 1.7424 2.324 3.1224 4.096 4.1394 1.786 1.017 3.885 1.525 6.296 1.525 2.135 0 3.994-.407 5.577-1.22 1.598-.813 2.81-1.816 3.638-3.007l-3.159-3.6378c-.682.8569-1.51 1.5032-2.483 1.939-.959.4208-2.005.6318-3.138.6318-1.525 0-2.774-.4285-3.747-1.2854-.973-.8715-1.583-2.0407-1.83-3.5076zm7.386-7.952c.682.7407 1.038 1.7501 1.067 3.0283v.5228h-8.387c.217-1.4524.675-2.5925 1.372-3.4204.712-.8279 1.692-1.2418 2.941-1.2418 1.336 0 2.339.3703 3.007 1.1111zm22.57-6.4052c.334 0 .69.029 1.068.0871.378.0436.683.1017.915.1743l-.087 6.3616c-.843-.1162-1.62-.1743-2.331-.1743-2.353 0-3.886.7771-4.597 2.3312v15.2283h-6.58v-23.5725h6.188l.196 2.854c.581-1.0603 1.314-1.8736 2.2-2.4401.901-.5664 1.91-.8496 3.028-.8496zm-174.3588 46.2592 1.7908-1.712 5.7255 7.124h1.8823l-6.5228-8.183 5.9999-5.961h-1.9738l-5.4248 5.307-1.4771 1.595v-12.836h-1.5555v20.078h1.5555zm-14.90185-4.797c.8976.453 2.03485.871 3.41175 1.255 1.3333.374 2.3703.758 3.1111 1.15.7494.383 1.2854.823 1.6078 1.32.3224.488.4837 1.09.4837 1.804 0 .706-.2048 1.333-.6144 1.882-.4009.541-.976.959-1.7255 1.255-.7407.297-1.6035.445-2.5882.445-.9412 0-1.8301-.144-2.6666-.432-.82793-.296-1.50766-.766-2.03925-1.411-.52287-.654-.78431-1.486-.78431-2.497h-1.6209c0 1.272.34423 2.335 1.03267 3.189.68845.854 1.57298 1.486 2.65358 1.896 1.08061.409 2.22221.614 3.42481.614 1.2636 0 2.3921-.2 3.3856-.601s1.769-.976 2.3268-1.726c.5577-.749.8366-1.629.8366-2.64 0-1.002-.244-1.856-.7321-2.562-.4793-.706-1.1764-1.303-2.0914-1.791-.9151-.488-2.0828-.924-3.5033-1.307-1.2723-.34-2.2788-.706-3.01957-1.098-.74073-.392-1.27232-.824-1.59476-1.294-.32243-.48-.48365-1.033-.48365-1.66 0-.654.183-1.242.54901-1.765.36601-.532.90632-.954 1.62087-1.268.7233-.314 1.5904-.471 2.6013-.471s1.8867.188 2.6275.562c.7407.366 1.3071.876 1.6993 1.53.3921.653.5882 1.394.5882 2.222h1.6079c0-1.063-.2702-2.026-.8105-2.889-.5316-.863-1.2941-1.542-2.2876-2.039-.9847-.505-2.1263-.758-3.4248-.758-1.2374 0-2.3442.209-3.32021.627-.96732.41-1.72112.985-2.26142 1.726-.5403.74-.81045 1.595-.81045 2.562s.244 1.791.73202 2.47c.48801.671 1.18082 1.238 2.07841 1.7zm27.43765-9.085c.3312 0 .5926.1.7844.3.2004.201.3006.454.3006.759 0 .296-.1002.544-.3006.745-.1918.191-.4532.287-.7844.287-.3224 0-.5838-.096-.7843-.287-.1917-.201-.2875-.449-.2875-.745 0-.305.0958-.558.2875-.759.2005-.2.4619-.3.7843-.3zm-.7843 19.294v-14.144h1.5556v14.144zm15.3333-13.163c-.7669-.828-1.8824-1.242-3.3464-1.242-.9848 0-1.8736.235-2.6667.706-.793.47-1.4422 1.119-1.9477 1.947l-.0523-2.392h-1.5032v14.144h1.5686v-9.713c.3399-.949.8715-1.742 1.5948-2.379.7233-.644 1.5947-.967 2.6143-.967 1.0893 0 1.9172.292 2.4837.876.5664.584.8496 1.573.8496 2.967v9.216h1.5686v-9.216c0-1.804-.3878-3.12-1.1633-3.947zm25.5815 7.228c-.2005 1.961-.902 3.486-2.1046 4.575-1.1939 1.081-2.8235 1.621-4.8889 1.621-1.4291 0-2.684-.357-3.7646-1.072-1.0806-.714-1.9172-1.721-2.5098-3.019-.5926-1.299-.8889-2.798-.8889-4.497v-2.379c0-1.708.2963-3.207.8889-4.497.5926-1.298 1.4379-2.305 2.5359-3.019 1.0981-.715 2.3791-1.072 3.8431-1.072 1.3421 0 2.5055.244 3.4902.732s1.7647 1.198 2.3398 2.131c.5752.923.9281 2.039 1.0589 3.346h-1.6079c-.4096-3.224-2.1699-4.837-5.281-4.837-1.159 0-2.1655.301-3.0196.902-.854.593-1.5076 1.43-1.9607 2.51-.4532 1.081-.6798 2.34-.6798 3.778v2.405c0 1.403.2179 2.654.6536 3.752.4358 1.089 1.0719 1.943 1.9085 2.562.8366.61 1.8344.915 2.9934.915 1.6558 0 2.9151-.397 3.7778-1.19.8627-.801 1.3987-2.017 1.6078-3.647zm13.8299 4.523c-.0697-.514-.1046-1.033-.1046-1.555v-6.837c0-1.002-.2178-1.848-.6535-2.536-.4271-.688-1.0284-1.203-1.804-1.542-.7755-.349-1.6731-.523-2.6927-.523-1.0371 0-1.9695.196-2.7974.588s-1.4728.911-1.9346 1.555c-.4619.637-.6928 1.308-.6928 2.014l1.5686.013c0-.523.1612-1.003.4836-1.438.3312-.436.7843-.78 1.3595-1.033.5839-.261 1.2331-.392 1.9477-.392 1.1677 0 2.0653.292 2.6928.876.6361.575.9542 1.372.9542 2.392v1.595h-2.8888c-1.3159 0-2.4619.183-3.4379.549-.9673.357-1.7124.875-2.2353 1.555-.5142.671-.7712 1.464-.7712 2.379 0 .767.1873 1.456.5621 2.066.3834.61.9193 1.089 1.6078 1.437.6884.34 1.4858.51 2.3921.51 1.0458 0 1.9739-.205 2.7843-.614.8192-.418 1.4858-.959 2-1.621.0436.854.1481 1.512.3137 1.974h1.6732v-.17c-.1394-.314-.2484-.728-.3268-1.242zm-3.4248-.484c-.8104.515-1.7603.772-2.8496.772-.6362 0-1.1939-.122-1.6732-.366s-.8497-.576-1.1111-.994c-.2615-.418-.3922-.884-.3922-1.399 0-.653.2004-1.215.6013-1.686.4096-.47.9935-.832 1.7516-1.085.7669-.252 1.6819-.379 2.7451-.379h2.6797v3.124c-.3573.82-.9411 1.491-1.7516 2.013zm14.0264-10.928c-.401-.061-.75-.091-1.0461-.091-1.0196 0-1.8606.283-2.5229.85-.6623.566-1.1285 1.337-1.3986 2.313v9.752h-1.5687v-14.144h1.5294l.0393 2.222c.3921-.784.9193-1.394 1.5816-1.83.6711-.435 1.4684-.653 2.392-.653.183 0 .375.017.575.052.201.026.358.061.471.105zm3.189 6.144v-.301h10.092v-.954c0-1.263-.218-2.383-.654-3.359s-1.076-1.739-1.922-2.288c-.845-.549-1.851-.823-3.019-.823-1.081 0-2.087.296-3.02.889-.923.592-1.664 1.433-2.222 2.522-.549 1.09-.823 2.34-.823 3.752v.562c0 1.333.27 2.527.81 3.582.549 1.054 1.303 1.878 2.261 2.47.968.593 2.057.889 3.268.889 1.186 0 2.188-.226 3.007-.679.828-.462 1.499-1.072 2.013-1.831l-.994-.745c-.505.671-1.08 1.164-1.725 1.477-.645.305-1.39.458-2.235.458-.941 0-1.778-.248-2.51-.745s-1.303-1.172-1.712-2.026c-.41-.863-.615-1.813-.615-2.85zm2.366-5.804c.636-.392 1.347-.588 2.131-.588.845 0 1.568.214 2.17.641.601.418 1.054.976 1.359 1.673.314.697.48 1.455.497 2.274v.17h-8.457c.104-.95.357-1.782.758-2.497.401-.723.915-1.281 1.542-1.673z" fill="#fff" fill-rule="evenodd"/></svg>