<svg fill="none" height="31" viewBox="0 0 31 31" width="31" xmlns="http://www.w3.org/2000/svg"><path d="m16.0021 19.4979c-.0533.8996-.2959 1.6912-.728 2.3749-.4321.6836-1.0373 1.2148-1.8156 1.5936s-1.6883.5682-2.73.5682c-1.11275 0-2.07454-.253-2.88541-.7591-.81088-.506-1.43234-1.2296-1.86441-2.1707s-.64811-2.0538-.64811-3.3382v-.7457c0-1.2726.22195-2.3823.66586-3.3293s1.07277-1.675 1.88661-2.1841c.81383-.509 1.7623-.7635 2.84546-.7635 1.0713 0 1.9887.1968 2.7522.5904s1.3569.9381 1.7801 1.6336.6762 1.496.759 2.4015h-2.8765c-.0473-.7694-.2545-1.3391-.6214-1.709-.367-.3699-.9648-.5549-1.7934-.5549-.84641 0-1.47083.3107-1.87331.9322s-.60371 1.6099-.60371 2.9653v.7635c0 .9234.08138 1.6691.24415 2.2373.16276.5682.42467.9885.78571 1.2607.36105.2723.84346.4084 1.44716.4084.7753 0 1.3569-.1776 1.7445-.5327.3877-.3551.6052-.9026.6526-1.6424zm-12.77474-16.27054v4.66955h-2.72736v-6.03323c0-.75314.61054-1.36368 1.36368-1.36368h27.27262c.7532 0 1.3637.61054 1.3637 1.36368v27.10012c0 .7531-.6105 1.3637-1.3637 1.3637h-27.27262c-.75314 0-1.36368-.6106-1.36368-1.3637v-2.9748h2.72736v1.6111h24.54524v-24.37274z" fill="#2e2d2c"/></svg>