<svg width="335" height="167" viewBox="0 0 335 167" fill="none" xmlns="http://www.w3.org/2000/svg">
<path fill-rule="evenodd" clip-rule="evenodd" d="M5.4137 2.97456C4.7668 2.97456 4.14639 3.23154 3.68897 3.68897C3.23154 4.14639 2.97456 4.7668 2.97456 5.4137V51.5222H0V5.4137C0 3.9779 0.57037 2.6009 1.58564 1.58564C2.6009 0.57037 3.9779 0 5.4137 0H329.016C330.452 0 331.829 0.570371 332.844 1.58564C333.859 2.6009 334.43 3.97789 334.43 5.4137V160.699C334.43 162.135 333.859 163.512 332.844 164.527C331.829 165.543 330.452 166.113 329.016 166.113H5.4137C4.70276 166.113 3.99879 165.973 3.34197 165.701C2.68514 165.429 2.08834 165.03 1.58564 164.527C1.08293 164.025 0.684158 163.428 0.412093 162.771C0.140029 162.114 0 161.41 0 160.699V150.188H2.97456V160.699C2.97456 161.02 3.03765 161.337 3.16023 161.633C3.2828 161.929 3.46247 162.198 3.68897 162.424C3.91546 162.651 4.18435 162.83 4.48028 162.953C4.77621 163.075 5.09339 163.139 5.4137 163.139H329.016C329.663 163.139 330.283 162.882 330.741 162.424C331.198 161.967 331.455 161.346 331.455 160.699V5.4137C331.455 4.7668 331.198 4.14639 330.741 3.68897C330.283 3.23154 329.663 2.97456 329.016 2.97456H5.4137ZM53.2876 83.4042C51.9223 81.9372 50.0051 81.2038 47.536 81.2038C46.2869 81.2038 45.1323 81.458 44.072 81.9663C43.0263 82.4746 42.1112 83.2081 41.3269 84.1667V71.7485H34.7475V105.212H41.3269V88.4368C42.0967 87.1587 43.3603 86.5196 45.1177 86.5196C46.3523 86.5196 47.2673 86.8101 47.8628 87.3911C48.4728 87.9721 48.7778 88.9742 48.7778 90.3976V105.212H55.3573V90.4412C55.3573 87.2168 54.6674 84.8711 53.2876 83.4042ZM29.3662 100.354C30.4265 98.6837 31.0293 96.7592 31.1745 94.5806H24.3554C24.2247 96.4397 23.6727 97.8195 22.6996 98.72C21.741 99.606 20.2813 100.049 18.3206 100.049C16.81 100.049 15.5973 99.7004 14.6823 99.0032C13.7672 98.306 13.0991 97.253 12.6779 95.8442C12.2567 94.4208 12.0461 92.5835 12.0461 90.3322V88.3497C12.0461 85.0091 12.5617 82.5545 13.5929 80.9859C14.6242 79.4173 16.2073 78.633 18.3424 78.633C20.3903 78.633 21.8717 79.105 22.7868 80.0491C23.7163 80.9787 24.2464 82.402 24.3772 84.3192H31.1963C30.9929 82.097 30.3757 80.1435 29.3444 78.4587C28.3278 76.7594 26.8899 75.4304 25.0308 74.4718C23.1717 73.5132 20.9422 73.0339 18.3424 73.0339C15.6844 73.0339 13.3605 73.6584 11.3707 74.9075C9.38091 76.1566 7.84135 77.9431 6.75203 80.267C5.66271 82.5763 5.11806 85.2851 5.11806 88.3933V90.3322C5.11806 93.455 5.64093 96.171 6.68667 98.4803C7.74694 100.775 9.27198 102.547 11.2618 103.796C13.2516 105.031 15.6045 105.648 18.3206 105.648C20.8623 105.648 23.0772 105.183 24.9654 104.254C26.8535 103.324 28.3205 102.024 29.3662 100.354ZM79.1698 99.3954C79.1698 100.732 79.2496 101.814 79.4094 102.642C79.5692 103.469 79.8088 104.203 80.1284 104.842V105.212H73.5271C73.2366 104.646 73.026 103.941 72.8953 103.099C71.3993 104.798 69.4313 105.648 66.9912 105.648C65.5097 105.648 64.159 105.343 62.939 104.733C61.7189 104.123 60.7531 103.281 60.0414 102.206C59.3442 101.131 58.9956 99.9182 58.9956 98.5675C58.9956 96.0838 59.9179 94.1739 61.7625 92.8377C63.6071 91.4869 66.3231 90.8115 69.9106 90.8115H72.5903V89.4826C72.5903 88.3933 72.3143 87.5509 71.7624 86.9554C71.2105 86.3454 70.3826 86.0403 69.2788 86.0403C68.2766 86.0403 67.4923 86.28 66.9259 86.7593C66.3739 87.2241 66.098 87.8922 66.098 88.7636H59.5185C59.5185 87.3548 59.9324 86.0767 60.7603 84.9292C61.6027 83.7818 62.7865 82.8741 64.3115 82.2059C65.8511 81.5378 67.623 81.2038 69.6274 81.2038C71.4865 81.2038 73.135 81.516 74.5729 82.1406C76.0107 82.7651 77.1364 83.7019 77.9497 84.951C78.7631 86.2001 79.1698 87.7252 79.1698 89.5262V99.3954ZM68.4727 100.659C69.4313 100.659 70.2737 100.456 70.9999 100.049C71.7261 99.6277 72.2562 99.1194 72.5903 98.5239V94.5806H70.0849C68.5598 94.5806 67.4197 94.9146 66.6644 95.5827C65.9237 96.2363 65.5533 97.0933 65.5533 98.1535C65.5533 98.8943 65.8148 99.497 66.3376 99.9618C66.875 100.427 67.5867 100.659 68.4727 100.659ZM96.5335 81.2909C96.1558 81.2328 95.8 81.2038 95.4659 81.2038C94.3476 81.2038 93.3381 81.487 92.4376 82.0534C91.5517 82.6199 90.8182 83.4332 90.2372 84.4935L90.0411 81.6395H83.8538V105.212H90.4333V89.9837C91.145 88.4296 92.6773 87.6525 95.0302 87.6525C95.7419 87.6525 96.5189 87.7106 97.3614 87.8268L97.4485 81.4652C97.2161 81.3926 96.9111 81.3345 96.5335 81.2909ZM119.387 99.3954C119.387 100.732 119.467 101.814 119.627 102.642C119.787 103.469 120.026 104.203 120.346 104.842V105.212H113.745C113.454 104.646 113.244 103.941 113.113 103.099C111.617 104.798 109.649 105.648 107.209 105.648C105.727 105.648 104.377 105.343 103.157 104.733C101.936 104.123 100.971 103.281 100.259 102.206C99.5618 101.131 99.2132 99.9182 99.2132 98.5675C99.2132 96.0838 100.135 94.1739 101.98 92.8377C103.825 91.4869 106.541 90.8115 110.128 90.8115H112.808V89.4826C112.808 88.3933 112.532 87.5509 111.98 86.9554C111.428 86.3454 110.6 86.0403 109.496 86.0403C108.494 86.0403 107.71 86.28 107.143 86.7593C106.591 87.2241 106.316 87.8922 106.316 88.7636H99.7361C99.7361 87.3548 100.15 86.0767 100.978 84.9292C101.82 83.7818 103.004 82.8741 104.529 82.2059C106.069 81.5378 107.841 81.2038 109.845 81.2038C111.704 81.2038 113.353 81.516 114.79 82.1406C116.228 82.7651 117.354 83.7019 118.167 84.951C118.981 86.2001 119.387 87.7252 119.387 89.5262V99.3954ZM108.69 100.659C109.649 100.659 110.491 100.456 111.217 100.049C111.944 99.6277 112.474 99.1194 112.808 98.5239V94.5806H110.302C108.777 94.5806 107.637 94.9146 106.882 95.5827C106.141 96.2363 105.771 97.0933 105.771 98.1535C105.771 98.8943 106.032 99.497 106.555 99.9618C107.093 100.427 107.804 100.659 108.69 100.659ZM142.524 101.443C143.396 100.122 143.832 98.6256 143.832 96.9553H137.666C137.652 98.001 137.303 98.8289 136.62 99.4389C135.938 100.049 135.03 100.354 133.897 100.354C132.256 100.354 131.137 99.7657 130.542 98.5893C129.961 97.4128 129.67 95.7861 129.67 93.7091V93.1427C129.67 91.1093 129.968 89.4971 130.564 88.3061C131.159 87.1006 132.256 86.4979 133.853 86.4979C135.044 86.4979 135.974 86.8755 136.642 87.6307C137.31 88.386 137.652 89.3446 137.666 90.5065H143.832C143.832 88.6039 143.418 86.9554 142.59 85.561C141.762 84.1522 140.6 83.0774 139.104 82.3367C137.622 81.5814 135.916 81.2038 133.984 81.2038C131.631 81.2038 129.634 81.7194 127.993 82.7506C126.366 83.7818 125.139 85.1979 124.311 86.9989C123.498 88.7999 123.091 90.8479 123.091 93.1427V93.7091C123.091 96.004 123.498 98.0519 124.311 99.8529C125.139 101.654 126.373 103.07 128.015 104.101C129.656 105.132 131.66 105.648 134.028 105.648C135.843 105.648 137.492 105.278 138.973 104.537C140.469 103.796 141.653 102.765 142.524 101.443ZM157.535 100.245C158.247 100.245 158.857 100.194 159.365 100.093V105.038C158.232 105.445 156.94 105.648 155.487 105.648C150.869 105.648 148.559 103.295 148.559 98.5893V86.4325H145.226V81.6395H148.559V75.8008H155.139V81.6395H159.104V86.4325H155.139V97.8267C155.139 98.7563 155.32 99.3954 155.683 99.7439C156.046 100.078 156.664 100.245 157.535 100.245ZM168.341 95.561H183.243V92.7723C183.243 90.4194 182.836 88.3787 182.023 86.6504C181.21 84.9075 180.019 83.564 178.45 82.6199C176.881 81.6758 174.986 81.2038 172.764 81.2038C170.484 81.2038 168.508 81.7266 166.838 82.7724C165.168 83.8036 163.89 85.2415 163.004 87.0861C162.118 88.9307 161.675 91.0294 161.675 93.3823V94.2102C161.675 96.3162 162.147 98.2407 163.091 99.9836C164.049 101.726 165.415 103.106 167.187 104.123C168.973 105.14 171.072 105.648 173.483 105.648C175.618 105.648 177.477 105.241 179.06 104.428C180.658 103.615 181.87 102.612 182.698 101.421L179.539 97.7832C178.857 98.6401 178.029 99.2864 177.056 99.7222C176.097 100.143 175.051 100.354 173.918 100.354C172.393 100.354 171.144 99.9255 170.171 99.0686C169.198 98.1971 168.588 97.0279 168.341 95.561ZM175.727 87.609C176.409 88.3497 176.765 89.3591 176.794 90.6373V91.1601H168.407C168.624 89.7077 169.082 88.5676 169.779 87.7397C170.491 86.9118 171.471 86.4979 172.72 86.4979C174.056 86.4979 175.059 86.8682 175.727 87.609ZM198.297 81.2038C198.631 81.2038 198.987 81.2328 199.365 81.2909C199.743 81.3345 200.048 81.3926 200.28 81.4652L200.193 87.8268C199.35 87.7106 198.573 87.6525 197.862 87.6525C195.509 87.6525 193.976 88.4296 193.265 89.9837V105.212H186.685V81.6395H192.873L193.069 84.4935C193.65 83.4332 194.383 82.6199 195.269 82.0534C196.17 81.487 197.179 81.2038 198.297 81.2038ZM23.9382 127.463L25.729 125.751L31.4545 132.875H33.3368L26.814 124.692L32.8139 118.731H30.8401L25.4153 124.038L23.9382 125.633V112.797H22.3827V132.875H23.9382V127.463ZM9.03635 122.666C9.93395 123.119 11.0712 123.537 12.4481 123.921C13.7814 124.295 14.8184 124.679 15.5592 125.071C16.3086 125.454 16.8446 125.894 17.167 126.391C17.4894 126.879 17.6507 127.481 17.6507 128.195C17.6507 128.901 17.4459 129.528 17.0363 130.077C16.6354 130.618 16.0603 131.036 15.3108 131.332C14.5701 131.629 13.7073 131.777 12.7226 131.777C11.7814 131.777 10.8925 131.633 10.056 131.345C9.22807 131.049 8.54834 130.579 8.01675 129.934C7.49388 129.28 7.23244 128.448 7.23244 127.437H5.61154C5.61154 128.709 5.95577 129.772 6.64421 130.626C7.33266 131.48 8.21719 132.112 9.29779 132.522C10.3784 132.931 11.52 133.136 12.7226 133.136C13.9862 133.136 15.1147 132.936 16.1082 132.535C17.1017 132.134 17.8772 131.559 18.435 130.809C18.9927 130.06 19.2716 129.18 19.2716 128.169C19.2716 127.167 19.0276 126.313 18.5395 125.607C18.0602 124.901 17.3631 124.304 16.4481 123.816C15.533 123.328 14.3653 122.892 12.9448 122.509C11.6725 122.169 10.666 121.803 9.92523 121.411C9.1845 121.019 8.65291 120.587 8.33047 120.117C8.00804 119.637 7.84682 119.084 7.84682 118.457C7.84682 117.803 8.02982 117.215 8.39583 116.692C8.76184 116.16 9.30215 115.738 10.0167 115.424C10.74 115.11 11.6071 114.953 12.618 114.953C13.6289 114.953 14.5047 115.141 15.2455 115.515C15.9862 115.881 16.5526 116.391 16.9448 117.045C17.3369 117.698 17.533 118.439 17.533 119.267H19.1409C19.1409 118.204 18.8707 117.241 18.3304 116.378C17.7988 115.515 17.0363 114.836 16.0428 114.339C15.0581 113.834 13.9165 113.581 12.618 113.581C11.3806 113.581 10.2738 113.79 9.29779 114.208C8.33047 114.618 7.57667 115.193 7.03637 115.934C6.49607 116.674 6.22592 117.529 6.22592 118.496C6.22592 119.463 6.46992 120.287 6.95794 120.966C7.44595 121.637 8.13876 122.204 9.03635 122.666ZM36.474 113.581C36.8052 113.581 37.0666 113.681 37.2584 113.881C37.4588 114.082 37.559 114.335 37.559 114.64C37.559 114.936 37.4588 115.184 37.2584 115.385C37.0666 115.576 36.8052 115.672 36.474 115.672C36.1516 115.672 35.8902 115.576 35.6897 115.385C35.498 115.184 35.4022 114.936 35.4022 114.64C35.4022 114.335 35.498 114.082 35.6897 113.881C35.8902 113.681 36.1516 113.581 36.474 113.581ZM35.6897 132.875V118.731H37.2453V132.875H35.6897ZM51.023 119.712C50.2561 118.884 49.1406 118.47 47.6766 118.47C46.6918 118.47 45.803 118.705 45.0099 119.176C44.2169 119.646 43.5677 120.295 43.0622 121.123L43.0099 118.731H41.5067V132.875H43.0753V123.162C43.4152 122.213 43.9468 121.42 44.6701 120.783C45.3934 120.139 46.2648 119.816 47.2844 119.816C48.3737 119.816 49.2016 120.108 49.7681 120.692C50.3345 121.276 50.6177 122.265 50.6177 123.659V132.875H52.1863V123.659C52.1863 121.855 51.7985 120.539 51.023 119.712ZM76.6045 126.94C76.404 128.901 75.7025 130.426 74.4999 131.515C73.306 132.596 71.6764 133.136 69.611 133.136C68.1819 133.136 66.927 132.779 65.8464 132.064C64.7658 131.35 63.9292 130.343 63.3366 129.045C62.744 127.746 62.4477 126.247 62.4477 124.548V122.169C62.4477 120.461 62.744 118.962 63.3366 117.672C63.9292 116.374 64.7745 115.367 65.8725 114.653C66.9706 113.938 68.2516 113.581 69.7156 113.581C71.0577 113.581 72.2211 113.825 73.2058 114.313C74.1905 114.801 74.9705 115.511 75.5456 116.444C76.1208 117.367 76.4737 118.483 76.6045 119.79H74.9966C74.587 116.566 72.8267 114.953 69.7156 114.953C68.5566 114.953 67.5501 115.254 66.696 115.855C65.842 116.448 65.1884 117.285 64.7353 118.365C64.2821 119.446 64.0555 120.705 64.0555 122.143V124.548C64.0555 125.951 64.2734 127.202 64.7091 128.3C65.1449 129.389 65.781 130.243 66.6176 130.862C67.4542 131.472 68.452 131.777 69.611 131.777C71.2668 131.777 72.5261 131.38 73.3888 130.587C74.2515 129.786 74.7875 128.57 74.9966 126.94H76.6045ZM90.4344 131.463C90.3647 130.949 90.3298 130.43 90.3298 129.908V123.071C90.3298 122.069 90.112 121.223 89.6763 120.535C89.2492 119.847 88.6479 119.332 87.8723 118.993C87.0968 118.644 86.1992 118.47 85.1796 118.47C84.1425 118.47 83.2101 118.666 82.3822 119.058C81.5543 119.45 80.9094 119.969 80.4476 120.613C79.9857 121.25 79.7548 121.921 79.7548 122.627L81.3234 122.64C81.3234 122.117 81.4846 121.637 81.807 121.202C82.1382 120.766 82.5913 120.422 83.1665 120.169C83.7504 119.908 84.3996 119.777 85.1142 119.777C86.2819 119.777 87.1795 120.069 87.807 120.653C88.4431 121.228 88.7612 122.025 88.7612 123.045V124.64H85.8724C84.5565 124.64 83.4105 124.823 82.4345 125.189C81.4672 125.546 80.7221 126.064 80.1992 126.744C79.685 127.415 79.428 128.208 79.428 129.123C79.428 129.89 79.6153 130.579 79.9901 131.189C80.3735 131.799 80.9094 132.278 81.5979 132.626C82.2863 132.966 83.0837 133.136 83.99 133.136C85.0358 133.136 85.9639 132.931 86.7743 132.522C87.5935 132.104 88.2601 131.563 88.7743 130.901C88.8179 131.755 88.9224 132.413 89.088 132.875H90.7612V132.705C90.6218 132.391 90.5128 131.977 90.4344 131.463ZM87.0096 130.979C86.1992 131.494 85.2493 131.751 84.16 131.751C83.5238 131.751 82.9661 131.629 82.4868 131.385C82.0075 131.141 81.6371 130.809 81.3757 130.391C81.1142 129.973 80.9835 129.507 80.9835 128.992C80.9835 128.339 81.1839 127.777 81.5848 127.306C81.9944 126.836 82.5783 126.474 83.3364 126.221C84.1033 125.969 85.0183 125.842 86.0815 125.842H88.7612V128.966C88.4039 129.786 87.8201 130.457 87.0096 130.979ZM101.036 120.051C100.635 119.99 100.286 119.96 99.9899 119.96C98.9703 119.96 98.1293 120.243 97.467 120.81C96.8047 121.376 96.3385 122.147 96.0684 123.123V132.875H94.4997V118.731H96.0291L96.0684 120.953C96.4605 120.169 96.9877 119.559 97.65 119.123C98.3211 118.688 99.1184 118.47 100.042 118.47C100.225 118.47 100.417 118.487 100.617 118.522C100.818 118.548 100.975 118.583 101.088 118.627L101.036 120.051ZM104.225 126.195V125.894H114.317V124.94C114.317 123.677 114.099 122.557 113.663 121.581C113.227 120.605 112.587 119.842 111.741 119.293C110.896 118.744 109.89 118.47 108.722 118.47C107.641 118.47 106.635 118.766 105.702 119.359C104.779 119.951 104.038 120.792 103.48 121.881C102.931 122.971 102.657 124.221 102.657 125.633V126.195C102.657 127.528 102.927 128.722 103.467 129.777C104.016 130.831 104.77 131.655 105.728 132.247C106.696 132.84 107.785 133.136 108.996 133.136C110.182 133.136 111.184 132.91 112.003 132.457C112.831 131.995 113.502 131.385 114.016 130.626L113.022 129.881C112.517 130.552 111.942 131.045 111.297 131.358C110.652 131.663 109.907 131.816 109.062 131.816C108.121 131.816 107.284 131.568 106.552 131.071C105.82 130.574 105.249 129.899 104.84 129.045C104.43 128.182 104.225 127.232 104.225 126.195ZM106.591 120.391C107.227 119.999 107.938 119.803 108.722 119.803C109.567 119.803 110.29 120.017 110.892 120.444C111.493 120.862 111.946 121.42 112.251 122.117C112.565 122.814 112.731 123.572 112.748 124.391V124.561H104.291C104.395 123.611 104.648 122.779 105.049 122.064C105.45 121.341 105.964 120.783 106.591 120.391Z" fill="#324640"/>
</svg>
