<svg fill="none" height="394" viewBox="0 0 537 394" width="537" xmlns="http://www.w3.org/2000/svg"><path d="m0 0h537v393.345h-537z" fill="#282a29"/><path clip-rule="evenodd" d="m106.414 116.975c-.647 0-1.268.257-1.725.714s-.714 1.078-.714 1.725v46.108h-2.975v-46.108c0-1.436.57-2.813 1.586-3.828 1.015-1.016 2.392-1.586 3.828-1.586h323.602c1.436 0 2.813.57 3.828 1.586 1.015 1.015 1.586 2.392 1.586 3.828v155.285c0 1.436-.571 2.813-1.586 3.828-1.015 1.016-2.392 1.586-3.828 1.586h-323.602c-.711 0-1.415-.14-2.072-.412s-1.254-.671-1.756-1.174c-.503-.502-.902-1.099-1.174-1.756s-.412-1.361-.412-2.072v-10.511h2.975v10.511c0 .321.063.638.185.934.123.296.302.565.529.791.226.227.495.406.791.529.296.122.613.186.934.186h323.602c.647 0 1.267-.257 1.725-.715.457-.457.714-1.078.714-1.725v-155.285c0-.647-.257-1.268-.714-1.725-.458-.457-1.078-.714-1.725-.714zm47.874 80.429c-1.366-1.467-3.283-2.2-5.752-2.2-1.249 0-2.404.254-3.464.762-1.046.509-1.961 1.242-2.745 2.201v-12.418h-6.58v33.463h6.58v-16.775c.77-1.278 2.033-1.917 3.791-1.917 1.234 0 2.149.29 2.745.871.61.581.915 1.583.915 3.007v14.814h6.579v-14.771c0-3.224-.69-5.57-2.069-7.037zm-23.922 16.95c1.061-1.67 1.663-3.595 1.808-5.773h-6.819c-.13 1.859-.682 3.238-1.655 4.139-.959.886-2.419 1.329-4.379 1.329-1.511 0-2.724-.349-3.639-1.046s-1.583-1.75-2.004-3.159c-.421-1.423-.632-3.26-.632-5.512v-1.982c0-3.341.516-5.795 1.547-7.364s2.614-2.353 4.749-2.353c2.048 0 3.53.472 4.445 1.416.929.93 1.459 2.353 1.59 4.27h6.819c-.203-2.222-.82-4.175-1.852-5.86-1.016-1.7-2.454-3.029-4.313-3.987-1.859-.959-4.089-1.438-6.689-1.438-2.658 0-4.981.624-6.971 1.874-1.99 1.249-3.53 3.035-4.619 5.359-1.089 2.309-1.634 5.018-1.634 8.126v1.939c0 3.123.523 5.839 1.569 8.148 1.06 2.295 2.585 4.067 4.575 5.316 1.99 1.235 4.343 1.852 7.059 1.852 2.541 0 4.756-.465 6.644-1.394 1.889-.93 3.355-2.23 4.401-3.9zm49.804-.959c0 1.337.08 2.419.239 3.247.16.827.4 1.561.719 2.2v.37h-6.601c-.29-.566-.501-1.271-.632-2.113-1.496 1.699-3.464 2.549-5.904 2.549-1.481 0-2.832-.305-4.052-.915s-2.186-1.452-2.898-2.527c-.697-1.075-1.045-2.288-1.045-3.639 0-2.483.922-4.393 2.766-5.729 1.845-1.351 4.561-2.026 8.149-2.026h2.679v-1.329c0-1.09-.276-1.932-.828-2.528-.552-.61-1.379-.915-2.483-.915-1.002 0-1.787.24-2.353.719-.552.465-.828 1.133-.828 2.005h-6.579c0-1.409.413-2.687 1.241-3.835.843-1.147 2.026-2.055 3.551-2.723 1.54-.668 3.312-1.002 5.316-1.002 1.859 0 3.508.312 4.946.937 1.438.624 2.563 1.561 3.377 2.81.813 1.249 1.22 2.774 1.22 4.575zm-10.697 1.264c.958 0 1.801-.203 2.527-.61.726-.421 1.256-.93 1.59-1.525v-3.943h-2.505c-1.525 0-2.665.334-3.421 1.002-.74.653-1.111 1.51-1.111 2.571 0 .74.262 1.343.785 1.808.537.465 1.249.697 2.135.697zm28.06-19.368c-.377-.058-.733-.087-1.067-.087-1.118 0-2.128.283-3.028.849-.886.567-1.62 1.38-2.201 2.441l-.196-2.854h-6.187v23.572h6.579v-15.228c.712-1.554 2.244-2.331 4.597-2.331.712 0 1.489.058 2.331.174l.087-6.362c-.232-.072-.537-.131-.915-.174zm22.854 18.104c0 1.337.08 2.419.24 3.247.16.827.399 1.561.719 2.2v.37h-6.601c-.291-.566-.501-1.271-.632-2.113-1.496 1.699-3.464 2.549-5.904 2.549-1.482 0-2.832-.305-4.052-.915-1.221-.61-2.186-1.452-2.898-2.527-.697-1.075-1.046-2.288-1.046-3.639 0-2.483.922-4.393 2.767-5.729 1.845-1.351 4.561-2.026 8.148-2.026h2.68v-1.329c0-1.09-.276-1.932-.828-2.528-.552-.61-1.38-.915-2.484-.915-1.002 0-1.786.24-2.353.719-.552.465-.827 1.133-.827 2.005h-6.58c0-1.409.414-2.687 1.242-3.835.842-1.147 2.026-2.055 3.551-2.723 1.54-.668 3.312-1.002 5.316-1.002 1.859 0 3.508.312 4.945.937 1.438.624 2.564 1.561 3.377 2.81.814 1.249 1.22 2.774 1.22 4.575zm-10.697 1.264c.959 0 1.801-.203 2.527-.61.727-.421 1.257-.93 1.591-1.525v-3.943h-2.506c-1.525 0-2.665.334-3.42 1.002-.741.653-1.111 1.51-1.111 2.571 0 .74.261 1.343.784 1.808.538.465 1.249.697 2.135.697zm33.834.784c.872-1.321 1.308-2.817 1.308-4.488h-6.166c-.014 1.046-.363 1.874-1.046 2.484-.682.61-1.59.915-2.723.915-1.641 0-2.76-.588-3.355-1.765-.581-1.176-.872-2.803-.872-4.88v-.566c0-2.034.298-3.646.894-4.837.595-1.205 1.692-1.808 3.289-1.808 1.191 0 2.121.377 2.789 1.133.668.755 1.01 1.714 1.024 2.876h6.166c0-1.903-.414-3.552-1.242-4.946-.828-1.409-1.99-2.484-3.486-3.224-1.482-.756-3.188-1.133-5.12-1.133-2.353 0-4.35.515-5.991 1.547-1.627 1.031-2.854 2.447-3.682 4.248-.813 1.801-1.22 3.849-1.22 6.144v.566c0 2.295.407 4.343 1.22 6.144.828 1.801 2.062 3.217 3.704 4.248 1.641 1.031 3.645 1.547 6.013 1.547 1.815 0 3.464-.37 4.945-1.111 1.496-.741 2.68-1.772 3.551-3.094zm15.011-1.198c.712 0 1.322-.051 1.83-.152v4.945c-1.133.407-2.425.61-3.878.61-4.618 0-6.928-2.353-6.928-7.059v-12.157h-3.333v-4.792h3.333v-5.839h6.58v5.839h3.965v4.792h-3.965v11.395c0 .929.181 1.568.544 1.917.363.334.981.501 1.852.501zm10.806-4.684h14.902v-2.789c0-2.353-.407-4.393-1.22-6.122-.813-1.743-2.004-3.086-3.573-4.03s-3.464-1.416-5.686-1.416c-2.28 0-4.256.523-5.926 1.568-1.67 1.032-2.948 2.47-3.834 4.314-.886 1.845-1.329 3.943-1.329 6.296v.828c0 2.106.472 4.031 1.416 5.774.958 1.742 2.324 3.122 4.096 4.139 1.786 1.017 3.885 1.525 6.296 1.525 2.135 0 3.994-.407 5.577-1.22 1.598-.813 2.81-1.816 3.638-3.007l-3.159-3.638c-.682.857-1.51 1.503-2.483 1.939-.959.421-2.005.632-3.138.632-1.525 0-2.774-.429-3.747-1.285-.973-.872-1.583-2.041-1.83-3.508zm7.386-7.952c.682.741 1.038 1.75 1.067 3.028v.523h-8.387c.217-1.452.675-2.592 1.372-3.42.712-.828 1.692-1.242 2.941-1.242 1.336 0 2.339.37 3.007 1.111zm22.57-6.405c.334 0 .69.029 1.068.087.378.043.683.102.915.174l-.087 6.362c-.843-.116-1.62-.174-2.331-.174-2.353 0-3.886.777-4.597 2.331v15.228h-6.58v-23.572h6.188l.196 2.854c.581-1.061 1.314-1.874 2.2-2.441.901-.566 1.91-.849 3.028-.849zm-174.359 46.259 1.791-1.712 5.725 7.124h1.883l-6.523-8.183 6-5.961h-1.974l-5.425 5.307-1.477 1.595v-12.836h-1.555v20.078h1.555zm-14.902-4.797c.898.453 2.035.871 3.412 1.255 1.333.374 2.37.758 3.111 1.15.75.383 1.286.823 1.608 1.32.322.488.484 1.09.484 1.804 0 .706-.205 1.333-.615 1.882-.401.541-.976.959-1.725 1.255-.741.297-1.604.445-2.588.445-.942 0-1.83-.144-2.667-.432-.828-.296-1.508-.766-2.039-1.411-.523-.654-.785-1.486-.785-2.497h-1.62c0 1.272.344 2.335 1.032 3.189.689.854 1.573 1.486 2.654 1.896 1.08.409 2.222.614 3.425.614 1.263 0 2.392-.2 3.385-.601.994-.401 1.769-.976 2.327-1.726.558-.749.837-1.629.837-2.64 0-1.002-.244-1.856-.732-2.562-.48-.706-1.177-1.303-2.092-1.791s-2.083-.924-3.503-1.307c-1.273-.34-2.279-.706-3.02-1.098s-1.272-.824-1.595-1.294c-.322-.48-.483-1.033-.483-1.66 0-.654.183-1.242.549-1.765.366-.532.906-.954 1.621-1.268.723-.314 1.59-.471 2.601-.471s1.887.188 2.627.562c.741.366 1.308.876 1.7 1.53.392.653.588 1.394.588 2.222h1.608c0-1.063-.27-2.026-.811-2.889-.531-.863-1.294-1.542-2.287-2.039-.985-.505-2.127-.758-3.425-.758-1.237 0-2.344.209-3.32.627-.968.41-1.721.985-2.262 1.726-.54.741-.81 1.595-.81 2.562s.244 1.791.732 2.47c.488.671 1.181 1.238 2.078 1.7zm27.438-9.085c.331 0 .593.1.784.3.201.201.301.454.301.759 0 .296-.1.544-.301.745-.191.191-.453.287-.784.287-.322 0-.584-.096-.784-.287-.192-.201-.288-.449-.288-.745 0-.305.096-.558.288-.759.2-.2.462-.3.784-.3zm-.784 19.294v-14.144h1.555v14.144zm15.333-13.163c-.767-.828-1.882-1.242-3.346-1.242-.985 0-1.874.235-2.667.706-.793.47-1.442 1.119-1.948 1.947l-.052-2.392h-1.503v14.144h1.568v-9.713c.34-.949.872-1.742 1.595-2.379.723-.644 1.595-.967 2.614-.967 1.09 0 1.918.292 2.484.876.567.584.85 1.573.85 2.967v9.216h1.568v-9.216c0-1.804-.387-3.12-1.163-3.947zm25.581 7.228c-.2 1.961-.901 3.486-2.104 4.575-1.194 1.081-2.824 1.621-4.889 1.621-1.429 0-2.684-.357-3.765-1.072-1.08-.714-1.917-1.721-2.509-3.019-.593-1.299-.889-2.798-.889-4.497v-2.379c0-1.708.296-3.207.889-4.497.592-1.298 1.437-2.305 2.536-3.019 1.098-.715 2.379-1.072 3.843-1.072 1.342 0 2.505.244 3.49.732s1.764 1.198 2.34 2.131c.575.923.928 2.039 1.058 3.346h-1.607c-.41-3.224-2.17-4.837-5.281-4.837-1.159 0-2.166.301-3.02.902-.854.593-1.508 1.43-1.961 2.51-.453 1.081-.679 2.34-.679 3.778v2.405c0 1.403.217 2.654.653 3.752.436 1.089 1.072 1.943 1.909 2.562.836.61 1.834.915 2.993.915 1.656 0 2.915-.397 3.778-1.19.863-.801 1.398-2.017 1.608-3.647zm13.83 4.523c-.069-.514-.104-1.033-.104-1.555v-6.837c0-1.002-.218-1.848-.654-2.536-.427-.688-1.028-1.203-1.804-1.542-.775-.349-1.673-.523-2.692-.523-1.037 0-1.97.196-2.798.588s-1.473.911-1.934 1.555c-.462.637-.693 1.308-.693 2.014l1.568.013c0-.523.162-1.003.484-1.438.331-.436.784-.78 1.36-1.033.583-.261 1.233-.392 1.947-.392 1.168 0 2.066.292 2.693.876.636.575.954 1.372.954 2.392v1.595h-2.889c-1.316 0-2.461.183-3.438.549-.967.357-1.712.875-2.235 1.555-.514.671-.771 1.464-.771 2.379 0 .767.187 1.456.562 2.066.383.61.919 1.089 1.608 1.437.688.34 1.486.51 2.392.51 1.046 0 1.974-.205 2.784-.614.819-.418 1.486-.959 2-1.621.044.854.148 1.512.314 1.974h1.673v-.17c-.139-.314-.248-.728-.327-1.242zm-3.424-.484c-.811.515-1.761.772-2.85.772-.636 0-1.194-.122-1.673-.366-.48-.244-.85-.576-1.111-.994-.262-.418-.392-.884-.392-1.399 0-.653.2-1.215.601-1.686.409-.47.993-.832 1.751-1.085.767-.252 1.682-.379 2.746-.379h2.679v3.124c-.357.82-.941 1.491-1.751 2.013zm14.026-10.928c-.401-.061-.75-.091-1.046-.091-1.02 0-1.861.283-2.523.85-.662.566-1.128 1.337-1.399 2.313v9.752h-1.568v-14.144h1.529l.039 2.222c.393-.784.92-1.394 1.582-1.83.671-.435 1.468-.653 2.392-.653.183 0 .375.017.575.052.201.026.358.061.471.105zm3.189 6.144v-.301h10.092v-.954c0-1.263-.218-2.383-.654-3.359s-1.076-1.739-1.922-2.288c-.845-.549-1.851-.823-3.019-.823-1.081 0-2.087.296-3.02.889-.923.592-1.664 1.433-2.222 2.522-.549 1.09-.823 2.34-.823 3.752v.562c0 1.333.27 2.527.81 3.582.549 1.054 1.303 1.878 2.261 2.47.968.593 2.057.889 3.268.889 1.186 0 2.188-.226 3.007-.679.828-.462 1.499-1.072 2.013-1.831l-.994-.745c-.505.671-1.08 1.164-1.725 1.477-.645.305-1.39.458-2.235.458-.941 0-1.778-.248-2.51-.745s-1.303-1.172-1.712-2.026c-.41-.863-.615-1.813-.615-2.85zm2.366-5.804c.636-.392 1.347-.588 2.131-.588.845 0 1.568.214 2.17.641.601.418 1.054.976 1.359 1.673.314.697.48 1.455.497 2.274v.17h-8.457c.104-.95.357-1.782.758-2.497.401-.723.915-1.281 1.542-1.673z" fill="#fff" fill-rule="evenodd"/></svg>