<svg width="537" height="394" viewBox="0 0 537 394" fill="none" xmlns="http://www.w3.org/2000/svg">
<path d="M0 0H537V393.345H0V0Z" fill="#282A29"/>
<path fill-rule="evenodd" clip-rule="evenodd" d="M106.414 116.975C105.767 116.975 105.146 117.232 104.689 117.689C104.232 118.146 103.975 118.767 103.975 119.414V165.522H101V119.414C101 117.978 101.57 116.601 102.586 115.586C103.601 114.57 104.978 114 106.414 114H430.016C431.452 114 432.829 114.57 433.844 115.586C434.859 116.601 435.43 117.978 435.43 119.414V274.699C435.43 276.135 434.859 277.512 433.844 278.527C432.829 279.543 431.452 280.113 430.016 280.113H106.414C105.703 280.113 104.999 279.973 104.342 279.701C103.685 279.429 103.088 279.03 102.586 278.527C102.083 278.025 101.684 277.428 101.412 276.771C101.14 276.114 101 275.41 101 274.699V264.188H103.975V274.699C103.975 275.02 104.038 275.337 104.16 275.633C104.283 275.929 104.462 276.198 104.689 276.424C104.915 276.651 105.184 276.83 105.48 276.953C105.776 277.075 106.093 277.139 106.414 277.139H430.016C430.663 277.139 431.283 276.882 431.741 276.424C432.198 275.967 432.455 275.346 432.455 274.699V119.414C432.455 118.767 432.198 118.146 431.741 117.689C431.283 117.232 430.663 116.975 430.016 116.975H106.414ZM154.288 197.404C152.922 195.937 151.005 195.204 148.536 195.204C147.287 195.204 146.132 195.458 145.072 195.966C144.026 196.475 143.111 197.208 142.327 198.167V185.749H135.747V219.212H142.327V202.437C143.097 201.159 144.36 200.52 146.118 200.52C147.352 200.52 148.267 200.81 148.863 201.391C149.473 201.972 149.778 202.974 149.778 204.398V219.212H156.357V204.441C156.357 201.217 155.667 198.871 154.288 197.404ZM130.366 214.354C131.427 212.684 132.029 210.759 132.174 208.581H125.355C125.225 210.44 124.673 211.819 123.7 212.72C122.741 213.606 121.281 214.049 119.321 214.049C117.81 214.049 116.597 213.7 115.682 213.003C114.767 212.306 114.099 211.253 113.678 209.844C113.257 208.421 113.046 206.584 113.046 204.332V202.35C113.046 199.009 113.562 196.555 114.593 194.986C115.624 193.417 117.207 192.633 119.342 192.633C121.39 192.633 122.872 193.105 123.787 194.049C124.716 194.979 125.246 196.402 125.377 198.319H132.196C131.993 196.097 131.376 194.144 130.344 192.459C129.328 190.759 127.89 189.43 126.031 188.472C124.172 187.513 121.942 187.034 119.342 187.034C116.684 187.034 114.361 187.658 112.371 188.908C110.381 190.157 108.841 191.943 107.752 194.267C106.663 196.576 106.118 199.285 106.118 202.393V204.332C106.118 207.455 106.641 210.171 107.687 212.48C108.747 214.775 110.272 216.547 112.262 217.796C114.252 219.031 116.605 219.648 119.321 219.648C121.862 219.648 124.077 219.183 125.965 218.254C127.854 217.324 129.32 216.024 130.366 214.354ZM180.17 213.395C180.17 214.732 180.25 215.814 180.409 216.642C180.569 217.469 180.809 218.203 181.128 218.842V219.212H174.527C174.237 218.646 174.026 217.941 173.895 217.099C172.399 218.798 170.431 219.648 167.991 219.648C166.51 219.648 165.159 219.343 163.939 218.733C162.719 218.123 161.753 217.281 161.041 216.206C160.344 215.131 159.996 213.918 159.996 212.567C159.996 210.084 160.918 208.174 162.762 206.838C164.607 205.487 167.323 204.812 170.911 204.812H173.59V203.483C173.59 202.393 173.314 201.551 172.762 200.955C172.21 200.345 171.383 200.04 170.279 200.04C169.277 200.04 168.492 200.28 167.926 200.759C167.374 201.224 167.098 201.892 167.098 202.764H160.519C160.519 201.355 160.932 200.077 161.76 198.929C162.603 197.782 163.786 196.874 165.311 196.206C166.851 195.538 168.623 195.204 170.627 195.204C172.486 195.204 174.135 195.516 175.573 196.141C177.011 196.765 178.136 197.702 178.95 198.951C179.763 200.2 180.17 201.725 180.17 203.526V213.395ZM169.473 214.659C170.431 214.659 171.274 214.456 172 214.049C172.726 213.628 173.256 213.119 173.59 212.524V208.581H171.085C169.56 208.581 168.42 208.915 167.664 209.583C166.924 210.236 166.553 211.093 166.553 212.154C166.553 212.894 166.815 213.497 167.338 213.962C167.875 214.427 168.587 214.659 169.473 214.659ZM197.533 195.291C197.156 195.233 196.8 195.204 196.466 195.204C195.348 195.204 194.338 195.487 193.438 196.053C192.552 196.62 191.818 197.433 191.237 198.494L191.041 195.64H184.854V219.212H191.433V203.984C192.145 202.43 193.677 201.653 196.03 201.653C196.742 201.653 197.519 201.711 198.361 201.827L198.448 195.465C198.216 195.393 197.911 195.334 197.533 195.291ZM220.387 213.395C220.387 214.732 220.467 215.814 220.627 216.642C220.787 217.469 221.026 218.203 221.346 218.842V219.212H214.745C214.454 218.646 214.244 217.941 214.113 217.099C212.617 218.798 210.649 219.648 208.209 219.648C206.727 219.648 205.377 219.343 204.157 218.733C202.936 218.123 201.971 217.281 201.259 216.206C200.562 215.131 200.213 213.918 200.213 212.567C200.213 210.084 201.135 208.174 202.98 206.838C204.825 205.487 207.541 204.812 211.128 204.812H213.808V203.483C213.808 202.393 213.532 201.551 212.98 200.955C212.428 200.345 211.6 200.04 210.496 200.04C209.494 200.04 208.71 200.28 208.143 200.759C207.591 201.224 207.316 201.892 207.316 202.764H200.736C200.736 201.355 201.15 200.077 201.978 198.929C202.82 197.782 204.004 196.874 205.529 196.206C207.069 195.538 208.841 195.204 210.845 195.204C212.704 195.204 214.353 195.516 215.79 196.141C217.228 196.765 218.354 197.702 219.167 198.951C219.981 200.2 220.387 201.725 220.387 203.526V213.395ZM209.69 214.659C210.649 214.659 211.491 214.456 212.217 214.049C212.944 213.628 213.474 213.119 213.808 212.524V208.581H211.302C209.777 208.581 208.637 208.915 207.882 209.583C207.141 210.236 206.771 211.093 206.771 212.154C206.771 212.894 207.032 213.497 207.555 213.962C208.093 214.427 208.804 214.659 209.69 214.659ZM243.524 215.443C244.396 214.122 244.832 212.626 244.832 210.955H238.666C238.652 212.001 238.303 212.829 237.62 213.439C236.938 214.049 236.03 214.354 234.897 214.354C233.256 214.354 232.137 213.766 231.542 212.589C230.961 211.413 230.67 209.786 230.67 207.709V207.143C230.67 205.109 230.968 203.497 231.564 202.306C232.159 201.101 233.256 200.498 234.853 200.498C236.044 200.498 236.974 200.875 237.642 201.631C238.31 202.386 238.652 203.345 238.666 204.507H244.832C244.832 202.604 244.418 200.955 243.59 199.561C242.762 198.152 241.6 197.077 240.104 196.337C238.622 195.581 236.916 195.204 234.984 195.204C232.631 195.204 230.634 195.719 228.993 196.751C227.366 197.782 226.139 199.198 225.311 200.999C224.498 202.8 224.091 204.848 224.091 207.143V207.709C224.091 210.004 224.498 212.052 225.311 213.853C226.139 215.654 227.373 217.07 229.015 218.101C230.656 219.132 232.66 219.648 235.028 219.648C236.843 219.648 238.492 219.278 239.973 218.537C241.469 217.796 242.653 216.765 243.524 215.443ZM258.535 214.245C259.247 214.245 259.857 214.194 260.365 214.093V219.038C259.232 219.445 257.94 219.648 256.487 219.648C251.869 219.648 249.559 217.295 249.559 212.589V200.432H246.226V195.64H249.559V189.801H256.139V195.64H260.104V200.432H256.139V211.827C256.139 212.756 256.32 213.395 256.683 213.744C257.046 214.078 257.664 214.245 258.535 214.245ZM269.341 209.561H284.243V206.772C284.243 204.419 283.836 202.379 283.023 200.65C282.21 198.907 281.019 197.564 279.45 196.62C277.881 195.676 275.986 195.204 273.764 195.204C271.484 195.204 269.508 195.727 267.838 196.772C266.168 197.804 264.89 199.242 264.004 201.086C263.118 202.931 262.675 205.029 262.675 207.382V208.21C262.675 210.316 263.147 212.241 264.091 213.984C265.049 215.726 266.415 217.106 268.187 218.123C269.973 219.14 272.072 219.648 274.483 219.648C276.618 219.648 278.477 219.241 280.06 218.428C281.658 217.615 282.87 216.612 283.698 215.421L280.539 211.783C279.857 212.64 279.029 213.286 278.056 213.722C277.097 214.143 276.051 214.354 274.918 214.354C273.393 214.354 272.144 213.925 271.171 213.069C270.198 212.197 269.588 211.028 269.341 209.561ZM276.727 201.609C277.409 202.35 277.765 203.359 277.794 204.637V205.16H269.407C269.624 203.708 270.082 202.568 270.779 201.74C271.491 200.912 272.471 200.498 273.72 200.498C275.056 200.498 276.059 200.868 276.727 201.609ZM299.297 195.204C299.631 195.204 299.987 195.233 300.365 195.291C300.743 195.334 301.048 195.393 301.28 195.465L301.193 201.827C300.35 201.711 299.573 201.653 298.862 201.653C296.509 201.653 294.976 202.43 294.265 203.984V219.212H287.685V195.64H293.873L294.069 198.494C294.65 197.433 295.383 196.62 296.269 196.053C297.17 195.487 298.179 195.204 299.297 195.204ZM124.938 241.463L126.729 239.751L132.454 246.875H134.337L127.814 238.692L133.814 232.731H131.84L126.415 238.038L124.938 239.633V226.797H123.383V246.875H124.938V241.463ZM110.036 236.666C110.934 237.119 112.071 237.537 113.448 237.921C114.781 238.295 115.818 238.679 116.559 239.071C117.309 239.454 117.845 239.894 118.167 240.391C118.489 240.879 118.651 241.481 118.651 242.195C118.651 242.901 118.446 243.528 118.036 244.077C117.635 244.618 117.06 245.036 116.311 245.332C115.57 245.629 114.707 245.777 113.723 245.777C112.781 245.777 111.893 245.633 111.056 245.345C110.228 245.049 109.548 244.579 109.017 243.934C108.494 243.28 108.232 242.448 108.232 241.437H106.612C106.612 242.709 106.956 243.772 107.644 244.626C108.333 245.48 109.217 246.112 110.298 246.522C111.378 246.931 112.52 247.136 113.723 247.136C114.986 247.136 116.115 246.936 117.108 246.535C118.102 246.134 118.877 245.559 119.435 244.809C119.993 244.06 120.272 243.18 120.272 242.169C120.272 241.167 120.028 240.313 119.54 239.607C119.06 238.901 118.363 238.304 117.448 237.816C116.533 237.328 115.365 236.892 113.945 236.509C112.672 236.169 111.666 235.803 110.925 235.411C110.184 235.019 109.653 234.587 109.33 234.117C109.008 233.637 108.847 233.084 108.847 232.457C108.847 231.803 109.03 231.215 109.396 230.692C109.762 230.16 110.302 229.738 111.017 229.424C111.74 229.11 112.607 228.953 113.618 228.953C114.629 228.953 115.505 229.141 116.245 229.515C116.986 229.881 117.553 230.391 117.945 231.045C118.337 231.698 118.533 232.439 118.533 233.267H120.141C120.141 232.204 119.871 231.241 119.33 230.378C118.799 229.515 118.036 228.836 117.043 228.339C116.058 227.834 114.916 227.581 113.618 227.581C112.381 227.581 111.274 227.79 110.298 228.208C109.33 228.618 108.577 229.193 108.036 229.934C107.496 230.675 107.226 231.529 107.226 232.496C107.226 233.463 107.47 234.287 107.958 234.966C108.446 235.637 109.139 236.204 110.036 236.666ZM137.474 227.581C137.805 227.581 138.067 227.681 138.258 227.881C138.459 228.082 138.559 228.335 138.559 228.64C138.559 228.936 138.459 229.184 138.258 229.385C138.067 229.576 137.805 229.672 137.474 229.672C137.152 229.672 136.89 229.576 136.69 229.385C136.498 229.184 136.402 228.936 136.402 228.64C136.402 228.335 136.498 228.082 136.69 227.881C136.89 227.681 137.152 227.581 137.474 227.581ZM136.69 246.875V232.731H138.245V246.875H136.69ZM152.023 233.712C151.256 232.884 150.141 232.47 148.677 232.47C147.692 232.47 146.803 232.705 146.01 233.176C145.217 233.646 144.568 234.295 144.062 235.123L144.01 232.731H142.507V246.875H144.075V237.162C144.415 236.213 144.947 235.42 145.67 234.783C146.393 234.139 147.265 233.816 148.284 233.816C149.374 233.816 150.202 234.108 150.768 234.692C151.335 235.276 151.618 236.265 151.618 237.659V246.875H153.186V237.659C153.186 235.855 152.799 234.539 152.023 233.712ZM177.604 240.94C177.404 242.901 176.703 244.426 175.5 245.515C174.306 246.596 172.676 247.136 170.611 247.136C169.182 247.136 167.927 246.779 166.846 246.064C165.766 245.35 164.929 244.343 164.337 243.045C163.744 241.746 163.448 240.247 163.448 238.548V236.169C163.448 234.461 163.744 232.962 164.337 231.672C164.929 230.374 165.774 229.367 166.873 228.653C167.971 227.938 169.252 227.581 170.716 227.581C172.058 227.581 173.221 227.825 174.206 228.313C175.191 228.801 175.97 229.511 176.546 230.444C177.121 231.367 177.474 232.483 177.604 233.79H175.997C175.587 230.566 173.827 228.953 170.716 228.953C169.557 228.953 168.55 229.254 167.696 229.855C166.842 230.448 166.188 231.285 165.735 232.365C165.282 233.446 165.056 234.705 165.056 236.143V238.548C165.056 239.951 165.273 241.202 165.709 242.3C166.145 243.389 166.781 244.243 167.618 244.862C168.454 245.472 169.452 245.777 170.611 245.777C172.267 245.777 173.526 245.38 174.389 244.587C175.252 243.786 175.787 242.57 175.997 240.94H177.604ZM191.434 245.463C191.365 244.949 191.33 244.43 191.33 243.908V237.071C191.33 236.069 191.112 235.223 190.676 234.535C190.249 233.847 189.648 233.332 188.872 232.993C188.097 232.644 187.199 232.47 186.18 232.47C185.143 232.47 184.21 232.666 183.382 233.058C182.554 233.45 181.909 233.969 181.448 234.613C180.986 235.25 180.755 235.921 180.755 236.627L182.323 236.64C182.323 236.117 182.485 235.637 182.807 235.202C183.138 234.766 183.591 234.422 184.167 234.169C184.75 233.908 185.4 233.777 186.114 233.777C187.282 233.777 188.18 234.069 188.807 234.653C189.443 235.228 189.761 236.025 189.761 237.045V238.64H186.872C185.556 238.64 184.411 238.823 183.434 239.189C182.467 239.546 181.722 240.064 181.199 240.744C180.685 241.415 180.428 242.208 180.428 243.123C180.428 243.89 180.615 244.579 180.99 245.189C181.373 245.799 181.909 246.278 182.598 246.626C183.286 246.966 184.084 247.136 184.99 247.136C186.036 247.136 186.964 246.931 187.774 246.522C188.593 246.104 189.26 245.563 189.774 244.901C189.818 245.755 189.922 246.413 190.088 246.875H191.761V246.705C191.622 246.391 191.513 245.977 191.434 245.463ZM188.01 244.979C187.199 245.494 186.249 245.751 185.16 245.751C184.524 245.751 183.966 245.629 183.487 245.385C183.007 245.141 182.637 244.809 182.376 244.391C182.114 243.973 181.984 243.507 181.984 242.992C181.984 242.339 182.184 241.777 182.585 241.306C182.994 240.836 183.578 240.474 184.336 240.221C185.103 239.969 186.018 239.842 187.082 239.842H189.761V242.966C189.404 243.786 188.82 244.457 188.01 244.979ZM202.036 234.051C201.635 233.99 201.286 233.96 200.99 233.96C199.97 233.96 199.129 234.243 198.467 234.81C197.805 235.376 197.339 236.147 197.068 237.123V246.875H195.5V232.731H197.029L197.068 234.953C197.461 234.169 197.988 233.559 198.65 233.123C199.321 232.688 200.118 232.47 201.042 232.47C201.225 232.47 201.417 232.487 201.617 232.522C201.818 232.548 201.975 232.583 202.088 232.627L202.036 234.051ZM205.225 240.195V239.894H215.317V238.94C215.317 237.677 215.099 236.557 214.663 235.581C214.227 234.605 213.587 233.842 212.741 233.293C211.896 232.744 210.89 232.47 209.722 232.47C208.641 232.47 207.635 232.766 206.702 233.359C205.779 233.951 205.038 234.792 204.48 235.881C203.931 236.971 203.657 238.221 203.657 239.633V240.195C203.657 241.528 203.927 242.722 204.467 243.777C205.016 244.831 205.77 245.655 206.728 246.247C207.696 246.84 208.785 247.136 209.996 247.136C211.182 247.136 212.184 246.91 213.003 246.457C213.831 245.995 214.502 245.385 215.016 244.626L214.022 243.881C213.517 244.552 212.942 245.045 212.297 245.358C211.652 245.663 210.907 245.816 210.062 245.816C209.121 245.816 208.284 245.568 207.552 245.071C206.82 244.574 206.249 243.899 205.84 243.045C205.43 242.182 205.225 241.232 205.225 240.195ZM207.591 234.391C208.227 233.999 208.938 233.803 209.722 233.803C210.567 233.803 211.29 234.017 211.892 234.444C212.493 234.862 212.946 235.42 213.251 236.117C213.565 236.814 213.731 237.572 213.748 238.391V238.561H205.291C205.395 237.611 205.648 236.779 206.049 236.064C206.45 235.341 206.964 234.783 207.591 234.391Z" fill="white"/>
</svg>
