<svg fill="none" height="30" viewBox="0 0 160 30" width="160" xmlns="http://www.w3.org/2000/svg"><path clip-rule="evenodd" d="m7.07788 7.24099c-.22107.22239-.52209.34748-.83618.34748-.31397 0-.61499-.12509-.83618-.34748l-1.2616-1.25824c-.46326-.46055-.46435-1.20836-.00256-1.67025.46179-.46192 1.21167-.46303 1.67492-.00248l1.2616 1.25824c.22339.22136.34888.52239.34888.83637s-.12549.615-.34888.83636zm-3.36938 6.80441c-.22425.2205-.52625.3445-.84119.3454h-1.75647c-.624756-.0403-1.11084-.5574-1.11084-1.1818 0-.6243.486084-1.1415 1.11084-1.1817h1.75647c.31445-.0013.61658.1223.83936.3436.2229.2213.34814.522.34814.8357-.00085.314-.12524.6152-.34631.8388zm10.2172-10.17452c-.3377.34083-.8487.444-1.2928.261-.4439-.18299-.7329-.61574-.7308-1.09491v-1.77634c-.0286-.440428.1908-.860152.5692-1.089003.3784-.228836.853-.228836 1.2315 0 .3784.228851.5979.648575.5693 1.089003v1.77141c.0012.31448-.1234.61645-.3464.83884zm15.3381 25.47072c-.2221.2227-.5239.3479-.8388.3479-.3148 0-.6167-.1252-.8386-.3479l-9.0693-9.0445c-.4251-.4679-.4074-1.1861.0403-1.6326.4476-.4464 1.1678-.4641 1.6369-.0401l9.0695 9.0445c.2233.2214.3487.5224.3487.8364s-.1254.615-.3487.8363zm-12.1716-12.1137c-1.5804 1.5773-3.9578 2.0497-6.0236 1.1969-2.06579-.8528-3.41284-2.8628-3.41284-5.0925 0-2.2296 1.34705-4.23968 3.41284-5.0925 2.0658-.85281 4.4432-.3804 6.0236 1.1969 2.156 2.152 2.156 5.6392 0 7.7912zm-6.1354-6.0987c-.9026.8984-1.17335 2.2508-.6859 3.4261.4875 1.1752 1.6372 1.9416 2.9124 1.9416 1.2753 0 2.425-.7664 2.9124-1.9416.4876-1.1753.2168-2.5277-.6858-3.4261-1.2303-1.22471-3.2228-1.22471-4.4531 0zm19.4399 13.2288c-.2219.2227-.5238.3479-.8386.3479s-.6167-.1252-.8386-.3479l-2.0979-2.0921c-.4251-.4679-.4074-1.1861.0403-1.6326.4477-.4464 1.1678-.4641 1.6371-.0402l2.0977 2.0922c.2234.2213.3489.5224.3489.8363 0 .314-.1255.615-.3489.8364zm79.2943-4.4112c.973.011 1.915-.3409 2.642-.9869l-.02.8043h1.677v-8.5412h-1.677v.7796c-1.35-1.1098-3.247-1.2746-4.77-.4145-1.363.8284-2.196 2.3057-2.196 3.8981s.833 3.0697 2.196 3.8981c.656.3679 1.395.5616 2.148.5625zm2.587-6.084v.0296 3.1629.0296c-.549.7433-1.414 1.1885-2.34 1.204-.754.012-1.481-.2805-2.016-.8111-.535-.5305-.832-1.2541-.824-2.0064-.021-.7403.259-1.4576.778-1.9877.518-.5302 1.23-.8278 1.973-.8249.953.0046 1.85.4492 2.429 1.204zm8.585 6.0643c1.526.0144 2.957-.7364 3.81-1.9984l-.94-.6711c-.219-.1543-.519-.1249-.703.0691-.551.6244-1.343.9836-2.177.9868-1.519-.027-2.745-1.2476-2.774-2.7627-.03-1.515 1.148-2.7818 2.665-2.8673.951.0256 1.833.5046 2.37 1.2879l1.277-1.0708c-.849-1.1637-2.204-1.8531-3.647-1.8553-1.189-.0258-2.337.4337-3.177 1.2722-.841.8385-1.302 1.9832-1.276 3.1687-.013 1.2025.469 2.3578 1.332 3.1968.864.8391 2.035 1.2887 3.24 1.2441zm9.569 0c1.526.0144 2.957-.7364 3.81-1.9984l-.95-.6958c-.219-.1542-.518-.1248-.703.0691-.551.6234-1.343.9824-2.177.9869-1.519-.0271-2.745-1.2477-2.774-2.7628-.029-1.515 1.148-2.7818 2.665-2.8673.952.0257 1.833.5046 2.37 1.2879l1.287-1.0461c-.849-1.1637-2.204-1.8531-3.647-1.8553-1.189-.0258-2.336.4337-3.177 1.2722s-1.302 1.9832-1.276 3.1687c-.013 1.2025.469 2.3578 1.332 3.1968.864.8391 2.035 1.2887 3.24 1.2441zm6.698-4.0785c.008-.0068.019-.0111.031-.0121l6.556.0198c.005-.0763.006-.1526.005-.229 0-.0454-.002-.0908-.005-.1362 0-2.5115-1.692-4.4408-4.117-4.4408-2.424 0-4.171 1.8799-4.171 4.4408-.028 1.1811.428 2.3227 1.263 3.1609.834.8382 1.976 1.3005 3.161 1.28 1.386.0506 2.719-.5392 3.611-1.5987l-.747-.7106c-.209-.1973-.537-.1973-.747 0-.568.5284-1.321.8136-2.098.7945-1.44.0076-2.644-1.0902-2.766-2.5215 0-.0191.009-.0362.024-.0471zm4.721-1.4628h-4.537c-.007-.0005-.015-.0027-.021-.0061-.007-.0037-.013-.0087-.018-.0149-.007-.0095-.011-.0212-.011-.0331 0-.0033 0-.0067.001-.01.304-1.0638 1.28-1.7959 2.39-1.7912 1.064.0339 1.979.7632 2.246 1.7912.003.0152-.001.0309-.01.0431-.01.0123-.024.0199-.04.021zm4.627 3.3702c-.247-.1427-.562-.0717-.723.1628l-.569.8092c.979.7884 2.206 1.2077 3.464 1.1843 1.702 0 3.186-1.0017 3.186-2.6202 0-1.7615-1.766-2.3586-3.112-2.704-.856-.2023-1.534-.4046-1.534-.9868 0-.6711.713-1.0708 1.549-1.0708.671.0152 1.318.2511 1.84.6711l.896-1.2336c-.813-.6493-1.834-.9855-2.875-.9473-1.529 0-3.171.8388-3.171 2.6743 0 1.2089.94 1.8504 1.979 2.1958.303.1011.615.1807.916.2571.945.2406 1.766.4495 1.766 1.1985 0 .6711-.743 1.0708-1.485 1.0708-.758-.0127-1.496-.2422-2.127-.6612zm8.188 0c-.245-.1421-.558-.071-.717.1628l-.599.8092c.978.79 2.205 1.2094 3.464 1.1843 1.672 0 3.186-1.0017 3.186-2.6202 0-1.7615-1.766-2.3586-3.117-2.704-.856-.2023-1.529-.4046-1.529-.9868 0-.6711.708-1.0708 1.549-1.0708.671.0152 1.318.2511 1.84.6711l.891-1.2336c-.804-.6426-1.811-.9785-2.84-.9473-1.534 0-3.172.8388-3.172 2.6743 0 1.2089.94 1.8504 1.979 2.1958.303.1009.615.1804.914.2567.944.2407 1.763.4495 1.763 1.1989 0 .6711-.737 1.0708-1.484 1.0708-.758-.0143-1.496-.2437-2.128-.6612zm-112.7851 4.7665h1.7316v-3.4984c.7167.6037 1.6302.9249 2.568.903.7539-.0003 1.4952-.194 2.1523-.5626 1.3637-.8283 2.196-2.3056 2.196-3.898 0-1.5925-.8323-3.0698-2.196-3.8981-.6353-.3677-1.3584-.557-2.0929-.5477-.9818-.0169-1.9358.3254-2.6817.9621v-.7796h-1.6773zm1.7316-5.4376c-.002-.0114-.002-.0231 0-.0345v-3.1629c-.002-.0114-.002-.0231 0-.0346.5828-.7525 1.481-1.1949 2.4344-1.199.7427-.003 1.4547.2947 1.9732.8248.5186.5302.7992 1.2475.7778 1.9878.0081.7531-.2896 1.4775-.8255 2.0082s-1.2644.8226-2.0195.8092c-.9248-.0142-1.7901-.4576-2.3404-1.199zm13.2553-4.4261c.2264-.0078.4529.0155.6728.0691l.2029-1.648c-.2226-.0343-.4475-.0524-.6728-.0543-.9943-.0408-1.949.3913-2.5729 1.1645v-.9869h-1.6724v8.5216h1.7317v-5.6399c.4822-.8313 1.3496-1.3667 2.3107-1.4261zm10.3461 1.0861c-.6971-1.6586-2.3284-2.7342-4.1316-2.7242-1.1863-.0247-2.3308.436-3.1675 1.275-.8366.839-1.2922 1.983-1.2609 3.1658 0 1.7984 1.0877 3.4193 2.7548 4.1051 1.667.6859 3.5842.3015 4.8558-.9737s1.6465-3.1894.9494-4.848zm-1.4317 2.8966c-.478 1.0475-1.547 1.6998-2.6999 1.6474-.7381.0008-1.4442-.3001-1.9538-.8325s-.778-1.2498-.7428-1.985c.0011-1.151.7043-2.1855 1.7758-2.613 1.0717-.4275 2.2963-.162 3.0931.6706.7969.8326 1.0058 2.0649.5276 3.1125zm10.0764-.7891c.0102-.0101.0241-.0159.0385-.0159h6.5558v-.3651c0-2.5116-1.6922-4.4409-4.1166-4.4409-2.4243 0-4.1709 1.88-4.1709 4.4409-.0286 1.182.428 2.3243 1.2639 3.1627.8361.8384 1.979 1.3 3.1643 1.2782 1.385.049 2.7155-.5407 3.607-1.5988l-.7521-.7154c-.2036-.1839-.5138-.1839-.7174 0-.5703.5434-1.334.8381-2.1226.8191-1.4421.0074-2.647-1.0932-2.7658-2.5264 0-.0144.0057-.0282.0159-.0384zm4.729-1.4666h-4.5372c-.0154-.0011-.0296-.0087-.039-.021-.0096-.0122-.0132-.0279-.0104-.0431.3039-1.0638 1.2806-1.7959 2.3897-1.7912 1.065.0323 1.9805.7623 2.2464 1.7912.0028.0152-.0009.0309-.0104.0431-.0094.0123-.0237.0199-.0391.021zm7.9908 5.5413c1.5258.0144 2.957-.7364 3.8098-1.9984l-.9401-.6711c-.2178-.1588-.5202-.129-.7026.0691-.5507.6244-1.3433.9836-2.177.9868-1.5193-.027-2.745-1.2476-2.7743-2.7627-.0293-1.515 1.1483-2.7818 2.6654-2.8673.9513.0256 1.8326.5046 2.37 1.2879l1.2765-1.0708c-.8487-1.1637-2.2036-1.8531-3.6465-1.8553-1.1888-.0258-2.3366.4337-3.1774 1.2722s-1.3016 1.9832-1.2756 3.1687c-.0131 1.2025.4684 2.3578 1.3321 3.1968.8639.8391 2.0346 1.2887 3.2397 1.2441zm8.817 0c.4567.0043.9116-.0572 1.3507-.1826l-.3463-1.5494c-.3114.0726-.6303.109-.9501.1086-.4402.0188-.8685-.1456-1.1825-.454-.2099-.3227-.301-.7082-.2573-1.0905v-3.9967h2.7362v-1.5445h-2.7362v-2.3635h-1.7267v2.3635 1.5445 3.9079c-.0651.8167.1825 1.6277.6926 2.2698.6203.67 1.5063 1.0314 2.4196.9869zm-25.4862-8.7239h-1.7318l-.0099 7.7419c.0626.5303-.0523 1.0663-.3266 1.5247-.3687.4267-.9218.6492-1.4843.5971-.2616-.02-.4998.1508-.564.4046l-.2523 1.1102c.3332.0833.6756.1248 1.0191.1234 1.1131.0221 2.1644-.5086 2.8055-1.4162.3809-.5427.5443-1.2533.5443-2.398zm-.0725-3.77968c-.2084-.22272-.498-.35251-.8034-.36017-.6255-.01569-1.1463.47524-1.166 1.09895-.0195.62372.4695 1.14621 1.0947 1.16967.6253.02345 1.1523-.46097 1.1797-1.08438.0133-.30439-.0965-.60134-.305-.82407z" fill="#fff" fill-rule="evenodd"/></svg>