<svg fill="none" height="29" viewBox="0 0 30 29" width="30" xmlns="http://www.w3.org/2000/svg"><path clip-rule="evenodd" d="m6.09037 7.40444c.30642 0 .60015-.12206.81591-.33905.21787-.21599.34038-.50971.34038-.81608s-.12251-.60009-.34038-.81608l-1.2311-1.22773c-.45194-.44938-1.18361-.4483-1.63422.00241s-.44952 1.18037.00242 1.62975l1.23109 1.22773c.21576.21699.50949.33905.8159.33905zm-3.29257 6.63736c.30728-.0008.60197-.1218.82073-.337.21579-.2182.33713-.5121.33795-.8185 0-.306-.12223-.5995-.33966-.8154-.21744-.2159-.51216-.3366-.81902-.3353h-1.71388c-.609621.0393-1.08392.5439-1.08392 1.1531s.474299 1.1138 1.08392 1.1531zm9.5288-10.01012c.4333.17855.9319.07789 1.2614-.25468.2176-.21698.3392-.51163.3379-.81849v-1.72845c.0279-.429747-.1862-.839289-.5554-1.062587-.3693-.2232975-.8324-.2232975-1.2016 0-.3693.223298-.5834.63284-.5555 1.062587v1.73327c-.002.46754.2799.8898.7132 1.06835zm15.4097 24.93782c.3072 0 .6018-.1221.8184-.3394.2178-.216.3403-.5097.3403-.8161s-.1225-.6001-.3403-.8161l-8.8494-8.8252c-.4578-.4136-1.1605-.3964-1.5973.0392-.4369.4357-.4542 1.1364-.0394 1.593l8.8494 8.8252c.2166.2173.5111.3394.8183.3394zm-16.9355-10.9915c2.0156.8322 4.3355.3712 5.8774-1.1678 2.1038-2.0999 2.1038-5.5025 0-7.60233-1.5419-1.53904-3.8618-1.99999-5.8774-1.16786-2.01571.83213-3.3301 2.79339-3.3301 4.96899s1.31439 4.1369 3.3301 4.969zm-.7784-3.7757c-.47561-1.1467-.21143-2.4663.6693-3.343 1.2005-1.19498 3.1445-1.19498 4.3451 0 .8807.8767 1.1449 2.1963.6692 3.343-.4756 1.1467-1.5974 1.8946-2.8418 1.8946s-2.3661-.7479-2.8418-1.8946zm18.8195 9.9045c.3072 0 .6017-.1222.8183-.3395.2179-.216.3404-.5097.3404-.8161 0-.3063-.1225-.6001-.3404-.816l-2.047-2.0415c-.4578-.4136-1.1605-.3964-1.5973.0393-.4368.4356-.4541 1.1364-.0393 1.5929l2.047 2.0414c.2166.2173.5111.3395.8183.3395z" fill="#2e2d2c" fill-rule="evenodd"/></svg>