<svg width="160" height="30" viewBox="0 0 160 30" fill="none" xmlns="http://www.w3.org/2000/svg">
<path d="M29.2637 29.3416C29.0418 29.5643 28.7399 29.6895 28.4251 29.6895C28.1102 29.6895 27.8084 29.5643 27.5864 29.3416L18.5171 20.2971C18.092 19.8292 18.1097 19.111 18.5574 18.6646C19.0051 18.2181 19.7252 18.2004 20.1944 18.6244L29.2637 27.6689C29.487 27.8903 29.6126 28.1913 29.6126 28.5053C29.6126 28.8193 29.487 29.1203 29.2637 29.3416ZM17.0921 17.228C15.5119 18.8052 13.1344 19.2777 11.0686 18.4248C9.00281 17.572 7.65576 15.562 7.65576 13.3323C7.65576 11.1027 9.00281 9.09263 11.0686 8.23981C13.1344 7.387 15.5119 7.85941 17.0921 9.4367C19.2482 11.5887 19.2482 15.0759 17.0921 17.228ZM10.9568 11.1292C10.0542 12.0276 9.78345 13.38 10.2709 14.5553C10.7584 15.7305 11.908 16.497 13.1833 16.497C14.4587 16.497 15.6083 15.7305 16.0958 14.5553C16.5832 13.38 16.3125 12.0276 15.4099 11.1292C14.1795 9.90449 12.1872 9.90449 10.9568 11.1292V11.1292ZM30.3968 24.358C30.1748 24.5807 29.873 24.7059 29.5581 24.7059C29.2433 24.7059 28.9414 24.5807 28.7195 24.358L26.6216 22.2659C26.1965 21.798 26.2142 21.0798 26.6619 20.6333C27.1096 20.1869 27.8298 20.1692 28.2989 20.5931L30.3968 22.6853C30.6201 22.9066 30.7456 23.2077 30.7456 23.5216C30.7456 23.8356 30.6201 24.1366 30.3968 24.358V24.358Z" fill="#FDA929"/>
<path d="M7.07793 7.241C6.85681 7.46338 6.55578 7.58847 6.24175 7.58847C5.92771 7.58847 5.62668 7.46338 5.40557 7.241L4.14387 5.98275C3.6807 5.52221 3.67959 4.7744 4.1414 4.31249C4.60321 3.85058 5.35306 3.84948 5.81623 4.31003L7.07793 5.56827C7.30122 5.78963 7.42677 6.09065 7.42677 6.40464C7.42677 6.71862 7.30122 7.01964 7.07793 7.241ZM3.70847 14.0454C3.48427 14.2659 3.18225 14.39 2.86734 14.3908H1.11086C0.486087 14.3505 0 13.8334 0 13.209C0 12.5847 0.486087 12.0675 1.11086 12.0273H2.86734C3.18182 12.026 3.48387 12.1496 3.70671 12.3709C3.92955 12.5922 4.05482 12.8929 4.05481 13.2066C4.05397 13.5206 3.92962 13.8218 3.70847 14.0454ZM13.9257 3.87087C13.588 4.21171 13.077 4.31487 12.633 4.13189C12.1889 3.9489 11.9 3.51614 11.902 3.03698V1.26063C11.8735 0.820204 12.0929 0.400484 12.4713 0.171636C12.8497 -0.057212 13.3244 -0.057212 13.7028 0.171636C14.0812 0.400484 14.3006 0.820204 14.272 1.26063V3.03204C14.2734 3.34652 14.1487 3.6485 13.9257 3.87087Z" fill="#4297DD"/>
<path d="M112.333 18.9599C111.606 19.6059 110.664 19.9578 109.691 19.9468C108.938 19.9459 108.199 19.7522 107.543 19.3843C106.18 18.5559 105.347 17.0786 105.347 15.4862C105.347 13.8938 106.18 12.4165 107.543 11.5881C109.066 10.728 110.963 10.8928 112.313 12.0026V11.223H113.99V19.7642H112.313L112.333 18.9599ZM112.278 13.8924C112.278 13.8924 112.278 13.8924 112.278 13.8628C111.699 13.108 110.802 12.6634 109.849 12.6588C109.106 12.6559 108.394 12.9535 107.876 13.4837C107.357 14.0138 107.077 14.7311 107.098 15.4714C107.09 16.2237 107.387 16.9473 107.922 17.4778C108.457 18.0084 109.184 18.3009 109.938 18.2889C110.864 18.2734 111.729 17.8282 112.278 17.0849C112.278 17.0849 112.278 17.0849 112.278 17.0553V13.8924ZM124.673 17.9287C123.82 19.1907 122.389 19.9415 120.863 19.9271C119.658 19.9717 118.487 19.5221 117.623 18.683C116.759 17.844 116.278 16.6887 116.291 15.4862C116.265 14.3007 116.726 13.156 117.567 12.3175C118.408 11.479 119.555 11.0195 120.744 11.0453C122.187 11.0475 123.542 11.7369 124.391 12.9006L123.114 13.9714C122.577 13.1881 121.695 12.7091 120.744 12.6835C119.227 12.769 118.049 14.0358 118.079 15.5508C118.108 17.0659 119.334 18.2865 120.853 18.3135C121.687 18.3103 122.479 17.9511 123.03 17.3267C123.214 17.1328 123.514 17.1033 123.733 17.2576L124.673 17.9287ZM134.242 17.9287C133.389 19.1907 131.958 19.9415 130.432 19.9271C129.227 19.9717 128.056 19.5221 127.192 18.683C126.329 17.844 125.847 16.6887 125.86 15.4862C125.834 14.3007 126.295 13.156 127.136 12.3175C127.977 11.479 129.124 11.0195 130.313 11.0453C131.756 11.0475 133.111 11.7369 133.96 12.9006L132.673 13.9467C132.136 13.1634 131.255 12.6845 130.303 12.6588C128.786 12.7443 127.609 14.0111 127.638 15.5262C127.667 17.0412 128.893 18.2618 130.412 18.2889C131.246 18.2844 132.038 17.9254 132.589 17.302C132.774 17.1081 133.073 17.0787 133.292 17.2329L134.242 17.9287ZM137.161 15.8365C137.13 15.8391 137.106 15.8649 137.106 15.8957C137.228 17.327 138.432 18.4248 139.872 18.4172C140.649 18.4363 141.402 18.1511 141.97 17.6227C142.18 17.4254 142.508 17.4254 142.717 17.6227L143.464 18.3333C142.572 19.3928 141.239 19.9826 139.853 19.932C138.668 19.9525 137.526 19.4902 136.691 18.652C135.857 17.8138 135.401 16.6722 135.429 15.4911C135.429 12.9302 137.176 11.0503 139.6 11.0503C142.025 11.0503 143.717 12.9796 143.717 15.4911C143.724 15.6127 143.724 15.7347 143.717 15.8563L137.161 15.8365ZM137.314 14.3858H141.851C141.867 14.3847 141.881 14.3771 141.891 14.3648C141.9 14.3526 141.904 14.3369 141.901 14.3217C141.634 13.2937 140.719 12.5644 139.655 12.5306C138.545 12.5258 137.569 13.2579 137.265 14.3217C137.262 14.3369 137.266 14.3526 137.275 14.3648C137.285 14.3771 137.299 14.3847 137.314 14.3858V14.3858ZM145.755 17.9188C145.916 17.6843 146.231 17.6133 146.478 17.756C147.109 18.175 147.847 18.4045 148.605 18.4172C149.347 18.4172 150.09 18.0175 150.09 17.3464C150.09 16.3596 148.665 16.3102 147.408 15.8908C146.369 15.5454 145.429 14.9039 145.429 13.695C145.429 11.8595 147.071 11.0207 148.6 11.0207C149.641 10.9825 150.662 11.3187 151.475 11.968L150.579 13.2016C150.057 12.7816 149.41 12.5457 148.739 12.5306C147.903 12.5306 147.19 12.9302 147.19 13.6013C147.19 14.1835 147.868 14.3858 148.724 14.5882C150.07 14.9336 151.836 15.5306 151.836 17.2921C151.836 18.9106 150.352 19.9123 148.65 19.9123C147.392 19.9357 146.165 19.5164 145.186 18.728L145.755 17.9188ZM153.949 17.9188C154.108 17.685 154.421 17.6139 154.666 17.756C155.298 18.1735 156.036 18.4029 156.794 18.4172C157.541 18.4172 158.278 18.0175 158.278 17.3464C158.278 16.3596 156.858 16.3102 155.601 15.8908C154.562 15.5454 153.622 14.9039 153.622 13.695C153.622 11.8595 155.26 11.0207 156.794 11.0207C157.823 10.9895 158.83 11.3254 159.634 11.968L158.743 13.2016C158.221 12.7816 157.574 12.5457 156.903 12.5306C156.062 12.5306 155.354 12.9302 155.354 13.6013C155.354 14.1835 156.027 14.3858 156.883 14.5882C158.234 14.9336 160 15.5306 160 17.2921C160 18.9106 158.486 19.9123 156.814 19.9123C155.555 19.9374 154.328 19.518 153.35 18.728L153.949 17.9188ZM43.6126 22.5225H41.8809V11.2032H43.5582V11.9828C44.3041 11.3461 45.2581 11.0038 46.2399 11.0207C46.9743 11.0114 47.6976 11.2007 48.3328 11.5684C49.6966 12.3967 50.5288 13.874 50.5288 15.4665C50.5288 17.0589 49.6966 18.5362 48.3328 19.3646C47.6757 19.7331 46.9345 19.9268 46.1805 19.9271C45.2427 19.949 44.3292 19.6278 43.6126 19.0241V22.5225ZM43.6126 17.0504C43.6105 17.0618 43.6105 17.0735 43.6126 17.0849C44.1628 17.8263 45.0281 18.2697 45.9529 18.2839C46.708 18.2973 47.4365 18.0054 47.9724 17.4747C48.5083 16.944 48.806 16.2196 48.7979 15.4665C48.8194 14.7262 48.5387 14.0089 48.0201 13.4787C47.5016 12.9486 46.7895 12.6509 46.0469 12.6539C45.0935 12.658 44.1953 13.1004 43.6126 13.8529C43.6105 13.8644 43.6105 13.8761 43.6126 13.8875V17.0504ZM57.5407 12.7279C57.3206 12.6743 57.0942 12.651 56.8678 12.6588C55.9067 12.7182 55.0393 13.2536 54.5572 14.0849V19.7248H52.8254V11.2032H54.4978V12.1901C55.1216 11.4169 56.0764 10.9848 57.0707 11.0256C57.296 11.0275 57.5209 11.0456 57.7436 11.0799L57.5407 12.7279ZM63.0822 11.0207C64.8855 11.0107 66.5169 12.0863 67.2139 13.7449C67.911 15.4035 67.5361 17.3177 66.2645 18.5929C64.9929 19.8681 63.0757 20.2525 61.4086 19.5667C59.7416 18.8808 58.654 17.2599 58.6539 15.4615C58.6226 14.2787 59.0782 13.1347 59.9148 12.2957C60.7514 11.4567 61.896 10.996 63.0822 11.0207V11.0207ZM63.0822 18.2889C64.2352 18.3413 65.3042 17.689 65.7823 16.6415C66.2604 15.5939 66.0515 14.3616 65.2546 13.529C64.4577 12.6964 63.2331 12.4309 62.1616 12.8584C61.09 13.2859 60.3869 14.3204 60.3857 15.4714C60.3505 16.2066 60.619 16.924 61.1285 17.4564C61.6381 17.9888 62.3442 18.2897 63.0822 18.2889V18.2889ZM75.8971 15.8365C75.8826 15.8365 75.8688 15.8422 75.8586 15.8524C75.8484 15.8626 75.8427 15.8764 75.8427 15.8908C75.9615 17.3241 77.1664 18.4246 78.6085 18.4172C79.397 18.4362 80.1608 18.1415 80.7311 17.5981C80.9347 17.4142 81.2449 17.4142 81.4485 17.5981L82.2006 18.3135C81.3091 19.3716 79.9786 19.9613 78.5936 19.9123C77.4083 19.9341 76.2653 19.4725 75.4294 18.6341C74.5934 17.7957 74.1368 16.6534 74.1653 15.4714C74.1653 12.9105 75.9119 11.0305 78.3364 11.0305C80.7608 11.0305 82.4529 12.9598 82.4529 15.4714V15.8365H75.8971ZM76.0505 14.3858H80.5876C80.6031 14.3847 80.6173 14.3771 80.6267 14.3648C80.6362 14.3526 80.6399 14.3369 80.6371 14.3217C80.3712 13.2928 79.4557 12.5628 78.3908 12.5306C77.2816 12.5258 76.3049 13.2579 76.001 14.3217C75.9981 14.3369 76.0019 14.3526 76.0113 14.3648C76.0208 14.3771 76.035 14.3847 76.0505 14.3858ZM92.3881 17.9287C91.5355 19.1907 90.1043 19.9415 88.5783 19.9271C87.3733 19.9717 86.2026 19.5221 85.3388 18.683C84.475 17.844 83.9935 16.6887 84.0066 15.4862C83.9806 14.3007 84.4415 13.156 85.2822 12.3175C86.123 11.479 87.2708 11.0195 88.4596 11.0453C89.9024 11.0475 91.2575 11.7369 92.1061 12.9006L90.8296 13.9714C90.2922 13.1881 89.4109 12.7091 88.4596 12.6835C86.9425 12.769 85.7649 14.0358 85.7942 15.5508C85.8235 17.0659 87.0492 18.2865 88.5684 18.3135C89.4023 18.3103 90.1948 17.9511 90.7455 17.3267C90.9278 17.1286 91.2304 17.0988 91.4481 17.2576L92.3881 17.9287ZM98.7461 19.7445C98.307 19.8699 97.8521 19.9314 97.3953 19.9271C96.4821 19.9716 95.596 19.6102 94.9759 18.9402C94.4657 18.2981 94.2182 17.4871 94.2832 16.6704V12.7625V11.218V8.8545H96.0099V11.218H98.7461V12.7625H96.0099V16.7592C95.9662 17.1415 96.0572 17.527 96.2672 17.8497C96.5812 18.1581 97.0095 18.3225 97.4498 18.3037C97.7696 18.3042 98.0883 18.2677 98.3997 18.1951L98.7461 19.7445ZM70.1774 11.2032H71.9091V18.8909C71.9091 20.0356 71.7459 20.7462 71.3649 21.2889C70.7238 22.1965 69.6725 22.7272 68.5595 22.7051C68.2159 22.7065 67.8735 22.665 67.5402 22.5817L67.7926 21.4715C67.8568 21.2177 68.0949 21.0469 68.3566 21.0669C68.9191 21.119 69.4721 20.8965 69.841 20.4698C70.1153 20.0114 70.2301 19.4754 70.1675 18.9451L70.1774 11.2032ZM71.0334 7.06335C71.3388 7.07101 71.6283 7.2008 71.8367 7.42353C72.0452 7.64626 72.1551 7.94321 72.1417 8.24758C72.1143 8.87101 71.5873 9.35542 70.962 9.33197C70.3367 9.30852 69.8477 8.78602 69.8673 8.1623C69.887 7.53859 70.4078 7.04767 71.0334 7.06335Z" fill="#2A3038"/>
</svg>
