<svg xmlns="http://www.w3.org/2000/svg" width="537" height="395" viewBox="0 0 537 395">
  <g fill="none">
    <rect width="537" height="393.345" y=".938" fill="#F9F9FA"/>
    <path fill="#FDA929" d="M166 226.91C165.551387 227.361288 164.941329 227.615045 164.305 227.615045 163.668671 227.615045 163.058613 227.361288 162.61 226.91L144.28 208.58C143.42083 207.631775 143.456666 206.176254 144.36146 205.27146 145.266254 204.366666 146.721775 204.33083 147.67 205.19L166 223.52C166.451288 223.968613 166.705045 224.578671 166.705045 225.215 166.705045 225.851329 166.451288 226.461387 166 226.91zM141.4 202.36C138.206155 205.556581 133.400989 206.513992 129.225872 204.785649 125.050754 203.057306 122.328236 198.983714 122.328236 194.465 122.328236 189.946286 125.050754 185.872694 129.225872 184.144351 133.400989 182.416008 138.206155 183.373419 141.4 186.57 145.757648 190.931381 145.757648 197.998619 141.4 202.36zM129 190C127.17569 191.820856 126.628486 194.561653 127.613733 196.943441 128.59898 199.325229 130.922477 200.878536 133.5 200.878536 136.077523 200.878536 138.40102 199.325229 139.386267 196.943441 140.371514 194.561653 139.82431 191.820856 138 190 135.51334 187.518048 131.48666 187.518048 129 190zM168.29 216.81C167.841387 217.261288 167.231329 217.515045 166.595 217.515045 165.958671 217.515045 165.348613 217.261288 164.9 216.81L160.66 212.57C159.80083 211.621775 159.836666 210.166254 160.74146 209.26146 161.646254 208.356666 163.101775 208.32083 164.05 209.18L168.29 213.42C168.741288 213.868613 168.995045 214.478671 168.995045 215.115 168.995045 215.751329 168.741288 216.361387 168.29 216.81z"/>
    <path fill="#4297DD" d="M121.16 182.12C120.7131 182.570687 120.104696 182.824202 119.47 182.824202 118.835304 182.824202 118.2269 182.570687 117.78 182.12L115.23 179.57C114.293877 178.636639 114.291639 177.121123 115.225 176.185 116.158361 175.248877 117.673877 175.246639 118.61 176.18L121.16 178.73C121.611288 179.178613 121.865045 179.788671 121.865045 180.425 121.865045 181.061329 121.611288 181.671387 121.16 182.12zM114.35 195.91C113.896874 196.356964 113.286472 196.608306 112.65 196.61L109.1 196.61C107.837266 196.528363 106.854839 195.48037 106.854839 194.215 106.854839 192.94963 107.837266 191.901637 109.1 191.82L112.65 191.82C113.285598 191.817341 113.896076 192.067969 114.346453 192.516469 114.79683 192.96497 115.050006 193.574396 115.05 194.21 115.048306 194.846472 114.796964 195.456874 114.35 195.91zM135 175.29C134.317432 175.980748 133.284769 176.18982 132.387271 175.818971 131.489773 175.448123 130.905892 174.571089 130.91 173.6L130.91 170C130.852294 169.107413 131.295739 168.256794 132.060552 167.793004 132.825366 167.329214 133.784634 167.329214 134.549448 167.793004 135.314261 168.256794 135.757706 169.107413 135.7 170L135.7 173.59C135.702669 174.227334 135.450669 174.839335 135 175.29z"/>
    <path fill="#2A3038" d="M333.89 205.87C332.421573 207.179066 330.517087 207.892357 328.55 207.87 327.029537 207.868255 325.535048 207.475693 324.21 206.73 321.453734 205.051223 319.771704 202.057273 319.771704 198.83 319.771704 195.602727 321.453734 192.608777 324.21 190.93 327.287274 189.186877 331.120596 189.520901 333.85 191.77L333.85 190.19 337.24 190.19 337.24 207.5 333.85 207.5 333.89 205.87zM333.78 195.6C333.78 195.6 333.78 195.6 333.78 195.54 332.609432 194.010278 330.796187 193.109194 328.87 193.1 327.369087 193.093955 325.929954 193.697162 324.881916 194.771589 323.833879 195.846015 323.26664 197.299702 323.31 198.8 323.293614 200.324574 323.894082 201.791059 324.975002 202.866329 326.055922 203.9416 327.525533 204.534375 329.05 204.51 330.920879 204.478702 332.670051 203.576381 333.78 202.07 333.78 202.07 333.78 202.07 333.78 202.01L333.78 195.6zM358.83 203.78C357.106628 206.337759 354.214038 207.859186 351.13 207.83 348.694574 207.920405 346.328413 207.009271 344.582597 205.3088 342.836781 203.60833 341.863705 201.266962 341.89 198.83 341.8376 196.427371 342.768975 194.107614 344.468295 192.408295 346.167614 190.708975 348.487371 189.7776 350.89 189.83 353.80617 189.834399 356.544795 191.231581 358.26 193.59L355.68 195.76C354.593972 194.172527 352.812714 193.201946 350.89 193.15 347.823866 193.3232 345.443892 195.890536 345.503095 198.960988 345.562297 202.031439 348.039468 204.505123 351.11 204.56 352.79525 204.553503 354.396996 203.825437 355.51 202.56 355.882784 202.166961 356.487639 202.107328 356.93 202.42L358.83 203.78zM378.17 203.78C376.446628 206.337759 373.554038 207.859186 370.47 207.83 368.034574 207.920405 365.668413 207.009271 363.922597 205.3088 362.176781 203.60833 361.203705 201.266962 361.23 198.83 361.1776 196.427371 362.108975 194.107614 363.808295 192.408295 365.507614 190.708975 367.827371 189.7776 370.23 189.83 373.14617 189.834399 375.884795 191.231581 377.6 193.59L375 195.71C373.913972 194.122527 372.132714 193.151946 370.21 193.1 367.143866 193.2732 364.763892 195.840536 364.823095 198.910988 364.882297 201.981439 367.359468 204.455123 370.43 204.51 372.114689 204.500941 373.715434 203.773329 374.83 202.51 375.202784 202.116961 375.807639 202.057328 376.25 202.37L378.17 203.78zM384.07 199.54C384.00766 199.545213 383.959782 199.597442 383.96 199.66 384.205153 202.560695 386.639005 204.785558 389.55 204.77 391.119543 204.808744 392.641746 204.230738 393.79 203.16 394.213855 202.759979 394.876145 202.759979 395.3 203.16L396.81 204.6C395.005923 206.74717 392.31259 207.942567 389.51 207.84 387.115994 207.881552 384.808639 206.944696 383.121238 205.24597 381.433837 203.547244 380.512436 201.233675 380.57 198.84 380.57 193.65 384.1 189.84 389 189.84 393.9 189.84 397.32 193.75 397.32 198.84 397.33559 199.08642 397.33559 199.33358 397.32 199.58L384.07 199.54zM384.38 196.6L393.55 196.6C393.581225 196.597691 393.609987 196.582185 393.629078 196.557368 393.648168 196.53255 393.655778 196.500773 393.65 196.47 393.109712 194.386702 391.261123 192.908645 389.11 192.84 386.868297 192.830433 384.894212 194.314062 384.28 196.47 384.274222 196.500773 384.281832 196.53255 384.300922 196.557368 384.320013 196.582185 384.348775 196.597691 384.38 196.6zM401.44 203.76C401.765263 203.284796 402.401979 203.14088 402.9 203.43 404.175425 204.279255 405.667915 204.744356 407.2 204.77 408.7 204.77 410.2 203.96 410.2 202.6 410.2 200.6 407.32 200.5 404.78 199.65 402.68 198.95 400.78 197.65 400.78 195.2 400.78 191.48 404.1 189.78 407.19 189.78 409.294242 189.702602 411.356222 190.384014 413 191.7L411.19 194.2C410.133904 193.348844 408.826047 192.870703 407.47 192.84 405.78 192.84 404.34 193.65 404.34 195.01 404.34 196.19 405.71 196.6 407.44 197.01 410.16 197.71 413.73 198.92 413.73 202.49 413.73 205.77 410.73 207.8 407.29 207.8 404.747116 207.847567 402.268745 206.99784 400.29 205.4L401.44 203.76zM418 203.76C418.321606 203.286186 418.955022 203.142029 419.45 203.43 420.726877 204.276204 422.218453 204.741021 423.75 204.77 425.26 204.77 426.75 203.96 426.75 202.6 426.75 200.6 423.88 200.5 421.34 199.65 419.24 198.95 417.34 197.65 417.34 195.2 417.34 191.48 420.65 189.78 423.75 189.78 425.830813 189.716801 427.865987 190.397556 429.49 191.7L427.69 194.2C426.633904 193.348844 425.326047 192.870703 423.97 192.84 422.27 192.84 420.84 193.65 420.84 195.01 420.84 196.19 422.2 196.6 423.93 197.01 426.66 197.71 430.23 198.92 430.23 202.49 430.23 205.77 427.17 207.8 423.79 207.8 421.246575 207.851014 418.767057 207.000893 416.79 205.4L418 203.76zM195 213.09L191.5 213.09 191.5 190.15 194.89 190.15 194.89 191.73C196.397671 190.439508 198.325744 189.745829 200.31 189.78 201.794362 189.761256 203.256097 190.144832 204.54 190.89 207.296266 192.568777 208.978296 195.562727 208.978296 198.79 208.978296 202.017273 207.296266 205.011223 204.54 206.69 203.211828 207.436933 201.713794 207.829521 200.19 207.83 198.294531 207.874517 196.448347 207.22355 195 206L195 213.09zM195 202C194.995665 202.023132 194.995665 202.046868 195 202.07 196.112037 203.572607 197.860878 204.471061 199.73 204.5 201.256187 204.527105 202.728405 203.935538 203.811512 202.859964 204.89462 201.784391 205.496451 200.316339 205.48 198.79 205.52336 197.289702 204.956121 195.836015 203.908084 194.761589 202.860046 193.687162 201.420913 193.083955 199.92 193.09 197.993093 193.098254 196.177719 193.994871 195 195.52 194.995665 195.543132 194.995665 195.566868 195 195.59L195 202zM223.15 193.24C222.705215 193.131282 222.247605 193.084175 221.79 193.1 219.847551 193.220378 218.094386 194.305313 217.12 195.99 217.12 195.99 217.12 195.99 217.12 195.99L217.12 207.42 213.62 207.42 213.62 190.15 217 190.15 217 192.15C218.260881 190.583063 220.190454 189.707334 222.2 189.79 222.655393 189.793814 223.109913 189.830576 223.56 189.9L223.15 193.24zM234.35 189.78C237.994642 189.759752 241.291683 191.939647 242.70048 195.301063 244.109276 198.662478 243.351665 202.541711 240.781663 205.126071 238.211661 207.71043 234.336709 208.489641 230.967497 207.099592 227.598285 205.709544 225.400056 202.424698 225.4 198.78 225.33659 196.382898 226.257487 194.064377 227.948357 192.364061 229.639227 190.663744 231.952582 189.729945 234.35 189.78zM234.35 204.51C236.680209 204.616213 238.840729 203.29437 239.807024 201.171299 240.773319 199.048228 240.351074 196.550865 238.740521 194.863478 237.129968 193.176091 234.654978 192.638003 232.489211 193.504379 230.323443 194.370755 228.902419 196.467373 228.9 198.8 228.828839 200.289929 229.371462 201.743912 230.40135 202.822932 231.431238 203.901952 232.858374 204.511698 234.35 204.51zM260.25 199.54C260.220826 199.54 260.192847 199.551589 260.172218 199.572218 260.151589 199.592847 260.14 199.620826 260.14 199.65 260.38023 202.554654 262.815468 204.78514 265.73 204.77 267.323746 204.808571 268.86732 204.211291 270.02 203.11 270.431491 202.737312 271.058509 202.737312 271.47 203.11L272.99 204.56C271.188112 206.704346 268.49913 207.899449 265.7 207.8 263.304274 207.844309 260.994295 206.908671 259.304697 205.209634 257.6151 203.510598 256.692345 201.195442 256.75 198.8 256.75 193.61 260.28 189.8 265.18 189.8 270.08 189.8 273.5 193.71 273.5 198.8 273.5 198.95 273.5 199.21 273.5 199.54L260.25 199.54zM260.56 196.6L269.73 196.6C269.761225 196.597691 269.789987 196.582185 269.809078 196.557368 269.828168 196.53255 269.835778 196.500773 269.83 196.47 269.29266 194.384793 267.442337 192.905349 265.29 192.84 263.048297 192.830433 261.074212 194.314062 260.46 196.47 260.454222 196.500773 260.461832 196.53255 260.480922 196.557368 260.500013 196.582185 260.528775 196.597691 260.56 196.6zM293.58 203.78C291.856628 206.337759 288.964038 207.859186 285.88 207.83 283.444574 207.920405 281.078413 207.009271 279.332597 205.3088 277.586781 203.60833 276.613705 201.266962 276.64 198.83 276.5876 196.427371 277.518975 194.107614 279.218295 192.408295 280.917614 190.708975 283.237371 189.7776 285.64 189.83 288.55617 189.834399 291.294795 191.231581 293.01 193.59L290.43 195.76C289.343972 194.172527 287.562714 193.201946 285.64 193.15 282.573866 193.3232 280.193892 195.890536 280.253095 198.960988 280.312297 202.031439 282.789468 204.505123 285.86 204.56 287.54525 204.553503 289.146996 203.825437 290.26 202.56 290.628589 202.158476 291.240096 202.098187 291.68 202.42L293.58 203.78zM306.43 207.46C305.542579 207.714219 304.623074 207.83884 303.7 207.83 301.854267 207.920294 300.063444 207.187851 298.81 205.83 297.778848 204.528654 297.278651 202.885151 297.41 201.23L297.41 193.31 297.41 190.18 297.41 185.39 300.9 185.39 300.9 190.18 306.43 190.18 306.43 193.31 300.9 193.31 300.9 201.41C300.811661 202.184687 300.995495 202.965982 301.42 203.62 302.054543 204.244941 302.920202 204.578165 303.81 204.54 304.456343 204.540956 305.100626 204.467132 305.73 204.32L306.43 207.46zM248.69 190.15L252.19 190.15 252.19 205.73C252.19 208.05 251.86 209.49 251.09 210.59 249.794327 212.429412 247.669485 213.504949 245.42 213.46 244.725597 213.462856 244.033562 213.378871 243.36 213.21L243.87 210.96C243.99985 210.445688 244.481095 210.099529 245.01 210.14 246.146835 210.245552 247.264521 209.794752 248.01 208.93 248.564458 208.000857 248.796477 206.914586 248.67 205.84L248.69 190.15zM250.42 181.76C251.03725 181.775515 251.62234 182.038556 252.043634 182.489942 252.464927 182.941328 252.68704 183.543148 252.66 184.16 252.604615 185.423453 251.539562 186.405167 250.275788 186.35765 249.012015 186.310132 248.023689 185.251211 248.063337 183.987167 248.102986 182.723122 249.155733 181.728222 250.42 181.76z"/>
  </g>
</svg>
