<svg xmlns="http://www.w3.org/2000/svg" viewBox="0 0 543 319.22"><defs><style>.cls-1{fill:#f9f9fa;}.cls-2{fill:#fda929;}.cls-3{fill:#4297dd;}.cls-4{fill:#2a3038;}</style></defs><title>Asset 9</title><g id="Layer_2" data-name="Layer 2"><g id="Layer_1-2" data-name="Layer 1"><rect class="cls-1" width="543" height="319.22"/><path class="cls-2" d="M169,188.91a2.39,2.39,0,0,1-3.39,0l-18.33-18.33a2.4,2.4,0,0,1,3.39-3.39L169,185.52A2.39,2.39,0,0,1,169,188.91Z"/><path class="cls-2" d="M144.4,164.36a11.17,11.17,0,1,1,0-15.79A11.17,11.17,0,0,1,144.4,164.36ZM132,152a6.37,6.37,0,1,0,9,0A6.37,6.37,0,0,0,132,152Z"/><path class="cls-2" d="M171.29,178.81a2.39,2.39,0,0,1-3.39,0l-4.24-4.24a2.4,2.4,0,0,1,3.39-3.39l4.24,4.24A2.39,2.39,0,0,1,171.29,178.81Z"/><path class="cls-3" d="M124.16,144.12a2.38,2.38,0,0,1-3.38,0l-2.55-2.55a2.39,2.39,0,0,1,3.38-3.39l2.55,2.55A2.39,2.39,0,0,1,124.16,144.12Z"/><path class="cls-3" d="M117.35,157.91a2.43,2.43,0,0,1-1.7.7H112.1a2.4,2.4,0,0,1,0-4.79h3.55a2.39,2.39,0,0,1,2.4,2.39A2.43,2.43,0,0,1,117.35,157.91Z"/><path class="cls-3" d="M138,137.29a2.39,2.39,0,0,1-4.09-1.69V132a2.4,2.4,0,1,1,4.79,0v3.59A2.39,2.39,0,0,1,138,137.29Z"/><path class="cls-4" d="M336.89,167.87a7.89,7.89,0,0,1-5.34,2,8.87,8.87,0,0,1-4.34-1.14,9.25,9.25,0,0,1,0-15.8,8.54,8.54,0,0,1,9.64.84v-1.58h3.39v17.31h-3.39Zm-.11-10.27s0,0,0-.06a6.22,6.22,0,0,0-4.91-2.44,5.54,5.54,0,0,0-5.56,5.7,5.65,5.65,0,0,0,5.74,5.71,6,6,0,0,0,4.73-2.44s0,0,0-.06Z"/><path class="cls-4" d="M361.83,165.78a9.18,9.18,0,0,1-7.7,4.05,8.91,8.91,0,0,1-9.24-9,8.81,8.81,0,0,1,9-9,9.13,9.13,0,0,1,7.37,3.76l-2.58,2.17a6,6,0,0,0-4.79-2.61,5.71,5.71,0,0,0,.22,11.41,5.89,5.89,0,0,0,4.4-2,1.09,1.09,0,0,1,1.42-.14Z"/><path class="cls-4" d="M381.17,165.78a9.18,9.18,0,0,1-7.7,4.05,8.91,8.91,0,0,1-9.24-9,8.81,8.81,0,0,1,9-9,9.13,9.13,0,0,1,7.37,3.76L378,157.71a6,6,0,0,0-4.79-2.61,5.71,5.71,0,0,0,.22,11.41,5.91,5.91,0,0,0,4.4-2,1.09,1.09,0,0,1,1.42-.14Z"/><path class="cls-4" d="M387.07,161.54a.12.12,0,0,0-.11.12,5.58,5.58,0,0,0,5.59,5.11,6,6,0,0,0,4.24-1.61,1.1,1.1,0,0,1,1.51,0l1.51,1.44a9.1,9.1,0,0,1-7.3,3.24,8.79,8.79,0,0,1-8.94-9c0-5.19,3.53-9,8.43-9s8.32,3.91,8.32,9a5.86,5.86,0,0,1,0,.74Zm.31-2.94h9.17a.11.11,0,0,0,.1-.13,4.85,4.85,0,0,0-4.54-3.63,5,5,0,0,0-4.83,3.63A.11.11,0,0,0,387.38,158.6Z"/><path class="cls-4" d="M404.44,165.76a1.1,1.1,0,0,1,1.46-.33,8,8,0,0,0,4.3,1.34c1.5,0,3-.81,3-2.17,0-2-2.88-2.1-5.42-2.95-2.1-.7-4-2-4-4.45,0-3.72,3.32-5.42,6.41-5.42A8.78,8.78,0,0,1,416,153.7l-1.81,2.5a6.15,6.15,0,0,0-3.72-1.36c-1.69,0-3.13.81-3.13,2.17,0,1.18,1.37,1.59,3.1,2,2.72.7,6.29,1.91,6.29,5.48,0,3.28-3,5.31-6.44,5.31a10.82,10.82,0,0,1-7-2.4Z"/><path class="cls-4" d="M421,165.76a1.09,1.09,0,0,1,1.45-.33,8.06,8.06,0,0,0,4.3,1.34c1.51,0,3-.81,3-2.17,0-2-2.87-2.1-5.41-2.95-2.1-.7-4-2-4-4.45,0-3.72,3.31-5.42,6.41-5.42a8.75,8.75,0,0,1,5.74,1.92l-1.8,2.5a6.15,6.15,0,0,0-3.72-1.36c-1.7,0-3.13.81-3.13,2.17,0,1.18,1.36,1.59,3.09,2,2.73.7,6.3,1.91,6.3,5.48,0,3.28-3.06,5.31-6.44,5.31a10.78,10.78,0,0,1-7-2.4Z"/><path class="cls-4" d="M198,175.09h-3.5V152.15h3.39v1.58a8.12,8.12,0,0,1,5.42-1.95,8.22,8.22,0,0,1,4.23,1.11,9.25,9.25,0,0,1,0,15.8,8.88,8.88,0,0,1-4.35,1.14A7.76,7.76,0,0,1,198,168ZM198,164a.19.19,0,0,0,0,.07,6,6,0,0,0,4.73,2.43,5.65,5.65,0,0,0,5.75-5.71,5.54,5.54,0,0,0-5.56-5.7,6.25,6.25,0,0,0-4.92,2.43.19.19,0,0,0,0,.07Z"/><path class="cls-4" d="M226.15,155.24a5,5,0,0,0-1.36-.14,5.81,5.81,0,0,0-4.67,2.89s0,0,0,0v11.43h-3.5V152.15H220v2a6.34,6.34,0,0,1,5.2-2.36,9.44,9.44,0,0,1,1.36.11Z"/><path class="cls-4" d="M237.35,151.78a9,9,0,1,1-8.95,9A8.77,8.77,0,0,1,237.35,151.78Zm0,14.73a5.71,5.71,0,1,0-5.45-5.71A5.45,5.45,0,0,0,237.35,166.51Z"/><path class="cls-4" d="M263.25,161.54a.11.11,0,0,0-.11.11,5.58,5.58,0,0,0,5.59,5.12,6,6,0,0,0,4.29-1.66,1.08,1.08,0,0,1,1.45,0l1.52,1.45a9.1,9.1,0,0,1-7.29,3.24,8.79,8.79,0,0,1-8.95-9c0-5.19,3.53-9,8.43-9s8.32,3.91,8.32,9c0,.15,0,.41,0,.74Zm.31-2.94h9.17a.11.11,0,0,0,.1-.13,4.84,4.84,0,0,0-4.54-3.63,5,5,0,0,0-4.83,3.63A.11.11,0,0,0,263.56,158.6Z"/><path class="cls-4" d="M296.58,165.78a9.18,9.18,0,0,1-7.7,4.05,8.91,8.91,0,0,1-9.24-9,8.81,8.81,0,0,1,9-9,9.13,9.13,0,0,1,7.37,3.76l-2.58,2.17a6,6,0,0,0-4.79-2.61,5.71,5.71,0,0,0,.22,11.41,5.89,5.89,0,0,0,4.4-2,1.07,1.07,0,0,1,1.42-.14Z"/><path class="cls-4" d="M309.43,169.46a9.58,9.58,0,0,1-2.73.37,6.24,6.24,0,0,1-4.89-2,6.57,6.57,0,0,1-1.4-4.6v-7.92h0v-3.13h0v-4.79h3.49v4.79h5.53v3.13H303.9v8.1a3.36,3.36,0,0,0,.52,2.21,3.21,3.21,0,0,0,2.39.92,8.38,8.38,0,0,0,1.92-.22Z"/><path class="cls-4" d="M251.69,152.15h3.5v15.58c0,2.32-.33,3.76-1.1,4.86a6.77,6.77,0,0,1-5.67,2.87,8.33,8.33,0,0,1-2.06-.25l.51-2.25a1.09,1.09,0,0,1,1.14-.82,3.53,3.53,0,0,0,3-1.21,4.91,4.91,0,0,0,.66-3.09Zm1.73-8.39a2.3,2.3,0,0,1,2.24,2.4,2.3,2.3,0,1,1-2.24-2.4Z"/></g></g></svg>