<svg fill="none" height="150" viewBox="0 0 286 150" width="286" xmlns="http://www.w3.org/2000/svg"><path d="m0 0h286v150h-286z" fill="#2a3038"/><path d="m78.9269 93.0253c-.2801.281-.661.439-1.0583.439-.3972 0-.7781-.158-1.0582-.439l-11.4443-11.413c-.5364-.5904-.514-1.4967.0509-2.06.5649-.5634 1.4736-.5857 2.0657-.0508l11.4442 11.413c.2818.2794.4402.6592.4402 1.0554s-.1584.7761-.4402 1.0554zm-15.3589-15.2858c-1.994 1.9903-4.9941 2.5864-7.6008 1.5103-2.6068-1.0761-4.3066-3.6125-4.3066-6.4261 0-2.8135 1.6998-5.3499 4.3066-6.426 2.6067-1.0761 5.6068-.48 7.6008 1.5103 2.7207 2.7156 2.7207 7.1159 0 9.8315zm-7.7419-7.6958c-1.139 1.1337-1.4806 2.8402-.8655 4.3232.6152 1.483 2.0658 2.4502 3.6751 2.4502 1.6092 0 3.0599-.9672 3.675-2.4502.6152-1.483.2735-3.1895-.8655-4.3232-1.5525-1.5454-4.0665-1.5454-5.6191 0zm24.5306 16.6929c-.2801.281-.661.439-1.0583.439s-.7782-.158-1.0583-.439l-2.6472-2.64c-.5364-.5904-.514-1.4966.0509-2.06s1.4736-.5857 2.0656-.0507l2.6473 2.64c.2817.2793.4402.6591.4402 1.0553 0 .3963-.1585.7761-.4402 1.0554z" fill="#fda929"/><path d="m50.9314 65.1371c-.2791.2807-.6589.4385-1.0552.4385s-.7761-.1578-1.0551-.4385l-1.5921-1.5877c-.5845-.5811-.5859-1.5248-.0031-2.1076.5827-.5829 1.5289-.5843 2.1134-.0031l1.5921 1.5877c.2817.2793.4402.6592.4402 1.0554s-.1585.776-.4402 1.0553zm-4.2518 8.5862c-.2829.2783-.664.4348-1.0614.4359h-2.2164c-.7884-.0508-1.4018-.7034-1.4018-1.4912 0-.7879.6134-1.4404 1.4018-1.4913h2.2164c.3968-.0016.778.1544 1.0592.4337.2811.2792.4392.6587.4392 1.0544-.001.3963-.158.7764-.437 1.0585zm12.8927-12.8388c-.4262.4301-1.0709.5603-1.6312.3294-.5604-.2309-.9249-.777-.9224-1.3817v-2.2415c-.036-.5557.2409-1.0853.7184-1.3741s1.0764-.2888 1.5539 0 .7544.8184.7183 1.3741v2.2353c.0017.3968-.1556.7779-.437 1.0585z" fill="#4297dd"/><path d="m183.748 79.9247c-.916.815-2.105 1.2592-3.334 1.2452-.949-.0011-1.882-.2455-2.709-.7098-1.721-1.0452-2.771-2.9094-2.771-4.9188 0-2.0095 1.05-3.8736 2.771-4.9189 1.921-1.0853 4.314-.8773 6.018.523v-.9837h2.117v10.7779h-2.117zm-.068-6.3946s0 0 0-.0373c-.731-.9525-1.863-1.5135-3.066-1.5193-.937-.0037-1.835.3719-2.49 1.0408-.654.669-1.008 1.5741-.981 2.5083-.01.9493.365 1.8623 1.039 2.5319.675.6695 1.593 1.0385 2.545 1.0234 1.168-.0195 2.26-.5813 2.953-1.5193 0 0 0 0 0-.0373zm15.64 5.0932c-1.076 1.5926-2.882 2.5399-4.808 2.5217-1.52.0563-2.998-.511-4.088-1.5698-1.09-1.0587-1.697-2.5166-1.681-4.0339-.033-1.496.549-2.9404 1.61-3.9984 1.061-1.0581 2.509-1.638 4.009-1.6054 1.821.0028 3.531.8727 4.602 2.3411l-1.611 1.3512c-.678-.9885-1.79-1.5928-2.991-1.6251-1.914.1078-3.4 1.7063-3.363 3.6181s1.584 3.452 3.501 3.4862c1.052-.004 2.052-.4574 2.747-1.2453.233-.2447.61-.2818.886-.0872zm12.074 0c-1.076 1.5926-2.881 2.5399-4.807 2.5217-1.521.0563-2.998-.511-4.088-1.5698-1.09-1.0587-1.697-2.5166-1.681-4.0339-.033-1.496.549-2.9404 1.61-3.9984 1.061-1.0581 2.509-1.638 4.009-1.6054 1.821.0028 3.531.8727 4.602 2.3411l-1.624 1.32c-.678-.9884-1.79-1.5927-2.99-1.6251-1.915.1079-3.401 1.7064-3.364 3.6182s1.584 3.452 3.501 3.4862c1.052-.0057 2.051-.4587 2.747-1.2453.233-.2447.611-.2819.887-.0872zm3.684-2.64c-.039.0033-.069.0358-.069.0748.153 1.8061 1.673 3.1913 3.491 3.1817.979.0241 1.93-.3358 2.647-1.0025.264-.2491.678-.2491.943 0l.942.8966c-1.126 1.3369-2.808 2.0812-4.557 2.0174-1.495.0258-2.936-.5575-3.989-1.6152-1.054-1.0577-1.629-2.4982-1.593-3.9886 0-3.2315 2.204-5.6038 5.263-5.6038s5.195 2.4346 5.195 5.6038c.009.1534.009.3073 0 .4608zm.194-1.8305h5.725c.019-.0015.037-.0111.049-.0266.012-.0154.017-.0352.013-.0544-.337-1.2971-1.491-2.2174-2.834-2.2601-1.4-.006-2.632.9178-3.016 2.2601-.003.0192.001.039.013.0544.012.0155.03.0251.05.0266zm10.651 4.4581c.203-.2959.601-.3855.912-.2055.796.5288 1.728.8184 2.684.8344.937 0 1.873-.5044 1.873-1.3512 0-1.2453-1.798-1.3075-3.384-1.8368-1.311-.4358-2.497-1.2452-2.497-2.7707 0-2.3162 2.073-3.3747 4.002-3.3747 1.314-.0482 2.601.3761 3.627 1.1955l-1.13 1.5566c-.659-.53-1.476-.8277-2.322-.8468-1.055 0-1.954.5043-1.954 1.3511 0 .7347.855.99 1.935 1.2453 1.698.4358 3.927 1.1892 3.927 3.412 0 2.0423-1.873 3.3062-4.021 3.3062-1.587.0297-3.135-.4994-4.37-1.4943zm10.339 0c.201-.295.596-.3848.905-.2055.798.5269 1.729.8163 2.685.8344.943 0 1.873-.5044 1.873-1.3512 0-1.2453-1.792-1.3075-3.378-1.8368-1.311-.4358-2.497-1.2452-2.497-2.7707 0-2.3162 2.067-3.3747 4.002-3.3747 1.299-.0394 2.57.3845 3.584 1.1955l-1.124 1.5566c-.659-.53-1.476-.8277-2.323-.8468-1.061 0-1.954.5043-1.954 1.3511 0 .7347.849.99 1.93 1.2453 1.704.4358 3.933 1.1892 3.933 3.412 0 2.0423-1.911 3.3062-4.021 3.3062-1.588.0318-3.136-.4975-4.37-1.4943zm-139.2289 5.8092h-2.1852v-14.2833h2.1165v.9837c.9413-.8035 2.1451-1.2354 3.3836-1.2141.927-.0117 1.84.2271 2.641.6911 1.721 1.0453 2.771 2.9094 2.771 4.9189 0 2.0094-1.05 3.8735-2.771 4.9188-.829.4651-1.764.7095-2.716.7098-1.183.0277-2.3356-.3776-3.2399-1.1394zm0-6.9051c-.0027.0144-.0027.0292 0 .0436.6943.9356 1.7862 1.495 2.9532 1.513.9527.0169 1.8717-.3514 2.5487-1.0211.676-.6697 1.052-1.5838 1.041-2.5341.027-.9342-.327-1.8393-.981-2.5083-.655-.669-1.553-1.0445-2.49-1.0408-1.2032.0052-2.3366.5634-3.0719 1.513-.0027.0144-.0027.0292 0 .0436zm17.5749-5.4543c-.277-.0677-.563-.097-.849-.0872-1.212.075-2.307.7505-2.915 1.7995v7.1167h-2.186v-10.7529h2.111v1.2452c.787-.9756 1.992-1.5209 3.246-1.4694.285.0024.568.0253.849.0685zm6.993-2.1543c2.276-.0126 4.334 1.3447 5.214 3.4376.879 2.093.406 4.5083-1.198 6.1175-1.605 1.6091-4.024 2.0942-6.128 1.2287-2.103-.8655-3.476-2.9107-3.476-5.1801-.039-1.4925.536-2.9361 1.591-3.9948 1.056-1.0587 2.5-1.6401 3.997-1.6089zm0 9.1715c1.455.0661 2.804-.7569 3.407-2.0788.603-1.322.34-2.8769-.666-3.9275-1.005-1.0507-2.55-1.3857-3.903-.8463-1.352.5395-2.239 1.8449-2.241 3.2973-.044.9277.295 1.833.938 2.5048.643.6719 1.534 1.0515 2.465 1.0505zm16.171-3.0946c-.019 0-.036.0073-.049.0201-.013.0129-.02.0303-.02.0484.15 1.8086 1.67 3.1974 3.49 3.188.995.024 1.959-.3479 2.679-1.0336.256-.2321.648-.2321.905 0l.949.9028c-1.125 1.3352-2.804 2.0793-4.552 2.0173-1.495.0276-2.938-.5549-3.993-1.6128-1.054-1.0579-1.631-2.4994-1.595-3.9909 0-3.2315 2.204-5.6038 5.264-5.6038 3.059 0 5.194 2.4346 5.194 5.6038v.4607zm.193-1.8305h5.725c.02-.0015.038-.0111.05-.0266.012-.0154.016-.0352.013-.0544-.336-1.2983-1.491-2.2194-2.835-2.2601-1.399-.006-2.632.9178-3.015 2.2601-.004.0192.001.039.013.0544.012.0155.03.0251.049.0266zm20.616 4.4705c-1.076 1.5926-2.882 2.5399-4.807 2.5217-1.521.0563-2.998-.511-4.088-1.5698-1.09-1.0587-1.698-2.5166-1.681-4.0339-.033-1.496.548-2.9404 1.609-3.9984 1.061-1.0581 2.51-1.638 4.01-1.6054 1.82.0028 3.53.8727 4.601 2.3411l-1.611 1.3512c-.678-.9885-1.79-1.5928-2.99-1.6251-1.915.1078-3.4 1.7063-3.364 3.6181.037 1.9118 1.584 3.452 3.501 3.4862 1.052-.004 2.052-.4574 2.747-1.2453.23-.25.612-.2875.887-.0872zm8.023 2.2914c-.554.1582-1.128.2358-1.705.2303-1.152.0562-2.27-.3998-3.053-1.2453-.643-.8102-.956-1.8335-.874-2.8641v-4.9313-1.9489-2.9824h2.179v2.9824h3.453v1.9489h-3.453v5.0434c-.055.4823.06.9688.325 1.376.396.3891.937.5966 1.492.5728.404.0006.806-.0453 1.199-.1369zm-36.05-10.7779h2.185v9.7007c0 1.4445-.206 2.3411-.686 3.026-.809 1.1453-2.136 1.815-3.54 1.787-.434.0018-.866-.0505-1.287-.1557l.319-1.4009c.081-.3202.381-.5358.712-.5106.709.0657 1.407-.2149 1.873-.7534.346-.5785.491-1.2548.412-1.9239zm1.08-5.224c.386.0097.751.1735 1.014.4545.263.2811.402.6558.385 1.0398-.035.7867-.7 1.398-1.489 1.3684s-1.406-.6889-1.381-1.476c.025-.787.682-1.4065 1.471-1.3867z" fill="#fff"/></svg>