<svg height="395" viewBox="0 0 537 395" width="537" xmlns="http://www.w3.org/2000/svg"><g fill="none"><path d="m0 .938h537v393.345h-537z" fill="#282a29"/><path d="m72 71.6955738c-.5383361.5400656-1.2704052.8437418-2.034.8437418s-1.4956639-.3036762-2.034-.8437418l-21.996-21.9359017c-1.0310043-1.1347607-.9880003-2.8766141.0977522-3.9594001 1.0857526-1.082786 2.8323782-1.1256725 3.9702478-.0974851l21.996 21.9359016c.5415452.5368652.8460534 1.2669342.8460534 2.0284426 0 .7615085-.3045082 1.4915775-.8460534 2.0284427zm-29.52-29.3795082c-3.8326136 3.8254166-9.5988134 4.9711712-14.6089542 2.9028262-5.0101407-2.068345-8.2771627-6.9432999-8.2771627-12.350941s3.267022-10.282596 8.2771627-12.350941c5.0101408-2.0683449 10.7763406-.9225904 14.6089542 2.9028263 5.2291775 5.219358 5.2291775 13.6768715 0 18.8962295zm-14.88-14.7914754c-2.1891724 2.1790574-2.8458167 5.4590277-1.6635203 8.309364 1.1822964 2.8503364 3.9704925 4.7092122 7.0635203 4.7092122s5.8812239-1.8588758 7.0635203-4.7092122c1.1822964-2.8503363.5256521-6.1303066-1.6635203-8.309364-2.9839917-2.9702043-7.8160083-2.9702043-10.8 0zm47.148 32.0840983c-.5383361.5400656-1.2704052.8437418-2.034.8437418s-1.4956639-.3036762-2.034-.8437418l-5.088-5.0740983c-1.0310043-1.1347607-.9880003-2.8766141.0977522-3.9594001 1.0857526-1.082786 2.8323782-1.1256725 3.9702478-.0974852l5.088 5.0740984c.5415452.5368652.8460534 1.2669342.8460534 2.0284426s-.3045082 1.4915774-.8460534 2.0284426zm-56.556-41.5142623c-.5362801.5393472-1.266365.8427332-2.028.8427332s-1.4917199-.303386-2.028-.8427332l-3.06-3.0516393c-1.12334708-1.1169733-1.12603332-2.9306237-.0059999-4.0509015 1.1200334-1.12027793 2.9386527-1.12295693 4.0619999-.0059838l3.06 3.0516394c.5415452.5368652.8460534 1.2669342.8460534 2.0284426s-.3045082 1.4915774-.8460534 2.0284426zm-8.172 16.5027869c-.54375098.5348916-1.27623308.8356778-2.04.8377049h-4.26c-1.51528033-.0976964-2.69419365-1.3518525-2.69419365-2.8661475s1.17891332-2.7684512 2.69419365-2.8661475h4.26c.76271792-.0031826 1.49529155.2967496 2.0357441.8334797.5404525.5367302.8442626 1.2660435.8442559 2.0266842-.0020326.7616801-.3036429 1.4921609-.84 2.0344262zm24.78-24.67639343c-.819081.82663243-2.0582777 1.07683383-3.1352748.63303143-1.0769972-.4438025-1.7776551-1.49336757-1.7727252-2.65549044v-4.30819673c-.0692477-1.06817759.4628864-2.0861314 1.3806626-2.64115907.9177763-.55502767 2.0688985-.55502767 2.9866748 0 .9177762.55502767 1.4499103 1.57298148 1.3806626 2.64115907v4.29622951c.0032028.76271093-.2991976 1.4951054-.84 2.03442623zm238.668 36.59573773c-1.762112 1.5665869-4.047496 2.4201972-6.408 2.3934426-1.824556-.0020889-3.617942-.4718756-5.208-1.3642623-3.307519-2.0090278-5.325955-5.591952-5.325955-9.4540984 0-3.8621463 2.018436-7.4450706 5.325955-9.4540983 3.692729-2.0860327 8.292715-1.6862991 11.568 1.0052459v-1.8908197h4.068v20.7152459h-4.068zm-.132-12.2903279s0 0 0-.0718033c-1.404681-1.8306513-3.580576-2.9089969-5.892-2.92-1.801095-.0072341-3.528055.7146365-4.7857 2.0004259-1.257645 1.2857893-1.938332 3.0254467-1.8863 4.8208856-.019663 1.8244905.700898 3.5794636 1.998002 4.8662629s3.060637 1.9961855 4.889998 1.9670158c2.245055-.0374549 4.344062-1.1172821 5.676-2.92 0 0 0 0 0-.0718033zm30.06 9.7891803c-2.068047 3.0609249-5.539154 4.881649-9.24 4.8467213-2.922511.1081896-5.761904-.9821843-7.856884-3.0171733-2.094979-2.034989-3.262669-4.8369546-3.231116-7.7533185-.06288-2.8752774 1.054771-5.6513798 3.093954-7.6849914 2.039183-2.0336117 4.822891-3.1482082 7.706046-3.0855004 3.499405.0052648 6.785754 1.6773017 8.844 4.4996722l-3.096 2.5968852c-1.303234-1.8997627-3.440743-3.0612776-5.748-3.1234426-3.679361.2072723-6.535329 3.2796579-6.464286 6.9541328.071043 3.6744748 3.043648 6.6347849 6.728286 6.7004574 2.0223-.0077753 3.944395-.8790677 5.28-2.3934427.447341-.4703578 1.173167-.5417226 1.704-.1675409zm23.208 0c-2.068047 3.0609249-5.539154 4.881649-9.24 4.8467213-2.922511.1081896-5.761904-.9821843-7.856884-3.0171733-2.094979-2.034989-3.262669-4.8369546-3.231116-7.7533185-.06288-2.8752774 1.054771-5.6513798 3.093954-7.6849914 2.039183-2.0336117 4.822891-3.1482082 7.706046-3.0855004 3.499405.0052648 6.785754 1.6773017 8.844 4.4996722l-3.12 2.5370492c-1.303234-1.8997628-3.440743-3.0612776-5.748-3.1234427-3.679361.2072723-6.535329 3.279658-6.464286 6.9541328s3.043648 6.6347849 6.728286 6.7004574c2.021626-.0108412 3.942521-.8815896 5.28-2.3934426.447341-.4703579 1.173167-.5417227 1.704-.167541zm7.08-5.0740983c-.074808.0062382-.132261.0687426-.132.1436065.294184 3.4713237 3.214806 6.1338646 6.708 6.1152459 1.883452.0463658 3.710095-.6453466 5.088-1.9267213.508626-.4787134 1.303374-.4787134 1.812 0l1.812 1.7232787c-2.164892 2.5695642-5.396891 4.0001211-8.76 3.8773771-2.872808.0497256-5.641633-1.0714293-7.666514-3.1043309-2.024882-2.0329015-3.130563-4.8015993-3.061486-7.6661609 0-6.2109836 4.236-10.7704918 10.116-10.7704918s9.984 4.6791803 9.984 10.7704918c.018708.2948964.018708.5906773 0 .8855737zm.372-3.5183607h11.004c.037471-.0027628.071985-.0213193.094893-.0510191.022909-.0296997.032041-.067728.025107-.1045547-.648345-2.4931275-2.866652-4.2619497-5.448-4.3440983-2.690044-.0114491-5.058946 1.7640413-5.796 4.3440983-.006934.0368267.002198.074855.025107.1045547.022908.0296998.057422.0482563.094893.0510191zm20.472 8.5685246c.390316-.5686871 1.154375-.7409135 1.752-.394918 1.53051 1.0163211 3.321498 1.5729182 5.16 1.6036065 1.8 0 3.6-.9693442 3.6-2.5968852 0-2.3934426-3.456-2.5131148-6.504-3.5303279-2.52-.8377049-4.8-2.3934426-4.8-5.3254098 0-4.4518033 3.984-6.4862295 7.692-6.4862295 2.525091-.0926238 4.999467.722836 6.972 2.2977049l-2.172 2.9918033c-1.267315-1.0185964-2.836744-1.5907983-4.464-1.627541-2.028 0-3.756.9693443-3.756 2.5968852 0 1.4121312 1.644 1.9027869 3.72 2.3934427 3.264.8377049 7.548 2.2857377 7.548 6.5580327 0 3.9252459-3.6 6.3545902-7.728 6.3545902-3.051461.0569246-6.025506-.959962-8.4-2.8721311zm19.872 0c.385928-.5670237 1.146026-.739539 1.74-.394918 1.532252 1.0126701 3.322144 1.5689264 5.16 1.6036065 1.812 0 3.6-.9693442 3.6-2.5968852 0-2.3934426-3.444-2.5131148-6.492-3.5303279-2.52-.8377049-4.8-2.3934426-4.8-5.3254098 0-4.4518033 3.972-6.4862295 7.692-6.4862295 2.496976-.0756316 4.939185.7390426 6.888 2.2977049l-2.16 2.9918033c-1.267315-1.0185964-2.836744-1.5907983-4.464-1.627541-2.04 0-3.756.9693443-3.756 2.5968852 0 1.4121312 1.632 1.9027869 3.708 2.3934427 3.276.8377049 7.56 2.2857377 7.56 6.5580327 0 3.9252459-3.672 6.3545902-7.728 6.3545902-3.05211.0610491-6.027532-.9563085-8.4-2.8721311zm-267.6 11.1654098h-4.2v-27.4527868h4.068v1.8908196c1.809205-1.5443588 4.122893-2.3744999 6.504-2.3336065 1.781235-.0224309 3.535316.4366022 5.076 1.3283606 3.307519 2.0090278 5.325955 5.5919521 5.325955 9.4540984s-2.018436 7.4450706-5.325955 9.4540984c-1.593806.8938701-3.391447 1.3636887-5.22 1.3642622-2.274562.053274-4.489984-.7257518-6.228-2.19zm0-13.2716393c-.005202.0276825-.005202.056088 0 .0837705 1.334444 1.798202 3.433054 2.8734003 5.676 2.9080328 1.831424.0324372 3.598086-.6755043 4.897815-1.9626655 1.299729-1.2871613 2.021926-3.0440113 2.002185-4.8706132.052032-1.7954389-.628655-3.5350963-1.8863-4.8208856-1.257645-1.2857894-2.984605-2.00766-4.7857-2.0004259-2.312288.0098772-4.490738 1.0828788-5.904 2.9080328-.005202.0276825-.005202.056088 0 .0837705zm33.78-10.4832787c-.533741-.1301052-1.082874-.1864791-1.632-.167541-2.330939.1440584-4.434737 1.4424236-5.604 3.4585246v13.6785246h-4.2v-20.667377h4.056v2.3934426c1.513057-1.8751864 3.828544-2.9231902 6.24-2.8242623.546472.004564 1.091896.0485587 1.632.1316393zm13.44-4.1406557c4.37357-.0242316 8.330019 2.5844952 10.020575 6.6071732 1.690557 4.0226779.781423 8.6650384-2.302579 11.7577965-3.084003 3.0927582-7.733945 4.025256-11.776999 2.3617553-4.043055-1.6635006-6.68093-5.5945453-6.680997-9.9562332-.076092-2.8686632 1.028984-5.6432864 3.058028-7.6780915 2.029045-2.0348051 4.80507-3.1523023 7.681972-3.0924003zm0 17.6277049c2.796251.1271074 5.388875-1.4547706 6.548429-3.9954945s.65286-5.5293724-1.279803-7.5487041c-1.932664-2.0193317-4.902653-2.6632735-7.501573-1.6264629-2.598921 1.0368105-4.30415 3.5458782-4.307053 6.3373828-.085393 1.7830297.565755 3.5230426 1.80162 4.8143286s2.948428 2.0209826 4.73838 2.0189501zm31.08-5.9477049c-.035009 0-.068583.0138691-.093338.0385562-.024755.0246872-.038662.0581702-.038662.0930831.288276 3.4760611 3.210562 6.145332 6.708 6.1272131 1.912495.0461589 3.764784-.6686192 5.148-1.9865573.493789-.4460034 1.246211-.4460034 1.74 0l1.824 1.7352459c-2.162265 2.5661842-5.389044 3.9963897-8.748 3.877377-2.874871.053026-5.646846-1.0666727-7.674363-3.0999458-2.027517-2.0332732-3.134823-4.8038701-3.065637-7.670546 0-6.2109836 4.236-10.7704918 10.116-10.7704918s9.984 4.6791803 9.984 10.7704918v.8855738zm.372-3.5183607h11.004c.037471-.0027628.071985-.0213193.094893-.0510191.022909-.0296997.032041-.067728.025107-.1045547-.644808-2.4954117-2.865196-4.2658932-5.448-4.3440983-2.690044-.0114491-5.058946 1.7640413-5.796 4.3440983-.006934.0368267.002198.074855.025107.1045547.022908.0296998.057422.0482563.094893.0510191zm39.624 8.592459c-2.068047 3.0609249-5.539154 4.881649-9.24 4.8467213-2.922511.1081896-5.761904-.9821843-7.856884-3.0171733-2.094979-2.034989-3.262669-4.8369546-3.231116-7.7533185-.06288-2.8752774 1.054771-5.6513798 3.093954-7.6849914 2.039183-2.0336117 4.822891-3.1482082 7.706046-3.0855004 3.499405.0052648 6.785754 1.6773017 8.844 4.4996722l-3.096 2.5968852c-1.303234-1.8997627-3.440743-3.0612776-5.748-3.1234426-3.679361.2072723-6.535329 3.2796579-6.464286 6.9541328.071043 3.6744748 3.043648 6.6347849 6.728286 6.7004574 2.0223-.0077753 3.944395-.8790677 5.28-2.3934427.442307-.4805122 1.176115-.5526618 1.704-.1675409zm15.42 4.4039345c-1.064905.304229-2.168312.4533663-3.276.4427868-2.21488.108057-4.363867-.7684729-5.868-2.3934426-1.237383-1.557349-1.837618-3.5241635-1.68-5.504918v-9.4780328-3.7457377-5.7322951h4.188v5.7322951h6.636v3.7457377h-6.636v9.6934426c-.106006.9270846.114594 1.8620767.624 2.6447541.761452.7478804 1.800243 1.146657 2.868 1.1009836.775611.0011443 1.548751-.0872026 2.304-.2632787zm-69.288-20.7152459h4.2v18.644918c0 2.7763934-.396 4.4996721-1.32 5.8160656-1.554807 2.2012634-4.104618 3.4883821-6.804 3.4345901-.833283.0034175-1.663725-.097089-2.472-.2991803l.612-2.6926229c.15582-.6154888.733314-1.0297443 1.368-.9813115 1.364202.1263164 2.705425-.4131657 3.6-1.4480328.665349-1.1119257.943772-2.4118892.792-3.6978689zm2.076-10.0404918c.740699.0185669 1.442808.3333535 1.948361.8735369.505552.5401833.772087 1.2603941.739639 1.9985942-.066462 1.5120011-1.344526 2.6868396-2.861054 2.6299742-1.516528-.0568653-2.70252-1.3240985-2.654941-2.8368077.047578-1.5127092 1.310875-2.703327 2.827995-2.6652976z" fill="#f9f9fa" transform="translate(74 161)"/></g></svg>