<svg xmlns="http://www.w3.org/2000/svg" width="537" height="395" viewBox="0 0 537 395">
  <g fill="none">
    <rect width="537" height="393.345" y=".938" fill="#282726"/>
    <g fill="#F9F9FA" transform="translate(106 167)">
      <path d="M60 59.91C59.5513866 60.3612877 58.941329 60.6150445 58.305 60.6150445 57.668671 60.6150445 57.0586134 60.3612877 56.61 59.91L38.28 41.58C37.4208297 40.6317753 37.4566664 39.176254 38.3614602 38.2714602 39.266254 37.3666664 40.7217753 37.3308297 41.67 38.19L60 56.52C60.4512877 56.9686134 60.7050445 57.578671 60.7050445 58.215 60.7050445 58.851329 60.4512877 59.4613866 60 59.91zM35.4 35.36C32.2061553 38.556581 27.4009888 39.5139924 23.2258715 37.7856493 19.0507542 36.0573062 16.328236 31.9837138 16.328236 27.465 16.328236 22.9462862 19.0507542 18.8726938 23.2258715 17.1443507 27.4009888 15.4160076 32.2061553 16.373419 35.4 19.57 39.7576479 23.9313814 39.7576479 30.9986186 35.4 35.36zM23 23C21.1756897 24.8208562 20.628486 27.5616533 21.6137331 29.9434412 22.5989801 32.3252292 24.9224769 33.8785363 27.5 33.8785363 30.0775231 33.8785363 32.4010199 32.3252292 33.3862669 29.9434412 34.371514 27.5616533 33.8243103 24.8208562 32 23 29.5133403 20.5180485 25.4866597 20.5180485 23 23zM62.29 49.81C61.8413866 50.2612877 61.231329 50.5150445 60.595 50.5150445 59.958671 50.5150445 59.3486134 50.2612877 58.9 49.81L54.66 45.57C53.8008297 44.6217753 53.8366664 43.166254 54.7414602 42.2614602 55.646254 41.3566664 57.1017753 41.3208297 58.05 42.18L62.29 46.42C62.7412877 46.8686134 62.9950445 47.478671 62.9950445 48.115 62.9950445 48.751329 62.7412877 49.3613866 62.29 49.81zM15.16 15.12C14.7130999 15.5706874 14.1046958 15.8242017 13.47 15.8242017 12.8353042 15.8242017 12.2269001 15.5706874 11.78 15.12L9.23 12.57C8.29387743 11.6366388 8.2916389 10.1211227 9.22500009 9.18500009 10.1583613 8.24887748 11.6738773 8.24663886 12.61 9.18L15.16 11.73C15.6112877 12.1786134 15.8650445 12.788671 15.8650445 13.425 15.8650445 14.061329 15.6112877 14.6713866 15.16 15.12zM8.35 28.91C7.89687418 29.3569642 7.28647244 29.6083061 6.65 29.61L3.1 29.61C1.83726639 29.5283633.854838626 28.4803698.854838626 27.215.854838626 25.9496302 1.83726639 24.9016367 3.1 24.82L6.65 24.82C7.28559827 24.8173406 7.89607629 25.0679689 8.34645338 25.5164694 8.79683047 25.9649699 9.05000556 26.5743962 9.05 27.21 9.04830613 27.8464724 8.79696423 28.4568742 8.35 28.91zM29 8.29C28.3174325 8.98074762 27.2847686 9.18982009 26.387271 8.81897144 25.4897734 8.4481228 24.9058918 7.57108898 24.91 6.6L24.91 3C24.8522936 2.10741324 25.2957386 1.25679431 26.0605522.793004059 26.8253657.329213813 27.7846343.329213813 28.5494478.793004059 29.3142614 1.25679431 29.7577064 2.10741324 29.7 3L29.7 6.59C29.702669 7.22733379 29.4506686 7.83933465 29 8.29zM227.89 38.87C226.421573 40.1790658 224.517087 40.8923565 222.55 40.87 221.029537 40.8682545 219.535048 40.475693 218.21 39.73 215.453734 38.0512234 213.771704 35.057273 213.771704 31.83 213.771704 28.602727 215.453734 25.6087766 218.21 23.93 221.287274 22.1868768 225.120596 22.5209007 227.85 24.77L227.85 23.19 231.24 23.19 231.24 40.5 227.85 40.5 227.89 38.87zM227.78 28.6C227.78 28.6 227.78 28.6 227.78 28.54 226.609432 27.0102776 224.796187 26.1091943 222.87 26.1 221.369087 26.0939551 219.929954 26.697162 218.881916 27.7715887 217.833879 28.8460154 217.26664 30.2997018 217.31 31.8 217.293614 33.3245743 217.894082 34.7910586 218.975002 35.8663293 220.055922 36.9416 221.525533 37.5343747 223.05 37.51 224.920879 37.4787021 226.670051 36.5763807 227.78 35.07 227.78 35.07 227.78 35.07 227.78 35.01L227.78 28.6zM252.83 36.78C251.106628 39.3377591 248.214038 40.8591861 245.13 40.83 242.694574 40.9204049 240.328413 40.0092706 238.582597 38.3088003 236.836781 36.6083301 235.863705 34.2669616 235.89 31.83 235.8376 29.4273709 236.768975 27.1076141 238.468295 25.4082948 240.167614 23.7089754 242.487371 22.7776003 244.89 22.83 247.80617 22.8343993 250.544795 24.2315809 252.26 26.59L249.68 28.76C248.593972 27.172527 246.812714 26.2019461 244.89 26.15 241.823866 26.3232001 239.443892 28.8905361 239.503095 31.9609877 239.562297 35.0314392 242.039468 37.505123 245.11 37.56 246.79525 37.5535029 248.396996 36.8254366 249.51 35.56 249.882784 35.1669612 250.487639 35.1073276 250.93 35.42L252.83 36.78zM272.17 36.78C270.446628 39.3377591 267.554038 40.8591861 264.47 40.83 262.034574 40.9204049 259.668413 40.0092706 257.922597 38.3088003 256.176781 36.6083301 255.203705 34.2669616 255.23 31.83 255.1776 29.4273709 256.108975 27.1076141 257.808295 25.4082948 259.507614 23.7089754 261.827371 22.7776003 264.23 22.83 267.14617 22.8343993 269.884795 24.2315809 271.6 26.59L269 28.71C267.913972 27.122527 266.132714 26.1519461 264.21 26.1 261.143866 26.2732001 258.763892 28.8405361 258.823095 31.9109877 258.882297 34.9814392 261.359468 37.455123 264.43 37.51 266.114689 37.5009409 267.715434 36.7733293 268.83 35.51 269.202784 35.1169612 269.807639 35.0573276 270.25 35.37L272.17 36.78zM278.07 32.54C278.00766 32.5452128 277.959782 32.5974425 277.96 32.66 278.205153 35.5606951 280.639005 37.7855581 283.55 37.77 285.119543 37.808744 286.641746 37.2307377 287.79 36.16 288.213855 35.7599792 288.876145 35.7599792 289.3 36.16L290.81 37.6C289.005923 39.7471701 286.31259 40.9425669 283.51 40.84 281.115994 40.8815516 278.808639 39.9446961 277.121238 38.2459701 275.433837 36.5472442 274.512436 34.2336748 274.57 31.84 274.57 26.65 278.1 22.84 283 22.84 287.9 22.84 291.32 26.75 291.32 31.84 291.33559 32.0864203 291.33559 32.3335797 291.32 32.58L278.07 32.54zM278.38 29.6L287.55 29.6C287.581225 29.5976913 287.609987 29.5821852 287.629078 29.5573676 287.648168 29.53255 287.655778 29.500773 287.65 29.47 287.109712 27.3867016 285.261123 25.9086447 283.11 25.84 280.868297 25.830433 278.894212 27.3140619 278.28 29.47 278.274222 29.500773 278.281832 29.53255 278.300922 29.5573676 278.320013 29.5821852 278.348775 29.5976913 278.38 29.6zM295.44 36.76C295.765263 36.2847957 296.401979 36.1408805 296.9 36.43 298.175425 37.2792546 299.667915 37.7443563 301.2 37.77 302.7 37.77 304.2 36.96 304.2 35.6 304.2 33.6 301.32 33.5 298.78 32.65 296.68 31.95 294.78 30.65 294.78 28.2 294.78 24.48 298.1 22.78 301.19 22.78 303.294242 22.702602 305.356222 23.3840136 307 24.7L305.19 27.2C304.133904 26.3488441 302.826047 25.8707028 301.47 25.84 299.78 25.84 298.34 26.65 298.34 28.01 298.34 29.19 299.71 29.6 301.44 30.01 304.16 30.71 307.73 31.92 307.73 35.49 307.73 38.77 304.73 40.8 301.29 40.8 298.747116 40.8475671 296.268745 39.99784 294.29 38.4L295.44 36.76zM312 36.76C312.321606 36.2861856 312.955022 36.1420291 313.45 36.43 314.726877 37.2762038 316.218453 37.7410207 317.75 37.77 319.26 37.77 320.75 36.96 320.75 35.6 320.75 33.6 317.88 33.5 315.34 32.65 313.24 31.95 311.34 30.65 311.34 28.2 311.34 24.48 314.65 22.78 317.75 22.78 319.830813 22.716801 321.865987 23.3975562 323.49 24.7L321.69 27.2C320.633904 26.3488441 319.326047 25.8707028 317.97 25.84 316.27 25.84 314.84 26.65 314.84 28.01 314.84 29.19 316.2 29.6 317.93 30.01 320.66 30.71 324.23 31.92 324.23 35.49 324.23 38.77 321.17 40.8 317.79 40.8 315.246575 40.8510137 312.767057 40.0008929 310.79 38.4L312 36.76zM89 46.09L85.5 46.09 85.5 23.15 88.89 23.15 88.89 24.73C90.3976707 23.4395084 92.325744 22.7458288 94.31 22.78 95.7943625 22.7612564 97.2560966 23.144832 98.54 23.89 101.296266 25.5687766 102.978296 28.562727 102.978296 31.79 102.978296 35.017273 101.296266 38.0112234 98.54 39.69 97.211828 40.4369325 95.7137942 40.8295207 94.19 40.83 92.2945314 40.8745166 90.448347 40.2235498 89 39L89 46.09zM89 35C88.9956647 35.023132 88.9956647 35.046868 89 35.07 90.1120368 36.5726072 91.8608781 37.4710605 93.73 37.5 95.2561865 37.5271051 96.7284047 36.9355375 97.8115125 35.8599644 98.8946203 34.7843913 99.4964505 33.3163386 99.48 31.79 99.5233602 30.2897018 98.9561208 28.8360154 97.9080835 27.7615887 96.8600462 26.687162 95.4209125 26.0839551 93.92 26.09 91.993093 26.0982535 90.1777187 26.9948713 89 28.52 88.9956647 28.543132 88.9956647 28.566868 89 28.59L89 35zM117.15 26.24C116.705215 26.131282 116.247605 26.084175 115.79 26.1 113.847551 26.2203775 112.094386 27.3053129 111.12 28.99 111.12 28.99 111.12 28.99 111.12 28.99L111.12 40.42 107.62 40.42 107.62 23.15 111 23.15 111 25.15C112.260881 23.5830634 114.190454 22.7073342 116.2 22.79 116.655393 22.7938138 117.109913 22.8305764 117.56 22.9L117.15 26.24zM128.35 22.78C131.994642 22.7597517 135.291683 24.9396467 136.70048 28.3010625 138.109276 31.6624783 137.351665 35.5417111 134.781663 38.1260706 132.211661 40.7104302 128.336709 41.4896407 124.967497 40.0995922 121.598285 38.7095437 119.400056 35.4246981 119.4 31.78 119.33659 29.3828979 120.257487 27.0643771 121.948357 25.3640605 123.639227 23.6637439 125.952582 22.7299449 128.35 22.78zM128.35 37.51C130.680209 37.616213 132.840729 36.2943698 133.807024 34.1712991 134.773319 32.0482285 134.351074 29.5508647 132.740521 27.8634779 131.129968 26.1760911 128.654978 25.6380028 126.489211 26.5043787 124.323443 27.3707546 122.902419 29.4673729 122.9 31.8 122.828839 33.2899289 123.371462 34.7439123 124.40135 35.8229321 125.431238 36.9019519 126.858374 37.5116984 128.35 37.51zM154.25 32.54C154.220826 32.54 154.192847 32.5515893 154.172218 32.5722183 154.151589 32.5928473 154.14 32.6208262 154.14 32.65 154.38023 35.5546538 156.815468 37.7851404 159.73 37.77 161.323746 37.8085711 162.86732 37.2112908 164.02 36.11 164.431491 35.7373123 165.058509 35.7373123 165.47 36.11L166.99 37.56C165.188112 39.7043457 162.49913 40.899449 159.7 40.8 157.304274 40.8443094 154.994295 39.9086708 153.304697 38.2096343 151.6151 36.5105978 150.692345 34.1954415 150.75 31.8 150.75 26.61 154.28 22.8 159.18 22.8 164.08 22.8 167.5 26.71 167.5 31.8 167.5 31.95 167.5 32.21 167.5 32.54L154.25 32.54zM154.56 29.6L163.73 29.6C163.761225 29.5976913 163.789987 29.5821852 163.809078 29.5573676 163.828168 29.53255 163.835778 29.500773 163.83 29.47 163.29266 27.384793 161.442337 25.9053495 159.29 25.84 157.048297 25.830433 155.074212 27.3140619 154.46 29.47 154.454222 29.500773 154.461832 29.53255 154.480922 29.5573676 154.500013 29.5821852 154.528775 29.5976913 154.56 29.6zM187.58 36.78C185.856628 39.3377591 182.964038 40.8591861 179.88 40.83 177.444574 40.9204049 175.078413 40.0092706 173.332597 38.3088003 171.586781 36.6083301 170.613705 34.2669616 170.64 31.83 170.5876 29.4273709 171.518975 27.1076141 173.218295 25.4082948 174.917614 23.7089754 177.237371 22.7776003 179.64 22.83 182.55617 22.8343993 185.294795 24.2315809 187.01 26.59L184.43 28.76C183.343972 27.172527 181.562714 26.2019461 179.64 26.15 176.573866 26.3232001 174.193892 28.8905361 174.253095 31.9609877 174.312297 35.0314392 176.789468 37.505123 179.86 37.56 181.54525 37.5535029 183.146996 36.8254366 184.26 35.56 184.628589 35.1584761 185.240096 35.0981867 185.68 35.42L187.58 36.78zM200.43 40.46C199.542579 40.7142188 198.623074 40.8388404 197.7 40.83 195.854267 40.9202941 194.063444 40.1878514 192.81 38.83 191.778848 37.5286536 191.278651 35.8851511 191.41 34.23L191.41 26.31 191.41 23.18 191.41 18.39 194.9 18.39 194.9 23.18 200.43 23.18 200.43 26.31 194.9 26.31 194.9 34.41C194.811661 35.1846871 194.995495 35.9659819 195.42 36.62 196.054543 37.2449411 196.920202 37.5781654 197.81 37.54 198.456343 37.5409562 199.100626 37.467132 199.73 37.32L200.43 40.46zM142.69 23.15L146.19 23.15 146.19 38.73C146.19 41.05 145.86 42.49 145.09 43.59 143.794327 45.4294119 141.669485 46.5049494 139.42 46.46 138.725597 46.4628557 138.033562 46.3788708 137.36 46.21L137.87 43.96C137.99985 43.4456875 138.481095 43.0995288 139.01 43.14 140.146835 43.2455521 141.264521 42.794752 142.01 41.93 142.564458 41.0008566 142.796477 39.9145857 142.67 38.84L142.69 23.15zM144.42 14.76C145.03725 14.7755149 145.62234 15.0385557 146.043634 15.4899418 146.464927 15.9413279 146.68704 16.5431479 146.66 17.16 146.604615 18.423453 145.539562 19.4051673 144.275788 19.3576497 143.012015 19.3101321 142.023689 18.2512112 142.063337 16.9871665 142.102986 15.7231218 143.155733 14.728222 144.42 14.76z"/>
    </g>
  </g>
</svg>
