<svg fill="none" height="28" viewBox="0 0 28 28" width="28" xmlns="http://www.w3.org/2000/svg"><g fill="#70a582"><path d="m9.41908 4.59597c-1.09615-1.09614-2.87336-1.09614-3.9695 0-1.09615 1.09615-1.09615 2.87336 0 3.9695l14.41582 14.41583c1.0961 1.0961 2.8733 1.0961 3.9695 0 1.0961-1.0962 1.0961-2.8734 0-3.9695z" stroke="#fdfcf7" stroke-linecap="round" stroke-width="3"/><path clip-rule="evenodd" d="m5.92409 21.9207c-.51036-.5104-.51036-1.3378 0-1.8482l14.41581-14.4158c.5103-.51036 1.3378-.51036 1.8482 0 .5103.51036.5103 1.33782 0 1.84818l-14.41583 14.41582c-.51036.5103-1.33782.5103-1.84818 0z" fill-rule="evenodd"/><path d="m4.86343 19.0118c-1.09615 1.0962-1.09615 2.8734 0 3.9695 1.09615 1.0962 2.87335 1.0962 3.9695 0l14.41577-14.41576c1.0962-1.09615 1.0962-2.87335 0-3.9695-1.0961-1.09615-2.8733-1.09615-3.9695 0z" stroke="#fdfcf7" stroke-linecap="round" stroke-width="3"/></g></svg>