<svg width="28" height="28" viewBox="0 0 28 28" fill="none" xmlns="http://www.w3.org/2000/svg">
<path d="M9.41908 4.59597C8.32293 3.49983 6.54572 3.49983 5.44958 4.59597C4.35343 5.69212 4.35343 7.46933 5.44958 8.56547L19.8654 22.9813C20.9615 24.0774 22.7387 24.0774 23.8349 22.9813C24.931 21.8851 24.931 20.1079 23.8349 19.0118L9.41908 4.59597Z" fill="#70A582" stroke="#FDFCF7" stroke-width="3" stroke-linecap="round"/>
<path fill-rule="evenodd" clip-rule="evenodd" d="M5.92409 21.9207C5.41373 21.4103 5.41373 20.5829 5.92409 20.0725L20.3399 5.6567C20.8502 5.14634 21.6777 5.14634 22.1881 5.6567C22.6984 6.16706 22.6984 6.99452 22.1881 7.50488L7.77227 21.9207C7.26191 22.431 6.43445 22.431 5.92409 21.9207Z" fill="#70A582"/>
<path d="M4.86343 19.0118C3.76728 20.108 3.76728 21.8852 4.86343 22.9813C5.95958 24.0775 7.73678 24.0775 8.83293 22.9813L23.2487 8.56554C24.3449 7.46939 24.3449 5.69219 23.2487 4.59604C22.1526 3.49989 20.3754 3.49989 19.2792 4.59604L4.86343 19.0118Z" fill="#70A582" stroke="#FDFCF7" stroke-width="3" stroke-linecap="round"/>
</svg>
