<svg fill="none" height="30" viewBox="0 0 30 30" width="30" xmlns="http://www.w3.org/2000/svg"><path d="m28.5518 14.5615c-1.3699 2.4748-3.2785 4.3652-5.726 5.6711-2.3378 1.2511-4.9679 1.8767-7.8902 1.8767-2.9315 0-5.56157-.6256-7.89029-1.8767-2.44744-1.3059-4.36522-3.1963-5.75332-5.6711 1.39724-2.484 3.31045-4.3789 5.73962-5.68482 2.32873-1.25112 4.96339-1.87668 7.90399-1.87668 2.9314 0 5.5615.62556 7.8902 1.87668 2.4475 1.30592 4.3561 3.20082 5.726 5.68482zm-2.589 0c-1.79-3.1415-4.6118-5.03187-8.4656-5.67113 1.1506.49315 2.0684 1.24883 2.7533 2.26703.685 1.0183 1.0274 2.153 1.0274 3.4041 0 1.2237-.3379 2.347-1.0137 3.3698-.6757 1.0228-1.5753 1.7854-2.6985 2.2876 3.8264-.6484 6.6254-2.5342 8.3971-5.6574zm-5.9999 0c0-1.379-.4954-2.5456-1.4863-3.4999-.9908-.9544-2.1758-1.43151-3.5547-1.43151-.7215 0-1.4155.15068-2.0822.45201l-.5205-1.19173c-3.8447.65752-6.65743 2.54793-8.43822 5.67113 1.77166 3.1141 4.56613 4.9999 8.38342 5.6574-1.1233-.5022-2.0205-1.2648-2.69174-2.2876-.67122-1.0228-1.00683-2.1461-1.00683-3.3698 0-.7488.13242-1.4794.39725-2.1917l1.27392.3972c-.23741.5936-.35613 1.1918-.35613 1.7945 0 1.379.49313 2.5456 1.47943 3.4999.9863.9544 2.1735 1.4315 3.5616 1.4315s2.5753-.4771 3.5616-1.4315c.9862-.9543 1.4794-2.1209 1.4794-3.4999zm-1.2329 0c0 1.0411-.3744 1.9246-1.1232 2.6506-.7489.726-1.6438 1.0891-2.6849 1.0891-1.0502 0-1.9475-.3631-2.6918-1.0891-.7442-.726-1.1164-1.6095-1.1164-2.6506 0-.4657.0776-.9041.2329-1.315l3.8903 1.767-1.8218-3.8629c.4931-.2192.9954-.3288 1.5068-.3288 1.0411 0 1.936.363 2.6849 1.0891.7488.726 1.1232 1.6095 1.1232 2.6506z" fill="#3d8f54"/></svg>