<svg fill="none" height="30" viewBox="0 0 30 30" width="30" xmlns="http://www.w3.org/2000/svg"><path clip-rule="evenodd" d="m2.34375 0h25.31245c1.2945 0 2.3438 1.04933 2.3438 2.34375v25.31245c0 1.2945-1.0493 2.3438-2.3438 2.3438h-25.31245c-1.29442 0-2.34375-1.0493-2.34375-2.3438v-25.31245c0-1.29442 1.04933-2.34375 2.34375-2.34375zm18.34335 6.71875h-3.705c-1.2508 0-2.4106.20979-3.4794.62937-1.0687.41959-2.0068 1.02521-2.8143 1.81688-.82338.82334-1.46066 1.7812-1.91192 2.8737-.45125 1.0926-.67687 2.2167-.67687 3.3726 0 2.375.62937 4.2789 1.88812 5.7118 1.25877 1.4329 2.94107 2.1494 5.04687 2.1494 1.4884 0 2.8302-.4671 4.0256-1.4013 1.1955-.9341 2.1415-2.2324 2.8382-3.895l-.3563-.2375c-.5858.9184-1.2983 1.6071-2.1375 2.0663s-1.8129.6887-2.9212.6887c-1.5359 0-2.7432-.6452-3.6219-1.9356-.8788-1.2904-1.3181-3.0281-1.3181-5.2131 0-1.7575.3443-3.139 1.0331-4.14438.6887-1.00542 1.6664-1.50812 2.9331-1.50812 1.0767 0 2.0385.34041 2.8856 1.02125s1.5082 1.62295 1.9832 2.82625h.3087z" fill="#687179" fill-rule="evenodd"/></svg>