<svg width="30" height="30" viewBox="0 0 30 30" fill="none" xmlns="http://www.w3.org/2000/svg">
<g clip-path="url(#clip0_1941_90719)">
<g filter="url(#filter0_i_1941_90719)">
<path fill-rule="evenodd" clip-rule="evenodd" d="M4.57937 0C4.04775 0 3.56459 0.308958 3.34155 0.791533L2.74594 2.08022C2.6101 2.37412 2.37412 2.6101 2.08022 2.74594L0.791534 3.34155C0.308959 3.56459 0 4.04775 0 4.57937V25.4206C0 25.9522 0.308955 26.4354 0.791524 26.6584L2.08022 27.254C2.37412 27.3899 2.6101 27.6259 2.74594 27.9198L3.34155 29.2085C3.56459 29.691 4.04775 30 4.57938 30H25.4206C25.9522 30 26.4354 29.691 26.6584 29.2085L27.254 27.9197C27.3899 27.6258 27.6258 27.3899 27.9197 27.254L29.2085 26.6584C29.691 26.4354 30 25.9522 30 25.4206V4.57938C30 4.04775 29.691 3.56459 29.2085 3.34155L27.9198 2.74594C27.6259 2.6101 27.3899 2.37412 27.254 2.08022L26.6584 0.791524C26.4354 0.308955 25.9522 0 25.4206 0H4.57937ZM24.3327 4.00002H5.83274V26H24.3327V4.00002Z" fill="#F9F9FA"/>
</g>
<path fill-rule="evenodd" clip-rule="evenodd" d="M6.4075 2.49976C6.27224 2.49976 6.13773 2.51988 6.00839 2.55947L4.0577 3.15655C3.62453 3.28914 3.28548 3.62819 3.15289 4.06136L2.55581 6.01205C2.51622 6.14139 2.49609 6.2759 2.49609 6.41117V23.5883C2.49609 23.7236 2.51622 23.8581 2.55581 23.9874L3.1529 25.9381C3.28548 26.3713 3.62453 26.7103 4.05769 26.8429L6.00838 27.44C6.13773 27.4796 6.27224 27.4998 6.40751 27.4998H23.5846C23.7199 27.4998 23.8544 27.4796 23.9838 27.44L25.9345 26.8429C26.3676 26.7103 26.7067 26.3713 26.8393 25.9381L27.4364 23.9874C27.476 23.8581 27.4961 23.7236 27.4961 23.5883V6.41117C27.4961 6.27591 27.476 6.14139 27.4364 6.01205L26.8393 4.06135C26.7067 3.62819 26.3676 3.28914 25.9345 3.15656L23.9837 2.55947C23.8544 2.51988 23.7199 2.49976 23.5846 2.49976H6.4075ZM12.2676 22.1357C13.5156 22.8237 14.9076 23.1997 16.4436 23.2637C16.6996 23.2637 17.4596 22.8157 18.7236 21.9197C19.9876 21.0237 21.0676 20.1997 21.9636 19.4477L21.8676 19.3037C21.0516 19.5917 20.3076 19.7357 19.6356 19.7357C17.8596 19.7357 16.3716 19.2317 15.1716 18.2237C13.9716 17.2157 13.0916 15.9917 12.5316 14.5517C11.9716 13.1117 11.6916 11.7437 11.6916 10.4477C11.7076 9.50366 11.8916 8.79966 12.2436 8.33566C12.5956 7.87166 13.0276 7.63966 13.5396 7.63966C14.2596 7.63966 15.0356 8.04766 15.8676 8.86366C16.6996 9.66366 17.4116 11.1117 18.0036 13.2077L18.1476 13.2557L22.0836 9.39166C21.6516 8.57566 20.8916 7.88766 19.8036 7.32766C18.7156 6.75166 17.4676 6.46366 16.0596 6.46366C15.2596 6.46366 14.2436 6.71966 13.0116 7.23166C11.7956 7.72766 10.6996 8.59966 9.72359 9.84766C8.74759 11.0797 8.25959 12.7117 8.25959 14.7437C8.25959 16.4397 8.61159 17.9197 9.31559 19.1837C10.0356 20.4477 11.0196 21.4317 12.2676 22.1357Z" fill="#F9F9FA"/>
</g>
<defs>
<filter id="filter0_i_1941_90719" x="0" y="0" width="30" height="30" filterUnits="userSpaceOnUse" color-interpolation-filters="sRGB">
<feFlood flood-opacity="0" result="BackgroundImageFix"/>
<feBlend mode="normal" in="SourceGraphic" in2="BackgroundImageFix" result="shape"/>
<feColorMatrix in="SourceAlpha" type="matrix" values="0 0 0 0 0 0 0 0 0 0 0 0 0 0 0 0 0 0 127 0" result="hardAlpha"/>
<feOffset/>
<feGaussianBlur stdDeviation="0.681818"/>
<feComposite in2="hardAlpha" operator="arithmetic" k2="-1" k3="1"/>
<feColorMatrix type="matrix" values="0 0 0 0 0 0 0 0 0 0 0 0 0 0 0 0 0 0 0.25 0"/>
<feBlend mode="normal" in2="shape" result="effect1_innerShadow_1941_90719"/>
</filter>
<clipPath id="clip0_1941_90719">
<rect width="30" height="30" fill="white"/>
</clipPath>
</defs>
</svg>
