<svg fill="none" height="30" viewBox="0 0 30 30" width="30" xmlns="http://www.w3.org/2000/svg"><path clip-rule="evenodd" d="m27.6562 0h-25.31245c-1.29442 0-2.34375 1.04933-2.34375 2.34375v25.31245c0 1.2945 1.04933 2.3438 2.34375 2.3438h25.31245c1.2945 0 2.3438-1.0493 2.3438-2.3438v-25.31245c0-1.29442-1.0493-2.34375-2.3438-2.34375zm-15.384 22.1361c1.248.688 2.64 1.064 4.176 1.128.256 0 1.016-.448 2.28-1.344s2.344-1.72 3.24-2.472l-.096-.144c-.816.288-1.56.432-2.232.432-1.776 0-3.264-.504-4.464-1.512s-2.08-2.232-2.64-3.672-.84-2.808-.84-4.104c.016-.94399.2-1.64799.552-2.11199s.784-.696 1.296-.696c.72 0 1.496.408 2.328 1.224.832.8 1.544 2.24799 2.136 4.34399l.144.048 3.936-3.86399c-.432-.816-1.192-1.504-2.28-2.064-1.088-.576-2.336-.864-3.744-.864-.8 0-1.816.256-3.048.768-1.216.496-2.312 1.368-3.28804 2.616-.976 1.23199-1.464 2.86399-1.464 4.89599 0 1.696.352 3.176 1.056 4.44.72004 1.264 1.70404 2.248 2.95204 2.952z" fill="#f9f9fa" fill-rule="evenodd"/></svg>