<svg width="30" height="30" viewBox="0 0 30 30" fill="none" xmlns="http://www.w3.org/2000/svg">
<g clip-path="url(#clip0_1941_90642)">
<g filter="url(#filter0_i_1941_90642)">
<path fill-rule="evenodd" clip-rule="evenodd" d="M3.34155 0.791533C3.56459 0.308958 4.04775 0 4.57937 0H25.4206C25.9522 0 26.4354 0.308955 26.6584 0.791524L27.254 2.08022C27.3899 2.37412 27.6259 2.6101 27.9198 2.74594L29.2085 3.34155C29.691 3.56459 30 4.04775 30 4.57938V25.4206C30 25.9522 29.691 26.4354 29.2085 26.6584L27.9197 27.254C27.6258 27.3899 27.3899 27.6258 27.254 27.9197L26.6584 29.2085C26.4354 29.691 25.9522 30 25.4206 30H4.57938C4.04775 30 3.56459 29.691 3.34155 29.2085L2.74594 27.9198C2.6101 27.6259 2.37412 27.3899 2.08022 27.254L0.791524 26.6584C0.308955 26.4354 0 25.9522 0 25.4206V4.57937C0 4.04775 0.308959 3.56459 0.791534 3.34155L2.08022 2.74594C2.37412 2.6101 2.6101 2.37412 2.74594 2.08022L3.34155 0.791533Z" fill="#70A582"/>
</g>
<g filter="url(#filter1_di_1941_90642)">
<path d="M16.4496 23.2639C14.9136 23.1999 13.5216 22.8239 12.2736 22.1359C11.0256 21.4319 10.0416 20.4479 9.32163 19.1839C8.61763 17.9199 8.26562 16.4399 8.26562 14.7439C8.26562 12.7119 8.75363 11.0799 9.72963 9.84787C10.7056 8.59987 11.8016 7.72787 13.0176 7.23187C14.2496 6.71987 15.2656 6.46387 16.0656 6.46387C17.4736 6.46387 18.7216 6.75187 19.8096 7.32787C20.8976 7.88787 21.6576 8.57587 22.0896 9.39187L18.1536 13.2559L18.0096 13.2079C17.4176 11.1119 16.7056 9.66387 15.8736 8.86387C15.0416 8.04787 14.2656 7.63987 13.5456 7.63987C13.0336 7.63987 12.6016 7.87187 12.2496 8.33587C11.8976 8.79987 11.7136 9.50387 11.6976 10.4479C11.6976 11.7439 11.9776 13.1119 12.5376 14.5519C13.0976 15.9919 13.9776 17.2159 15.1776 18.2239C16.3776 19.2319 17.8656 19.7359 19.6416 19.7359C20.3136 19.7359 21.0576 19.5919 21.8736 19.3039L21.9696 19.4479C21.0736 20.1999 19.9936 21.0239 18.7296 21.9199C17.4656 22.8159 16.7056 23.2639 16.4496 23.2639Z" fill="white"/>
</g>
</g>
<defs>
<filter id="filter0_i_1941_90642" x="0" y="0" width="30" height="30" filterUnits="userSpaceOnUse" color-interpolation-filters="sRGB">
<feFlood flood-opacity="0" result="BackgroundImageFix"/>
<feBlend mode="normal" in="SourceGraphic" in2="BackgroundImageFix" result="shape"/>
<feColorMatrix in="SourceAlpha" type="matrix" values="0 0 0 0 0 0 0 0 0 0 0 0 0 0 0 0 0 0 127 0" result="hardAlpha"/>
<feOffset/>
<feGaussianBlur stdDeviation="0.681818"/>
<feComposite in2="hardAlpha" operator="arithmetic" k2="-1" k3="1"/>
<feColorMatrix type="matrix" values="0 0 0 0 0 0 0 0 0 0 0 0 0 0 0 0 0 0 0.15 0"/>
<feBlend mode="normal" in2="shape" result="effect1_innerShadow_1941_90642"/>
</filter>
<filter id="filter1_di_1941_90642" x="6.90199" y="6.12296" width="16.5515" height="19.5273" filterUnits="userSpaceOnUse" color-interpolation-filters="sRGB">
<feFlood flood-opacity="0" result="BackgroundImageFix"/>
<feColorMatrix in="SourceAlpha" type="matrix" values="0 0 0 0 0 0 0 0 0 0 0 0 0 0 0 0 0 0 127 0" result="hardAlpha"/>
<feOffset dy="1.02273"/>
<feGaussianBlur stdDeviation="0.681818"/>
<feComposite in2="hardAlpha" operator="out"/>
<feColorMatrix type="matrix" values="0 0 0 0 0 0 0 0 0 0 0 0 0 0 0 0 0 0 0.12 0"/>
<feBlend mode="normal" in2="BackgroundImageFix" result="effect1_dropShadow_1941_90642"/>
<feBlend mode="normal" in="SourceGraphic" in2="effect1_dropShadow_1941_90642" result="shape"/>
<feColorMatrix in="SourceAlpha" type="matrix" values="0 0 0 0 0 0 0 0 0 0 0 0 0 0 0 0 0 0 127 0" result="hardAlpha"/>
<feOffset dy="1.02273"/>
<feGaussianBlur stdDeviation="0.681818"/>
<feComposite in2="hardAlpha" operator="arithmetic" k2="-1" k3="1"/>
<feColorMatrix type="matrix" values="0 0 0 0 0 0 0 0 0 0 0 0 0 0 0 0 0 0 0.15 0"/>
<feBlend mode="normal" in2="shape" result="effect2_innerShadow_1941_90642"/>
</filter>
<clipPath id="clip0_1941_90642">
<rect width="30" height="30" fill="white"/>
</clipPath>
</defs>
</svg>
