<svg height="48" viewBox="0 0 48 48" width="48" xmlns="http://www.w3.org/2000/svg"><g fill="none" fill-rule="evenodd"><rect fill="#2e2d2c" height="48" rx="3.75" width="48"/><path d="m27.172 10.75h5.928v7.714h-.494c-.7600038-1.925343-1.8176599-3.4326612-3.173-4.522s-2.8943247-1.634-4.617-1.634c-2.0266768 0-3.5909945.8043253-4.693 2.413s-1.653 3.8189859-1.653 6.631c0 3.4960175.702993 6.276323 2.109 8.341s3.3376544 3.097 5.795 3.097c1.7733422 0 3.3313266-.3673297 4.674-1.102s2.482662-1.8366593 3.42-3.306l.57.38c-1.1146722 2.6600133-2.6283238 4.7373259-4.541 6.232s-4.0596548 2.242-6.441 2.242c-3.3693502 0-6.0609899-1.1463219-8.075-3.439s-3.021-5.338981-3.021-9.139c0-1.8493426.3609964-3.6479913 1.083-5.396s1.7416601-3.2806601 3.059-4.598c1.2920065-1.266673 2.7929915-2.2356633 4.503-2.907 1.7100086-.6713367 3.5656567-1.007 5.567-1.007z" fill="#f9f9fa" fill-rule="nonzero"/></g></svg>