<svg height="48" viewBox="0 0 48 48" width="48" xmlns="http://www.w3.org/2000/svg"><path d="m3.75 0h40.5c2.0710678 0 3.75 1.67893219 3.75 3.75v40.5c0 2.0710678-1.6789322 3.75-3.75 3.75h-40.5c-2.07106781 0-3.75-1.6789322-3.75-3.75v-40.5c0-2.07106781 1.67893219-3.75 3.75-3.75zm23.422 10.75c-2.0013433 0-3.8569914.3356633-5.567 1.007-1.7100085.6713367-3.2109935 1.640327-4.503 2.907-1.3173399 1.3173399-2.3369964 2.8499913-3.059 4.598s-1.083 3.5466574-1.083 5.396c0 3.800019 1.0069899 6.8463219 3.021 9.139s4.7056498 3.439 8.075 3.439c2.3813452 0 4.5283238-.7473259 6.441-2.242s3.4263278-3.5719867 4.541-6.232l-.57-.38c-.937338 1.4693407-2.0773266 2.5713297-3.42 3.306s-2.9006578 1.102-4.674 1.102c-2.4573456 0-4.388993-1.032323-5.795-3.097s-2.109-4.8449825-2.109-8.341c0-2.8120141.5509945-5.0223253 1.653-6.631s2.6663232-2.413 4.693-2.413c1.7226753 0 3.2616599.5446612 4.617 1.634s2.4129962 2.596657 3.173 4.522h.494v-7.714z" fill="#949391" fill-rule="evenodd"/></svg>