<svg fill="none" height="40" viewBox="0 0 40 40" width="40" xmlns="http://www.w3.org/2000/svg"><path d="m3.36569 12.5041c-.3-.4-.6-1.1-1.2-2-.3-.5-1.200004-1.50005-1.500004-1.90005-.2-.4-.200001-.6-.100001-1 .1-.6.699995-1.1 1.399995-1.1.5 0 1.00001.4 1.40001.7.2.2.5.6.7.8s.19999.3.39999.5c.2.3.30001.5.20001.1-.1-.5-.2-1.3-.4-2.1-.1-.6-.20001-.7-.30001-1.1-.1-.5-.19999-.8-.29999-1.3-.1-.3-.2-1.1-.3-1.5-.1-.5-.1-1.4.3-1.799998.3-.3.89999-.4 1.29999-.2.5.3.80001.999998.90001 1.299998.2.5.4 1.2.5 2 .2 1 .5 2.5.5 2.8 0-.4-.1-1.1 0-1.5.1-.3.3-.7.7-.8.3-.1.59999-.1.89999-.1.3.1.60001.3.80001.5.4.6.4 1.9.4 1.8.1-.4.09999-1.2.29999-1.6.10002-.2.50002-.4.70002-.5.3-.1.7-.1 1 0 .2 0 .6.3.7.5.2.3.3 1.3.4 1.7 0 .1.1-.4.3-.7.4-.6 1.8-.8 1.9.6v1.1 1.2c0 .4-.1 1.30005-.2 1.70005-.1.3-.4 1-.7 1.4 0 0-1.1 1.2-1.2 1.8s-.1.6-.1 1 .1.9.1.9-.8.1-1.2 0-.9.2-1-.1c-.2-.3-.5-.3-.70002 0-.2.4-.7.1-1.1.1-.7.1-2.09999 0-3.09999 0 0 0 .2-1-.2-1.4-.3-.3-.80001-.8-1.10001-1.1z" fill="#cc9245"/><path d="m2.16569 10.5041c.6.9.9 1.6 1.2 2l1.09999.7 1.10001 1.1c.4.4.2 1.4.2 1.4h3.09999 2.80002 1.2s-.1-.5-.1-.9v-.0001c0-.3999 0-.4.1-.9999.1-.6 1.2-1.8 1.2-1.8.3-.4.6-1.1.7-1.4.1-.4.2-1.30005.2-1.70005v-1.2-1.1c-.1-1.4-1.5-1.2-1.9-.6-.2.3-.3.8-.3.7-.1-.4-.2-1.4-.4-1.7-.1-.2-.5-.5-.7-.5-.3-.1-.7-.1-1 0-.2.1-.6.3-.70002.5-.19999.4-.19999 1.2-.29999 1.6 0 .1 0-1.2-.4-1.8-.2-.2-.5-.4-.80001-.5-.3 0-.59999 0-.89999.1-.4.1-.6.5-.7.8-.1.4 0 1.1 0 1.5 0-.3-.3-1.79998-.5-2.79998v-.00002c-.1-.8-.3-1.5-.5-2-.1-.3-.40001-.999998-.90001-1.299998-.4-.2-.99999-.1-1.29999.2-.4.399998-.4 1.299998-.3 1.799998.1.4.2 1.2.3 1.5.1.5.19999.8.29999 1.3.1.4.20001.5.30001 1.1.2.8.3 1.6.4 2.1.1.4-.00001.2-.20001-.1-.2-.2-.19999-.3-.39999-.5s-.5-.6-.7-.8c-.4-.3-.90001-.7-1.40001-.7-.7 0-1.299995.5-1.399995 1.1-.1.4-.099999.6.100001 1 .3.4 1.200004 1.40005 1.500004 1.90005z" stroke="#fff" stroke-linecap="round" stroke-linejoin="round" stroke-width=".75"/></svg>