<svg fill="none" height="40" viewBox="0 0 40 40" width="40" xmlns="http://www.w3.org/2000/svg"><path clip-rule="evenodd" d="m3.57886 16.0339c-.07092.0741-.14525.1452-.2228.213-.01864.0163-.03745.0324-.05646.0483-.29015.2097-.60768.3784-.9437.5017-.40488.0804-.81869.1069-1.23062.0786l-.0021-.0001-.07313 1.06c.33482.0231.67066.0167 1.00367-.0188.18566-.0198.37043-.0487.55365-.0866l.03599-.0075.03461-.0123c.45015-.1603.87484-.3847 1.26097-.6662l.01337-.0097.01273-.0106c.05856-.0485.11579-.0984.17167-.1497.03557-.0327.07059-.0659.10506-.0996.01442-.0141.02875-.0283.04298-.0426.18671-.1876.35632-.391.50705-.6076.00529-.0077.01057-.0153.01582-.0229.00178-.0026.00356-.0052.00533-.0078.00292.0045.00586.0089.0088.0134l.0028.0042c.15216.2302.32339.4477.51208.6501.00436.0047.00874.0094.01312.0141.03824.0407.07719.0807.11683.1202.04471.0445.09029.0882.13674.131l.01945.0179.02114.016c.38856.2926.82527.5151 1.29042.6573l.02334.0072.02389.005c.1909.0397.38349.0696.57701.0896.3331.0345.66896.0399 1.00373.0157l-.07637-1.0597-.00209.0001c-.42234.0303-.84679.003-1.26171-.081-.32984-.1037-.64009-.2616-.91802-.4673-.01744-.0163-.03472-.0327-.05184-.0493-.07226-.0701-.14169-.1428-.20814-.218-.05305-.06-.1042-.1216-.1534-.1847-.02714-.0347-.05368-.07-.07962-.1056-.073-.1004-.15845-.1916-.25289-.2703-.06946-.0579-.14378-.1091-.22159-.1523v-5.84676h1.0625v-1.04125h-1.0625v-4.82268c.07856-.0429.15361-.09394.22375-.15186.09475-.07822.18052-.16897.25384-.26907.01959-.02675.03952-.05326.05979-.07952.05435-.07043.1111-.13907.17014-.2058.06446-.07284.13167-.14339.20151-.21149.02002-.01952.04024-.03883.06069-.05794.27454-.20797.58393-.36538.91368-.46486.40499-.08359.81913-.11429 1.23207-.09132l.05902-1.06086c-.33487-.01861-.67078-.00835-1.00324.03052-.17699.02069-.35312.04949-.52782.08636l-.02029.00428-.01989.00584c-.47081.13843-.91182.3631-1.30059.66257l-.0188.01448-.01743.01611c-.04634.04279-.09181.0864-.13642.13081-.04645.04625-.09196.09336-.1365.1413-.18467.19879-.35273.41193-.50268.63721-.00123.00186-.00247.00371-.0037.00557-.00378.0057-.00756.01141-.01132.01713-.00317-.00463-.00635-.00926-.00953-.01389-.00369-.00534-.00738-.01068-.01109-.01601-.15073-.21665-.32035-.42003-.50707-.60767-.00735-.00739-.01473-.01476-.02214-.0221-.04126-.04089-.08334-.08103-.12622-.12037-.05577-.05117-.11289-.101-.17133-.14945l-.01052-.00872-.01095-.00817c-.38643-.28816-.81519-.51467-1.27102-.67148l-.03102-.01067-.03211-.00677c-.1747-.03687-.35083-.06567-.52782-.08636-.33259-.03889-.66824-.04916-1.00324-.03052l.05901 1.06086c.40894-.02275.81906.00714 1.2203.08891.33623.11907.65295.28745.93977.49963.02191.01831.04358.03688.065.0557.07453.06548.14607.13401.21445.20535.0563.05874.11046.11938.16239.18182.02277.02737.04511.05509.06701.08314.07658.09807.16488.18757.26161.26508.06845.05485.14111.10368.21683.14531v4.8296h-1.0625v1.04125h1.0625v5.86026c-.07573.0416-.1484.0905-.21685.1453-.09673.0775-.18503.1671-.26161.2651-.02757.0353-.05583.0701-.08476.1043-.04588.0543-.09346.1072-.14267.1586zm-.29411-5.5336v4.3648c-.09971.0932-.18911.1912-.26662.2905-.09911.1269-.21074.2442-.33354.35-.18698.1316-.38877.2407-.60118.325-.29398.0519-.59332.0677-.8914.0472-.264591-.0183-.525593.0693-.725592.2435-.2.1742-.322613.4207-.340867.6853l-.0731288 1.0599c-.0182541.2646.0693468.5256.2435308.7256s.420683.3226.685271.3409c.612376.0422 1.227646.0006 1.828746-.1238l.03598-.0074c.04511-.0093.08951-.0218.13291-.0372l.03461-.0123c.54067-.1926 1.05076-.4621 1.51453-.8002l.01337-.0097c.01678-.0122.03318-.025.04917-.0383l.01272-.0105c.06331-.0525.12536-.1063.18611-.1614.04462.0438.08995.0869.136.1294l.01945.0179c.02439.0225.04989.0438.0764.0638l.02112.0159c.48161.3627 1.02291.6384 1.59944.8148l.02334.0071c.02927.009.05894.0166.0889.0228l.0239.005c.61005.1269 1.23475.1685 1.85625.1238.26453-.0191.51065-.1425.68423-.343.17357-.2005.26037-.4618.24131-.7263l-.07637-1.0598c-.03969-.5508-.51843-.9652-1.06928-.9255-.31444.0226-.63039.0047-.94007-.0532-.18827-.0642-.36653-.1546-.5295-.2687-.11895-.1157-.22751-.2412-.32469-.3748-.08141-.1119-.17646-.221-.28317-.3235v-4.3576h.0625c.55228 0 1-.4477 1-.99996v-1.04125c0-.55229-.44772-1.00001-1-1.00001h-.0625v-3.33016c.10702-.102.20247-.21077.28432-.32252.09875-.13482.20893-.2614.32952-.37826.15811-.11333.3327-.20174.51767-.2621.30562-.05914.61745-.08033.92842-.06303.55143.03067 1.02332-.39148 1.054-.94292l.05902-1.06085c.03067-.551437-.39148-1.0233293-.94291-1.0540063-.60111-.0334406-1.204.0125823-1.79307.1368753l-.02028.004281c-.02544.005368-.05067.011726-.07561.01906l-.01989.005848c-.58961.173355-1.14191.454713-1.62877.829752m0 0-.0188.01448c-.02359.01817-.04635.03738-.06822.05758l-.01744.0161c-.04575.04226-.09081.08518-.13517.12876-.06076-.05512-.12281-.10895-.18613-.16144l-.01053-.00872c-.0132-.01095-.02668-.02155-.04043-.0318l-.01095-.00817c-.46928-.349938-.98997-.625017-1.54351-.815439l-.03103-.010674c-.0389-.013382-.07859-.024351-.11884-.032844l-.03211-.006774c-.58906-.1242927-1.19195-.1703159-1.79306-.1368753-.55143.030677-.9735855.5025693-.9429087 1.0540063l.0590167 1.06085c.014732.26481.134054.51292.331718.68975.197663.17683.457477.2679.722284.25317.29963-.01667.60005.00239.89495.05671.20987.08058.40848.18804.59083.31975.12512.10713.23874.22616.33943.3551.07751.09925.1669.19723.2666.29044v3.33407h-.0625c-.55228 0-1 .44772-1 1.00001v1.04125c0 .55226.44772.99996 1 .99996h.0625" fill="#fdfcf7" fill-rule="evenodd"/><g fill="#5a926d"><path d="m4.28475 3.13596v12.73934h1.05187v-12.73934z"/><path d="m3.22225 8.45908v1.04126h3.17687v-1.04126h-1.58843z"/><path clip-rule="evenodd" d="m2.3559 16.7969c-.40557.0805-.8201.107-1.23272.0785l-.07313 1.06c.52148.0359 1.04544.0005 1.55732-.1054l.03599-.0075.03461-.0123c.45015-.1603.87484-.3847 1.26097-.6662l.01337-.0097.01273-.0106c.58892-.4882 1.0445-1.1177 1.32417-1.8297l-.05817-.0229c-.51405-.2019-1.08484.0646-1.42475.4999-.14943.1914-.31912.3672-.50669.5242-.29015.2097-.60768.3784-.9437.5017z" fill-rule="evenodd"/><path clip-rule="evenodd" d="m5.60332 17.1265c-.55427-.5112-.9853-1.1415-1.26064-1.8434l.05818-.0228c.51414-.2017 1.08537.0628 1.41025.5094.14585.2005.31082.3873.493.5576.27793.2057.58818.3636.91801.4673.41561.0841.84078.1114 1.26381.0809l.07636 1.0597c-.52925.0382-1.06123.0027-1.58074-.1053l-.02389-.005-.02333-.0072c-.46515-.1422-.90186-.3647-1.29043-.6573l-.02113-.016z" fill-rule="evenodd"/><path clip-rule="evenodd" d="m1.07838 1.04369c.51327-.02855 1.02807.01074 1.53106.11688l.0321.00677.03103.01067c.45582.15681.88459.38332 1.27101.67148l.01096.00817.01052.00872c.58892.48823 1.0445 1.11775 1.32417 1.82976l-.05817.02285c-.51405.20192-1.08484-.0646-1.42475-.49989-.15001-.19209-.32043-.36854-.50886-.52601-.28681-.21218-.60353-.38056-.93977-.49963-.40123-.08177-.81135-.11166-1.22029-.08891z" fill-rule="evenodd"/><path clip-rule="evenodd" d="m6.30634 2.66073c-.18149.16966-.34615.35547-.49212.55475-.32636.44555-.89942.70592-1.4122.50078l-.05803-.02321c.27836-.69582.7085-1.32074 1.25906-1.8292l.01744-.01611.0188-.01448c.38877-.29947.82978-.52414 1.30059-.66257l.01989-.00584.02029-.00428c.50299-.10614 1.01779-.14543 1.53106-.11688l-.05902 1.06086c-.41294-.02297-.82709.00773-1.23207.09132-.32975.09948-.63915.25689-.91369.46486z" fill-rule="evenodd"/><path clip-rule="evenodd" d="m4.13485 15.4554c.0297-.0213.06007-.0415.09103-.0604.01943-.0119.03909-.0234.05897-.0343v-5.86027h-1.0625v-1.04125h1.0625v-4.8296c-.02097-.01152-.0417-.0236-.06217-.0362-.02985-.01838-.05916-.03789-.08783-.05843-.12306-.08817-.23455-.19552-.32844-.31575-.15001-.1921-.32043-.36854-.50886-.52601-.28681-.21218-.60353-.38056-.93977-.49964-.40123-.08176-.81135-.11165-1.22029-.0889l-.05902-1.06086c.04995-.00278.09991-.00492.14988-.00641.46348-.01387.92714.02748 1.38119.12328l.0321.00678.03103.01067c.45582.15681.88458.38332 1.27101.67148l.01096.00817.01052.00872c.28408.2355.53712.50388.75437.79854.03177.04309.06278.08675.09301.13095.02944-.04475.05959-.08903.09044-.13282.20393-.28946.43844-.55749.70017-.79921l.01744-.0161.0188-.01448c.38877-.29948.82978-.52414 1.30059-.66257l.01989-.00585.02028-.00428c.45405-.0958.91771-.13715 1.38119-.12328.04997.00149.09993.00363.14988.00641l-.05902 1.06086c-.41294-.02298-.82709.00773-1.23207.09132-.32975.09948-.63915.25689-.91369.46485-.1815.16967-.34615.35547-.49213.55476-.09191.12548-.20339.23628-.32759.32612-.02512.01817-.05076.03549-.07686.05189-.024.01509-.0484.02941-.07314.04291v4.82268h1.0625v1.04125h-1.0625v5.84677c.0254.0141.05042.0291.07503.0448.02546.0163.05047.0335.07497.0515.12306.0903.23345.2011.32449.3263.14585.2005.31082.3873.493.5576.27793.2057.58818.3636.91801.4673.41561.0841.84078.1114 1.26381.0809l.07636 1.0597c-.00001 0 .00002 0 0 0-.04988.0036-.09983.0066-.14975.0089-.4797.0219-.96046-.0164-1.43099-.1142l-.02389-.005-.02333-.0072c-.46515-.1422-.90186-.3647-1.29043-.6573l-.02113-.016-.01945-.0179c-.26206-.2417-.49657-.51-.70011-.7999-.0308-.0439-.06089-.0883-.09027-.1331-.03024.0442-.06127.0879-.09306.1311-.21735.2949-.47056.5635-.75484.7991l-.01273.0106-.01337.0097c-.38613.2815-.81082.5059-1.26097.6662l-.03462.0123-.03598.0075c-.4629.0957-.93566.1339-1.40754.1137-.04994-.0021-.09988-.0049-.14978-.0083l.07313-1.06c.41262.0285.82715.002 1.23272-.0785.33601-.1233.65355-.292.9437-.5017.18757-.157.35726-.3328.50669-.5242.09389-.1202.2054-.2276.32846-.3157zm0-.1801v-5.62487h-.9125c-.08285 0-.15-.06715-.15-.15v-1.04125c0-.08284.06715-.15.15-.15h.9125v-4.59421c-.17164-.10742-.32443-.24691-.44667-.40345-.1426-.18262-.30449-.35045-.48341-.50038-.27113-.20004-.57004-.35928-.88723-.47269-.38536-.07762-.7791-.10588-1.17172-.08403-.03972.00221-.07869-.01145-.10834-.03798-.02965-.02652-.047548-.06374-.049758-.10346l-.059017-1.06086c-.004602-.082716.058722-.153499.141435-.158101.52645-.029287 1.05446.01102 1.57036.119871l.03211.00678c.00604.00127.01199.00292.01783.00493l.03102.01067c.47048.16185.91303.39565 1.31189.69307l.01715.01279.01039.00887c.28035.23241.53145.49582.749.78427.20302-.28223.43452-.5442.69149-.78152l.0273-.02522.01917-.01401c.40349-.3108.86118-.54397 1.34982-.68764l.03114-.00915.02038-.00384c.5159-.108851 1.04391-.149158 1.57036-.119871.08271.004602.14604.075385.14143.158101l-.05901 1.06086c-.0046.08271-.07539.14604-.1581.14144-.39774-.02213-.79664.00715-1.18681.08709-.30784.09369-.59684.24066-.85387.43422-.1724.16182-.32893.33881-.46787.52849-.12048.16449-.27441.30868-.4486.41779v4.58717h.9125c.08284 0 .15.06716.15.15v1.04125c0 .08285-.06716.15-.15.15h-.9125v5.61197c.17325.11.32616.2547.44579.4191.13859.1906.29512.3682.46784.5304.26066.1917.55096.3395.85938.4373.39982.0803.80869.1061 1.21552.0768.08262-.006.15443.0562.16039.1388l.07636 1.0598c.00286.0396-.01016.0788-.03619.1089-.02604.0301-.06296.0486-.10264.0514-.54309.0392-1.08898.0028-1.62206-.1081l-.03742-.0078-.02315-.0077c-.48185-.1474-.93425-.3779-1.33677-.681l-.02114-.0159c-.00397-.003-.00779-.0062-.01145-.0096l-.01945-.0179c-.25732-.2373-.48886-.4996-.69155-.7823-.21762.2886-.46883.5522-.74931.7847l-.01994.0165-.01353.0095c-.39778.29-.83528.5212-1.299.6863l-.03462.0123c-.00651.0024-.01317.0042-.01994.0056l-.03598.0075c-.52527.1086-1.06292.145-1.59804.1081-.03969-.0027-.07666-.0211-.102788-.0511s-.039268-.0692-.03653-.1089l.073129-1.0599c.005702-.0827.077319-.1451.159969-.1394.3955.0273.79279.0025 1.18169-.0737.31741-.1175.61753-.2774.89222-.4752.17782-.1494.33878-.3164.48065-.4981.12225-.1565.27504-.296.44669-.4035z" fill-rule="evenodd"/></g></svg>