<svg width="40" height="40" viewBox="0 0 40 40" fill="none" xmlns="http://www.w3.org/2000/svg">
<path fill-rule="evenodd" clip-rule="evenodd" d="M3.57886 16.0339C3.50794 16.108 3.43361 16.1791 3.35606 16.2469C3.33742 16.2632 3.31861 16.2793 3.2996 16.2952C3.00945 16.5049 2.69192 16.6736 2.3559 16.7969C1.95102 16.8773 1.53721 16.9038 1.12528 16.8755L1.12318 16.8754L1.05005 17.9354C1.38487 17.9585 1.72071 17.9521 2.05372 17.9166C2.23938 17.8968 2.42415 17.8679 2.60737 17.83L2.64336 17.8225L2.67797 17.8102C3.12812 17.6499 3.55281 17.4255 3.93894 17.144L3.95231 17.1343L3.96504 17.1237C4.0236 17.0752 4.08083 17.0253 4.13671 16.974C4.17228 16.9413 4.2073 16.9081 4.24177 16.8744C4.25619 16.8603 4.27052 16.8461 4.28475 16.8318C4.47146 16.6442 4.64107 16.4408 4.7918 16.2242C4.79709 16.2165 4.80237 16.2089 4.80762 16.2013C4.8094 16.1987 4.81118 16.1961 4.81295 16.1935C4.81587 16.198 4.81881 16.2024 4.82175 16.2069L4.82455 16.2111C4.97671 16.4413 5.14794 16.6588 5.33663 16.8612C5.34099 16.8659 5.34537 16.8706 5.34975 16.8753C5.38799 16.916 5.42694 16.956 5.46658 16.9955C5.51129 17.04 5.55687 17.0837 5.60332 17.1265L5.62277 17.1444L5.64391 17.1604C6.03247 17.453 6.46918 17.6755 6.93433 17.8177L6.95767 17.8249L6.98156 17.8299C7.17246 17.8696 7.36505 17.8995 7.55857 17.9195C7.89167 17.954 8.22753 17.9594 8.5623 17.9352L8.48593 16.8755L8.48384 16.8756C8.0615 16.9059 7.63705 16.8786 7.22213 16.7946C6.89229 16.6909 6.58204 16.533 6.30411 16.3273C6.28667 16.311 6.26939 16.2946 6.25227 16.278C6.18001 16.2079 6.11058 16.1352 6.04413 16.06C5.99108 16 5.93993 15.9384 5.89073 15.8753C5.86359 15.8406 5.83705 15.8053 5.81111 15.7697C5.73811 15.6693 5.65266 15.5781 5.55822 15.4994C5.48876 15.4415 5.41444 15.3903 5.33663 15.3471V9.50034H6.39913V8.45909H5.33663V3.63641C5.41519 3.59351 5.49024 3.54247 5.56038 3.48455C5.65513 3.40633 5.7409 3.31558 5.81422 3.21548C5.83381 3.18873 5.85374 3.16222 5.87401 3.13596C5.92836 3.06553 5.98511 2.99689 6.04415 2.93016C6.10861 2.85732 6.17582 2.78677 6.24566 2.71867C6.26568 2.69915 6.2859 2.67984 6.30635 2.66073C6.58089 2.45276 6.89028 2.29535 7.22003 2.19587C7.62502 2.11228 8.03916 2.08158 8.4521 2.10455L8.51112 1.04369C8.17625 1.02508 7.84034 1.03534 7.50788 1.07421C7.33089 1.0949 7.15476 1.1237 6.98006 1.16057L6.95977 1.16485L6.93988 1.17069C6.46907 1.30912 6.02806 1.53379 5.63929 1.83326L5.62049 1.84774L5.60306 1.86385C5.55672 1.90664 5.51125 1.95025 5.46664 1.99466C5.42019 2.04091 5.37468 2.08802 5.33014 2.13596C5.14547 2.33475 4.97741 2.54789 4.82746 2.77317C4.82623 2.77503 4.82499 2.77688 4.82376 2.77874C4.81998 2.78444 4.8162 2.79015 4.81244 2.79587C4.80927 2.79124 4.80609 2.78661 4.80291 2.78198C4.79922 2.77664 4.79553 2.7713 4.79182 2.76597C4.64109 2.54932 4.47147 2.34594 4.28475 2.1583C4.2774 2.15091 4.27002 2.14354 4.26261 2.1362C4.22135 2.09531 4.17927 2.05517 4.13639 2.01583C4.08062 1.96466 4.0235 1.91483 3.96506 1.86638L3.95454 1.85766L3.94359 1.84949C3.55716 1.56133 3.1284 1.33482 2.67257 1.17801L2.64155 1.16734L2.60944 1.16057C2.43474 1.1237 2.25861 1.0949 2.08162 1.07421C1.74903 1.03532 1.41338 1.02505 1.07838 1.04369L1.13739 2.10455C1.54633 2.0818 1.95645 2.11169 2.35769 2.19346C2.69392 2.31253 3.01064 2.48091 3.29746 2.69309C3.31937 2.7114 3.34104 2.72997 3.36246 2.74879C3.43699 2.81427 3.50853 2.8828 3.57691 2.95414C3.63321 3.01288 3.68737 3.07352 3.7393 3.13596C3.76207 3.16333 3.78441 3.19105 3.80631 3.2191C3.88289 3.31717 3.97119 3.40667 4.06792 3.48418C4.13637 3.53903 4.20903 3.58786 4.28475 3.62949V8.45909H3.22225V9.50034H4.28475V15.3606C4.20902 15.4022 4.13635 15.4511 4.0679 15.5059C3.97117 15.5834 3.88287 15.673 3.80629 15.771C3.77872 15.8063 3.75046 15.8411 3.72153 15.8753C3.67565 15.9296 3.62807 15.9825 3.57886 16.0339ZM3.28475 10.5003V14.8651C3.18504 14.9583 3.09564 15.0563 3.01813 15.1556C2.91902 15.2825 2.80739 15.3998 2.68459 15.5056C2.49761 15.6372 2.29582 15.7463 2.08341 15.8306C1.78943 15.8825 1.49009 15.8983 1.19201 15.8778C0.927419 15.8595 0.666417 15.9471 0.466418 16.1213C0.266418 16.2955 0.143805 16.542 0.125551 16.8066L0.0524222 17.8665C0.0341681 18.1311 0.121769 18.3921 0.295953 18.5921C0.470137 18.7921 0.716636 18.9147 0.981224 18.933C1.5936 18.9752 2.20887 18.9336 2.80997 18.8092L2.84595 18.8018C2.89106 18.7925 2.93546 18.78 2.97886 18.7646L3.01347 18.7523C3.55414 18.5597 4.06423 18.2902 4.528 17.9521L4.54137 17.9424C4.55815 17.9302 4.57455 17.9174 4.59054 17.9041L4.60326 17.8936C4.66657 17.8411 4.72862 17.7873 4.78937 17.7322C4.83399 17.776 4.87932 17.8191 4.92537 17.8616L4.94482 17.8795C4.96921 17.902 4.99471 17.9233 5.02122 17.9433L5.04234 17.9592C5.52395 18.3219 6.06525 18.5976 6.64178 18.774L6.66512 18.7811C6.69439 18.7901 6.72406 18.7977 6.75402 18.8039L6.77792 18.8089C7.38797 18.9358 8.01267 18.9774 8.63417 18.9327C8.8987 18.9136 9.14482 18.7902 9.3184 18.5897C9.49197 18.3892 9.57877 18.1279 9.55971 17.8634L9.48334 16.8036C9.44365 16.2528 8.96491 15.8384 8.41406 15.8781C8.09962 15.9007 7.78367 15.8828 7.47399 15.8249C7.28572 15.7607 7.10746 15.6703 6.94449 15.5562C6.82554 15.4405 6.71698 15.315 6.6198 15.1814C6.53839 15.0695 6.44334 14.9604 6.33663 14.8579V10.5003H6.39913C6.95141 10.5003 7.39913 10.0526 7.39913 9.50034V8.45909C7.39913 7.9068 6.95141 7.45908 6.39913 7.45908H6.33663V4.12892C6.44365 4.02692 6.5391 3.91815 6.62095 3.8064C6.7197 3.67158 6.82988 3.545 6.95047 3.42814C7.10858 3.31481 7.28317 3.2264 7.46814 3.16604C7.77376 3.1069 8.08559 3.08571 8.39656 3.10301C8.94799 3.13368 9.41988 2.71153 9.45056 2.16009L9.50958 1.09924C9.54025 0.547803 9.1181 0.0759107 8.56667 0.0452337C7.96556 0.0117931 7.36267 0.057816 6.7736 0.182109L6.75332 0.18639C6.72788 0.191758 6.70265 0.198116 6.67771 0.20545L6.65782 0.211298C6.06821 0.384653 5.51591 0.666011 5.02905 1.04105M5.02905 1.04105L5.01025 1.05553C4.98666 1.0737 4.9639 1.09291 4.94203 1.11311L4.92459 1.12921C4.87884 1.17147 4.83378 1.21439 4.78942 1.25797C4.72866 1.20285 4.66661 1.14902 4.60329 1.09653L4.59276 1.08781C4.57956 1.07686 4.56608 1.06626 4.55233 1.05601L4.54138 1.04784C4.0721 0.697902 3.55141 0.422823 2.99787 0.232401L2.96684 0.221727C2.92794 0.208345 2.88825 0.197376 2.848 0.188883L2.81589 0.182109C2.22683 0.0578163 1.62394 0.0117931 1.02283 0.0452337C0.4714 0.0759107 0.0492445 0.547803 0.0799213 1.09924L0.138938 2.16009C0.15367 2.4249 0.272992 2.67301 0.470656 2.84984C0.668319 3.02667 0.928133 3.11774 1.19294 3.10301C1.49257 3.08634 1.79299 3.1054 2.08789 3.15972C2.29776 3.2403 2.49637 3.34776 2.67872 3.47947C2.80384 3.5866 2.91746 3.70563 3.01815 3.83457C3.09566 3.93382 3.18505 4.0318 3.28475 4.12501V7.45908H3.22225C2.66997 7.45908 2.22225 7.9068 2.22225 8.45909V9.50034C2.22225 10.0526 2.66997 10.5003 3.22225 10.5003H3.28475" fill="#FDFCF7"/>
<path d="M4.28475 3.13596V15.8753H5.33662V3.13596H4.28475Z" fill="#5A926D"/>
<path d="M3.22225 8.45908V9.50034H6.39912V8.45908H4.81069H3.22225Z" fill="#5A926D"/>
<path fill-rule="evenodd" clip-rule="evenodd" d="M2.3559 16.7969C1.95033 16.8774 1.5358 16.9039 1.12318 16.8754L1.05005 17.9354C1.57153 17.9713 2.09549 17.9359 2.60737 17.83L2.64336 17.8225L2.67797 17.8102C3.12812 17.6499 3.55281 17.4255 3.93894 17.144L3.95231 17.1343L3.96504 17.1237C4.55396 16.6355 5.00954 16.006 5.28921 15.294L5.23104 15.2711C4.71699 15.0692 4.1462 15.3357 3.80629 15.771C3.65686 15.9624 3.48717 16.1382 3.2996 16.2952C3.00945 16.5049 2.69192 16.6736 2.3559 16.7969Z" fill="#5A926D"/>
<path fill-rule="evenodd" clip-rule="evenodd" d="M5.60332 17.1265C5.04905 16.6153 4.61802 15.985 4.34268 15.2831L4.40086 15.2603C4.915 15.0586 5.48623 15.3231 5.81111 15.7697C5.95696 15.9702 6.12193 16.157 6.30411 16.3273C6.58204 16.533 6.89229 16.6909 7.22212 16.7946C7.63773 16.8787 8.0629 16.906 8.48593 16.8755L8.56229 17.9352C8.03304 17.9734 7.50106 17.9379 6.98155 17.8299L6.95766 17.8249L6.93433 17.8177C6.46918 17.6755 6.03247 17.453 5.6439 17.1604L5.62277 17.1444L5.60332 17.1265Z" fill="#5A926D"/>
<path fill-rule="evenodd" clip-rule="evenodd" d="M1.07838 1.04369C1.59165 1.01514 2.10645 1.05443 2.60944 1.16057L2.64154 1.16734L2.67257 1.17801C3.12839 1.33482 3.55716 1.56133 3.94358 1.84949L3.95454 1.85766L3.96506 1.86638C4.55398 2.35461 5.00956 2.98413 5.28923 3.69614L5.23106 3.71899C4.71701 3.92091 4.14622 3.65439 3.80631 3.2191C3.6563 3.02701 3.48588 2.85056 3.29745 2.69309C3.01064 2.48091 2.69392 2.31253 2.35768 2.19346C1.95645 2.11169 1.54633 2.0818 1.13739 2.10455L1.07838 1.04369Z" fill="#5A926D"/>
<path fill-rule="evenodd" clip-rule="evenodd" d="M6.30634 2.66073C6.12485 2.83039 5.96019 3.0162 5.81422 3.21548C5.48786 3.66103 4.9148 3.9214 4.40202 3.71626L4.34399 3.69305C4.62235 2.99723 5.05249 2.37231 5.60305 1.86385L5.62049 1.84774L5.63929 1.83326C6.02806 1.53379 6.46907 1.30912 6.93988 1.17069L6.95977 1.16485L6.98006 1.16057C7.48305 1.05443 7.99785 1.01514 8.51112 1.04369L8.4521 2.10455C8.03916 2.08158 7.62501 2.11228 7.22003 2.19587C6.89028 2.29535 6.58088 2.45276 6.30634 2.66073Z" fill="#5A926D"/>
<path fill-rule="evenodd" clip-rule="evenodd" d="M4.13485 15.4554C4.16455 15.4341 4.19492 15.4139 4.22588 15.395C4.24531 15.3831 4.26497 15.3716 4.28485 15.3607V9.50043H3.22235V8.45918H4.28485V3.62958C4.26388 3.61806 4.24315 3.60598 4.22268 3.59338C4.19283 3.575 4.16352 3.55549 4.13485 3.53495C4.01179 3.44678 3.9003 3.33943 3.80641 3.2192C3.6564 3.0271 3.48598 2.85066 3.29755 2.69319C3.01074 2.48101 2.69402 2.31263 2.35778 2.19355C1.95655 2.11179 1.54643 2.0819 1.13749 2.10465L1.07847 1.04379C1.12842 1.04101 1.17838 1.03887 1.22835 1.03738C1.69183 1.02351 2.15549 1.06486 2.60954 1.16066L2.64164 1.16744L2.67267 1.17811C3.12849 1.33492 3.55725 1.56143 3.94368 1.84959L3.95464 1.85776L3.96516 1.86648C4.24924 2.10198 4.50228 2.37036 4.71953 2.66502C4.7513 2.70811 4.78231 2.75177 4.81254 2.79597C4.84198 2.75122 4.87213 2.70694 4.90298 2.66315C5.10691 2.37369 5.34142 2.10566 5.60315 1.86394L5.62059 1.84784L5.63939 1.83336C6.02816 1.53388 6.46917 1.30922 6.93998 1.17079L6.95987 1.16494L6.98015 1.16066C7.4342 1.06486 7.89786 1.02351 8.36134 1.03738C8.41131 1.03887 8.46127 1.04101 8.51122 1.04379L8.4522 2.10465C8.03926 2.08167 7.62511 2.11238 7.22013 2.19597C6.89038 2.29545 6.58098 2.45286 6.30644 2.66082C6.12494 2.83049 5.96029 3.01629 5.81431 3.21558C5.7224 3.34106 5.61092 3.45186 5.48672 3.5417C5.4616 3.55987 5.43596 3.57719 5.40986 3.59359C5.38586 3.60868 5.36146 3.623 5.33672 3.6365V8.45918H6.39922V9.50043H5.33672V15.3472C5.36212 15.3613 5.38714 15.3763 5.41175 15.392C5.43721 15.4083 5.46222 15.4255 5.48672 15.4435C5.60978 15.5338 5.72017 15.6446 5.81121 15.7698C5.95706 15.9703 6.12203 16.1571 6.30421 16.3274C6.58214 16.5331 6.89239 16.691 7.22222 16.7947C7.63783 16.8788 8.063 16.9061 8.48603 16.8756L8.56239 17.9353C8.56238 17.9353 8.56241 17.9353 8.56239 17.9353C8.51251 17.9389 8.46256 17.9419 8.41264 17.9442C7.93294 17.9661 7.45218 17.9278 6.98165 17.83L6.95776 17.825L6.93443 17.8178C6.46928 17.6756 6.03257 17.4531 5.644 17.1605L5.62287 17.1445L5.60342 17.1266C5.34136 16.8849 5.10685 16.6166 4.90331 16.3267C4.87251 16.2828 4.84242 16.2384 4.81304 16.1936C4.7828 16.2378 4.75177 16.2815 4.71998 16.3247C4.50263 16.6196 4.24942 16.8882 3.96514 17.1238L3.95241 17.1344L3.93904 17.1441C3.55291 17.4256 3.12822 17.65 2.67807 17.8103L2.64345 17.8226L2.60747 17.8301C2.14457 17.9258 1.67181 17.964 1.19993 17.9438C1.14999 17.9417 1.10005 17.9389 1.05015 17.9355L1.12328 16.8755C1.5359 16.904 1.95043 16.8775 2.356 16.797C2.69201 16.6737 3.00955 16.505 3.2997 16.2953C3.48727 16.1383 3.65696 15.9625 3.80639 15.7711C3.90028 15.6509 4.01179 15.5435 4.13485 15.4554ZM4.13485 15.2753V9.65043H3.22235C3.1395 9.65043 3.07235 9.58328 3.07235 9.50043V8.45918C3.07235 8.37634 3.1395 8.30918 3.22235 8.30918H4.13485V3.71497C3.96321 3.60755 3.81042 3.46806 3.68818 3.31152C3.54558 3.1289 3.38369 2.96107 3.20477 2.81114C2.93364 2.6111 2.63473 2.45186 2.31754 2.33845C1.93218 2.26083 1.53844 2.23257 1.14582 2.25442C1.1061 2.25663 1.06713 2.24297 1.03748 2.21644C1.00783 2.18992 0.989932 2.1527 0.987722 2.11298L0.928705 1.05212C0.924103 0.969404 0.987427 0.898621 1.07014 0.894019C1.59659 0.864732 2.1246 0.905039 2.6405 1.01389L2.67261 1.02067C2.67865 1.02194 2.6846 1.02359 2.69044 1.0256L2.72146 1.03627C3.19194 1.19812 3.63449 1.43192 4.03335 1.72934L4.0505 1.74213L4.06089 1.751C4.34124 1.98341 4.59234 2.24682 4.80989 2.53527C5.01291 2.25304 5.24441 1.99107 5.50138 1.75375L5.52868 1.72853L5.54785 1.71452C5.95134 1.40372 6.40903 1.17055 6.89767 1.02688L6.92881 1.01773L6.94919 1.01389C7.46509 0.905039 7.9931 0.864732 8.51955 0.894019C8.60226 0.898621 8.66559 0.969404 8.66098 1.05212L8.60197 2.11298C8.59737 2.19569 8.52658 2.25902 8.44387 2.25442C8.04613 2.23229 7.64723 2.26157 7.25706 2.34151C6.94922 2.4352 6.66022 2.58217 6.40319 2.77573C6.23079 2.93755 6.07426 3.11454 5.93532 3.30422C5.81484 3.46871 5.66091 3.6129 5.48672 3.72201V8.30918H6.39922C6.48206 8.30918 6.54922 8.37634 6.54922 8.45918V9.50043C6.54922 9.58328 6.48206 9.65043 6.39922 9.65043H5.48672V15.2624C5.65997 15.3724 5.81288 15.5171 5.93251 15.6815C6.0711 15.8721 6.22763 16.0497 6.40035 16.2119C6.66101 16.4036 6.95131 16.5514 7.25973 16.6492C7.65955 16.7295 8.06842 16.7553 8.47525 16.726C8.55787 16.72 8.62968 16.7822 8.63564 16.8648L8.712 17.9246C8.71486 17.9642 8.70184 18.0034 8.67581 18.0335C8.64977 18.0636 8.61285 18.0821 8.57317 18.0849C8.03008 18.1241 7.48419 18.0877 6.95111 17.9768L6.91369 17.969L6.89054 17.9613C6.40869 17.8139 5.95629 17.5834 5.55377 17.2803L5.53263 17.2644C5.52866 17.2614 5.52484 17.2582 5.52118 17.2548L5.50173 17.2369C5.24441 16.9996 5.01287 16.7373 4.81018 16.4546C4.59256 16.7432 4.34135 17.0068 4.06087 17.2393L4.04093 17.2558L4.0274 17.2653C3.62962 17.5553 3.19212 17.7865 2.7284 17.9516L2.69378 17.9639C2.68727 17.9663 2.68061 17.9681 2.67384 17.9695L2.63786 17.977C2.11259 18.0856 1.57494 18.122 1.03982 18.0851C1.00013 18.0824 0.96316 18.064 0.937032 18.034C0.910904 18.004 0.897764 17.9648 0.900502 17.9251L0.973631 16.8652C0.979333 16.7825 1.05095 16.7201 1.1336 16.7258C1.5291 16.7531 1.92639 16.7283 2.31529 16.6521C2.6327 16.5346 2.93282 16.3747 3.20751 16.1769C3.38533 16.0275 3.54629 15.8605 3.68816 15.6788C3.81041 15.5223 3.9632 15.3828 4.13485 15.2753Z" fill="#5A926D"/>
</svg>
