<svg fill="none" height="40" viewBox="0 0 41 40" width="41" xmlns="http://www.w3.org/2000/svg" xmlns:xlink="http://www.w3.org/1999/xlink"><filter id="a" color-interpolation-filters="sRGB" filterUnits="userSpaceOnUse" height="20.9787" width="20.9734" x=".5" y="1.5"><feFlood flood-opacity="0" result="BackgroundImageFix"/><feColorMatrix in="SourceAlpha" type="matrix" values="0 0 0 0 0 0 0 0 0 0 0 0 0 0 0 0 0 0 127 0"/><feOffset dy="2"/><feGaussianBlur stdDeviation="1"/><feColorMatrix type="matrix" values="0 0 0 0 0 0 0 0 0 0 0 0 0 0 0 0 0 0 0.25 0"/><feBlend in2="BackgroundImageFix" mode="normal" result="effect1_dropShadow"/><feBlend in="SourceGraphic" in2="effect1_dropShadow" mode="normal" result="shape"/></filter><g filter="url(#a)"><path d="m14.6875 7.84375c0 1.15578-.3427 2.28565-.9848 3.24665-.6422.961-1.5548 1.71-2.6226 2.1523s-2.24283.558-3.37641.3325c-1.13357-.2255-2.17483-.782-2.99209-1.5993-.81727-.8173-1.37383-1.8585-1.59931-2.99209-.22548-1.13358-.10976-2.30856.33254-3.37637.4423-1.0678 1.19131-1.98047 2.15231-2.62259s2.09083-.98485 3.24661-.98485c1.54985 0 3.03625.61568 4.13215 1.71159 1.0959 1.09592 1.7116 2.5823 1.7116 4.13216z" fill="#fff"/><path d="m8.84375 13.6875c3.22745 0 5.84375-2.6163 5.84375-5.84375 0-3.22741-2.6163-5.84375-5.84375-5.84375-3.22741 0-5.84375 2.61634-5.84375 5.84375 0 3.22745 2.61634 5.84375 5.84375 5.84375z" stroke="#cc9245"/><g fill="#cc9245"><path d="m12.0312 6.78125h-2.12495v-2.125h-2.125v2.125h-2.125v2.10375h2.125v2.1462h2.125v-2.1462h2.12495z"/><path d="m13.6808 11.1837-1.5026 1.5026 5.7926 5.7925 1.5026-1.5026z"/></g></g></svg>