<svg fill="none" height="40" viewBox="0 0 40 40" width="40" xmlns="http://www.w3.org/2000/svg"><path d="m13.6875 7.84375c0 1.15578-.3427 2.28565-.9848 3.24665-.6422.961-1.5548 1.71-2.6226 2.1523-1.06785.4423-2.24283.558-3.37641.3325-1.13357-.2255-2.17483-.782-2.99209-1.5993-.81727-.8173-1.37383-1.8585-1.59931-2.99209-.22548-1.13358-.10976-2.30856.33254-3.37637.4423-1.0678 1.19131-1.98047 2.15231-2.62259s2.09083-.98485 3.24661-.98485c1.54986 0 3.03625.61568 4.13215 1.71159 1.0959 1.09592 1.7116 2.5823 1.7116 4.13216z" fill="#fdfcf7"/><g fill="#70a582"><path d="m3 7.84375c0-2.67513 2.16862-4.84375 4.84375-4.84375 2.67515 0 4.84375 2.16862 4.84375 4.84375 0 2.67515-2.1686 4.84375-4.84375 4.84375-2.67513 0-4.84375-2.1686-4.84375-4.84375zm4.84375-6.84375c-3.7797 0-6.84375 3.06405-6.84375 6.84375 0 3.77965 3.06405 6.84375 6.84375 6.84375 3.77965 0 6.84375-3.0641 6.84375-6.84375 0-3.7797-3.0641-6.84375-6.84375-6.84375z" stroke="#fdfcf7"/><path d="m11.0312 6.78125h-2.12495v-2.125h-2.125v2.125h-2.125v2.10375h2.125v2.1462h2.125v-2.1462h2.12495z"/><path d="m12.6811 11.1837-1.5026 1.5026 5.4389 5.439c.1953.1952.5119.1952.7072 0l.7954-.7955c.1953-.1953.1953-.5119 0-.7071z"/></g><path clip-rule="evenodd" d="m10.7642 13.6863 1.2788-.1356-.543-.543 1.5-1.505.5.4973.181-1.2305 5.4996 5.4996c.3905.3905.3905 1.0237 0 1.4142l-1.5026 1.5026c-.3905.3905-1.0237.3905-1.4142 0zm2.2358-2.1836 5.12 5.12c.1952.1952.1952.5118 0 .7071l-.7955.7954c-.1953.1953-.5119.1953-.7072 0l-5.1173-5.1175z" fill="#fdfcf7" fill-rule="evenodd"/></svg>